0
SECTION
2
HEADER
9
$INSUNITS
70
4
9
$ACADVER
1
AC1014
9
$HANDSEED
5
FFFF
0
ENDSEC
0
SECTION
2
TABLES
0
TABLE
2
VPORT
5
8
100
AcDbSymbolTable
0
ENDTAB
0
TABLE
2
LTYPE
5
5
100
AcDbSymbolTable
0
LTYPE
5
14
100
AcDbSymbolTableRecord
100
AcDbLinetypeTableRecord
2
BYBLOCK
70
0
0
LTYPE
5
15
100
AcDbSymbolTableRecord
100
AcDbLinetypeTableRecord
2
BYLAYER
70
0
0
ENDTAB
0
TABLE
2
LAYER
5
2
100
AcDbSymbolTable
70
2
0
LAYER
5
50
100
AcDbSymbolTableRecord
100
AcDbLayerTableRecord
2
0
70
0
6
CONTINUOUS
0
ENDTAB
0
TABLE
2
STYLE
5
3
100
AcDbSymbolTable
70
1
0
STYLE
5
11
100
AcDbSymbolTableRecord
100
AcDbTextStyleTableRecord
2
STANDARD
70
0
0
ENDTAB
0
TABLE
2
VIEW
5
6
100
AcDbSymbolTable
70
0
0
ENDTAB
0
TABLE
2
UCS
5
7
100
AcDbSymbolTable
70
0
0
ENDTAB
0
TABLE
2
APPID
5
9
100
AcDbSymbolTable
70
2
0
APPID
5
12
100
AcDbSymbolTableRecord
100
AcDbRegAppTableRecord
2
ACAD
70
0
0
ENDTAB
0
TABLE
2
DIMSTYLE
5
A
100
AcDbSymbolTable
70
1
0
ENDTAB
0
TABLE
2
BLOCK_RECORD
5
1
100
AcDbSymbolTable
70
1
0
BLOCK_RECORD
5
1F
100
AcDbSymbolTableRecord
100
AcDbBlockTableRecord
2
*MODEL_SPACE
0
BLOCK_RECORD
5
1B
100
AcDbSymbolTableRecord
100
AcDbBlockTableRecord
2
*PAPER_SPACE
0
ENDTAB
0
ENDSEC
0
SECTION
2
BLOCKS
0
BLOCK
5
20
100
AcDbEntity
100
AcDbBlockBegin
2
*MODEL_SPACE
0
ENDBLK
5
21
100
AcDbEntity
100
AcDbBlockEnd
0
BLOCK
5
1C
100
AcDbEntity
100
AcDbBlockBegin
2
*PAPER_SPACE
0
ENDBLK
5
1D
100
AcDbEntity
100
AcDbBlockEnd
0
ENDSEC
0
SECTION
2
ENTITIES
0
CIRCLE
5
100
100
AcDbEntity
8
0
100
AcDbCircle
10
252.75565
20
-57.230649999999997
30
0
40
1.9999999999999929
210
0
220
0
230
1
0
LWPOLYLINE
5
101
100
AcDbEntity
8
0
100
AcDbPolyline
90
20
70
1
43
0.0
10
231.18029999999999
20
-54.705300000000008
10
231.18029999999999
20
-53.704800000000006
10
231.97970000000001
20
-53.704800000000006
10
231.97970000000001
20
-50.605599999999995
10
231.18029999999999
20
-50.605599999999995
10
231.18029999999999
20
-44.805600000000013
10
231.97970000000001
20
-44.805600000000013
10
231.97970000000001
20
-41.705000000000013
10
231.18029999999999
20
-41.705000000000013
10
231.18029999999999
20
-40.705999999999989
10
217.18099999999998
20
-40.705999999999989
10
217.18099999999998
20
-41.705000000000013
10
216.38159999999999
20
-41.705000000000013
10
216.38159999999999
20
-44.805600000000013
10
217.18099999999998
20
-44.805600000000013
10
217.18099999999998
20
-50.605599999999995
10
216.38159999999999
20
-50.605599999999995
10
216.38159999999999
20
-53.704800000000006
10
217.18099999999998
20
-53.704800000000006
10
217.18099999999998
20
-54.705300000000008
0
LWPOLYLINE
5
102
100
AcDbEntity
8
0
100
AcDbPolyline
90
20
70
1
43
0.0
10
198.13099999999997
20
-63.85560000000001
10
198.13099999999997
20
-69.655600000000007
10
197.33199999999999
20
-69.655600000000007
10
197.33199999999999
20
-72.754800000000003
10
198.13099999999997
20
-72.754800000000003
10
198.13099999999997
20
-73.755300000000005
10
212.13170000000002
20
-73.755300000000005
10
212.13170000000002
20
-72.754800000000003
10
212.9297
20
-72.754800000000003
10
212.9297
20
-69.655600000000007
10
212.13170000000002
20
-69.655600000000007
10
212.13170000000002
20
-63.85560000000001
10
212.9297
20
-63.85560000000001
10
212.9297
20
-60.75500000000001
10
212.13170000000002
20
-60.75500000000001
10
212.13170000000002
20
-59.756
10
198.13099999999997
20
-59.756
10
198.13099999999997
20
-60.75500000000001
10
197.33199999999999
20
-60.75500000000001
10
197.33199999999999
20
-63.85560000000001
0
LWPOLYLINE
5
103
100
AcDbEntity
8
0
100
AcDbPolyline
90
20
70
1
43
0.0
10
140.98099999999999
20
-40.705999999999989
10
140.98099999999999
20
-41.705000000000013
10
140.17999999999998
20
-41.705000000000013
10
140.17999999999998
20
-44.805600000000013
10
140.98099999999999
20
-44.805600000000013
10
140.98099999999999
20
-50.605599999999995
10
140.17999999999998
20
-50.605599999999995
10
140.17999999999998
20
-53.704800000000006
10
140.98099999999999
20
-53.704800000000006
10
140.98099999999999
20
-54.705300000000008
10
154.97999999999999
20
-54.705300000000008
10
154.97999999999999
20
-53.704800000000006
10
155.78
20
-53.704800000000006
10
155.78
20
-50.605599999999995
10
154.97999999999999
20
-50.605599999999995
10
154.97999999999999
20
-44.805600000000013
10
155.78
20
-44.805600000000013
10
155.78
20
-41.705000000000013
10
154.97999999999999
20
-41.705000000000013
10
154.97999999999999
20
-40.705999999999989
0
LWPOLYLINE
5
104
100
AcDbEntity
8
0
100
AcDbPolyline
90
20
70
1
43
0.0
10
236.23099999999999
20
-59.756
10
236.23099999999999
20
-60.75500000000001
10
235.43020000000001
20
-60.75500000000001
10
235.43020000000001
20
-63.85560000000001
10
236.23099999999999
20
-63.85560000000001
10
236.23099999999999
20
-69.655600000000007
10
235.43020000000001
20
-69.655600000000007
10
235.43020000000001
20
-72.754800000000003
10
236.23099999999999
20
-72.754800000000003
10
236.23099999999999
20
-73.755300000000005
10
250.2303
20
-73.755300000000005
10
250.2303
20
-72.754800000000003
10
251.02970000000002
20
-72.754800000000003
10
251.02970000000002
20
-69.655600000000007
10
250.2303
20
-69.655600000000007
10
250.2303
20
-63.85560000000001
10
251.02970000000002
20
-63.85560000000001
10
251.02970000000002
20
-60.75500000000001
10
250.2303
20
-60.75500000000001
10
250.2303
20
-59.756
0
LWPOLYLINE
5
105
100
AcDbEntity
8
0
100
AcDbPolyline
90
20
70
1
43
0.0
10
231.97970000000001
20
-63.85560000000001
10
231.97970000000001
20
-60.75500000000001
10
231.18029999999999
20
-60.75500000000001
10
231.18029999999999
20
-59.756
10
217.18099999999998
20
-59.756
10
217.18099999999998
20
-60.75500000000001
10
216.38159999999999
20
-60.75500000000001
10
216.38159999999999
20
-63.85560000000001
10
217.18099999999998
20
-63.85560000000001
10
217.18099999999998
20
-69.655600000000007
10
216.38159999999999
20
-69.655600000000007
10
216.38159999999999
20
-72.754800000000003
10
217.18099999999998
20
-72.754800000000003
10
217.18099999999998
20
-73.755300000000005
10
231.18029999999999
20
-73.755300000000005
10
231.18029999999999
20
-72.754800000000003
10
231.97970000000001
20
-72.754800000000003
10
231.97970000000001
20
-69.655600000000007
10
231.18029999999999
20
-69.655600000000007
10
231.18029999999999
20
-63.85560000000001
0
LWPOLYLINE
5
106
100
AcDbEntity
8
0
100
AcDbPolyline
90
31
70
1
43
0.0
10
269.28030000000001
20
-16.605400000000003
10
288.33029999999997
20
-16.605400000000003
10
288.33029999999997
20
-15.604899999999997
10
289.12959999999998
20
-15.604899999999997
10
289.12959999999998
20
-12.505600000000001
10
288.33029999999997
20
-12.505600000000001
10
288.33029999999997
20
-6.7056000000000093
10
289.12959999999998
20
-6.7056000000000093
10
289.12959999999998
20
-3.6049699999999962
10
288.33030000000008
20
-3.6049699999999962
10
288.33030000000008
20
-2.6059999999999928
10
283.56780000000003
20
-2.6058700000000012
10
269.28030000000001
20
-2.6058700000000012
10
256.95529999999997
20
-2.6059999999999928
10
256.95529999999997
20
-1.0059999999999913
10
248.55410000000001
20
-1.0059999999999913
10
248.55410000000001
20
-2.6059999999999928
10
236.23099999999999
20
-2.6058700000000012
10
236.23099999999999
20
-3.6049699999999962
10
235.43020000000001
20
-3.6049699999999962
10
235.43020000000001
20
-6.7056000000000093
10
236.23099999999999
20
-6.7056000000000093
10
236.23099999999999
20
-12.505600000000001
10
235.43020000000001
20
-12.505600000000001
10
235.43020000000001
20
-15.604899999999997
10
236.23099999999999
20
-15.604899999999997
10
236.23099999999999
20
-16.605400000000003
10
248.55410000000001
20
-16.605299999999996
10
248.55410000000001
20
-18.205299999999998
10
256.95529999999997
20
-18.205299999999998
10
256.95529999999997
20
-16.605299999999996
0
LWPOLYLINE
5
107
100
AcDbEntity
8
0
100
AcDbPolyline
90
20
70
1
43
0.0
10
273.53020000000009
20
-31.555599999999998
10
273.53020000000004
20
-34.654899999999984
10
274.33100000000002
20
-34.654899999999984
10
274.33100000000013
20
-35.655300000000004
10
288.33030000000008
20
-35.655300000000004
10
288.33029999999997
20
-34.654899999999984
10
289.12959999999998
20
-34.654899999999984
10
289.12959999999998
20
-31.555599999999998
10
288.33030000000008
20
-31.555599999999998
10
288.33030000000008
20
-25.755600000000008
10
289.12959999999998
20
-25.755600000000008
10
289.12959999999998
20
-22.655000000000008
10
288.33030000000008
20
-22.655000000000008
10
288.33029999999997
20
-21.655899999999988
10
274.33100000000002
20
-21.655899999999988
10
274.33100000000013
20
-22.655000000000008
10
273.53020000000009
20
-22.655000000000008
10
273.53020000000009
20
-25.755600000000008
10
274.33100000000002
20
-25.755600000000008
10
274.33100000000002
20
-31.555599999999998
0
LWPOLYLINE
5
108
100
AcDbEntity
8
0
100
AcDbPolyline
90
20
70
1
43
0.0
10
193.88100000000003
20
-25.755600000000008
10
193.88100000000003
20
-22.655000000000008
10
193.08199999999999
20
-22.655000000000008
10
193.08199999999999
20
-21.655899999999988
10
179.08100000000002
20
-21.655899999999988
10
179.08100000000002
20
-22.655000000000008
10
178.28
20
-22.655000000000008
10
178.28
20
-25.755600000000008
10
179.08100000000002
20
-25.755600000000008
10
179.08100000000002
20
-31.555599999999998
10
178.28
20
-31.555599999999998
10
178.28
20
-34.654899999999984
10
179.08100000000002
20
-34.654899999999984
10
179.08100000000002
20
-35.655300000000004
10
193.08199999999999
20
-35.655300000000004
10
193.08199999999999
20
-34.654899999999984
10
193.88100000000003
20
-34.654899999999984
10
193.88100000000003
20
-31.555599999999998
10
193.08199999999999
20
-31.555599999999998
10
193.08199999999999
20
-25.755600000000008
0
LWPOLYLINE
5
109
100
AcDbEntity
8
0
100
AcDbPolyline
90
20
70
1
43
0.0
10
174.83000000000001
20
-22.655000000000008
10
174.02999999999997
20
-22.655000000000008
10
174.02999999999997
20
-21.655899999999988
10
160.03100000000001
20
-21.655899999999988
10
160.03100000000001
20
-22.655000000000008
10
159.22999999999999
20
-22.655000000000008
10
159.22999999999999
20
-25.755600000000008
10
160.03100000000001
20
-25.755600000000008
10
160.03100000000001
20
-31.555599999999998
10
159.22999999999999
20
-31.555599999999998
10
159.22999999999999
20
-34.654899999999984
10
160.03100000000001
20
-34.654899999999984
10
160.03100000000001
20
-35.655300000000004
10
174.02999999999997
20
-35.655300000000004
10
174.02999999999997
20
-34.654899999999984
10
174.83000000000001
20
-34.654899999999984
10
174.83000000000001
20
-31.555599999999998
10
174.02999999999997
20
-31.555599999999998
10
174.02999999999997
20
-25.755600000000008
10
174.83000000000001
20
-25.755600000000008
0
LWPOLYLINE
5
110
100
AcDbEntity
8
0
100
AcDbPolyline
90
20
70
1
43
0.0
10
193.88100000000003
20
-44.805600000000013
10
193.88100000000003
20
-41.705000000000013
10
193.08199999999999
20
-41.705000000000013
10
193.08199999999999
20
-40.705999999999989
10
179.08100000000002
20
-40.705999999999989
10
179.08100000000002
20
-41.705000000000013
10
178.28
20
-41.705000000000013
10
178.28
20
-44.805600000000013
10
179.08100000000002
20
-44.805600000000013
10
179.08100000000002
20
-50.605599999999995
10
178.28
20
-50.605599999999995
10
178.28
20
-53.704800000000006
10
179.08100000000002
20
-53.704800000000006
10
179.08100000000002
20
-54.705300000000008
10
193.08199999999999
20
-54.705300000000008
10
193.08199999999999
20
-53.704800000000006
10
193.88100000000003
20
-53.704800000000006
10
193.88100000000003
20
-50.605599999999995
10
193.08199999999999
20
-50.605599999999995
10
193.08199999999999
20
-44.805600000000013
0
LWPOLYLINE
5
111
100
AcDbEntity
8
0
100
AcDbPolyline
90
20
70
1
43
0.0
10
217.18099999999998
20
-25.755600000000008
10
217.18099999999998
20
-31.555599999999998
10
216.38159999999999
20
-31.555599999999998
10
216.38159999999999
20
-34.654899999999984
10
217.18099999999998
20
-34.654899999999984
10
217.18099999999998
20
-35.655300000000004
10
231.18029999999999
20
-35.655300000000004
10
231.18029999999999
20
-34.654899999999984
10
231.97970000000001
20
-34.654899999999984
10
231.97970000000001
20
-31.555599999999998
10
231.18029999999999
20
-31.555599999999998
10
231.18029999999999
20
-25.755600000000008
10
231.97970000000001
20
-25.755600000000008
10
231.97970000000001
20
-22.655000000000008
10
231.18029999999999
20
-22.655000000000008
10
231.18029999999999
20
-21.655899999999988
10
217.18099999999998
20
-21.655899999999988
10
217.18099999999998
20
-22.655000000000008
10
216.38159999999999
20
-22.655000000000008
10
216.38159999999999
20
-25.755600000000008
0
LWPOLYLINE
5
112
100
AcDbEntity
8
0
100
AcDbPolyline
90
20
70
1
43
0.0
10
136.72999999999999
20
-72.754800000000003
10
136.72999999999999
20
-69.655600000000007
10
135.93000000000001
20
-69.655600000000007
10
135.93000000000001
20
-63.85560000000001
10
136.72999999999999
20
-63.85560000000001
10
136.72999999999999
20
-60.75500000000001
10
135.93000000000001
20
-60.75500000000001
10
135.93000000000001
20
-59.756
10
121.931
20
-59.756
10
121.931
20
-60.75500000000001
10
121.13
20
-60.75500000000001
10
121.13
20
-63.85560000000001
10
121.931
20
-63.85560000000001
10
121.931
20
-69.655600000000007
10
121.13
20
-69.655600000000007
10
121.13
20
-72.754800000000003
10
121.931
20
-72.754800000000003
10
121.931
20
-73.755300000000005
10
135.93000000000001
20
-73.755300000000005
10
135.93000000000001
20
-72.754800000000003
0
LWPOLYLINE
5
113
100
AcDbEntity
8
0
100
AcDbPolyline
90
20
70
1
43
0.0
10
155.78
20
-22.655000000000008
10
154.97999999999999
20
-22.655000000000008
10
154.97999999999999
20
-21.655899999999988
10
140.98099999999999
20
-21.655899999999988
10
140.98099999999999
20
-22.655000000000008
10
140.17999999999998
20
-22.655000000000008
10
140.17999999999998
20
-25.755600000000008
10
140.98099999999999
20
-25.755600000000008
10
140.98099999999999
20
-31.555599999999998
10
140.17999999999998
20
-31.555599999999998
10
140.17999999999998
20
-34.654899999999984
10
140.98099999999999
20
-34.654899999999984
10
140.98099999999999
20
-35.655300000000004
10
154.97999999999999
20
-35.655300000000004
10
154.97999999999999
20
-34.654899999999984
10
155.78
20
-34.654899999999984
10
155.78
20
-31.555599999999998
10
154.97999999999999
20
-31.555599999999998
10
154.97999999999999
20
-25.755600000000008
10
155.78
20
-25.755600000000008
0
LWPOLYLINE
5
114
100
AcDbEntity
8
0
100
AcDbPolyline
90
20
70
1
43
0.0
10
255.28099999999998
20
-35.655300000000004
10
269.28030000000001
20
-35.655300000000004
10
269.28030000000001
20
-34.654899999999984
10
270.0797
20
-34.654899999999984
10
270.0797
20
-31.555599999999998
10
269.28030000000001
20
-31.555599999999998
10
269.28030000000001
20
-25.755600000000008
10
270.0797
20
-25.755600000000008
10
270.0797
20
-22.655000000000008
10
269.28030000000001
20
-22.655000000000008
10
269.28030000000001
20
-21.655899999999988
10
255.28099999999998
20
-21.655899999999988
10
255.28099999999998
20
-22.655000000000008
10
254.4802
20
-22.655000000000008
10
254.4802
20
-25.755600000000008
10
255.28099999999998
20
-25.755600000000008
10
255.28099999999998
20
-31.555599999999998
10
254.4802
20
-31.555599999999998
10
254.4802
20
-34.654899999999984
10
255.28099999999998
20
-34.654899999999984
0
LWPOLYLINE
5
115
100
AcDbEntity
8
0
100
AcDbPolyline
90
38
70
1
43
0.0
10
179.08100000000002
20
-16.605299999999996
10
179.50499999999988
20
-16.605299999999996
10
179.50499999999988
20
-18.205299999999998
10
187.07999999999998
20
-18.205299999999998
10
187.07999999999998
20
-16.605299999999996
10
188.60600000000002
20
-16.605400000000003
10
202.60500000000002
20
-16.605400000000003
10
204.131
20
-16.605299999999996
10
204.131
20
-18.205299999999998
10
211.70590000000001
20
-18.205299999999998
10
211.70590000000001
20
-16.605299999999996
10
212.13170000000002
20
-16.605299999999996
10
212.13170000000002
20
-15.604800000000001
10
212.9297
20
-15.604800000000001
10
212.9297
20
-12.505600000000001
10
212.13170000000002
20
-12.505600000000001
10
212.13170000000002
20
-6.7056000000000093
10
212.9297
20
-6.7056000000000093
10
212.9297
20
-3.6050000000000093
10
212.13170000000002
20
-3.6050000000000093
10
212.13170000000002
20
-2.6059999999999928
10
211.70590000000001
20
-2.6059999999999928
10
211.70590000000001
20
-1.0059999999999913
10
204.131
20
-1.0059999999999913
10
204.131
20
-2.6058700000000012
10
187.07999999999998
20
-2.6058700000000012
10
187.07999999999998
20
-1.0059999999999913
10
179.50499999999988
20
-1.0059999999999913
10
179.50499999999988
20
-2.6059999999999928
10
179.08100000000002
20
-2.6059999999999928
10
179.08100000000002
20
-3.6050000000000093
10
178.28
20
-3.6050000000000093
10
178.28
20
-6.7056000000000093
10
179.08100000000002
20
-6.7056000000000093
10
179.08100000000002
20
-12.505600000000001
10
178.28
20
-12.505600000000001
10
178.28
20
-15.604800000000001
10
179.08100000000002
20
-15.604800000000001
0
LWPOLYLINE
5
116
100
AcDbEntity
8
0
100
AcDbPolyline
90
20
70
1
43
0.0
10
307.38034999999996
20
-60.75500000000001
10
307.38034999999996
20
-59.756
10
293.38080000000008
20
-59.756
10
293.38080000000008
20
-60.75500000000001
10
292.58019999999999
20
-60.75500000000001
10
292.58019999999999
20
-63.85560000000001
10
293.38080000000008
20
-63.85560000000001
10
293.38080000000008
20
-69.655600000000007
10
292.58019999999999
20
-69.655600000000007
10
292.58019999999999
20
-72.754800000000003
10
293.38080000000008
20
-72.754800000000003
10
293.38080000000008
20
-73.755300000000005
10
307.38034999999996
20
-73.755300000000005
10
307.38035000002174
20
-72.755195795292451
10
308.17961000000014
20
-72.755198916524492
10
308.17961000000014
20
-69.655600000000007
10
307.38034999999996
20
-69.655600000000007
10
307.38034999999996
20
-63.85560000000001
10
308.17961000000014
20
-63.85560000000001
10
308.17961000000014
20
-60.75500000000001
0
LWPOLYLINE
5
117
100
AcDbEntity
8
0
100
AcDbPolyline
90
20
70
1
43
0.0
10
250.2303
20
-34.654899999999984
10
251.02970000000002
20
-34.654899999999984
10
251.02970000000002
20
-31.555599999999998
10
250.2303
20
-31.555599999999998
10
250.2303
20
-25.755600000000008
10
251.02970000000002
20
-25.755600000000008
10
251.02970000000002
20
-22.655000000000008
10
250.2303
20
-22.655000000000008
10
250.2303
20
-21.655899999999988
10
236.23099999999999
20
-21.655899999999988
10
236.23099999999999
20
-22.655000000000008
10
235.43020000000001
20
-22.655000000000008
10
235.43020000000001
20
-25.755600000000008
10
236.23099999999999
20
-25.755600000000008
10
236.23099999999999
20
-31.555599999999998
10
235.43020000000001
20
-31.555599999999998
10
235.43020000000001
20
-34.654899999999984
10
236.23099999999999
20
-34.654899999999984
10
236.23099999999999
20
-35.655300000000004
10
250.2303
20
-35.655300000000004
0
LWPOLYLINE
5
118
100
AcDbEntity
8
0
100
AcDbPolyline
90
20
70
1
43
0.0
10
250.2303
20
-53.704800000000006
10
251.02970000000002
20
-53.704800000000006
10
251.02970000000002
20
-50.605599999999995
10
250.2303
20
-50.605599999999995
10
250.2303
20
-44.805600000000013
10
251.02970000000002
20
-44.805600000000013
10
251.02970000000002
20
-41.705000000000013
10
250.2303
20
-41.705000000000013
10
250.2303
20
-40.705999999999989
10
236.23099999999999
20
-40.705999999999989
10
236.23099999999999
20
-41.705000000000013
10
235.43020000000001
20
-41.705000000000013
10
235.43020000000001
20
-44.805600000000013
10
236.23099999999999
20
-44.805600000000013
10
236.23099999999999
20
-50.605599999999995
10
235.43020000000001
20
-50.605599999999995
10
235.43020000000001
20
-53.704800000000006
10
236.23099999999999
20
-53.704800000000006
10
236.23099999999999
20
-54.705300000000008
10
250.2303
20
-54.705300000000008
0
LWPOLYLINE
5
119
100
AcDbEntity
8
0
100
AcDbPolyline
90
20
70
1
43
0.0
10
174.83000000000001
20
-6.7056000000000093
10
174.83000000000001
20
-3.6049699999999962
10
174.02999999999997
20
-3.6049699999999962
10
174.02999999999997
20
-2.6058700000000012
10
160.03100000000001
20
-2.6058700000000012
10
160.03100000000001
20
-3.6049699999999962
10
159.22999999999999
20
-3.6049699999999962
10
159.22999999999999
20
-6.7056000000000093
10
160.03100000000001
20
-6.7056000000000093
10
160.03100000000001
20
-12.505600000000001
10
159.22999999999999
20
-12.505600000000001
10
159.22999999999999
20
-15.604899999999997
10
160.03100000000001
20
-15.604899999999997
10
160.03100000000001
20
-16.605400000000003
10
174.02999999999997
20
-16.605400000000003
10
174.02999999999997
20
-15.604899999999997
10
174.83000000000001
20
-15.604899999999997
10
174.83000000000001
20
-12.505600000000001
10
174.02999999999997
20
-12.505600000000001
10
174.02999999999997
20
-6.7056000000000093
0
LWPOLYLINE
5
120
100
AcDbEntity
8
0
100
AcDbPolyline
90
20
70
1
43
0.0
10
269.28030000000001
20
-60.75500000000001
10
269.28030000000001
20
-59.756
10
255.28099999999998
20
-59.756
10
255.28099999999998
20
-60.75500000000001
10
254.4802
20
-60.75500000000001
10
254.4802
20
-63.85560000000001
10
255.28099999999998
20
-63.85560000000001
10
255.28099999999998
20
-69.655600000000007
10
254.4802
20
-69.655600000000007
10
254.4802
20
-72.754800000000003
10
255.28099999999998
20
-72.754800000000003
10
255.28099999999998
20
-73.755300000000005
10
269.28030000000001
20
-73.755300000000005
10
269.28030000000001
20
-72.754800000000003
10
270.0797
20
-72.754800000000003
10
270.0797
20
-69.655600000000007
10
269.28030000000001
20
-69.655600000000007
10
269.28030000000001
20
-63.85560000000001
10
270.0797
20
-63.85560000000001
10
270.0797
20
-60.75500000000001
0
LWPOLYLINE
5
121
100
AcDbEntity
8
0
100
AcDbPolyline
90
20
70
1
43
0.0
10
121.931
20
-40.705999999999989
10
121.931
20
-41.705000000000013
10
121.13
20
-41.705000000000013
10
121.13
20
-44.805600000000013
10
121.931
20
-44.805600000000013
10
121.931
20
-50.605599999999995
10
121.13
20
-50.605599999999995
10
121.13
20
-53.704800000000006
10
121.931
20
-53.704800000000006
10
121.931
20
-54.705300000000008
10
135.93000000000001
20
-54.705300000000008
10
135.93000000000001
20
-53.704800000000006
10
136.72999999999999
20
-53.704800000000006
10
136.72999999999999
20
-50.605599999999995
10
135.93000000000001
20
-50.605599999999995
10
135.93000000000001
20
-44.805600000000013
10
136.72999999999999
20
-44.805600000000013
10
136.72999999999999
20
-41.705000000000013
10
135.93000000000001
20
-41.705000000000013
10
135.93000000000001
20
-40.705999999999989
0
LWPOLYLINE
5
122
100
AcDbEntity
8
0
100
AcDbPolyline
90
20
70
1
43
0.0
10
273.53020000000009
20
-41.705000000000013
10
273.53020000000009
20
-44.805600000000013
10
274.33100000000013
20
-44.805600000000013
10
274.33100000000013
20
-50.605599999999995
10
273.53020000000009
20
-50.605599999999995
10
273.53020000000009
20
-53.704800000000006
10
274.33100000000013
20
-53.704800000000006
10
274.33100000000013
20
-54.705300000000008
10
288.33030000000008
20
-54.705300000000008
10
288.33030000000008
20
-53.704800000000006
10
289.12959999999998
20
-53.704800000000006
10
289.12959999999998
20
-50.605599999999995
10
288.33030000000008
20
-50.605599999999995
10
288.33030000000008
20
-44.805600000000013
10
289.12959999999998
20
-44.805600000000013
10
289.12959999999998
20
-41.705000000000013
10
288.33030000000008
20
-41.705000000000013
10
288.33030000000008
20
-40.705999999999989
10
274.33100000000013
20
-40.705999999999989
10
274.33100000000013
20
-41.705000000000013
0
LWPOLYLINE
5
123
100
AcDbEntity
8
0
100
AcDbPolyline
90
20
70
1
43
0.0
10
212.13170000000002
20
-54.705300000000008
10
212.13170000000002
20
-53.704800000000006
10
212.9297
20
-53.704800000000006
10
212.9297
20
-50.605599999999995
10
212.13170000000002
20
-50.605599999999995
10
212.13170000000002
20
-44.805600000000013
10
212.9297
20
-44.805600000000013
10
212.9297
20
-41.705000000000013
10
212.13170000000002
20
-41.705000000000013
10
212.13170000000002
20
-40.705999999999989
10
198.13099999999997
20
-40.705999999999989
10
198.13099999999997
20
-41.705000000000013
10
197.33199999999999
20
-41.705000000000013
10
197.33199999999999
20
-44.805600000000013
10
198.13099999999997
20
-44.805600000000013
10
198.13099999999997
20
-50.605599999999995
10
197.33199999999999
20
-50.605599999999995
10
197.33199999999999
20
-53.704800000000006
10
198.13099999999997
20
-53.704800000000006
10
198.13099999999997
20
-54.705300000000008
0
LWPOLYLINE
5
124
100
AcDbEntity
8
0
100
AcDbPolyline
90
20
70
1
43
0.0
10
174.83000000000001
20
-69.655600000000007
10
174.02999999999997
20
-69.655600000000007
10
174.02999999999997
20
-63.85560000000001
10
174.83000000000001
20
-63.85560000000001
10
174.83000000000001
20
-60.75500000000001
10
174.02999999999997
20
-60.75500000000001
10
174.02999999999997
20
-59.756
10
160.03100000000001
20
-59.756
10
160.03100000000001
20
-60.75500000000001
10
159.22999999999999
20
-60.75500000000001
10
159.22999999999999
20
-63.85560000000001
10
160.03100000000001
20
-63.85560000000001
10
160.03100000000001
20
-69.655600000000007
10
159.22999999999999
20
-69.655600000000007
10
159.22999999999999
20
-72.754800000000003
10
160.03100000000001
20
-72.754800000000003
10
160.03100000000001
20
-73.755300000000005
10
174.02999999999997
20
-73.755300000000005
10
174.02999999999997
20
-72.754800000000003
10
174.83000000000001
20
-72.754800000000003
0
LWPOLYLINE
5
125
100
AcDbEntity
8
0
100
AcDbPolyline
90
20
70
1
43
0.0
10
308.17961000000014
20
-41.705000000000013
10
307.38034999999996
20
-41.705000000000013
10
307.38034999999996
20
-40.705999999999989
10
293.38080000000008
20
-40.705999999999989
10
293.38080000000008
20
-41.705000000000013
10
292.58019999999999
20
-41.705000000000013
10
292.58019999999999
20
-44.805600000000013
10
293.38080000000008
20
-44.805600000000013
10
293.38080000000008
20
-50.605599999999995
10
292.58019999999999
20
-50.605599999999995
10
292.58019999999999
20
-53.704800000000006
10
293.38080000000008
20
-53.704800000000006
10
293.38080000000008
20
-54.705300000000008
10
307.38034999999996
20
-54.705300000000008
10
307.38034999999996
20
-53.70519579529244
10
308.17961000000014
20
-53.705198916524495
10
308.17961000000014
20
-50.605599999999995
10
307.38034999999996
20
-50.605599999999995
10
307.38034999999996
20
-44.805600000000013
10
308.17961000000014
20
-44.805600000000013
0
LWPOLYLINE
5
126
100
AcDbEntity
8
0
100
AcDbPolyline
90
20
70
1
43
0.0
10
121.13
20
-34.654899999999984
10
121.931
20
-34.654899999999984
10
121.931
20
-35.655300000000004
10
135.93000000000001
20
-35.655300000000004
10
135.93000000000001
20
-34.654899999999984
10
136.72999999999999
20
-34.654899999999984
10
136.72999999999999
20
-31.555599999999998
10
135.93000000000001
20
-31.555599999999998
10
135.93000000000001
20
-25.755600000000008
10
136.72999999999999
20
-25.755600000000008
10
136.72999999999999
20
-22.655000000000008
10
135.93000000000001
20
-22.655000000000008
10
135.93000000000001
20
-21.655899999999988
10
121.931
20
-21.655899999999988
10
121.931
20
-22.655000000000008
10
121.13
20
-22.655000000000008
10
121.13
20
-25.755600000000008
10
121.931
20
-25.755600000000008
10
121.931
20
-31.555599999999998
10
121.13
20
-31.555599999999998
0
LWPOLYLINE
5
127
100
AcDbEntity
8
0
100
AcDbPolyline
90
20
70
1
43
0.0
10
212.13170000000002
20
-21.655899999999988
10
198.13099999999997
20
-21.655899999999988
10
198.13099999999997
20
-22.655000000000008
10
197.33199999999999
20
-22.655000000000008
10
197.33199999999999
20
-25.755600000000008
10
198.13099999999997
20
-25.755600000000008
10
198.13099999999997
20
-31.555599999999998
10
197.33199999999999
20
-31.555599999999998
10
197.33199999999999
20
-34.654899999999984
10
198.13099999999997
20
-34.654899999999984
10
198.13099999999997
20
-35.655300000000004
10
212.13170000000002
20
-35.655300000000004
10
212.13170000000002
20
-34.654899999999984
10
212.9297
20
-34.654899999999984
10
212.9297
20
-31.555599999999998
10
212.13170000000002
20
-31.555599999999998
10
212.13170000000002
20
-25.755600000000008
10
212.9297
20
-25.755600000000008
10
212.9297
20
-22.655000000000008
10
212.13170000000002
20
-22.655000000000008
0
LWPOLYLINE
5
128
100
AcDbEntity
8
0
100
AcDbPolyline
90
22
70
1
43
0.0
10
98.629999999999995
20
-25.755600000000008
10
98.629999999999995
20
-22.655000000000008
10
97.829999999999998
20
-22.655000000000008
10
97.829999999999998
20
-21.655899999999988
10
83.830999999999975
20
-21.655899999999988
10
83.831000000000003
20
-22.655000000000008
10
83.029999999999973
20
-22.655000000000008
10
83.029999999999973
20
-25.755600000000008
10
83.830999999999975
20
-25.755600000000008
10
83.830999999999975
20
-31.555599999999998
10
83.029999999999973
20
-31.555599999999998
10
83.029999999999973
20
-34.654899999999984
10
83.830999999999975
20
-34.654899999999984
10
83.831000000000003
20
-35.655300000000004
10
97.829999999999998
20
-35.655300000000004
10
97.829999999999998
20
-34.654899999999984
10
98.629999999999995
20
-34.654899999999984
10
98.629999999999995
20
-34.654800000000002
10
98.630041148752383
20
-34.654800000000002
10
98.630036105060043
20
-31.555599999999998
10
97.829999999999998
20
-31.555599999999998
10
97.829999999999998
20
-25.755600000000008
0
LWPOLYLINE
5
129
100
AcDbEntity
8
0
100
AcDbPolyline
90
20
70
1
43
0.0
10
292.58019999999999
20
-31.555599999999998
10
292.58019999999999
20
-34.654899999999984
10
293.38079999999997
20
-34.654899999999984
10
293.38080000000008
20
-35.655300000000004
10
307.38034999999996
20
-35.655300000000004
10
307.38035000002174
20
-34.655195795292435
10
308.17961000000014
20
-34.65519891652449
10
308.17961000000014
20
-31.555599999999998
10
307.38034999999996
20
-31.555599999999998
10
307.38034999999996
20
-25.755600000000008
10
308.17961000000014
20
-25.755600000000008
10
308.17961000000014
20
-22.655000000000008
10
307.38034999999996
20
-22.655000000000008
10
307.38034999999996
20
-21.655899999999988
10
293.38079999999997
20
-21.655899999999988
10
293.38080000000008
20
-22.655000000000008
10
292.58019999999999
20
-22.655000000000008
10
292.58019999999999
20
-25.755600000000008
10
293.38080000000008
20
-25.755600000000008
10
293.38080000000008
20
-31.555599999999998
0
LWPOLYLINE
5
130
100
AcDbEntity
8
0
100
AcDbPolyline
90
20
70
1
43
0.0
10
154.97999999999999
20
-72.754800000000003
10
155.78
20
-72.754800000000003
10
155.78
20
-69.655600000000007
10
154.97999999999999
20
-69.655600000000007
10
154.97999999999999
20
-63.85560000000001
10
155.78
20
-63.85560000000001
10
155.78
20
-60.75500000000001
10
154.97999999999999
20
-60.75500000000001
10
154.97999999999999
20
-59.756
10
140.98099999999999
20
-59.756
10
140.98099999999999
20
-60.75500000000001
10
140.17999999999998
20
-60.75500000000001
10
140.17999999999998
20
-63.85560000000001
10
140.98099999999999
20
-63.85560000000001
10
140.98099999999999
20
-69.655600000000007
10
140.17999999999998
20
-69.655600000000007
10
140.17999999999998
20
-72.754800000000003
10
140.98099999999999
20
-72.754800000000003
10
140.98099999999999
20
-73.755300000000005
10
154.97999999999999
20
-73.755300000000005
0
LWPOLYLINE
5
131
100
AcDbEntity
8
0
100
AcDbPolyline
90
20
70
1
43
0.0
10
231.97970000000001
20
-3.6049699999999962
10
231.18029999999999
20
-3.6049699999999962
10
231.18029999999999
20
-2.6058700000000012
10
217.18099999999998
20
-2.6058700000000012
10
217.18099999999998
20
-3.6049699999999962
10
216.38159999999999
20
-3.6049699999999962
10
216.38159999999999
20
-6.7056000000000093
10
217.18099999999998
20
-6.7056000000000093
10
217.18099999999998
20
-12.505600000000001
10
216.38159999999999
20
-12.505600000000001
10
216.38159999999999
20
-15.604899999999997
10
217.18099999999998
20
-15.604899999999997
10
217.18099999999998
20
-16.605400000000003
10
231.18029999999999
20
-16.605400000000003
10
231.18029999999999
20
-15.604899999999997
10
231.97970000000001
20
-15.604899999999997
10
231.97970000000001
20
-12.505600000000001
10
231.18029999999999
20
-12.505600000000001
10
231.18029999999999
20
-6.7056000000000093
10
231.97970000000001
20
-6.7056000000000093
0
LWPOLYLINE
5
132
100
AcDbEntity
8
0
100
AcDbPolyline
90
20
70
1
43
0.0
10
160.03100000000001
20
-54.705300000000008
10
174.02999999999997
20
-54.705300000000008
10
174.02999999999997
20
-53.704800000000006
10
174.83000000000001
20
-53.704800000000006
10
174.83000000000001
20
-50.605599999999995
10
174.02999999999997
20
-50.605599999999995
10
174.02999999999997
20
-44.805600000000013
10
174.83000000000001
20
-44.805600000000013
10
174.83000000000001
20
-41.705000000000013
10
174.02999999999997
20
-41.705000000000013
10
174.02999999999997
20
-40.705999999999989
10
160.03100000000001
20
-40.705999999999989
10
160.03100000000001
20
-41.705000000000013
10
159.22999999999999
20
-41.705000000000013
10
159.22999999999999
20
-44.805600000000013
10
160.03100000000001
20
-44.805600000000013
10
160.03100000000001
20
-50.605599999999995
10
159.22999999999999
20
-50.605599999999995
10
159.22999999999999
20
-53.704800000000006
10
160.03100000000001
20
-53.704800000000006
0
LWPOLYLINE
5
133
100
AcDbEntity
8
0
100
AcDbPolyline
90
30
70
1
43
0.0
10
155.78
20
-3.6049699999999962
10
154.97999999999999
20
-3.6049699999999962
10
154.97999999999999
20
-2.6058700000000012
10
142.655
20
-2.6059999999999928
10
142.655
20
-1.0059999999999913
10
134.255
20
-1.0059999999999913
10
134.255
20
-2.6059999999999928
10
121.643
20
-2.6058700000000012
10
102.881
20
-2.6058700000000012
10
102.881
20
-3.6049699999999962
10
102.08
20
-3.6049699999999962
10
102.08
20
-6.7056000000000093
10
102.881
20
-6.7056000000000093
10
102.881
20
-12.505600000000001
10
102.08
20
-12.505600000000001
10
102.08
20
-15.604899999999997
10
102.881
20
-15.604899999999997
10
102.881
20
-16.605400000000003
10
121.931
20
-16.605400000000003
10
134.255
20
-16.605299999999996
10
134.255
20
-18.205299999999998
10
142.655
20
-18.205299999999998
10
142.655
20
-16.605299999999996
10
154.97999999999999
20
-16.605299999999996
10
154.97999999999999
20
-15.604899999999997
10
155.78
20
-15.604899999999997
10
155.78
20
-12.505600000000001
10
154.97999999999999
20
-12.505600000000001
10
154.97999999999999
20
-6.7056000000000093
10
155.78
20
-6.7056000000000093
0
LWPOLYLINE
5
134
100
AcDbEntity
8
0
100
AcDbPolyline
90
20
70
1
43
0.0
10
83.029999999999973
20
-69.655600000000007
10
83.029999999999973
20
-72.754800000000003
10
83.831000000000003
20
-72.754800000000003
10
83.831000000000003
20
-73.755300000000005
10
97.829999999999998
20
-73.755300000000005
10
97.829999999999998
20
-72.754800000000003
10
98.630041148752383
20
-72.754800000000003
10
98.630036105060043
20
-69.655600000000007
10
97.829999999999998
20
-69.655600000000007
10
97.829999999999998
20
-63.85560000000001
10
98.629999999999995
20
-63.85560000000001
10
98.629999999999995
20
-60.75500000000001
10
97.829999999999998
20
-60.75500000000001
10
97.829999999999998
20
-59.756
10
83.831000000000003
20
-59.756
10
83.831000000000003
20
-60.75500000000001
10
83.029999999999973
20
-60.75500000000001
10
83.029999999999973
20
-63.85560000000001
10
83.831000000000003
20
-63.85560000000001
10
83.831000000000003
20
-69.655600000000007
0
LWPOLYLINE
5
135
100
AcDbEntity
8
0
100
AcDbPolyline
90
20
70
1
43
0.0
10
83.831000000000003
20
-50.605599999999995
10
83.029999999999973
20
-50.605599999999995
10
83.029999999999973
20
-53.704800000000006
10
83.831000000000003
20
-53.704800000000006
10
83.831000000000003
20
-54.705300000000008
10
97.829999999999998
20
-54.705300000000008
10
97.829999999999998
20
-53.704800000000006
10
98.630041148752383
20
-53.704800000000006
10
98.630036105060043
20
-50.605599999999995
10
97.829999999999998
20
-50.605599999999995
10
97.829999999999998
20
-44.805600000000013
10
98.629999999999995
20
-44.805600000000013
10
98.629999999999995
20
-41.705000000000013
10
97.829999999999998
20
-41.705000000000013
10
97.829999999999998
20
-40.705999999999989
10
83.831000000000003
20
-40.705999999999989
10
83.831000000000003
20
-41.705000000000013
10
83.029999999999973
20
-41.705000000000013
10
83.029999999999973
20
-44.805600000000013
10
83.831000000000003
20
-44.805600000000013
0
LWPOLYLINE
5
136
100
AcDbEntity
8
0
100
AcDbPolyline
90
20
70
1
43
0.0
10
179.08100000000002
20
-73.755300000000005
10
193.08199999999999
20
-73.755300000000005
10
193.08199999999999
20
-72.754800000000003
10
193.88100000000003
20
-72.754800000000003
10
193.88100000000003
20
-69.655600000000007
10
193.08199999999999
20
-69.655600000000007
10
193.08199999999999
20
-63.85560000000001
10
193.88100000000003
20
-63.85560000000001
10
193.88100000000003
20
-60.75500000000001
10
193.08199999999999
20
-60.75500000000001
10
193.08199999999999
20
-59.756
10
179.08100000000002
20
-59.756
10
179.08100000000002
20
-60.75500000000001
10
178.28
20
-60.75500000000001
10
178.28
20
-63.85560000000001
10
179.08100000000002
20
-63.85560000000001
10
179.08100000000002
20
-69.655600000000007
10
178.28
20
-69.655600000000007
10
178.28
20
-72.754800000000003
10
179.08100000000002
20
-72.754800000000003
0
LWPOLYLINE
5
137
100
AcDbEntity
8
0
100
AcDbPolyline
90
20
70
1
43
0.0
10
269.28030000000001
20
-40.705999999999989
10
255.28099999999998
20
-40.705999999999989
10
255.28099999999998
20
-41.705000000000013
10
254.4802
20
-41.705000000000013
10
254.4802
20
-44.805600000000013
10
255.28099999999998
20
-44.805600000000013
10
255.28099999999998
20
-50.605599999999995
10
254.4802
20
-50.605599999999995
10
254.4802
20
-53.704800000000006
10
255.28099999999998
20
-53.704800000000006
10
255.28099999999998
20
-54.705300000000008
10
269.28030000000001
20
-54.705300000000008
10
269.28030000000001
20
-53.704800000000006
10
270.0797
20
-53.704800000000006
10
270.0797
20
-50.605599999999995
10
269.28030000000001
20
-50.605599999999995
10
269.28030000000001
20
-44.805600000000013
10
270.0797
20
-44.805600000000013
10
270.0797
20
-41.705000000000013
10
269.28030000000001
20
-41.705000000000013
0
LWPOLYLINE
5
138
100
AcDbEntity
8
0
100
AcDbPolyline
90
20
70
1
43
0.0
10
102.08
20
-34.654899999999984
10
102.881
20
-34.654899999999984
10
102.881
20
-35.655300000000004
10
116.88
20
-35.655300000000004
10
116.88
20
-34.654899999999984
10
117.67999999999999
20
-34.654899999999984
10
117.67999999999999
20
-31.555599999999998
10
116.88
20
-31.555599999999998
10
116.88
20
-25.755600000000008
10
117.67999999999999
20
-25.755600000000008
10
117.67999999999999
20
-22.655000000000008
10
116.88
20
-22.655000000000008
10
116.88
20
-21.655899999999988
10
102.881
20
-21.655899999999988
10
102.881
20
-22.655000000000008
10
102.08
20
-22.655000000000008
10
102.08
20
-25.755600000000008
10
102.881
20
-25.755600000000008
10
102.881
20
-31.555599999999998
10
102.08
20
-31.555599999999998
0
LWPOLYLINE
5
139
100
AcDbEntity
8
0
100
AcDbPolyline
90
20
70
1
43
0.0
10
116.88
20
-59.756
10
102.881
20
-59.756
10
102.881
20
-60.75500000000001
10
102.08
20
-60.75500000000001
10
102.08
20
-63.85560000000001
10
102.881
20
-63.85560000000001
10
102.881
20
-69.655600000000007
10
102.08
20
-69.655600000000007
10
102.08
20
-72.754800000000003
10
102.881
20
-72.754800000000003
10
102.881
20
-73.755300000000005
10
116.88
20
-73.755300000000005
10
116.88
20
-72.754800000000003
10
117.67999999999999
20
-72.754800000000003
10
117.67999999999999
20
-69.655600000000007
10
116.88
20
-69.655600000000007
10
116.88
20
-63.85560000000001
10
117.67999999999999
20
-63.85560000000001
10
117.67999999999999
20
-60.75500000000001
10
116.88
20
-60.75500000000001
0
LWPOLYLINE
5
140
100
AcDbEntity
8
0
100
AcDbPolyline
90
20
70
1
43
0.0
10
102.881
20
-40.705999999999989
10
102.881
20
-41.705000000000013
10
102.08
20
-41.705000000000013
10
102.08
20
-44.805600000000013
10
102.881
20
-44.805600000000013
10
102.881
20
-50.605599999999995
10
102.08
20
-50.605599999999995
10
102.08
20
-53.704800000000006
10
102.881
20
-53.704800000000006
10
102.881
20
-54.705300000000008
10
116.88
20
-54.705300000000008
10
116.88
20
-53.704800000000006
10
117.67999999999999
20
-53.704800000000006
10
117.67999999999999
20
-50.605599999999995
10
116.88
20
-50.605599999999995
10
116.88
20
-44.805600000000013
10
117.67999999999999
20
-44.805600000000013
10
117.67999999999999
20
-41.705000000000013
10
116.88
20
-41.705000000000013
10
116.88
20
-40.705999999999989
0
LWPOLYLINE
5
141
100
AcDbEntity
8
0
100
AcDbPolyline
90
20
70
1
43
0.0
10
288.33030000000008
20
-63.85560000000001
10
289.12959999999998
20
-63.85560000000001
10
289.12959999999998
20
-60.75500000000001
10
288.33030000000008
20
-60.75500000000001
10
288.33030000000008
20
-59.756
10
274.33100000000013
20
-59.756
10
274.33100000000013
20
-60.75500000000001
10
273.53020000000009
20
-60.75500000000001
10
273.53020000000009
20
-63.85560000000001
10
274.33100000000013
20
-63.85560000000001
10
274.33100000000013
20
-69.655600000000007
10
273.53020000000009
20
-69.655600000000007
10
273.53020000000009
20
-72.754800000000003
10
274.33100000000013
20
-72.754800000000003
10
274.33100000000013
20
-73.755300000000005
10
288.33030000000008
20
-73.755300000000005
10
288.33030000000008
20
-72.754800000000003
10
289.12959999999998
20
-72.754800000000003
10
289.12959999999998
20
-69.655600000000007
10
288.33030000000008
20
-69.655600000000007
0
LINE
5
142
100
AcDbEntity
8
0
100
AcDbLine
10
207.29887404526463
20
-78.755024341640251
30
0
11
250.47965810006988
21
-78.755253373984033
31
0
0
ARC
5
143
100
AcDbEntity
8
0
100
AcDbCircle
10
250.47964218795926
20
-81.755253373941969
30
0
40
3.0000000000001199
210
0
220
-0
230
1
100
AcDbArc
50
52.431405362756209
51
89.999696101072658
0
LINE
5
144
100
AcDbEntity
8
0
100
AcDbLine
10
252.3087745787621
20
-79.377381489900159
30
0
11
257.19123820272495
21
-83.133123092903361
31
0
0
ARC
5
145
100
AcDbEntity
8
0
100
AcDbCircle
10
259.0203705935279
20
-80.755251208861608
30
0
40
3.0000000000001137
210
0
220
0
230
1
100
AcDbArc
50
232.43140536275379
51
270.00000001033624
0
LINE
5
146
100
AcDbEntity
8
0
100
AcDbLine
10
259.02037059406911
20
-83.755251208861694
30
0
11
260.94998688516762
21
-83.75525120851357
31
0
0
LINE
5
147
100
AcDbEntity
8
0
100
AcDbLine
10
260.94998688516762
20
-83.75525120851357
30
0
11
260.94998210865225
21
-81.255232546925455
31
0
0
ARC
5
148
100
AcDbEntity
8
0
100
AcDbCircle
10
262.14998210858369
20
-81.255230254009803
30
0
40
1.1999999999336453
210
0
220
-0
230
1
100
AcDbArc
50
0
51
180.00010947628894
0
LINE
5
149
100
AcDbEntity
8
0
100
AcDbLine
10
263.34998210851734
20
-81.255230253750995
30
0
11
263.34998210881236
21
-83.755251266380071
31
0
0
LINE
5
150
100
AcDbEntity
8
0
100
AcDbLine
10
263.34998210881236
20
-83.755251266380071
30
0
11
265.27958310826875
21
-83.755251266028495
31
0
0
ARC
5
151
100
AcDbEntity
8
0
100
AcDbCircle
10
265.2795831077222
20
-80.755251266028424
30
0
40
3.0000000000000604
210
-0
220
0
230
1
100
AcDbArc
50
270.00000001043833
51
307.56859203926638
0
LINE
5
152
100
AcDbEntity
8
0
100
AcDbLine
10
267.10871539070456
20
-83.13312323300903
30
0
11
271.99118231794353
21
-79.377378853852534
31
0
0
ARC
5
153
100
AcDbEntity
8
0
100
AcDbCircle
10
273.82042953023057
20
-81.755161508026362
30
0
40
2.9999992856915627
210
0
220
0
230
1
100
AcDbArc
50
90.002215248634855
51
127.57137185359785
0
LINE
5
154
100
AcDbEntity
8
0
100
AcDbLine
10
273.82031354011093
20
-78.755162224577077
30
0
11
278.29994654069492
21
-78.755251189107923
31
0
0
LINE
5
155
100
AcDbEntity
8
0
100
AcDbLine
10
278.29994654069492
20
-78.755251189107923
30
0
11
309.38022677145574
21
-78.7547113812427
31
0
0
ARC
5
156
100
AcDbEntity
8
0
100
AcDbCircle
10
309.38017466693282
20
-75.754711381845652
30
0
40
2.9999999998495208
210
-0
220
0
230
1
100
AcDbArc
50
-89.99900487691427
51
0.019376978588498649
0
LINE
5
157
100
AcDbEntity
8
0
100
AcDbLine
10
312.38017449522152
20
-75.753696805637688
30
0
11
312.3803150776485
21
-74.851697145314972
31
0
0
LINE
5
158
100
AcDbEntity
8
0
100
AcDbLine
10
312.3803150776485
20
-74.851697145314972
30
0
11
312.37141814373382
21
-49.862044037298325
31
0
0
ARC
5
159
100
AcDbEntity
8
0
100
AcDbCircle
10
315.37141813996305
20
-49.862193029428674
30
0
40
2.9999999999290319
210
0
220
0
230
1
100
AcDbArc
50
142.4314079720215
51
179.99715445991598
0
LINE
5
160
100
AcDbEntity
8
0
100
AcDbLine
10
312.99354617267841
20
-48.033060746958107
30
0
11
316.75818692882194
21
-43.139027763864213
31
0
0
ARC
5
161
100
AcDbEntity
8
0
100
AcDbCircle
10
314.38031496150808
20
-41.309895481315131
30
0
40
3.0000000000000222
210
-0
220
0
230
1
100
AcDbArc
50
-37.568592028826799
51
0
0
LINE
5
162
100
AcDbEntity
8
0
100
AcDbLine
10
317.38031496150813
20
-41.309895481315131
30
0
11
317.38031496150802
21
-39.372608172783536
31
0
0
LINE
5
163
100
AcDbEntity
8
0
100
AcDbLine
10
317.38031496150802
20
-39.372608172783536
30
0
11
313.8880191137589
21
-39.372608174295692
31
0
0
ARC
5
164
100
AcDbEntity
8
0
100
AcDbCircle
10
313.88801911385474
20
-38.172608174114188
30
0
40
1.2000000001814874
210
0
220
0
230
1
100
AcDbArc
50
90.001033937169282
51
269.99999999542405
0
LINE
5
165
100
AcDbEntity
8
0
100
AcDbLine
10
313.8879974591253
20
-36.972608174128084
30
0
11
317.38031496128821
21
-36.972545154238446
31
0
0
LINE
5
166
100
AcDbEntity
8
0
100
AcDbLine
10
317.38031496128821
20
-36.972545154238446
30
0
11
317.38031496093788
21
-35.05068296712053
31
0
0
ARC
5
167
100
AcDbEntity
8
0
100
AcDbCircle
10
314.38031496093788
20
-35.05068296712053
30
0
40
3.0000000000000071
210
0
220
-0
230
1
100
AcDbArc
50
0
51
37.56859203926679
0
LINE
5
168
100
AcDbEntity
8
0
100
AcDbLine
10
316.75818692791842
20
-33.221550684138201
30
0
11
313.00244291789534
21
-28.339083472949028
31
0
0
ARC
5
169
100
AcDbEntity
8
0
100
AcDbCircle
10
315.38029265295756
20
-26.509958754092089
30
0
40
2.9999777665291116
210
0
220
0
230
1
100
AcDbArc
50
179.99986064907515
51
217.56873641677427
0
LINE
5
170
100
AcDbEntity
8
0
100
AcDbLine
10
312.38031488643736
20
-26.509951457748848
30
0
11
312.38037788937038
21
-0.60582045055181943
31
0
0
ARC
5
171
100
AcDbEntity
8
0
100
AcDbCircle
10
309.38037788937925
20
-0.60581315415445802
30
0
40
3.0000000000000338
210
-0
220
0
230
1
100
AcDbArc
50
-0.00013934830937754959
51
89.998851931231798
0
LINE
5
172
100
AcDbEntity
8
0
100
AcDbLine
10
309.38043800211938
20
2.3941868452433188
30
0
11
273.8203821624428
21
2.3948993824721665
31
0
0
ARC
5
173
100
AcDbEntity
8
0
100
AcDbCircle
10
273.82038713734892
20
5.3948993824680684
30
0
40
3.0000000000000382
210
0
220
0
230
1
100
AcDbArc
50
232.43131295775854
51
269.99990498629194
0
LINE
5
174
100
AcDbEntity
8
0
100
AcDbLine
10
271.99125091158459
20
3.0170304484018926
30
0
11
267.10878992785644
21
6.7727825541103837
31
0
0
ARC
5
175
100
AcDbEntity
8
0
100
AcDbCircle
10
265.27965370209211
20
4.3949136200441608
30
0
40
3.0000000000000764
210
0
220
-0
230
1
100
AcDbArc
50
52.431312957759111
51
90.000243831372913
0
LINE
5
176
100
AcDbEntity
8
0
100
AcDbLine
10
265.27964093511127
20
7.3949136200170695
30
0
11
263.34962537902499
21
7.3958470282450151
31
0
0
LINE
5
177
100
AcDbEntity
8
0
100
AcDbLine
10
263.34962537902499
20
7.3958470282450151
30
0
11
263.34964494738603
21
4.8958260158005551
31
0
0
ARC
5
178
100
AcDbEntity
8
0
100
AcDbCircle
10
262.14964494692322
20
4.8958166233897069
30
0
40
1.200000000499599
210
0
220
0
230
1
100
AcDbArc
50
-179.99966100885391
51
0.00044845471591949614
0
LINE
5
179
100
AcDbEntity
8
0
100
AcDbLine
10
260.94964494644461
20
4.8958095235659744
30
0
11
260.94963015494397
21
7.3958281851775798
31
0
0
LINE
5
180
100
AcDbEntity
8
0
100
AcDbLine
10
260.94963015494397
20
7.3958281851775798
30
0
11
259.02044639129412
21
7.394925458151107
31
0
0
ARC
5
181
100
AcDbEntity
8
0
100
AcDbCircle
10
259.02044367561962
20
4.3949239413675381
30
0
40
3.0000015167847982
210
0
220
-0
230
1
100
AcDbArc
50
89.999948134463807
51
127.56853729328664
0
LINE
5
182
100
AcDbEntity
8
0
100
AcDbLine
10
257.19131273989024
20
6.7727988583194021
30
0
11
252.30884421938782
21
3.0170663747750481
31
0
0
ARC
5
183
100
AcDbEntity
8
0
100
AcDbCircle
10
250.47971577137179
20
5.3949412917249706
30
0
40
3.0000000000001936
210
0
220
0
230
1
100
AcDbArc
50
269.9996814348886
51
307.56849963426919
0
LINE
5
184
100
AcDbEntity
8
0
100
AcDbLine
10
250.47969909134156
20
2.3949412917711479
30
0
11
207.29855645528261
21
2.3951813789907739
31
0
0
LINE
5
185
100
AcDbEntity
8
0
100
AcDbLine
10
207.29855645528261
20
2.3951813789907739
30
0
11
183.970908007052
21
2.3899321164395104
31
0
0
LINE
5
186
100
AcDbEntity
8
0
100
AcDbLine
10
183.970908007052
20
2.3899321164395104
30
0
11
136.74233120182322
21
2.3783152918109529
31
0
0
ARC
5
187
100
AcDbEntity
8
0
100
AcDbCircle
10
136.74158309679169
20
5.4197663843306421
30
0
40
3.0414511882884288
210
0
220
0
230
1
100
AcDbArc
50
232.5847434757151
51
270.01409302953459
0
LINE
5
188
100
AcDbEntity
8
0
100
AcDbLine
10
134.89363582246148
20
3.0040850721463013
30
0
11
129.99659891859127
21
6.7723552311420843
31
0
0
ARC
5
189
100
AcDbEntity
8
0
100
AcDbCircle
10
128.16706442968891
20
4.3947927074811419
30
0
40
3.0000000000000377
210
0
220
-0
230
1
100
AcDbArc
50
52.421716017041156
51
90.000559148699892
0
LINE
5
190
100
AcDbEntity
8
0
100
AcDbLine
10
128.16703515273144
20
7.3947927073383246
30
0
11
126.2623645173569
21
7.3947741196845662
31
0
0
LINE
5
191
100
AcDbEntity
8
0
100
AcDbLine
10
126.2623645173569
20
7.3947741196845662
30
0
11
126.26238891501048
21
4.8947547565189176
31
0
0
ARC
5
192
100
AcDbEntity
8
0
100
AcDbCircle
10
125.0623904186377
20
4.8947426087826509
30
0
40
1.1999984964342736
210
0
220
0
230
1
100
AcDbArc
50
-179.99957301329707
51
0.00058001211784483207
0
LINE
5
193
100
AcDbEntity
8
0
100
AcDbLine
10
123.86239192223675
20
4.8947336660046901
30
0
11
123.8623693626427
21
7.3947554125688519
31
0
0
LINE
5
194
100
AcDbEntity
8
0
100
AcDbLine
10
123.8623693626427
20
7.3947554125688519
30
0
11
121.93301506567151
21
7.3940769712660703
31
0
0
ARC
5
195
100
AcDbEntity
8
0
100
AcDbCircle
10
121.9322966131793
20
4.3964729719313498
30
0
40
2.9976040854324797
210
0
220
-0
230
1
100
AcDbArc
50
89.986267600788793
51
127.62456186550205
0
LINE
5
196
100
AcDbEntity
8
0
100
AcDbLine
10
120.10230502994142
20
6.7706593711595087
30
0
11
115.21910780803879
21
3.0143276549182918
31
0
0
ARC
5
197
100
AcDbEntity
8
0
100
AcDbCircle
10
113.39509503124026
20
5.3886140297454315
30
0
40
2.9940371406537469
210
0
220
0
230
1
100
AcDbArc
50
269.87336255202257
51
307.53277459510758
0
LINE
5
198
100
AcDbEntity
8
0
100
AcDbLine
10
113.3884774947104
20
2.3945842022680326
30
0
11
81.845979825408079
21
2.3895390507802095
31
0
0
ARC
5
199
100
AcDbEntity
8
0
100
AcDbCircle
10
81.846459668647896
20
-0.61046091084486798
30
0
40
3
210
0
220
0
230
1
100
AcDbArc
50
90.009164330862177
51
180.00803892279512
0
LINE
5
200
100
AcDbEntity
8
0
100
AcDbLine
10
78.846459698176417
20
-0.61088182785675271
30
0
11
78.841669285656977
21
-26.430647280668211
31
0
0
ARC
5
201
100
AcDbEntity
8
0
100
AcDbCircle
10
75.841669337290526
20
-26.430090682377731
30
0
40
3.0000000000000653
210
0
220
0
230
1
100
AcDbArc
50
322.53448436122773
51
359.98936975565186
0
LINE
5
202
100
AcDbEntity
8
0
100
AcDbLine
10
78.222828104787084
20
-28.254942162354844
30
0
11
74.453922261853108
21
-33.172801665027251
31
0
0
ARC
5
203
100
AcDbEntity
8
0
100
AcDbCircle
10
76.832832015213569
20
-35.000584033189988
30
0
40
3.0000000000000258
210
0
220
0
230
1
100
AcDbArc
50
142.46392760293509
51
180.03251916419228
0
LINE
5
204
100
AcDbEntity
8
0
100
AcDbLine
10
73.832832498411108
20
-35.002286732554026
30
0
11
73.832283510133934
21
-36.972840995570152
31
0
0
LINE
5
205
100
AcDbEntity
8
0
100
AcDbLine
10
73.832283510133934
20
-36.972840995570152
30
0
11
77.324601010459844
21
-36.972895531772423
31
0
0
ARC
5
206
100
AcDbEntity
8
0
100
AcDbCircle
10
77.324582273743999
20
-38.172895531682933
30
0
40
1.2000000000567848
210
0
220
0
230
1
100
AcDbArc
50
-89.999860793924412
51
89.99910538771681
0
LINE
5
207
100
AcDbEntity
8
0
100
AcDbLine
10
77.324585189269229
20
-39.372895531736177
30
0
11
73.832864106362564
21
-39.372904015236962
31
0
0
LINE
5
208
100
AcDbEntity
8
0
100
AcDbLine
10
73.832864106362564
20
-39.372904015236962
30
0
11
73.833332087660494
21
-41.307440534276481
31
0
0
ARC
5
209
100
AcDbEntity
8
0
100
AcDbCircle
10
76.833332081255719
20
-41.307244501442383
30
0
40
3.0000000000000315
210
0
220
0
230
1
100
AcDbArc
50
180.00374395134921
51
217.5723359818632
0
LINE
5
210
100
AcDbEntity
8
0
100
AcDbLine
10
74.455579642400778
20
-43.136532160483341
30
0
11
78.215067684141417
21
-48.023158997804394
31
0
0
ARC
5
211
100
AcDbEntity
8
0
100
AcDbCircle
10
75.837323720740599
20
-49.852457672666318
30
0
40
2.999999999556767
210
0
220
0
230
1
100
AcDbArc
50
-0.011615290664122658
51
37.572601432820157
0
LINE
5
212
100
AcDbEntity
8
0
100
AcDbLine
10
78.837323658651187
20
-49.853065847859064
30
0
11
78.832072658305691
21
-75.755142847747635
31
0
0
ARC
5
213
100
AcDbEntity
8
0
100
AcDbCircle
10
81.832072658203415
20
-75.755118071812262
30
0
40
3.000000000000032
210
0
220
0
230
1
100
AcDbArc
50
180.00047318550997
51
269.99991984340971
0
LINE
5
214
100
AcDbEntity
8
0
100
AcDbLine
10
81.832068461214163
20
-78.755118071809363
30
0
11
113.38879508308116
21
-78.755162221291968
31
0
0
ARC
5
215
100
AcDbEntity
8
0
100
AcDbCircle
10
113.3954360546808
20
-81.749191995130687
30
0
40
2.9940371389040066
210
0
220
-0
230
1
100
AcDbArc
50
52.467673873099258
51
90.127085917398972
0
LINE
5
216
100
AcDbEntity
8
0
100
AcDbLine
10
115.21943024623206
20
-79.374891344765672
30
0
11
120.10265687118219
21
-83.131184837609339
31
0
0
ARC
5
217
100
AcDbEntity
8
0
100
AcDbCircle
10
121.93262987064939
20
-80.756984114807636
30
0
40
2.9976040850871493
210
0
220
0
230
1
100
AcDbArc
50
232.37588660658798
51
270.0141808627676
0
LINE
5
218
100
AcDbEntity
8
0
100
AcDbLine
10
121.9333717858845
20
-83.754588108081748
30
0
11
123.8627260882173
21
-83.755251448238695
31
0
0
LINE
5
219
100
AcDbEntity
8
0
100
AcDbLine
10
123.8627260882173
20
-83.755251448238695
30
0
11
123.86272607323961
21
-81.255229701562101
31
0
0
ARC
5
220
100
AcDbEntity
8
0
100
AcDbCircle
10
125.06272757609169
20
-81.255229251686274
30
0
40
1.1999984962557526
210
0
220
0
230
1
100
AcDbArc
50
-0.00013154211122932285
51
180.00002146353663
0
LINE
5
221
100
AcDbEntity
8
0
100
AcDbLine
10
126.26272607234428
20
-81.255232006723972
30
0
11
126.2627212430142
21
-83.755251370053088
31
0
0
LINE
5
222
100
AcDbEntity
8
0
100
AcDbLine
10
126.2627212430142
20
-83.755251370053088
30
0
11
128.1919325342852
21
-83.746201252023766
31
0
0
ARC
5
223
100
AcDbEntity
8
0
100
AcDbCircle
10
128.1837447008451
20
-80.759601439487682
30
0
40
2.986611036083715
210
-0
220
0
230
1
100
AcDbArc
50
270.15707732994395
51
307.81256896736329
0
LINE
5
224
100
AcDbEntity
8
0
100
AcDbLine
10
130.01477731513029
20
-83.119085503066202
30
0
11
134.89395818300841
21
-79.364494766965635
31
0
0
ARC
5
225
100
AcDbEntity
8
0
100
AcDbCircle
10
136.74192436335193
20
-81.780161611575608
30
0
40
3.0414511845238277
210
0
220
-0
230
1
100
AcDbArc
50
89.986355439950231
51
127.41570499779171
0
LINE
5
226
100
AcDbEntity
8
0
100
AcDbLine
10
136.74264866212727
20
-78.738710513294947
30
0
11
183.9712255570295
21
-78.749957668880825
31
0
0
LINE
5
227
100
AcDbEntity
8
0
100
AcDbLine
10
183.9712255570295
20
-78.749957668880825
30
0
11
207.29887404526463
21
-78.755024341640251
31
0
0
ENDSEC
0
SECTION
2
OBJECTS
0
DICTIONARY
5
C
100
AcDbDictionary
3
ACAD_GROUP
350
D
3
ACAD_MLINESTYLE
350
17
0
DICTIONARY
5
D
100
AcDbDictionary
0
DICTIONARY
5
1A
330
C
100
AcDbDictionary
0
DICTIONARY
5
17
100
AcDbDictionary
0
ENDSEC
0
EOF
