0
SECTION
2
HEADER
9
$INSUNITS
70
4
9
$ACADVER
1
AC1014
9
$HANDSEED
5
FFFF
0
ENDSEC
0
SECTION
2
TABLES
0
TABLE
2
VPORT
5
8
100
AcDbSymbolTable
0
ENDTAB
0
TABLE
2
LTYPE
5
5
100
AcDbSymbolTable
0
LTYPE
5
14
100
AcDbSymbolTableRecord
100
AcDbLinetypeTableRecord
2
BYBLOCK
70
0
0
LTYPE
5
15
100
AcDbSymbolTableRecord
100
AcDbLinetypeTableRecord
2
BYLAYER
70
0
0
ENDTAB
0
TABLE
2
LAYER
5
2
100
AcDbSymbolTable
70
2
0
LAYER
5
50
100
AcDbSymbolTableRecord
100
AcDbLayerTableRecord
2
0
70
0
6
CONTINUOUS
0
ENDTAB
0
TABLE
2
STYLE
5
3
100
AcDbSymbolTable
70
1
0
STYLE
5
11
100
AcDbSymbolTableRecord
100
AcDbTextStyleTableRecord
2
STANDARD
70
0
0
ENDTAB
0
TABLE
2
VIEW
5
6
100
AcDbSymbolTable
70
0
0
ENDTAB
0
TABLE
2
UCS
5
7
100
AcDbSymbolTable
70
0
0
ENDTAB
0
TABLE
2
APPID
5
9
100
AcDbSymbolTable
70
2
0
APPID
5
12
100
AcDbSymbolTableRecord
100
AcDbRegAppTableRecord
2
ACAD
70
0
0
ENDTAB
0
TABLE
2
DIMSTYLE
5
A
100
AcDbSymbolTable
70
1
0
ENDTAB
0
TABLE
2
BLOCK_RECORD
5
1
100
AcDbSymbolTable
70
1
0
BLOCK_RECORD
5
1F
100
AcDbSymbolTableRecord
100
AcDbBlockTableRecord
2
*MODEL_SPACE
0
BLOCK_RECORD
5
1B
100
AcDbSymbolTableRecord
100
AcDbBlockTableRecord
2
*PAPER_SPACE
0
ENDTAB
0
ENDSEC
0
SECTION
2
BLOCKS
0
BLOCK
5
20
100
AcDbEntity
100
AcDbBlockBegin
2
*MODEL_SPACE
0
ENDBLK
5
21
100
AcDbEntity
100
AcDbBlockEnd
0
BLOCK
5
1C
100
AcDbEntity
100
AcDbBlockBegin
2
*PAPER_SPACE
0
ENDBLK
5
1D
100
AcDbEntity
100
AcDbBlockEnd
0
ENDSEC
0
SECTION
2
ENTITIES
0
LWPOLYLINE
5
100
100
AcDbEntity
8
0
100
AcDbPolyline
90
22
70
1
43
0.0
10
-168.92500000000001
20
73.174999999999997
42
-0.41421356237304818
10
-169.42500000000001
20
72.675000000000011
10
-173.47500000000002
20
72.675000000000011
42
-0.4142135623730222
10
-173.97500000000002
20
73.174999999999997
42
0.41421356237313145
10
-174.47500000000002
20
73.674999999999997
10
-207.36250000000001
20
73.674999999999997
42
0.41421356237307422
10
-207.86250000000001
20
73.174999999999997
10
-207.86250000000001
20
60.174999999999997
42
0.41421356237313667
10
-207.36250000000001
20
59.675000000000004
10
-175.69999999999999
20
59.675000000000026
42
-0.4142135623730222
10
-175.19999999999999
20
59.175000000000004
10
-175.19999999999999
20
58.174999999999997
42
0.41421356237309503
10
-174.69999999999999
20
57.674999999999997
10
-168.19999999999999
20
57.674999999999997
42
0.41421356237309503
10
-167.69999999999999
20
58.174999999999997
10
-167.69999999999996
20
59.175000000000004
42
-0.4142135623730222
10
-167.19999999999999
20
59.675000000000004
10
-155.42500000000001
20
59.675000000000004
42
0.41421356237310542
10
-154.92500000000004
20
60.174999999999997
10
-154.92500000000001
20
73.174999999999997
42
0.41421356237307422
10
-155.42500000000001
20
73.675000000000011
10
-168.42500000000001
20
73.674999999999997
42
0.4142135623730222
0
LWPOLYLINE
5
101
100
AcDbEntity
8
0
100
AcDbPolyline
90
22
70
1
43
0.0
10
-130.40650000000002
20
59.681686965507701
42
-0.36703160117833916
10
-129.988
20
59.188373931015398
10
-129.988
20
58.174999999999997
42
0.41421356237309503
10
-129.488
20
57.674999999999997
10
-122.988
20
57.674999999999997
42
0.41421356237309503
10
-122.488
20
58.174999999999997
10
-122.488
20
59.175000000000004
42
-0.41421356237310542
10
-121.98799999999999
20
59.675000000000004
10
-106.61200000000002
20
59.674999999999997
42
-0.41421356237307422
10
-106.11200000000004
20
59.175000000000004
10
-106.11200000000002
20
58.174999999999997
42
0.41421356237309503
10
-105.61200000000001
20
57.674999999999997
10
-99.112000000000009
20
57.674999999999997
42
0.41421356237309503
10
-98.611999999999995
20
58.174999999999997
10
-98.611999999999995
20
59.188373931015406
42
-0.36703160117833833
10
-98.1935
20
59.681686965507701
42
0.36703160117832989
10
-97.775000000000006
20
60.174999999999997
10
-97.775000000000006
20
73.174999999999997
42
0.41421356237309503
10
-98.275000000000006
20
73.675000000000011
10
-130.32499999999999
20
73.674999999999997
42
0.41421356237308982
10
-130.82499999999999
20
73.174999999999997
10
-130.82499999999999
20
60.174999999999997
42
0.36703160117834677
0
LWPOLYLINE
5
102
100
AcDbEntity
8
0
100
AcDbPolyline
90
22
70
1
43
0.0
10
-61.400000000000013
20
59.675000000000004
42
-0.41421356237309503
10
-60.90000000000002
20
59.175000000000004
10
-60.90000000000002
20
58.174999999999997
42
0.41421356237309503
10
-60.40000000000002
20
57.674999999999997
10
-53.899999999999999
20
57.674999999999997
42
0.41421356237309503
10
-53.399999999999999
20
58.174999999999997
10
-53.399999999999999
20
59.175000000000004
42
-0.41421356237309503
10
-52.899999999999999
20
59.675000000000004
10
-21.237500000000004
20
59.675000000000004
42
0.41421356237309764
10
-20.737500000000004
20
60.174999999999997
10
-20.737500000000004
20
73.174999999999997
42
0.41421356237310025
10
-21.237500000000011
20
73.674999999999997
10
-54.125000000000007
20
73.674999999999997
42
0.41421356237309503
10
-54.624999999999993
20
73.174999999999997
42
-0.41421356237310025
10
-55.125
20
72.674999999999997
10
-59.175000000000004
20
72.674999999999997
42
-0.41421356237309503
10
-59.675000000000004
20
73.174999999999997
42
0.41421356237309503
10
-60.174999999999997
20
73.674999999999997
10
-73.174999999999997
20
73.674999999999997
42
0.41421356237309503
10
-73.674999999999997
20
73.174999999999997
10
-73.674999999999997
20
60.174999999999997
42
0.41421356237309503
10
-73.174999999999997
20
59.675000000000004
0
CIRCLE
5
103
100
AcDbEntity
8
0
100
AcDbCircle
10
-57.149999999999999
20
19.049999999999997
30
0
40
1.5000000000000036
210
0
220
0
230
1
0
LWPOLYLINE
5
104
100
AcDbEntity
8
0
100
AcDbPolyline
90
8
70
1
43
0.0
10
-116.82500000000002
20
41.125
42
-0.41421356237308982
10
-117.32500000000002
20
40.625
10
-130.32499999999999
20
40.624999999999993
42
-0.41421356237309503
10
-130.82499999999999
20
41.125
10
-130.82499999999999
20
54.125000000000007
42
-0.41421356237308982
10
-130.32499999999999
20
54.625
10
-117.32500000000002
20
54.625000000000014
42
-0.41421356237309503
10
-116.82500000000002
20
54.125000000000007
0
LWPOLYLINE
5
105
100
AcDbEntity
8
0
100
AcDbPolyline
90
8
70
1
43
0.0
10
-154.92500000000001
20
3.0249999999999999
42
-0.41421356237307422
10
-155.42500000000001
20
2.5249999999999999
10
-168.42500000000001
20
2.5249999999999817
42
-0.41421356237310153
10
-168.92500000000001
20
3.0249999999999999
10
-168.92500000000001
20
16.024999999999999
42
-0.41421356237304691
10
-168.42500000000001
20
16.525000000000002
10
-155.42500000000001
20
16.525000000000009
42
-0.41421356237307555
10
-154.92500000000001
20
16.024999999999999
0
LWPOLYLINE
5
106
100
AcDbEntity
8
0
100
AcDbPolyline
90
8
70
1
43
0.0
10
-173.97500000000002
20
22.074999999999999
10
-173.97500000000002
20
35.075000000000003
42
0.41421356237313145
10
-174.47500000000002
20
35.575000000000003
10
-187.47499999999999
20
35.575000000000003
42
0.41421356237307683
10
-187.97499999999999
20
35.075000000000003
10
-187.97499999999999
20
22.074999999999999
42
0.41421356237313406
10
-187.47499999999999
20
21.575000000000003
10
-174.47500000000002
20
21.575000000000003
42
0.41421356237308204
0
LWPOLYLINE
5
107
100
AcDbEntity
8
0
100
AcDbPolyline
90
8
70
1
43
0.0
10
-97.775000000000006
20
22.074999999999999
42
-0.41421356237310802
10
-98.275000000000006
20
21.575000000000003
10
-111.27500000000001
20
21.574999999999992
42
-0.41421356237309503
10
-111.77500000000002
20
22.074999999999999
10
-111.77500000000002
20
35.075000000000003
42
-0.41421356237310542
10
-111.27500000000001
20
35.575000000000003
10
-98.275000000000006
20
35.575000000000003
42
-0.41421356237309243
10
-97.775000000000006
20
35.075000000000003
0
LWPOLYLINE
5
108
100
AcDbEntity
8
0
100
AcDbPolyline
90
8
70
1
43
0.0
10
-135.875
20
3.0250000000000021
10
-135.875
20
16.024999999999999
42
0.41421356237307555
10
-136.375
20
16.524999999999999
10
-149.375
20
16.525000000000002
42
0.41421356237310675
10
-149.875
20
16.024999999999999
10
-149.875
20
3.0249999999999999
42
0.41421356237309437
10
-149.375
20
2.5249999999999995
10
-136.375
20
2.5249999999999999
42
0.41421356237307555
0
LWPOLYLINE
5
109
100
AcDbEntity
8
0
100
AcDbPolyline
90
8
70
1
43
0.0
10
-92.224999999999994
20
21.574999999999992
42
-0.41421356237309503
10
-92.725000000000009
20
22.074999999999999
10
-92.725000000000009
20
35.075000000000003
42
-0.41421356237310542
10
-92.224999999999994
20
35.575000000000003
10
-79.224999999999994
20
35.575000000000003
42
-0.41421356237309764
10
-78.724999999999994
20
35.075000000000003
10
-78.725000000000009
20
22.074999999999999
42
-0.41421356237309764
10
-79.224999999999994
20
21.575000000000003
0
LWPOLYLINE
5
110
100
AcDbEntity
8
0
100
AcDbPolyline
90
8
70
1
43
0.0
10
-212.07499999999999
20
3.0249999999999999
42
-0.41421356237304624
10
-212.57499999999999
20
2.5249999999999999
10
-225.57500000000002
20
2.5249999999999995
42
-0.41421356237313273
10
-226.07500000000002
20
3.0249999999999999
10
-226.07500000000005
20
16.024999999999999
42
-0.4142135623730781
10
-225.57500000000002
20
16.525000000000002
10
-212.57499999999999
20
16.524999999999984
42
-0.41421356237312362
10
-212.07499999999999
20
16.024999999999999
0
LWPOLYLINE
5
111
100
AcDbEntity
8
0
100
AcDbPolyline
90
8
70
1
43
0.0
10
-116.82500000000002
20
3.0250000000000021
10
-116.82500000000002
20
16.024999999999999
42
0.41421356237309631
10
-117.32500000000002
20
16.524999999999999
10
-130.32499999999999
20
16.525000000000002
42
0.41421356237310675
10
-130.82499999999999
20
16.024999999999999
10
-130.82499999999999
20
3.0249999999999999
42
0.41421356237309437
10
-130.32499999999999
20
2.5249999999999995
10
-117.32500000000002
20
2.5249999999999999
42
0.41421356237310675
0
LWPOLYLINE
5
112
100
AcDbEntity
8
0
100
AcDbPolyline
90
8
70
1
43
0.0
10
-116.82500000000002
20
22.074999999999999
42
-0.41421356237310802
10
-117.32500000000002
20
21.575000000000003
10
-130.32499999999999
20
21.574999999999992
42
-0.41421356237309503
10
-130.82499999999999
20
22.074999999999999
10
-130.82499999999999
20
35.075000000000003
42
-0.41421356237310542
10
-130.32499999999999
20
35.575000000000003
10
-117.32500000000002
20
35.575000000000003
42
-0.41421356237309243
10
-116.82500000000002
20
35.075000000000003
0
LWPOLYLINE
5
113
100
AcDbEntity
8
0
100
AcDbPolyline
90
8
70
1
43
0.0
10
-97.774999999999977
20
3.0249999999999999
42
-0.41421356237310542
10
-98.275000000000006
20
2.5249999999999999
10
-111.27500000000001
20
2.5249999999999941
42
-0.41421356237309437
10
-111.77500000000002
20
3.0249999999999999
10
-111.77500000000002
20
16.024999999999999
42
-0.41421356237310675
10
-111.27500000000001
20
16.525000000000002
10
-98.275000000000006
20
16.525000000000009
42
-0.41421356237309631
10
-97.775000000000006
20
16.024999999999999
0
LWPOLYLINE
5
114
100
AcDbEntity
8
0
100
AcDbPolyline
90
8
70
1
43
0.0
10
-193.02500000000003
20
22.074999999999999
10
-193.02500000000003
20
35.075000000000003
42
0.41421356237313145
10
-193.52500000000003
20
35.57500000000001
10
-206.52500000000003
20
35.575000000000003
42
0.41421356237304563
10
-207.02500000000003
20
35.075000000000003
10
-207.02500000000003
20
22.074999999999999
42
0.41421356237310281
10
-206.52500000000003
20
21.575000000000003
10
-193.52500000000003
20
21.575000000000003
42
0.41421356237308204
0
LWPOLYLINE
5
115
100
AcDbEntity
8
0
100
AcDbPolyline
90
8
70
1
43
0.0
10
-135.87500000000003
20
22.074999999999999
10
-135.875
20
35.075000000000003
42
0.41421356237307161
10
-136.375
20
35.575000000000003
10
-149.375
20
35.575000000000003
42
0.41421356237310542
10
-149.875
20
35.075000000000003
10
-149.875
20
22.074999999999999
42
0.41421356237309503
10
-149.375
20
21.575000000000003
10
-136.375
20
21.575000000000003
42
0.4142135623730846
0
LWPOLYLINE
5
116
100
AcDbEntity
8
0
100
AcDbPolyline
90
8
70
1
43
0.0
10
-193.02499999999998
20
3.0249999999999999
42
-0.41421356237307749
10
-193.52500000000003
20
2.5249999999999999
10
-206.52500000000003
20
2.5249999999999817
42
-0.41421356237310153
10
-207.02500000000003
20
3.0249999999999999
10
-207.02500000000003
20
16.024999999999999
42
-0.41421356237304691
10
-206.52500000000003
20
16.525000000000002
10
-193.52500000000003
20
16.525000000000002
42
-0.41421356237313406
10
-193.02500000000003
20
16.024999999999999
0
LWPOLYLINE
5
117
100
AcDbEntity
8
0
100
AcDbPolyline
90
8
70
1
43
0.0
10
-40.625
20
22.074999999999999
42
-0.41421356237309503
10
-41.125
20
21.575000000000003
10
-54.125000000000007
20
21.575000000000003
42
-0.41421356237309503
10
-54.625
20
22.074999999999999
10
-54.625
20
35.075000000000003
42
-0.41421356237309503
10
-54.125000000000007
20
35.575000000000003
10
-41.125
20
35.575000000000003
42
-0.41421356237309503
10
-40.625
20
35.075000000000003
0
LWPOLYLINE
5
118
100
AcDbEntity
8
0
100
AcDbPolyline
90
8
70
1
43
0.0
10
-73.174999999999997
20
40.625
42
-0.41421356237309503
10
-73.674999999999997
20
41.125
10
-73.674999999999997
20
54.125000000000007
42
-0.41421356237309503
10
-73.174999999999997
20
54.625
10
-60.174999999999997
20
54.625
42
-0.41421356237309503
10
-59.675000000000004
20
54.125000000000007
10
-59.675000000000004
20
41.125
42
-0.41421356237309503
10
-60.174999999999997
20
40.625
0
LWPOLYLINE
5
119
100
AcDbEntity
8
0
100
AcDbPolyline
90
8
70
1
43
0.0
10
-135.87500000000003
20
41.125
42
-0.41421356237310025
10
-136.375
20
40.625
10
-149.375
20
40.624999999999993
42
-0.41421356237309503
10
-149.875
20
41.125
10
-149.875
20
54.125000000000007
42
-0.41421356237308982
10
-149.375
20
54.625
10
-136.375
20
54.625000000000014
42
-0.41421356237307422
10
-135.875
20
54.125000000000007
0
LWPOLYLINE
5
120
100
AcDbEntity
8
0
100
AcDbPolyline
90
8
70
1
43
0.0
10
-92.224999999999994
20
59.674999999999983
42
-0.41421356237310025
10
-92.725000000000009
20
60.174999999999997
10
-92.725000000000009
20
73.174999999999997
42
-0.41421356237308982
10
-92.224999999999994
20
73.674999999999997
10
-79.224999999999994
20
73.674999999999997
42
-0.41421356237309503
10
-78.724999999999994
20
73.174999999999997
10
-78.724999999999994
20
60.174999999999997
42
-0.41421356237310542
10
-79.224999999999994
20
59.675000000000004
0
LWPOLYLINE
5
121
100
AcDbEntity
8
0
100
AcDbPolyline
90
8
70
1
43
0.0
10
-154.92500000000004
20
22.074999999999999
42
-0.4142135623730846
10
-155.42500000000001
20
21.575000000000003
10
-168.42500000000001
20
21.574999999999982
42
-0.41421356237310281
10
-168.92500000000001
20
22.074999999999999
10
-168.92500000000001
20
35.075000000000003
42
-0.41421356237304563
10
-168.42500000000001
20
35.575000000000003
10
-155.42500000000001
20
35.575000000000003
42
-0.41421356237307161
10
-154.92500000000001
20
35.075000000000003
0
LWPOLYLINE
5
122
100
AcDbEntity
8
0
100
AcDbPolyline
90
8
70
1
43
0.0
10
-154.92500000000004
20
41.125
10
-154.92500000000001
20
54.125000000000007
42
0.41421356237307422
10
-155.42500000000001
20
54.625
10
-168.42500000000001
20
54.625
42
0.4142135623730222
10
-168.92500000000001
20
54.125000000000007
10
-168.92500000000001
20
41.125
42
0.41421356237312101
10
-168.42500000000001
20
40.625
10
-155.42500000000001
20
40.625
42
0.41421356237310025
0
LWPOLYLINE
5
123
100
AcDbEntity
8
0
100
AcDbPolyline
90
8
70
1
43
0.0
10
-78.724999999999994
20
41.125
42
-0.41421356237309503
10
-79.224999999999994
20
40.625
10
-92.224999999999994
20
40.624999999999993
42
-0.41421356237309503
10
-92.725000000000009
20
41.125
10
-92.725000000000009
20
54.125000000000007
42
-0.41421356237308982
10
-92.224999999999994
20
54.625
10
-79.224999999999994
20
54.625
42
-0.41421356237309503
10
-78.724999999999994
20
54.125000000000007
0
LWPOLYLINE
5
124
100
AcDbEntity
8
0
100
AcDbPolyline
90
8
70
1
43
0.0
10
-206.52500000000003
20
40.625000000000014
42
-0.41421356237312101
10
-207.02500000000003
20
41.125
10
-207.02500000000001
20
54.125000000000007
42
-0.4142135623730222
10
-206.52500000000003
20
54.625
10
-193.52500000000003
20
54.625
42
-0.41421356237313145
10
-193.02500000000003
20
54.125000000000007
10
-193.02499999999998
20
41.125
42
-0.41421356237307422
10
-193.52500000000003
20
40.625
0
LWPOLYLINE
5
125
100
AcDbEntity
8
0
100
AcDbPolyline
90
8
70
1
43
0.0
10
-21.575000000000003
20
22.074999999999999
42
-0.41421356237309503
10
-22.074999999999999
20
21.575000000000003
10
-35.075000000000003
20
21.575000000000003
42
-0.41421356237309503
10
-35.575000000000003
20
22.074999999999999
10
-35.575000000000003
20
35.075000000000003
42
-0.41421356237309503
10
-35.075000000000003
20
35.575000000000003
10
-22.074999999999996
20
35.575000000000003
42
-0.41421356237309243
10
-21.575000000000003
20
35.075000000000003
0
LWPOLYLINE
5
126
100
AcDbEntity
8
0
100
AcDbPolyline
90
8
70
1
43
0.0
10
-212.07500000000005
20
41.125
42
-0.4142135623730222
10
-212.57499999999999
20
40.625
10
-225.57500000000002
20
40.625
42
-0.41421356237313145
10
-226.07500000000002
20
41.125
10
-226.07500000000005
20
54.125000000000007
42
-0.41421356237307422
10
-225.57500000000002
20
54.625
10
-212.57499999999999
20
54.624999999999986
42
-0.41421356237312101
10
-212.07499999999999
20
54.125000000000007
0
LWPOLYLINE
5
127
100
AcDbEntity
8
0
100
AcDbPolyline
90
8
70
1
43
0.0
10
-2.525000000000003
20
41.125
42
-0.41421356237309437
10
-3.0249999999999999
20
40.625
10
-16.024999999999991
20
40.625
42
-0.41421356237309892
10
-16.525000000000002
20
41.125
10
-16.524999999999999
20
54.125000000000007
42
-0.41421356237309503
10
-16.024999999999999
20
54.625
10
-3.0250000000000021
20
54.625
42
-0.41421356237309537
10
-2.5249999999999999
20
54.125000000000007
0
LWPOLYLINE
5
128
100
AcDbEntity
8
0
100
AcDbPolyline
90
8
70
1
43
0.0
10
-40.625
20
41.125
42
-0.41421356237309503
10
-41.125
20
40.625
10
-54.125000000000007
20
40.625
42
-0.41421356237309503
10
-54.625
20
41.125
10
-54.625
20
54.125000000000007
42
-0.41421356237309503
10
-54.125000000000007
20
54.625
10
-41.125
20
54.625
42
-0.41421356237309503
10
-40.625
20
54.125000000000007
0
LWPOLYLINE
5
129
100
AcDbEntity
8
0
100
AcDbPolyline
90
8
70
1
43
0.0
10
-59.675000000000011
20
22.074999999999999
42
-0.41421356237309764
10
-60.174999999999997
20
21.575000000000003
10
-73.174999999999997
20
21.575000000000003
42
-0.41421356237309503
10
-73.674999999999997
20
22.074999999999999
10
-73.674999999999997
20
35.075000000000003
42
-0.41421356237309503
10
-73.174999999999997
20
35.575000000000003
10
-60.174999999999997
20
35.575000000000003
42
-0.41421356237309764
10
-59.675000000000004
20
35.075000000000003
0
LWPOLYLINE
5
130
100
AcDbEntity
8
0
100
AcDbPolyline
90
8
70
1
43
0.0
10
-212.07499999999999
20
22.074999999999999
10
-212.07499999999999
20
35.075000000000003
42
0.41421356237310025
10
-212.57499999999999
20
35.57500000000001
10
-225.57500000000002
20
35.575000000000003
42
0.41421356237307683
10
-226.07500000000002
20
35.075000000000003
10
-226.07500000000002
20
22.074999999999999
42
0.41421356237313406
10
-225.57500000000002
20
21.575000000000003
10
-212.57499999999999
20
21.575000000000003
42
0.41421356237305079
0
LWPOLYLINE
5
131
100
AcDbEntity
8
0
100
AcDbPolyline
90
8
70
1
43
0.0
10
-173.97499999999997
20
3.0249999999999999
42
-0.41421356237307749
10
-174.47500000000002
20
2.5249999999999999
10
-187.47499999999999
20
2.5249999999999995
42
-0.41421356237313273
10
-187.97499999999999
20
3.0249999999999999
10
-187.97500000000002
20
16.024999999999999
42
-0.4142135623730781
10
-187.47499999999999
20
16.525000000000002
10
-174.47500000000002
20
16.525000000000002
42
-0.41421356237313406
10
-173.97500000000002
20
16.024999999999999
0
LWPOLYLINE
5
132
100
AcDbEntity
8
0
100
AcDbPolyline
90
8
70
1
43
0.0
10
-2.5250000000000004
20
22.074999999999999
42
-0.4142135623730957
10
-3.0249999999999999
20
21.575000000000003
10
-16.024999999999991
20
21.574999999999996
42
-0.41421356237309764
10
-16.525000000000002
20
22.074999999999999
10
-16.525000000000002
20
35.075000000000003
42
-0.41421356237309631
10
-16.024999999999999
20
35.575000000000003
10
-3.0250000000000021
20
35.575000000000003
42
-0.41421356237309664
10
-2.5249999999999999
20
35.075000000000003
0
LWPOLYLINE
5
133
100
AcDbEntity
8
0
100
AcDbPolyline
90
8
70
1
43
0.0
10
-135.87500000000003
20
60.174999999999997
10
-135.875
20
73.174999999999997
42
0.41421356237307422
10
-136.375
20
73.674999999999997
10
-149.375
20
73.674999999999997
42
0.41421356237308982
10
-149.875
20
73.174999999999997
10
-149.875
20
60.174999999999997
42
0.41421356237310025
10
-149.375
20
59.675000000000004
10
-136.375
20
59.675000000000004
42
0.41421356237310542
0
LWPOLYLINE
5
134
100
AcDbEntity
8
0
100
AcDbPolyline
90
8
70
1
43
0.0
10
-59.675000000000004
20
3.0249999999999999
42
-0.41421356237309664
10
-60.174999999999997
20
2.5249999999999999
10
-73.174999999999997
20
2.525000000000003
42
-0.41421356237309437
10
-73.674999999999997
20
3.0249999999999999
10
-73.674999999999997
20
16.024999999999999
42
-0.4142135623730937
10
-73.174999999999997
20
16.525000000000002
10
-60.174999999999997
20
16.525000000000002
42
-0.41421356237309764
10
-59.675000000000004
20
16.024999999999999
0
LWPOLYLINE
5
135
100
AcDbEntity
8
0
100
AcDbPolyline
90
8
70
1
43
0.0
10
-97.775000000000006
20
41.125
42
-0.41421356237308982
10
-98.275000000000006
20
40.625
10
-111.27500000000001
20
40.624999999999993
42
-0.41421356237309503
10
-111.77500000000002
20
41.125
10
-111.77500000000002
20
54.125000000000007
42
-0.41421356237308982
10
-111.27500000000001
20
54.625
10
-98.275000000000006
20
54.625000000000014
42
-0.41421356237309503
10
-97.775000000000006
20
54.125000000000007
0
LWPOLYLINE
5
136
100
AcDbEntity
8
0
100
AcDbPolyline
90
8
70
1
43
0.0
10
-40.625
20
3.0249999999999999
42
-0.41421356237309404
10
-41.125
20
2.5249999999999999
10
-54.125000000000007
20
2.525000000000003
42
-0.41421356237309437
10
-54.625
20
3.0249999999999999
10
-54.625
20
16.024999999999999
42
-0.4142135623730937
10
-54.125000000000007
20
16.525000000000002
10
-41.125
20
16.524999999999999
42
-0.41421356237309503
10
-40.625
20
16.024999999999999
0
LWPOLYLINE
5
137
100
AcDbEntity
8
0
100
AcDbPolyline
90
8
70
1
43
0.0
10
-16.024999999999999
20
2.5249999999999986
42
-0.41421356237309309
10
-16.525000000000002
20
3.0249999999999999
10
-16.525000000000002
20
16.024999999999999
42
-0.41421356237309243
10
-16.024999999999999
20
16.525000000000002
10
-3.0250000000000021
20
16.525000000000002
42
-0.41421356237309598
10
-2.5249999999999999
20
16.024999999999999
10
-2.5249999999999999
20
3.0250000000000021
42
-0.4142135623730957
10
-3.0249999999999999
20
2.5249999999999999
0
LWPOLYLINE
5
138
100
AcDbEntity
8
0
100
AcDbPolyline
90
8
70
1
43
0.0
10
-78.724999999999994
20
3.0249999999999999
42
-0.41421356237309664
10
-79.224999999999994
20
2.5249999999999999
10
-92.224999999999994
20
2.5249999999999941
42
-0.41421356237309437
10
-92.725000000000009
20
3.0249999999999999
10
-92.725000000000009
20
16.024999999999999
42
-0.41421356237310675
10
-92.224999999999994
20
16.525000000000002
10
-79.224999999999994
20
16.525000000000002
42
-0.41421356237309764
10
-78.724999999999994
20
16.024999999999999
0
LWPOLYLINE
5
139
100
AcDbEntity
8
0
100
AcDbPolyline
90
8
70
1
43
0.0
10
-21.575000000000003
20
3.0249999999999999
42
-0.41421356237309537
10
-22.074999999999999
20
2.5249999999999999
10
-35.075000000000003
20
2.5250000000000004
42
-0.4142135623730957
10
-35.575000000000003
20
3.0249999999999999
10
-35.575000000000003
20
16.024999999999999
42
-0.41421356237309503
10
-35.075000000000003
20
16.525000000000002
10
-22.074999999999996
20
16.525000000000002
42
-0.4142135623730937
10
-21.575000000000003
20
16.024999999999999
0
LWPOLYLINE
5
140
100
AcDbEntity
8
0
100
AcDbPolyline
90
8
70
1
43
0.0
10
-173.97499999999997
20
41.125
42
-0.41421356237307422
10
-174.47500000000002
20
40.625
10
-187.47499999999999
20
40.625
42
-0.41421356237313145
10
-187.97499999999999
20
41.125
10
-187.97500000000002
20
54.125000000000007
42
-0.41421356237307422
10
-187.47499999999999
20
54.625
10
-174.47500000000002
20
54.625
42
-0.41421356237313145
10
-173.97500000000002
20
54.125000000000007
0
LWPOLYLINE
5
141
100
AcDbEntity
8
0
100
AcDbPolyline
90
8
70
1
43
0.0
10
-35.075000000000003
20
40.625
42
-0.41421356237309503
10
-35.575000000000003
20
41.125
10
-35.575000000000003
20
54.125000000000007
42
-0.41421356237309503
10
-35.075000000000003
20
54.625
10
-22.074999999999996
20
54.625
42
-0.41421356237309243
10
-21.575000000000003
20
54.125000000000007
10
-21.575000000000003
20
41.125
42
-0.41421356237309503
10
-22.074999999999999
20
40.625
0
LWPOLYLINE
5
142
100
AcDbEntity
8
0
100
AcDbPolyline
90
4
70
1
43
0.0
10
0
20
76.200000000000017
10
0
20
0
10
-228.59999999999999
20
0
10
-228.59999999999999
20
76.200000000000017
0
ENDSEC
0
SECTION
2
OBJECTS
0
DICTIONARY
5
C
100
AcDbDictionary
3
ACAD_GROUP
350
D
3
ACAD_MLINESTYLE
350
17
0
DICTIONARY
5
D
100
AcDbDictionary
0
DICTIONARY
5
1A
330
C
100
AcDbDictionary
0
DICTIONARY
5
17
100
AcDbDictionary
0
ENDSEC
0
EOF
