0
SECTION
2
HEADER
9
$INSUNITS
70
4
9
$ACADVER
1
AC1014
9
$HANDSEED
5
FFFF
0
ENDSEC
0
SECTION
2
TABLES
0
TABLE
2
VPORT
5
8
100
AcDbSymbolTable
0
ENDTAB
0
TABLE
2
LTYPE
5
5
100
AcDbSymbolTable
0
LTYPE
5
14
100
AcDbSymbolTableRecord
100
AcDbLinetypeTableRecord
2
BYBLOCK
70
0
0
LTYPE
5
15
100
AcDbSymbolTableRecord
100
AcDbLinetypeTableRecord
2
BYLAYER
70
0
0
ENDTAB
0
TABLE
2
LAYER
5
2
100
AcDbSymbolTable
70
2
0
LAYER
5
50
100
AcDbSymbolTableRecord
100
AcDbLayerTableRecord
2
0
70
0
6
CONTINUOUS
0
ENDTAB
0
TABLE
2
STYLE
5
3
100
AcDbSymbolTable
70
1
0
STYLE
5
11
100
AcDbSymbolTableRecord
100
AcDbTextStyleTableRecord
2
STANDARD
70
0
0
ENDTAB
0
TABLE
2
VIEW
5
6
100
AcDbSymbolTable
70
0
0
ENDTAB
0
TABLE
2
UCS
5
7
100
AcDbSymbolTable
70
0
0
ENDTAB
0
TABLE
2
APPID
5
9
100
AcDbSymbolTable
70
2
0
APPID
5
12
100
AcDbSymbolTableRecord
100
AcDbRegAppTableRecord
2
ACAD
70
0
0
ENDTAB
0
TABLE
2
DIMSTYLE
5
A
100
AcDbSymbolTable
70
1
0
ENDTAB
0
TABLE
2
BLOCK_RECORD
5
1
100
AcDbSymbolTable
70
1
0
BLOCK_RECORD
5
1F
100
AcDbSymbolTableRecord
100
AcDbBlockTableRecord
2
*MODEL_SPACE
0
BLOCK_RECORD
5
1B
100
AcDbSymbolTableRecord
100
AcDbBlockTableRecord
2
*PAPER_SPACE
0
ENDTAB
0
ENDSEC
0
SECTION
2
BLOCKS
0
BLOCK
5
20
100
AcDbEntity
100
AcDbBlockBegin
2
*MODEL_SPACE
0
ENDBLK
5
21
100
AcDbEntity
100
AcDbBlockEnd
0
BLOCK
5
1C
100
AcDbEntity
100
AcDbBlockBegin
2
*PAPER_SPACE
0
ENDBLK
5
1D
100
AcDbEntity
100
AcDbBlockEnd
0
ENDSEC
0
SECTION
2
ENTITIES
0
CIRCLE
5
100
100
AcDbEntity
8
0
100
AcDbCircle
10
195.75886817860891
20
-65.808615264095238
30
8.8817841970012523e-15
40
1.0999999999999972
210
0
220
-0
230
1
0
CIRCLE
5
101
100
AcDbEntity
8
0
100
AcDbCircle
10
100.50886817860892
20
-65.808615264095238
30
8.8817841970012523e-15
40
1.0999999999999972
210
0
220
-0
230
1
0
CIRCLE
5
102
100
AcDbEntity
8
0
100
AcDbCircle
10
3.0439045477926285
20
-78.833668840776511
30
8.8817841970012523e-15
40
1.1000000000000045
210
0
220
-5.5511151231257809e-17
230
1
0
CIRCLE
5
103
100
AcDbEntity
8
0
100
AcDbCircle
10
3.0439045504197626
20
-54.283785263248802
30
8.8817841970012523e-15
40
1.1000000000000016
210
0
220
-0
230
1
0
CIRCLE
5
104
100
AcDbEntity
8
0
100
AcDbCircle
10
264.25819795042037
20
-54.283785291200758
30
0
40
1.0999999999999972
210
0
220
-0
230
1
0
SPLINE
5
105
100
AcDbEntity
8
0
100
AcDbSpline
70
0
71
3
72
10
73
6
74
0
42
0.000000001
43
0.0000000001
44
0.0000000001
40
0
40
0
40
0
40
0
40
0.083876204599179424
40
0.083876204599179424
40
0.16889287147868848
40
0.16889287147868848
40
0.16889287147868848
40
0.16889287147868848
10
174.90220697168172
20
-61.940631658695928
30
8.8817841970012523e-15
10
175.15933995920597
20
-62.050411949549023
30
0
10
175.3997876243377
20
-62.189060831027902
30
-8.8817841970012523e-15
10
175.84860456593896
20
-62.528922269848898
30
0
10
176.05007329296143
20
-62.726098881126688
30
8.8817841970012523e-15
10
176.22940761425474
20
-62.945523809323731
30
8.8817841970012523e-15
0
SPLINE
5
106
100
AcDbEntity
8
0
100
AcDbSpline
70
0
71
3
72
10
73
6
74
0
42
0.000000001
43
0.0000000001
44
0.0000000001
40
0
40
0
40
0
40
0
40
0.090538768677956641
40
0.090538768677956641
40
0.19033812154807908
40
0.19033812154807908
40
0.19033812154807908
40
0.19033812154807908
10
176.22940761425474
20
-62.945523809323731
30
8.8817841970012523e-15
10
176.42031351636172
20
-63.179266614855003
30
0
10
176.58147610907193
20
-63.434739876063148
30
0
10
176.86773473076312
20
-64.000913509221675
30
8.8817841970012523e-15
10
176.98728059984191
20
-64.314256447298789
30
8.8817841970012523e-15
10
177.08263718760875
20
-64.632897557681233
30
8.8817841970012523e-15
0
SPLINE
5
107
100
AcDbEntity
8
0
100
AcDbSpline
70
0
71
3
72
10
73
6
74
0
42
0.000000001
43
0.0000000001
44
0.0000000001
40
0
40
0
40
0
40
0
40
0.21477591481302152
40
0.21477591481302152
40
0.31899223510679586
40
0.31899223510679586
40
0.31899223510679586
40
0.31899223510679586
10
177.08263718760875
20
-64.632897557681233
30
8.8817841970012523e-15
10
177.2875574881709
20
-65.318863089058141
30
8.8817841970012523e-15
10
177.36930234026642
20
-66.060062112997571
30
8.8817841970012523e-15
10
177.39055800981404
20
-67.122009082962094
30
0
10
177.38555560434571
20
-67.659157123588599
30
8.8817841970012523e-15
10
177.36697900475676
20
-67.988967899860256
30
8.8817841970012523e-15
0
SPLINE
5
108
100
AcDbEntity
8
0
100
AcDbSpline
70
0
71
3
72
16
73
12
74
0
42
0.000000001
43
0.0000000001
44
0.0000000001
40
0
40
0
40
0
40
0
40
0.021221015947478196
40
0.021221015947478196
40
0.030992016790323498
40
0.030992016790323498
40
0.037669685619712588
40
0.037669685619712588
40
0.043657907463605747
40
0.043657907463605747
40
0.049861914029483728
40
0.049861914029483728
40
0.049861914029483728
40
0.049861914029483728
10
177.36697900475676
20
-67.988967899860256
30
8.8817841970012523e-15
10
177.36293977904131
20
-68.05958920108877
30
8.8817841970012523e-15
10
177.35773584674803
20
-68.133190889901357
30
0
10
177.34782734138875
20
-68.236094956084301
30
8.8817841970012523e-15
10
177.34427976211947
20
-68.264117052943391
30
8.8817841970012523e-15
10
177.3006844020594
20
-68.347491424875528
30
8.8817841970012523e-15
10
177.27659433136623
20
-68.377611541833744
30
8.8817841970012523e-15
10
177.22139768963856
20
-68.424469437841253
30
-8.8817841970012523e-15
10
177.19165161449197
20
-68.441945850750102
30
8.8817841970012523e-15
10
177.1263116161324
20
-68.466306264799485
30
0
10
177.09127375821157
20
-68.472532698729665
30
8.8817841970012523e-15
10
177.05573595940371
20
-68.472532698729665
30
8.8817841970012523e-15
0
LINE
5
109
100
AcDbEntity
8
0
100
AcDbLine
10
177.05573595940371
20
-68.472532698729651
30
8.8817841970012555e-15
11
171.60499538756477
21
-68.472532698729665
31
8.8817841970012523e-15
0
SPLINE
5
110
100
AcDbEntity
8
0
100
AcDbSpline
70
0
71
3
72
20
73
16
74
0
42
0.000000001
43
0.0000000001
44
0.0000000001
40
0
40
0
40
0
40
0
40
0.011527517006409874
40
0.011527517006409874
40
0.022759804587447183
40
0.022759804587447183
40
0.034308915519999948
40
0.034308915519999948
40
0.045637788755664509
40
0.045637788755664509
40
0.056522011267238915
40
0.056522011267238915
40
0.062863286862335485
40
0.062863286862335485
40
0.076813951848137496
40
0.076813951848137496
40
0.076813951848137496
40
0.076813951848137496
10
171.60499538756477
20
-68.472532698729665
30
8.8817841970012523e-15
10
171.56657033087669
20
-68.472532698729665
30
8.8817841970012523e-15
10
171.52887953303664
20
-68.479736363948007
30
8.8817841970012523e-15
10
171.45869576294157
20
-68.508130010881857
30
8.8817841970012523e-15
10
171.42704499421868
20
-68.528603049466511
30
8.8817841970012523e-15
10
171.37206278892819
20
-68.580643159969114
30
8.8817841970012523e-15
10
171.34932085832344
20
-68.612194842166772
30
8.8817841970012523e-15
10
171.31742907867007
20
-68.681190203985935
30
0
10
171.30824784902896
20
-68.718039741723359
30
0
10
171.30492800199261
20
-68.791827949751351
30
8.8817841970012523e-15
10
171.31023857872401
20
-68.82760555307334
30
8.8817841970012523e-15
10
171.32895137521828
20
-68.881851527291246
30
8.8817841970012523e-15
10
171.34440073211334
20
-68.919720958509942
30
8.8817841970012523e-15
10
171.39405256182158
20
-69.030775419718196
30
8.8817841970012523e-15
10
171.43396556722593
20
-69.104005980967983
30
8.8817841970012523e-15
10
171.47989907052073
20
-69.173895572903348
30
0
0
SPLINE
5
111
100
AcDbEntity
8
0
100
AcDbSpline
70
0
71
3
72
10
73
6
74
0
42
0.000000001
43
0.0000000001
44
0.0000000001
40
0
40
0
40
0
40
0
40
0.035771824506242049
40
0.035771824506242049
40
0.070937054535451474
40
0.070937054535451474
40
0.070937054535451474
40
0.070937054535451474
10
171.47989907052073
20
-69.173895572903348
30
0
10
171.54532054365049
20
-69.273585436721277
30
0
10
171.61781101276881
20
-69.367922845556308
30
8.8817841970012523e-15
10
171.77683579738579
20
-69.542922019067305
30
8.8817841970012523e-15
10
171.86213358807271
20
-69.622713121196128
30
8.8817841970012523e-15
10
171.95407426164473
20
-69.695427046568639
30
0
0
ELLIPSE
5
112
100
AcDbEntity
8
0
100
AcDbEllipse
10
198.96774128970077
20
-15.972386165334935
30
8.8817841970012523e-15
11
-26.676654808128092
21
-53.937288327957901
31
0.0
40
0.17532056594624926
41
6.2455387197464418
42
6.3106397237360783
0
SPLINE
5
113
100
AcDbEntity
8
0
100
AcDbSpline
70
0
71
3
72
10
73
6
74
0
42
0.000000001
43
0.0000000001
44
0.0000000001
40
0
40
0
40
0
40
0
40
0.097011918424365254
40
0.097011918424365254
40
0.25219936447649788
40
0.25219936447649788
40
0.25219936447649788
40
0.25219936447649788
10
172.56072457073773
20
-70.01773553851254
30
0
10
172.86916919073104
20
-70.114854296977697
30
0
10
173.12430558694015
20
-70.12517588333408
30
8.8817841970012523e-15
10
173.56770479561794
20
-70.11526305164287
30
8.8817841970012523e-15
10
173.8357425565618
20
-70.067632337642252
30
0
10
174.08694407312373
20
-69.960785526319938
30
0
0
SPLINE
5
114
100
AcDbEntity
8
0
100
AcDbSpline
70
0
71
3
72
16
73
12
74
0
42
0.000000001
43
0.0000000001
44
0.0000000001
40
0
40
0
40
0
40
0
40
0.049282850228761187
40
0.049282850228761187
40
0.089494036118548448
40
0.089494036118548448
40
0.1103037666882007
40
0.1103037666882007
40
0.13046151428242556
40
0.13046151428242556
40
0.15009244188491938
40
0.15009244188491938
40
0.15009244188491938
40
0.15009244188491938
10
174.08694407312373
20
-69.960785526319938
30
0
10
174.2381830352443
20
-69.896649455954503
30
8.8817841970012523e-15
10
174.37380300470213
20
-69.803341072984878
30
0
10
174.59443841347075
20
-69.602675944464693
30
0
10
174.62129555281018
20
-69.558253508191584
30
8.8817841970012523e-15
10
174.72840792947079
20
-69.509682156723869
30
8.8817841970012523e-15
10
174.76786145214652
20
-69.500426945277894
30
8.8817841970012523e-15
10
174.84670679974769
20
-69.498067102133234
30
8.8817841970012523e-15
10
174.88533709645679
20
-69.504497022414313
30
8.8817841970012523e-15
10
174.95687046019049
20
-69.532046101433082
30
8.8817841970012523e-15
10
174.98882681818117
20
-69.552338716811846
30
0
10
175.01640165732468
20
-69.578330246294911
30
0
0
LINE
5
115
100
AcDbEntity
8
0
100
AcDbLine
10
175.01640165732468
20
-69.578330246294911
30
-1.4804134145891809e-30
11
176.23821226239076
21
-70.729986152591152
31
0
0
SPLINE
5
116
100
AcDbEntity
8
0
100
AcDbSpline
70
0
71
3
72
18
73
14
74
0
42
0.000000001
43
0.0000000001
44
0.0000000001
40
0
40
0
40
0
40
0
40
0.011382885188623447
40
0.011382885188623447
40
0.022708893042861125
40
0.022708893042861125
40
0.034535422247686527
40
0.034535422247686527
40
0.050978406019638961
40
0.050978406019638961
40
0.13467274648985389
40
0.13467274648985389
40
0.20910129778346087
40
0.20910129778346087
40
0.20910129778346087
40
0.20910129778346087
10
176.23821226239073
20
-70.729986152591167
30
8.8817841970012523e-15
10
176.26582295165835
20
-70.756011473733906
30
8.8817841970012523e-15
10
176.2880202674296
20
-70.786804822046975
30
0
10
176.31950108448416
20
-70.855493830574545
30
0
10
176.32841492815857
20
-70.892459528172367
30
0
10
176.33219373386072
20
-70.969363869137567
30
0
10
176.32639613378643
20
-71.008698881156562
30
8.8817841970012523e-15
10
176.29496832916851
20
-71.097387510849615
30
0
10
176.26737198030179
20
-71.1308546761625
30
0
10
176.04111398151218
20
-71.39495575565185
30
8.8817841970012523e-15
10
175.83396869652398
20
-71.60410624719367
30
0
10
175.40778998415288
20
-71.950597499095835
30
0
10
175.19154677470621
20
-72.094198955151555
30
8.8817841970012523e-15
10
174.95915698387472
20
-72.207555362183768
30
8.8817841970012523e-15
0
SPLINE
5
117
100
AcDbEntity
8
0
100
AcDbSpline
70
0
71
3
72
14
73
10
74
0
42
0.000000001
43
0.0000000001
44
0.0000000001
40
0
40
0
40
0
40
0
40
0.13744100541656407
40
0.13744100541656407
40
0.285788969932252
40
0.285788969932252
40
0.35861273148138656
40
0.35861273148138656
40
0.43042243356615634
40
0.43042243356615634
40
0.43042243356615634
40
0.43042243356615634
10
174.95915698387472
20
-72.207555362183768
30
8.8817841970012523e-15
10
174.5473327633712
20
-72.408279135799674
30
0
10
174.10486516583003
20
-72.519219726112397
30
8.8817841970012523e-15
10
173.15687351111208
20
-72.611567823104807
30
8.8817841970012523e-15
10
172.41863297426181
20
-72.604473486080479
30
8.8817841970012523e-15
10
171.34748821129017
20
-72.289763307761007
30
8.8817841970012523e-15
10
171.01416172998734
20
-72.141270011163996
30
0
10
170.40291383866111
20
-71.742017390886048
30
8.8817841970012523e-15
10
170.13716273974717
20
-71.501123368413587
30
8.8817841970012523e-15
10
169.90632328559371
20
-71.221646548954155
30
0
0
SPLINE
5
118
100
AcDbEntity
8
0
100
AcDbSpline
70
0
71
3
72
14
73
10
74
0
42
0.000000001
43
0.0000000001
44
0.0000000001
40
0
40
0
40
0
40
0
40
0.15371358178153147
40
0.15371358178153147
40
0.36443304467720866
40
0.36443304467720866
40
0.858608728712005
40
0.858608728712005
40
2.5734401562284317
40
2.5734401562284317
40
2.5734401562284317
40
2.5734401562284317
10
169.90632328559371
20
-71.221646548954155
30
0
10
169.57987753771263
20
-70.82672249357924
30
8.8817841970012523e-15
10
169.34120392431169
20
-70.374877796362028
30
8.8817841970012523e-15
10
168.93466331367853
20
-69.230329581544879
30
0
10
168.82656864681053
20
-68.511919552896941
30
8.8817841970012523e-15
10
168.70947137556465
20
-66.167675215029533
30
0
10
169.05032973579267
20
-65.041167722553212
30
8.8817841970012523e-15
10
169.30336819110153
20
-64.224269326407651
30
8.8817841970012523e-15
10
169.58858965728993
20
-63.617820557123643
30
8.8817841970012523e-15
10
170.00103585067473
20
-63.097186386597045
30
8.8817841970012523e-15
0
SPLINE
5
119
100
AcDbEntity
8
0
100
AcDbSpline
70
0
71
3
72
10
73
6
74
0
42
0.000000001
43
0.0000000001
44
0.0000000001
40
0
40
0
40
0
40
0
40
0.091022570320494073
40
0.091022570320494073
40
0.1805248416373767
40
0.1805248416373767
40
0.1805248416373767
40
0.1805248416373767
10
170.00103585067473
20
-63.097186386597023
30
8.8817841970012523e-15
10
170.18951318664807
20
-62.859419583196335
30
8.8817841970012523e-15
10
170.4011844828168
20
-62.644015031681178
30
8.8817841970012523e-15
10
170.87202057446666
20
-62.269280605228005
30
0
10
171.12426212147139
20
-62.113905296025003
30
8.8817841970012523e-15
10
171.39478023509173
20
-61.988090002190113
30
8.8817841970012523e-15
0
SPLINE
5
120
100
AcDbEntity
8
0
100
AcDbSpline
70
0
71
3
72
12
73
8
74
0
42
0.000000001
43
0.0000000001
44
0.0000000001
40
0
40
0
40
0
40
0
40
0.15518094684751299
40
0.15518094684751299
40
0.23306418859172728
40
0.23306418859172728
40
0.29480720329239268
40
0.29480720329239268
40
0.29480720329239268
40
0.29480720329239268
10
171.39478023509173
20
-61.988090002190134
30
8.8817841970012523e-15
10
171.86377775870591
20
-61.769894235848895
30
8.8817841970012523e-15
10
172.3608415896081
20
-61.652583383274603
30
8.8817841970012523e-15
10
173.13609106152441
20
-61.602211246047453
30
8.8817841970012523e-15
10
173.51203435360725
20
-61.598565234870918
30
8.8817841970012523e-15
10
174.26747214776861
20
-61.717461810710645
30
8.8817841970012523e-15
10
174.59113366571302
20
-61.808005879368778
30
-8.8817841970012523e-15
10
174.90220697168172
20
-61.940631658695921
30
0
0
ELLIPSE
5
121
100
AcDbEntity
8
0
100
AcDbEllipse
10
-99.034228849813388
20
-306.15771436914946
30
-8.8817841970012523e-15
11
254.87156605529947
21
243.67864972422612
31
0.0
40
0.090506135220563527
41
6.2327904445199414
42
6.2740860307433826
0
ELLIPSE
5
122
100
AcDbEntity
8
0
100
AcDbEllipse
10
-194.08864616747547
20
-359.72796792224273
30
-8.8817841970012523e-15
11
349.87692583347467
21
297.43602648449007
31
0.0
40
0.090145293982489813
41
6.2067008266806143
42
6.2395602499894869
0
LINE
5
123
100
AcDbEntity
8
0
100
AcDbLine
10
156.81414826038508
20
-65.571450088367754
30
3.8268396112348487e-15
11
156.81414826038434
21
-72.100934614326547
31
8.8817841970012523e-15
0
SPLINE
5
124
100
AcDbEntity
8
0
100
AcDbSpline
70
0
71
3
72
16
73
12
74
0
42
0.000000001
43
0.0000000001
44
0.0000000001
40
0
40
0
40
0
40
0
40
0.011462474262669851
40
0.011462474262669851
40
0.022853974600246622
40
0.022853974600246622
40
0.034570517044434299
40
0.034570517044434299
40
0.040574715260658124
40
0.040574715260658124
40
0.046766335005809713
40
0.046766335005809713
40
0.046766335005809713
40
0.046766335005809713
10
156.81414826038434
20
-72.100934614326547
30
8.8817841970012523e-15
10
156.81414826038434
20
-72.139142861868791
30
0
10
156.80691504056128
20
-72.176709823923304
30
0
10
156.77837732240002
20
-72.247187749422125
30
0
10
156.75748551545217
20
-72.27925807103334
30
0
10
156.70416112735018
20
-72.334569512316989
30
0
10
156.67183540390914
20
-72.357097822438234
30
0
10
156.61778584216387
20
-72.380641782609544
30
8.8817841970012523e-15
10
156.59872862150382
20
-72.38672720510263
30
8.8817841970012523e-15
10
156.55901421912367
20
-72.39507992786767
30
0
10
156.53850859222467
20
-72.397184614252552
30
8.8817841970012523e-15
10
156.51789826045822
20
-72.397184614252552
30
8.8817841970012523e-15
0
LINE
5
125
100
AcDbEntity
8
0
100
AcDbLine
10
156.5178982604582
20
-72.397184614252552
30
8.8817841970012555e-15
11
154.68379702393764
21
-72.397184614252552
31
8.8817841970012507e-15
0
SPLINE
5
126
100
AcDbEntity
8
0
100
AcDbSpline
70
0
71
3
72
16
73
12
74
0
42
0.000000001
43
0.0000000001
44
0.0000000001
40
0
40
0
40
0
40
0
40
0.011462474262661075
40
0.011462474262661075
40
0.022853974600198085
40
0.022853974600198085
40
0.034570517044393255
40
0.034570517044393255
40
0.040574715260617782
40
0.040574715260617782
40
0.046766335005727029
40
0.046766335005727029
40
0.046766335005727029
40
0.046766335005727029
10
154.68379702393764
20
-72.397184614252552
30
8.8817841970012523e-15
10
154.64558877639544
20
-72.397184614252552
30
8.8817841970012523e-15
10
154.60802181434082
20
-72.389951394429502
30
8.8817841970012523e-15
10
154.53754388884187
20
-72.361413676268157
30
8.8817841970012523e-15
10
154.50547356723067
20
-72.340521869320241
30
0
10
154.4501621259472
20
-72.287197481218399
30
8.8817841970012523e-15
10
154.427633815826
20
-72.254871757777423
30
8.8817841970012523e-15
10
154.40408985565472
20
-72.200822196032249
30
8.8817841970012523e-15
10
154.39800443316159
20
-72.181764975372232
30
0
10
154.38965171039649
20
-72.142050572991948
30
8.8817841970012523e-15
10
154.38754702401161
20
-72.121544946092939
30
0
10
154.38754702401161
20
-72.100934614326547
30
8.8817841970012523e-15
0
LINE
5
127
100
AcDbEntity
8
0
100
AcDbLine
10
154.38754702401161
20
-72.100934614326547
30
8.8817841970012492e-15
11
154.38754702401272
21
-65.76107934043813
31
-2.7755575615628914e-16
0
ELLIPSE
5
128
100
AcDbEntity
8
0
100
AcDbEllipse
10
-57.550224893028371
20
-179.09902148742839
30
8.8817841970012523e-15
11
211.70478402495078
21
114.32602599975849
31
0.0
40
0.086900316524640669
41
6.2362913077978721
42
6.2953791175486646
0
SPLINE
5
129
100
AcDbEntity
8
0
100
AcDbSpline
70
0
71
3
72
16
73
12
74
0
42
0.000000001
43
0.0000000001
44
0.0000000001
40
0
40
0
40
0
40
0
40
0.044888242891578403
40
0.044888242891578403
40
0.091922632912849384
40
0.091922632912849384
40
0.15086127132579083
40
0.15086127132579083
40
0.18932639669708312
40
0.18932639669708312
40
0.22670759838663193
40
0.22670759838663193
40
0.22670759838663193
40
0.22670759838663193
10
154.01767812761994
20
-64.557168329998433
30
0
10
153.92893930018116
20
-64.436695087449408
30
0
10
153.82031568690016
20
-64.338069281010647
30
8.8817841970012523e-15
10
153.55756287059805
20
-64.180438902319978
30
8.8817841970012523e-15
10
153.40924615459579
20
-64.128206895691392
30
8.8817841970012523e-15
10
153.06339238170443
20
-64.05668468840598
30
8.8817841970012523e-15
10
152.8277842600271
20
-64.041771812420819
30
-8.8817841970012523e-15
10
152.47431362140938
20
-64.081055752431894
30
0
10
152.33868936708444
20
-64.113657830818639
30
8.8817841970012523e-15
10
152.0816690040154
20
-64.216789118499932
30
0
10
151.96448931525427
20
-64.284413800980758
30
8.8817841970012523e-15
10
151.85623124909063
20
-64.367539077929919
30
8.8817841970012523e-15
0
SPLINE
5
130
100
AcDbEntity
8
0
100
AcDbSpline
70
0
71
3
72
12
73
8
74
0
42
0.000000001
43
0.0000000001
44
0.0000000001
40
0
40
0
40
0
40
0
40
0.0602372994969275
40
0.0602372994969275
40
0.12073448420000496
40
0.12073448420000496
40
0.16669295399616271
40
0.16669295399616271
40
0.16669295399616271
40
0.16669295399616271
10
151.85623124909063
20
-64.367539077929919
30
8.8817841970012523e-15
10
151.69688415957103
20
-64.489709164568254
30
0
10
151.56488228941743
20
-64.636262512178277
30
0
10
151.35957394155793
20
-64.982406757169159
30
0
10
151.31251518021909
20
-65.138398401370125
30
8.8817841970012523e-15
10
151.29962551243213
20
-65.186695528776127
30
8.8817841970012523e-15
10
151.29693722253776
20
-65.208552399359235
30
0
10
151.29693722253774
20
-65.23012992380788
30
8.8817841970012523e-15
0
LINE
5
131
100
AcDbEntity
8
0
100
AcDbLine
10
151.29693722253774
20
-65.23012992380788
30
8.8817841970012507e-15
11
151.29693722253774
21
-72.100934614326562
31
8.3266726846886741e-15
0
SPLINE
5
132
100
AcDbEntity
8
0
100
AcDbSpline
70
0
71
3
72
16
73
12
74
0
42
0.000000001
43
0.0000000001
44
0.0000000001
40
0
40
0
40
0
40
0
40
0.011462474262647302
40
0.011462474262647302
40
0.022853974600194015
40
0.022853974600194015
40
0.034570517044336155
40
0.034570517044336155
40
0.040574715260518382
40
0.040574715260518382
40
0.046766335005611073
40
0.046766335005611073
40
0.046766335005611073
40
0.046766335005611073
10
151.29693722253774
20
-72.100934614326547
30
8.8817841970012523e-15
10
151.29693722253774
20
-72.13914286186872
30
8.8817841970012523e-15
10
151.28970400271467
20
-72.176709823923233
30
0
10
151.26116628455344
20
-72.247187749422054
30
0
10
151.24027447760562
20
-72.279258071033254
30
0
10
151.18695008950357
20
-72.334569512316961
30
0
10
151.15462436606251
20
-72.357097822438234
30
0
10
151.10057480431723
20
-72.38064178260953
30
8.8817841970012523e-15
10
151.08151758365722
20
-72.38672720510263
30
8.8817841970012523e-15
10
151.041803181277
20
-72.39507992786767
30
0
10
151.02129755437804
20
-72.397184614252538
30
0
10
151.00068722261165
20
-72.397184614252538
30
0
0
LINE
5
133
100
AcDbEntity
8
0
100
AcDbLine
10
151.00068722261162
20
-72.397184614252538
30
1.5021405736605552e-31
11
149.14719440487914
21
-72.397184614252552
31
8.8817841970012507e-15
0
SPLINE
5
134
100
AcDbEntity
8
0
100
AcDbSpline
70
0
71
3
72
16
73
12
74
0
42
0.000000001
43
0.0000000001
44
0.0000000001
40
0
40
0
40
0
40
0
40
0.011462474262667765
40
0.011462474262667765
40
0.022853974600208972
40
0.022853974600208972
40
0.034570517044386712
40
0.034570517044386712
40
0.040574715260602752
40
0.040574715260602752
40
0.046766335005711687
40
0.046766335005711687
40
0.046766335005711687
40
0.046766335005711687
10
149.14719440487914
20
-72.397184614252538
30
0
10
149.10898615733691
20
-72.397184614252538
30
0
10
149.07141919528232
20
-72.389951394429502
30
8.8817841970012523e-15
10
149.00094126978337
20
-72.361413676268185
30
8.8817841970012523e-15
10
148.96887094817222
20
-72.34052186932027
30
0
10
148.9135595068887
20
-72.287197481218399
30
8.8817841970012523e-15
10
148.89103119676747
20
-72.254871757777423
30
8.8817841970012523e-15
10
148.86748723659619
20
-72.200822196032163
30
8.8817841970012523e-15
10
148.86140181410309
20
-72.181764975372147
30
0
10
148.85304909133799
20
-72.142050572991948
30
8.8817841970012523e-15
10
148.85094440495311
20
-72.121544946092968
30
8.8817841970012523e-15
10
148.85094440495311
20
-72.100934614326547
30
8.8817841970012523e-15
0
LINE
5
135
100
AcDbEntity
8
0
100
AcDbLine
10
148.85094440495311
20
-72.100934614326547
30
8.8817841970012523e-15
11
148.85094440495314
21
-62.094710750047611
31
5.5511151231257827e-16
0
SPLINE
5
136
100
AcDbEntity
8
0
100
AcDbSpline
70
0
71
3
72
16
73
12
74
0
42
0.000000001
43
0.0000000001
44
0.0000000001
40
0
40
0
40
0
40
0
40
0.011462474262663414
40
0.011462474262663414
40
0.022853974600187552
40
0.022853974600187552
40
0.034570517044317808
40
0.034570517044317808
40
0.040574715260502388
40
0.040574715260502388
40
0.046766335005583436
40
0.046766335005583436
40
0.046766335005583436
40
0.046766335005583436
10
148.85094440495311
20
-62.094710750047625
30
8.8817841970012523e-15
10
148.85094440495311
20
-62.05650250250541
30
0
10
148.85817762477618
20
-62.018935540450713
30
8.8817841970012523e-15
10
148.88671534293755
20
-61.9484576149517
30
8.8817841970012523e-15
10
148.90760714988545
20
-61.916387293340485
30
8.8817841970012523e-15
10
148.96093153798742
20
-61.86107585205697
30
8.8817841970012523e-15
10
148.99325726142837
20
-61.83854754193581
30
0
10
149.04730682317353
20
-61.815003581764607
30
0
10
149.06636404383352
20
-61.808918159271514
30
0
10
149.10607844621376
20
-61.800565436506467
30
0
10
149.12658407311278
20
-61.798460750121606
30
8.8817841970012523e-15
10
149.14719440487914
20
-61.798460750121606
30
8.8817841970012523e-15
0
LINE
5
137
100
AcDbEntity
8
0
100
AcDbLine
10
149.14719440487917
20
-61.798460750121606
30
8.8817841970012523e-15
11
151.06835821199766
21
-61.79846075012162
31
8.8817841970012523e-15
0
SPLINE
5
138
100
AcDbEntity
8
0
100
AcDbSpline
70
0
71
3
72
16
73
12
74
0
42
0.000000001
43
0.0000000001
44
0.0000000001
40
0
40
0
40
0
40
0
40
0.0088441553617705834
40
0.0088441553617705834
40
0.017633549037299301
40
0.017633549037299301
40
0.026673736985065602
40
0.026673736985065602
40
0.031306424538475493
40
0.031306424538475493
40
0.036083721805467782
40
0.036083721805467782
40
0.036083721805467782
40
0.036083721805467782
10
151.06835821199763
20
-61.798460750121606
30
8.8817841970012523e-15
10
151.0978387298702
20
-61.798460750121606
30
8.8817841970012523e-15
10
151.12682444807271
20
-61.80404171967627
30
8.8817841970012523e-15
10
151.18120343365729
20
-61.826060701556294
30
8.8817841970012523e-15
10
151.20594808305287
20
-61.842180291638101
30
8.8817841970012523e-15
10
151.24862499283643
20
-61.883324041420508
30
8.8817841970012523e-15
10
151.26600726739505
20
-61.908265752411268
30
0
10
151.28417319185598
20
-61.949969027844148
30
8.8817841970012523e-15
10
151.28886855000806
20
-61.964673097525861
30
0
10
151.29531329973105
20
-61.995315726395035
30
8.8817841970012523e-15
10
151.29693722253774
20
-62.011137349713962
30
0
10
151.29693722253774
20
-62.027039760661609
30
8.8817841970012523e-15
0
SPLINE
5
139
100
AcDbEntity
8
0
100
AcDbSpline
70
0
71
3
72
24
73
20
74
0
42
0.000000001
43
0.0000000001
44
0.0000000001
40
0
40
0
40
0
40
0
40
0.00927186174612161
40
0.00927186174612161
40
0.01767474381374224
40
0.01767474381374224
40
0.02640742762823748
40
0.02640742762823748
40
0.035569347998166398
40
0.035569347998166398
40
0.044578920263655814
40
0.044578920263655814
40
0.056706260971782912
40
0.056706260971782912
40
0.11559848316533246
40
0.11559848316533246
40
0.17705716819802073
40
0.17705716819802073
40
0.25112553398106924
40
0.25112553398106924
40
0.25112553398106924
40
0.25112553398106924
10
151.29693722253774
20
-62.027040537958115
30
8.8817841970012523e-15
10
151.29693722253774
20
-62.057946743778515
30
8.8817841970012523e-15
10
151.30263446397831
20
-62.088186349414229
30
8.8817841970012523e-15
10
151.32540813911891
20
-62.142351684324609
30
8.8817841970012523e-15
10
151.34099995013156
20
-62.165656732702381
30
-8.8817841970012523e-15
10
151.38087090157774
20
-62.206237800464251
30
8.8817841970012523e-15
10
151.40506749200168
20
-62.222831880092755
30
8.8817841970012523e-15
10
151.45941079139843
20
-62.246800368830918
30
8.8817841970012523e-15
10
151.48948511730222
20
-62.253546378015656
30
8.8817841970012523e-15
10
151.54982828430491
20
-62.25481990099464
30
8.8817841970012523e-15
10
151.57939907715948
20
-62.249553925057903
30
8.8817841970012523e-15
10
151.64485420707683
20
-62.223806939560049
30
0
10
151.66580459991093
20
-62.204032198969216
30
0
10
151.97853221075636
20
-61.960427466355142
30
8.8817841970012523e-15
10
152.26774153722548
20
-61.816622185549058
30
0
10
152.91364484811646
20
-61.63202483715861
30
8.8817841970012523e-15
10
153.26097598387122
20
-61.599188785653084
30
8.8817841970012523e-15
10
154.10212090184226
20
-61.626233854281551
30
8.8817841970012523e-15
10
154.56469261597519
20
-61.705275888381991
30
0
10
154.98480772536001
20
-61.893275376155678
30
8.8817841970012523e-15
0
SPLINE
5
140
100
AcDbEntity
8
0
100
AcDbSpline
70
0
71
3
72
10
73
6
74
0
42
0.000000001
43
0.0000000001
44
0.0000000001
40
0
40
0
40
0
40
0
40
0.067668125738221563
40
0.067668125738221563
40
0.13370229042748752
40
0.13370229042748752
40
0.13370229042748752
40
0.13370229042748752
10
154.98480772536013
20
-61.893275376155721
30
0
10
155.19067904246603
20
-61.985441006788889
30
8.8817841970012523e-15
10
155.38446874619461
20
-62.098965920668888
30
8.8817841970012523e-15
10
155.73708595329299
20
-62.371532290443888
30
0
10
155.89182718360473
20
-62.525683989595748
30
8.8817841970012523e-15
10
156.02746242887494
20
-62.699046606016424
30
8.8817841970012523e-15
0
SPLINE
5
141
100
AcDbEntity
8
0
100
AcDbSpline
70
0
71
3
72
16
73
12
74
0
42
0.000000001
43
0.0000000001
44
0.0000000001
40
0
40
0
40
0
40
0
40
0.011676786091961837
40
0.011676786091961837
40
0.023018285299273182
40
0.023018285299273182
40
0.034790224338213521
40
0.034790224338213521
40
0.044959396048267014
40
0.044959396048267014
40
0.05564771106880434
40
0.05564771106880434
40
0.05564771106880434
40
0.05564771106880434
10
137.17282311671062
20
-61.798460750121606
30
8.8817841970012523e-15
10
137.21174573701717
20
-61.798460750121606
30
8.8817841970012523e-15
10
137.24992231122999
20
-61.805767348266087
30
8.8817841970012523e-15
10
137.32080145545669
20
-61.834711297359355
30
8.8817841970012523e-15
10
137.35261823429846
20
-61.855550171245561
30
8.8817841970012523e-15
10
137.40791397488053
20
-61.908850290728424
30
8.8817841970012523e-15
10
137.4306113570685
20
-61.941318444053962
30
8.8817841970012523e-15
10
137.46004257764113
20
-62.008028829560963
30
8.8817841970012523e-15
10
137.46834916438678
20
-62.041017796343986
30
8.8817841970012523e-15
10
137.47348954817537
20
-62.110197414895197
30
0
10
137.46966968376793
20
-62.145556729564539
30
8.8817841970012523e-15
10
137.4598145949648
20
-62.179774570580108
30
8.8817841970012523e-15
0
LINE
5
142
100
AcDbEntity
8
0
100
AcDbLine
10
137.4598145949648
20
-62.179774570580093
30
8.8817841970012507e-15
11
134.57930627376112
21
-72.181183766207738
31
8.8817841970012523e-15
0
SPLINE
5
143
100
AcDbEntity
8
0
100
AcDbSpline
70
0
71
3
72
14
73
10
74
0
42
0.000000001
43
0.0000000001
44
0.0000000001
40
0
40
0
40
0
40
0
40
0.01150752841626501
40
0.01150752841626501
40
0.023104705036611509
40
0.023104705036611509
40
0.030806699552008501
40
0.030806699552008501
40
0.038702225036777463
40
0.038702225036777463
40
0.038702225036777463
40
0.038702225036777463
10
134.57930627376112
20
-72.181183766207766
30
8.8817841970012523e-15
10
134.5686901846324
20
-72.218043875464261
30
0
10
134.55119679832816
20
-72.252350850138356
30
0
10
134.50381010569467
20
-72.312911588177286
30
0
10
134.4743182451648
20
-72.33843714247692
30
0
10
134.41861656645426
20
-72.370389277873343
30
0
10
134.39483786124106
20
-72.380232702120779
30
8.8817841970012523e-15
10
134.34471550379735
20
-72.393747538218747
30
8.8817841970012523e-15
10
134.31860779983924
20
-72.397184614252538
30
0
10
134.29231479550731
20
-72.397184614252538
30
0
0
LINE
5
144
100
AcDbEntity
8
0
100
AcDbLine
10
134.29231479550734
20
-72.397184614252538
30
1.0530196871783138e-31
11
132.16408229947484
21
-72.397184614252538
31
0
0
SPLINE
5
145
100
AcDbEntity
8
0
100
AcDbSpline
70
0
71
3
72
14
73
10
74
0
42
0.000000001
43
0.0000000001
44
0.0000000001
40
0
40
0
40
0
40
0
40
0.011507751667019924
40
0.011507751667019924
40
0.023103753973764705
40
0.023103753973764705
40
0.03085494250045593
40
0.03085494250045593
40
0.038802101337440872
40
0.038802101337440872
40
0.038802101337440872
40
0.038802101337440872
10
132.16408229947484
20
-72.397184614252538
30
0
10
132.1257231272514
20
-72.397184614252538
30
0
10
132.08791508046221
20
-72.3898698032353
30
8.8817841970012523e-15
10
132.01660853519672
20
-72.361095860066612
30
8.8817841970012523e-15
10
131.98392121973373
20
-72.339822920435694
30
8.8817841970012523e-15
10
131.93768510172515
20
-72.295031180842372
30
8.8817841970012523e-15
10
131.92155744641929
20
-72.274763562523475
30
0
10
131.89459648238079
20
-72.230009471246035
30
8.8817841970012523e-15
10
131.8840589674607
20
-72.205688550807665
30
0
10
131.87681872306382
20
-72.180233099682326
30
8.8817841970012523e-15
0
LINE
5
146
100
AcDbEntity
8
0
100
AcDbLine
10
131.87681872306382
20
-72.180233099682326
30
8.8817841970012507e-15
11
129.03213738021051
21
-62.178823904054703
31
8.8817841970012523e-15
0
SPLINE
5
147
100
AcDbEntity
8
0
100
AcDbSpline
70
0
71
3
72
16
73
12
74
0
42
0.000000001
43
0.0000000001
44
0.0000000001
40
0
40
0
40
0
40
0
40
0.011674840611219659
40
0.011674840611219659
40
0.023018190414101442
40
0.023018190414101442
40
0.034790866331369887
40
0.034790866331369887
40
0.044911674851671211
40
0.044911674851671211
40
0.055546867772896538
40
0.055546867772896538
40
0.055546867772896538
40
0.055546867772896538
10
129.03213738021051
20
-62.17882390405471
30
8.8817841970012523e-15
10
129.02149081515202
20
-62.141392416712513
30
8.8817841970012523e-15
10
129.0180754709024
20
-62.102678606365856
30
8.8817841970012523e-15
10
129.02652081025292
20
-62.026584781382461
30
8.8817841970012523e-15
10
129.03786100459223
20
-61.99027337861034
30
8.8817841970012523e-15
10
129.07400326401782
20
-61.922496886421868
30
8.8817841970012523e-15
10
129.09902465544309
20
-61.891780943873719
30
0
10
129.15501942536844
20
-61.845325328459353
30
8.8817841970012523e-15
10
129.18432301038246
20
-61.828371721381643
30
8.8817841970012523e-15
10
129.24910342064462
20
-61.804516896926259
30
0
10
129.28396997535455
20
-61.798460750121592
30
8.8817841970012523e-15
10
129.31940095662182
20
-61.798460750121592
30
8.8817841970012523e-15
0
LINE
5
148
100
AcDbEntity
8
0
100
AcDbLine
10
129.31940095662182
20
-61.798460750121585
30
8.8817841970012507e-15
11
131.28869418674873
21
-61.798460750121592
31
8.8817841970012523e-15
0
SPLINE
5
149
100
AcDbEntity
8
0
100
AcDbSpline
70
0
71
3
72
14
73
10
74
0
42
0.000000001
43
0.0000000001
44
0.0000000001
40
0
40
0
40
0
40
0
40
0.011510126544980787
40
0.011510126544980787
40
0.023095271431498712
40
0.023095271431498712
40
0.031294170353139444
40
0.031294170353139444
40
0.039711931615396219
40
0.039711931615396219
40
0.039711931615396219
40
0.039711931615396219
10
131.2886941867487
20
-61.798460750121592
30
8.8817841970012523e-15
10
131.32706127523198
20
-61.798460750121592
30
8.8817841970012523e-15
10
131.3648673087522
20
-61.805771573267819
30
-8.8817841970012523e-15
10
131.43614333889161
20
-61.834537614616906
30
8.8817841970012523e-15
10
131.46879911520895
20
-61.855787940348172
30
8.8817841970012523e-15
10
131.51609093510183
20
-61.901570399810836
30
8.8817841970012523e-15
10
131.53300828966917
20
-61.923138242304141
30
8.8817841970012523e-15
10
131.56085480515088
20
-61.97091672503057
30
0
10
131.57143708652893
20
-61.996925488225344
30
0
10
131.57829020699472
20
-62.024108849613611
30
8.8817841970012523e-15
0
LINE
5
150
100
AcDbEntity
8
0
100
AcDbLine
10
131.57829020699472
20
-62.024108849613604
30
8.8817841970012523e-15
11
132.94300579784783
21
-67.43734465708782
31
8.6042284408449632e-15
0
SPLINE
5
151
100
AcDbEntity
8
0
100
AcDbSpline
70
0
71
3
72
20
73
16
74
0
42
0.000000001
43
0.0000000001
44
0.0000000001
40
0
40
0
40
0
40
0
40
0.012312740816755333
40
0.012312740816755333
40
0.023145206435046146
40
0.023145206435046146
40
0.034365103398471042
40
0.034365103398471042
40
0.046550635464712033
40
0.046550635464712033
40
0.058384112781190114
40
0.058384112781190114
40
0.068544511086373508
40
0.068544511086373508
40
0.079699820328923698
40
0.079699820328923698
40
0.079699820328923698
40
0.079699820328923698
10
132.94300579784783
20
-67.437344657087834
30
8.8817841970012523e-15
10
132.95303896609488
20
-67.477141891017936
30
8.8817841970012523e-15
10
132.96990829011241
20
-67.514336061001927
30
-8.8817841970012523e-15
10
133.01603254796757
20
-67.575924970921875
30
8.8817841970012523e-15
10
133.04270444200054
20
-67.600125044041903
30
-8.8817841970012523e-15
10
133.105149532447
20
-67.638332226748759
30
8.8817841970012523e-15
10
133.14042726906007
20
-67.651457392555571
30
0
10
133.21686405933465
20
-67.665200335385009
30
8.8817841970012523e-15
10
133.25799584195681
20
-67.664595521470446
30
8.8817841970012523e-15
10
133.33596945683351
20
-67.648098647883444
30
0
10
133.37257021290526
20
-67.632718878581045
30
8.8817841970012523e-15
10
133.43268646213193
20
-67.591252029426144
30
0
10
133.45660285549448
20
-67.567500045926835
30
8.8817841970012523e-15
10
133.49726677770173
20
-67.509455716274616
30
8.8817841970012523e-15
10
133.51224501850538
20
-67.475587209239364
30
0
10
133.5216134803203
20
-67.439624614111224
30
8.8817841970012523e-15
0
LINE
5
152
100
AcDbEntity
8
0
100
AcDbLine
10
133.5216134803203
20
-67.43962461411121
30
8.8817841970012507e-15
11
134.93298026732151
21
-62.021828892589298
31
8.8817841970012523e-15
0
SPLINE
5
153
100
AcDbEntity
8
0
100
AcDbSpline
70
0
71
3
72
14
73
10
74
0
42
0.000000001
43
0.0000000001
44
0.0000000001
40
0
40
0
40
0
40
0
40
0.011509445636852618
40
0.011509445636852618
40
0.023097457457758173
40
0.023097457457758173
40
0.0311793703874935
40
0.0311793703874935
40
0.039474043619944305
40
0.039474043619944305
40
0.039474043619944305
40
0.039474043619944305
10
134.93298026732151
20
-62.021828892589298
30
8.8817841970012523e-15
10
134.94265173983649
20
-61.984703134143956
30
0
10
134.95925811694454
20
-61.949961041602357
30
8.8817841970012523e-15
10
135.0050670778509
20
-61.888231504282032
30
8.8817841970012523e-15
10
135.03387119967709
20
-61.861980801338092
30
8.8817841970012523e-15
10
135.08977697142399
20
-61.827959373668776
30
8.8817841970012523e-15
10
135.11453123668167
20
-61.817137710058404
30
0
10
135.16696177357846
20
-61.802251437403797
30
8.8817841970012523e-15
10
135.19436841104221
20
-61.798460750121606
30
8.8817841970012523e-15
10
135.2219919295479
20
-61.798460750121606
30
8.8817841970012523e-15
0
LINE
5
154
100
AcDbEntity
8
0
100
AcDbLine
10
135.2219919295479
20
-61.798460750121606
30
8.8817841970012539e-15
11
137.17282311671062
21
-61.798460750121606
31
8.8817841970012523e-15
0
SPLINE
5
155
100
AcDbEntity
8
0
100
AcDbSpline
70
0
71
3
72
20
73
16
74
0
42
0.000000001
43
0.0000000001
44
0.0000000001
40
0
40
0
40
0
40
0
40
0.012096411573271263
40
0.012096411573271263
40
0.022814864605489704
40
0.022814864605489704
40
0.033946666613821376
40
0.033946666613821376
40
0.045963118319360605
40
0.045963118319360605
40
0.057560391048665033
40
0.057560391048665033
40
0.066834546711955767
40
0.066834546711955767
40
0.076955834546672902
40
0.076955834546672902
40
0.076955834546672902
40
0.076955834546672902
10
124.2427621992596
20
-62.923408156335597
30
-8.8817841970012523e-15
10
124.23157976823182
20
-62.884668431645224
30
8.8817841970012523e-15
10
124.2137267018278
20
-62.848741506064044
30
8.8817841970012523e-15
10
124.16621597300079
20
-62.78961711183463
30
0
10
124.1390031592297
20
-62.766573570524983
30
8.8817841970012523e-15
10
124.07589059937993
20
-62.730816842344424
30
8.8817841970012523e-15
10
124.04045453862523
20
-62.71897069087666
30
8.8817841970012523e-15
10
123.96442946032747
20
-62.70800468038739
30
8.8817841970012523e-15
10
123.92392581918401
20
-62.710010103019144
30
0
10
123.84790565293559
20
-62.72901792138687
30
8.8817841970012523e-15
10
123.81265524562743
20
-62.745396515111906
30
8.8817841970012523e-15
10
123.75707136084408
20
-62.786814645785036
30
8.8817841970012523e-15
10
123.73575414272972
20
-62.809006795639029
30
8.8817841970012523e-15
10
123.69922317538237
20
-62.86214702066988
30
8.8817841970012523e-15
10
123.68537584208745
20
-62.892770602441942
30
8.8817841970012523e-15
10
123.67623505788762
20
-62.925210695307797
30
8.8817841970012523e-15
0
LINE
5
156
100
AcDbEntity
8
0
100
AcDbLine
10
123.6762350578876
20
-62.925210695307797
30
8.8817841970012523e-15
11
122.50715444523163
21
-67.074207413013028
31
8.6042284408449632e-15
0
SPLINE
5
157
100
AcDbEntity
8
0
100
AcDbSpline
70
0
71
3
72
16
73
12
74
0
42
0.000000001
43
0.0000000001
44
0.0000000001
40
0
40
0
40
0
40
0
40
0.011513294198791589
40
0.011513294198791589
40
0.022702411511483396
40
0.022702411511483396
40
0.034314148309176437
40
0.034314148309176437
40
0.044260742555019515
40
0.044260742555019515
40
0.054711196050682497
40
0.054711196050682497
40
0.054711196050682497
40
0.054711196050682497
10
122.50715444523163
20
-67.074207413013028
30
8.8817841970012523e-15
10
122.4967459209079
20
-67.111146639262827
30
8.8817841970012523e-15
10
122.49347199013056
20
-67.149333801266593
30
8.8817841970012523e-15
10
122.50198331996143
20
-67.224363492811307
30
8.8817841970012523e-15
10
122.51325643094765
20
-67.260154661300007
30
0
10
122.54906944587046
20
-67.326920002962211
30
0
10
122.57382301163069
20
-67.35715530334906
30
8.8817841970012523e-15
10
122.6290749326789
20
-67.402762551231547
30
8.8817841970012523e-15
10
122.65790458282602
20
-67.419368002172519
30
-8.8817841970012523e-15
10
122.72159532753565
20
-67.442727308563974
30
0
10
122.75586011568026
20
-67.448657210704823
30
8.8817841970012523e-15
10
122.79067506854491
20
-67.448657210704823
30
8.8817841970012523e-15
0
LINE
5
158
100
AcDbEntity
8
0
100
AcDbLine
10
122.79067506854491
20
-67.448657210704823
30
8.8817841970012523e-15
11
123.15162849039652
21
-67.448657210704781
31
8.8817841970012523e-15
0
LINE
5
159
100
AcDbEntity
8
0
100
AcDbLine
10
123.15162849039652
20
-67.448657210704781
30
8.8817841970012523e-15
11
123.14724394610263
21
-69.856479231586889
31
8.7430063189231078e-15
0
LINE
5
160
100
AcDbEntity
8
0
100
AcDbLine
10
123.14724394610263
20
-69.856479231586889
30
8.7430063189231078e-15
11
121.98118097750772
21
-69.856479231586931
31
0
0
SPLINE
5
161
100
AcDbEntity
8
0
100
AcDbSpline
70
0
71
3
72
14
73
10
74
0
42
0.000000001
43
0.0000000001
44
0.0000000001
40
0
40
0
40
0
40
0
40
0.011350454643155764
40
0.011350454643155764
40
0.022784689444196406
40
0.022784689444196406
40
0.030542822816878333
40
0.030542822816878333
40
0.038499912429749567
40
0.038499912429749567
40
0.038499912429749567
40
0.038499912429749567
10
121.98118097750772
20
-69.856479231586931
30
0
10
121.94334612869721
20
-69.856479231586931
30
0
10
121.90605734349079
20
-69.8636926733558
30
0
10
121.83573659996395
20
-69.892069797562115
30
0
10
121.80350543719481
20
-69.913045246574853
30
0
10
121.7576363395959
20
-69.957473324906488
30
8.8817841970012523e-15
10
121.74152864597951
20
-69.977790543043398
30
8.8817841970012523e-15
10
121.71470596288563
20
-70.022692227933504
30
8.8817841970012523e-15
10
121.70429516466498
20
-70.047104716363108
30
8.8817841970012523e-15
10
121.69724301480332
20
-70.072647597005741
30
8.8817841970012523e-15
0
LINE
5
162
100
AcDbEntity
8
0
100
AcDbLine
10
121.69724301480332
20
-70.072647597005741
30
8.8817841970012523e-15
11
121.11514219757751
21
-72.181016248833728
31
0
0
SPLINE
5
163
100
AcDbEntity
8
0
100
AcDbSpline
70
0
71
3
72
14
73
10
74
0
42
0.000000001
43
0.0000000001
44
0.0000000001
40
0
40
0
40
0
40
0
40
0.011350454643160011
40
0.011350454643160011
40
0.022784689444192839
40
0.022784689444192839
40
0.03054282281690417
40
0.03054282281690417
40
0.038499912429795974
40
0.038499912429795974
40
0.038499912429795974
40
0.038499912429795974
10
121.11514219757751
20
-72.181016248833743
30
0
10
121.10507306834035
20
-72.217486626140797
30
0
10
121.08819596798419
20
-72.251510892891062
30
0
10
121.04212751162409
20
-72.311743487696347
30
0
10
121.01333071931967
20
-72.337229995258397
30
0
10
120.9582975761472
20
-72.369621065190344
30
0
10
120.93442627525886
20
-72.379740755915023
30
8.8817841970012523e-15
10
120.88400549885296
20
-72.393646256299874
30
0
10
120.85770275500533
20
-72.397184614252538
30
0
10
120.83120423487313
20
-72.397184614252538
30
0
0
LINE
5
164
100
AcDbEntity
8
0
100
AcDbLine
10
120.83120423487313
20
-72.397184614252538
30
1.2520134769223622e-30
11
118.81414593864143
21
-72.397184614252524
31
8.8817841970012507e-15
0
SPLINE
5
165
100
AcDbEntity
8
0
100
AcDbSpline
70
0
71
3
72
16
73
12
74
0
42
0.000000001
43
0.0000000001
44
0.0000000001
40
0
40
0
40
0
40
0
40
0.011520539827678089
40
0.011520539827678089
40
0.0227027863451447
40
0.0227027863451447
40
0.034311770729446397
40
0.034311770729446397
40
0.044437681331443435
40
0.044437681331443435
40
0.05508514494654651
40
0.05508514494654651
40
0.05508514494654651
40
0.05508514494654651
10
118.81414593864142
20
-72.397184614252538
30
0
10
118.77574413921582
20
-72.397184614252538
30
0
10
118.73808044174467
20
-72.389977349542974
30
8.8817841970012523e-15
10
118.66817589910323
20
-72.361423797406559
30
-8.8817841970012523e-15
10
118.63680936065748
20
-72.34087604653385
30
8.8817841970012523e-15
10
118.58228690458638
20
-72.288317769380413
30
0
10
118.55990386951066
20
-72.256298682263022
30
8.8817841970012523e-15
10
118.53074352144601
20
-72.190219630870075
30
8.8817841970012523e-15
10
118.522518567291
20
-72.157354235154486
30
8.8817841970012523e-15
10
118.51761480619101
20
-72.088438272578372
30
0
10
118.52159631410308
20
-72.053234261917638
30
0
10
118.53164167103483
20
-72.019211969701814
30
0
0
LINE
5
166
100
AcDbEntity
8
0
100
AcDbLine
10
118.53164167103485
20
-72.019211969701814
30
1.1722352933526826e-30
11
122.37716519246032
21
-58.994933603265892
31
-5.5511151231257827e-16
0
SPLINE
5
167
100
AcDbEntity
8
0
100
AcDbSpline
70
0
71
3
72
14
73
10
74
0
42
0.000000001
43
0.0000000001
44
0.0000000001
40
0
40
0
40
0
40
0
40
0.01134926981895128
40
0.01134926981895128
40
0.022789706620624125
40
0.022789706620624125
40
0.030288159519480353
40
0.030288159519480353
40
0.037972679524752889
40
0.037972679524752889
40
0.037972679524752889
40
0.037972679524752889
10
122.37716519246032
20
-58.994933603265892
30
8.8817841970012523e-15
10
122.38787787593608
20
-58.95865116451246
30
8.8817841970012523e-15
10
122.40535805037958
20
-58.924930296423398
30
8.8817841970012523e-15
10
122.45249654811239
20
-58.865507811859899
30
8.8817841970012523e-15
10
122.48175802170655
20
-58.840522261174534
30
8.8817841970012523e-15
10
122.53663167444897
20
-58.809536198855298
30
8.8817841970012523e-15
10
122.55982842124922
20
-58.800072756413371
30
0
10
122.60866451283839
20
-58.787085997365253
30
0
10
122.63407939175451
20
-58.783784298238402
30
8.8817841970012523e-15
10
122.65966946006721
20
-58.783784298238402
30
8.8817841970012523e-15
0
LINE
5
168
100
AcDbEntity
8
0
100
AcDbLine
10
122.65966946006722
20
-58.783784298238402
30
8.8817841970012539e-15
11
125.3288390827251
21
-58.783784298238388
31
8.8817841970012523e-15
0
SPLINE
5
169
100
AcDbEntity
8
0
100
AcDbSpline
70
0
71
3
72
14
73
10
74
0
42
0.000000001
43
0.0000000001
44
0.0000000001
40
0
40
0
40
0
40
0
40
0.011349269818998418
40
0.011349269818998418
40
0.022789706620684587
40
0.022789706620684587
40
0.03028815951949429
40
0.03028815951949429
40
0.037972679524694714
40
0.037972679524694714
40
0.037972679524694714
40
0.037972679524694714
10
125.32883908272511
20
-58.783784298238402
30
8.8817841970012523e-15
10
125.36666998212176
20
-58.783784298238402
30
8.8817841970012523e-15
10
125.40396052846302
20
-58.791000155557001
30
8.8817841970012523e-15
10
125.47429912746398
20
-58.819382388218202
30
8.8817841970012523e-15
10
125.50654804664313
20
-58.840370927751351
30
8.8817841970012523e-15
10
125.55180454354382
20
-58.88422412959109
30
0
10
125.56744932562341
20
-58.903791617898129
30
8.8817841970012523e-15
10
125.59373357730703
20
-58.946951296600545
30
8.8817841970012523e-15
10
125.60409693784059
20
-58.97039096481258
30
8.8817841970012523e-15
10
125.61134335033231
20
-58.994933603265892
30
8.8817841970012523e-15
0
LINE
5
170
100
AcDbEntity
8
0
100
AcDbLine
10
125.61134335033232
20
-58.994933603265892
30
8.8817841970012523e-15
11
129.45686687175751
21
-72.019211969701843
31
8.8817841970012523e-15
0
SPLINE
5
171
100
AcDbEntity
8
0
100
AcDbSpline
70
0
71
3
72
16
73
12
74
0
42
0.000000001
43
0.0000000001
44
0.0000000001
40
0
40
0
40
0
40
0
40
0.011520539827743665
40
0.011520539827743665
40
0.0227027863452356
40
0.0227027863452356
40
0.034311770729532926
40
0.034311770729532926
40
0.04443768133147951
40
0.04443768133147951
40
0.055085144946527748
40
0.055085144946527748
40
0.055085144946527748
40
0.055085144946527748
10
129.45686687175751
20
-72.019211969701814
30
0
10
129.46774121861984
20
-72.056041940913587
30
8.8817841970012523e-15
10
129.47149429167388
20
-72.094204923166856
30
8.8817841970012523e-15
10
129.46390453641231
20
-72.169333786040212
30
0
10
129.45307997974058
20
-72.205235022409809
30
0
10
129.41811225022064
20
-72.272408890882531
30
8.8817841970012523e-15
10
129.39374200758857
20
-72.302942699571958
30
8.8817841970012523e-15
10
129.3386250637821
20
-72.349621275360619
30
0
10
129.30943396882265
20
-72.366816160688757
30
8.8817841970012523e-15
10
129.24472742497005
20
-72.391034334718242
30
8.8817841970012523e-15
10
129.20983689855541
20
-72.397184614252538
30
0
10
129.1743626041509
20
-72.397184614252538
30
0
0
LINE
5
172
100
AcDbEntity
8
0
100
AcDbLine
10
129.1743626041509
20
-72.397184614252538
30
-1.7747709644091986e-30
11
127.15569651712231
21
-72.397184614252538
31
-1.9721522630525295e-30
0
SPLINE
5
173
100
AcDbEntity
8
0
100
AcDbSpline
70
0
71
3
72
14
73
10
74
0
42
0.000000001
43
0.0000000001
44
0.0000000001
40
0
40
0
40
0
40
0
40
0.011349966656327724
40
0.011349966656327724
40
0.02278663838014967
40
0.02278663838014967
40
0.030443251411591283
40
0.030443251411591283
40
0.038293731169621155
40
0.038293731169621155
40
0.038293731169621155
40
0.038293731169621155
10
127.15569651712232
20
-72.397184614252538
30
0
10
127.11786329493457
20
-72.397184614252538
30
0
10
127.08057389735939
20
-72.389970241350838
30
0
10
127.01024619334341
20
-72.361591187942494
30
0
10
126.97800801937872
20
-72.340610618076298
30
8.8817841970012523e-15
10
126.93237837987949
20
-72.296407251416156
30
8.8817841970012523e-15
10
126.91645102448942
20
-72.276383710764364
30
0
10
126.88983561965512
20
-72.232164660021169
30
8.8817841970012523e-15
10
126.87944058294001
20
-72.208133317808731
30
8.8817841970012523e-15
10
126.87230855571242
20
-72.182981782774846
30
0
0
LINE
5
174
100
AcDbEntity
8
0
100
AcDbLine
10
126.87230855571242
20
-72.182981782774831
30
1.6487765883277602e-30
11
126.27333998009402
21
-70.070682063064638
31
-1.3877787807814457e-16
0
SPLINE
5
175
100
AcDbEntity
8
0
100
AcDbSpline
70
0
71
3
72
14
73
10
74
0
42
0.000000001
43
0.0000000001
44
0.0000000001
40
0
40
0
40
0
40
0
40
0.01134996665635213
40
0.01134996665635213
40
0.022786638380209629
40
0.022786638380209629
40
0.030443251411665026
40
0.030443251411665026
40
0.038293731169708509
40
0.038293731169708509
40
0.038293731169708509
40
0.038293731169708509
10
126.27333998009402
20
-70.070682063064623
30
8.8817841970012523e-15
10
126.26301883184053
20
-70.034283895530493
30
8.8817841970012523e-15
10
126.24590531845875
20
-70.000377052451014
30
8.8817841970012523e-15
10
126.1994168594224
20
-69.940458943327542
30
8.8817841970012523e-15
10
126.17043732222044
20
-69.915167233301332
30
8.8817841970012523e-15
10
126.11546257518538
20
-69.883327339875549
30
8.8817841970012523e-15
10
126.09185346309076
20
-69.873466677826144
30
8.8817841970012523e-15
10
126.04205083335683
20
-69.85992406749142
30
8.8817841970012523e-15
10
126.01609519230472
20
-69.856479231586931
30
0
10
125.98995201868451
20
-69.856479231586931
30
0
0
LINE
5
176
100
AcDbEntity
8
0
100
AcDbLine
10
125.98995201868451
20
-69.856479231586931
30
-1.7296333022620914e-30
11
124.82201047198451
21
-69.856479231586889
31
0
0
LINE
5
177
100
AcDbEntity
8
0
100
AcDbLine
10
124.82201047198451
20
-69.856479231586889
30
0
11
124.82639501627841
21
-67.448657210704766
31
1.3877787807814457e-16
0
LINE
5
178
100
AcDbEntity
8
0
100
AcDbLine
10
124.82639501627841
20
-67.448657210704766
30
1.3877787807814457e-16
11
125.15738602062861
21
-67.448657210704823
31
8.8817841970012523e-15
0
SPLINE
5
179
100
AcDbEntity
8
0
100
AcDbSpline
70
0
71
3
72
16
73
12
74
0
42
0.000000001
43
0.0000000001
44
0.0000000001
40
0
40
0
40
0
40
0
40
0.011516974854737834
40
0.011516974854737834
40
0.022702586237877614
40
0.022702586237877614
40
0.034312930697370896
40
0.034312930697370896
40
0.044351203627319834
40
0.044351203627319834
40
0.054902345856975669
40
0.054902345856975669
40
0.054902345856975669
40
0.054902345856975669
10
125.15738602062861
20
-67.448657210704823
30
8.8817841970012523e-15
10
125.19577593681107
20
-67.448657210704823
30
8.8817841970012523e-15
10
125.23342983534721
20
-67.441450751603625
30
8.8817841970012523e-15
10
125.30333658679527
20
-67.412903212263529
30
8.8817841970012523e-15
10
125.33471573796467
20
-67.392350635113388
30
8.8817841970012523e-15
10
125.38925173066794
20
-67.339782536649508
30
8.8817841970012523e-15
10
125.41163753306066
20
-67.307760044357977
30
0
10
125.44067692308545
20
-67.241939352023195
30
8.8817841970012523e-15
10
125.44887249183765
20
-67.209373541461503
30
0
10
125.45392772430944
20
-67.141081674879629
30
8.8817841970012523e-15
10
125.45014130618476
20
-67.106177903179344
30
0
10
125.44039253868682
20
-67.072404874041112
30
8.8817841970012523e-15
0
LINE
5
180
100
AcDbEntity
8
0
100
AcDbLine
10
125.44039253868682
20
-67.072404874041126
30
8.8817841970012586e-15
11
124.2427621992596
21
-62.923408156335597
31
-8.8817841970012523e-15
0
SPLINE
5
181
100
AcDbEntity
8
0
100
AcDbSpline
70
0
71
3
72
10
73
6
74
0
42
0.000000001
43
0.0000000001
44
0.0000000001
40
0
40
0
40
0
40
0
40
0.10463055059284981
40
0.10463055059284981
40
0.20097147829048773
40
0.20097147829048773
40
0.20097147829048773
40
0.20097147829048773
10
138.65056444331012
20
-64.879476821942617
30
8.8817841970012523e-15
10
138.75264128750362
20
-64.545980516340592
30
8.8817841970012523e-15
10
138.87944248513725
20
-64.21908034225784
30
8.8817841970012523e-15
10
139.18159506763575
20
-63.621118712141929
30
8.8817841970012523e-15
10
139.35167979168344
20
-63.34891299426274
30
0
10
139.55115029920461
20
-63.097186386597016
30
8.8817841970012523e-15
0
ELLIPSE
5
182
100
AcDbEntity
8
0
100
AcDbEllipse
10
511.74932640964249
20
-611.11823095913553
30
8.8817841970012523e-15
11
-371.32763522106183
21
548.83439760147428
31
0.0
40
0.074992374352932226
41
6.2711332428392002
42
6.3068685803003932
0
SPLINE
5
183
100
AcDbEntity
8
0
100
AcDbSpline
70
0
71
3
72
12
73
8
74
0
42
0.000000001
43
0.0000000001
44
0.0000000001
40
0
40
0
40
0
40
0
40
0.15540387802147645
40
0.15540387802147645
40
0.23325521282560957
40
0.23325521282560957
40
0.29499331092204245
40
0.29499331092204245
40
0.29499331092204245
40
0.29499331092204245
10
140.94469056171442
20
-61.988090002190113
30
8.8817841970012523e-15
10
141.41439323288904
20
-61.769648264055306
30
0
10
141.91207054758391
20
-61.652284402106162
30
8.8817841970012523e-15
10
142.68796457625885
20
-61.602195930412769
30
8.8817841970012523e-15
10
143.06352200935279
20
-61.598706015463378
30
0
10
143.81816112070419
20
-61.71765347999083
30
8.8817841970012523e-15
10
144.14148736195901
20
-61.808160057097929
30
8.8817841970012523e-15
10
144.45232142021234
20
-61.940631658695878
30
8.8817841970012523e-15
0
SPLINE
5
184
100
AcDbEntity
8
0
100
AcDbSpline
70
0
71
3
72
10
73
6
74
0
42
0.000000001
43
0.0000000001
44
0.0000000001
40
0
40
0
40
0
40
0
40
0.083862389084254793
40
0.083862389084254793
40
0.16888822961396427
40
0.16888822961396427
40
0.16888822961396427
40
0.16888822961396427
10
144.45232142021243
20
-61.940631658695921
30
8.8817841970012523e-15
10
144.70939643550918
20
-62.050430443795186
30
0
10
144.94978569890122
20
-62.189088634902951
30
8.8817841970012523e-15
10
145.39859029706517
20
-62.528940726798872
30
8.8817841970012523e-15
10
145.60010856491149
20
-62.72612416459566
30
8.8817841970012523e-15
10
145.77952206278471
20
-62.945523809323717
30
8.8817841970012523e-15
0
ELLIPSE
5
185
100
AcDbEntity
8
0
100
AcDbEllipse
10
-153.67364627713354
20
-478.52887558483536
30
8.8817841970012523e-15
11
298.79010068674626
21
416.20945252148437
31
0.0
40
0.080858913441281821
41
6.220848608397735
42
6.2613683914693352
0
SPLINE
5
186
100
AcDbEntity
8
0
100
AcDbSpline
70
0
71
3
72
10
73
6
74
0
42
0.000000001
43
0.0000000001
44
0.0000000001
40
0
40
0
40
0
40
0
40
0.21478358371152401
40
0.21478358371152401
40
0.31900383656826059
40
0.31900383656826059
40
0.31900383656826059
40
0.31900383656826059
10
146.63264957518462
20
-64.632897557681247
30
8.8817841970012523e-15
10
146.83757719273615
20
-65.318887582493602
30
8.8817841970012523e-15
10
146.91940027043626
20
-66.060006223985198
30
8.8817841970012523e-15
10
146.94067717262126
20
-67.122036686489409
30
8.8817841970012523e-15
10
146.93566887851949
20
-67.659177973213559
30
8.8817841970012523e-15
10
146.91709345328721
20
-67.988967899860242
30
8.8817841970012523e-15
0
SPLINE
5
187
100
AcDbEntity
8
0
100
AcDbSpline
70
0
71
3
72
16
73
12
74
0
42
0.000000001
43
0.0000000001
44
0.0000000001
40
0
40
0
40
0
40
0
40
0.02122583600431403
40
0.02122583600431403
40
0.030995170326044055
40
0.030995170326044055
40
0.037672604091666992
40
0.037672604091666992
40
0.043658456551352157
40
0.043658456551352157
40
0.049859914747709094
40
0.049859914747709094
40
0.049859914747709094
40
0.049859914747709094
10
146.91709345328721
20
-67.988967899860242
30
8.8817841970012523e-15
10
146.91302083584054
20
-68.059603376854909
30
8.8817841970012523e-15
10
146.90778764125372
20
-68.133248320239602
30
8.8817841970012523e-15
10
146.89785143305014
20
-68.236167434693286
30
8.8817841970012523e-15
10
146.89429374577304
20
-68.264195642004921
30
8.8817841970012523e-15
10
146.85068099657479
20
-68.347552677224243
30
8.8817841970012523e-15
10
146.82658329914091
20
-68.377666897378745
30
8.8817841970012523e-15
10
146.77138414076003
20
-68.424503121542145
30
8.8817841970012523e-15
10
146.74164555180818
20
-68.441967546796945
30
8.8817841970012523e-15
10
146.67632631135785
20
-68.466310711676243
30
8.8817841970012523e-15
10
146.64130117824783
20
-68.472532698729651
30
8.8817841970012523e-15
10
146.60577669000619
20
-68.472532698729651
30
8.8817841970012523e-15
0
LINE
5
188
100
AcDbEntity
8
0
100
AcDbLine
10
146.60577669000622
20
-68.472532698729637
30
8.8817841970012523e-15
11
141.15508661500101
21
-68.472532698729651
31
8.8817841970012555e-15
0
SPLINE
5
189
100
AcDbEntity
8
0
100
AcDbSpline
70
0
71
3
72
20
73
16
74
0
42
0.000000001
43
0.0000000001
44
0.0000000001
40
0
40
0
40
0
40
0
40
0.011527608975716551
40
0.011527608975716551
40
0.022759631658708437
40
0.022759631658708437
40
0.034308541866528694
40
0.034308541866528694
40
0.045637430795376493
40
0.045637430795376493
40
0.056521872890143959
40
0.056521872890143959
40
0.062893269293935128
40
0.062893269293935128
40
0.076993038791428367
40
0.076993038791428367
40
0.076993038791428367
40
0.076993038791428367
10
141.15508661500101
20
-68.472532698729651
30
8.8817841970012523e-15
10
141.11666125174861
20
-68.472532698729651
30
8.8817841970012523e-15
10
141.07897023233517
20
-68.479736357986837
30
0
10
141.00878714351313
20
-68.508130099944992
30
8.8817841970012523e-15
10
140.97713729427031
20
-68.528602734859362
30
0
10
140.9221563839541
20
-68.580641914482385
30
-8.8817841970012523e-15
10
140.89941493071586
20
-68.612193077303417
30
8.8817841970012523e-15
10
140.86752318095711
20
-68.681187723995706
30
8.8817841970012523e-15
10
140.85834169303268
20
-68.718037334157586
30
8.8817841970012523e-15
10
140.85502125645098
20
-68.791826225502689
30
0
10
140.86033176961229
20
-68.827604597636125
30
8.8817841970012523e-15
10
140.87907786163873
20
-68.881945938274768
30
0
10
140.89456076686383
20
-68.91984539007332
30
8.8817841970012523e-15
10
140.94414203891799
20
-69.030729380604868
30
0
10
140.98406526010947
20
-69.103983529684911
30
8.8817841970012523e-15
10
141.03001351904993
20
-69.173895572903334
30
0
0
ELLIPSE
5
190
100
AcDbEntity
8
0
100
AcDbEllipse
10
239.79575108820183
20
43.034524711432283
30
0
11
-98.370759509808877
21
-112.66426045913208
31
0.0
40
0.11947143953923046
41
6.2497502496538235
42
6.2889332624189116
0
ELLIPSE
5
191
100
AcDbEntity
8
0
100
AcDbEllipse
10
159.63535518851964
20
-34.073265634534408
30
8.8817841970012523e-15
11
-17.797192933584459
21
-35.83497298593926
31
0.0
40
0.21506328337082178
41
6.2373863238123786
42
6.3172224587565955
0
SPLINE
5
192
100
AcDbEntity
8
0
100
AcDbSpline
70
0
71
3
72
10
73
6
74
0
42
0.000000001
43
0.0000000001
44
0.0000000001
40
0
40
0
40
0
40
0
40
0.097035164643612226
40
0.097035164643612226
40
0.25279186029668343
40
0.25279186029668343
40
0.25279186029668343
40
0.25279186029668343
10
142.11073695831425
20
-70.01773553851254
30
8.8817841970012523e-15
10
142.41924263283718
20
-70.114918388408725
30
0
10
142.67468127054173
20
-70.125156204839016
30
8.8817841970012523e-15
10
143.11762370754292
20
-70.115287520528454
30
8.8817841970012523e-15
10
143.38579042970787
20
-70.067617542822958
30
8.8817841970012523e-15
10
143.63705852165305
20
-69.960785526319924
30
0
0
SPLINE
5
193
100
AcDbEntity
8
0
100
AcDbSpline
70
0
71
3
72
16
73
12
74
0
42
0.000000001
43
0.0000000001
44
0.0000000001
40
0
40
0
40
0
40
0
40
0.049282371455298506
40
0.049282371455298506
40
0.089470899419445984
40
0.089470899419445984
40
0.11027542237801011
40
0.11027542237801011
40
0.13042760250174754
40
0.13042760250174754
40
0.15005942998879582
40
0.15005942998879582
40
0.15005942998879582
40
0.15005942998879582
10
143.63705852165305
20
-69.960785526319924
30
0
10
143.78829601451582
20
-69.896650079023672
30
8.8817841970012523e-15
10
143.92391534970486
20
-69.803343204940361
30
8.8817841970012523e-15
10
144.144481237891
20
-69.602710942750278
30
8.8817841970012523e-15
10
144.17132616000524
20
-69.558308708831845
30
8.8817841970012523e-15
10
144.27841391589115
20
-69.509729644701977
30
8.8817841970012523e-15
10
144.31786766779629
20
-69.500468005684283
30
8.8817841970012523e-15
10
144.39671497192336
20
-69.498096540038205
30
0
10
144.43534670908954
20
-69.504520962529142
30
0
10
144.50689627070705
20
-69.532065186989925
30
8.8817841970012523e-15
10
144.53886458816805
20
-69.552362641798567
30
8.8817841970012523e-15
10
144.5664487936811
20
-69.578362999847201
30
0
0
LINE
5
194
100
AcDbEntity
8
0
100
AcDbLine
10
144.5664487936811
20
-69.578362999847201
30
9.3435814167200674e-32
11
145.78824304229462
21
-70.730003488856923
31
-6.9388939039072284e-17
0
SPLINE
5
195
100
AcDbEntity
8
0
100
AcDbSpline
70
0
71
3
72
18
73
14
74
0
42
0.000000001
43
0.0000000001
44
0.0000000001
40
0
40
0
40
0
40
0
40
0.011382858660833512
40
0.011382858660833512
40
0.022708869490238457
40
0.022708869490238457
40
0.034535469339378816
40
0.034535469339378816
40
0.050975078006772333
40
0.050975078006772333
40
0.13451369977477715
40
0.13451369977477715
40
0.20881274183103823
40
0.20881274183103823
40
0.20881274183103823
40
0.20881274183103823
10
145.7882430422946
20
-70.730003488856937
30
8.8817841970012523e-15
10
145.81585366721566
20
-70.756028749347635
30
8.8817841970012523e-15
10
145.83805092487756
20
-70.786822031092157
30
8.8817841970012523e-15
10
145.86953170728566
20
-70.855510975648286
30
8.8817841970012523e-15
10
145.87844553626712
20
-70.892476678698785
30
0
10
145.88222436443533
20
-70.969381280612311
30
0
10
145.87642671544674
20
-71.008716517777003
30
0
10
145.84500267715094
20
-71.097394855722357
30
8.8817841970012523e-15
10
145.81741407585304
20
-71.130859675226446
30
8.8817841970012523e-15
10
145.59112841313035
20
-71.395024196221158
30
8.8817841970012523e-15
10
145.3840082763908
20
-71.60415463498822
30
8.8817841970012523e-15
10
144.95783158876958
20
-71.95062609009112
30
8.8817841970012523e-15
10
144.7415767602927
20
-72.09421270022392
30
8.8817841970012523e-15
10
144.50916937145163
20
-72.20755536218374
30
0
0
SPLINE
5
196
100
AcDbEntity
8
0
100
AcDbSpline
70
0
71
3
72
14
73
10
74
0
42
0.000000001
43
0.0000000001
44
0.0000000001
40
0
40
0
40
0
40
0
40
0.13744100541714296
40
0.13744100541714296
40
0.28576995819194129
40
0.28576995819194129
40
0.35858041006888697
40
0.35858041006888697
40
0.43037974643128968
40
0.43037974643128968
40
0.43037974643128968
40
0.43037974643128968
10
144.50916937145163
20
-72.20755536218374
30
0
10
144.09734515094624
20
-72.408279135800257
30
0
10
143.65487755340331
20
-72.51921972611315
30
0
10
142.70694896259971
20
-72.611561679767291
30
8.8817841970012523e-15
10
141.96870215198206
20
-72.604488279114591
30
8.8817841970012523e-15
10
140.89753231936871
20
-72.28976170574181
30
8.8817841970012523e-15
10
140.5642166627147
20
-72.141267315252648
30
8.8817841970012523e-15
10
139.95296241380305
20
-71.742012432962724
30
8.8817841970012523e-15
10
139.68720018192781
20
-71.501115761536951
30
8.8817841970012523e-15
10
139.45633567317054
20
-71.221646548954126
30
0
0
SPLINE
5
197
100
AcDbEntity
8
0
100
AcDbSpline
70
0
71
3
72
12
73
8
74
0
42
0.000000001
43
0.0000000001
44
0.0000000001
40
0
40
0
40
0
40
0
40
0.15368961130385747
40
0.15368961130385747
40
0.36438950348467514
40
0.36438950348467514
40
0.52828364844559861
40
0.52828364844559861
40
0.52828364844559861
40
0.52828364844559861
10
139.45633567317054
20
-71.221646548954126
30
0
10
139.12994083204967
20
-70.826784079017457
30
0
10
138.89130585106042
20
-70.375013348947263
30
8.8817841970012523e-15
10
138.484806405299
20
-69.230606864234659
30
8.8817841970012523e-15
10
138.3767158582414
20
-68.512254350423134
30
8.8817841970012523e-15
10
138.31445427101636
20
-67.266491262362109
30
8.8817841970012523e-15
10
138.28352343714155
20
-66.07636480885057
30
0
10
138.65056444331012
20
-64.879476821942617
30
8.8817841970012523e-15
0
LINE
5
198
100
AcDbEntity
8
0
100
AcDbLine
10
158.72942411846611
20
-68.624195276003206
30
8.8817841970012523e-15
11
158.72942411846614
21
-62.094710750047632
31
8.8817841970012523e-15
0
SPLINE
5
199
100
AcDbEntity
8
0
100
AcDbSpline
70
0
71
3
72
16
73
12
74
0
42
0.000000001
43
0.0000000001
44
0.0000000001
40
0
40
0
40
0
40
0
40
0.011462474262555375
40
0.011462474262555375
40
0.022853974600067467
40
0.022853974600067467
40
0.0345705170442729
40
0.0345705170442729
40
0.040574715260491528
40
0.040574715260491528
40
0.046766335005601227
40
0.046766335005601227
40
0.046766335005601227
40
0.046766335005601227
10
158.72942411846614
20
-62.094710750047625
30
8.8817841970012523e-15
10
158.72942411846614
20
-62.056502502505779
30
8.8817841970012523e-15
10
158.73665733828912
20
-62.018935540451437
30
8.8817841970012523e-15
10
158.76519505645027
20
-61.948457614952716
30
8.8817841970012523e-15
10
158.78608686339814
20
-61.916387293341479
30
8.8817841970012523e-15
10
158.83941125150005
20
-61.861075852057695
30
8.8817841970012523e-15
10
158.87173697494114
20
-61.838547541936286
30
8.8817841970012523e-15
10
158.92578653668647
20
-61.815003581764799
30
8.8817841970012523e-15
10
158.94484375734652
20
-61.808918159271656
30
8.8817841970012523e-15
10
158.98455815972679
20
-61.800565436506503
30
8.8817841970012523e-15
10
159.00506378662578
20
-61.798460750121606
30
8.8817841970012523e-15
10
159.02567411839215
20
-61.798460750121606
30
8.8817841970012523e-15
0
LINE
5
200
100
AcDbEntity
8
0
100
AcDbLine
10
159.02567411839217
20
-61.798460750121606
30
8.8817841970012523e-15
11
160.85997947682074
21
-61.798460750121549
31
8.8817841970012523e-15
0
SPLINE
5
201
100
AcDbEntity
8
0
100
AcDbSpline
70
0
71
3
72
16
73
12
74
0
42
0.000000001
43
0.0000000001
44
0.0000000001
40
0
40
0
40
0
40
0
40
0.011462474262686309
40
0.011462474262686309
40
0.02285397460022703
40
0.02285397460022703
40
0.034570517044381313
40
0.034570517044381313
40
0.040574715260601309
40
0.040574715260601309
40
0.046766335005756825
40
0.046766335005756825
40
0.046766335005756825
40
0.046766335005756825
10
160.85997947682074
20
-61.798460750121606
30
8.8817841970012523e-15
10
160.89818772436303
20
-61.798460750121606
30
8.8817841970012523e-15
10
160.93575468641771
20
-61.805693969944677
30
8.8817841970012523e-15
10
161.00623261191672
20
-61.834231688106051
30
8.8817841970012523e-15
10
161.03830293352786
20
-61.855123495053952
30
0
10
161.09361437481127
20
-61.908447883155802
30
8.8817841970012523e-15
10
161.11614268493247
20
-61.940773606596771
30
8.8817841970012523e-15
10
161.13968664510372
20
-61.994823168342052
30
0
10
161.14577206759685
20
-62.013880389002118
30
0
10
161.15412479036189
20
-62.05359479138221
30
0
10
161.15622947674672
20
-62.074100418281191
30
8.8817841970012523e-15
10
161.15622947674672
20
-62.094710750047625
30
8.8817841970012523e-15
0
LINE
5
202
100
AcDbEntity
8
0
100
AcDbLine
10
161.15622947674669
20
-62.094710750047625
30
8.8817841970012523e-15
11
161.15622947674751
21
-68.434566023887044
31
-8.8817841970012523e-15
0
ELLIPSE
5
203
100
AcDbEntity
8
0
100
AcDbEllipse
10
1339.7596942154814
20
566.46440196826256
30
-2.6645352591003757e-14
11
1178.3707819813337
21
635.88679658096407
31
0.0
40
0.036828133776045088
41
3.1217216230806168
42
3.1467680932913589
0
SPLINE
5
204
100
AcDbEntity
8
0
100
AcDbSpline
70
0
71
3
72
16
73
12
74
0
42
0.000000001
43
0.0000000001
44
0.0000000001
40
0
40
0
40
0
40
0
40
0.044891279072308901
40
0.044891279072308901
40
0.091842858233171509
40
0.091842858233171509
40
0.15081485169507897
40
0.15081485169507897
40
0.18943231100524122
40
0.18943231100524122
40
0.22698116920241293
40
0.22698116920241293
40
0.22698116920241293
40
0.22698116920241293
10
161.52589425123054
20
-69.638477034376137
30
0
10
161.61456896155968
20
-69.759010042952028
30
8.8817841970012523e-15
10
161.72311383954079
20
-69.857689534576195
30
8.8817841970012523e-15
10
161.9856006099057
20
-70.015246021767595
30
0
10
162.13362922686042
20
-70.067414521484906
30
8.8817841970012523e-15
10
162.47928615433193
20
-70.139013640366215
30
0
10
162.71486923718447
20
-70.153926558229188
30
0
10
163.06812783462249
20
-70.114883445745704
30
0
10
163.20394493335769
20
-70.082289041072784
30
0
10
163.46142168145354
20
-69.979077435735419
30
0
10
163.57884678163006
20
-69.911350448447678
30
0
10
163.68734112975986
20
-69.828106286444267
30
8.8817841970012523e-15
0
SPLINE
5
205
100
AcDbEntity
8
0
100
AcDbSpline
70
0
71
3
72
12
73
8
74
0
42
0.000000001
43
0.0000000001
44
0.0000000001
40
0
40
0
40
0
40
0
40
0.060350928225906993
40
0.060350928225906993
40
0.12055457099074604
40
0.12055457099074604
40
0.16538847924705419
40
0.16538847924705419
40
0.16538847924705419
40
0.16538847924705419
10
163.68734112975986
20
-69.828106286444267
30
8.8817841970012523e-15
10
163.84690000258345
20
-69.705590006935438
30
8.8817841970012523e-15
10
163.97903936438766
20
-69.558649672003583
30
8.8817841970012523e-15
10
164.18388621048081
20
-69.212930064818167
30
8.8817841970012523e-15
10
164.2310699642627
20
-69.057600825494617
30
8.8817841970012523e-15
10
164.24414219042077
20
-69.008694593344373
30
8.8817841970012523e-15
10
164.24683927822031
20
-68.986810408089013
30
8.8817841970012523e-15
10
164.24683927822031
20
-68.96520545463234
30
8.8817841970012523e-15
0
LINE
5
206
100
AcDbEntity
8
0
100
AcDbLine
10
164.24683927822034
20
-68.96520545463234
30
8.8817841970012523e-15
11
164.24683927822031
21
-62.094710750047625
31
0
0
SPLINE
5
207
100
AcDbEntity
8
0
100
AcDbSpline
70
0
71
3
72
16
73
12
74
0
42
0.000000001
43
0.0000000001
44
0.0000000001
40
0
40
0
40
0
40
0
40
0.011462474262675479
40
0.011462474262675479
40
0.022853974600225525
40
0.022853974600225525
40
0.034570517044374013
40
0.034570517044374013
40
0.040574715260597798
40
0.040574715260597798
40
0.046766335005760093
40
0.046766335005760093
40
0.046766335005760093
40
0.046766335005760093
10
164.24683927822031
20
-62.094710750047625
30
0
10
164.24683927822031
20
-62.056502502505388
30
8.8817841970012523e-15
10
164.25407249804337
20
-62.018935540450741
30
8.8817841970012523e-15
10
164.28261021620472
20
-61.948457614951799
30
8.8817841970012523e-15
10
164.30350202315259
20
-61.916387293340591
30
0
10
164.35682641125453
20
-61.861075852057098
30
8.8817841970012523e-15
10
164.38915213469554
20
-61.838547541935881
30
8.8817841970012523e-15
10
164.44320169644084
20
-61.815003581764579
30
0
10
164.46225891710094
20
-61.808918159271514
30
0
10
164.50197331948101
20
-61.800565436506496
30
8.8817841970012523e-15
10
164.52247894637998
20
-61.798460750121606
30
8.8817841970012523e-15
10
164.54308927814645
20
-61.798460750121606
30
8.8817841970012523e-15
0
LINE
5
208
100
AcDbEntity
8
0
100
AcDbLine
10
164.5430892781464
20
-61.798460750121606
30
8.8817841970012507e-15
11
166.39637797397222
21
-61.798460750121613
31
8.8817841970012492e-15
0
SPLINE
5
209
100
AcDbEntity
8
0
100
AcDbSpline
70
0
71
3
72
16
73
12
74
0
42
0.000000001
43
0.0000000001
44
0.0000000001
40
0
40
0
40
0
40
0
40
0.011462474262541794
40
0.011462474262541794
40
0.022853974600025952
40
0.022853974600025952
40
0.034570517044169476
40
0.034570517044169476
40
0.040574715260412272
40
0.040574715260412272
40
0.046766335005585968
40
0.046766335005585968
40
0.046766335005585968
40
0.046766335005585968
10
166.39637797397222
20
-61.798460750121606
30
8.8817841970012523e-15
10
166.43458622151402
20
-61.798460750121606
30
8.8817841970012523e-15
10
166.4721531835682
20
-61.805693969944585
30
8.8817841970012523e-15
10
166.54263110906663
20
-61.834231688105646
30
0
10
166.57470143067766
20
-61.855123495053391
30
0
10
166.63001287196113
20
-61.908447883155105
30
8.8817841970012523e-15
10
166.65254118208242
20
-61.940773606596089
30
8.8817841970012523e-15
10
166.67608514225384
20
-61.994823168341441
30
8.8817841970012523e-15
10
166.68217056474703
20
-62.013880389001592
30
0
10
166.69052328751212
20
-62.053594791381997
30
0
10
166.69262797389706
20
-62.074100418281134
30
0
10
166.69262797389706
20
-62.094710750047625
30
0
0
LINE
5
210
100
AcDbEntity
8
0
100
AcDbLine
10
166.69262797389703
20
-62.094710750047625
30
0
11
166.69262797389706
21
-72.100934614326547
31
-9.4368957093138306e-15
0
SPLINE
5
211
100
AcDbEntity
8
0
100
AcDbSpline
70
0
71
3
72
16
73
12
74
0
42
0.000000001
43
0.0000000001
44
0.0000000001
40
0
40
0
40
0
40
0
40
0.011462474262613693
40
0.011462474262613693
40
0.022853974600143757
40
0.022853974600143757
40
0.034570517044270957
40
0.034570517044270957
40
0.040574715260399546
40
0.040574715260399546
40
0.046766335005446399
40
0.046766335005446399
40
0.046766335005446399
40
0.046766335005446399
10
166.69262797389706
20
-72.100934614326547
30
8.8817841970012523e-15
10
166.69262797389706
20
-72.139142861868621
30
8.8817841970012523e-15
10
166.68539475407408
20
-72.176709823923218
30
0
10
166.65685703591271
20
-72.247187749422267
30
0
10
166.63596522896478
20
-72.279258071033581
30
0
10
166.58264084086284
20
-72.334569512317202
30
8.8817841970012523e-15
10
166.5503151174218
20
-72.357097822438504
30
0
10
166.49626555567664
20
-72.380641782609729
30
8.8817841970012523e-15
10
166.4772083350168
20
-72.386727205102758
30
8.8817841970012523e-15
10
166.4374939326371
20
-72.395079927867684
30
8.8817841970012523e-15
10
166.41698830573836
20
-72.397184614252552
30
8.8817841970012523e-15
10
166.39637797397222
20
-72.397184614252552
30
8.8817841970012523e-15
0
LINE
5
212
100
AcDbEntity
8
0
100
AcDbLine
10
166.39637797397225
20
-72.397184614252552
30
8.8817841970012523e-15
11
164.47545243790412
21
-72.397184614252552
31
8.8817841970012507e-15
0
SPLINE
5
213
100
AcDbEntity
8
0
100
AcDbSpline
70
0
71
3
72
16
73
12
74
0
42
0.000000001
43
0.0000000001
44
0.0000000001
40
0
40
0
40
0
40
0
40
0.0088454766569677542
40
0.0088454766569677542
40
0.017636183446344718
40
0.017636183446344718
40
0.026677721975988215
40
0.026677721975988215
40
0.031311101641554699
40
0.031311101641554699
40
0.036089112625028279
40
0.036089112625028279
40
0.036089112625028279
40
0.036089112625028279
10
164.47545243790415
20
-72.397184614252552
30
8.8817841970012523e-15
10
164.44596751571424
20
-72.397184614252552
30
8.8817841970012523e-15
10
164.41697746711625
20
-72.391602810914691
30
8.8817841970012523e-15
10
164.36259035744442
20
-72.369580539452599
30
8.8817841970012523e-15
10
164.33784201125894
20
-72.353458541143539
30
0
10
164.29515872564997
20
-72.312308644585883
30
8.8817841970012523e-15
10
164.27777385422232
20
-72.287363207364749
30
0
10
164.25960521581692
20
-72.245653701564891
30
8.8817841970012523e-15
10
164.25490915618985
20
-72.230947435131228
30
8.8817841970012523e-15
10
164.24846344363709
20
-72.200300228328331
30
0
10
164.24683927822031
20
-72.184476241297602
30
8.8817841970012523e-15
10
164.24683927822031
20
-72.168571454568735
30
0
0
SPLINE
5
214
100
AcDbEntity
8
0
100
AcDbSpline
70
0
71
3
72
24
73
20
74
0
42
0.000000001
43
0.0000000001
44
0.0000000001
40
0
40
0
40
0
40
0
40
0.0092729094749880794
40
0.0092729094749880794
40
0.017677284200895687
40
0.017677284200895687
40
0.026411626109022701
40
0.026411626109022701
40
0.035574919320171101
40
0.035574919320171101
40
0.044585276647541784
40
0.044585276647541784
40
0.056713069122710749
40
0.056713069122710749
40
0.11562400629596245
40
0.11562400629596245
40
0.1776361106576817
40
0.1776361106576817
40
0.25174392515764199
40
0.25174392515764199
40
0.25174392515764199
40
0.25174392515764199
10
164.24683927822031
20
-72.168570677272371
30
8.8817841970012523e-15
10
164.24683927822031
20
-72.137660979022399
30
8.8817841970012523e-15
10
164.24114131464711
20
-72.107417955870389
30
0
10
164.21836491365667
20
-72.053244577622905
30
8.8817841970012523e-15
10
164.20277050656992
20
-72.029935139215411
30
8.8817841970012523e-15
10
164.16289274823163
20
-71.989346050285747
30
8.8817841970012523e-15
10
164.13869171401601
20
-71.972748409734379
30
8.8817841970012523e-15
10
164.08433938918756
20
-71.948775406624634
30
8.8817841970012523e-15
10
164.0542606353047
20
-71.942028127913972
30
8.8817841970012523e-15
10
163.99391030210495
20
-71.940754593710693
30
8.8817841970012523e-15
10
163.96433705500783
20
-71.946021053058814
30
0
10
163.89887817010822
20
-71.971769683638939
30
8.8817841970012523e-15
10
163.87793328591721
20
-71.991542171017443
30
8.8817841970012523e-15
10
163.5647318647753
20
-72.235455003424747
30
0
10
163.27505080074317
20
-72.3793814742682
30
8.8817841970012523e-15
10
162.62524312373134
20
-72.56476812597154
30
0
10
162.27658035330342
20
-72.596488462541231
30
8.8817841970012523e-15
10
161.43485457660262
20
-72.569171862593279
30
0
10
160.96750242077457
20
-72.492306987447421
30
0
10
160.54957916765363
20
-72.302472049172138
30
0
0
SPLINE
5
215
100
AcDbEntity
8
0
100
AcDbSpline
70
0
71
3
72
10
73
6
74
0
42
0.000000001
43
0.0000000001
44
0.0000000001
40
0
40
0
40
0
40
0
40
0.067080683232421792
40
0.067080683232421792
40
0.13292913370922629
40
0.13292913370922629
40
0.13292913370922629
40
0.13292913370922629
10
160.54957916765363
20
-72.302472049172138
30
0
10
160.34601573948385
20
-72.209952271887744
30
8.8817841970012523e-15
10
160.15463158101306
20
-72.096350194200966
30
8.8817841970012523e-15
10
159.80519361361436
20
-71.823892116805467
30
8.8817841970012523e-15
10
159.65136765040501
20
-71.669629809336357
30
8.8817841970012523e-15
10
159.51631407188344
20
-71.496598758358147
30
0
0
SPLINE
5
216
100
AcDbEntity
8
0
100
AcDbSpline
70
0
71
3
72
10
73
6
74
0
42
0.000000001
43
0.0000000001
44
0.0000000001
40
0
40
0
40
0
40
0
40
0.06771829288513366
40
0.06771829288513366
40
0.13994439294741562
40
0.13994439294741562
40
0.13994439294741562
40
0.13994439294741562
10
159.51631407188344
20
-71.496598758358147
30
0
10
159.3771315166691
20
-71.318887798887516
30
0
10
159.26016590214059
20
-71.126863616393535
30
0
10
159.05927002658868
20
-70.705862903079876
30
0
10
158.97943902767165
20
-70.478169078535771
30
8.8817841970012523e-15
10
158.91905337053504
20
-70.24512734346925
30
0
0
SPLINE
5
217
100
AcDbEntity
8
0
100
AcDbSpline
70
0
71
3
72
10
73
6
74
0
42
0.000000001
43
0.0000000001
44
0.0000000001
40
0
40
0
40
0
40
0
40
0.078341429019301453
40
0.078341429019301453
40
0.16350180318352409
40
0.16350180318352409
40
0.16350180318352409
40
0.16350180318352409
10
158.91905337053504
20
-70.24512734346925
30
0
10
158.85330046441587
20
-69.992402867208682
30
0
10
158.80710565845095
20
-69.734434334192088
30
0
10
158.74381559167202
20
-69.193145782451552
30
8.8817841970012523e-15
10
158.72942411846614
20
-68.908026651263768
30
8.8817841970012523e-15
10
158.72942411846614
20
-68.624195276003221
30
8.8817841970012523e-15
0
LINE
5
218
100
AcDbEntity
8
0
100
AcDbLine
10
171.88940602750975
20
-59.256997374647455
30
8.8817841970012523e-15
11
172.78466459126176
21
-58.098137723194313
31
8.8817841970012523e-15
0
SPLINE
5
219
100
AcDbEntity
8
0
100
AcDbSpline
70
0
71
3
72
18
73
14
74
0
42
0.000000001
43
0.0000000001
44
0.0000000001
40
0
40
0
40
0
40
0
40
0.0043559271839233287
40
0.0043559271839233287
40
0.0084399416507245743
40
0.0084399416507245743
40
0.012707033031602567
40
0.012707033031602567
40
0.017104042437076236
40
0.017104042437076236
40
0.02025092624530659
40
0.02025092624530659
40
0.023594365662793885
40
0.023594365662793885
40
0.023594365662793885
40
0.023594365662793885
10
172.78466459126173
20
-58.098137723194327
30
8.8817841970012523e-15
10
172.79354142461978
20
-58.086647502091282
30
8.8817841970012523e-15
10
172.80436490098958
20
-58.07704989610226
30
0
10
172.82871716460591
20
-58.063100299752264
30
8.8817841970012523e-15
10
172.84164482864639
20
-58.058695863561155
30
8.8817841970012523e-15
10
172.86909855505507
20
-58.05475081004721
30
8.8817841970012523e-15
10
172.88343919980267
20
-58.055471203052988
30
8.8817841970012523e-15
10
172.91138739579506
20
-58.062289343956948
30
8.8817841970012523e-15
10
172.92479554930702
20
-58.068510189583229
30
8.8817841970012523e-15
10
172.94493392865525
20
-58.083437831408737
30
0
10
172.95235314430531
20
-58.090839858153373
30
8.8817841970012523e-15
10
172.96523395672278
20
-58.108157231990702
30
8.8817841970012523e-15
10
172.97039546233731
20
-58.117993446438149
30
0
10
172.97410773165871
20
-58.128486826668926
30
8.8817841970012523e-15
0
LINE
5
220
100
AcDbEntity
8
0
100
AcDbLine
10
172.97410773165871
20
-58.128486826668926
30
8.8817841970012507e-15
11
173.49178788172969
21
-59.591660810510341
31
8.8817841970012523e-15
0
LINE
5
221
100
AcDbEntity
8
0
100
AcDbLine
10
173.49178788172969
20
-59.591660810510341
30
8.8817841970012523e-15
11
173.63143327599772
21
-59.986344996973457
31
8.8817841970012523e-15
0
LINE
5
222
100
AcDbEntity
8
0
100
AcDbLine
10
173.63143327599772
20
-59.986344996973457
30
8.8817841970012523e-15
11
168.50966569443671
21
-61.798460750121571
31
8.8817841970012523e-15
0
LINE
5
223
100
AcDbEntity
8
0
100
AcDbLine
10
168.50966569443671
20
-61.798460750121571
30
8.8817841970012523e-15
11
168.3700250047267
21
-61.403771859099962
31
8.8644369622414843e-15
0
LINE
5
224
100
AcDbEntity
8
0
100
AcDbLine
10
168.3700250047267
20
-61.403771859099962
30
8.8644369622414843e-15
11
167.85234485465475
21
-59.940597875258632
31
8.8817841970012523e-15
0
SPLINE
5
225
100
AcDbEntity
8
0
100
AcDbSpline
70
0
71
3
72
18
73
14
74
0
42
0.000000001
43
0.0000000001
44
0.0000000001
40
0
40
0
40
0
40
0
40
0.0043555497262117871
40
0.0043555497262117871
40
0.0084393225630749261
40
0.0084393225630749261
40
0.012706245728441569
40
0.012706245728441569
40
0.017103161789099628
40
0.017103161789099628
40
0.020250331708206594
40
0.020250331708206594
40
0.023594137568126831
40
0.023594137568126831
40
0.023594137568126831
40
0.023594137568126831
10
167.85234485465475
20
-59.940597875258618
30
8.8817841970012523e-15
10
167.84750198762902
20
-59.926910894045768
30
8.8817841970012523e-15
10
167.84530457481949
20
-59.912614151145092
30
8.8817841970012523e-15
10
167.84678365113569
20
-59.884590566330388
30
8.8817841970012523e-15
10
167.85009038293978
20
-59.871340385151811
30
0
10
167.8616572389264
20
-59.846133163487842
30
8.8817841970012523e-15
10
167.87003626871359
20
-59.834473449073457
30
8.8817841970012523e-15
10
167.8909156082824
20
-59.814684713535016
30
8.8817841970012523e-15
10
167.90341132860868
20
-59.806790054327948
30
8.8817841970012523e-15
10
167.9268728078317
20
-59.797959296293364
30
8.8817841970012523e-15
10
167.93711575364131
20
-59.795737299910421
30
8.8817841970012523e-15
10
167.95865270828162
20
-59.794301286897294
30
8.8817841970012523e-15
10
167.96971748143162
20
-59.795296638345761
30
8.8817841970012523e-15
10
167.98054876393775
20
-59.797866290960719
30
8.8817841970012523e-15
0
LINE
5
226
100
AcDbEntity
8
0
100
AcDbLine
10
167.98054876393769
20
-59.797866290960719
30
8.8817841970012523e-15
11
169.40540412310071
21
-60.135855849308946
31
0
0
LINE
5
227
100
AcDbEntity
8
0
100
AcDbLine
10
169.40540412310071
20
-60.135855849308946
30
0
11
170.2019422423767
21
-58.657382642944128
31
8.9511731360403246e-15
0
SPLINE
5
228
100
AcDbEntity
8
0
100
AcDbSpline
70
0
71
3
72
14
73
10
74
0
42
0.000000001
43
0.0000000001
44
0.0000000001
40
0
40
0
40
0
40
0
40
0.004218405545691817
40
0.004218405545691817
40
0.0084350027291985492
40
0.0084350027291985492
40
0.01224239664450383
40
0.01224239664450383
40
0.016177950245926002
40
0.016177950245926002
40
0.016177950245926002
40
0.016177950245926002
10
170.20194224237673
20
-58.657382642944114
30
8.8817841970012523e-15
10
170.2086118848348
20
-58.64500373004924
30
8.8817841970012523e-15
10
170.21752508178258
20
-58.634087877395338
30
8.8817841970012523e-15
10
170.23912733877461
20
-58.616168883180457
30
8.8817841970012523e-15
10
170.25156898888685
20
-58.609378513606067
30
8.8817841970012523e-15
10
170.27699124550514
20
-58.601267286294828
30
8.8817841970012523e-15
10
170.28964229981943
20
-58.599530659514521
30
8.8817841970012523e-15
10
170.31538690465209
20
-58.600510579301719
30
8.8817841970012523e-15
10
170.32821121549313
20
-58.603362631120319
30
8.8817841970012523e-15
10
170.34030799687673
20
-58.608427012692218
30
8.8817841970012523e-15
0
LINE
5
229
100
AcDbEntity
8
0
100
AcDbLine
10
170.3403079968767
20
-58.608427012692218
30
8.8817841970012523e-15
11
171.88940602750975
21
-59.256997374647455
31
8.8817841970012523e-15
0
LWPOLYLINE
5
230
100
AcDbEntity
8
0
100
AcDbPolyline
90
8
70
1
43
0.0
10
36.208868179304432
20
-59.308615230076938
10
36.20886817791343
20
-72.308615230076981
42
0.41421356237310025
10
36.70886817785992
20
-72.808615230130485
10
49.708868177859912
20
-72.808615231521486
42
0.41421356237311585
10
50.208868177913423
20
-72.30861523157499
10
50.208868179304424
20
-59.308615231574962
42
0.41421356237310542
10
49.708868179357921
20
-58.808615231521443
10
36.708868179357928
20
-58.808615230130449
42
0.41421356237311585
0
LWPOLYLINE
5
231
100
AcDbEntity
8
0
100
AcDbPolyline
90
8
70
1
43
0.0
10
207.65886817930433
20
-59.308615248422143
42
-0.41421356237342283
10
208.15886817935834
20
-58.808615248475647
10
221.15886817935834
20
-58.808615249866669
42
-0.41421356237282969
10
221.65886817930436
20
-59.308615249920152
10
221.65886817791335
20
-72.308615249920194
42
-0.41421356237276202
10
221.15886817786034
20
-72.808615249866676
10
208.15886817786037
20
-72.808615248475689
42
-0.41421356237342283
10
207.65886817791329
20
-72.3086152484222
0
SPLINE
5
232
100
AcDbEntity
8
0
100
AcDbSpline
70
0
71
3
72
10
73
6
74
0
42
0.000000001
43
0.0000000001
44
0.0000000001
40
3
40
3
40
3
40
3
40
4
40
4
40
5
40
5
40
5
40
5
10
73.911449932818471
20
-71.058262244231173
30
8.8817841970012523e-15
10
76.810944869430472
20
-71.058262244541794
30
8.8817841970012523e-15
10
79.161449933070486
20
-68.707757181404673
30
8.8817841970012523e-15
10
79.161449933691472
20
-62.908767308181552
30
8.8817841970012523e-15
10
76.810944870554479
20
-60.558262244541652
30
8.8817841970012523e-15
10
73.911449933942478
20
-60.558262244231443
30
0
0
LINE
5
233
100
AcDbEntity
8
0
100
AcDbLine
10
73.911449932818471
20
-71.058262244231173
30
8.8817841970012523e-15
11
63.91144993281948
21
-71.058262243161465
31
0
0
SPLINE
5
234
100
AcDbEntity
8
0
100
AcDbSpline
70
0
71
3
72
10
73
6
74
0
42
0.000000001
43
0.0000000001
44
0.0000000001
40
0
40
0
40
0
40
0
40
1
40
1
40
2
40
2
40
2
40
2
10
63.911449933942478
20
-60.558262243161352
30
8.8817841970012523e-15
10
61.011954997331479
20
-60.558262242850745
30
0
10
58.661449933691529
20
-62.908767305987553
30
8.8817841970012523e-15
10
58.661449933070422
20
-68.707757179211285
30
8.8817841970012523e-15
10
61.011954996207493
20
-71.058262242850887
30
8.8817841970012523e-15
10
63.91144993281948
20
-71.058262243161479
30
8.8817841970012523e-15
0
LINE
5
235
100
AcDbEntity
8
0
100
AcDbLine
10
63.911449933942478
20
-60.558262243161352
30
8.8817841970012523e-15
11
73.911449933942478
21
-60.558262244231443
31
-2.936932080974382e-31
0
LWPOLYLINE
5
236
100
AcDbEntity
8
0
100
AcDbPolyline
90
8
70
1
43
0.0
10
240.20886817935832
20
-58.808615251904953
42
-0.41421356237278806
10
240.70886817930432
20
-59.308615251958436
10
240.70886817791333
20
-72.308615251958486
42
-0.41421356237278806
10
240.20886817786032
20
-72.808615251904968
10
227.20886817786032
20
-72.808615250513952
42
-0.41421356237341239
10
226.7088681779133
20
-72.308615250460477
10
226.70886817930435
20
-59.308615250460441
42
-0.41421356237342283
10
227.20886817935835
20
-58.808615250513945
0
LWPOLYLINE
5
237
100
AcDbEntity
8
0
100
AcDbPolyline
90
8
70
1
43
0.0
10
246.25886817786036
20
-72.808615252552372
10
259.25886817786034
20
-72.808615253943373
42
0.41421356237283491
10
259.75886817791331
20
-72.308615253996891
10
259.75886817930433
20
-59.308615253996841
42
0.41421356237278806
10
259.25886817935833
20
-58.808615253943344
10
246.25886817935833
20
-58.808615252552343
42
0.41421356237341239
10
245.75886817930436
20
-59.308615252498839
10
245.75886817791331
20
-72.308615252498868
42
0.41421356237337598
0
LWPOLYLINE
5
238
100
AcDbEntity
8
0
100
AcDbPolyline
90
8
70
1
43
0.0
10
7.3838681793579131
20
-61.958615230826119
10
7.3838681793579131
20
-69.658615230826157
42
0.41421356237309503
10
10.883868179357918
20
-73.158615230826186
10
18.383868179357918
20
-73.158615230826157
42
0.41421356237309354
10
21.883868179357915
20
-69.658615230826172
10
21.883868179357918
20
-61.958615230826133
42
0.41421356237309503
10
18.383868179357918
20
-58.458615230826119
10
10.883868179357918
20
-58.458615230826126
42
0.41421356237309354
0
CIRCLE
5
239
100
AcDbEntity
8
0
100
AcDbCircle
10
264.25819794779392
20
-78.833668868731877
30
8.8817841970012523e-15
40
1.0999999999999972
210
0
220
-0
230
1
0
ARC
5
240
100
AcDbEntity
8
0
100
AcDbCircle
10
-1.9560954516829971
20
-73.934689354675115
30
8.8817841970012476e-15
40
4.9999999999998863
210
5.9388530432948774e-27
220
5.5511151231258727e-17
230
1
100
AcDbArc
50
315.58469139667517
51
360
0
ARC
5
241
100
AcDbEntity
8
0
100
AcDbCircle
10
3.0439045477926285
20
-78.833668840776511
30
8.8817841970012523e-15
40
2.0000000000000111
210
1.082242005376015e-16
220
-2.8322015945898353e-17
230
1
100
AcDbArc
50
135.58469139667491
51
314.41530867949405
0
SPLINE
5
242
100
AcDbEntity
8
0
100
AcDbSpline
70
0
71
3
72
10
73
6
74
0
42
0.000000001
43
0.0000000001
44
0.0000000001
40
0
40
0
40
0
40
0
40
0.19440286538914542
40
0.19440286538914542
40
0.38880573077829139
40
0.38880573077829139
40
0.38880573077829139
40
0.38880573077829139
10
7.9428840410762191
20
-78.833668833739466
30
8.8817841970012523e-15
10
7.2948744897790707
20
-78.833668833670146
30
8.8817841970012523e-15
10
6.6530019396906948
20
-78.959643747173146
30
8.8817841970012523e-15
10
5.453121405145307
20
-79.44949292509267
30
8.8817841970012523e-15
10
4.9064769388530127
20
-79.808728052635942
30
0
10
4.443612974292197
20
-80.262240267337361
30
8.8817841970012523e-15
0
LINE
5
243
100
AcDbEntity
8
0
100
AcDbLine
10
7.9428840410762191
20
-78.833668833739466
30
8.8817841970012523e-15
11
259.35921845451037
21
-78.83366886064627
31
8.8817841990692039e-15
0
SPLINE
5
244
100
AcDbEntity
8
0
100
AcDbSpline
70
0
71
3
72
10
73
6
74
0
42
0.000000001
43
0.0000000001
44
0.0000000001
40
0
40
0
40
0
40
0
40
0.19440286538914744
40
0.19440286538914744
40
0.38880573077829228
40
0.38880573077829228
40
0.38880573077829228
40
0.38880573077829228
10
262.8584895209886
20
-80.26224029499312
30
8.8817841970012523e-15
10
262.39562555652481
20
-79.808728080192651
30
8.8817841970012523e-15
10
261.84898109030945
20
-79.449492952532353
30
0
10
260.64910055586887
20
-78.959643774356024
30
0
10
260.00722800580752
20
-78.833668860715619
30
0
10
259.35921845451037
20
-78.83366886064627
30
8.8817841970012523e-15
0
ARC
5
245
100
AcDbEntity
8
0
100
AcDbCircle
10
264.25819794779392
20
-78.833668868731877
30
8.8817841970012523e-15
40
1.9999999999999929
210
9.244463718109333e-32
220
-9.0576876519210439e-32
230
1
100
AcDbArc
50
-134.41530869175756
51
44.415308591063734
0
ARC
5
246
100
AcDbEntity
8
0
100
AcDbCircle
10
269.25819794831801
20
-73.934689383700402
30
8.8817841970012523e-15
40
5
210
5.9388407173432333e-27
220
5.5511151231257815e-17
230
1
100
AcDbArc
50
180
51
224.41530859106351
0
LINE
5
247
100
AcDbEntity
8
0
100
AcDbLine
10
264.25819794831801
20
-73.934689383165477
30
8.8817841970012523e-15
11
264.25819794989627
21
-59.182764776767094
31
8.8817841970012523e-15
0
ARC
5
248
100
AcDbEntity
8
0
100
AcDbCircle
10
269.25819794989638
20
-59.182764777301983
30
8.8817841970012507e-15
40
5.0000000000000693
210
5.9391735180376249e-27
220
5.5511151231257926e-17
230
1
100
AcDbArc
50
135.58469139667881
51
180
0
ARC
5
249
100
AcDbEntity
8
0
100
AcDbCircle
10
264.25819795042037
20
-54.283785291200758
30
0
40
1.9999999999999543
210
-3.1026912967920791e-15
220
3.0400042032565694e-15
230
1
100
AcDbArc
50
-44.415308603322778
51
134.41530850262819
0
SPLINE
5
250
100
AcDbEntity
8
0
100
AcDbSpline
70
0
71
3
72
10
73
6
74
0
42
0.000000001
43
0.0000000001
44
0.0000000001
40
0
40
0
40
0
40
0
40
0.19440286461021994
40
0.19440286461021994
40
0.38880572922043699
40
0.38880572922043699
40
0.38880572922043699
40
0.38880572922043699
10
259.35921847257123
20
-54.283785283115257
30
8.8817841970012523e-15
10
260.00722802127194
20
-54.283785283184599
30
8.8817841970012523e-15
10
260.64910056883781
20
-54.157810370691088
30
8.8817841970012523e-15
10
261.84898109933158
20
-53.667961196586234
30
8.8817841970012523e-15
10
262.39562556422447
20
-53.308726071774679
30
0
10
262.85848952833067
20
-52.855213860319182
30
0
0
LINE
5
251
100
AcDbEntity
8
0
100
AcDbLine
10
259.35921847257123
20
-54.283785283115257
30
8.8817841970012523e-15
11
7.942884028268935
21
-54.283785256217826
31
8.8817841970012523e-15
0
SPLINE
5
252
100
AcDbEntity
8
0
100
AcDbSpline
70
0
71
3
72
10
73
6
74
0
42
0.000000001
43
0.0000000001
44
0.0000000001
40
0
40
0
40
0
40
0
40
0.19440286461022005
40
0.19440286461022005
40
0.3888057292204401
40
0.3888057292204401
40
0.3888057292204401
40
0.3888057292204401
10
4.4436129728152629
20
-52.855213832666792
30
0
10
4.9064769368243688
20
-53.308726044221345
30
0
10
5.4531214016403773
20
-53.667961169149876
30
8.8817841970012523e-15
10
6.6530019320293476
20
-54.157810343511549
30
0
10
7.2948744795682163
20
-54.28378525614243
30
0
10
7.9428840282689528
20
-54.283785256211772
30
0
0
ARC
5
253
100
AcDbEntity
8
0
100
AcDbCircle
10
3.0439045504197626
20
-54.283785263248802
30
8.8817841970012523e-15
40
2.0000000000000084
210
3.1079770366104515e-15
220
3.1720657891076676e-15
230
1
100
AcDbArc
50
45.58469148510811
51
224.41530859106217
0
ARC
5
254
100
AcDbEntity
8
0
100
AcDbCircle
10
-1.9560954501044492
20
-59.18276474828015
30
0
40
4.9999999999999991
210
-5.2179238223017398e-28
220
5.5511151231257815e-17
230
1
100
AcDbArc
50
0
51
44.415308591062136
0
LINE
5
255
100
AcDbEntity
8
0
100
AcDbLine
10
3.0439045498955499
20
-59.182764748815224
30
3.2311547144985008e-26
11
3.0439045483168901
21
-73.934689355210111
31
8.8817841970012507e-15
0
ENDSEC
0
SECTION
2
OBJECTS
0
DICTIONARY
5
C
100
AcDbDictionary
3
ACAD_GROUP
350
D
3
ACAD_MLINESTYLE
350
17
0
DICTIONARY
5
D
100
AcDbDictionary
0
DICTIONARY
5
1A
330
C
100
AcDbDictionary
0
DICTIONARY
5
17
100
AcDbDictionary
0
ENDSEC
0
EOF
