0
SECTION
2
HEADER
9
$INSUNITS
70
4
9
$ACADVER
1
AC1014
9
$HANDSEED
5
FFFF
0
ENDSEC
0
SECTION
2
TABLES
0
TABLE
2
VPORT
5
8
100
AcDbSymbolTable
0
ENDTAB
0
TABLE
2
LTYPE
5
5
100
AcDbSymbolTable
0
LTYPE
5
14
100
AcDbSymbolTableRecord
100
AcDbLinetypeTableRecord
2
BYBLOCK
70
0
0
LTYPE
5
15
100
AcDbSymbolTableRecord
100
AcDbLinetypeTableRecord
2
BYLAYER
70
0
0
ENDTAB
0
TABLE
2
LAYER
5
2
100
AcDbSymbolTable
70
2
0
LAYER
5
50
100
AcDbSymbolTableRecord
100
AcDbLayerTableRecord
2
0
70
0
6
CONTINUOUS
0
ENDTAB
0
TABLE
2
STYLE
5
3
100
AcDbSymbolTable
70
1
0
STYLE
5
11
100
AcDbSymbolTableRecord
100
AcDbTextStyleTableRecord
2
STANDARD
70
0
0
ENDTAB
0
TABLE
2
VIEW
5
6
100
AcDbSymbolTable
70
0
0
ENDTAB
0
TABLE
2
UCS
5
7
100
AcDbSymbolTable
70
0
0
ENDTAB
0
TABLE
2
APPID
5
9
100
AcDbSymbolTable
70
2
0
APPID
5
12
100
AcDbSymbolTableRecord
100
AcDbRegAppTableRecord
2
ACAD
70
0
0
ENDTAB
0
TABLE
2
DIMSTYLE
5
A
100
AcDbSymbolTable
70
1
0
ENDTAB
0
TABLE
2
BLOCK_RECORD
5
1
100
AcDbSymbolTable
70
1
0
BLOCK_RECORD
5
1F
100
AcDbSymbolTableRecord
100
AcDbBlockTableRecord
2
*MODEL_SPACE
0
BLOCK_RECORD
5
1B
100
AcDbSymbolTableRecord
100
AcDbBlockTableRecord
2
*PAPER_SPACE
0
ENDTAB
0
ENDSEC
0
SECTION
2
BLOCKS
0
BLOCK
5
20
100
AcDbEntity
100
AcDbBlockBegin
2
*MODEL_SPACE
0
ENDBLK
5
21
100
AcDbEntity
100
AcDbBlockEnd
0
BLOCK
5
1C
100
AcDbEntity
100
AcDbBlockBegin
2
*PAPER_SPACE
0
ENDBLK
5
1D
100
AcDbEntity
100
AcDbBlockEnd
0
ENDSEC
0
SECTION
2
ENTITIES
0
LWPOLYLINE
5
100
100
AcDbEntity
8
0
100
AcDbPolyline
90
8
70
1
43
0.0
10
-11.931101296395719
20
147.72740616060096
10
-11.931101296395727
20
149.22740616060096
42
0.41421356237310675
10
-12.431101296395726
20
149.72740616060096
10
-13.931101296395729
20
149.72740616060096
42
0.4142135623730937
10
-14.431101296395735
20
149.22740616060096
10
-14.431101296395727
20
147.72740616060096
42
0.41421356237307294
10
-13.931101296395729
20
147.22740616060096
10
-12.431101296395726
20
147.22740616060096
42
0.41421356237307555
0
LWPOLYLINE
5
101
100
AcDbEntity
8
0
100
AcDbPolyline
90
20
70
1
43
0.0
10
-88.293601296395693
20
183.58990616059998
42
-0.41421356237310542
10
-88.793601296395721
20
183.08990616059998
10
-92.843601296395732
20
183.08990616060001
42
-0.41421356237310542
10
-93.343601296395747
20
183.58990616059998
42
0.4142135623730846
10
-93.843601296395718
20
184.08990616059995
10
-106.84360129639572
20
184.08990616059998
42
0.41421356237309503
10
-107.34360129639572
20
183.58990616059998
10
-107.3436012963957
20
170.58990616059992
42
0.4142135623730846
10
-106.84360129639573
20
170.08990616059992
10
-94.943601296395741
20
170.0899061605999
42
-0.41421356237310542
10
-94.443601296395741
20
169.58990616059992
42
0.41421356237309503
10
-93.943601296395727
20
169.08990616059992
10
-87.693601296395727
20
169.08990616059992
42
0.41421356237309503
10
-87.193601296395713
20
169.58990616059992
42
-0.4142135623730846
10
-86.693601296395727
20
170.08990616059992
10
-55.743601296395724
20
170.08990616059992
42
0.41421356237309503
10
-55.243601296395738
20
170.58990616059992
10
-55.243601296395724
20
183.58990616059998
42
0.41421356237310542
10
-55.743601296395738
20
184.08990616059995
10
-87.793601296395735
20
184.08990616059998
42
0.41421356237309503
0
LINE
5
102
100
AcDbEntity
8
0
100
AcDbLine
10
-264.26900129639574
20
183.3239692384708
30
0
11
-264.26900129639574
21
113.70657878272925
31
0
0
SPLINE
5
103
100
AcDbEntity
8
0
100
AcDbSpline
70
0
71
3
72
10
73
6
74
0
42
0.000000001
43
0.0000000001
44
0.0000000001
40
-0.43505537032554842
40
-0.43505537032554842
40
-0.43505537032554842
40
-0.43505537032554842
40
-0.21752768516278972
40
-0.21752768516278972
40
0
40
0
40
0
40
0
10
-264.26900129639574
20
113.70657878272924
30
0
10
-264.26900129639574
20
112.98148649885317
30
0
10
-264.40030393260213
20
112.26312977875014
30
0
10
-264.9127264998674
20
110.90738709958865
30
0
10
-265.28939783121876
20
110.28177102903902
30
0
10
-265.76900129639574
20
109.73795181613212
30
0
0
SPLINE
5
104
100
AcDbEntity
8
0
100
AcDbSpline
70
0
71
3
72
23
73
19
74
0
42
0.000000001
43
0.0000000001
44
0.0000000001
40
0
40
0
40
0
40
0
40
0.50779810442570905
40
0.50779810442570905
40
0.50779810442570905
40
0.81171817845659744
40
0.81171817845659744
40
0.81171817845659744
40
1.0007836604409572
40
1.0007836604409572
40
1.0007836604409572
40
1.0155962088514181
40
1.0155962088514181
40
1.0155962088514181
40
1.2530118997370736
40
1.2530118997370736
40
1.2530118997370736
40
2
40
2
40
2
40
2
10
-262.94612564086373
20
106.91507616059982
30
0
10
-263.36679936446393
20
106.54407680868442
30
0
10
-263.89964221248226
20
106.38342139292803
30
0
10
-264.41228963273551
20
106.42021513952938
30
0
10
-264.71911205006472
20
106.44223640761504
30
0
10
-265.01864735970673
20
106.5346310985376
30
0
10
-265.28502116682569
20
106.69174634857028
30
0
10
-265.45072951100644
20
106.78948609336744
30
0
10
-265.60361535960061
20
106.91218377319021
30
0
10
-265.73837157243457
20
107.05824439395668
30
0
10
-265.74892919990452
20
107.06968767801497
30
0
10
-265.75935310105922
20
107.08126047987
30
0
10
-265.76900129639574
20
107.09220050506761
30
0
10
-265.91010954073448
20
107.25220221469384
30
0
10
-266.04335457260572
20
107.4632817799548
30
0
10
-266.12810311116709
20
107.67680909737699
30
0
10
-266.39474997677166
20
108.34863649261118
30
0
10
-266.26699336323531
20
109.17328188881515
30
0
10
-265.76900129639574
20
109.73795181613212
30
0
0
SPLINE
5
105
100
AcDbEntity
8
0
100
AcDbSpline
70
0
71
3
72
10
73
6
74
0
42
0.000000001
43
0.0000000001
44
0.0000000001
40
-0.43505537032554942
40
-0.43505537032554942
40
-0.43505537032554942
40
-0.43505537032554942
40
-0.21752768516274534
40
-0.21752768516274534
40
0
40
0
40
0
40
0
10
-262.94612564086373
20
106.91507616059982
30
0
10
-262.40230642795655
20
107.39467962577679
30
0
10
-261.77669035740672
20
107.77135095712821
30
0
10
-260.42094767824551
20
108.28377352439364
30
0
10
-259.70259095814254
20
108.41507616060025
30
0
10
-258.97749867426677
20
108.41507616060025
30
0
0
LINE
5
106
100
AcDbEntity
8
0
100
AcDbLine
10
-258.97749867426671
20
108.41507616060025
30
0
11
-203.64322486899772
21
108.41507616060026
31
0
0
SPLINE
5
107
100
AcDbEntity
8
0
100
AcDbSpline
70
0
71
3
72
8
73
4
74
0
42
0.000000001
43
0.0000000001
44
0.0000000001
40
0
40
0
40
0
40
0
40
1
40
1
40
1
40
1
10
-203.64322486899772
20
108.41507616060025
30
0
10
-201.16442961695873
20
108.41507616060025
30
0
10
-198.77397837672572
20
107.49444092356784
30
0
10
-196.93553856479673
20
105.83174282726662
30
0
0
SPLINE
5
108
100
AcDbEntity
8
0
100
AcDbSpline
70
0
71
3
72
8
73
4
74
0
42
0.000000001
43
0.0000000001
44
0.0000000001
40
0
40
0
40
0
40
0
40
1
40
1
40
1
40
1
10
-194.25246404311673
20
105.83174282726662
30
0
10
-195.01416621992573
20
105.14285393837753
30
0
10
-196.17383638798873
20
105.14285393837753
30
0
10
-196.93553856479673
20
105.83174282726662
30
0
0
SPLINE
5
109
100
AcDbEntity
8
0
100
AcDbSpline
70
0
71
3
72
8
73
4
74
0
42
0.000000001
43
0.0000000001
44
0.0000000001
40
0
40
0
40
0
40
0
40
1
40
1
40
1
40
1
10
-194.25246404311673
20
105.83174282726662
30
0
10
-192.41402423118873
20
107.49444092356784
30
0
10
-190.02357299095473
20
108.41507616060025
30
0
10
-187.54477773891671
20
108.41507616060025
30
0
0
LINE
5
110
100
AcDbEntity
8
0
100
AcDbLine
10
-187.54477773891671
20
108.41507616060025
30
0
11
-108.39337486899691
21
108.41507616060026
31
0
0
SPLINE
5
111
100
AcDbEntity
8
0
100
AcDbSpline
70
0
71
3
72
8
73
4
74
0
42
0.000000001
43
0.0000000001
44
0.0000000001
40
0
40
0
40
0
40
0
40
1
40
1
40
1
40
1
10
-108.39337486899693
20
108.41507616060026
30
0
10
-105.91457961695934
20
108.41507616060026
30
0
10
-103.52412837672492
20
107.49444092356785
30
0
10
-101.68568856479693
20
105.83174282726665
30
0
0
SPLINE
5
112
100
AcDbEntity
8
0
100
AcDbSpline
70
0
71
3
72
8
73
4
74
0
42
0.000000001
43
0.0000000001
44
0.0000000001
40
0
40
0
40
0
40
0
40
1
40
1
40
1
40
1
10
-99.002614043116836
20
105.83174282726665
30
0
10
-99.764316219925036
20
105.14285393837756
30
0
10
-100.92398638798804
20
105.14285393837756
30
0
10
-101.68568856479693
20
105.83174282726665
30
0
0
SPLINE
5
113
100
AcDbEntity
8
0
100
AcDbSpline
70
0
71
3
72
8
73
4
74
0
42
0.000000001
43
0.0000000001
44
0.0000000001
40
0
40
0
40
0
40
0
40
1
40
1
40
1
40
1
10
-99.002614043116836
20
105.83174282726665
30
0
10
-97.164174231188127
20
107.49444092356785
30
0
10
-94.773722990954425
20
108.41507616060026
30
0
10
-92.294927738916144
20
108.41507616060026
30
0
0
LINE
5
114
100
AcDbEntity
8
0
100
AcDbLine
10
-92.294927738916144
20
108.41507616060026
30
0
11
-8.3852105185247439
21
108.41507616060028
31
0
0
SPLINE
5
115
100
AcDbEntity
8
0
100
AcDbSpline
70
0
71
3
72
10
73
6
74
0
42
0.000000001
43
0.0000000001
44
0.0000000001
40
-0.43505537032563374
40
-0.43505537032563374
40
-0.43505537032563374
40
-0.43505537032563374
40
-0.2175276851628222
40
-0.2175276851628222
40
0
40
0
40
0
40
0
10
-8.3852105185247261
20
108.41507616060026
30
0
10
-7.6601182346486629
20
108.41507616060026
30
0
10
-6.9417615145457567
20
108.28377352439377
30
0
10
-5.5860188353844054
20
107.77135095712821
30
0
10
-4.9604027648348614
20
107.39467962577676
30
0
10
-4.4165835519277286
20
106.91507616059987
30
0
0
SPLINE
5
116
100
AcDbEntity
8
0
100
AcDbSpline
70
0
71
3
72
23
73
19
74
0
42
0.000000001
43
0.0000000001
44
0.0000000001
40
0
40
0
40
0
40
0
40
0.50779810442587259
40
0.50779810442587259
40
0.50779810442587259
40
0.81171817845848782
40
0.81171817845848782
40
0.81171817845848782
40
1.0007836604435583
40
1.0007836604435583
40
1.0007836604435583
40
1.0155962088517452
40
1.0155962088517452
40
1.0155962088517452
40
1.2530118997389412
40
1.2530118997389412
40
1.2530118997389412
40
2
40
2
40
2
40
2
10
-1.5937078963957241
20
109.73795181613218
30
0
10
-1.2227085444796693
20
109.31727809253113
30
0
10
-1.0620531287236989
20
108.7844352445137
30
0
10
-1.0988468753251635
20
108.27178782425987
30
0
10
-1.1208681434110268
20
107.96496540692863
30
0
10
-1.213262834334734
20
107.66543009728501
30
0
10
-1.3703780843689772
20
107.39905629016521
30
0
10
-1.4681178291669505
20
107.23334794598424
30
0
10
-1.5908155089937415
20
107.0804620973871
30
0
10
-1.7368761297585555
20
106.94570588455582
30
0
10
-1.7483194138149205
20
106.93514825708776
30
0
10
-1.7598922156677865
20
106.92472435593503
30
0
10
-1.7708322408638288
20
106.91507616059987
30
0
10
-1.9308339504921879
20
106.77396791625917
30
0
10
-2.1419135157538927
20
106.64072288438818
30
0
10
-2.35544083317766
20
106.55597434582683
30
0
10
-3.0272682284107999
20
106.2893274802247
30
0
10
-3.8519136246094599
20
106.41708409375912
30
0
10
-4.4165835519277286
20
106.91507616059987
30
0
0
SPLINE
5
117
100
AcDbEntity
8
0
100
AcDbSpline
70
0
71
3
72
10
73
6
74
0
42
0.000000001
43
0.0000000001
44
0.0000000001
40
-0.43505537032561958
40
-0.43505537032561958
40
-0.43505537032561958
40
-0.43505537032561958
40
-0.21752768516279339
40
-0.21752768516279339
40
0
40
0
40
0
40
0
10
-1.5937078963957241
20
109.73795181613218
30
0
10
-2.0733113615727028
20
110.28177102903933
30
0
10
-2.4499826929240687
20
110.90738709958893
30
0
10
-2.9624052601894446
20
112.26312977875038
30
0
10
-3.0937078963958253
20
112.98148649885329
30
0
10
-3.0937078963958253
20
113.70657878272928
30
0
0
LINE
5
118
100
AcDbEntity
8
0
100
AcDbLine
10
-3.0937078963958249
20
113.70657878272928
30
0
11
-3.0937078963958253
21
183.32396923847145
31
0
0
SPLINE
5
119
100
AcDbEntity
8
0
100
AcDbSpline
70
0
71
3
72
10
73
6
74
0
42
0.000000001
43
0.0000000001
44
0.0000000001
40
-0.43505537032571917
40
-0.43505537032571917
40
-0.43505537032571917
40
-0.43505537032571917
40
-0.21752768516289867
40
-0.21752768516289867
40
0
40
0
40
0
40
0
10
-3.0937078963958253
20
183.32396923847145
30
0
10
-3.0937078963958253
20
184.04906152234753
30
0
10
-2.9624052601894402
20
184.76741824245042
30
0
10
-2.4499826929237711
20
186.12316092161197
30
0
10
-2.0733113615721033
20
186.74877699216154
30
0
10
-1.5937078963947249
20
187.29259620506861
30
0
0
SPLINE
5
120
100
AcDbEntity
8
0
100
AcDbSpline
70
0
71
3
72
23
73
19
74
0
42
0.000000001
43
0.0000000001
44
0.0000000001
40
0
40
0
40
0
40
0
40
0.50779810442564965
40
0.50779810442564965
40
0.50779810442564965
40
0.81171817845679572
40
0.81171817845679572
40
0.81171817845679572
40
1.0007836604413718
40
1.0007836604413718
40
1.0007836604413718
40
1.0155962088512993
40
1.0155962088512993
40
1.0155962088512993
40
1.2530118997371784
40
1.2530118997371784
40
1.2530118997371784
40
2
40
2
40
2
40
2
10
-4.4165835519277286
20
190.11547186060028
30
0
10
-3.9959098283271777
20
190.48647121251599
30
0
10
-3.4630669803095904
20
190.64712662827225
30
0
10
-2.950419560055737
20
190.61033288167107
30
0
10
-2.6435971427258176
20
190.58831161358546
30
0
10
-2.3440618330835239
20
190.49591692266267
30
0
10
-2.0776880259646768
20
190.33880167262993
30
0
10
-1.9119796817839285
20
190.24106192783265
30
0
10
-1.7590938331870065
20
190.11836424800677
30
0
10
-1.6243376203556847
20
189.9723036272427
30
0
10
-1.6137799928863528
20
189.960860343185
30
0
10
-1.6033560917319578
20
189.94928754133036
30
0
10
-1.5937078963957241
20
189.93834751613306
30
0
10
-1.4525996520564766
20
189.77834580650637
30
0
10
-1.3193546201854511
20
189.56726624124536
30
0
10
-1.2346060816241211
20
189.3537389238229
30
0
10
-0.96795921601991353
20
188.68191152858873
30
0
10
-1.0957158295534875
20
187.85726613238876
30
0
10
-1.5937078963957241
20
187.29259620506861
30
0
0
SPLINE
5
121
100
AcDbEntity
8
0
100
AcDbSpline
70
0
71
3
72
10
73
6
74
0
42
0.000000001
43
0.0000000001
44
0.0000000001
40
-0.43505537032556996
40
-0.43505537032556996
40
-0.43505537032556996
40
-0.43505537032556996
40
-0.217527685162787
40
-0.217527685162787
40
0
40
0
40
0
40
0
10
-4.4165835519277286
20
190.11547186060028
30
0
10
-4.9604027648348481
20
189.63586839542336
30
0
10
-5.5860188353843787
20
189.25919706407205
30
0
10
-6.9417615145458278
20
188.74677449680675
30
0
10
-7.6601182346487695
20
188.61547186060048
30
0
10
-8.3852105185247261
20
188.61547186060048
30
0
0
LINE
5
122
100
AcDbEntity
8
0
100
AcDbLine
10
-8.3852105185247279
20
188.61547186060051
30
0
11
-92.150301801072132
21
188.61547186059988
31
0
0
SPLINE
5
123
100
AcDbEntity
8
0
100
AcDbSpline
70
0
71
3
72
8
73
4
74
0
42
0.000000001
43
0.0000000001
44
0.0000000001
40
0
40
0
40
0
40
0
40
1
40
1
40
1
40
1
10
-92.150301801072132
20
188.61547186059988
30
0
10
-94.629097053109746
20
188.61547186059988
30
0
10
-97.019548293343618
20
189.53610709763217
30
0
10
-98.85798810527163
20
191.19880519393348
30
0
0
SPLINE
5
124
100
AcDbEntity
8
0
100
AcDbSpline
70
0
71
3
72
8
73
4
74
0
42
0.000000001
43
0.0000000001
44
0.0000000001
40
0
40
0
40
0
40
0
40
1
40
1
40
1
40
1
10
-101.54106262695234
20
191.19880519393348
30
0
10
-100.77936045014353
20
191.88769408282258
30
0
10
-99.619690282080441
20
191.88769408282258
30
0
10
-98.85798810527163
20
191.19880519393348
30
0
0
SPLINE
5
125
100
AcDbEntity
8
0
100
AcDbSpline
70
0
71
3
72
8
73
4
74
0
42
0.000000001
43
0.0000000001
44
0.0000000001
40
0
40
0
40
0
40
0
40
1
40
1
40
1
40
1
10
-101.54106262695234
20
191.19880519393348
30
0
10
-103.37950243888044
20
189.53610709763217
30
0
10
-105.76995367911414
20
188.61547186059988
30
0
10
-108.24874893115172
20
188.61547186059988
30
0
0
LINE
5
126
100
AcDbEntity
8
0
100
AcDbLine
10
-108.24874893115172
20
188.61547186059988
30
0
11
-187.54477772379374
21
188.61547186059988
31
0
0
SPLINE
5
127
100
AcDbEntity
8
0
100
AcDbSpline
70
0
71
3
72
8
73
4
74
0
42
0.000000001
43
0.0000000001
44
0.0000000001
40
0
40
0
40
0
40
0
40
1
40
1
40
1
40
1
10
-187.54477772379374
20
188.61547186059988
30
0
10
-190.02357297583174
20
188.61547186059988
30
0
10
-192.41402421606574
20
189.53610709763217
30
0
10
-194.25246402799473
20
191.19880519393348
30
0
0
SPLINE
5
128
100
AcDbEntity
8
0
100
AcDbSpline
70
0
71
3
72
8
73
4
74
0
42
0.000000001
43
0.0000000001
44
0.0000000001
40
0
40
0
40
0
40
0
40
1
40
1
40
1
40
1
10
-196.93553854967473
20
191.19880519393348
30
0
10
-196.17383637286571
20
191.88769408282258
30
0
10
-195.01416620480273
20
191.88769408282258
30
0
10
-194.25246402799473
20
191.19880519393348
30
0
0
SPLINE
5
129
100
AcDbEntity
8
0
100
AcDbSpline
70
0
71
3
72
8
73
4
74
0
42
0.000000001
43
0.0000000001
44
0.0000000001
40
0
40
0
40
0
40
0
40
1
40
1
40
1
40
1
10
-196.93553854967473
20
191.19880519393348
30
0
10
-198.77397836160273
20
189.53610709763217
30
0
10
-201.16442960183673
20
188.61547186059988
30
0
10
-203.64322485387473
20
188.61547186059988
30
0
0
LINE
5
130
100
AcDbEntity
8
0
100
AcDbLine
10
-203.64322485387473
20
188.61547186059988
30
0
11
-258.97749867426677
21
188.61547186059988
31
0
0
SPLINE
5
131
100
AcDbEntity
8
0
100
AcDbSpline
70
0
71
3
72
10
73
6
74
0
42
0.000000001
43
0.0000000001
44
0.0000000001
40
-0.43505537032556651
40
-0.43505537032556651
40
-0.43505537032556651
40
-0.43505537032556651
40
-0.21752768516283227
40
-0.21752768516283227
40
0
40
0
40
0
40
0
10
-258.97749867426677
20
188.61547186059988
30
0
10
-259.70259095814259
20
188.61547186059988
30
0
10
-260.42094767824545
20
188.74677449680647
30
0
10
-261.77669035740684
20
189.25919706407188
30
0
10
-262.4023064279566
20
189.63586839542333
30
0
10
-262.94612564086373
20
190.11547186060028
30
0
0
SPLINE
5
132
100
AcDbEntity
8
0
100
AcDbSpline
70
0
71
3
72
23
73
19
74
0
42
0.000000001
43
0.0000000001
44
0.0000000001
40
0
40
0
40
0
40
0
40
0.50779810442613016
40
0.50779810442613016
40
0.50779810442613016
40
0.8117181784757368
40
0.8117181784757368
40
0.8117181784757368
40
1.0007836604640237
40
1.0007836604640237
40
1.0007836604640237
40
1.0155962088522603
40
1.0155962088522603
40
1.0155962088522603
40
1.2530118997598787
40
1.2530118997598787
40
1.2530118997598787
40
2
40
2
40
2
40
2
10
-265.76900129639574
20
187.29259620506795
30
0
10
-266.14000064831225
20
187.71326992867014
30
0
10
-266.3006560640672
20
188.24611277668703
30
0
10
-266.26386231746557
20
188.75876019694107
30
0
10
-266.24184104937837
20
189.0655826142895
30
0
10
-266.14944635844546
20
189.3651179239495
30
0
10
-265.99233110839532
20
189.6314917310803
30
0
10
-265.8945913635913
20
189.79720007526169
30
0
10
-265.77189368375616
20
189.95008592385986
30
0
10
-265.62583306298518
20
190.08484213668837
30
0
10
-265.61438977894392
20
190.0953997641418
30
0
10
-265.6028169771094
20
190.1058236652778
30
0
10
-265.5918769519277
20
190.11547186060028
30
0
10
-265.43187524228011
20
190.25658010495795
30
0
10
-265.22079567700212
20
190.38982513683365
30
0
10
-265.00726835955709
20
190.47457367539585
30
0
10
-264.33544096433354
20
190.74122054097032
30
0
10
-263.51079556816097
20
190.61346392742246
30
0
10
-262.94612564086373
20
190.11547186060028
30
0
0
SPLINE
5
133
100
AcDbEntity
8
0
100
AcDbSpline
70
0
71
3
72
10
73
6
74
0
42
0.000000001
43
0.0000000001
44
0.0000000001
40
-0.43505537032567232
40
-0.43505537032567232
40
-0.43505537032567232
40
-0.43505537032567232
40
-0.21752768516286466
40
-0.21752768516286466
40
0
40
0
40
0
40
0
10
-265.76900129639574
20
187.29259620506795
30
0
10
-265.28939783121842
20
186.74877699216069
30
0
10
-264.9127264998674
20
186.12316092161115
30
0
10
-264.40030393260213
20
184.76741824244993
30
0
10
-264.26900129639574
20
184.04906152234699
30
0
10
-264.26900129639574
20
183.3239692384708
30
0
0
LWPOLYLINE
5
134
100
AcDbEntity
8
0
100
AcDbPolyline
90
8
70
1
43
0.0
10
-36.193601296395734
20
170.58990616059992
10
-36.193601296395734
20
183.58990616059998
42
0.41421356237308204
10
-36.693601296395705
20
184.08990616059995
10
-49.693601296395727
20
184.08990616059998
42
0.41421356237309503
10
-50.193601296395727
20
183.58990616059998
10
-50.193601296395727
20
170.58990616059992
42
0.41421356237309503
10
-49.693601296395727
20
170.08990616059992
10
-36.693601296395713
20
170.08990616059992
42
0.4142135623730846
0
LWPOLYLINE
5
135
100
AcDbEntity
8
0
100
AcDbPolyline
90
8
70
1
43
0.0
10
-7.7467904053263226
20
113.4399061605998
42
-0.41421356237310542
10
-8.2467904053263297
20
112.93990616059978
10
-21.24679040532633
20
112.93990616059979
42
-0.41421356237310542
10
-21.746790405326326
20
113.4399061605998
10
-21.746790405326337
20
126.43990616059982
42
-0.41421356237310542
10
-21.24679040532633
20
126.93990616059985
10
-8.2467904053263297
20
126.93990616059985
42
-0.41421356237309503
10
-7.7467904053263297
20
126.43990616059983
0
LWPOLYLINE
5
136
100
AcDbEntity
8
0
100
AcDbPolyline
90
8
70
1
43
0.0
10
-7.7467904053263226
20
170.58990616059992
42
-0.41421356237309503
10
-8.2467904053263297
20
170.08990616059992
10
-21.24679040532633
20
170.08990616059992
42
-0.41421356237309503
10
-21.746790405326326
20
170.58990616059992
10
-21.746790405326337
20
183.58990616059998
42
-0.41421356237309503
10
-21.24679040532633
20
184.08990616059998
10
-8.2467904053263297
20
184.08990616059998
42
-0.41421356237309503
10
-7.7467904053263297
20
183.58990616059998
0
LWPOLYLINE
5
137
100
AcDbEntity
8
0
100
AcDbPolyline
90
8
70
1
43
0.0
10
-7.7467904053263226
20
132.48990616059984
42
-0.41421356237309503
10
-8.2467904053263297
20
131.98990616059984
10
-21.24679040532633
20
131.98990616059984
42
-0.41421356237309503
10
-21.746790405326326
20
132.48990616059984
10
-21.746790405326337
20
145.4899061605999
42
-0.41421356237309503
10
-21.24679040532633
20
145.9899061605999
10
-8.2467904053263297
20
145.9899061605999
42
-0.41421356237309503
10
-7.7467904053263297
20
145.4899061605999
0
LWPOLYLINE
5
138
100
AcDbEntity
8
0
100
AcDbPolyline
90
8
70
1
43
0.0
10
-226.69360129639574
20
132.48990616059984
42
-0.41421356237309503
10
-227.19360129639574
20
131.98990616059984
10
-240.19360129639577
20
131.98990616059984
42
-0.41421356237309503
10
-240.69360129639577
20
132.48990616059984
10
-240.69360129639577
20
145.4899061605999
42
-0.41421356237309503
10
-240.19360129639577
20
145.9899061605999
10
-227.19360129639574
20
145.9899061605999
42
-0.41421356237309503
10
-226.69360129639574
20
145.4899061605999
0
LWPOLYLINE
5
139
100
AcDbEntity
8
0
100
AcDbPolyline
90
8
70
1
43
0.0
10
-112.39360129639572
20
113.4399061605998
42
-0.41421356237309503
10
-112.89360129639573
20
112.93990616059979
10
-125.89360129639573
20
112.93990616059979
42
-0.41421356237309503
10
-126.39360129639573
20
113.4399061605998
10
-126.39360129639573
20
126.43990616059982
42
-0.41421356237310542
10
-125.89360129639573
20
126.93990616059985
10
-112.89360129639573
20
126.93990616059983
42
-0.41421356237309503
10
-112.39360129639573
20
126.43990616059983
0
LWPOLYLINE
5
140
100
AcDbEntity
8
0
100
AcDbPolyline
90
8
70
1
43
0.0
10
-150.49360129639575
20
151.53990616059988
42
-0.41421356237309503
10
-150.99360129639575
20
151.03990616059988
10
-163.99360129639572
20
151.03990616059988
42
-0.41421356237309503
10
-164.49360129639572
20
151.53990616059988
10
-164.49360129639572
20
164.53990616059994
42
-0.41421356237309503
10
-163.99360129639572
20
165.03990616059994
10
-150.99360129639575
20
165.03990616059994
42
-0.41421356237309503
10
-150.49360129639575
20
164.53990616059994
0
LWPOLYLINE
5
141
100
AcDbEntity
8
0
100
AcDbPolyline
90
8
70
1
43
0.0
10
-169.54360129639571
20
151.53990616059988
42
-0.41421356237309503
10
-170.04360129639571
20
151.03990616059988
10
-183.04360129639571
20
151.03990616059988
42
-0.41421356237311585
10
-183.54360129639574
20
151.53990616059988
10
-183.54360129639574
20
164.53990616059994
42
-0.41421356237309503
10
-183.04360129639574
20
165.03990616059994
10
-170.04360129639571
20
165.03990616059994
42
-0.41421356237309503
10
-169.54360129639571
20
164.53990616059994
0
LWPOLYLINE
5
142
100
AcDbEntity
8
0
100
AcDbPolyline
90
8
70
1
43
0.0
10
-221.14360129639573
20
131.98990616059984
42
-0.41421356237309503
10
-221.64360129639573
20
132.48990616059984
10
-221.64360129639573
20
145.4899061605999
42
-0.41421356237309503
10
-221.14360129639573
20
145.9899061605999
10
-208.14360129639573
20
145.9899061605999
42
-0.41421356237309503
10
-207.64360129639573
20
145.4899061605999
10
-207.64360129639573
20
132.48990616059984
42
-0.41421356237309503
10
-208.14360129639573
20
131.98990616059984
0
LWPOLYLINE
5
143
100
AcDbEntity
8
0
100
AcDbPolyline
90
8
70
1
43
0.0
10
-188.59360129639572
20
132.48990616059984
42
-0.41421356237309503
10
-189.09360129639572
20
131.98990616059984
10
-202.09360129639572
20
131.98990616059984
42
-0.41421356237311585
10
-202.59360129639575
20
132.48990616059984
10
-202.59360129639575
20
145.4899061605999
42
-0.41421356237309503
10
-202.09360129639575
20
145.9899061605999
10
-189.09360129639572
20
145.9899061605999
42
-0.41421356237309503
10
-188.59360129639572
20
145.4899061605999
0
LWPOLYLINE
5
144
100
AcDbEntity
8
0
100
AcDbPolyline
90
8
70
1
43
0.0
10
-144.94360129639574
20
112.93990616059979
42
-0.41421356237309503
10
-145.44360129639574
20
113.4399061605998
10
-145.44360129639574
20
126.43990616059982
42
-0.41421356237310542
10
-144.94360129639574
20
126.93990616059985
10
-131.94360129639574
20
126.93990616059985
42
-0.41421356237309503
10
-131.44360129639574
20
126.43990616059983
10
-131.44360129639574
20
113.43990616059982
42
-0.41421356237310542
10
-131.94360129639574
20
112.93990616059979
0
LWPOLYLINE
5
145
100
AcDbEntity
8
0
100
AcDbPolyline
90
8
70
1
43
0.0
10
-93.343601296395718
20
132.48990616059984
42
-0.41421356237309503
10
-93.843601296395732
20
131.98990616059984
10
-106.84360129639572
20
131.98990616059984
42
-0.41421356237309503
10
-107.3436012963957
20
132.48990616059984
10
-107.34360129639572
20
145.4899061605999
42
-0.41421356237309503
10
-106.84360129639572
20
145.9899061605999
10
-93.843601296395718
20
145.98990616059987
42
-0.4142135623730846
10
-93.343601296395747
20
145.4899061605999
0
LWPOLYLINE
5
146
100
AcDbEntity
8
0
100
AcDbPolyline
90
8
70
1
43
0.0
10
-169.54360129639571
20
113.4399061605998
42
-0.41421356237309503
10
-170.04360129639571
20
112.93990616059979
10
-183.04360129639571
20
112.93990616059979
42
-0.41421356237311585
10
-183.54360129639574
20
113.4399061605998
10
-183.54360129639574
20
126.43990616059982
42
-0.41421356237310542
10
-183.04360129639574
20
126.93990616059985
10
-170.04360129639571
20
126.93990616059985
42
-0.41421356237309503
10
-169.54360129639571
20
126.43990616059983
0
LWPOLYLINE
5
147
100
AcDbEntity
8
0
100
AcDbPolyline
90
8
70
1
43
0.0
10
-36.193601296395734
20
132.48990616059984
10
-36.193601296395734
20
145.4899061605999
42
0.41421356237308204
10
-36.693601296395705
20
145.9899061605999
10
-49.693601296395727
20
145.9899061605999
42
0.41421356237309503
10
-50.193601296395727
20
145.4899061605999
10
-50.193601296395727
20
132.48990616059984
42
0.41421356237309503
10
-49.693601296395727
20
131.98990616059984
10
-36.693601296395713
20
131.98990616059984
42
0.4142135623730846
0
LWPOLYLINE
5
148
100
AcDbEntity
8
0
100
AcDbPolyline
90
8
70
1
43
0.0
10
-131.44360129639574
20
132.48990616059984
42
-0.41421356237309503
10
-131.94360129639574
20
131.98990616059984
10
-144.94360129639574
20
131.98990616059984
42
-0.41421356237309503
10
-145.44360129639574
20
132.48990616059984
10
-145.44360129639574
20
145.4899061605999
42
-0.41421356237309503
10
-144.94360129639574
20
145.9899061605999
10
-131.94360129639574
20
145.9899061605999
42
-0.41421356237309503
10
-131.44360129639574
20
145.4899061605999
0
LWPOLYLINE
5
149
100
AcDbEntity
8
0
100
AcDbPolyline
90
8
70
1
43
0.0
10
-207.64360129639573
20
151.53990616059988
42
-0.41421356237309503
10
-208.14360129639573
20
151.03990616059988
10
-221.14360129639573
20
151.03990616059988
42
-0.41421356237309503
10
-221.64360129639573
20
151.53990616059988
10
-221.64360129639573
20
164.53990616059994
42
-0.41421356237309503
10
-221.14360129639573
20
165.03990616059994
10
-208.14360129639573
20
165.03990616059994
42
-0.41421356237309503
10
-207.64360129639573
20
164.53990616059994
0
LWPOLYLINE
5
150
100
AcDbEntity
8
0
100
AcDbPolyline
90
8
70
1
43
0.0
10
-55.243601296395717
20
113.4399061605998
42
-0.41421356237309503
10
-55.743601296395724
20
112.93990616059979
10
-68.743601296395724
20
112.93990616059979
42
-0.41421356237309503
10
-69.243601296395724
20
113.4399061605998
10
-69.243601296395738
20
126.43990616059982
42
-0.41421356237310542
10
-68.743601296395724
20
126.93990616059985
10
-55.743601296395724
20
126.93990616059985
42
-0.41421356237309503
10
-55.243601296395724
20
126.43990616059983
0
LWPOLYLINE
5
151
100
AcDbEntity
8
0
100
AcDbPolyline
90
8
70
1
43
0.0
10
-226.69360129639574
20
113.43990616059982
10
-226.69360129639574
20
126.43990616059983
42
0.41421356237309503
10
-227.19360129639574
20
126.93990616059983
10
-240.19360129639577
20
126.93990616059985
42
0.41421356237310542
10
-240.69360129639574
20
126.43990616059982
10
-240.69360129639577
20
113.4399061605998
42
0.41421356237309503
10
-240.19360129639577
20
112.93990616059979
10
-227.19360129639574
20
112.93990616059979
42
0.41421356237310542
0
LWPOLYLINE
5
152
100
AcDbEntity
8
0
100
AcDbPolyline
90
8
70
1
43
0.0
10
-150.49360129639575
20
132.48990616059984
42
-0.41421356237309503
10
-150.99360129639575
20
131.98990616059984
10
-163.99360129639572
20
131.98990616059984
42
-0.41421356237309503
10
-164.49360129639572
20
132.48990616059984
10
-164.49360129639572
20
145.4899061605999
42
-0.41421356237309503
10
-163.99360129639572
20
145.9899061605999
10
-150.99360129639575
20
145.9899061605999
42
-0.41421356237309503
10
-150.49360129639575
20
145.4899061605999
0
LWPOLYLINE
5
153
100
AcDbEntity
8
0
100
AcDbPolyline
90
8
70
1
43
0.0
10
-226.69360129639574
20
151.53990616059988
42
-0.41421356237309503
10
-227.19360129639574
20
151.03990616059988
10
-240.19360129639577
20
151.03990616059988
42
-0.41421356237309503
10
-240.69360129639577
20
151.53990616059988
10
-240.69360129639577
20
164.53990616059994
42
-0.41421356237309503
10
-240.19360129639577
20
165.03990616059994
10
-227.19360129639574
20
165.03990616059994
42
-0.41421356237309503
10
-226.69360129639574
20
164.53990616059994
0
LWPOLYLINE
5
154
100
AcDbEntity
8
0
100
AcDbPolyline
90
8
70
1
43
0.0
10
-150.49360129639575
20
113.4399061605998
42
-0.41421356237309503
10
-150.99360129639575
20
112.93990616059979
10
-163.99360129639572
20
112.93990616059979
42
-0.41421356237309503
10
-164.49360129639572
20
113.4399061605998
10
-164.49360129639572
20
126.43990616059982
42
-0.41421356237310542
10
-163.99360129639572
20
126.93990616059985
10
-150.99360129639575
20
126.93990616059985
42
-0.41421356237309503
10
-150.49360129639575
20
126.43990616059983
0
LWPOLYLINE
5
155
100
AcDbEntity
8
0
100
AcDbPolyline
90
8
70
1
43
0.0
10
-245.74360129639572
20
113.4399061605998
42
-0.41421356237309503
10
-246.24360129639572
20
112.93990616059979
10
-259.24360129639575
20
112.93990616059979
42
-0.41421356237309503
10
-259.74360129639575
20
113.4399061605998
10
-259.74360129639575
20
126.43990616059982
42
-0.41421356237310542
10
-259.24360129639575
20
126.93990616059985
10
-246.24360129639572
20
126.93990616059985
42
-0.41421356237309503
10
-245.74360129639572
20
126.43990616059983
0
LWPOLYLINE
5
156
100
AcDbEntity
8
0
100
AcDbPolyline
90
8
70
1
43
0.0
10
-112.39360129639572
20
132.48990616059984
42
-0.41421356237309503
10
-112.89360129639573
20
131.98990616059984
10
-125.89360129639573
20
131.98990616059984
42
-0.41421356237309503
10
-126.39360129639573
20
132.48990616059984
10
-126.39360129639573
20
145.4899061605999
42
-0.41421356237309503
10
-125.89360129639573
20
145.9899061605999
10
-112.89360129639573
20
145.98990616059987
42
-0.41421356237309503
10
-112.39360129639573
20
145.4899061605999
0
LWPOLYLINE
5
157
100
AcDbEntity
8
0
100
AcDbPolyline
90
8
70
1
43
0.0
10
-144.94360129639574
20
151.03990616059988
42
-0.41421356237309503
10
-145.44360129639574
20
151.53990616059988
10
-145.44360129639574
20
164.53990616059994
42
-0.41421356237309503
10
-144.94360129639574
20
165.03990616059994
10
-131.94360129639574
20
165.03990616059994
42
-0.41421356237309503
10
-131.44360129639574
20
164.53990616059994
10
-131.44360129639574
20
151.53990616059988
42
-0.41421356237309503
10
-131.94360129639574
20
151.03990616059988
0
LWPOLYLINE
5
158
100
AcDbEntity
8
0
100
AcDbPolyline
90
8
70
1
43
0.0
10
-93.343601296395718
20
113.4399061605998
42
-0.41421356237309503
10
-93.843601296395732
20
112.93990616059979
10
-106.84360129639572
20
112.9399061605998
42
-0.41421356237309503
10
-107.3436012963957
20
113.4399061605998
10
-107.34360129639572
20
126.43990616059982
42
-0.41421356237310542
10
-106.84360129639572
20
126.93990616059985
10
-93.843601296395718
20
126.93990616059983
42
-0.4142135623730846
10
-93.343601296395747
20
126.43990616059983
0
LWPOLYLINE
5
159
100
AcDbEntity
8
0
100
AcDbPolyline
90
8
70
1
43
0.0
10
-55.243601296395717
20
132.48990616059984
42
-0.41421356237309503
10
-55.743601296395724
20
131.98990616059984
10
-68.743601296395724
20
131.98990616059984
42
-0.41421356237309503
10
-69.243601296395724
20
132.48990616059984
10
-69.243601296395738
20
145.4899061605999
42
-0.41421356237309503
10
-68.743601296395724
20
145.9899061605999
10
-55.743601296395724
20
145.9899061605999
42
-0.41421356237309503
10
-55.243601296395724
20
145.4899061605999
0
LWPOLYLINE
5
160
100
AcDbEntity
8
0
100
AcDbPolyline
90
8
70
1
43
0.0
10
-245.74360129639572
20
132.48990616059984
42
-0.41421356237309503
10
-246.24360129639572
20
131.98990616059984
10
-259.24360129639575
20
131.98990616059984
42
-0.41421356237309503
10
-259.74360129639575
20
132.48990616059984
10
-259.74360129639575
20
145.4899061605999
42
-0.41421356237309503
10
-259.24360129639575
20
145.9899061605999
10
-246.24360129639572
20
145.9899061605999
42
-0.41421356237309503
10
-245.74360129639572
20
145.4899061605999
0
LWPOLYLINE
5
161
100
AcDbEntity
8
0
100
AcDbPolyline
90
8
70
1
43
0.0
10
-74.293601296395721
20
113.4399061605998
42
-0.41421356237309503
10
-74.793601296395721
20
112.93990616059979
10
-87.793601296395735
20
112.9399061605998
42
-0.41421356237309503
10
-88.293601296395735
20
113.4399061605998
10
-88.29360129639575
20
126.43990616059982
42
-0.41421356237310542
10
-87.793601296395735
20
126.93990616059985
10
-74.793601296395735
20
126.93990616059985
42
-0.41421356237310025
10
-74.293601296395735
20
126.43990616059983
0
LWPOLYLINE
5
162
100
AcDbEntity
8
0
100
AcDbPolyline
90
8
70
1
43
0.0
10
-188.59360129639572
20
151.53990616059988
42
-0.41421356237309503
10
-189.09360129639572
20
151.03990616059988
10
-202.09360129639572
20
151.03990616059988
42
-0.41421356237311585
10
-202.59360129639575
20
151.53990616059988
10
-202.59360129639575
20
164.53990616059994
42
-0.41421356237309503
10
-202.09360129639575
20
165.03990616059994
10
-189.09360129639572
20
165.03990616059994
42
-0.41421356237309503
10
-188.59360129639572
20
164.53990616059994
0
LWPOLYLINE
5
163
100
AcDbEntity
8
0
100
AcDbPolyline
90
8
70
1
43
0.0
10
-169.54360129639571
20
132.48990616059984
42
-0.41421356237309503
10
-170.04360129639571
20
131.98990616059984
10
-183.04360129639571
20
131.98990616059984
42
-0.41421356237311585
10
-183.54360129639574
20
132.48990616059984
10
-183.54360129639574
20
145.4899061605999
42
-0.41421356237309503
10
-183.04360129639574
20
145.9899061605999
10
-170.04360129639571
20
145.9899061605999
42
-0.41421356237309503
10
-169.54360129639571
20
145.4899061605999
0
LWPOLYLINE
5
164
100
AcDbEntity
8
0
100
AcDbPolyline
90
8
70
1
43
0.0
10
-36.193601296395727
20
151.53990616059988
42
-0.4142135623730846
10
-36.693601296395713
20
151.03990616059988
10
-49.693601296395727
20
151.03990616059988
42
-0.41421356237309503
10
-50.193601296395727
20
151.53990616059988
10
-50.193601296395734
20
164.53990616059994
42
-0.41421356237309503
10
-49.693601296395727
20
165.03990616059994
10
-36.693601296395705
20
165.03990616059994
42
-0.41421356237308204
10
-36.193601296395734
20
164.53990616059994
0
LWPOLYLINE
5
165
100
AcDbEntity
8
0
100
AcDbPolyline
90
8
70
1
43
0.0
10
-55.243601296395717
20
151.53990616059988
42
-0.41421356237309503
10
-55.743601296395724
20
151.03990616059988
10
-68.743601296395724
20
151.03990616059988
42
-0.41421356237309503
10
-69.243601296395724
20
151.53990616059988
10
-69.243601296395738
20
164.53990616059994
42
-0.41421356237309503
10
-68.743601296395724
20
165.03990616059994
10
-55.743601296395724
20
165.03990616059994
42
-0.41421356237309503
10
-55.243601296395724
20
164.53990616059994
0
LWPOLYLINE
5
166
100
AcDbEntity
8
0
100
AcDbPolyline
90
8
70
1
43
0.0
10
-93.343601296395718
20
151.53990616059988
42
-0.41421356237309503
10
-93.843601296395732
20
151.03990616059988
10
-106.84360129639572
20
151.03990616059991
42
-0.41421356237309503
10
-107.3436012963957
20
151.53990616059988
10
-107.34360129639572
20
164.53990616059994
42
-0.41421356237309503
10
-106.84360129639572
20
165.03990616059994
10
-93.843601296395718
20
165.03990616059994
42
-0.4142135623730846
10
-93.343601296395747
20
164.53990616059994
0
LWPOLYLINE
5
167
100
AcDbEntity
8
0
100
AcDbPolyline
90
8
70
1
43
0.0
10
-188.59360129639572
20
113.4399061605998
42
-0.41421356237309503
10
-189.09360129639572
20
112.93990616059979
10
-202.09360129639572
20
112.93990616059979
42
-0.41421356237311585
10
-202.59360129639575
20
113.4399061605998
10
-202.59360129639575
20
126.43990616059982
42
-0.41421356237310542
10
-202.09360129639575
20
126.93990616059985
10
-189.09360129639572
20
126.93990616059985
42
-0.41421356237309503
10
-188.59360129639572
20
126.43990616059983
0
LWPOLYLINE
5
168
100
AcDbEntity
8
0
100
AcDbPolyline
90
8
70
1
43
0.0
10
-207.64360129639573
20
113.4399061605998
42
-0.41421356237309503
10
-208.14360129639573
20
112.93990616059979
10
-221.14360129639573
20
112.93990616059979
42
-0.41421356237309503
10
-221.64360129639573
20
113.4399061605998
10
-221.64360129639573
20
126.43990616059982
42
-0.41421356237310542
10
-221.14360129639573
20
126.93990616059985
10
-208.14360129639573
20
126.93990616059985
42
-0.41421356237309503
10
-207.64360129639573
20
126.43990616059983
0
LWPOLYLINE
5
169
100
AcDbEntity
8
0
100
AcDbPolyline
90
8
70
1
43
0.0
10
-74.293601296395721
20
132.48990616059984
42
-0.41421356237309503
10
-74.793601296395721
20
131.98990616059984
10
-87.793601296395735
20
131.98990616059984
42
-0.41421356237309503
10
-88.293601296395735
20
132.48990616059984
10
-88.29360129639575
20
145.4899061605999
42
-0.41421356237309503
10
-87.793601296395735
20
145.9899061605999
10
-74.793601296395735
20
145.9899061605999
42
-0.41421356237310025
10
-74.293601296395735
20
145.4899061605999
0
LWPOLYLINE
5
170
100
AcDbEntity
8
0
100
AcDbPolyline
90
8
70
1
43
0.0
10
-112.39360129639572
20
151.53990616059988
42
-0.41421356237309503
10
-112.89360129639573
20
151.03990616059988
10
-125.89360129639573
20
151.03990616059988
42
-0.41421356237309503
10
-126.39360129639573
20
151.53990616059988
10
-126.39360129639573
20
164.53990616059994
42
-0.41421356237309503
10
-125.89360129639573
20
165.03990616059994
10
-112.89360129639573
20
165.03990616059994
42
-0.41421356237309503
10
-112.39360129639573
20
164.53990616059994
0
LWPOLYLINE
5
171
100
AcDbEntity
8
0
100
AcDbPolyline
90
8
70
1
43
0.0
10
-36.193601296395727
20
113.4399061605998
42
-0.41421356237308204
10
-36.693601296395705
20
112.93990616059979
10
-49.693601296395727
20
112.93990616059979
42
-0.41421356237309503
10
-50.193601296395727
20
113.4399061605998
10
-50.193601296395734
20
126.43990616059982
42
-0.41421356237310542
10
-49.693601296395727
20
126.93990616059985
10
-36.693601296395705
20
126.93990616059985
42
-0.41421356237308204
10
-36.193601296395734
20
126.43990616059983
0
LWPOLYLINE
5
172
100
AcDbEntity
8
0
100
AcDbPolyline
90
8
70
1
43
0.0
10
-74.293601296395721
20
151.53990616059988
42
-0.41421356237309503
10
-74.793601296395721
20
151.03990616059988
10
-87.793601296395735
20
151.03990616059991
42
-0.41421356237309503
10
-88.293601296395735
20
151.53990616059988
10
-88.29360129639575
20
164.53990616059994
42
-0.41421356237309503
10
-87.793601296395735
20
165.03990616059994
10
-74.793601296395735
20
165.03990616059994
42
-0.41421356237310025
10
-74.293601296395735
20
164.53990616059994
0
LWPOLYLINE
5
173
100
AcDbEntity
8
0
100
AcDbPolyline
90
8
70
1
43
0.0
10
-259.24360129639575
20
170.08990616059992
42
-0.41421356237309503
10
-259.74360129639575
20
170.58990616059992
10
-259.74360129639575
20
183.58990616059998
42
-0.41421356237309503
10
-259.24360129639575
20
184.08990616059998
10
-246.24360129639572
20
184.08990616059998
42
-0.41421356237309503
10
-245.74360129639572
20
183.58990616059998
10
-245.74360129639572
20
170.58990616059992
42
-0.41421356237309503
10
-246.24360129639572
20
170.08990616059992
0
LWPOLYLINE
5
174
100
AcDbEntity
8
0
100
AcDbPolyline
90
8
70
1
43
0.0
10
-245.74360129639572
20
151.53990616059988
42
-0.41421356237309503
10
-246.24360129639572
20
151.03990616059988
10
-259.24360129639575
20
151.03990616059988
42
-0.41421356237309503
10
-259.74360129639575
20
151.53990616059988
10
-259.74360129639575
20
164.53990616059994
42
-0.41421356237309503
10
-259.24360129639575
20
165.03990616059994
10
-246.24360129639572
20
165.03990616059994
42
-0.41421356237309503
10
-245.74360129639572
20
164.53990616059994
0
SPLINE
5
175
100
AcDbEntity
8
0
100
AcDbSpline
70
2
71
3
72
14
73
10
74
0
42
0.000000001
43
0.0000000001
44
0.0000000001
40
-4
40
-4
40
-4
40
-4
40
-3
40
-3
40
-2
40
-2
40
-1
40
-1
40
0
40
0
40
0
40
0
10
-30.006400967517749
20
148.51461951928968
30
0
10
-30.006400967517749
20
147.90710629447599
30
0
10
-29.513914192330777
20
147.41461951929
30
0
10
-28.298887742703759
20
147.41461951929
30
0
10
-27.806400967517767
20
147.90710629447599
30
0
10
-27.806400967517767
20
149.12213274410337
30
0
10
-28.298887742703759
20
149.61461951928999
30
0
10
-29.513914192330777
20
149.61461951928999
30
0
10
-30.006400967517749
20
149.12213274410337
30
0
10
-30.006400967517749
20
148.51461951928968
30
0
0
SPLINE
5
176
100
AcDbEntity
8
0
100
AcDbSpline
70
2
71
3
72
14
73
10
74
0
42
0.000000001
43
0.0000000001
44
0.0000000001
40
-4
40
-4
40
-4
40
-4
40
-3
40
-3
40
-2
40
-2
40
-1
40
-1
40
0
40
0
40
0
40
0
10
-196.69400128883473
20
189.7154718606003
30
0
10
-196.69400128883473
20
189.10795863578647
30
0
10
-196.20151451364774
20
188.61547186060048
30
0
10
-194.98648806402073
20
188.61547186060048
30
0
10
-194.49400128883474
20
189.10795863578647
30
0
10
-194.49400128883474
20
190.32298508541399
30
0
10
-194.98648806402073
20
190.81547186059998
30
0
10
-196.20151451364774
20
190.81547186059998
30
0
10
-196.69400128883473
20
190.32298508541399
30
0
10
-196.69400128883473
20
189.7154718606003
30
0
0
SPLINE
5
177
100
AcDbEntity
8
0
100
AcDbSpline
70
2
71
3
72
14
73
10
74
0
42
0.000000001
43
0.0000000001
44
0.0000000001
40
-4
40
-4
40
-4
40
-4
40
-3
40
-3
40
-2
40
-2
40
-1
40
-1
40
0
40
0
40
0
40
0
10
-4.1937078963957264
20
188.61547186060048
30
0
10
-4.1937078963957264
20
188.00795863578679
30
0
10
-3.7012211212087287
20
187.5154718606008
30
0
10
-2.4861946715817274
20
187.5154718606008
30
0
10
-1.9937078963948274
20
188.00795863578679
30
0
10
-1.9937078963948274
20
189.22298508541428
30
0
10
-2.4861946715817274
20
189.7154718606009
30
0
10
-3.7012211212087287
20
189.7154718606009
30
0
10
-4.1937078963957264
20
189.22298508541428
30
0
10
-4.1937078963957264
20
188.61547186060048
30
0
0
SPLINE
5
178
100
AcDbEntity
8
0
100
AcDbSpline
70
2
71
3
72
14
73
10
74
0
42
0.000000001
43
0.0000000001
44
0.0000000001
40
-4
40
-4
40
-4
40
-4
40
-3
40
-3
40
-2
40
-2
40
-1
40
-1
40
0
40
0
40
0
40
0
10
-101.44415130395693
20
107.31507616059986
30
0
10
-101.44415130395693
20
106.70756293578617
30
0
10
-100.95166452877024
20
106.21507616059957
30
0
10
-99.736638079142836
20
106.21507616059957
30
0
10
-99.244151303956841
20
106.70756293578617
30
0
10
-99.244151303956841
20
107.92258938541357
30
0
10
-99.736638079142836
20
108.41507616059955
30
0
10
-100.95166452877024
20
108.41507616059955
30
0
10
-101.44415130395693
20
107.92258938541357
30
0
10
-101.44415130395693
20
107.31507616059986
30
0
0
SPLINE
5
179
100
AcDbEntity
8
0
100
AcDbSpline
70
2
71
3
72
14
73
10
74
0
42
0.000000001
43
0.0000000001
44
0.0000000001
40
-4
40
-4
40
-4
40
-4
40
-3
40
-3
40
-2
40
-2
40
-1
40
-1
40
0
40
0
40
0
40
0
10
-265.36900129639571
20
108.41507616059954
30
0
10
-265.36900129639571
20
107.80756293578582
30
0
10
-264.87651452120878
20
107.31507616059983
30
0
10
-263.66148807158174
20
107.31507616059983
30
0
10
-263.16900129639572
20
107.80756293578584
30
0
10
-263.16900129639572
20
109.02258938541394
30
0
10
-263.66148807158174
20
109.51507616059996
30
0
10
-264.87651452120878
20
109.51507616059993
30
0
10
-265.36900129639571
20
109.02258938541392
30
0
10
-265.36900129639571
20
108.41507616059954
30
0
0
SPLINE
5
180
100
AcDbEntity
8
0
100
AcDbSpline
70
2
71
3
72
14
73
10
74
0
42
0.000000001
43
0.0000000001
44
0.0000000001
40
-4
40
-4
40
-4
40
-4
40
-3
40
-3
40
-2
40
-2
40
-1
40
-1
40
0
40
0
40
0
40
0
10
-4.1937078963957264
20
108.41507616060026
30
0
10
-4.1937078963957264
20
107.80756293578588
30
0
10
-3.7012211212087287
20
107.31507616059987
30
0
10
-2.4861946715817274
20
107.31507616059987
30
0
10
-1.9937078963958266
20
107.80756293578588
30
0
10
-1.9937078963958266
20
109.02258938541397
30
0
10
-2.4861946715817274
20
109.51507616059999
30
0
10
-3.7012211212087287
20
109.51507616059999
30
0
10
-4.1937078963957264
20
109.02258938541397
30
0
10
-4.1937078963957264
20
108.41507616060026
30
0
0
SPLINE
5
181
100
AcDbEntity
8
0
100
AcDbSpline
70
2
71
3
72
14
73
10
74
0
42
0.000000001
43
0.0000000001
44
0.0000000001
40
-4
40
-4
40
-4
40
-4
40
-3
40
-3
40
-2
40
-2
40
-1
40
-1
40
0
40
0
40
0
40
0
10
-101.29952536611164
20
189.71547186059956
30
0
10
-101.29952536611164
20
189.10795863578647
30
0
10
-100.80703859092634
20
188.61547186059988
30
0
10
-99.592012141298227
20
188.61547186059988
30
0
10
-99.099525366112218
20
189.10795863578647
30
0
10
-99.099525366112218
20
190.32298508541399
30
0
10
-99.592012141298227
20
190.81547186059998
30
0
10
-100.80703859092634
20
190.81547186059998
30
0
10
-101.29952536611164
20
190.32298508541399
30
0
10
-101.29952536611164
20
189.71547186059956
30
0
0
SPLINE
5
182
100
AcDbEntity
8
0
100
AcDbSpline
70
2
71
3
72
14
73
10
74
0
42
0.000000001
43
0.0000000001
44
0.0000000001
40
-4
40
-4
40
-4
40
-4
40
-3
40
-3
40
-2
40
-2
40
-1
40
-1
40
0
40
0
40
0
40
0
10
-265.36900129639571
20
188.61547186059988
30
0
10
-265.36900129639571
20
188.00795863578605
30
0
10
-264.87651452120974
20
187.51547186060009
30
0
10
-263.66148807158174
20
187.51547186060009
30
0
10
-263.16900129639572
20
188.00795863578605
30
0
10
-263.16900129639572
20
189.22298508541428
30
0
10
-263.66148807158174
20
189.71547186060019
30
0
10
-264.87651452120974
20
189.71547186060019
30
0
10
-265.36900129639571
20
189.22298508541428
30
0
10
-265.36900129639571
20
188.61547186059988
30
0
0
LWPOLYLINE
5
183
100
AcDbEntity
8
0
100
AcDbPolyline
90
8
70
1
43
0.0
10
-8.2467904053263297
20
165.03990616059994
10
-21.24679040532633
20
165.03990616059994
42
0.41421356237309503
10
-21.746790405326326
20
164.53990616059994
10
-21.746790405326326
20
151.53990616059988
42
0.41421356237309503
10
-21.24679040532633
20
151.03990616059988
10
-8.2467904053263297
20
151.03990616059988
42
0.41421356237309503
10
-7.746790405326327
20
151.53990616059988
10
-7.7467904053263297
20
164.53990616059994
42
0.41421356237309503
0
CIRCLE
5
184
100
AcDbEntity
8
0
100
AcDbCircle
10
-195.59400035740003
20
107.31507616060006
30
0
40
1.099999999999997
210
0
220
-0
230
1
0
LWPOLYLINE
5
185
100
AcDbEntity
8
0
100
AcDbPolyline
90
20
70
1
43
0.0
10
-202.59360129639575
20
183.58990616059998
42
-0.41421356237303258
10
-203.09360129639572
20
183.08990616059998
10
-207.14360129639576
20
183.08990616060001
42
-0.41421356237313667
10
-207.64360129639573
20
183.58990616059998
42
0.41421356237309503
10
-208.14360129639573
20
184.08990616059995
10
-240.19360129639577
20
184.08990616059998
42
0.41421356237309503
10
-240.69360129639574
20
183.58990616059998
10
-240.69360129639577
20
170.58990616059992
42
0.41421356237309503
10
-240.19360129639577
20
170.08990616059992
10
-209.2436012963957
20
170.08990616059992
42
-0.41421356237313667
10
-208.7436012963957
20
169.58990616059992
42
0.41421356237309503
10
-208.2436012963957
20
169.08990616059992
10
-201.99360129639575
20
169.08990616059992
42
0.41421356237309503
10
-201.49360129639575
20
169.58990616059992
42
-0.41421356237307422
10
-200.9936012963957
20
170.08990616059992
10
-189.09360129639572
20
170.08990616059992
42
0.41421356237309503
10
-188.59360129639578
20
170.58990616059992
10
-188.59360129639572
20
183.58990616059998
42
0.41421356237309503
10
-189.09360129639572
20
184.08990616059995
10
-202.09360129639575
20
184.08990616059998
42
0.41421356237309503
0
LWPOLYLINE
5
186
100
AcDbEntity
8
0
100
AcDbPolyline
90
44
70
1
43
0.0
10
-135.91860129639574
20
183.58990616059998
42
-0.41421356237310542
10
-136.41860129639576
20
183.08990616059998
10
-140.46860129639572
20
183.08990616060001
42
-0.41421356237310542
10
-140.96860129639572
20
183.58990616059998
42
0.41421356237309503
10
-141.46860129639575
20
184.08990616059995
10
-154.46860129639572
20
184.08990616059998
42
0.41421356237309503
10
-154.96860129639575
20
183.58990616059998
42
-0.4142135623730846
10
-155.46860129639575
20
183.08990616059998
10
-159.51860129639573
20
183.08990616059998
42
-0.41421356237304302
10
-160.0186012963957
20
183.58990616059998
42
0.41421356237309503
10
-160.51860129639573
20
184.08990616059995
10
-183.04360129639574
20
184.08990616059998
42
0.41421356237309503
10
-183.54360129639574
20
183.58990616059998
10
-183.54360129639574
20
170.58990616059992
42
0.40312425320409023
10
-183.06260129639571
20
170.0902672910151
42
-0.40312425320402911
10
-182.58160129639575
20
169.59062842143027
10
-182.58160129639575
20
169.58990616059992
42
0.41421356237309503
10
-182.08160129639572
20
169.08990616059992
10
-175.83160129639572
20
169.08990616059992
42
0.41421356237309503
10
-175.33160129639572
20
169.58990616059992
42
-0.41421356237313667
10
-174.83160129639572
20
170.08990616059992
10
-164.03160129639573
20
170.08990616059992
42
-0.41421356237313667
10
-163.53160129639573
20
169.58990616059992
42
0.41421356237309503
10
-163.03160129639571
20
169.08990616059992
10
-151.95560129639574
20
169.08990616059992
42
0.41421356237309503
10
-151.45560129639574
20
169.58990616059992
42
-0.41421356237309503
10
-150.95560129639574
20
170.08990616059992
10
-144.98160129639575
20
170.08990616059998
42
-0.4142135623730846
10
-144.48160129639572
20
169.58990616059992
42
0.41421356237309503
10
-143.98160129639572
20
169.08990616059992
10
-132.90560129639573
20
169.08990616059992
42
0.41421356237309503
10
-132.40560129639573
20
169.58990616059992
42
-0.41421356237309503
10
-131.90560129639573
20
170.08990616059992
10
-121.10560129639573
20
170.0899061605999
42
-0.41421356237310542
10
-120.60560129639572
20
169.58990616059992
42
0.41421356237309503
10
-120.10560129639572
20
169.08990616059992
10
-113.85560129639573
20
169.08990616059992
42
0.41421356237307422
10
-113.35560129639572
20
169.5899061605999
10
-113.35560129639572
20
169.59062842143027
42
-0.40312425320402911
10
-112.87460129639572
20
170.0902672910151
42
0.40312425320409023
10
-112.39360129639572
20
170.58990616059992
10
-112.39360129639573
20
183.58990616059998
42
0.41421356237309503
10
-112.89360129639573
20
184.08990616059995
10
-135.41860129639574
20
184.08990616059998
42
0.41421356237309503
0
ENDSEC
0
SECTION
2
OBJECTS
0
DICTIONARY
5
C
100
AcDbDictionary
3
ACAD_GROUP
350
D
3
ACAD_MLINESTYLE
350
17
0
DICTIONARY
5
D
100
AcDbDictionary
0
DICTIONARY
5
1A
330
C
100
AcDbDictionary
0
DICTIONARY
5
17
100
AcDbDictionary
0
ENDSEC
0
EOF
