0
SECTION
2
HEADER
9
$INSUNITS
70
4
9
$ACADVER
1
AC1014
9
$HANDSEED
5
FFFF
0
ENDSEC
0
SECTION
2
TABLES
0
TABLE
2
VPORT
5
8
100
AcDbSymbolTable
0
ENDTAB
0
TABLE
2
LTYPE
5
5
100
AcDbSymbolTable
0
LTYPE
5
14
100
AcDbSymbolTableRecord
100
AcDbLinetypeTableRecord
2
BYBLOCK
70
0
0
LTYPE
5
15
100
AcDbSymbolTableRecord
100
AcDbLinetypeTableRecord
2
BYLAYER
70
0
0
ENDTAB
0
TABLE
2
LAYER
5
2
100
AcDbSymbolTable
70
2
0
LAYER
5
50
100
AcDbSymbolTableRecord
100
AcDbLayerTableRecord
2
0
70
0
6
CONTINUOUS
0
ENDTAB
0
TABLE
2
STYLE
5
3
100
AcDbSymbolTable
70
1
0
STYLE
5
11
100
AcDbSymbolTableRecord
100
AcDbTextStyleTableRecord
2
STANDARD
70
0
0
ENDTAB
0
TABLE
2
VIEW
5
6
100
AcDbSymbolTable
70
0
0
ENDTAB
0
TABLE
2
UCS
5
7
100
AcDbSymbolTable
70
0
0
ENDTAB
0
TABLE
2
APPID
5
9
100
AcDbSymbolTable
70
2
0
APPID
5
12
100
AcDbSymbolTableRecord
100
AcDbRegAppTableRecord
2
ACAD
70
0
0
ENDTAB
0
TABLE
2
DIMSTYLE
5
A
100
AcDbSymbolTable
70
1
0
ENDTAB
0
TABLE
2
BLOCK_RECORD
5
1
100
AcDbSymbolTable
70
1
0
BLOCK_RECORD
5
1F
100
AcDbSymbolTableRecord
100
AcDbBlockTableRecord
2
*MODEL_SPACE
0
BLOCK_RECORD
5
1B
100
AcDbSymbolTableRecord
100
AcDbBlockTableRecord
2
*PAPER_SPACE
0
ENDTAB
0
ENDSEC
0
SECTION
2
BLOCKS
0
BLOCK
5
20
100
AcDbEntity
100
AcDbBlockBegin
2
*MODEL_SPACE
0
ENDBLK
5
21
100
AcDbEntity
100
AcDbBlockEnd
0
BLOCK
5
1C
100
AcDbEntity
100
AcDbBlockBegin
2
*PAPER_SPACE
0
ENDBLK
5
1D
100
AcDbEntity
100
AcDbBlockEnd
0
ENDSEC
0
SECTION
2
ENTITIES
0
LWPOLYLINE
5
100
100
AcDbEntity
8
0
100
AcDbPolyline
90
8
70
1
43
0.0
10
-11.931101296395729
20
147.72740616060059
10
-11.931101296395729
20
149.22740616060059
42
0.4142135623730937
10
-12.431101296395727
20
149.72740616060062
10
-13.931101296395731
20
149.72740616060062
42
0.4142135623730937
10
-14.431101296395729
20
149.22740616060059
10
-14.431101296395729
20
147.72740616060059
42
0.4142135623730937
10
-13.931101296395731
20
147.22740616060062
10
-12.431101296395727
20
147.22740616060059
42
0.4142135623730937
0
LWPOLYLINE
5
101
100
AcDbEntity
8
0
100
AcDbPolyline
90
15
70
1
43
0.0
10
-134.89950071809531
20
169.58990616060044
42
-0.4142135623730846
10
-134.39950071809531
20
170.08990616060044
10
-120.08650071809534
20
170.08990616060044
42
0.41421356237311585
10
-119.58650071809535
20
170.58990616060046
10
-119.58650071809532
20
183.58990616060049
42
0.41421356237309503
10
-120.08650071809534
20
184.08990616060044
10
-142.61150071809536
20
184.08990616060049
42
0.41421356237311585
10
-143.11150071809533
20
183.58990616060044
10
-143.11150071809536
20
170.58990616060044
42
0.40312425320408946
10
-142.63050071809533
20
170.09026729101564
42
-0.40312425320409023
10
-142.14950071809534
20
169.59062842143081
10
-142.14950071809534
20
169.33990616060041
42
0.41421356237309503
10
-141.64950071809534
20
168.83990616060038
10
-135.39950071809534
20
168.83990616060038
42
0.41421356237307422
10
-134.89950071809534
20
169.33990616060038
0
LWPOLYLINE
5
102
100
AcDbEntity
8
0
100
AcDbPolyline
90
8
70
1
43
0.0
10
-189.77450071809528
20
183.58990616060044
10
-189.77450071809528
20
169.33990616060032
42
0.41421356237309503
10
-189.27450071809531
20
168.83990616060032
10
-182.98650071809539
20
168.83990616060032
42
0.41421356237311585
10
-182.48650071809536
20
169.33990616060038
10
-182.48650071809539
20
183.58990616060049
42
0.41421356237309503
10
-182.98650071809539
20
184.08990616060044
10
-189.27450071809531
20
184.08990616060049
42
0.41421356237311585
0
LWPOLYLINE
5
103
100
AcDbEntity
8
0
100
AcDbPolyline
90
8
70
1
43
0.0
10
-165.89850071809531
20
183.58990616060044
10
-165.89850071809531
20
169.33990616060038
42
0.41421356237309503
10
-165.39850071809531
20
168.83990616060035
10
-159.14850071809531
20
168.83990616060035
42
0.41421356237311585
10
-158.64850071809531
20
169.33990616060041
10
-158.64850071809531
20
183.58990616060049
42
0.41421356237310542
10
-159.14850071809533
20
184.08990616060044
10
-165.39850071809531
20
184.08990616060049
42
0.41421356237311585
0
LWPOLYLINE
5
104
100
AcDbEntity
8
0
100
AcDbPolyline
90
8
70
1
43
0.0
10
-118.27350071809533
20
183.58990616060044
10
-118.27350071809533
20
169.33990616060044
42
0.41421356237309503
10
-117.77350071809535
20
168.83990616060044
10
-111.52350071809535
20
168.83990616060044
42
0.41421356237311585
10
-111.02350071809533
20
169.33990616060046
10
-111.02350071809533
20
183.58990616060049
42
0.41421356237309503
10
-111.52350071809535
20
184.08990616060044
10
-117.77350071809533
20
184.08990616060049
42
0.41421356237311585
0
LWPOLYLINE
5
105
100
AcDbEntity
8
0
100
AcDbPolyline
90
8
70
1
43
0.0
10
-167.21150071809532
20
170.58990616060046
10
-167.21150071809532
20
183.58990616060049
42
0.41421356237307422
10
-167.71150071809532
20
184.08990616060044
10
-180.71150071809535
20
184.08990616060049
42
0.41421356237311585
10
-181.21150071809529
20
183.58990616060044
10
-181.21150071809535
20
170.58990616060044
42
0.41421356237307422
10
-180.71150071809538
20
170.08990616060046
10
-167.71150071809535
20
170.08990616060044
42
0.41421356237311585
0
LWPOLYLINE
5
106
100
AcDbEntity
8
0
100
AcDbPolyline
90
8
70
1
43
0.0
10
-221.98025071809531
20
170.58990616060046
10
-221.98025071809531
20
183.58990616060049
42
0.41421356237309503
10
-222.48025071809536
20
184.08990616060044
10
-235.48025071809533
20
184.08990616060049
42
0.41421356237311585
10
-235.98025071809531
20
183.58990616060044
10
-235.98025071809533
20
170.58990616060044
42
0.41421356237309503
10
-235.48025071809533
20
170.08990616060046
10
-222.48025071809536
20
170.08990616060044
42
0.41421356237311585
0
LWPOLYLINE
5
107
100
AcDbEntity
8
0
100
AcDbPolyline
90
8
70
1
43
0.0
10
-243.41150071809537
20
170.58990616060046
10
-243.41150071809537
20
183.58990616060049
42
0.41421356237307422
10
-243.91150071809531
20
184.08990616060044
10
-256.91150071809534
20
184.08990616060049
42
0.41421356237311585
10
-257.41150071809534
20
183.58990616060044
10
-257.41150071809534
20
170.58990616060044
42
0.41421356237307422
10
-256.91150071809534
20
170.08990616060046
10
-243.91150071809534
20
170.08990616060044
42
0.41421356237311585
0
LINE
5
108
100
AcDbEntity
8
0
100
AcDbLine
10
-264.3181507180953
20
183.32396923847136
30
0
11
-264.3181507180953
21
113.70657878272982
31
0
0
SPLINE
5
109
100
AcDbEntity
8
0
100
AcDbSpline
70
0
71
3
72
10
73
6
74
0
42
0.000000001
43
0.0000000001
44
0.0000000001
40
0
40
0
40
0
40
0
40
0.21752768516287754
40
0.21752768516287754
40
0.43505537032577762
40
0.43505537032577762
40
0.43505537032577762
40
0.43505537032577762
10
-264.3181507180953
20
113.70657878272985
30
0
10
-264.3181507180953
20
112.9814864988536
30
0
10
-264.4494533543018
20
112.26312977875067
30
0
10
-264.96187592156701
20
110.90738709958939
30
0
10
-265.33854725291815
20
110.2817710290398
30
0
10
-265.8181507180953
20
109.73795181613275
30
0
0
SPLINE
5
110
100
AcDbEntity
8
0
100
AcDbSpline
70
0
71
3
72
23
73
19
74
0
42
0.000000001
43
0.0000000001
44
0.0000000001
40
0
40
0
40
0
40
0
40
0.50779810442470008
40
0.50779810442470008
40
0.50779810442470008
40
0.81171817841519833
40
0.81171817841519833
40
0.81171817841519833
40
1.0007836603917499
40
1.0007836603917499
40
1.0007836603917499
40
1.0155962088494002
40
1.0155962088494002
40
1.0155962088494002
40
1.2530118996899755
40
1.2530118996899755
40
1.2530118996899755
40
2
40
2
40
2
40
2
10
-262.99527506256339
20
106.91507616060042
30
0
10
-263.41594878616263
20
106.54407680868586
30
0
10
-263.94879163417926
20
106.38342139292925
30
0
10
-264.46143905443188
20
106.42021513952974
30
0
10
-264.76826147172056
20
106.44223640761203
30
0
10
-265.0677967813246
20
106.53463109851293
30
0
10
-265.33417058841633
20
106.69174634850668
30
0
10
-265.49987893259538
20
106.78948609328862
30
0
10
-265.65276478119154
20
106.91218377309545
30
0
10
-265.78752099402897
20
107.05824439384332
30
0
10
-265.79807862153325
20
107.06968767793711
30
0
10
-265.80850252272887
20
107.08126047983677
30
0
10
-265.8181507180953
20
107.09220050506823
30
0
10
-265.95925896239419
20
107.2522022146492
30
0
10
-266.09250399425633
20
107.46328177987495
30
0
10
-266.17725253281617
20
107.67680909725051
30
0
10
-266.44389939848344
20
108.34863649250792
30
0
10
-266.3161427849667
20
109.17328188877971
30
0
10
-265.8181507180953
20
109.73795181613272
30
0
0
SPLINE
5
111
100
AcDbEntity
8
0
100
AcDbSpline
70
0
71
3
72
10
73
6
74
0
42
0.000000001
43
0.0000000001
44
0.0000000001
40
0
40
0
40
0
40
0
40
0.21752768516284313
40
0.21752768516284313
40
0.43505537032559843
40
0.43505537032559843
40
0.43505537032559843
40
0.43505537032559843
10
-262.99527506256339
20
106.91507616060042
30
0
10
-262.45145584965621
20
107.39467962577736
30
0
10
-261.82583977910639
20
107.77135095712879
30
0
10
-260.47009709994506
20
108.28377352439423
30
0
10
-259.7517403798422
20
108.41507616060083
30
0
10
-259.02664809596638
20
108.41507616060083
30
0
0
LINE
5
112
100
AcDbEntity
8
0
100
AcDbLine
10
-259.02664809596632
20
108.41507616060083
30
0
11
-203.69237429069739
21
108.41507616060082
31
0
0
SPLINE
5
113
100
AcDbEntity
8
0
100
AcDbSpline
70
0
71
3
72
8
73
4
74
0
42
0.000000001
43
0.0000000001
44
0.0000000001
40
0
40
0
40
0
40
0
40
1
40
1
40
1
40
1
10
-203.69237429069733
20
108.41507616060083
30
0
10
-201.21357903865834
20
108.41507616060083
30
0
10
-198.82312779842536
20
107.49444092356842
30
0
10
-196.98468798649634
20
105.83174282726722
30
0
0
SPLINE
5
114
100
AcDbEntity
8
0
100
AcDbSpline
70
0
71
3
72
8
73
4
74
0
42
0.000000001
43
0.0000000001
44
0.0000000001
40
0
40
0
40
0
40
0
40
1
40
1
40
1
40
1
10
-194.30161346481634
20
105.83174282726722
30
0
10
-195.06331564162531
20
105.14285393837811
30
0
10
-196.22298580968831
20
105.14285393837811
30
0
10
-196.98468798649634
20
105.83174282726722
30
0
0
SPLINE
5
115
100
AcDbEntity
8
0
100
AcDbSpline
70
0
71
3
72
8
73
4
74
0
42
0.000000001
43
0.0000000001
44
0.0000000001
40
0
40
0
40
0
40
0
40
1
40
1
40
1
40
1
10
-194.30161346481634
20
105.83174282726722
30
0
10
-192.46317365288832
20
107.49444092356842
30
0
10
-190.07272241265434
20
108.41507616060083
30
0
10
-187.59392716061632
20
108.41507616060083
30
0
0
LINE
5
116
100
AcDbEntity
8
0
100
AcDbLine
10
-187.59392716061632
20
108.41507616060083
30
0
11
-108.4425242906963
21
108.41507616060082
31
0
0
SPLINE
5
117
100
AcDbEntity
8
0
100
AcDbSpline
70
0
71
3
72
8
73
4
74
0
42
0.000000001
43
0.0000000001
44
0.0000000001
40
0
40
0
40
0
40
0
40
1
40
1
40
1
40
1
10
-108.44252429069633
20
108.41507616060082
30
0
10
-105.96372903865934
20
108.41507616060082
30
0
10
-103.57327779842453
20
107.4944409235684
30
0
10
-101.73483798649654
20
105.83174282726722
30
0
0
SPLINE
5
118
100
AcDbEntity
8
0
100
AcDbSpline
70
0
71
3
72
8
73
4
74
0
42
0.000000001
43
0.0000000001
44
0.0000000001
40
0
40
0
40
0
40
0
40
1
40
1
40
1
40
1
10
-99.051763464816418
20
105.83174282726722
30
0
10
-99.813465641624632
20
105.14285393837811
30
0
10
-100.97313580968762
20
105.14285393837811
30
0
10
-101.73483798649654
20
105.83174282726722
30
0
0
SPLINE
5
119
100
AcDbEntity
8
0
100
AcDbSpline
70
0
71
3
72
8
73
4
74
0
42
0.000000001
43
0.0000000001
44
0.0000000001
40
0
40
0
40
0
40
0
40
1
40
1
40
1
40
1
10
-99.051763464816418
20
105.83174282726722
30
0
10
-97.213323652887738
20
107.4944409235684
30
0
10
-94.822872412654036
20
108.41507616060082
30
0
10
-92.344077160615711
20
108.41507616060082
30
0
0
LINE
5
120
100
AcDbEntity
8
0
100
AcDbLine
10
-92.344077160615711
20
108.41507616060082
30
0
11
-8.4343599402243186
21
108.41507616060082
31
0
0
SPLINE
5
121
100
AcDbEntity
8
0
100
AcDbSpline
70
0
71
3
72
10
73
6
74
0
42
0.000000001
43
0.0000000001
44
0.0000000001
40
0
40
0
40
0
40
0
40
0.21752768516281767
40
0.21752768516281767
40
0.43505537032564118
40
0.43505537032564118
40
0.43505537032564118
40
0.43505537032564118
10
-8.4343599402243292
20
108.41507616060082
30
0
10
-7.7092676563482705
20
108.41507616060082
30
0
10
-6.9909109362453634
20
108.28377352439432
30
0
10
-5.635168257084012
20
107.77135095712876
30
0
10
-5.0095521865344743
20
107.39467962577733
30
0
10
-4.4657329736273361
20
106.91507616060042
30
0
0
SPLINE
5
122
100
AcDbEntity
8
0
100
AcDbSpline
70
0
71
3
72
23
73
19
74
0
42
0.000000001
43
0.0000000001
44
0.0000000001
40
0
40
0
40
0
40
0
40
0.50779810442588524
40
0.50779810442588524
40
0.50779810442588524
40
0.81171817845921379
40
0.81171817845921379
40
0.81171817845921379
40
1.0007836604444085
40
1.0007836604444085
40
1.0007836604444085
40
1.0155962088517705
40
1.0155962088517705
40
1.0155962088517705
40
1.2530118997398045
40
1.2530118997398045
40
1.2530118997398045
40
2
40
2
40
2
40
2
10
-1.6428573180953299
20
109.73795181613271
30
0
10
-1.2718579661792595
20
109.31727809253167
30
0
10
-1.1112025504232637
20
108.78443524451424
30
0
10
-1.1479962970247259
20
108.27178782426039
30
0
10
-1.170017565110637
20
107.96496540692841
30
0
10
-1.2624122560347184
20
107.6654300972841
30
0
10
-1.4195275060696344
20
107.39905629016384
30
0
10
-1.5172672508678615
20
107.23334794598287
30
0
10
-1.6399649306950148
20
107.08046209738568
30
0
10
-1.786025551460072
20
106.94570588455454
30
0
10
-1.7974688355158108
20
106.93514825708709
30
0
10
-1.8090416373679108
20
106.92472435593504
30
0
10
-1.8199816625633591
20
106.91507616060042
30
0
10
-1.9799833721925275
20
106.77396791625901
30
0
10
-2.1910629374549395
20
106.64072288438783
30
0
10
-2.4045902548795617
20
106.55597434582646
30
0
10
-3.076417650112238
20
106.2893274802255
30
0
10
-3.9010630463096074
20
106.4170840937602
30
0
10
-4.4657329736273361
20
106.91507616060042
30
0
0
SPLINE
5
123
100
AcDbEntity
8
0
100
AcDbSpline
70
0
71
3
72
10
73
6
74
0
42
0.000000001
43
0.0000000001
44
0.0000000001
40
0
40
0
40
0
40
0
40
0.21752768516284188
40
0.21752768516284188
40
0.43505537032564517
40
0.43505537032564517
40
0.43505537032564517
40
0.43505537032564517
10
-1.6428573180953299
20
109.73795181613271
30
0
10
-2.1224607832722993
20
110.28177102903987
30
0
10
-2.4991321146236523
20
110.90738709958949
30
0
10
-3.0115546818889798
20
112.26312977875091
30
0
10
-3.1428573180953503
20
112.98148649885383
30
0
10
-3.1428573180953503
20
113.70657878272982
30
0
0
LINE
5
124
100
AcDbEntity
8
0
100
AcDbLine
10
-3.1428573180953494
20
113.70657878272982
30
0
11
-3.1428573180953503
21
183.32396923847199
31
0
0
SPLINE
5
125
100
AcDbEntity
8
0
100
AcDbSpline
70
0
71
3
72
10
73
6
74
0
42
0.000000001
43
0.0000000001
44
0.0000000001
40
0
40
0
40
0
40
0
40
0.21752768516281218
40
0.21752768516281218
40
0.43505537032569869
40
0.43505537032569869
40
0.43505537032569869
40
0.43505537032569869
10
-3.1428573180953503
20
183.32396923847199
30
0
10
-3.1428573180953503
20
184.04906152234801
30
0
10
-3.0115546818889847
20
184.76741824245093
30
0
10
-2.4991321146233569
20
186.12316092161245
30
0
10
-2.1224607832717268
20
186.74877699216199
30
0
10
-1.6428573180943296
20
187.29259620506909
30
0
0
SPLINE
5
126
100
AcDbEntity
8
0
100
AcDbSpline
70
0
71
3
72
23
73
19
74
0
42
0.000000001
43
0.0000000001
44
0.0000000001
40
0
40
0
40
0
40
0
40
0.50779810442570372
40
0.50779810442570372
40
0.50779810442570372
40
0.81171817845933369
40
0.81171817845933369
40
0.81171817845933369
40
1.0007836604444253
40
1.0007836604444253
40
1.0007836604444253
40
1.0155962088514074
40
1.0155962088514074
40
1.0155962088514074
40
1.253011899740134
40
1.253011899740134
40
1.253011899740134
40
2
40
2
40
2
40
2
10
-4.4657329736273361
20
190.11547186060079
30
0
10
-4.0450592500264282
20
190.48647121251679
30
0
10
-3.5122164020090132
20
190.64712662827276
30
0
10
-2.9995689817551643
20
190.61033288167152
30
0
10
-2.6927465644227748
20
190.58831161358569
30
0
10
-2.3932112547780058
20
190.49591692266154
30
0
10
-2.1268374476575582
20
190.33880167262646
30
0
10
-1.9611291034767171
20
190.24106192782827
30
0
10
-1.8082432548798817
20
190.11836424800137
30
0
10
-1.6734870420487535
20
189.97230362723613
30
0
10
-1.662929414581567
20
189.96086034318068
30
0
10
-1.6525055134296951
20
189.94928754132872
30
0
10
-1.6428573180953299
20
189.93834751613355
30
0
10
-1.5017490737536077
20
189.77834580650406
30
0
10
-1.3685040418819472
20
189.56726624124076
30
0
10
-1.283755503320509
20
189.3537389238154
30
0
10
-1.0171086377202088
20
188.68191152858273
30
0
10
-1.1448652512550583
20
187.85726613238694
30
0
10
-1.6428573180953299
20
187.29259620506909
30
0
0
SPLINE
5
127
100
AcDbEntity
8
0
100
AcDbSpline
70
0
71
3
72
10
73
6
74
0
42
0.000000001
43
0.0000000001
44
0.0000000001
40
0
40
0
40
0
40
0
40
0.21752768516282336
40
0.21752768516282336
40
0.43505537032564823
40
0.43505537032564823
40
0.43505537032564823
40
0.43505537032564823
10
-4.4657329736273423
20
190.11547186060079
30
0
10
-5.0095521865344548
20
189.63586839542384
30
0
10
-5.6351682570839801
20
189.25919706407257
30
0
10
-6.9909109362454238
20
188.74677449680723
30
0
10
-7.7092676563483575
20
188.61547186060096
30
0
10
-8.4343599402243292
20
188.61547186060096
30
0
0
LINE
5
128
100
AcDbEntity
8
0
100
AcDbLine
10
-8.4343599402243292
20
188.61547186060102
30
0
11
-92.199451222771728
21
188.61547186060037
31
0
0
SPLINE
5
129
100
AcDbEntity
8
0
100
AcDbSpline
70
0
71
3
72
8
73
4
74
0
42
0.000000001
43
0.0000000001
44
0.0000000001
40
0
40
0
40
0
40
0
40
1
40
1
40
1
40
1
10
-92.199451222771728
20
188.61547186060037
30
0
10
-94.678246474809328
20
188.61547186060037
30
0
10
-97.068697715043129
20
189.53610709763268
30
0
10
-98.907137526971127
20
191.19880519393399
30
0
0
SPLINE
5
130
100
AcDbEntity
8
0
100
AcDbSpline
70
0
71
3
72
8
73
4
74
0
42
0.000000001
43
0.0000000001
44
0.0000000001
40
0
40
0
40
0
40
0
40
1
40
1
40
1
40
1
10
-101.59021204865195
20
191.19880519393399
30
0
10
-100.82850987184302
20
191.88769408282309
30
0
10
-99.668839703780037
20
191.88769408282309
30
0
10
-98.907137526971127
20
191.19880519393399
30
0
0
SPLINE
5
131
100
AcDbEntity
8
0
100
AcDbSpline
70
0
71
3
72
8
73
4
74
0
42
0.000000001
43
0.0000000001
44
0.0000000001
40
0
40
0
40
0
40
0
40
1
40
1
40
1
40
1
10
-101.59021204865195
20
191.19880519393399
30
0
10
-103.42865186058005
20
189.53610709763268
30
0
10
-105.81910310081334
20
188.61547186060037
30
0
10
-108.29789835285133
20
188.61547186060037
30
0
0
LINE
5
132
100
AcDbEntity
8
0
100
AcDbLine
10
-108.29789835285133
20
188.61547186060037
30
0
11
-187.59392714549335
21
188.61547186060037
31
0
0
SPLINE
5
133
100
AcDbEntity
8
0
100
AcDbSpline
70
0
71
3
72
8
73
4
74
0
42
0.000000001
43
0.0000000001
44
0.0000000001
40
0
40
0
40
0
40
0
40
1
40
1
40
1
40
1
10
-187.59392714549335
20
188.61547186060037
30
0
10
-190.07272239753135
20
188.61547186060037
30
0
10
-192.46317363776535
20
189.53610709763268
30
0
10
-194.30161344969434
20
191.19880519393399
30
0
0
SPLINE
5
134
100
AcDbEntity
8
0
100
AcDbSpline
70
0
71
3
72
8
73
4
74
0
42
0.000000001
43
0.0000000001
44
0.0000000001
40
0
40
0
40
0
40
0
40
1
40
1
40
1
40
1
10
-196.98468797137429
20
191.19880519393399
30
0
10
-196.22298579456532
20
191.88769408282309
30
0
10
-195.06331562650232
20
191.88769408282309
30
0
10
-194.30161344969434
20
191.19880519393399
30
0
0
SPLINE
5
135
100
AcDbEntity
8
0
100
AcDbSpline
70
0
71
3
72
8
73
4
74
0
42
0.000000001
43
0.0000000001
44
0.0000000001
40
0
40
0
40
0
40
0
40
1
40
1
40
1
40
1
10
-196.98468797137429
20
191.19880519393399
30
0
10
-198.82312778330231
20
189.53610709763268
30
0
10
-201.21357902353637
20
188.61547186060037
30
0
10
-203.69237427557437
20
188.61547186060037
30
0
0
LINE
5
136
100
AcDbEntity
8
0
100
AcDbLine
10
-203.69237427557437
20
188.61547186060037
30
0
11
-259.02664809596638
21
188.61547186060037
31
0
0
SPLINE
5
137
100
AcDbEntity
8
0
100
AcDbSpline
70
0
71
3
72
10
73
6
74
0
42
0.000000001
43
0.0000000001
44
0.0000000001
40
0
40
0
40
0
40
0
40
0.21752768516275853
40
0.21752768516275853
40
0.43505537032561181
40
0.43505537032561181
40
0.43505537032561181
40
0.43505537032561181
10
-259.02664809596638
20
188.61547186060037
30
0
10
-259.7517403798422
20
188.61547186060037
30
0
10
-260.47009709994506
20
188.74677449680695
30
0
10
-261.82583977910639
20
189.2591970640724
30
0
10
-262.45145584965621
20
189.63586839542381
30
0
10
-262.99527506256339
20
190.11547186060079
30
0
0
SPLINE
5
138
100
AcDbEntity
8
0
100
AcDbSpline
70
0
71
3
72
23
73
19
74
0
42
0.000000001
43
0.0000000001
44
0.0000000001
40
0
40
0
40
0
40
0
40
0.50779810442591078
40
0.50779810442591078
40
0.50779810442591078
40
0.81171817846653149
40
0.81171817846653149
40
0.81171817846653149
40
1.0007836604527141
40
1.0007836604527141
40
1.0007836604527141
40
1.0155962088518216
40
1.0155962088518216
40
1.0155962088518216
40
1.2530118997478268
40
1.2530118997478268
40
1.2530118997478268
40
2
40
2
40
2
40
2
10
-265.8181507180953
20
187.29259620506843
30
0
10
-266.18915007001158
20
187.71326992867031
30
0
10
-266.34980548576669
20
188.24611277668711
30
0
10
-266.31301173916518
20
188.75876019694095
30
0
10
-266.29099047107877
20
189.06558261428023
30
0
10
-266.19859578015087
20
189.36511792393151
30
0
10
-266.0414805301092
20
189.63149173105674
30
0
10
-265.94374078530853
20
189.79720007523767
30
0
10
-265.82104310547902
20
189.95008592383414
30
0
10
-265.67498248471122
20
190.08484213666446
30
0
10
-265.66353920066177
20
190.09539976412589
30
0
10
-265.65196639881685
20
190.10582366527137
30
0
10
-265.64102637362737
20
190.11547186060079
30
0
10
-265.48102466399075
20
190.25658010494865
30
0
10
-265.26994509872111
20
190.38982513682214
30
0
10
-265.05641778128899
20
190.47457367538351
30
0
10
-264.38459038606248
20
190.74122054097276
30
0
10
-263.55994498986956
20
190.61346392743081
30
0
10
-262.99527506256339
20
190.11547186060079
30
0
0
SPLINE
5
139
100
AcDbEntity
8
0
100
AcDbSpline
70
0
71
3
72
10
73
6
74
0
42
0.000000001
43
0.0000000001
44
0.0000000001
40
0
40
0
40
0
40
0
40
0.2175276851628242
40
0.2175276851628242
40
0.4350553703256364
40
0.4350553703256364
40
0.4350553703256364
40
0.4350553703256364
10
-265.8181507180953
20
187.29259620506843
30
0
10
-265.33854725291826
20
186.74877699216148
30
0
10
-264.96187592156696
20
186.12316092161183
30
0
10
-264.4494533543018
20
184.76741824245053
30
0
10
-264.3181507180953
20
184.04906152234747
30
0
10
-264.3181507180953
20
183.32396923847136
30
0
0
SPLINE
5
140
100
AcDbEntity
8
0
100
AcDbSpline
70
2
71
3
72
14
73
10
74
0
42
0.000000001
43
0.0000000001
44
0.0000000001
40
-4
40
-4
40
-4
40
-4
40
-3
40
-3
40
-2
40
-2
40
-1
40
-1
40
0
40
0
40
0
40
0
10
-30.055550389217327
20
148.51461951929019
30
0
10
-30.055550389217327
20
147.90710629447651
30
0
10
-29.56306361403033
20
147.41461951929051
30
0
10
-28.34803716440333
20
147.41461951929051
30
0
10
-27.855550389217328
20
147.90710629447651
30
0
10
-27.855550389217328
20
149.12213274410391
30
0
10
-28.34803716440333
20
149.6146195192905
30
0
10
-29.56306361403033
20
149.6146195192905
30
0
10
-30.055550389217327
20
149.12213274410391
30
0
10
-30.055550389217327
20
148.51461951929019
30
0
0
SPLINE
5
141
100
AcDbEntity
8
0
100
AcDbSpline
70
2
71
3
72
14
73
10
74
0
42
0.000000001
43
0.0000000001
44
0.0000000001
40
-4
40
-4
40
-4
40
-4
40
-3
40
-3
40
-2
40
-2
40
-1
40
-1
40
0
40
0
40
0
40
0
10
-101.49330072565652
20
107.31507616060043
30
0
10
-101.49330072565652
20
106.70756293578671
30
0
10
-101.00081395046983
20
106.21507616060012
30
0
10
-99.785787500842417
20
106.21507616060012
30
0
10
-99.293300725656451
20
106.70756293578671
30
0
10
-99.293300725656451
20
107.92258938541411
30
0
10
-99.785787500842417
20
108.41507616060012
30
0
10
-101.00081395046983
20
108.41507616060012
30
0
10
-101.49330072565652
20
107.92258938541411
30
0
10
-101.49330072565652
20
107.31507616060043
30
0
0
SPLINE
5
142
100
AcDbEntity
8
0
100
AcDbSpline
70
2
71
3
72
14
73
10
74
0
42
0.000000001
43
0.0000000001
44
0.0000000001
40
-4
40
-4
40
-4
40
-4
40
-3
40
-3
40
-2
40
-2
40
-1
40
-1
40
0
40
0
40
0
40
0
10
-265.41815071809538
20
108.41507616060014
30
0
10
-265.41815071809538
20
107.80756293578645
30
0
10
-264.92566394290833
20
107.31507616060043
30
0
10
-263.7106374932813
20
107.31507616060043
30
0
10
-263.21815071809539
20
107.80756293578645
30
0
10
-263.21815071809539
20
109.02258938541453
30
0
10
-263.7106374932813
20
109.51507616060054
30
0
10
-264.92566394290833
20
109.51507616060054
30
0
10
-265.41815071809538
20
109.02258938541453
30
0
10
-265.41815071809538
20
108.41507616060014
30
0
0
SPLINE
5
143
100
AcDbEntity
8
0
100
AcDbSpline
70
2
71
3
72
14
73
10
74
0
42
0.000000001
43
0.0000000001
44
0.0000000001
40
-4
40
-4
40
-4
40
-4
40
-3
40
-3
40
-2
40
-2
40
-1
40
-1
40
0
40
0
40
0
40
0
10
-4.2428573180953437
20
108.41507616060082
30
0
10
-4.2428573180953437
20
107.80756293578641
30
0
10
-3.7503705429083301
20
107.31507616060043
30
0
10
-2.5353440932813398
20
107.31507616060043
30
0
10
-2.0428573180953498
20
107.80756293578641
30
0
10
-2.0428573180953498
20
109.02258938541452
30
0
10
-2.5353440932813398
20
109.51507616060053
30
0
10
-3.7503705429083301
20
109.51507616060053
30
0
10
-4.2428573180953437
20
109.02258938541452
30
0
10
-4.2428573180953437
20
108.41507616060082
30
0
0
SPLINE
5
144
100
AcDbEntity
8
0
100
AcDbSpline
70
2
71
3
72
14
73
10
74
0
42
0.000000001
43
0.0000000001
44
0.0000000001
40
-4
40
-4
40
-4
40
-4
40
-3
40
-3
40
-2
40
-2
40
-1
40
-1
40
0
40
0
40
0
40
0
10
-196.74315072565633
20
107.31507616060043
30
0
10
-196.74315072565633
20
106.70756293578674
30
0
10
-196.25066395047037
20
106.21507616060013
30
0
10
-195.03563750084334
20
106.21507616060013
30
0
10
-194.54315072565635
20
106.70756293578674
30
0
10
-194.54315072565635
20
107.92258938541414
30
0
10
-195.03563750084334
20
108.41507616060012
30
0
10
-196.25066395047037
20
108.41507616060012
30
0
10
-196.74315072565633
20
107.92258938541414
30
0
10
-196.74315072565633
20
107.31507616060043
30
0
0
LWPOLYLINE
5
145
100
AcDbEntity
8
0
100
AcDbPolyline
90
8
70
1
43
0.0
10
-7.7467904053263297
20
151.53990616059991
10
-7.7467904053263297
20
164.53990616059994
42
0.4142135623730937
10
-8.2467904053263279
20
165.03990616059994
10
-21.24679040532633
20
165.03990616059994
42
0.41421356237309503
10
-21.746790405326326
20
164.53990616059994
10
-21.746790405326326
20
151.53990616059988
42
0.41421356237309503
10
-21.24679040532633
20
151.03990616059991
10
-8.2467904053263297
20
151.03990616059988
42
0.41421356237310542
0
LWPOLYLINE
5
146
100
AcDbEntity
8
0
100
AcDbPolyline
90
8
70
1
43
0.0
10
-21.24679040532633
20
112.93990616059983
42
-0.41421356237309503
10
-21.746790405326326
20
113.43990616059983
10
-21.746790405326337
20
126.43990616059986
42
-0.41421356237309503
10
-21.24679040532633
20
126.93990616059986
10
-8.2467904053263279
20
126.93990616059986
42
-0.4142135623730937
10
-7.7467904053263297
20
126.43990616059986
10
-7.7467904053263226
20
113.43990616059983
42
-0.41421356237309503
10
-8.2467904053263297
20
112.93990616059983
0
LWPOLYLINE
5
147
100
AcDbEntity
8
0
100
AcDbPolyline
90
8
70
1
43
0.0
10
-7.7467904053263226
20
132.48990616059987
42
-0.41421356237309503
10
-8.2467904053263297
20
131.98990616059987
10
-21.24679040532633
20
131.98990616059987
42
-0.41421356237309503
10
-21.746790405326326
20
132.48990616059987
10
-21.746790405326337
20
145.4899061605999
42
-0.4142135623730846
10
-21.24679040532633
20
145.9899061605999
10
-8.2467904053263279
20
145.9899061605999
42
-0.4142135623730937
10
-7.7467904053263297
20
145.4899061605999
0
LWPOLYLINE
5
148
100
AcDbEntity
8
0
100
AcDbPolyline
90
8
70
1
43
0.0
10
-207.69275071809534
20
113.43990616060034
42
-0.41421356237309503
10
-208.19275071809534
20
112.93990616060034
10
-221.19275071809537
20
112.93990616060034
42
-0.41421356237307422
10
-221.69275071809534
20
113.43990616060034
10
-221.69275071809534
20
126.43990616060036
42
-0.41421356237309503
10
-221.19275071809534
20
126.93990616060036
10
-208.19275071809531
20
126.93990616060036
42
-0.41421356237307422
10
-207.69275071809534
20
126.43990616060036
0
LWPOLYLINE
5
149
100
AcDbEntity
8
0
100
AcDbPolyline
90
8
70
1
43
0.0
10
-131.49275071809535
20
113.43990616060034
42
-0.41421356237309503
10
-131.99275071809535
20
112.93990616060034
10
-144.99275071809532
20
112.93990616060034
42
-0.41421356237309503
10
-145.49275071809535
20
113.43990616060034
10
-145.49275071809535
20
126.43990616060036
42
-0.41421356237309503
10
-144.99275071809532
20
126.93990616060036
10
-131.99275071809535
20
126.93990616060036
42
-0.41421356237309503
10
-131.49275071809535
20
126.43990616060036
0
LWPOLYLINE
5
150
100
AcDbEntity
8
0
100
AcDbPolyline
90
8
70
1
43
0.0
10
-74.342750718095431
20
113.43990616060034
10
-74.342750718095431
20
126.43990616060036
42
0.41421356237309503
10
-74.842750718095431
20
126.93990616060036
10
-87.842750718095431
20
126.93990616060036
42
0.41421356237309503
10
-88.342750718095431
20
126.43990616060036
10
-88.342750718095417
20
113.43990616060034
42
0.41421356237309503
10
-87.842750718095431
20
112.93990616060036
10
-74.842750718095431
20
112.93990616060034
42
0.41421356237309503
0
LWPOLYLINE
5
151
100
AcDbEntity
8
0
100
AcDbPolyline
90
8
70
1
43
0.0
10
-88.630250718095425
20
151.5399061606004
42
-0.41421356237315748
10
-89.130250718095539
20
151.03990616060037
10
-102.13025071809543
20
151.0399061606004
42
-0.41421356237309503
10
-102.63025071809543
20
151.5399061606004
10
-102.63025071809544
20
164.53990616060042
42
-0.41421356237309503
10
-102.13025071809543
20
165.03990616060042
10
-89.130250718095539
20
165.03990616060042
42
-0.41421356237315748
10
-88.630250718095439
20
164.53990616060042
0
LWPOLYLINE
5
152
100
AcDbEntity
8
0
100
AcDbPolyline
90
8
70
1
43
0.0
10
-79.105250718095434
20
132.48990616060036
10
-79.105250718095434
20
145.48990616060038
42
0.41421356237309503
10
-79.605250718095434
20
145.98990616060038
10
-92.605250718095533
20
145.98990616060038
42
0.4142135623730222
10
-93.105250718095434
20
145.48990616060041
10
-93.105250718095419
20
132.48990616060038
42
0.41421356237303258
10
-92.605250718095533
20
131.98990616060036
10
-79.605250718095434
20
131.98990616060036
42
0.4142135623730846
0
LWPOLYLINE
5
153
100
AcDbEntity
8
0
100
AcDbPolyline
90
8
70
1
43
0.0
10
-245.79275071809531
20
113.43990616060034
42
-0.41421356237309503
10
-246.29275071809531
20
112.93990616060034
10
-259.29275071809531
20
112.93990616060034
42
-0.41421356237311585
10
-259.79275071809536
20
113.43990616060034
10
-259.79275071809536
20
126.43990616060036
42
-0.41421356237309503
10
-259.29275071809536
20
126.93990616060036
10
-246.29275071809533
20
126.93990616060036
42
-0.41421356237311585
10
-245.79275071809531
20
126.43990616060036
0
LWPOLYLINE
5
154
100
AcDbEntity
8
0
100
AcDbPolyline
90
8
70
1
43
0.0
10
-98.155250718095431
20
132.48990616060036
10
-98.155250718095431
20
145.48990616060038
42
0.41421356237309503
10
-98.655250718095431
20
145.98990616060038
10
-111.65525071809533
20
145.98990616060038
42
0.4142135623730846
10
-112.15525071809535
20
145.48990616060041
10
-112.15525071809532
20
132.48990616060038
42
0.41421356237309503
10
-111.65525071809533
20
131.98990616060036
10
-98.655250718095431
20
131.98990616060036
42
0.4142135623730846
0
LWPOLYLINE
5
155
100
AcDbEntity
8
0
100
AcDbPolyline
90
8
70
1
43
0.0
10
-188.64275071809533
20
113.43990616060034
42
-0.41421356237309503
10
-189.14275071809533
20
112.93990616060034
10
-202.14275071809536
20
112.93990616060034
42
-0.41421356237311585
10
-202.64275071809539
20
113.43990616060034
10
-202.64275071809539
20
126.43990616060036
42
-0.41421356237309503
10
-202.14275071809539
20
126.93990616060036
10
-189.14275071809539
20
126.93990616060036
42
-0.41421356237311585
10
-188.64275071809533
20
126.43990616060036
0
LWPOLYLINE
5
156
100
AcDbEntity
8
0
100
AcDbPolyline
90
8
70
1
43
0.0
10
-169.59275071809532
20
113.43990616060034
42
-0.41421356237309503
10
-170.09275071809532
20
112.93990616060034
10
-183.09275071809532
20
112.93990616060034
42
-0.41421356237309503
10
-183.59275071809532
20
113.43990616060034
10
-183.59275071809532
20
126.43990616060036
42
-0.41421356237309503
10
-183.09275071809532
20
126.93990616060036
10
-170.09275071809532
20
126.93990616060036
42
-0.41421356237309503
10
-169.59275071809532
20
126.43990616060036
0
LWPOLYLINE
5
157
100
AcDbEntity
8
0
100
AcDbPolyline
90
8
70
1
43
0.0
10
-38.624000718095424
20
132.48990616060038
42
-0.41421356237309503
10
-39.124000718095431
20
131.98990616060036
10
-52.124000718095431
20
131.98990616060036
42
-0.41421356237309503
10
-52.624000718095431
20
132.48990616060038
10
-52.624000718095438
20
145.48990616060041
42
-0.4142135623730846
10
-52.124000718095431
20
145.98990616060038
10
-39.124000718095431
20
145.98990616060038
42
-0.41421356237309503
10
-38.624000718095431
20
145.48990616060038
0
LWPOLYLINE
5
158
100
AcDbEntity
8
0
100
AcDbPolyline
90
8
70
1
43
0.0
10
-68.792750718095434
20
112.93990616060036
42
-0.41421356237309503
10
-69.292750718095434
20
113.43990616060034
10
-69.292750718095434
20
126.43990616060036
42
-0.41421356237309503
10
-68.792750718095434
20
126.93990616060036
10
-55.792750718095434
20
126.93990616060034
42
-0.41421356237309503
10
-55.292750718095434
20
126.43990616060036
10
-55.292750718095427
20
113.43990616060034
42
-0.41421356237309503
10
-55.792750718095434
20
112.93990616060034
0
LWPOLYLINE
5
159
100
AcDbEntity
8
0
100
AcDbPolyline
90
8
70
1
43
0.0
10
-202.93025071809535
20
151.5399061606004
42
-0.41421356237309503
10
-203.43025071809535
20
151.03990616060037
10
-216.43025071809535
20
151.03990616060037
42
-0.41421356237307422
10
-216.93025071809532
20
151.5399061606004
10
-216.93025071809532
20
164.53990616060042
42
-0.41421356237309503
10
-216.43025071809532
20
165.03990616060042
10
-203.43025071809532
20
165.03990616060042
42
-0.41421356237307422
10
-202.93025071809535
20
164.53990616060042
0
LWPOLYLINE
5
160
100
AcDbEntity
8
0
100
AcDbPolyline
90
8
70
1
43
0.0
10
-117.20525071809533
20
132.48990616060038
42
-0.41421356237309503
10
-117.70525071809533
20
131.98990616060036
10
-130.70525071809533
20
131.98990616060036
42
-0.41421356237309503
10
-131.20525071809533
20
132.48990616060038
10
-131.20525071809533
20
145.48990616060041
42
-0.4142135623730846
10
-130.70525071809533
20
145.98990616060038
10
-117.70525071809533
20
145.98990616060038
42
-0.41421356237309503
10
-117.20525071809533
20
145.48990616060038
0
LWPOLYLINE
5
161
100
AcDbEntity
8
0
100
AcDbPolyline
90
8
70
1
43
0.0
10
-107.68025071809534
20
151.5399061606004
42
-0.41421356237309503
10
-108.18025071809535
20
151.03990616060037
10
-121.18025071809534
20
151.03990616060037
42
-0.41421356237309503
10
-121.68025071809535
20
151.5399061606004
10
-121.68025071809535
20
164.53990616060042
42
-0.41421356237309503
10
-121.18025071809534
20
165.03990616060042
10
-108.18025071809535
20
165.03990616060042
42
-0.41421356237309503
10
-107.68025071809535
20
164.53990616060042
0
LWPOLYLINE
5
162
100
AcDbEntity
8
0
100
AcDbPolyline
90
8
70
1
43
0.0
10
-125.94275071809533
20
112.93990616060034
42
-0.41421356237309503
10
-126.44275071809533
20
113.43990616060034
10
-126.44275071809533
20
126.43990616060036
42
-0.41421356237309503
10
-125.94275071809533
20
126.93990616060036
10
-112.94275071809534
20
126.93990616060034
42
-0.41421356237309503
10
-112.44275071809534
20
126.43990616060036
10
-112.44275071809533
20
113.43990616060034
42
-0.41421356237309503
10
-112.94275071809534
20
112.93990616060034
0
LWPOLYLINE
5
163
100
AcDbEntity
8
0
100
AcDbPolyline
90
8
70
1
43
0.0
10
-197.38025071809531
20
151.03990616060037
42
-0.41421356237309503
10
-197.88025071809531
20
151.5399061606004
10
-197.88025071809531
20
164.53990616060042
42
-0.41421356237309503
10
-197.38025071809531
20
165.03990616060042
10
-184.38025071809531
20
165.03990616060042
42
-0.41421356237307422
10
-183.88025071809534
20
164.53990616060042
10
-183.88025071809534
20
151.5399061606004
42
-0.41421356237310542
10
-184.38025071809534
20
151.03990616060037
0
LWPOLYLINE
5
164
100
AcDbEntity
8
0
100
AcDbPolyline
90
8
70
1
43
0.0
10
-226.74275071809532
20
113.43990616060034
10
-226.74275071809532
20
126.43990616060036
42
0.41421356237307422
10
-227.24275071809532
20
126.93990616060036
10
-240.24275071809535
20
126.93990616060036
42
0.41421356237309503
10
-240.74275071809538
20
126.43990616060036
10
-240.74275071809535
20
113.43990616060034
42
0.41421356237307422
10
-240.24275071809538
20
112.93990616060036
10
-227.24275071809535
20
112.93990616060034
42
0.41421356237309503
0
LWPOLYLINE
5
165
100
AcDbEntity
8
0
100
AcDbPolyline
90
8
70
1
43
0.0
10
-136.25525071809531
20
132.48990616060038
42
-0.41421356237309503
10
-136.75525071809534
20
131.98990616060036
10
-149.75525071809534
20
131.98990616060036
42
-0.41421356237309503
10
-150.25525071809534
20
132.48990616060038
10
-150.25525071809534
20
145.48990616060041
42
-0.4142135623730846
10
-149.75525071809534
20
145.98990616060038
10
-136.75525071809534
20
145.98990616060038
42
-0.41421356237309503
10
-136.25525071809531
20
145.48990616060038
0
LWPOLYLINE
5
166
100
AcDbEntity
8
0
100
AcDbPolyline
90
8
70
1
43
0.0
10
-159.28025071809535
20
151.03990616060037
42
-0.41421356237309503
10
-159.78025071809535
20
151.5399061606004
10
-159.78025071809535
20
164.53990616060042
42
-0.41421356237309503
10
-159.28025071809535
20
165.03990616060042
10
-146.28025071809535
20
165.03990616060042
42
-0.41421356237309503
10
-145.78025071809532
20
164.53990616060042
10
-145.78025071809532
20
151.5399061606004
42
-0.41421356237310542
10
-146.28025071809535
20
151.03990616060037
0
LWPOLYLINE
5
167
100
AcDbEntity
8
0
100
AcDbPolyline
90
8
70
1
43
0.0
10
-126.73025071809533
20
151.5399061606004
42
-0.41421356237309503
10
-127.23025071809533
20
151.03990616060037
10
-140.23025071809533
20
151.03990616060037
42
-0.41421356237309503
10
-140.73025071809533
20
151.5399061606004
10
-140.73025071809533
20
164.53990616060042
42
-0.41421356237309503
10
-140.23025071809533
20
165.03990616060042
10
-127.23025071809533
20
165.03990616060042
42
-0.41421356237309503
10
-126.73025071809533
20
164.53990616060042
0
LWPOLYLINE
5
168
100
AcDbEntity
8
0
100
AcDbPolyline
90
8
70
1
43
0.0
10
-212.45525071809536
20
132.48990616060038
42
-0.41421356237309503
10
-212.95525071809536
20
131.98990616060036
10
-225.95525071809536
20
131.98990616060036
42
-0.41421356237307422
10
-226.45525071809533
20
132.48990616060038
10
-226.45525071809533
20
145.48990616060041
42
-0.4142135623730846
10
-225.95525071809533
20
145.98990616060038
10
-212.95525071809533
20
145.98990616060038
42
-0.41421356237307422
10
-212.45525071809536
20
145.48990616060038
0
LWPOLYLINE
5
169
100
AcDbEntity
8
0
100
AcDbPolyline
90
8
70
1
43
0.0
10
-150.54275071809531
20
113.43990616060034
42
-0.41421356237309503
10
-151.04275071809531
20
112.93990616060034
10
-164.04275071809533
20
112.93990616060034
42
-0.41421356237309503
10
-164.54275071809533
20
113.43990616060034
10
-164.54275071809533
20
126.43990616060036
42
-0.41421356237309503
10
-164.04275071809533
20
126.93990616060036
10
-151.04275071809531
20
126.93990616060036
42
-0.41421356237309503
10
-150.54275071809531
20
126.43990616060036
0
LWPOLYLINE
5
170
100
AcDbEntity
8
0
100
AcDbPolyline
90
8
70
1
43
0.0
10
-193.40525071809535
20
132.48990616060038
42
-0.41421356237309503
10
-193.90525071809535
20
131.98990616060036
10
-206.90525071809535
20
131.98990616060036
42
-0.41421356237307422
10
-207.40525071809532
20
132.48990616060038
10
-207.40525071809532
20
145.48990616060041
42
-0.4142135623730846
10
-206.90525071809532
20
145.98990616060038
10
-193.90525071809532
20
145.98990616060038
42
-0.41421356237307422
10
-193.40525071809535
20
145.48990616060038
0
LWPOLYLINE
5
171
100
AcDbEntity
8
0
100
AcDbPolyline
90
8
70
1
43
0.0
10
-93.392750718095414
20
113.43990616060034
42
-0.41421356237309503
10
-93.892750718095428
20
112.93990616060034
10
-106.89275071809533
20
112.93990616060036
42
-0.41421356237309503
10
-107.39275071809531
20
113.43990616060034
10
-107.39275071809533
20
126.43990616060036
42
-0.41421356237309503
10
-106.89275071809533
20
126.93990616060036
10
-93.892750718095428
20
126.93990616060034
42
-0.41421356237309503
10
-93.392750718095442
20
126.43990616060036
0
LWPOLYLINE
5
172
100
AcDbEntity
8
0
100
AcDbPolyline
90
8
70
1
43
0.0
10
-36.242750718095422
20
113.43990616060034
42
-0.41421356237309503
10
-36.742750718095429
20
112.93990616060034
10
-49.742750718095429
20
112.93990616060036
42
-0.41421356237309503
10
-50.242750718095422
20
113.43990616060034
10
-50.242750718095436
20
126.43990616060036
42
-0.41421356237309503
10
-49.742750718095429
20
126.93990616060036
10
-36.742750718095429
20
126.93990616060034
42
-0.41421356237309503
10
-36.242750718095429
20
126.43990616060036
0
LWPOLYLINE
5
173
100
AcDbEntity
8
0
100
AcDbPolyline
90
8
70
1
43
0.0
10
-60.055250718095422
20
132.48990616060038
42
-0.41421356237309503
10
-60.555250718095422
20
131.98990616060036
10
-73.555250718095436
20
131.98990616060036
42
-0.41421356237309503
10
-74.055250718095436
20
132.48990616060038
10
-74.055250718095436
20
145.48990616060041
42
-0.4142135623730846
10
-73.555250718095436
20
145.98990616060038
10
-60.555250718095422
20
145.98990616060038
42
-0.41421356237309503
10
-60.055250718095429
20
145.48990616060038
0
LWPOLYLINE
5
174
100
AcDbEntity
8
0
100
AcDbPolyline
90
8
70
1
43
0.0
10
-243.41150071809537
20
151.5399061606004
10
-243.41150071809537
20
164.53990616060042
42
0.41421356237307422
10
-243.91150071809531
20
165.03990616060042
10
-256.91150071809534
20
165.03990616060042
42
0.41421356237309503
10
-257.41150071809534
20
164.53990616060042
10
-257.41150071809534
20
151.5399061606004
42
0.41421356237307422
10
-256.91150071809534
20
151.0399061606004
10
-243.91150071809534
20
151.03990616060037
42
0.41421356237310542
0
LWPOLYLINE
5
175
100
AcDbEntity
8
0
100
AcDbPolyline
90
8
70
1
43
0.0
10
-155.30525071809532
20
132.48990616060038
42
-0.41421356237309503
10
-155.80525071809535
20
131.98990616060036
10
-168.80525071809535
20
131.98990616060036
42
-0.41421356237309503
10
-169.30525071809538
20
132.48990616060038
10
-169.30525071809538
20
145.48990616060041
42
-0.4142135623730846
10
-168.80525071809535
20
145.98990616060038
10
-155.80525071809535
20
145.98990616060038
42
-0.41421356237310542
10
-155.30525071809532
20
145.48990616060038
0
LWPOLYLINE
5
176
100
AcDbEntity
8
0
100
AcDbPolyline
90
8
70
1
43
0.0
10
-69.580250718095428
20
151.5399061606004
42
-0.41421356237309503
10
-70.080250718095428
20
151.03990616060037
10
-83.080250718095527
20
151.0399061606004
42
-0.41421356237303258
10
-83.580250718095414
20
151.5399061606004
10
-83.580250718095428
20
164.5399061606004
42
-0.41421356237304302
10
-83.080250718095513
20
165.03990616060042
10
-70.080250718095428
20
165.03990616060042
42
-0.41421356237309503
10
-69.580250718095428
20
164.53990616060042
0
LWPOLYLINE
5
177
100
AcDbEntity
8
0
100
AcDbPolyline
90
8
70
1
43
0.0
10
-238.64900071809532
20
132.48990616060038
42
-0.41421356237309503
10
-239.14900071809535
20
131.98990616060036
10
-252.14900071809535
20
131.98990616060036
42
-0.41421356237311585
10
-252.64900071809538
20
132.48990616060038
10
-252.64900071809538
20
145.48990616060041
42
-0.4142135623730846
10
-252.14900071809538
20
145.98990616060038
10
-239.14900071809538
20
145.98990616060038
42
-0.41421356237311585
10
-238.64900071809532
20
145.48990616060038
0
LWPOLYLINE
5
178
100
AcDbEntity
8
0
100
AcDbPolyline
90
8
70
1
43
0.0
10
-43.386500718095427
20
151.5399061606004
42
-0.41421356237309503
10
-43.886500718095434
20
151.03990616060037
10
-56.886500718095434
20
151.03990616060037
42
-0.41421356237309503
10
-57.386500718095434
20
151.5399061606004
10
-57.386500718095441
20
164.53990616060042
42
-0.41421356237309503
10
-56.886500718095434
20
165.03990616060042
10
-43.886500718095434
20
165.03990616060042
42
-0.41421356237309503
10
-43.386500718095434
20
164.53990616060042
0
LWPOLYLINE
5
179
100
AcDbEntity
8
0
100
AcDbPolyline
90
8
70
1
43
0.0
10
-221.98025071809536
20
151.5399061606004
42
-0.41421356237309503
10
-222.48025071809536
20
151.03990616060037
10
-235.48025071809533
20
151.03990616060037
42
-0.41421356237309503
10
-235.98025071809533
20
151.5399061606004
10
-235.98025071809533
20
164.53990616060042
42
-0.41421356237309503
10
-235.48025071809533
20
165.03990616060042
10
-222.48025071809536
20
165.03990616060042
42
-0.41421356237309503
10
-221.98025071809536
20
164.53990616060042
0
LWPOLYLINE
5
180
100
AcDbEntity
8
0
100
AcDbPolyline
90
8
70
1
43
0.0
10
-164.83025071809533
20
151.5399061606004
42
-0.41421356237309503
10
-165.33025071809533
20
151.03990616060037
10
-178.33025071809533
20
151.03990616060037
42
-0.41421356237311585
10
-178.83025071809539
20
151.5399061606004
10
-178.83025071809539
20
164.53990616060042
42
-0.41421356237309503
10
-178.33025071809539
20
165.03990616060042
10
-165.33025071809536
20
165.03990616060042
42
-0.41421356237311585
10
-164.83025071809533
20
164.53990616060042
0
LWPOLYLINE
5
181
100
AcDbEntity
8
0
100
AcDbPolyline
90
8
70
1
43
0.0
10
-187.85525071809531
20
131.98990616060036
42
-0.41421356237309503
10
-188.35525071809531
20
132.48990616060038
10
-188.35525071809531
20
145.48990616060041
42
-0.4142135623730846
10
-187.85525071809531
20
145.98990616060038
10
-174.85525071809531
20
145.98990616060038
42
-0.41421356237307422
10
-174.35525071809533
20
145.48990616060038
10
-174.35525071809533
20
132.48990616060036
42
-0.4142135623730846
10
-174.85525071809533
20
131.98990616060036
0
SPLINE
5
182
100
AcDbEntity
8
0
100
AcDbSpline
70
2
71
3
72
14
73
10
74
0
42
0.000000001
43
0.0000000001
44
0.0000000001
40
-4
40
-4
40
-4
40
-4
40
-3
40
-3
40
-2
40
-2
40
-1
40
-1
40
0
40
0
40
0
40
0
10
-196.74315071053434
20
189.71547186060079
30
0
10
-196.74315071053434
20
189.10795863578699
30
0
10
-196.25066393534729
20
188.61547186060096
30
0
10
-195.03563748572034
20
188.61547186060096
30
0
10
-194.54315071053435
20
189.10795863578699
30
0
10
-194.54315071053435
20
190.32298508541447
30
0
10
-195.03563748572034
20
190.8154718606005
30
0
10
-196.25066393534729
20
190.8154718606005
30
0
10
-196.74315071053434
20
190.32298508541447
30
0
10
-196.74315071053434
20
189.71547186060079
30
0
0
SPLINE
5
183
100
AcDbEntity
8
0
100
AcDbSpline
70
2
71
3
72
14
73
10
74
0
42
0.000000001
43
0.0000000001
44
0.0000000001
40
-4
40
-4
40
-4
40
-4
40
-3
40
-3
40
-2
40
-2
40
-1
40
-1
40
0
40
0
40
0
40
0
10
-4.2428573180953437
20
188.61547186060096
30
0
10
-4.2428573180953437
20
188.00795863578728
30
0
10
-3.7503705429083301
20
187.51547186060125
30
0
10
-2.5353440932813398
20
187.51547186060125
30
0
10
-2.0428573180943599
20
188.00795863578728
30
0
10
-2.0428573180943599
20
189.22298508541476
30
0
10
-2.5353440932813398
20
189.71547186060135
30
0
10
-3.7503705429083301
20
189.71547186060135
30
0
10
-4.2428573180953437
20
189.22298508541476
30
0
10
-4.2428573180953437
20
188.61547186060096
30
0
0
SPLINE
5
184
100
AcDbEntity
8
0
100
AcDbSpline
70
2
71
3
72
14
73
10
74
0
42
0.000000001
43
0.0000000001
44
0.0000000001
40
-4
40
-4
40
-4
40
-4
40
-3
40
-3
40
-2
40
-2
40
-1
40
-1
40
0
40
0
40
0
40
0
10
-101.34867478781123
20
189.71547186060008
30
0
10
-101.34867478781123
20
189.10795863578699
30
0
10
-100.85618801262595
20
188.61547186060037
30
0
10
-99.641161562997837
20
188.61547186060037
30
0
10
-99.148674787811828
20
189.10795863578699
30
0
10
-99.148674787811828
20
190.32298508541447
30
0
10
-99.641161562997837
20
190.8154718606005
30
0
10
-100.85618801262595
20
190.8154718606005
30
0
10
-101.34867478781123
20
190.32298508541447
30
0
10
-101.34867478781123
20
189.71547186060008
30
0
0
SPLINE
5
185
100
AcDbEntity
8
0
100
AcDbSpline
70
2
71
3
72
14
73
10
74
0
42
0.000000001
43
0.0000000001
44
0.0000000001
40
-4
40
-4
40
-4
40
-4
40
-3
40
-3
40
-2
40
-2
40
-1
40
-1
40
0
40
0
40
0
40
0
10
-265.41815071809538
20
188.61547186060037
30
0
10
-265.41815071809538
20
188.00795863578668
30
0
10
-264.9256639429093
20
187.51547186060066
30
0
10
-263.7106374932813
20
187.51547186060066
30
0
10
-263.21815071809539
20
188.00795863578668
30
0
10
-263.21815071809539
20
189.22298508541476
30
0
10
-263.7106374932813
20
189.71547186060079
30
0
10
-264.9256639429093
20
189.71547186060079
30
0
10
-265.41815071809538
20
189.22298508541476
30
0
10
-265.41815071809538
20
188.61547186060037
30
0
0
LWPOLYLINE
5
186
100
AcDbEntity
8
0
100
AcDbPolyline
90
8
70
1
43
0.0
10
-7.7467904053263226
20
170.58990616059992
42
-0.41421356237309503
10
-8.2467904053263297
20
170.08990616059992
10
-21.24679040532633
20
170.08990616059992
42
-0.41421356237309503
10
-21.746790405326326
20
170.58990616059992
10
-21.746790405326337
20
183.58990616059995
42
-0.41421356237311585
10
-21.24679040532633
20
184.08990616059998
10
-8.2467904053263279
20
184.08990616059998
42
-0.4142135623730937
10
-7.7467904053263297
20
183.58990616059998
0
LWPOLYLINE
5
187
100
AcDbEntity
8
0
100
AcDbPolyline
90
8
70
1
43
0.0
10
-38.624000718095424
20
170.58990616060044
42
-0.41421356237309503
10
-39.124000718095431
20
170.08990616060044
10
-52.124000718095431
20
170.08990616060044
42
-0.41421356237309503
10
-52.624000718095431
20
170.58990616060044
10
-52.624000718095438
20
183.58990616060044
42
-0.41421356237311585
10
-52.124000718095431
20
184.08990616060049
10
-39.124000718095431
20
184.08990616060049
42
-0.41421356237309503
10
-38.624000718095431
20
183.58990616060049
0
LWPOLYLINE
5
188
100
AcDbEntity
8
0
100
AcDbPolyline
90
8
70
1
43
0.0
10
-60.055250718095422
20
170.58990616060044
42
-0.41421356237309503
10
-60.555250718095422
20
170.08990616060044
10
-73.555250718095436
20
170.08990616060044
42
-0.41421356237309503
10
-74.055250718095436
20
170.58990616060044
10
-74.055250718095436
20
183.58990616060044
42
-0.41421356237311585
10
-73.555250718095436
20
184.08990616060049
10
-60.555250718095422
20
184.08990616060049
42
-0.41421356237309503
10
-60.055250718095429
20
183.58990616060049
0
LWPOLYLINE
5
189
100
AcDbEntity
8
0
100
AcDbPolyline
90
8
70
1
43
0.0
10
-200.54900071809533
20
170.58990616060046
10
-200.54900071809533
20
183.58990616060049
42
0.41421356237309503
10
-201.04900071809539
20
184.08990616060044
10
-214.04900071809536
20
184.08990616060049
42
0.41421356237311585
10
-214.54900071809533
20
183.58990616060044
10
-214.54900071809536
20
170.58990616060044
42
0.41421356237309503
10
-214.04900071809536
20
170.08990616060046
10
-201.04900071809539
20
170.08990616060044
42
0.41421356237311585
0
LWPOLYLINE
5
190
100
AcDbEntity
8
0
100
AcDbPolyline
90
15
70
1
43
0.0
10
-82.486500718095428
20
169.58990616060044
42
-0.41421356237299095
10
-81.986500718095527
20
170.08990616060044
42
0.4142135623731783
10
-81.486500718095428
20
170.58990616060046
10
-81.486500718095428
20
183.58990616060049
42
0.41421356237315748
10
-81.986500718095527
20
184.08990616060044
10
-94.986500718095428
20
184.08990616060049
42
0.41421356237311585
10
-95.486500718095442
20
183.58990616060044
10
-95.486500718095414
20
170.58990616060044
42
0.41421356237309503
10
-94.986500718095428
20
170.08990616060046
10
-90.236500718095428
20
170.08990616060046
42
-0.4142135623730846
10
-89.736500718095428
20
169.58990616060044
10
-89.736500718095428
20
169.33990616060046
42
0.41421356237309503
10
-89.236500718095414
20
168.83990616060046
10
-82.986500718095414
20
168.83990616060046
42
0.41421356237309503
10
-82.486500718095428
20
169.33990616060046
0
ENDSEC
0
SECTION
2
OBJECTS
0
DICTIONARY
5
C
100
AcDbDictionary
3
ACAD_GROUP
350
D
3
ACAD_MLINESTYLE
350
17
0
DICTIONARY
5
D
100
AcDbDictionary
0
DICTIONARY
5
1A
330
C
100
AcDbDictionary
0
DICTIONARY
5
17
100
AcDbDictionary
0
ENDSEC
0
EOF
