0
SECTION
2
HEADER
9
$INSUNITS
70
4
9
$ACADVER
1
AC1014
9
$HANDSEED
5
FFFF
0
ENDSEC
0
SECTION
2
TABLES
0
TABLE
2
VPORT
5
8
100
AcDbSymbolTable
0
ENDTAB
0
TABLE
2
LTYPE
5
5
100
AcDbSymbolTable
0
LTYPE
5
14
100
AcDbSymbolTableRecord
100
AcDbLinetypeTableRecord
2
BYBLOCK
70
0
0
LTYPE
5
15
100
AcDbSymbolTableRecord
100
AcDbLinetypeTableRecord
2
BYLAYER
70
0
0
ENDTAB
0
TABLE
2
LAYER
5
2
100
AcDbSymbolTable
70
2
0
LAYER
5
50
100
AcDbSymbolTableRecord
100
AcDbLayerTableRecord
2
0
70
0
6
CONTINUOUS
0
ENDTAB
0
TABLE
2
STYLE
5
3
100
AcDbSymbolTable
70
1
0
STYLE
5
11
100
AcDbSymbolTableRecord
100
AcDbTextStyleTableRecord
2
STANDARD
70
0
0
ENDTAB
0
TABLE
2
VIEW
5
6
100
AcDbSymbolTable
70
0
0
ENDTAB
0
TABLE
2
UCS
5
7
100
AcDbSymbolTable
70
0
0
ENDTAB
0
TABLE
2
APPID
5
9
100
AcDbSymbolTable
70
2
0
APPID
5
12
100
AcDbSymbolTableRecord
100
AcDbRegAppTableRecord
2
ACAD
70
0
0
ENDTAB
0
TABLE
2
DIMSTYLE
5
A
100
AcDbSymbolTable
70
1
0
ENDTAB
0
TABLE
2
BLOCK_RECORD
5
1
100
AcDbSymbolTable
70
1
0
BLOCK_RECORD
5
1F
100
AcDbSymbolTableRecord
100
AcDbBlockTableRecord
2
*MODEL_SPACE
0
BLOCK_RECORD
5
1B
100
AcDbSymbolTableRecord
100
AcDbBlockTableRecord
2
*PAPER_SPACE
0
ENDTAB
0
ENDSEC
0
SECTION
2
BLOCKS
0
BLOCK
5
20
100
AcDbEntity
100
AcDbBlockBegin
2
*MODEL_SPACE
0
ENDBLK
5
21
100
AcDbEntity
100
AcDbBlockEnd
0
BLOCK
5
1C
100
AcDbEntity
100
AcDbBlockBegin
2
*PAPER_SPACE
0
ENDBLK
5
1D
100
AcDbEntity
100
AcDbBlockEnd
0
ENDSEC
0
SECTION
2
ENTITIES
0
LWPOLYLINE
5
100
100
AcDbEntity
8
0
100
AcDbPolyline
90
8
70
1
43
0.0
10
-111.77500000000002
20
73.174999999999997
10
-111.77500000000002
20
60.17499999999999
42
0.41421356237309503
10
-111.27500000000001
20
59.674999999999997
10
-79.224999999999994
20
59.674999999999997
42
0.41421356237309503
10
-78.725000000000009
20
60.17499999999999
10
-78.724999999999994
20
73.174999999999997
42
0.41421356237309503
10
-79.224999999999994
20
73.674999999999997
10
-111.27500000000001
20
73.674999999999997
42
0.41421356237308982
0
LWPOLYLINE
5
101
100
AcDbEntity
8
0
100
AcDbPolyline
90
8
70
1
43
0.0
10
-54.125000000000007
20
40.625
42
-0.41421356237309503
10
-54.625
20
41.125
10
-54.625
20
54.125000000000007
42
-0.41421356237309503
10
-54.125000000000007
20
54.625
10
-41.125
20
54.625
42
-0.41421356237309503
10
-40.625
20
54.125000000000007
10
-40.625
20
41.125
42
-0.41421356237309503
10
-41.125
20
40.625
0
LWPOLYLINE
5
102
100
AcDbEntity
8
0
100
AcDbPolyline
90
8
70
1
43
0.0
10
-97.775000000000006
20
3.0250000000000021
10
-97.775000000000006
20
16.024999999999999
42
0.41421356237309631
10
-98.275000000000006
20
16.525000000000006
10
-111.27500000000001
20
16.525000000000002
42
0.41421356237310675
10
-111.77500000000002
20
16.024999999999999
10
-111.77500000000002
20
3.0249999999999999
42
0.41421356237309437
10
-111.27500000000001
20
2.5249999999999995
10
-98.275000000000006
20
2.5249999999999999
42
0.41421356237310675
0
LWPOLYLINE
5
103
100
AcDbEntity
8
0
100
AcDbPolyline
90
8
70
1
43
0.0
10
-2.5249999999999999
20
3.0249999999999999
42
-0.41421356237309437
10
-3.0249999999999999
20
2.5249999999999999
10
-16.024999999999999
20
2.5249999999999986
42
-0.41421356237309309
10
-16.525000000000002
20
3.0249999999999999
10
-16.525000000000002
20
16.024999999999999
42
-0.41421356237309243
10
-16.024999999999999
20
16.525000000000002
10
-3.0250000000000021
20
16.525000000000002
42
-0.41421356237309598
10
-2.5249999999999999
20
16.024999999999999
0
LWPOLYLINE
5
104
100
AcDbEntity
8
0
100
AcDbPolyline
90
8
70
1
43
0.0
10
-40.625
20
22.074999999999999
42
-0.41421356237309503
10
-41.125
20
21.575000000000003
10
-54.125000000000007
20
21.575000000000003
42
-0.41421356237309503
10
-54.625
20
22.074999999999999
10
-54.625
20
35.075000000000003
42
-0.41421356237309503
10
-54.125000000000007
20
35.575000000000003
10
-41.125
20
35.575000000000003
42
-0.41421356237309503
10
-40.625
20
35.075000000000003
0
LWPOLYLINE
5
105
100
AcDbEntity
8
0
100
AcDbPolyline
90
8
70
1
43
0.0
10
-21.575000000000003
20
3.0249999999999999
42
-0.41421356237309537
10
-22.074999999999999
20
2.5249999999999999
10
-35.075000000000003
20
2.5250000000000004
42
-0.4142135623730957
10
-35.575000000000003
20
3.0249999999999999
10
-35.575000000000003
20
16.024999999999999
42
-0.41421356237309503
10
-35.075000000000003
20
16.525000000000002
10
-22.075000000000003
20
16.525000000000002
42
-0.41421356237309631
10
-21.575000000000003
20
16.024999999999999
0
LWPOLYLINE
5
106
100
AcDbEntity
8
0
100
AcDbPolyline
90
8
70
1
43
0.0
10
-2.525000000000003
20
41.125
42
-0.41421356237309437
10
-3.0249999999999999
20
40.625
10
-16.024999999999999
20
40.625
42
-0.4142135623730937
10
-16.525000000000002
20
41.125
10
-16.524999999999999
20
54.125000000000007
42
-0.41421356237309503
10
-16.024999999999999
20
54.625
10
-3.0250000000000021
20
54.625
42
-0.41421356237309537
10
-2.5249999999999999
20
54.125000000000007
0
LWPOLYLINE
5
107
100
AcDbEntity
8
0
100
AcDbPolyline
90
8
70
1
43
0.0
10
-78.724999999999994
20
3.0249999999999999
42
-0.41421356237309664
10
-79.224999999999994
20
2.5249999999999999
10
-92.224999999999994
20
2.5249999999999941
42
-0.41421356237309437
10
-92.725000000000009
20
3.0249999999999999
10
-92.725000000000009
20
16.024999999999999
42
-0.41421356237310675
10
-92.224999999999994
20
16.525000000000002
10
-79.224999999999994
20
16.525000000000002
42
-0.41421356237309764
10
-78.724999999999994
20
16.024999999999999
0
LWPOLYLINE
5
108
100
AcDbEntity
8
0
100
AcDbPolyline
90
8
70
1
43
0.0
10
-59.675000000000004
20
41.125
42
-0.41421356237309503
10
-60.174999999999997
20
40.625
10
-73.174999999999997
20
40.625
42
-0.41421356237309503
10
-73.674999999999997
20
41.125
10
-73.674999999999997
20
54.125000000000007
42
-0.41421356237309503
10
-73.174999999999997
20
54.625
10
-60.174999999999997
20
54.625
42
-0.41421356237309503
10
-59.675000000000004
20
54.125000000000007
0
LWPOLYLINE
5
109
100
AcDbEntity
8
0
100
AcDbPolyline
90
8
70
1
43
0.0
10
-21.574999999999996
20
60.174999999999997
42
-0.41421356237309764
10
-22.074999999999999
20
59.675000000000004
10
-35.075000000000003
20
59.675000000000011
42
-0.41421356237309764
10
-35.575000000000003
20
60.174999999999997
10
-35.575000000000003
20
73.174999999999997
42
-0.41421356237309503
10
-35.075000000000003
20
73.674999999999997
10
-22.074999999999999
20
73.674999999999997
42
-0.41421356237309503
10
-21.575000000000003
20
73.174999999999997
0
LWPOLYLINE
5
110
100
AcDbEntity
8
0
100
AcDbPolyline
90
8
70
1
43
0.0
10
-40.625
20
3.0249999999999999
42
-0.41421356237309404
10
-41.125
20
2.5249999999999999
10
-54.125000000000007
20
2.525000000000003
42
-0.41421356237309437
10
-54.625
20
3.0249999999999999
10
-54.625
20
16.024999999999999
42
-0.4142135623730937
10
-54.125000000000007
20
16.525000000000002
10
-41.125
20
16.524999999999999
42
-0.41421356237309503
10
-40.625
20
16.024999999999999
0
LWPOLYLINE
5
111
100
AcDbEntity
8
0
100
AcDbPolyline
90
8
70
1
43
0.0
10
-40.625
20
60.174999999999997
42
-0.41421356237309503
10
-41.125
20
59.675000000000004
10
-54.125000000000007
20
59.675000000000004
42
-0.41421356237309503
10
-54.625
20
60.174999999999997
10
-54.625
20
73.174999999999997
42
-0.41421356237309503
10
-54.125000000000007
20
73.674999999999997
10
-41.125
20
73.674999999999997
42
-0.41421356237309503
10
-40.625
20
73.174999999999997
0
LWPOLYLINE
5
112
100
AcDbEntity
8
0
100
AcDbPolyline
90
8
70
1
43
0.0
10
-2.5249999999999986
20
60.174999999999997
42
-0.41421356237309698
10
-3.0249999999999999
20
59.675000000000004
10
-16.024999999999999
20
59.675000000000004
42
-0.41421356237309631
10
-16.525000000000002
20
60.174999999999997
10
-16.524999999999999
20
73.174999999999997
42
-0.41421356237309503
10
-16.024999999999999
20
73.674999999999997
10
-3.0250000000000021
20
73.674999999999997
42
-0.41421356237309537
10
-2.5249999999999999
20
73.174999999999997
0
LWPOLYLINE
5
113
100
AcDbEntity
8
0
100
AcDbPolyline
90
8
70
1
43
0.0
10
-21.575000000000003
20
41.125
42
-0.41421356237309503
10
-22.074999999999999
20
40.625
10
-35.075000000000003
20
40.625
42
-0.41421356237309503
10
-35.575000000000003
20
41.125
10
-35.575000000000003
20
54.125000000000007
42
-0.41421356237309503
10
-35.075000000000003
20
54.625
10
-22.074999999999999
20
54.625
42
-0.41421356237309503
10
-21.575000000000003
20
54.125000000000007
0
LWPOLYLINE
5
114
100
AcDbEntity
8
0
100
AcDbPolyline
90
8
70
1
43
0.0
10
-97.775000000000006
20
41.125
42
-0.41421356237308982
10
-98.275000000000006
20
40.625
10
-111.27500000000001
20
40.624999999999993
42
-0.41421356237309503
10
-111.77500000000002
20
41.125
10
-111.77500000000002
20
54.125000000000007
42
-0.41421356237308982
10
-111.27500000000001
20
54.625
10
-98.275000000000006
20
54.625000000000014
42
-0.41421356237309503
10
-97.775000000000006
20
54.125000000000007
0
LWPOLYLINE
5
115
100
AcDbEntity
8
0
100
AcDbPolyline
90
8
70
1
43
0.0
10
-59.675000000000004
20
60.174999999999997
42
-0.41421356237310542
10
-60.174999999999997
20
59.675000000000004
10
-73.174999999999997
20
59.675000000000004
42
-0.41421356237309503
10
-73.674999999999997
20
60.174999999999997
10
-73.674999999999997
20
73.174999999999997
42
-0.41421356237309503
10
-73.174999999999997
20
73.674999999999997
10
-60.174999999999997
20
73.674999999999997
42
-0.41421356237309503
10
-59.675000000000004
20
73.174999999999997
0
LWPOLYLINE
5
116
100
AcDbEntity
8
0
100
AcDbPolyline
90
8
70
1
43
0.0
10
-78.725000000000009
20
22.074999999999999
42
-0.41421356237309764
10
-79.224999999999994
20
21.575000000000003
10
-92.224999999999994
20
21.574999999999992
42
-0.41421356237309503
10
-92.725000000000009
20
22.074999999999999
10
-92.725000000000009
20
35.075000000000003
42
-0.41421356237310542
10
-92.224999999999994
20
35.575000000000003
10
-79.224999999999994
20
35.575000000000003
42
-0.41421356237309764
10
-78.724999999999994
20
35.075000000000003
0
LWPOLYLINE
5
117
100
AcDbEntity
8
0
100
AcDbPolyline
90
8
70
1
43
0.0
10
-78.724999999999994
20
41.125
42
-0.41421356237309503
10
-79.224999999999994
20
40.625
10
-92.224999999999994
20
40.624999999999993
42
-0.41421356237309503
10
-92.725000000000009
20
41.125
10
-92.725000000000009
20
54.125000000000007
42
-0.41421356237308982
10
-92.224999999999994
20
54.625
10
-79.224999999999994
20
54.625
42
-0.41421356237309503
10
-78.724999999999994
20
54.125000000000007
0
LWPOLYLINE
5
118
100
AcDbEntity
8
0
100
AcDbPolyline
90
8
70
1
43
0.0
10
-21.575000000000003
20
22.074999999999999
42
-0.41421356237309503
10
-22.074999999999999
20
21.575000000000003
10
-35.075000000000003
20
21.575000000000003
42
-0.41421356237309503
10
-35.575000000000003
20
22.074999999999999
10
-35.575000000000003
20
35.075000000000003
42
-0.41421356237309503
10
-35.075000000000003
20
35.575000000000003
10
-22.074999999999999
20
35.575000000000003
42
-0.41421356237309503
10
-21.575000000000003
20
35.075000000000003
0
LWPOLYLINE
5
119
100
AcDbEntity
8
0
100
AcDbPolyline
90
8
70
1
43
0.0
10
-59.675000000000011
20
22.074999999999999
42
-0.41421356237309764
10
-60.174999999999997
20
21.575000000000003
10
-73.174999999999997
20
21.575000000000003
42
-0.41421356237309503
10
-73.674999999999997
20
22.074999999999999
10
-73.674999999999997
20
35.075000000000003
42
-0.41421356237309503
10
-73.174999999999997
20
35.575000000000003
10
-60.174999999999997
20
35.575000000000003
42
-0.41421356237309764
10
-59.675000000000004
20
35.075000000000003
0
LWPOLYLINE
5
120
100
AcDbEntity
8
0
100
AcDbPolyline
90
8
70
1
43
0.0
10
-59.675000000000004
20
3.0249999999999999
42
-0.41421356237309664
10
-60.174999999999997
20
2.5249999999999999
10
-73.174999999999997
20
2.525000000000003
42
-0.41421356237309437
10
-73.674999999999997
20
3.0249999999999999
10
-73.674999999999997
20
16.024999999999999
42
-0.4142135623730937
10
-73.174999999999997
20
16.525000000000002
10
-60.174999999999997
20
16.525000000000002
42
-0.41421356237309764
10
-59.675000000000004
20
16.024999999999999
0
LWPOLYLINE
5
121
100
AcDbEntity
8
0
100
AcDbPolyline
90
8
70
1
43
0.0
10
-97.775000000000006
20
22.074999999999999
42
-0.41421356237310802
10
-98.275000000000006
20
21.575000000000003
10
-111.27500000000001
20
21.574999999999992
42
-0.41421356237309503
10
-111.77500000000002
20
22.074999999999999
10
-111.77500000000002
20
35.075000000000003
42
-0.41421356237310542
10
-111.27500000000001
20
35.575000000000003
10
-98.275000000000006
20
35.575000000000003
42
-0.41421356237309243
10
-97.775000000000006
20
35.075000000000003
0
LWPOLYLINE
5
122
100
AcDbEntity
8
0
100
AcDbPolyline
90
8
70
1
43
0.0
10
-2.5250000000000004
20
22.074999999999999
42
-0.4142135623730957
10
-3.0249999999999999
20
21.575000000000003
10
-16.024999999999999
20
21.574999999999996
42
-0.41421356237309243
10
-16.525000000000002
20
22.074999999999999
10
-16.525000000000002
20
35.075000000000003
42
-0.41421356237309631
10
-16.024999999999999
20
35.575000000000003
10
-3.0250000000000021
20
35.575000000000003
42
-0.41421356237309664
10
-2.5249999999999999
20
35.075000000000003
0
CIRCLE
5
123
100
AcDbEntity
8
0
100
AcDbCircle
10
2.9749999999999979
20
-2.974999999999997
30
0
40
1.0749999999999997
210
0
220
-0
230
1
0
CIRCLE
5
124
100
AcDbEntity
8
0
100
AcDbCircle
10
-117.27500000000003
20
-2.9750000000000023
30
0
40
1.0749999999999993
210
0
220
-0
230
1
0
CIRCLE
5
125
100
AcDbEntity
8
0
100
AcDbCircle
10
2.9749999999999943
20
79.174999999999983
30
0
40
1.0749999999999971
210
0
220
-0
230
1
0
CIRCLE
5
126
100
AcDbEntity
8
0
100
AcDbCircle
10
-117.27500000000003
20
79.174999999999983
30
0
40
1.0749999999999993
210
0
220
-0
230
1
0
LWPOLYLINE
5
127
100
AcDbEntity
8
0
100
AcDbPolyline
90
8
70
1
43
0.0
10
-119.77499999999999
20
79.675000000000011
42
-0.41421356237309631
10
-117.77500000000001
20
81.675000000000011
10
3.475000000000001
20
81.675000000000011
42
-0.41421356237309925
10
5.4750000000000032
20
79.674999999999997
10
5.4750000000000014
20
-5.697000000000001
42
-0.41421356237309598
10
3.4750000000000014
20
-7.6970000000000027
10
-117.77500000000001
20
-7.697000000000001
42
-0.4142135623730947
10
-119.77499999999999
20
-5.6970000000000098
0
ENDSEC
0
SECTION
2
OBJECTS
0
DICTIONARY
5
C
100
AcDbDictionary
3
ACAD_GROUP
350
D
3
ACAD_MLINESTYLE
350
17
0
DICTIONARY
5
D
100
AcDbDictionary
0
DICTIONARY
5
1A
330
C
100
AcDbDictionary
0
DICTIONARY
5
17
100
AcDbDictionary
0
ENDSEC
0
EOF
