M48
; DRILL file {KiCad (5.1.2)-2} date 10/9/2019 12:02:51 AM
; FORMAT={-:-/ absolute / inch / decimal}
; #@! TF.CreationDate,2019-10-09T00:02:51-05:00
; #@! TF.GenerationSoftware,Kicad,Pcbnew,(5.1.2)-2
; #@! TF.FileFunction,NonPlated,1,2,NPTH
FMAT,2
INCH
T1C0.0709
T2C0.1200
T3C0.1570
%
G90
G05
T1
X8.425Y-1.5938
X8.825Y-1.5938
X5.425Y-2.3438
X5.825Y-2.3438
X5.8Y-4.5938
X6.2Y-4.5938
X4.675Y-3.8438
X5.075Y-3.8438
X9.55Y-1.5938
X9.95Y-1.5938
X8.425Y-2.3438
X8.825Y-2.3438
X3.175Y-3.0938
X3.575Y-3.0938
X5.425Y-1.5938
X5.825Y-1.5938
X6.175Y-3.0938
X6.575Y-3.0938
X7.3Y-4.5938
X7.7Y-4.5938
X7.675Y-3.8438
X8.075Y-3.8438
X4.675Y-3.0938
X5.075Y-3.0938
X9.175Y-2.3438
X9.575Y-2.3438
X3.925Y-3.0938
X4.325Y-3.0938
X3.925Y-3.8438
X4.325Y-3.8438
X6.925Y-1.5938
X7.325Y-1.5938
X6.175Y-2.3438
X6.575Y-2.3438
X6.925Y-3.8438
X7.325Y-3.8438
X3.175Y-2.3438
X3.575Y-2.3438
X9.925Y-2.3438
X10.325Y-2.3438
X4.675Y-2.3438
X5.075Y-2.3438
X7.675Y-1.5938
X8.075Y-1.5938
X8.425Y-3.8438
X8.825Y-3.8438
X3.925Y-2.3438
X4.325Y-2.3438
X9.925Y-1.5938
X10.325Y-1.5938
X8.6125Y-4.5938
X9.0125Y-4.5938
X9.175Y-3.8438
X9.575Y-3.8438
X9.925Y-3.0938
X10.325Y-3.0938
X5.425Y-3.0938
X5.825Y-3.0938
X3.175Y-3.8438
X3.575Y-3.8438
X3.175Y-1.5938
X3.575Y-1.5938
X9.175Y-3.0938
X9.575Y-3.0938
X5.425Y-3.8438
X5.825Y-3.8438
X9.925Y-3.8438
X10.325Y-3.8438
X4.675Y-1.5938
X5.075Y-1.5938
X7.675Y-3.0938
X8.075Y-3.0938
X3.925Y-1.5938
X4.325Y-1.5938
X6.55Y-4.5938
X6.95Y-4.5938
X6.925Y-3.0938
X7.325Y-3.0938
X9.175Y-1.5938
X9.575Y-1.5938
X4.4875Y-4.5938
X4.8875Y-4.5938
X8.425Y-3.0938
X8.825Y-3.0938
X6.175Y-3.8438
X6.575Y-3.8438
X6.925Y-2.3438
X7.325Y-2.3438
X6.175Y-1.5938
X6.575Y-1.5938
X7.675Y-2.3438
X8.075Y-2.3438
T2
X4.5Y-4.8687
X9.0Y-4.8687
X9.0Y-4.8687
X9.28Y-1.3187
X10.22Y-1.3187
X7.03Y-4.8687
X7.97Y-4.8687
X5.53Y-4.8687
X6.47Y-4.8687
T3
X9.375Y-3.8438
X10.125Y-3.0938
X5.625Y-3.0938
X3.375Y-3.8438
X3.375Y-1.5938
X9.375Y-3.0938
X5.625Y-3.8438
X4.5Y-4.2687
X9.0Y-4.2687
X9.0Y-4.2687
X10.125Y-3.8438
X4.875Y-1.5938
X7.875Y-3.0938
X4.125Y-1.5938
X6.75Y-4.5938
X7.125Y-3.0938
X9.375Y-1.5938
X4.6875Y-4.5938
X8.625Y-3.0938
X6.375Y-3.8438
X7.125Y-2.3438
X6.375Y-1.5938
X7.875Y-2.3438
X8.625Y-1.5938
X5.625Y-2.3438
X9.28Y-1.9187
X10.22Y-1.9187
X7.03Y-4.2687
X7.97Y-4.2687
X6.0Y-4.5938
X4.875Y-3.8438
X9.75Y-1.5938
X8.625Y-2.3438
X3.375Y-3.0938
X5.625Y-1.5938
X6.375Y-3.0938
X7.5Y-4.5938
X7.875Y-3.8438
X4.875Y-3.0938
X9.375Y-2.3438
X4.125Y-3.0938
X4.125Y-3.8438
X7.125Y-1.5938
X6.375Y-2.3438
X7.125Y-3.8438
X3.375Y-2.3438
X10.125Y-2.3438
X4.875Y-2.3438
X5.53Y-4.2687
X6.47Y-4.2687
X7.875Y-1.5938
X8.625Y-3.8438
X4.125Y-2.3438
X10.125Y-1.5938
X8.8125Y-4.5938
T0
M30
