0
SECTION
2
HEADER
9
$INSUNITS
70
4
9
$ACADVER
1
AC1014
9
$HANDSEED
5
FFFF
0
ENDSEC
0
SECTION
2
TABLES
0
TABLE
2
VPORT
5
8
100
AcDbSymbolTable
0
ENDTAB
0
TABLE
2
LTYPE
5
5
100
AcDbSymbolTable
0
LTYPE
5
14
100
AcDbSymbolTableRecord
100
AcDbLinetypeTableRecord
2
BYBLOCK
70
0
0
LTYPE
5
15
100
AcDbSymbolTableRecord
100
AcDbLinetypeTableRecord
2
BYLAYER
70
0
0
ENDTAB
0
TABLE
2
LAYER
5
2
100
AcDbSymbolTable
70
2
0
LAYER
5
50
100
AcDbSymbolTableRecord
100
AcDbLayerTableRecord
2
0
70
0
6
CONTINUOUS
0
ENDTAB
0
TABLE
2
STYLE
5
3
100
AcDbSymbolTable
70
1
0
STYLE
5
11
100
AcDbSymbolTableRecord
100
AcDbTextStyleTableRecord
2
STANDARD
70
0
0
ENDTAB
0
TABLE
2
VIEW
5
6
100
AcDbSymbolTable
70
0
0
ENDTAB
0
TABLE
2
UCS
5
7
100
AcDbSymbolTable
70
0
0
ENDTAB
0
TABLE
2
APPID
5
9
100
AcDbSymbolTable
70
2
0
APPID
5
12
100
AcDbSymbolTableRecord
100
AcDbRegAppTableRecord
2
ACAD
70
0
0
ENDTAB
0
TABLE
2
DIMSTYLE
5
A
100
AcDbSymbolTable
70
1
0
ENDTAB
0
TABLE
2
BLOCK_RECORD
5
1
100
AcDbSymbolTable
70
1
0
BLOCK_RECORD
5
1F
100
AcDbSymbolTableRecord
100
AcDbBlockTableRecord
2
*MODEL_SPACE
0
BLOCK_RECORD
5
1B
100
AcDbSymbolTableRecord
100
AcDbBlockTableRecord
2
*PAPER_SPACE
0
ENDTAB
0
ENDSEC
0
SECTION
2
BLOCKS
0
BLOCK
5
20
100
AcDbEntity
100
AcDbBlockBegin
2
*MODEL_SPACE
0
ENDBLK
5
21
100
AcDbEntity
100
AcDbBlockEnd
0
BLOCK
5
1C
100
AcDbEntity
100
AcDbBlockBegin
2
*PAPER_SPACE
0
ENDBLK
5
1D
100
AcDbEntity
100
AcDbBlockEnd
0
ENDSEC
0
SECTION
2
ENTITIES
0
LWPOLYLINE
5
100
100
AcDbEntity
8
0
100
AcDbPolyline
90
68
70
1
43
0.0
10
0
20
73.757999999999996
10
-3.3306690738754696e-15
20
1.5000000000000002
42
-0.41421356237309859
10
-1.5000000000000213
20
0
10
-189.00000000000003
20
-6.6613381477509392e-15
42
-0.41421356237311369
10
-190.5
20
1.5000000000000036
10
-190.5
20
73.757999999999996
42
-0.41421356237311413
10
-189.00000000000003
20
75.25800000000001
10
-162.53299999999999
20
75.257999999999981
42
0.41421356237309503
10
-161.03300000000002
20
76.757999999999981
10
-161.03300000000002
20
93.75
42
-0.41421356237308815
10
-159.53300000000002
20
95.25
10
-156.40000000000003
20
95.25
42
-0.4142135623730534
10
-155.90000000000001
20
94.75
10
-155.90000000000001
20
80.224999999999994
42
0.4142135623730846
10
-155.40000000000001
20
79.72499999999998
10
-154.63749999999999
20
79.724999999999994
10
-154.63750000000002
20
79.224999999999994
42
0.41421356237310025
10
-154.13749999999999
20
78.724999999999994
10
-141.13749999999999
20
78.724999999999994
42
0.41421356237310542
10
-140.63749999999999
20
79.224999999999994
10
-140.63750000000002
20
94.749999999999972
42
-0.41421356237309503
10
-140.13749999999999
20
95.25
10
-130.238
20
95.25
42
-0.41421356237307422
10
-129.738
20
94.75
10
-129.738
20
80.224999999999994
42
0.41421356237310542
10
-129.238
20
79.724999999999994
10
-123.238
20
79.724999999999994
42
0.41421356237309503
10
-122.73800000000001
20
80.224999999999994
10
-122.738
20
94.750000000000014
42
-0.41421356237309503
10
-122.238
20
95.25
10
-106.36200000000002
20
95.25
42
-0.41421356237307422
10
-105.86200000000002
20
94.75
10
-105.86200000000002
20
80.224999999999994
42
0.41421356237310542
10
-105.36200000000001
20
79.724999999999994
10
-102.25000000000001
20
79.724999999999994
10
-102.25000000000001
20
79.224999999999994
42
0.41421356237310025
10
-101.75
20
78.724999999999994
10
-88.75
20
78.724999999999994
42
0.41421356237310542
10
-88.25
20
79.224999999999994
10
-88.25
20
79.724999999999994
10
-85.138000000000005
20
79.724999999999994
42
0.4142135623730846
10
-84.637999999999991
20
80.224999999999994
10
-84.637999999999977
20
94.750000000000014
42
-0.41421356237309503
10
-84.137999999999977
20
95.25
10
-68.262
20
95.249999999999986
42
-0.41421356237307422
10
-67.762
20
94.75
10
-67.762
20
80.224999999999994
42
0.41421356237309503
10
-67.262
20
79.724999999999994
10
-61.262000000000008
20
79.724999999999994
42
0.41421356237309503
10
-60.762000000000008
20
80.224999999999994
10
-60.761999999999986
20
94.750000000000014
42
-0.41421356237310542
10
-60.262000000000015
20
95.25
10
-50.362499999999997
20
95.250000000000028
42
-0.41421356237308982
10
-49.862499999999997
20
94.750000000000014
10
-49.862499999999997
20
79.224999999999994
42
0.41421356237309503
10
-49.362500000000004
20
78.724999999999994
10
-36.362499999999997
20
78.724999999999994
42
0.41421356237309764
10
-35.862500000000004
20
79.224999999999994
10
-35.862500000000004
20
79.724999999999994
10
-35.100000000000001
20
79.724999999999994
42
0.41421356237309503
10
-34.600000000000009
20
80.224999999999994
10
-34.59999999999998
20
94.750000000000014
42
-0.41421356237310802
10
-34.100000000000009
20
95.25
10
-30.966999999999999
20
95.249999999999986
42
-0.41421356237308982
10
-29.466999999999999
20
93.75
10
-29.466999999999999
20
76.757999999999996
42
0.41421356237309503
10
-27.966999999999999
20
75.257999999999996
10
-1.5000000000000036
20
75.257999999999996
42
-0.41421356237309209
0
CIRCLE
5
101
100
AcDbEntity
8
0
100
AcDbCircle
10
-95.25
20
19.049999999999997
30
0
40
1.9999999999999929
210
0
220
-0
230
1
0
CIRCLE
5
102
100
AcDbEntity
8
0
100
AcDbCircle
10
-171.44999999999999
20
19.050000000000004
30
0
40
1.9999999999999929
210
0
220
-0
230
1
0
CIRCLE
5
103
100
AcDbEntity
8
0
100
AcDbCircle
10
-19.049999999999994
20
19.050000000000004
30
0
40
2.0000000000000018
210
0
220
-0
230
1
0
CIRCLE
5
104
100
AcDbEntity
8
0
100
AcDbCircle
10
-57.149999999999999
20
76.200000000000131
30
0
40
2.0000000000000018
210
0
220
-0
230
1
0
CIRCLE
5
105
100
AcDbEntity
8
0
100
AcDbCircle
10
-19.049999999999994
20
57.15000000000007
30
0
40
2.0000000000000018
210
0
220
-0
230
1
0
CIRCLE
5
106
100
AcDbEntity
8
0
100
AcDbCircle
10
-133.35000000000002
20
76.200000000000131
30
0
40
1.9999999999999929
210
0
220
-0
230
1
0
CIRCLE
5
107
100
AcDbEntity
8
0
100
AcDbCircle
10
-171.44999999999999
20
57.15000000000007
30
0
40
1.9999999999999929
210
0
220
-0
230
1
0
LWPOLYLINE
5
108
100
AcDbEntity
8
0
100
AcDbPolyline
90
8
70
1
43
0.0
10
-59.675000000000004
20
3.0249999999999999
42
-0.41421356237309664
10
-60.174999999999997
20
2.5249999999999999
10
-73.174999999999997
20
2.525000000000003
42
-0.41421356237309437
10
-73.674999999999997
20
3.0249999999999999
10
-73.674999999999997
20
16.024999999999999
42
-0.4142135623730937
10
-73.174999999999997
20
16.525000000000002
10
-60.174999999999997
20
16.525000000000002
42
-0.41421356237309764
10
-59.675000000000004
20
16.024999999999999
0
LWPOLYLINE
5
109
100
AcDbEntity
8
0
100
AcDbPolyline
90
8
70
1
43
0.0
10
-97.774999999999977
20
3.0249999999999999
42
-0.41421356237310542
10
-98.275000000000006
20
2.5249999999999999
10
-111.27500000000001
20
2.5249999999999941
42
-0.41421356237309437
10
-111.77500000000002
20
3.0249999999999999
10
-111.77500000000002
20
16.024999999999999
42
-0.41421356237310675
10
-111.27500000000001
20
16.525000000000002
10
-98.275000000000006
20
16.525000000000009
42
-0.41421356237309631
10
-97.775000000000006
20
16.024999999999999
0
LWPOLYLINE
5
110
100
AcDbEntity
8
0
100
AcDbPolyline
90
8
70
1
43
0.0
10
-116.82500000000002
20
22.074999999999999
42
-0.41421356237310802
10
-117.32500000000002
20
21.575000000000003
10
-130.32499999999999
20
21.574999999999992
42
-0.41421356237309503
10
-130.82499999999999
20
22.074999999999999
10
-130.82499999999999
20
35.075000000000003
42
-0.41421356237310542
10
-130.32499999999999
20
35.575000000000003
10
-117.32500000000002
20
35.575000000000003
42
-0.41421356237309243
10
-116.82500000000002
20
35.075000000000003
0
LWPOLYLINE
5
111
100
AcDbEntity
8
0
100
AcDbPolyline
90
8
70
1
43
0.0
10
-78.724999999999994
20
3.0250000000000021
10
-78.724999999999994
20
16.024999999999999
42
0.41421356237309764
10
-79.224999999999994
20
16.524999999999999
10
-92.224999999999994
20
16.525000000000002
42
0.41421356237310675
10
-92.725000000000009
20
16.024999999999999
10
-92.725000000000009
20
3.0249999999999999
42
0.41421356237309437
10
-92.224999999999994
20
2.5249999999999995
10
-79.224999999999994
20
2.5249999999999999
42
0.41421356237309798
0
LWPOLYLINE
5
112
100
AcDbEntity
8
0
100
AcDbPolyline
90
8
70
1
43
0.0
10
-111.27500000000001
20
21.574999999999992
42
-0.41421356237309503
10
-111.77500000000002
20
22.074999999999999
10
-111.77500000000002
20
35.075000000000003
42
-0.41421356237310542
10
-111.27500000000001
20
35.575000000000003
10
-98.275000000000006
20
35.575000000000003
42
-0.41421356237309243
10
-97.775000000000006
20
35.075000000000003
10
-97.775000000000006
20
22.074999999999999
42
-0.41421356237310802
10
-98.275000000000006
20
21.575000000000003
0
LWPOLYLINE
5
113
100
AcDbEntity
8
0
100
AcDbPolyline
90
8
70
1
43
0.0
10
-116.82499999999999
20
3.0249999999999999
42
-0.41421356237310542
10
-117.32500000000002
20
2.5249999999999999
10
-130.32499999999999
20
2.5249999999999941
42
-0.41421356237309437
10
-130.82499999999999
20
3.0249999999999999
10
-130.82499999999999
20
16.024999999999999
42
-0.41421356237310675
10
-130.32499999999999
20
16.525000000000002
10
-117.32500000000002
20
16.525000000000009
42
-0.41421356237309631
10
-116.82500000000002
20
16.024999999999999
0
LWPOLYLINE
5
114
100
AcDbEntity
8
0
100
AcDbPolyline
90
8
70
1
43
0.0
10
-116.82500000000002
20
60.174999999999997
42
-0.41421356237310542
10
-117.32500000000002
20
59.675000000000004
10
-130.32499999999999
20
59.674999999999983
42
-0.41421356237310025
10
-130.82499999999999
20
60.174999999999997
10
-130.82499999999999
20
73.174999999999997
42
-0.41421356237308982
10
-130.32499999999999
20
73.674999999999997
10
-117.32500000000002
20
73.675000000000011
42
-0.41421356237309503
10
-116.82500000000002
20
73.174999999999997
0
LWPOLYLINE
5
115
100
AcDbEntity
8
0
100
AcDbPolyline
90
8
70
1
43
0.0
10
-187.47499999999999
20
40.625
42
-0.41421356237313145
10
-187.97499999999999
20
41.125
10
-187.97500000000002
20
54.125000000000007
42
-0.41421356237307422
10
-187.47499999999999
20
54.625
10
-174.47500000000002
20
54.625
42
-0.41421356237313145
10
-173.97500000000002
20
54.125000000000007
10
-173.97499999999997
20
41.125
42
-0.41421356237307422
10
-174.47500000000002
20
40.625
0
LWPOLYLINE
5
116
100
AcDbEntity
8
0
100
AcDbPolyline
90
8
70
1
43
0.0
10
-59.675000000000004
20
60.174999999999997
42
-0.41421356237310542
10
-60.174999999999997
20
59.675000000000004
10
-73.174999999999997
20
59.675000000000004
42
-0.41421356237309503
10
-73.674999999999997
20
60.174999999999997
10
-73.674999999999997
20
73.174999999999997
42
-0.41421356237309503
10
-73.174999999999997
20
73.674999999999997
10
-60.174999999999997
20
73.674999999999997
42
-0.41421356237309503
10
-59.675000000000004
20
73.174999999999997
0
LWPOLYLINE
5
117
100
AcDbEntity
8
0
100
AcDbPolyline
90
8
70
1
43
0.0
10
-2.5250000000000004
20
22.074999999999999
42
-0.4142135623730957
10
-3.0249999999999999
20
21.575000000000003
10
-16.024999999999999
20
21.574999999999996
42
-0.41421356237309243
10
-16.525000000000002
20
22.074999999999999
10
-16.525000000000002
20
35.075000000000003
42
-0.41421356237309631
10
-16.024999999999999
20
35.575000000000003
10
-3.0249999999999999
20
35.575000000000003
42
-0.41421356237309537
10
-2.5249999999999999
20
35.075000000000003
0
LWPOLYLINE
5
118
100
AcDbEntity
8
0
100
AcDbPolyline
90
8
70
1
43
0.0
10
-78.724999999999994
20
60.174999999999997
42
-0.41421356237310542
10
-79.224999999999994
20
59.675000000000004
10
-92.224999999999994
20
59.674999999999983
42
-0.41421356237310025
10
-92.725000000000009
20
60.174999999999997
10
-92.725000000000009
20
73.174999999999997
42
-0.41421356237308982
10
-92.224999999999994
20
73.674999999999997
10
-79.224999999999994
20
73.674999999999997
42
-0.41421356237309503
10
-78.724999999999994
20
73.174999999999997
0
LWPOLYLINE
5
119
100
AcDbEntity
8
0
100
AcDbPolyline
90
8
70
1
43
0.0
10
-173.97500000000002
20
22.074999999999999
42
-0.41421356237308204
10
-174.47500000000002
20
21.575000000000003
10
-187.47499999999999
20
21.574999999999996
42
-0.41421356237313406
10
-187.97499999999999
20
22.074999999999999
10
-187.97500000000002
20
35.075000000000003
42
-0.41421356237307683
10
-187.47499999999999
20
35.575000000000003
10
-174.47500000000002
20
35.575000000000003
42
-0.41421356237313145
10
-173.97500000000002
20
35.075000000000003
0
LWPOLYLINE
5
120
100
AcDbEntity
8
0
100
AcDbPolyline
90
8
70
1
43
0.0
10
-173.97499999999997
20
60.174999999999997
42
-0.41421356237307422
10
-174.47500000000002
20
59.675000000000004
10
-187.47499999999999
20
59.674999999999997
42
-0.41421356237313667
10
-187.97499999999999
20
60.174999999999997
10
-187.97500000000002
20
73.174999999999997
42
-0.41421356237307422
10
-187.47499999999999
20
73.674999999999997
10
-174.47500000000002
20
73.674999999999997
42
-0.41421356237313145
10
-173.97500000000002
20
73.174999999999997
0
LWPOLYLINE
5
121
100
AcDbEntity
8
0
100
AcDbPolyline
90
8
70
1
43
0.0
10
-78.724999999999994
20
41.125
42
-0.41421356237309503
10
-79.224999999999994
20
40.625
10
-92.224999999999994
20
40.624999999999993
42
-0.41421356237309503
10
-92.725000000000009
20
41.125
10
-92.725000000000009
20
54.125000000000007
42
-0.41421356237308982
10
-92.224999999999994
20
54.625
10
-79.224999999999994
20
54.625
42
-0.41421356237309503
10
-78.724999999999994
20
54.125000000000007
0
LWPOLYLINE
5
122
100
AcDbEntity
8
0
100
AcDbPolyline
90
8
70
1
43
0.0
10
-59.675000000000004
20
41.125
42
-0.41421356237309503
10
-60.174999999999997
20
40.625
10
-73.174999999999997
20
40.625
42
-0.41421356237309503
10
-73.674999999999997
20
41.125
10
-73.674999999999997
20
54.125000000000007
42
-0.41421356237309503
10
-73.174999999999997
20
54.625
10
-60.174999999999997
20
54.625
42
-0.41421356237309503
10
-59.675000000000004
20
54.125000000000007
0
LWPOLYLINE
5
123
100
AcDbEntity
8
0
100
AcDbPolyline
90
8
70
1
43
0.0
10
-97.775000000000006
20
41.125
42
-0.41421356237308982
10
-98.275000000000006
20
40.625
10
-111.27500000000001
20
40.624999999999993
42
-0.41421356237309503
10
-111.77500000000002
20
41.125
10
-111.77500000000002
20
54.125000000000007
42
-0.41421356237308982
10
-111.27500000000001
20
54.625
10
-98.275000000000006
20
54.625000000000014
42
-0.41421356237309503
10
-97.775000000000006
20
54.125000000000007
0
LWPOLYLINE
5
124
100
AcDbEntity
8
0
100
AcDbPolyline
90
8
70
1
43
0.0
10
-2.5249999999999986
20
60.174999999999997
42
-0.41421356237309698
10
-3.0249999999999999
20
59.675000000000004
10
-16.024999999999999
20
59.675000000000004
42
-0.41421356237309631
10
-16.525000000000002
20
60.174999999999997
10
-16.524999999999999
20
73.174999999999997
42
-0.41421356237309503
10
-16.024999999999999
20
73.674999999999997
10
-3.0249999999999999
20
73.674999999999997
42
-0.41421356237309404
10
-2.5249999999999999
20
73.174999999999997
0
LWPOLYLINE
5
125
100
AcDbEntity
8
0
100
AcDbPolyline
90
8
70
1
43
0.0
10
-130.32499999999999
20
40.624999999999993
42
-0.41421356237309503
10
-130.82499999999999
20
41.125
10
-130.82499999999999
20
54.125000000000007
42
-0.41421356237308982
10
-130.32499999999999
20
54.625
10
-117.32500000000002
20
54.625000000000014
42
-0.41421356237309503
10
-116.82500000000002
20
54.125000000000007
10
-116.82500000000002
20
41.125
42
-0.41421356237308982
10
-117.32500000000002
20
40.625
0
LWPOLYLINE
5
126
100
AcDbEntity
8
0
100
AcDbPolyline
90
8
70
1
43
0.0
10
-59.675000000000011
20
22.074999999999999
42
-0.41421356237309764
10
-60.174999999999997
20
21.575000000000003
10
-73.174999999999997
20
21.575000000000003
42
-0.41421356237309503
10
-73.674999999999997
20
22.074999999999999
10
-73.674999999999997
20
35.075000000000003
42
-0.41421356237309503
10
-73.174999999999997
20
35.575000000000003
10
-60.174999999999997
20
35.575000000000003
42
-0.41421356237309764
10
-59.675000000000004
20
35.075000000000003
0
LWPOLYLINE
5
127
100
AcDbEntity
8
0
100
AcDbPolyline
90
8
70
1
43
0.0
10
-78.725000000000009
20
22.074999999999999
42
-0.41421356237309764
10
-79.224999999999994
20
21.575000000000003
10
-92.224999999999994
20
21.574999999999992
42
-0.41421356237309503
10
-92.725000000000009
20
22.074999999999999
10
-92.725000000000009
20
35.075000000000003
42
-0.41421356237310542
10
-92.224999999999994
20
35.575000000000003
10
-79.224999999999994
20
35.575000000000003
42
-0.41421356237309764
10
-78.724999999999994
20
35.075000000000003
0
LWPOLYLINE
5
128
100
AcDbEntity
8
0
100
AcDbPolyline
90
8
70
1
43
0.0
10
-97.775000000000006
20
60.174999999999997
42
-0.41421356237310542
10
-98.275000000000006
20
59.675000000000004
10
-111.27500000000001
20
59.674999999999983
42
-0.41421356237310025
10
-111.77500000000002
20
60.174999999999997
10
-111.77500000000002
20
73.174999999999997
42
-0.41421356237308982
10
-111.27500000000001
20
73.674999999999997
10
-98.275000000000006
20
73.675000000000011
42
-0.41421356237309503
10
-97.775000000000006
20
73.174999999999997
0
LWPOLYLINE
5
129
100
AcDbEntity
8
0
100
AcDbPolyline
90
8
70
1
43
0.0
10
-2.525000000000003
20
41.125
42
-0.41421356237309437
10
-3.0249999999999999
20
40.625
10
-16.024999999999999
20
40.625
42
-0.4142135623730937
10
-16.525000000000002
20
41.125
10
-16.524999999999999
20
54.125000000000007
42
-0.41421356237309503
10
-16.024999999999999
20
54.625
10
-3.0249999999999999
20
54.625
42
-0.41421356237309404
10
-2.5249999999999999
20
54.125000000000007
0
LWPOLYLINE
5
130
100
AcDbEntity
8
0
100
AcDbPolyline
90
8
70
1
43
0.0
10
-82.700000000000031
20
78.72499999999998
42
-0.414213562373069
10
-83.200000000000017
20
79.224999999999994
10
-83.200000000000017
20
92.224999999999994
42
-0.41421356237307422
10
-82.700000000000017
20
92.725000000000009
10
-69.700000000000003
20
92.725000000000009
42
-0.41421356237310542
10
-69.200000000000003
20
92.224999999999994
10
-69.200000000000003
20
79.224999999999994
42
-0.41421356237310542
10
-69.700000000000003
20
78.724999999999994
0
LWPOLYLINE
5
131
100
AcDbEntity
8
0
100
AcDbPolyline
90
8
70
1
43
0.0
10
-120.80000000000001
20
78.72499999999998
42
-0.414213562373069
10
-121.30000000000001
20
79.224999999999994
10
-121.30000000000001
20
92.224999999999994
42
-0.41421356237307422
10
-120.8
20
92.725000000000009
10
-107.80000000000001
20
92.725000000000009
42
-0.41421356237309503
10
-107.30000000000001
20
92.224999999999994
10
-107.30000000000001
20
79.224999999999994
42
-0.41421356237310542
10
-107.80000000000001
20
78.724999999999994
0
LWPOLYLINE
5
132
100
AcDbEntity
8
0
100
AcDbPolyline
90
8
70
1
43
0.0
10
-22.074999999999999
20
16.524999999999999
10
-35.075000000000003
20
16.524999999999999
42
0.41421356237309503
10
-35.575000000000003
20
16.024999999999999
10
-35.575000000000003
20
3.0249999999999999
42
0.4142135623730957
10
-35.075000000000003
20
2.5250000000000039
10
-22.074999999999999
20
2.5249999999999999
42
0.41421356237309664
10
-21.575000000000003
20
3.0250000000000021
10
-21.575000000000003
20
16.024999999999999
42
0.41421356237309631
0
LWPOLYLINE
5
133
100
AcDbEntity
8
0
100
AcDbPolyline
90
8
70
1
43
0.0
10
-22.074999999999999
20
35.575000000000003
10
-35.075000000000003
20
35.575000000000003
42
0.41421356237309503
10
-35.575000000000003
20
35.075000000000003
10
-35.575000000000003
20
22.074999999999999
42
0.41421356237309503
10
-35.075000000000003
20
21.575000000000003
10
-22.074999999999999
20
21.575000000000003
42
0.41421356237309503
10
-21.575000000000003
20
22.074999999999999
10
-21.575000000000003
20
35.075000000000003
42
0.41421356237309503
0
LWPOLYLINE
5
134
100
AcDbEntity
8
0
100
AcDbPolyline
90
8
70
1
43
0.0
10
-22.074999999999999
20
54.625
10
-35.075000000000003
20
54.625
42
0.41421356237309503
10
-35.575000000000003
20
54.125000000000007
10
-35.575000000000003
20
41.125
42
0.41421356237309503
10
-35.075000000000003
20
40.625
10
-22.074999999999999
20
40.625
42
0.41421356237309503
10
-21.575000000000003
20
41.125
10
-21.575000000000003
20
54.125000000000007
42
0.41421356237309503
0
LWPOLYLINE
5
135
100
AcDbEntity
8
0
100
AcDbPolyline
90
8
70
1
43
0.0
10
-22.074999999999999
20
73.674999999999997
10
-35.075000000000003
20
73.674999999999997
42
0.41421356237309503
10
-35.575000000000003
20
73.174999999999997
10
-35.575000000000003
20
60.174999999999997
42
0.41421356237309764
10
-35.075000000000003
20
59.675000000000004
10
-22.074999999999999
20
59.675000000000004
42
0.41421356237309764
10
-21.575000000000003
20
60.174999999999997
10
-21.575000000000003
20
73.174999999999997
42
0.41421356237309503
0
LWPOLYLINE
5
136
100
AcDbEntity
8
0
100
AcDbPolyline
90
8
70
1
43
0.0
10
-54.125000000000007
20
59.675000000000004
10
-41.125
20
59.675000000000004
42
0.41421356237309503
10
-40.625
20
60.174999999999997
10
-40.625
20
73.174999999999997
42
0.41421356237309503
10
-41.125
20
73.674999999999997
10
-54.125000000000007
20
73.674999999999997
42
0.41421356237309503
10
-54.625
20
73.174999999999997
10
-54.625
20
60.174999999999997
42
0.41421356237309503
0
LWPOLYLINE
5
137
100
AcDbEntity
8
0
100
AcDbPolyline
90
8
70
1
43
0.0
10
-54.125000000000007
20
40.625
10
-41.125
20
40.625
42
0.41421356237309503
10
-40.625
20
41.125
10
-40.625
20
54.125000000000007
42
0.41421356237309503
10
-41.125
20
54.625
10
-54.125000000000007
20
54.625
42
0.41421356237309503
10
-54.625
20
54.125000000000007
10
-54.625
20
41.125
42
0.41421356237309503
0
LWPOLYLINE
5
138
100
AcDbEntity
8
0
100
AcDbPolyline
90
8
70
1
43
0.0
10
-54.125000000000007
20
21.575000000000003
10
-41.125
20
21.575000000000003
42
0.41421356237309503
10
-40.625
20
22.074999999999999
10
-40.625
20
35.075000000000003
42
0.41421356237309503
10
-41.125
20
35.575000000000003
10
-54.125000000000007
20
35.575000000000003
42
0.41421356237309503
10
-54.625
20
35.075000000000003
10
-54.625
20
22.074999999999999
42
0.41421356237309503
0
LWPOLYLINE
5
139
100
AcDbEntity
8
0
100
AcDbPolyline
90
8
70
1
43
0.0
10
-54.125000000000007
20
2.5249999999999995
10
-41.125
20
2.5249999999999995
42
0.41421356237309537
10
-40.625
20
3.0250000000000021
10
-40.625
20
16.024999999999999
42
0.41421356237309503
10
-41.125
20
16.524999999999999
10
-54.125000000000007
20
16.525000000000002
42
0.4142135623730937
10
-54.625
20
16.024999999999999
10
-54.625
20
3.0249999999999999
42
0.41421356237309437
0
LWPOLYLINE
5
140
100
AcDbEntity
8
0
100
AcDbPolyline
90
8
70
1
43
0.0
10
-136.375
20
16.525000000000006
10
-149.375
20
16.524999999999999
42
0.41421356237310675
10
-149.875
20
16.024999999999999
10
-149.875
20
3.0249999999999999
42
0.41421356237309437
10
-149.375
20
2.524999999999995
10
-136.375
20
2.5249999999999999
42
0.41421356237307549
10
-135.875
20
3.0250000000000021
10
-135.875
20
16.024999999999999
42
0.41421356237307549
0
LWPOLYLINE
5
141
100
AcDbEntity
8
0
100
AcDbPolyline
90
8
70
1
43
0.0
10
-136.375
20
35.57500000000001
10
-149.375
20
35.575000000000003
42
0.41421356237310542
10
-149.875
20
35.075000000000003
10
-149.875
20
22.074999999999999
42
0.41421356237309503
10
-149.375
20
21.575000000000003
10
-136.375
20
21.575000000000003
42
0.4142135623730846
10
-135.87500000000003
20
22.074999999999999
10
-135.875
20
35.075000000000003
42
0.41421356237307161
0
LWPOLYLINE
5
142
100
AcDbEntity
8
0
100
AcDbPolyline
90
8
70
1
43
0.0
10
-136.375
20
54.625000000000014
10
-149.375
20
54.625
42
0.41421356237308982
10
-149.875
20
54.125000000000007
10
-149.875
20
41.125
42
0.41421356237309503
10
-149.375
20
40.624999999999993
10
-136.375
20
40.625
42
0.41421356237310025
10
-135.875
20
41.125
10
-135.875
20
54.125000000000007
42
0.41421356237307422
0
LWPOLYLINE
5
143
100
AcDbEntity
8
0
100
AcDbPolyline
90
8
70
1
43
0.0
10
-136.375
20
73.675000000000011
10
-149.375
20
73.674999999999997
42
0.41421356237308982
10
-149.875
20
73.174999999999997
10
-149.875
20
60.174999999999997
42
0.41421356237310025
10
-149.375
20
59.675000000000004
10
-136.375
20
59.675000000000004
42
0.41421356237310542
10
-135.87500000000003
20
60.174999999999997
10
-135.875
20
73.174999999999997
42
0.41421356237307422
0
LWPOLYLINE
5
144
100
AcDbEntity
8
0
100
AcDbPolyline
90
8
70
1
43
0.0
10
-155.42500000000001
20
35.57500000000001
10
-168.42500000000001
20
35.575000000000003
42
0.41421356237304563
10
-168.92500000000001
20
35.075000000000003
10
-168.92500000000001
20
22.074999999999999
42
0.41421356237310281
10
-168.42500000000001
20
21.574999999999992
10
-155.42500000000001
20
21.575000000000003
42
0.4142135623730846
10
-154.92500000000001
20
22.074999999999999
10
-154.92500000000001
20
35.075000000000003
42
0.41421356237307161
0
LWPOLYLINE
5
145
100
AcDbEntity
8
0
100
AcDbPolyline
90
8
70
1
43
0.0
10
-155.42500000000001
20
54.625
10
-168.42500000000001
20
54.625
42
0.4142135623730222
10
-168.92500000000001
20
54.125000000000007
10
-168.92500000000001
20
41.125
42
0.41421356237312101
10
-168.42500000000001
20
40.624999999999993
10
-155.42500000000001
20
40.625
42
0.41421356237310025
10
-154.92500000000001
20
41.125
10
-154.92500000000001
20
54.125000000000007
42
0.41421356237307422
0
LWPOLYLINE
5
146
100
AcDbEntity
8
0
100
AcDbPolyline
90
8
70
1
43
0.0
10
-155.42500000000001
20
73.675000000000011
10
-168.42500000000001
20
73.674999999999997
42
0.4142135623730222
10
-168.92500000000001
20
73.174999999999997
10
-168.92500000000001
20
60.174999999999997
42
0.41421356237312623
10
-168.42500000000001
20
59.675000000000004
10
-155.42500000000001
20
59.675000000000004
42
0.41421356237310542
10
-154.92500000000004
20
60.174999999999997
10
-154.92500000000001
20
73.174999999999997
42
0.41421356237307422
0
LWPOLYLINE
5
147
100
AcDbEntity
8
0
100
AcDbPolyline
90
20
70
1
43
0.0
10
-187.97499999999999
20
16.024999999999999
10
-187.97499999999999
20
3.0249999999999999
42
0.41421356237309503
10
-187.47499999999999
20
2.5249999999999999
10
-155.42500000000001
20
2.5249999999999999
42
0.41421356237307549
10
-154.92500000000001
20
3.0250000000000021
10
-154.92500000000001
20
16.024999999999999
42
0.41421356237307549
10
-155.42500000000001
20
16.525000000000006
10
-156.012
20
16.524999999999999
10
-156.012
20
18.024999999999999
42
0.41421356237307422
10
-156.512
20
18.525000000000009
10
-162.512
20
18.524999999999999
42
0.41421356237307683
10
-163.012
20
18.025000000000002
10
-163.012
20
16.524999999999999
10
-179.88800000000001
20
16.524999999999999
10
-179.88800000000001
20
18.024999999999999
42
0.41421356237312235
10
-180.38800000000003
20
18.525000000000009
10
-186.38800000000001
20
18.524999999999999
42
0.41421356237307683
10
-186.88800000000001
20
18.025000000000002
10
-186.88800000000001
20
16.524999999999999
10
-187.47499999999999
20
16.525000000000002
42
0.4142135623730781
0
LWPOLYLINE
5
148
100
AcDbEntity
8
0
100
AcDbPolyline
90
8
70
1
43
0.0
10
-16.024999999999999
20
2.5249999999999995
10
-3.0249999999999999
20
2.5249999999999999
42
0.41421356237309503
10
-2.5249999999999999
20
3.0249999999999999
10
-2.5249999999999999
20
16.024999999999999
42
0.4142135623730947
10
-3.0249999999999999
20
16.524999999999999
10
-16.024999999999999
20
16.525000000000002
42
0.41421356237309243
10
-16.525000000000002
20
16.024999999999999
10
-16.525000000000002
20
3.0249999999999999
42
0.41421356237309309
0
ENDSEC
0
SECTION
2
OBJECTS
0
DICTIONARY
5
C
100
AcDbDictionary
3
ACAD_GROUP
350
D
3
ACAD_MLINESTYLE
350
17
0
DICTIONARY
5
D
100
AcDbDictionary
0
DICTIONARY
5
1A
330
C
100
AcDbDictionary
0
DICTIONARY
5
17
100
AcDbDictionary
0
ENDSEC
0
EOF
