0
SECTION
2
HEADER
9
$INSUNITS
70
4
9
$ACADVER
1
AC1014
9
$HANDSEED
5
FFFF
0
ENDSEC
0
SECTION
2
TABLES
0
TABLE
2
VPORT
5
8
100
AcDbSymbolTable
0
ENDTAB
0
TABLE
2
LTYPE
5
5
100
AcDbSymbolTable
0
LTYPE
5
14
100
AcDbSymbolTableRecord
100
AcDbLinetypeTableRecord
2
BYBLOCK
70
0
0
LTYPE
5
15
100
AcDbSymbolTableRecord
100
AcDbLinetypeTableRecord
2
BYLAYER
70
0
0
ENDTAB
0
TABLE
2
LAYER
5
2
100
AcDbSymbolTable
70
2
0
LAYER
5
50
100
AcDbSymbolTableRecord
100
AcDbLayerTableRecord
2
0
70
0
6
CONTINUOUS
0
ENDTAB
0
TABLE
2
STYLE
5
3
100
AcDbSymbolTable
70
1
0
STYLE
5
11
100
AcDbSymbolTableRecord
100
AcDbTextStyleTableRecord
2
STANDARD
70
0
0
ENDTAB
0
TABLE
2
VIEW
5
6
100
AcDbSymbolTable
70
0
0
ENDTAB
0
TABLE
2
UCS
5
7
100
AcDbSymbolTable
70
0
0
ENDTAB
0
TABLE
2
APPID
5
9
100
AcDbSymbolTable
70
2
0
APPID
5
12
100
AcDbSymbolTableRecord
100
AcDbRegAppTableRecord
2
ACAD
70
0
0
ENDTAB
0
TABLE
2
DIMSTYLE
5
A
100
AcDbSymbolTable
70
1
0
ENDTAB
0
TABLE
2
BLOCK_RECORD
5
1
100
AcDbSymbolTable
70
1
0
BLOCK_RECORD
5
1F
100
AcDbSymbolTableRecord
100
AcDbBlockTableRecord
2
*MODEL_SPACE
0
BLOCK_RECORD
5
1B
100
AcDbSymbolTableRecord
100
AcDbBlockTableRecord
2
*PAPER_SPACE
0
ENDTAB
0
ENDSEC
0
SECTION
2
BLOCKS
0
BLOCK
5
20
100
AcDbEntity
100
AcDbBlockBegin
2
*MODEL_SPACE
0
ENDBLK
5
21
100
AcDbEntity
100
AcDbBlockEnd
0
BLOCK
5
1C
100
AcDbEntity
100
AcDbBlockBegin
2
*PAPER_SPACE
0
ENDBLK
5
1D
100
AcDbEntity
100
AcDbBlockEnd
0
ENDSEC
0
SECTION
2
ENTITIES
0
CIRCLE
5
100
100
AcDbEntity
8
0
100
AcDbCircle
10
-193
20
97.75
30
0
40
1.7500000000000071
210
0
220
-0
230
1
0
CIRCLE
5
101
100
AcDbEntity
8
0
100
AcDbCircle
10
-62.527004797530701
20
-5.4999999999999982
30
0
40
1.749999999999998
210
0
220
-0
230
1
0
CIRCLE
5
102
100
AcDbEntity
8
0
100
AcDbCircle
10
-32.747004797530707
20
-5.4999999999999982
30
0
40
1.749999999999998
210
0
220
-0
230
1
0
CIRCLE
5
103
100
AcDbEntity
8
0
100
AcDbCircle
10
-95.249999999999986
20
99.279000000000011
30
0
40
1.7499999999999893
210
0
220
-0
230
1
0
CIRCLE
5
104
100
AcDbEntity
8
0
100
AcDbCircle
10
-194.52899999999997
20
46.125
30
0
40
1.7500000000000071
210
0
220
-0
230
1
0
CIRCLE
5
105
100
AcDbEntity
8
0
100
AcDbCircle
10
4.0289999999999999
20
46.125000000000007
30
0
40
1.7500000000000038
210
0
220
-0
230
1
0
CIRCLE
5
106
100
AcDbEntity
8
0
100
AcDbCircle
10
2.5
20
-5.5
30
0
40
1.7500000000000004
210
0
220
-0
230
1
0
CIRCLE
5
107
100
AcDbEntity
8
0
100
AcDbCircle
10
2.4999999999999867
20
97.749999999999986
30
0
40
1.7500000000000016
210
0
220
-0
230
1
0
CIRCLE
5
108
100
AcDbEntity
8
0
100
AcDbCircle
10
-193
20
-5.5
30
0
40
1.7500000000000071
210
0
220
-0
230
1
0
ARC
5
109
100
AcDbEntity
8
0
100
AcDbCircle
10
-29.467000000000013
20
94.307999999999993
30
0
40
1.5000000000000124
210
0
220
-0
230
1
100
AcDbArc
50
0
51
89.99999999999946
0
LINE
5
110
100
AcDbEntity
8
0
100
AcDbLine
10
-27.966999577552087
20
94.308000000000021
30
0
11
-27.967000000000013
21
78.257999999999996
31
0
0
ARC
5
111
100
AcDbEntity
8
0
100
AcDbCircle
10
-26.467000000000006
20
78.257999999999996
30
0
40
1.500000000000008
210
0
220
0
230
1
100
AcDbArc
50
180
51
270.00000000000051
0
LINE
5
112
100
AcDbEntity
8
0
100
AcDbLine
10
-26.466999999999992
20
76.75800000000001
30
0
11
-0.94200000000000728
21
76.75800000000001
31
0
0
ARC
5
113
100
AcDbEntity
8
0
100
AcDbCircle
10
-0.94200000000000894
20
75.257999999999996
30
0
40
1.500000000000008
210
0
220
-0
230
1
100
AcDbArc
50
0
51
89.999999999999929
0
LINE
5
114
100
AcDbEntity
8
0
100
AcDbLine
10
0.55799999999999905
20
75.25800000000001
30
0
11
0.55800000000001404
21
0.94200000000000728
31
0
0
ARC
5
115
100
AcDbEntity
8
0
100
AcDbCircle
10
-0.94200000000000117
20
0.9420000000000075
30
0
40
1.5000000000000009
210
0
220
0
230
1
100
AcDbArc
50
269.99999999999972
51
360
0
LINE
5
116
100
AcDbEntity
8
0
100
AcDbLine
10
-0.9420000000000075
20
-0.55799999999999317
30
0
11
-189.55799999999999
21
-0.55799999999997851
31
0
0
ARC
5
117
100
AcDbEntity
8
0
100
AcDbCircle
10
-189.55799999999999
20
0.94200000000000395
30
0
40
1.4999999999999858
210
0
220
0
230
1
100
AcDbArc
50
180
51
270
0
LINE
5
118
100
AcDbEntity
8
0
100
AcDbLine
10
-191.05799999999999
20
0.9420000000000075
30
0
11
-191.05799999999999
21
75.25800000000001
31
0
0
ARC
5
119
100
AcDbEntity
8
0
100
AcDbCircle
10
-189.55800000000005
20
75.258000000000067
30
0
40
1.4999999999999414
210
0
220
-0
230
1
100
AcDbArc
50
89.999999999997826
51
180
0
LINE
5
120
100
AcDbEntity
8
0
100
AcDbLine
10
-189.55799999999999
20
76.75800000000001
30
0
11
-164.03299999999999
21
76.757999999999996
31
0
0
ARC
5
121
100
AcDbEntity
8
0
100
AcDbCircle
10
-164.03300000000002
20
78.258000000000067
30
0
40
1.5000000000000657
210
0
220
0
230
1
100
AcDbArc
50
270.00000000000108
51
360
0
LINE
5
122
100
AcDbEntity
8
0
100
AcDbLine
10
-162.53299999999996
20
78.257999999999996
30
0
11
-162.53299999999999
21
94.308000000000021
31
0
0
ARC
5
123
100
AcDbEntity
8
0
100
AcDbCircle
10
-161.03300000000004
20
94.308000000000064
30
0
40
1.4999999999999503
210
0
220
-0
230
1
100
AcDbArc
50
89.99999999999892
51
180
0
LINE
5
124
100
AcDbEntity
8
0
100
AcDbLine
10
-161.03300000000002
20
95.808000000000021
30
0
11
-29.466999999999999
21
95.807999999999993
31
0
0
LWPOLYLINE
5
125
100
AcDbEntity
8
0
100
AcDbPolyline
90
8
70
1
43
0.0
10
-193
20
102.75
10
2.4999999999999996
20
102.75
42
-0.4142135623730932
10
7.5
20
97.75
10
7.5000000000000071
20
-5.5000000000000053
42
-0.41421356237309476
10
2.5
20
-10.500000000000007
10
-193
20
-10.5
42
-0.41421356237309465
10
-198
20
-5.5000000000000071
10
-198
20
97.75
42
-0.41421356237309503
0
ENDSEC
0
SECTION
2
OBJECTS
0
DICTIONARY
5
C
100
AcDbDictionary
3
ACAD_GROUP
350
D
3
ACAD_MLINESTYLE
350
17
0
DICTIONARY
5
D
100
AcDbDictionary
0
DICTIONARY
5
1A
330
C
100
AcDbDictionary
0
DICTIONARY
5
17
100
AcDbDictionary
0
ENDSEC
0
EOF
