0
SECTION
2
HEADER
9
$INSUNITS
70
4
9
$ACADVER
1
AC1014
9
$HANDSEED
5
FFFF
0
ENDSEC
0
SECTION
2
TABLES
0
TABLE
2
VPORT
5
8
100
AcDbSymbolTable
0
ENDTAB
0
TABLE
2
LTYPE
5
5
100
AcDbSymbolTable
0
LTYPE
5
14
100
AcDbSymbolTableRecord
100
AcDbLinetypeTableRecord
2
BYBLOCK
70
0
0
LTYPE
5
15
100
AcDbSymbolTableRecord
100
AcDbLinetypeTableRecord
2
BYLAYER
70
0
0
ENDTAB
0
TABLE
2
LAYER
5
2
100
AcDbSymbolTable
70
2
0
LAYER
5
50
100
AcDbSymbolTableRecord
100
AcDbLayerTableRecord
2
0
70
0
6
CONTINUOUS
0
ENDTAB
0
TABLE
2
STYLE
5
3
100
AcDbSymbolTable
70
1
0
STYLE
5
11
100
AcDbSymbolTableRecord
100
AcDbTextStyleTableRecord
2
STANDARD
70
0
0
ENDTAB
0
TABLE
2
VIEW
5
6
100
AcDbSymbolTable
70
0
0
ENDTAB
0
TABLE
2
UCS
5
7
100
AcDbSymbolTable
70
0
0
ENDTAB
0
TABLE
2
APPID
5
9
100
AcDbSymbolTable
70
2
0
APPID
5
12
100
AcDbSymbolTableRecord
100
AcDbRegAppTableRecord
2
ACAD
70
0
0
ENDTAB
0
TABLE
2
DIMSTYLE
5
A
100
AcDbSymbolTable
70
1
0
ENDTAB
0
TABLE
2
BLOCK_RECORD
5
1
100
AcDbSymbolTable
70
1
0
BLOCK_RECORD
5
1F
100
AcDbSymbolTableRecord
100
AcDbBlockTableRecord
2
*MODEL_SPACE
0
BLOCK_RECORD
5
1B
100
AcDbSymbolTableRecord
100
AcDbBlockTableRecord
2
*PAPER_SPACE
0
ENDTAB
0
ENDSEC
0
SECTION
2
BLOCKS
0
BLOCK
5
20
100
AcDbEntity
100
AcDbBlockBegin
2
*MODEL_SPACE
0
ENDBLK
5
21
100
AcDbEntity
100
AcDbBlockEnd
0
BLOCK
5
1C
100
AcDbEntity
100
AcDbBlockBegin
2
*PAPER_SPACE
0
ENDBLK
5
1D
100
AcDbEntity
100
AcDbBlockEnd
0
ENDSEC
0
SECTION
2
ENTITIES
0
LWPOLYLINE
5
100
100
AcDbEntity
8
0
100
AcDbPolyline
90
8
70
1
43
0.0
10
-182.27500000000006
20
60.17499999999999
10
-182.27500000000006
20
73.174999999999997
42
0.41421356237309503
10
-182.77500000000006
20
73.674999999999997
10
-214.8250000000001
20
73.674999999999997
42
0.41421356237309503
10
-215.32500000000005
20
73.174999999999997
10
-215.3250000000001
20
60.17499999999999
42
0.4142135623730222
10
-214.8250000000001
20
59.674999999999997
10
-182.77500000000006
20
59.674999999999997
42
0.41421356237307422
0
LWPOLYLINE
5
101
100
AcDbEntity
8
0
100
AcDbPolyline
90
8
70
1
43
0.0
10
-239.42500000000007
20
41.125
42
-0.41421356237309503
10
-239.92500000000007
20
40.625
10
-252.92500000000007
20
40.624999999999993
42
-0.41421356237309503
10
-253.42500000000007
20
41.125
10
-253.42500000000007
20
54.125000000000007
42
-0.41421356237309503
10
-252.92500000000007
20
54.625
10
-239.92500000000007
20
54.625000000000014
42
-0.41421356237309503
10
-239.42500000000007
20
54.125000000000007
0
LWPOLYLINE
5
102
100
AcDbEntity
8
0
100
AcDbPolyline
90
8
70
1
43
0.0
10
-196.27500000000009
20
16.024999999999999
10
-196.27500000000009
20
3.0250000000000021
42
0.41421356237309631
10
-195.77500000000009
20
2.5249999999999995
10
-182.77500000000006
20
2.5249999999999928
42
0.41421356237309631
10
-182.27500000000006
20
3.0250000000000021
10
-182.27500000000006
20
16.024999999999999
42
0.41421356237309503
10
-182.77500000000006
20
16.524999999999999
10
-195.77500000000009
20
16.525000000000006
42
0.41421356237309503
0
LWPOLYLINE
5
103
100
AcDbEntity
8
0
100
AcDbPolyline
90
8
70
1
43
0.0
10
-291.02500000000009
20
2.5249999999999928
42
-0.41421356237309503
10
-291.52500000000009
20
3.0249999999999999
10
-291.52500000000009
20
16.024999999999999
42
-0.41421356237309503
10
-291.02500000000009
20
16.525000000000002
10
-278.02500000000003
20
16.525000000000006
42
-0.41421356237307422
10
-277.52500000000009
20
16.024999999999999
10
-277.52500000000009
20
3.0250000000000021
42
-0.41421356237309631
10
-278.02500000000009
20
2.5249999999999995
0
LWPOLYLINE
5
104
100
AcDbEntity
8
0
100
AcDbPolyline
90
8
70
1
43
0.0
10
-252.92500000000007
20
21.574999999999992
42
-0.41421356237309503
10
-253.42500000000007
20
22.074999999999999
10
-253.42500000000007
20
35.075000000000003
42
-0.41421356237309503
10
-252.92500000000007
20
35.575000000000003
10
-239.92500000000007
20
35.57500000000001
42
-0.41421356237309503
10
-239.42500000000007
20
35.075000000000003
10
-239.42500000000007
20
22.074999999999999
42
-0.41421356237309503
10
-239.92500000000007
20
21.575000000000003
0
LWPOLYLINE
5
105
100
AcDbEntity
8
0
100
AcDbPolyline
90
8
70
1
43
0.0
10
-271.97500000000008
20
2.5249999999999928
42
-0.41421356237309503
10
-272.47500000000008
20
3.0249999999999999
10
-272.47500000000008
20
16.024999999999999
42
-0.41421356237309503
10
-271.97500000000008
20
16.524999999999999
10
-258.97500000000008
20
16.525000000000006
42
-0.41421356237309503
10
-258.47500000000008
20
16.024999999999999
10
-258.47500000000008
20
3.0250000000000021
42
-0.41421356237309631
10
-258.97500000000008
20
2.5250000000000017
0
LWPOLYLINE
5
106
100
AcDbEntity
8
0
100
AcDbPolyline
90
8
70
1
43
0.0
10
-291.02500000000009
20
40.624999999999993
42
-0.41421356237309503
10
-291.52500000000009
20
41.125
10
-291.52500000000009
20
54.125000000000007
42
-0.41421356237309503
10
-291.02500000000009
20
54.625
10
-278.02500000000003
20
54.625000000000014
42
-0.41421356237307422
10
-277.52500000000009
20
54.125000000000007
10
-277.52500000000009
20
41.125
42
-0.41421356237309503
10
-278.02500000000009
20
40.625
0
LWPOLYLINE
5
107
100
AcDbEntity
8
0
100
AcDbPolyline
90
8
70
1
43
0.0
10
-214.8250000000001
20
2.5249999999999928
42
-0.41421356237309503
10
-215.3250000000001
20
3.0249999999999999
10
-215.3250000000001
20
16.024999999999999
42
-0.41421356237309503
10
-214.8250000000001
20
16.524999999999999
10
-201.82500000000007
20
16.525000000000006
42
-0.41421356237309503
10
-201.32500000000007
20
16.024999999999999
10
-201.32500000000007
20
3.0250000000000021
42
-0.41421356237309631
10
-201.82500000000007
20
2.5249999999999928
0
LWPOLYLINE
5
108
100
AcDbEntity
8
0
100
AcDbPolyline
90
8
70
1
43
0.0
10
-233.87500000000011
20
40.624999999999993
42
-0.41421356237309503
10
-234.37500000000011
20
41.125
10
-234.37500000000011
20
54.125000000000007
42
-0.41421356237309503
10
-233.87500000000011
20
54.625
10
-220.87500000000009
20
54.625000000000014
42
-0.41421356237309503
10
-220.37500000000009
20
54.125000000000007
10
-220.37500000000009
20
41.125
42
-0.41421356237309503
10
-220.87500000000009
20
40.625
0
LWPOLYLINE
5
109
100
AcDbEntity
8
0
100
AcDbPolyline
90
8
70
1
43
0.0
10
-271.97500000000008
20
59.674999999999997
42
-0.41421356237309503
10
-272.47500000000008
20
60.174999999999997
10
-272.47500000000008
20
73.174999999999997
42
-0.41421356237309503
10
-271.97500000000008
20
73.674999999999997
10
-258.97500000000008
20
73.675000000000011
42
-0.41421356237309503
10
-258.47500000000008
20
73.174999999999997
10
-258.47500000000008
20
60.174999999999997
42
-0.41421356237309503
10
-258.97500000000008
20
59.675000000000004
0
LWPOLYLINE
5
110
100
AcDbEntity
8
0
100
AcDbPolyline
90
8
70
1
43
0.0
10
-252.92500000000007
20
2.5249999999999928
42
-0.41421356237309503
10
-253.42500000000007
20
3.0249999999999999
10
-253.42500000000007
20
16.024999999999999
42
-0.41421356237309503
10
-252.92500000000007
20
16.524999999999999
10
-239.92500000000007
20
16.525000000000006
42
-0.41421356237309503
10
-239.42500000000007
20
16.024999999999999
10
-239.42500000000007
20
3.0250000000000021
42
-0.41421356237309631
10
-239.92500000000007
20
2.5250000000000017
0
LWPOLYLINE
5
111
100
AcDbEntity
8
0
100
AcDbPolyline
90
8
70
1
43
0.0
10
-252.92500000000007
20
59.674999999999997
42
-0.41421356237309503
10
-253.42500000000007
20
60.174999999999997
10
-253.42500000000007
20
73.174999999999997
42
-0.41421356237309503
10
-252.92500000000007
20
73.674999999999997
10
-239.92500000000007
20
73.675000000000011
42
-0.41421356237309503
10
-239.42500000000007
20
73.174999999999997
10
-239.42500000000007
20
60.174999999999997
42
-0.41421356237309503
10
-239.92500000000007
20
59.675000000000004
0
LWPOLYLINE
5
112
100
AcDbEntity
8
0
100
AcDbPolyline
90
8
70
1
43
0.0
10
-291.02500000000009
20
59.674999999999997
42
-0.41421356237309503
10
-291.52500000000009
20
60.174999999999997
10
-291.52500000000009
20
73.174999999999997
42
-0.41421356237309503
10
-291.02500000000009
20
73.674999999999997
10
-278.02500000000003
20
73.675000000000011
42
-0.41421356237307422
10
-277.52500000000009
20
73.174999999999997
10
-277.52500000000009
20
60.174999999999997
42
-0.41421356237309503
10
-278.02500000000009
20
59.675000000000004
0
LWPOLYLINE
5
113
100
AcDbEntity
8
0
100
AcDbPolyline
90
8
70
1
43
0.0
10
-271.97500000000008
20
40.624999999999993
42
-0.41421356237309503
10
-272.47500000000008
20
41.125
10
-272.47500000000008
20
54.125000000000007
42
-0.41421356237309503
10
-271.97500000000008
20
54.625
10
-258.97500000000008
20
54.625000000000014
42
-0.41421356237309503
10
-258.47500000000008
20
54.125000000000007
10
-258.47500000000008
20
41.125
42
-0.41421356237309503
10
-258.97500000000008
20
40.625
0
LWPOLYLINE
5
114
100
AcDbEntity
8
0
100
AcDbPolyline
90
8
70
1
43
0.0
10
-195.77500000000009
20
40.624999999999993
42
-0.41421356237309503
10
-196.27500000000009
20
41.125
10
-196.27500000000009
20
54.125000000000007
42
-0.41421356237309503
10
-195.77500000000009
20
54.625000000000014
10
-182.77500000000006
20
54.625000000000014
42
-0.41421356237309503
10
-182.27500000000006
20
54.125000000000007
10
-182.27500000000006
20
41.125
42
-0.41421356237309503
10
-182.77500000000006
20
40.624999999999993
0
LWPOLYLINE
5
115
100
AcDbEntity
8
0
100
AcDbPolyline
90
8
70
1
43
0.0
10
-233.87500000000011
20
59.674999999999997
42
-0.41421356237309503
10
-234.37500000000011
20
60.174999999999997
10
-234.37500000000011
20
73.174999999999997
42
-0.41421356237309503
10
-233.87500000000011
20
73.674999999999997
10
-220.87500000000009
20
73.675000000000011
42
-0.41421356237309503
10
-220.37500000000009
20
73.174999999999997
10
-220.37500000000009
20
60.174999999999997
42
-0.41421356237309503
10
-220.87500000000009
20
59.675000000000004
0
LWPOLYLINE
5
116
100
AcDbEntity
8
0
100
AcDbPolyline
90
8
70
1
43
0.0
10
-214.8250000000001
20
21.574999999999992
42
-0.41421356237309503
10
-215.3250000000001
20
22.074999999999999
10
-215.3250000000001
20
35.075000000000003
42
-0.41421356237309503
10
-214.8250000000001
20
35.575000000000003
10
-201.82500000000007
20
35.57500000000001
42
-0.41421356237309503
10
-201.32500000000007
20
35.075000000000003
10
-201.32500000000007
20
22.074999999999999
42
-0.41421356237309503
10
-201.82500000000007
20
21.574999999999992
0
LWPOLYLINE
5
117
100
AcDbEntity
8
0
100
AcDbPolyline
90
8
70
1
43
0.0
10
-214.8250000000001
20
40.624999999999993
42
-0.41421356237309503
10
-215.3250000000001
20
41.125
10
-215.3250000000001
20
54.125000000000007
42
-0.41421356237309503
10
-214.8250000000001
20
54.625
10
-201.82500000000007
20
54.625000000000014
42
-0.41421356237309503
10
-201.32500000000007
20
54.125000000000007
10
-201.32500000000007
20
41.125
42
-0.41421356237309503
10
-201.82500000000007
20
40.624999999999993
0
LWPOLYLINE
5
118
100
AcDbEntity
8
0
100
AcDbPolyline
90
8
70
1
43
0.0
10
-271.97500000000008
20
21.574999999999992
42
-0.41421356237309503
10
-272.47500000000008
20
22.074999999999999
10
-272.47500000000008
20
35.075000000000003
42
-0.41421356237309503
10
-271.97500000000008
20
35.575000000000003
10
-258.97500000000008
20
35.57500000000001
42
-0.41421356237309503
10
-258.47500000000008
20
35.075000000000003
10
-258.47500000000008
20
22.074999999999999
42
-0.41421356237309503
10
-258.97500000000008
20
21.575000000000003
0
LWPOLYLINE
5
119
100
AcDbEntity
8
0
100
AcDbPolyline
90
8
70
1
43
0.0
10
-233.87500000000011
20
21.574999999999992
42
-0.41421356237309503
10
-234.37500000000011
20
22.074999999999999
10
-234.37500000000011
20
35.075000000000003
42
-0.41421356237309503
10
-233.87500000000011
20
35.575000000000003
10
-220.87500000000009
20
35.57500000000001
42
-0.41421356237309503
10
-220.37500000000009
20
35.075000000000003
10
-220.37500000000009
20
22.074999999999999
42
-0.41421356237309503
10
-220.87500000000009
20
21.575000000000003
0
LWPOLYLINE
5
120
100
AcDbEntity
8
0
100
AcDbPolyline
90
8
70
1
43
0.0
10
-233.87500000000011
20
2.5249999999999928
42
-0.41421356237309503
10
-234.37500000000011
20
3.0249999999999999
10
-234.37500000000011
20
16.024999999999999
42
-0.41421356237309503
10
-233.87500000000011
20
16.524999999999999
10
-220.87500000000009
20
16.525000000000006
42
-0.41421356237309503
10
-220.37500000000009
20
16.024999999999999
10
-220.37500000000009
20
3.0250000000000021
42
-0.41421356237309631
10
-220.87500000000009
20
2.5250000000000017
0
LWPOLYLINE
5
121
100
AcDbEntity
8
0
100
AcDbPolyline
90
8
70
1
43
0.0
10
-195.77500000000009
20
21.574999999999992
42
-0.41421356237309503
10
-196.27500000000009
20
22.074999999999999
10
-196.27500000000009
20
35.075000000000003
42
-0.41421356237309503
10
-195.77500000000009
20
35.57500000000001
10
-182.77500000000006
20
35.57500000000001
42
-0.41421356237309503
10
-182.27500000000006
20
35.075000000000003
10
-182.27500000000006
20
22.074999999999999
42
-0.41421356237309503
10
-182.77500000000006
20
21.574999999999992
0
LWPOLYLINE
5
122
100
AcDbEntity
8
0
100
AcDbPolyline
90
8
70
1
43
0.0
10
-291.02500000000009
20
21.574999999999992
42
-0.41421356237309503
10
-291.52500000000009
20
22.074999999999999
10
-291.52500000000009
20
35.075000000000003
42
-0.41421356237309503
10
-291.02500000000009
20
35.575000000000003
10
-278.02500000000003
20
35.57500000000001
42
-0.41421356237307422
10
-277.52500000000009
20
35.075000000000003
10
-277.52500000000009
20
22.074999999999999
42
-0.41421356237309503
10
-278.02500000000009
20
21.574999999999996
0
CIRCLE
5
123
100
AcDbEntity
8
0
100
AcDbCircle
10
-297.02500000000009
20
-2.974999999999997
30
0
40
1.0749999999999997
210
-2.1084395886461051e-81
220
3.5105790114911671e-129
230
1
0
CIRCLE
5
124
100
AcDbEntity
8
0
100
AcDbCircle
10
-176.77500000000006
20
-2.9750000000000023
30
0
40
1.0749999999999993
210
-2.1084395886461046e-81
220
3.5105790114911665e-129
230
1
0
CIRCLE
5
125
100
AcDbEntity
8
0
100
AcDbCircle
10
-297.02500000000009
20
79.174999999999983
30
0
40
1.0749999999999971
210
-2.1084395886461046e-81
220
3.5105790114911665e-129
230
1
0
CIRCLE
5
126
100
AcDbEntity
8
0
100
AcDbCircle
10
-176.77500000000006
20
79.174999999999983
30
0
40
1.0749999999999993
210
-2.1084395886461046e-81
220
3.5105790114911665e-129
230
1
0
LWPOLYLINE
5
127
100
AcDbEntity
8
0
100
AcDbPolyline
90
8
70
1
43
0.0
10
-176.27500000000009
20
81.675000000000011
42
-0.41421356237309503
10
-174.27500000000009
20
79.675000000000026
10
-174.27500000000009
20
-5.697000000000001
42
-0.4142135623730957
10
-176.27500000000009
20
-7.6970000000000027
10
-297.52500000000009
20
-7.6969999999999956
42
-0.41421356237309537
10
-299.52500000000009
20
-5.697000000000001
10
-299.52500000000009
20
79.674999999999997
42
-0.41421356237309503
10
-297.52500000000009
20
81.675000000000011
0
ENDSEC
0
SECTION
2
OBJECTS
0
DICTIONARY
5
C
100
AcDbDictionary
3
ACAD_GROUP
350
D
3
ACAD_MLINESTYLE
350
17
0
DICTIONARY
5
D
100
AcDbDictionary
0
DICTIONARY
5
1A
330
C
100
AcDbDictionary
0
DICTIONARY
5
17
100
AcDbDictionary
0
ENDSEC
0
EOF
