0
SECTION
2
HEADER
9
$INSUNITS
70
4
9
$ACADVER
1
AC1014
9
$HANDSEED
5
FFFF
0
ENDSEC
0
SECTION
2
TABLES
0
TABLE
2
VPORT
5
8
100
AcDbSymbolTable
0
ENDTAB
0
TABLE
2
LTYPE
5
5
100
AcDbSymbolTable
0
LTYPE
5
14
100
AcDbSymbolTableRecord
100
AcDbLinetypeTableRecord
2
BYBLOCK
70
0
0
LTYPE
5
15
100
AcDbSymbolTableRecord
100
AcDbLinetypeTableRecord
2
BYLAYER
70
0
0
ENDTAB
0
TABLE
2
LAYER
5
2
100
AcDbSymbolTable
70
2
0
LAYER
5
50
100
AcDbSymbolTableRecord
100
AcDbLayerTableRecord
2
0
70
0
6
CONTINUOUS
0
ENDTAB
0
TABLE
2
STYLE
5
3
100
AcDbSymbolTable
70
1
0
STYLE
5
11
100
AcDbSymbolTableRecord
100
AcDbTextStyleTableRecord
2
STANDARD
70
0
0
ENDTAB
0
TABLE
2
VIEW
5
6
100
AcDbSymbolTable
70
0
0
ENDTAB
0
TABLE
2
UCS
5
7
100
AcDbSymbolTable
70
0
0
ENDTAB
0
TABLE
2
APPID
5
9
100
AcDbSymbolTable
70
2
0
APPID
5
12
100
AcDbSymbolTableRecord
100
AcDbRegAppTableRecord
2
ACAD
70
0
0
ENDTAB
0
TABLE
2
DIMSTYLE
5
A
100
AcDbSymbolTable
70
1
0
ENDTAB
0
TABLE
2
BLOCK_RECORD
5
1
100
AcDbSymbolTable
70
1
0
BLOCK_RECORD
5
1F
100
AcDbSymbolTableRecord
100
AcDbBlockTableRecord
2
*MODEL_SPACE
0
BLOCK_RECORD
5
1B
100
AcDbSymbolTableRecord
100
AcDbBlockTableRecord
2
*PAPER_SPACE
0
ENDTAB
0
ENDSEC
0
SECTION
2
BLOCKS
0
BLOCK
5
20
100
AcDbEntity
100
AcDbBlockBegin
2
*MODEL_SPACE
0
ENDBLK
5
21
100
AcDbEntity
100
AcDbBlockEnd
0
BLOCK
5
1C
100
AcDbEntity
100
AcDbBlockBegin
2
*PAPER_SPACE
0
ENDBLK
5
1D
100
AcDbEntity
100
AcDbBlockEnd
0
ENDSEC
0
SECTION
2
ENTITIES
0
CIRCLE
5
100
100
AcDbEntity
8
0
100
AcDbCircle
10
194.52899999999974
20
-46.124999999999943
30
4.9303806576313238e-31
40
1.7500000000000051
210
0
220
1.7516230804060213e-46
230
1
0
CIRCLE
5
101
100
AcDbEntity
8
0
100
AcDbCircle
10
-2.4999999999999969
20
5.4999999999999964
30
0
40
1.7499999999999982
210
-1.2325951644078312e-32
220
8.7581154020300931e-47
230
1
0
CIRCLE
5
102
100
AcDbEntity
8
0
100
AcDbCircle
10
32.747004797530671
20
5.4999999999999938
30
0
40
1.7499999999999962
210
-4.3852810786177866e-60
220
-8.7581154020301067e-47
230
1
0
CIRCLE
5
103
100
AcDbEntity
8
0
100
AcDbCircle
10
192.99999999999977
20
-97.749999999999901
30
9.8607613152626476e-31
40
1.7499977760069976
210
0
220
-6.1306807814210747e-46
230
1
0
CIRCLE
5
104
100
AcDbEntity
8
0
100
AcDbCircle
10
192.99999999999977
20
5.4999999999999947
30
0
40
1.7500000000000051
210
0
220
1.7516230804060213e-46
230
1
0
CIRCLE
5
105
100
AcDbEntity
8
0
100
AcDbCircle
10
-4.0289999999999946
20
-46.124999999999957
30
0
40
1.7500000000000018
210
-2.8592106297016389e-77
220
-1.7516230804060213e-46
230
1
0
CIRCLE
5
106
100
AcDbEntity
8
0
100
AcDbCircle
10
62.527004797530623
20
5.4999999999999938
30
0
40
1.7499999999999962
210
-4.3852810786177866e-60
220
-8.7581154020301067e-47
230
1
0
CIRCLE
5
107
100
AcDbEntity
8
0
100
AcDbCircle
10
-2.4999999999999836
20
-97.749999999999886
30
2.4651903288156619e-31
40
1.7500000000000051
210
-2.8592106297016366e-77
220
1.7516230804060213e-46
230
1
0
CIRCLE
5
108
100
AcDbEntity
8
0
100
AcDbCircle
10
95.249999999999844
20
-99.278999999999911
30
0
40
1.7499999999999873
210
0
220
8.7581154020301067e-47
230
1
0
LWPOLYLINE
5
109
100
AcDbEntity
8
0
100
AcDbPolyline
90
8
70
1
43
0.0
10
135.86699999999792
20
-41.117089761818811
42
-0.41421356237311585
10
136.36699999999789
20
-40.617089761818796
10
149.3669999999978
20
-40.617089761818228
42
-0.41421356237312101
10
149.86699999999789
20
-41.117089761818207
10
149.86699999999843
20
-54.117089761818193
42
-0.41421356237312101
10
149.36699999999846
20
-54.617089761818214
10
136.36699999999848
20
-54.617089761818782
42
-0.41421356237311063
10
135.86699999999846
20
-54.117089761818804
0
LWPOLYLINE
5
110
100
AcDbEntity
8
0
100
AcDbPolyline
90
8
70
1
43
0.0
10
40.616999999996324
20
-3.017089761823085
42
-0.41421356237310802
10
41.116999999996303
20
-2.5170897618230637
10
54.116999999996281
20
-2.5170897618224859
42
-0.41421356237309148
10
54.61699999999631
20
-3.017089761822469
10
54.616999999996885
20
-16.017089761822451
42
-0.41421356237310025
10
54.116999999996906
20
-16.517089761822476
10
41.116999999996906
20
-16.517089761823044
42
-0.4142135623730781
10
40.616999999996899
20
-16.017089761823065
0
LWPOLYLINE
5
111
100
AcDbEntity
8
0
100
AcDbPolyline
90
8
70
1
43
0.0
10
97.766999999998802
20
-60.167089761820485
42
-0.41421356237310542
10
98.26699999999876
20
-59.667089761820471
10
111.26699999999875
20
-59.667089761819895
42
-0.41421356237311063
10
111.76699999999877
20
-60.167089761819874
10
111.76699999999933
20
-73.167089761819852
42
-0.41421356237311063
10
111.26699999999937
20
-73.667089761819881
10
98.266999999999385
20
-73.667089761820449
42
-0.41421356237311063
10
97.766999999999356
20
-73.167089761820478
0
LWPOLYLINE
5
112
100
AcDbEntity
8
0
100
AcDbPolyline
90
8
70
1
43
0.0
10
135.86699999999621
20
-3.017089761818863
42
-0.41421356237309342
10
136.36699999999618
20
-2.5170897618188413
10
149.36699999999615
20
-2.5170897618182591
42
-0.41421356237312529
10
149.86699999999618
20
-3.017089761818248
10
149.86699999999675
20
-16.017089761818227
42
-0.41421356237309243
10
149.36699999999678
20
-16.517089761818252
10
136.36699999999681
20
-16.517089761818834
42
-0.41421356237311452
10
135.86699999999678
20
-16.017089761818845
0
LWPOLYLINE
5
113
100
AcDbEntity
8
0
100
AcDbPolyline
90
8
70
1
43
0.0
10
135.86699999999706
20
-22.067089761818842
42
-0.41421356237311846
10
136.36699999999703
20
-21.567089761818821
10
149.36699999999701
20
-21.567089761818249
42
-0.41421356237310802
10
149.86699999999703
20
-22.067089761818224
10
149.86699999999757
20
-35.067089761818202
42
-0.41421356237311063
10
149.36699999999763
20
-35.567089761818231
10
136.36699999999766
20
-35.567089761818814
42
-0.41421356237311324
10
135.86699999999763
20
-35.067089761818828
0
LWPOLYLINE
5
114
100
AcDbEntity
8
0
100
AcDbPolyline
90
8
70
1
43
0.0
10
116.81699999999793
20
-41.117089761819656
42
-0.41421356237311585
10
117.3169999999979
20
-40.617089761819642
10
130.31699999999785
20
-40.617089761819059
42
-0.41421356237312623
10
130.81699999999788
20
-41.117089761819052
10
130.81699999999842
20
-54.117089761819031
42
-0.41421356237311063
10
130.31699999999847
20
-54.617089761819059
10
117.3169999999985
20
-54.617089761819628
42
-0.41421356237311063
10
116.81699999999849
20
-54.117089761819642
0
LWPOLYLINE
5
115
100
AcDbEntity
8
0
100
AcDbPolyline
90
8
70
1
43
0.0
10
40.616999999998853
20
-60.167089761823014
42
-0.41421356237307422
10
41.116999999998839
20
-59.667089761823
10
54.116999999998818
20
-59.667089761822425
42
-0.41421356237307944
10
54.616999999998839
20
-60.167089761822403
10
54.616999999999422
20
-73.167089761822382
42
-0.41421356237309503
10
54.116999999999436
20
-73.66708976182241
10
41.11699999999945
20
-73.667089761822979
42
-0.4142135623730846
10
40.616999999999436
20
-73.167089761823007
0
LWPOLYLINE
5
116
100
AcDbEntity
8
0
100
AcDbPolyline
90
8
70
1
43
0.0
10
173.96699999999785
20
-41.117089761817127
42
-0.41421356237305862
10
174.4669999999978
20
-40.617089761817113
10
187.46699999999777
20
-40.61708976181653
42
-0.41421356237308982
10
187.96699999999782
20
-41.117089761816494
10
187.96699999999842
20
-54.117089761816501
42
-0.41421356237307422
10
187.46699999999845
20
-54.617089761816516
10
174.46699999999845
20
-54.617089761817105
42
-0.41421356237307422
10
173.96699999999842
20
-54.117089761817134
0
LWPOLYLINE
5
117
100
AcDbEntity
8
0
100
AcDbPolyline
90
8
70
1
43
0.0
10
168.41699999999616
20
-2.5170897618174108
42
-0.41421356237309631
10
168.91699999999619
20
-3.0170897618173842
10
168.91699999999676
20
-16.017089761817385
42
-0.4142135623730781
10
168.41699999999679
20
-16.517089761817406
10
155.41699999999682
20
-16.517089761817985
42
-0.41421356237314577
10
154.91699999999673
20
-16.017089761817999
10
154.91699999999616
20
-3.0170897618180192
42
-0.4142135623730937
10
155.41699999999616
20
-2.517089761817997
0
LWPOLYLINE
5
118
100
AcDbEntity
8
0
100
AcDbPolyline
90
8
70
1
43
0.0
10
21.566999999996348
20
-3.0170897618239296
42
-0.41421356237309631
10
22.066999999996323
20
-2.5170897618239079
10
35.066999999996312
20
-2.5170897618233323
42
-0.41421356237309015
10
35.566999999996327
20
-3.0170897618233083
10
35.566999999996909
20
-16.017089761823296
42
-0.41421356237310153
10
35.066999999996931
20
-16.517089761823318
10
22.066999999996941
20
-16.51708976182389
42
-0.41421356237309243
10
21.566999999996924
20
-16.017089761823915
0
LWPOLYLINE
5
119
100
AcDbEntity
8
0
100
AcDbPolyline
90
8
70
1
43
0.0
10
116.81699999999708
20
-22.067089761819684
42
-0.41421356237311846
10
117.31699999999705
20
-21.567089761819666
10
130.31699999999699
20
-21.567089761819084
42
-0.41421356237311324
10
130.81699999999702
20
-22.067089761819069
10
130.81699999999759
20
-35.067089761819048
42
-0.41421356237312101
10
130.31699999999762
20
-35.567089761819076
10
117.31699999999768
20
-35.567089761819652
42
-0.41421356237311324
10
116.81699999999765
20
-35.067089761819673
0
LWPOLYLINE
5
120
100
AcDbEntity
8
0
100
AcDbPolyline
90
8
70
1
43
0.0
10
54.116999999997979
20
-40.617089761822449
42
-0.41421356237307422
10
54.616999999998001
20
-41.117089761822427
10
54.616999999998576
20
-54.117089761822406
42
-0.41421356237307944
10
54.116999999998598
20
-54.617089761822434
10
41.116999999998605
20
-54.61708976182301
42
-0.4142135623730846
10
40.61699999999859
20
-54.117089761823031
10
40.616999999998015
20
-41.117089761823038
42
-0.4142135623730846
10
41.116999999997994
20
-40.617089761823024
0
LWPOLYLINE
5
121
100
AcDbEntity
8
0
100
AcDbPolyline
90
8
70
1
43
0.0
10
116.81699999999623
20
-3.0170897618197081
42
-0.41421356237309342
10
117.31699999999621
20
-2.5170897618196864
10
130.31699999999614
20
-2.517089761819113
42
-0.41421356237312007
10
130.8169999999962
20
-3.0170897618190917
10
130.81699999999677
20
-16.017089761819076
42
-0.41421356237310675
10
130.31699999999677
20
-16.517089761819093
10
117.31699999999682
20
-16.517089761819676
42
-0.41421356237311452
10
116.8169999999968
20
-16.01708976181969
0
LWPOLYLINE
5
122
100
AcDbEntity
8
0
100
AcDbPolyline
90
8
70
1
43
0.0
10
78.716999999998791
20
-60.16708976182133
42
-0.4142135623730846
10
79.216999999998777
20
-59.667089761821316
10
92.216999999998777
20
-59.667089761820726
42
-0.41421356237310542
10
92.716999999998791
20
-60.167089761820719
10
92.716999999999359
20
-73.167089761820691
42
-0.41421356237312623
10
92.216999999999388
20
-73.667089761820719
10
79.216999999999388
20
-73.667089761821302
42
-0.4142135623730846
10
78.716999999999373
20
-73.167089761821316
0
LWPOLYLINE
5
123
100
AcDbEntity
8
0
100
AcDbPolyline
90
8
70
1
43
0.0
10
78.716999999997952
20
-41.117089761821354
42
-0.41421356237307422
10
79.216999999997938
20
-40.617089761821333
10
92.216999999997924
20
-40.617089761820758
42
-0.41421356237311063
10
92.716999999997952
20
-41.117089761820736
10
92.716999999998507
20
-54.117089761820722
42
-0.41421356237312101
10
92.216999999998535
20
-54.617089761820743
10
79.216999999998535
20
-54.617089761821319
42
-0.41421356237307944
10
78.716999999998535
20
-54.11708976182134
0
LWPOLYLINE
5
124
100
AcDbEntity
8
0
100
AcDbPolyline
90
8
70
1
43
0.0
10
97.766999999996244
20
-3.0170897618205523
42
-0.41421356237309342
10
98.266999999996244
20
-2.5170897618205306
10
111.26699999999622
20
-2.5170897618199559
42
-0.41421356237312074
10
111.76699999999626
20
-3.0170897618199355
10
111.76699999999684
20
-16.017089761819918
42
-0.41421356237310936
10
111.26699999999684
20
-16.517089761819939
10
98.266999999996841
20
-16.517089761820522
42
-0.41421356237311452
10
97.766999999996813
20
-16.017089761820532
0
LWPOLYLINE
5
125
100
AcDbEntity
8
0
100
AcDbPolyline
90
8
70
1
43
0.0
10
116.81699999999879
20
-60.167089761819632
42
-0.41421356237310542
10
117.31699999999874
20
-59.667089761819618
10
130.3169999999987
20
-59.667089761819049
42
-0.41421356237311063
10
130.81699999999873
20
-60.167089761819028
10
130.81699999999927
20
-73.167089761819
42
-0.41421356237311585
10
130.31699999999933
20
-73.667089761819028
10
117.31699999999935
20
-73.667089761819597
42
-0.41421356237311063
10
116.81699999999934
20
-73.167089761819625
0
LWPOLYLINE
5
126
100
AcDbEntity
8
0
100
AcDbPolyline
90
8
70
1
43
0.0
10
35.066999999997996
20
-40.617089761823294
42
-0.41421356237309503
10
35.566999999998018
20
-41.117089761823273
10
35.5669999999986
20
-54.117089761823244
42
-0.41421356237309243
10
35.066999999998615
20
-54.61708976182328
10
22.066999999998629
20
-54.617089761823856
42
-0.4142135623730846
10
21.566999999998615
20
-54.117089761823877
10
21.566999999998039
20
-41.117089761823891
42
-0.41421356237309243
10
22.066999999998018
20
-40.61708976182387
0
LWPOLYLINE
5
127
100
AcDbEntity
8
0
100
AcDbPolyline
90
8
70
1
43
0.0
10
173.96699999999871
20
-60.167089761817103
42
-0.41421356237305862
10
174.46699999999865
20
-59.667089761817081
10
187.46699999999862
20
-59.667089761816506
42
-0.41421356237308982
10
187.96699999999868
20
-60.16708976181647
10
187.96699999999919
20
-73.16708976181647
42
-0.4142135623730534
10
187.46699999999925
20
-73.667089761816499
10
174.4669999999993
20
-73.667089761817081
42
-0.41421356237309503
10
173.96699999999925
20
-73.16708976181711
0
LWPOLYLINE
5
128
100
AcDbEntity
8
0
100
AcDbPolyline
90
8
70
1
43
0.0
10
135.86699999999877
20
-60.167089761818787
42
-0.41421356237310542
10
136.36699999999871
20
-59.667089761818772
10
149.36699999999868
20
-59.667089761818197
42
-0.41421356237311585
10
149.86699999999871
20
-60.167089761818183
10
149.86699999999928
20
-73.167089761818161
42
-0.41421356237312101
10
149.36699999999931
20
-73.66708976181819
10
136.36699999999934
20
-73.667089761818758
42
-0.41421356237311063
10
135.86699999999931
20
-73.167089761818772
0
LWPOLYLINE
5
129
100
AcDbEntity
8
0
100
AcDbPolyline
90
8
70
1
43
0.0
10
67.629000000000204
20
-91.217089761821796
42
-0.41421356237311063
10
67.129000000000204
20
-91.717089761821811
10
61.379000000000232
20
-91.717089761822052
42
-0.41421356237312101
10
60.879000000000204
20
-91.217089761822081
10
60.878999999999628
20
-78.217089761822095
42
-0.41421356237307422
10
61.378999999999607
20
-77.717089761822081
10
67.128999999999607
20
-77.717089761821825
42
-0.4142135623730846
10
67.628999999999621
20
-78.217089761821811
0
LWPOLYLINE
5
130
100
AcDbEntity
8
0
100
AcDbPolyline
90
14
70
1
43
0.0
10
149.01699999999951
20
-78.717089761818201
10
141.12949999999952
20
-78.717089761818542
42
0.41421356237309503
10
140.62949999999955
20
-79.217089761818556
10
140.62950000000012
20
-92.217089761818556
42
0.41421356237311585
10
141.12950000000015
20
-92.717089761818528
10
154.12950000000012
20
-92.717089761817959
42
0.41421356237311585
10
154.62950000000012
20
-92.217089761817931
10
154.62950000000009
20
-91.717089761817959
10
155.26700000000011
20
-91.717089761817917
42
0.41421356237309503
10
155.76700000000008
20
-91.217089761817903
10
155.76699999999951
20
-78.217089761817903
42
0.41421356237310025
10
155.26699999999951
20
-77.717089761817903
10
149.51699999999948
20
-77.717089761818173
42
0.41421356237311585
10
149.01699999999951
20
-78.217089761818187
0
LWPOLYLINE
5
131
100
AcDbEntity
8
0
100
AcDbPolyline
90
14
70
1
43
0.0
10
35.217000000000269
20
-91.717089761823217
42
-0.41421356237310542
10
34.717000000000247
20
-91.217089761823246
10
34.716999999999672
20
-78.217089761823246
42
-0.41421356237308204
10
35.216999999999651
20
-77.717089761823232
10
40.966999999999636
20
-77.71708976182299
42
-0.41421356237307422
10
41.466999999999658
20
-78.217089761822962
10
41.466999999999665
20
-78.717089761822962
10
49.354499999999668
20
-78.717089761822606
42
-0.41421356237307944
10
49.854499999999689
20
-79.217089761822592
10
49.854500000000279
20
-92.217089761822564
42
-0.41421356237312101
10
49.354500000000279
20
-92.717089761822606
10
36.354500000000314
20
-92.717089761823161
42
-0.41421356237311063
10
35.854500000000286
20
-92.217089761823189
10
35.854500000000257
20
-91.717089761823217
0
LWPOLYLINE
5
132
100
AcDbEntity
8
0
100
AcDbPolyline
90
8
70
1
43
0.0
10
97.766999999997097
20
-22.06708976182053
42
-0.41421356237311846
10
98.266999999997068
20
-21.567089761820508
10
111.26699999999707
20
-21.567089761819926
42
-0.41421356237311324
10
111.7669999999971
20
-22.067089761819911
10
111.76699999999767
20
-35.067089761819894
42
-0.41421356237312101
10
111.26699999999769
20
-35.567089761819915
10
98.266999999997694
20
-35.567089761820498
42
-0.41421356237311324
10
97.766999999997665
20
-35.067089761820512
0
LWPOLYLINE
5
133
100
AcDbEntity
8
0
100
AcDbPolyline
90
8
70
1
43
0.0
10
59.666999999997145
20
-22.067089761822217
42
-0.41421356237308721
10
60.166999999997124
20
-21.567089761822196
10
73.166999999997103
20
-21.56708976182162
42
-0.41421356237308721
10
73.666999999997117
20
-22.067089761821602
10
73.666999999997699
20
-35.067089761821592
42
-0.41421356237308721
10
73.166999999997714
20
-35.567089761821606
10
60.166999999997742
20
-35.567089761822182
42
-0.41421356237310025
10
59.666999999997721
20
-35.067089761822203
0
LWPOLYLINE
5
134
100
AcDbEntity
8
0
100
AcDbPolyline
90
8
70
1
43
0.0
10
2.5169999999963748
20
-3.0170897618247738
42
-0.4142135623730957
10
3.0169999999963526
20
-2.5170897618247521
10
16.016999999996344
20
-2.5170897618241757
42
-0.41421356237308821
10
16.516999999996354
20
-3.0170897618241543
10
16.51699999999693
20
-16.017089761824138
42
-0.41421356237309115
10
16.016999999996955
20
-16.517089761824163
10
3.0169999999969743
20
-16.517089761824735
42
-0.41421356237309404
10
2.5169999999969512
20
-16.01708976182476
0
LWPOLYLINE
5
135
100
AcDbEntity
8
0
100
AcDbPolyline
90
8
70
1
43
0.0
10
21.566999999997186
20
-22.067089761823908
42
-0.41421356237308721
10
22.066999999997169
20
-21.567089761823887
10
35.066999999997151
20
-21.567089761823311
42
-0.4142135623730846
10
35.566999999997172
20
-22.067089761823286
10
35.566999999997748
20
-35.067089761823276
42
-0.4142135623730846
10
35.066999999997776
20
-35.567089761823297
10
22.066999999997783
20
-35.567089761823873
42
-0.41421356237308721
10
21.566999999997769
20
-35.067089761823894
0
LWPOLYLINE
5
136
100
AcDbEntity
8
0
100
AcDbPolyline
90
8
70
1
43
0.0
10
78.716999999996261
20
-3.0170897618213965
42
-0.41421356237310542
10
79.216999999996247
20
-2.5170897618213752
10
92.216999999996233
20
-2.5170897618207926
42
-0.41421356237311485
10
92.716999999996261
20
-3.0170897618207793
10
92.71699999999683
20
-16.017089761820763
42
-0.41421356237309243
10
92.216999999996844
20
-16.517089761820785
10
79.216999999996858
20
-16.517089761821357
42
-0.41421356237307944
10
78.716999999996844
20
-16.017089761821378
0
LWPOLYLINE
5
137
100
AcDbEntity
8
0
100
AcDbPolyline
90
20
70
1
43
0.0
10
91.504999999999583
20
-78.717089761820745
10
91.504999999999583
20
-78.217089761820745
42
0.41421356237310025
10
91.004999999999569
20
-77.717089761820745
10
85.254999999999569
20
-77.717089761821015
42
0.41421356237310542
10
84.754999999999598
20
-78.217089761821029
10
84.755000000000166
20
-91.217089761821029
42
0.41421356237310542
10
85.255000000000166
20
-91.717089761821015
10
88.242000000000175
20
-91.717089761820873
10
88.242000000000189
20
-92.217089761820873
42
0.41421356237309503
10
88.742000000000218
20
-92.717089761820844
10
101.7420000000002
20
-92.717089761820276
42
0.41421356237311585
10
102.24200000000019
20
-92.217089761820262
10
102.24200000000017
20
-91.717089761820233
10
105.22900000000018
20
-91.71708976182012
42
0.41421356237311585
10
105.72900000000016
20
-91.217089761820091
10
105.72899999999959
20
-78.21708976182012
42
0.41421356237310542
10
105.22899999999957
20
-77.717089761820134
10
99.478999999999587
20
-77.71708976182039
42
0.41421356237312101
10
98.978999999999587
20
-78.217089761820404
10
98.978999999999587
20
-78.717089761820404
0
LWPOLYLINE
5
138
100
AcDbEntity
8
0
100
AcDbPolyline
90
8
70
1
43
0.0
10
59.6669999999963
20
-3.0170897618222408
42
-0.41421356237310802
10
60.166999999996278
20
-2.5170897618222194
10
73.166999999996264
20
-2.5170897618216452
42
-0.41421356237308399
10
73.666999999996278
20
-3.0170897618216252
10
73.666999999996847
20
-16.017089761821609
42
-0.41421356237310802
10
73.166999999996875
20
-16.51708976182163
10
60.166999999996889
20
-16.517089761822202
42
-0.41421356237308332
10
59.666999999996875
20
-16.017089761822223
0
LWPOLYLINE
5
139
100
AcDbEntity
8
0
100
AcDbPolyline
90
8
70
1
43
0.0
10
173.96699999999615
20
-3.0170897618171755
10
173.96699999999672
20
-16.017089761817161
42
0.41421356237312495
10
174.4669999999968
20
-16.517089761817147
10
187.46699999999674
20
-16.517089761816564
42
0.4142135623730781
10
187.96699999999672
20
-16.017089761816543
10
187.96699999999615
20
-3.0170897618165404
42
0.41421356237311779
10
187.46699999999606
20
-2.517089761816576
10
174.46699999999612
20
-2.5170897618171528
42
0.41421356237307977
0
LWPOLYLINE
5
140
100
AcDbEntity
8
0
100
AcDbPolyline
90
8
70
1
43
0.0
10
154.91699999999702
20
-22.067089761817996
42
-0.41421356237311846
10
155.41699999999702
20
-21.567089761817975
10
168.41699999999696
20
-21.567089761817385
42
-0.41421356237311846
10
168.91699999999705
20
-22.067089761817364
10
168.91699999999761
20
-35.067089761817357
42
-0.4142135623730846
10
168.41699999999764
20
-35.567089761817385
10
155.41699999999764
20
-35.567089761817968
42
-0.41421356237312362
10
154.91699999999759
20
-35.067089761817982
0
LWPOLYLINE
5
141
100
AcDbEntity
8
0
100
AcDbPolyline
90
8
70
1
43
0.0
10
129.6050000000001
20
-91.217089761819054
10
129.60499999999954
20
-78.217089761819054
42
0.41421356237310025
10
129.10499999999954
20
-77.717089761819068
10
123.35499999999954
20
-77.717089761819324
42
0.41421356237311585
10
122.85499999999956
20
-78.217089761819352
10
122.85500000000013
20
-91.217089761819338
42
0.4142135623730846
10
123.35500000000013
20
-91.717089761819324
10
129.10500000000013
20
-91.717089761819068
42
0.41421356237311585
0
LWPOLYLINE
5
142
100
AcDbEntity
8
0
100
AcDbPolyline
90
8
70
1
43
0.0
10
154.91699999999787
20
-41.117089761817979
10
154.91699999999844
20
-54.117089761817965
42
0.41421356237312623
10
155.4169999999985
20
-54.617089761817937
10
168.4169999999985
20
-54.617089761817361
42
0.41421356237307944
10
168.91699999999844
20
-54.117089761817347
10
168.91699999999787
20
-41.11708976181734
42
0.41421356237309503
10
168.41699999999781
20
-40.617089761817375
10
155.41699999999787
20
-40.617089761817951
42
0.41421356237312101
0
LWPOLYLINE
5
143
100
AcDbEntity
8
0
100
AcDbPolyline
90
8
70
1
43
0.0
10
59.666999999998829
20
-60.167089761822169
42
-0.41421356237307422
10
60.166999999998808
20
-59.667089761822155
10
73.166999999998794
20
-59.667089761821579
42
-0.4142135623730846
10
73.666999999998808
20
-60.167089761821558
10
73.666999999999391
20
-73.167089761821543
42
-0.41421356237307944
10
73.166999999999405
20
-73.667089761821558
10
60.166999999999433
20
-73.66708976182214
42
-0.41421356237307944
10
59.666999999999405
20
-73.167089761822155
0
LWPOLYLINE
5
144
100
AcDbEntity
8
0
100
AcDbPolyline
90
8
70
1
43
0.0
10
40.616999999997169
20
-22.067089761823063
42
-0.41421356237308721
10
41.116999999997148
20
-21.567089761823045
10
54.11699999999712
20
-21.567089761822473
42
-0.41421356237308721
10
54.616999999997155
20
-22.067089761822448
10
54.616999999997731
20
-35.06708976182243
42
-0.41421356237309503
10
54.116999999997752
20
-35.567089761822452
10
41.116999999997773
20
-35.567089761823034
42
-0.41421356237308721
10
40.616999999997745
20
-35.067089761823048
0
LWPOLYLINE
5
145
100
AcDbEntity
8
0
100
AcDbPolyline
90
8
70
1
43
0.0
10
2.5169999999980615
20
-41.11708976182473
42
-0.4142135623730866
10
3.0169999999980446
20
-40.617089761824715
10
16.016999999998031
20
-40.617089761824126
42
-0.41421356237310153
10
16.516999999998045
20
-41.117089761824118
10
16.516999999998614
20
-54.117089761824104
42
-0.41421356237308204
10
16.016999999998639
20
-54.617089761824118
10
3.0169999999986619
20
-54.617089761824701
42
-0.41421356237310836
10
2.5169999999986397
20
-54.117089761824715
0
LWPOLYLINE
5
146
100
AcDbEntity
8
0
100
AcDbPolyline
90
8
70
1
43
0.0
10
59.666999999997984
20
-41.1170897618222
10
59.666999999998566
20
-54.117089761822186
42
0.41421356237307944
10
60.166999999998588
20
-54.617089761822164
10
73.166999999998566
20
-54.617089761821589
42
0.41421356237308982
10
73.666999999998538
20
-54.117089761821561
10
73.666999999997969
20
-41.117089761821582
42
0.4142135623730846
10
73.166999999997955
20
-40.617089761821603
10
60.166999999997969
20
-40.617089761822179
42
0.4142135623730846
0
LWPOLYLINE
5
147
100
AcDbEntity
8
0
100
AcDbPolyline
90
8
70
1
43
0.0
10
2.5169999999989061
20
-60.167089761824705
42
-0.41421356237308626
10
3.0169999999988883
20
-59.667089761824684
10
16.016999999998877
20
-59.667089761824101
42
-0.41421356237310025
10
16.516999999998887
20
-60.167089761824087
10
16.516999999999463
20
-73.167089761824087
42
-0.41421356237308332
10
16.016999999999484
20
-73.667089761824101
10
3.0169999999995079
20
-73.66708976182467
42
-0.41421356237310936
10
2.5169999999994843
20
-73.167089761824698
0
LWPOLYLINE
5
148
100
AcDbEntity
8
0
100
AcDbPolyline
90
8
70
1
43
0.0
10
120.79199999999958
20
-78.717089761819437
42
-0.41421356237311063
10
121.2919999999996
20
-79.217089761819423
10
121.29200000000017
20
-92.217089761819423
42
-0.41421356237311585
10
120.79200000000017
20
-92.717089761819437
10
107.7920000000002
20
-92.717089761820006
42
-0.41421356237309503
10
107.29200000000019
20
-92.21708976182002
10
107.29199999999963
20
-79.217089761820034
42
-0.41421356237311585
10
107.7919999999996
20
-78.71708976182002
0
LWPOLYLINE
5
149
100
AcDbEntity
8
0
100
AcDbPolyline
90
8
70
1
43
0.0
10
154.91699999999872
20
-60.167089761817948
42
-0.41421356237310542
10
155.41699999999869
20
-59.667089761817927
10
168.41699999999867
20
-59.667089761817344
42
-0.41421356237309503
10
168.91699999999872
20
-60.167089761817316
10
168.91699999999926
20
-73.167089761817309
42
-0.41421356237306384
10
168.41699999999932
20
-73.667089761817337
10
155.41699999999935
20
-73.66708976181792
42
-0.41421356237313145
10
154.91699999999929
20
-73.167089761817934
0
LWPOLYLINE
5
150
100
AcDbEntity
8
0
100
AcDbPolyline
90
8
70
1
43
0.0
10
2.5169999999972195
20
-22.067089761824754
42
-0.41421356237309048
10
3.0169999999971964
20
-21.567089761824732
10
16.016999999997189
20
-21.56708976182415
42
-0.41421356237309503
10
16.516999999997203
20
-22.067089761824128
10
16.516999999997775
20
-35.067089761824121
42
-0.41421356237308982
10
16.0169999999978
20
-35.567089761824143
10
3.0169999999978181
20
-35.567089761824718
42
-0.41421356237310186
10
2.5169999999977954
20
-35.067089761824739
0
LWPOLYLINE
5
151
100
AcDbEntity
8
0
100
AcDbPolyline
90
8
70
1
43
0.0
10
21.566999999998888
20
-60.16708976182386
10
21.566999999999467
20
-73.167089761823846
42
0.4142135623730846
10
22.066999999999474
20
-73.667089761823831
10
35.06699999999946
20
-73.667089761823249
42
0.41421356237309243
10
35.566999999999432
20
-73.167089761823235
10
35.566999999998863
20
-60.167089761823249
42
0.41421356237309503
10
35.066999999998842
20
-59.667089761823277
10
22.066999999998863
20
-59.667089761823846
42
0.41421356237308204
0
LWPOLYLINE
5
152
100
AcDbEntity
8
0
100
AcDbPolyline
90
8
70
1
43
0.0
10
97.76699999999795
20
-41.117089761820509
42
-0.41421356237311585
10
98.266999999997921
20
-40.617089761820495
10
111.26699999999789
20
-40.617089761819905
42
-0.41421356237312623
10
111.76699999999795
20
-41.117089761819898
10
111.76699999999848
20
-54.117089761819877
42
-0.41421356237311063
10
111.26699999999852
20
-54.617089761819898
10
98.266999999998532
20
-54.61708976182048
42
-0.41421356237311063
10
97.766999999998504
20
-54.117089761820495
0
LWPOLYLINE
5
153
100
AcDbEntity
8
0
100
AcDbPolyline
90
8
70
1
43
0.0
10
69.191999999999666
20
-79.217089761821725
42
-0.41421356237307422
10
69.691999999999652
20
-78.717089761821711
10
82.691999999999638
20
-78.717089761821114
42
-0.41421356237311585
10
83.191999999999666
20
-79.217089761821114
10
83.192000000000235
20
-92.217089761821114
42
-0.41421356237309503
10
82.692000000000249
20
-92.717089761821128
10
69.692000000000263
20
-92.717089761821683
42
-0.41421356237311063
10
69.192000000000249
20
-92.217089761821711
0
LWPOLYLINE
5
154
100
AcDbEntity
8
0
100
AcDbPolyline
90
8
70
1
43
0.0
10
92.216999999997071
20
-21.567089761820778
42
-0.41421356237310802
10
92.7169999999971
20
-22.067089761820753
10
92.716999999997654
20
-35.067089761820739
42
-0.41421356237311063
10
92.216999999997697
20
-35.56708976182076
10
79.216999999997711
20
-35.567089761821336
42
-0.41421356237309243
10
78.716999999997682
20
-35.067089761821357
10
78.716999999997114
20
-22.067089761821379
42
-0.41421356237309764
10
79.216999999997086
20
-21.56708976182135
0
LWPOLYLINE
5
155
100
AcDbEntity
8
0
100
AcDbPolyline
90
8
70
1
43
0.0
10
173.966999999997
20
-22.067089761817154
42
-0.41421356237308204
10
174.46699999999697
20
-21.567089761817133
10
187.46699999999691
20
-21.567089761816543
42
-0.41421356237311846
10
187.966999999997
20
-22.067089761816518
10
187.96699999999757
20
-35.067089761816518
42
-0.4142135623730846
10
187.4669999999976
20
-35.56708976181654
10
174.4669999999976
20
-35.56708976181713
42
-0.41421356237307683
10
173.96699999999757
20
-35.067089761817158
0
LWPOLYLINE
5
156
100
AcDbEntity
8
0
100
AcDbPolyline
90
8
70
1
43
0.0
10
192.99999999999557
20
10.499910238183656
42
-0.41421356237309431
10
197.99999999999579
20
5.499910238183876
10
198.00000000000037
20
-97.750089761816014
42
-0.41421356237309503
10
193.00000000000057
20
-102.75008976181623
10
-2.4999999999992157
20
-102.7500897618249
42
-0.41421356237309137
10
-7.4999999999994138
20
-97.750089761825123
10
-7.5000000000039897
20
5.4999102381747793
42
-0.4142135623730962
10
-2.5000000000041922
20
10.499910238174991
0
ENDSEC
0
SECTION
2
OBJECTS
0
DICTIONARY
5
C
100
AcDbDictionary
3
ACAD_GROUP
350
D
3
ACAD_MLINESTYLE
350
17
0
DICTIONARY
5
D
100
AcDbDictionary
0
DICTIONARY
5
1A
330
C
100
AcDbDictionary
0
DICTIONARY
5
17
100
AcDbDictionary
0
ENDSEC
0
EOF
