G04 #@! TF.GenerationSoftware,KiCad,Pcbnew,(5.1.2)-2*
G04 #@! TF.CreationDate,2019-10-09T00:02:49-05:00*
G04 #@! TF.ProjectId,ai03-pcb-guide,61693033-2d70-4636-922d-67756964652e,rev?*
G04 #@! TF.SameCoordinates,Original*
G04 #@! TF.FileFunction,Legend,Bot*
G04 #@! TF.FilePolarity,Positive*
%FSLAX46Y46*%
G04 Gerber Fmt 4.6, Leading zero omitted, Abs format (unit mm)*
G04 Created by KiCad (PCBNEW (5.1.2)-2) date 2019-10-09 00:02:49*
%MOMM*%
%LPD*%
G04 APERTURE LIST*
%ADD10C,0.170000*%
%ADD11C,0.350000*%
%ADD12C,0.200000*%
%ADD13C,0.187500*%
%ADD14C,0.010000*%
%ADD15C,0.381000*%
%ADD16C,0.120000*%
%ADD17C,0.150000*%
%ADD18C,2.686000*%
%ADD19R,1.600000X2.000000*%
%ADD20C,2.000000*%
%ADD21R,2.000000X2.000000*%
%ADD22R,2.000000X1.600000*%
%ADD23C,2.152600*%
%ADD24R,2.152600X2.152600*%
%ADD25R,2.200000X1.500000*%
%ADD26C,4.200000*%
%ADD27O,2.100000X2.100000*%
%ADD28R,2.100000X2.100000*%
G04 APERTURE END LIST*
D10*
X237061904Y-112961904D02*
X236642857Y-112961904D01*
X236566666Y-112923809D01*
X236528571Y-112847619D01*
X236528571Y-112695238D01*
X236566666Y-112619047D01*
X237023809Y-112961904D02*
X237061904Y-112885714D01*
X237061904Y-112695238D01*
X237023809Y-112619047D01*
X236947619Y-112580952D01*
X236871428Y-112580952D01*
X236795238Y-112619047D01*
X236757142Y-112695238D01*
X236757142Y-112885714D01*
X236719047Y-112961904D01*
X236985714Y-113342857D02*
X237023809Y-113380952D01*
X237061904Y-113342857D01*
X237023809Y-113304761D01*
X236985714Y-113342857D01*
X237061904Y-113342857D01*
X237061904Y-113723809D02*
X236261904Y-113723809D01*
X236757142Y-113800000D02*
X237061904Y-114028571D01*
X236528571Y-114028571D02*
X236833333Y-113723809D01*
X236985714Y-114371428D02*
X237023809Y-114409523D01*
X237061904Y-114371428D01*
X237023809Y-114333333D01*
X236985714Y-114371428D01*
X237061904Y-114371428D01*
X237061904Y-115095238D02*
X236642857Y-115095238D01*
X236566666Y-115057142D01*
X236528571Y-114980952D01*
X236528571Y-114828571D01*
X236566666Y-114752380D01*
X237023809Y-115095238D02*
X237061904Y-115019047D01*
X237061904Y-114828571D01*
X237023809Y-114752380D01*
X236947619Y-114714285D01*
X236871428Y-114714285D01*
X236795238Y-114752380D01*
X236757142Y-114828571D01*
X236757142Y-115019047D01*
X236719047Y-115095238D01*
X236985714Y-115476190D02*
X237023809Y-115514285D01*
X237061904Y-115476190D01*
X237023809Y-115438095D01*
X236985714Y-115476190D01*
X237061904Y-115476190D01*
X236261904Y-116352380D02*
X236261904Y-116809523D01*
X237061904Y-116580952D02*
X236261904Y-116580952D01*
X237061904Y-117076190D02*
X236261904Y-117076190D01*
X237061904Y-117419047D02*
X236642857Y-117419047D01*
X236566666Y-117380952D01*
X236528571Y-117304761D01*
X236528571Y-117190476D01*
X236566666Y-117114285D01*
X236604761Y-117076190D01*
X237023809Y-118104761D02*
X237061904Y-118028571D01*
X237061904Y-117876190D01*
X237023809Y-117800000D01*
X236947619Y-117761904D01*
X236642857Y-117761904D01*
X236566666Y-117800000D01*
X236528571Y-117876190D01*
X236528571Y-118028571D01*
X236566666Y-118104761D01*
X236642857Y-118142857D01*
X236719047Y-118142857D01*
X236795238Y-117761904D01*
X237138095Y-118295238D02*
X237138095Y-118904761D01*
X237061904Y-119552380D02*
X236680952Y-119285714D01*
X237061904Y-119095238D02*
X236261904Y-119095238D01*
X236261904Y-119400000D01*
X236300000Y-119476190D01*
X236338095Y-119514285D01*
X236414285Y-119552380D01*
X236528571Y-119552380D01*
X236604761Y-119514285D01*
X236642857Y-119476190D01*
X236680952Y-119400000D01*
X236680952Y-119095238D01*
X237061904Y-120009523D02*
X237023809Y-119933333D01*
X236985714Y-119895238D01*
X236909523Y-119857142D01*
X236680952Y-119857142D01*
X236604761Y-119895238D01*
X236566666Y-119933333D01*
X236528571Y-120009523D01*
X236528571Y-120123809D01*
X236566666Y-120200000D01*
X236604761Y-120238095D01*
X236680952Y-120276190D01*
X236909523Y-120276190D01*
X236985714Y-120238095D01*
X237023809Y-120200000D01*
X237061904Y-120123809D01*
X237061904Y-120009523D01*
X236528571Y-120542857D02*
X237061904Y-120733333D01*
X236528571Y-120923809D02*
X237061904Y-120733333D01*
X237252380Y-120657142D01*
X237290476Y-120619047D01*
X237328571Y-120542857D01*
X237061904Y-121571428D02*
X236642857Y-121571428D01*
X236566666Y-121533333D01*
X236528571Y-121457142D01*
X236528571Y-121304761D01*
X236566666Y-121228571D01*
X237023809Y-121571428D02*
X237061904Y-121495238D01*
X237061904Y-121304761D01*
X237023809Y-121228571D01*
X236947619Y-121190476D01*
X236871428Y-121190476D01*
X236795238Y-121228571D01*
X236757142Y-121304761D01*
X236757142Y-121495238D01*
X236719047Y-121571428D01*
X237061904Y-122066666D02*
X237023809Y-121990476D01*
X236947619Y-121952380D01*
X236261904Y-121952380D01*
D11*
X92106250Y-87484821D02*
X92106250Y-85984821D01*
X91249107Y-87484821D02*
X91891964Y-86627678D01*
X91249107Y-85984821D02*
X92106250Y-86841964D01*
X90606250Y-87484821D02*
X90606250Y-86484821D01*
X90606250Y-85984821D02*
X90677678Y-86056250D01*
X90606250Y-86127678D01*
X90534821Y-86056250D01*
X90606250Y-85984821D01*
X90606250Y-86127678D01*
X89891964Y-86484821D02*
X89891964Y-87484821D01*
X89891964Y-86627678D02*
X89820535Y-86556250D01*
X89677678Y-86484821D01*
X89463392Y-86484821D01*
X89320535Y-86556250D01*
X89249107Y-86699107D01*
X89249107Y-87484821D01*
X87891964Y-86484821D02*
X87891964Y-87699107D01*
X87963392Y-87841964D01*
X88034821Y-87913392D01*
X88177678Y-87984821D01*
X88391964Y-87984821D01*
X88534821Y-87913392D01*
X87891964Y-87413392D02*
X88034821Y-87484821D01*
X88320535Y-87484821D01*
X88463392Y-87413392D01*
X88534821Y-87341964D01*
X88606250Y-87199107D01*
X88606250Y-86770535D01*
X88534821Y-86627678D01*
X88463392Y-86556250D01*
X88320535Y-86484821D01*
X88034821Y-86484821D01*
X87891964Y-86556250D01*
X86963392Y-87484821D02*
X87106250Y-87413392D01*
X87177678Y-87270535D01*
X87177678Y-85984821D01*
X86534821Y-86484821D02*
X86177678Y-87484821D01*
X85820535Y-86484821D02*
X86177678Y-87484821D01*
X86320535Y-87841964D01*
X86391964Y-87913392D01*
X86534821Y-87984821D01*
X85249107Y-86913392D02*
X84106250Y-86913392D01*
X92463392Y-90084821D02*
X92463392Y-88584821D01*
X91606250Y-90084821D02*
X92249107Y-89227678D01*
X91606250Y-88584821D02*
X92463392Y-89441964D01*
X90391964Y-90013392D02*
X90534821Y-90084821D01*
X90820535Y-90084821D01*
X90963392Y-90013392D01*
X91034821Y-89870535D01*
X91034821Y-89299107D01*
X90963392Y-89156250D01*
X90820535Y-89084821D01*
X90534821Y-89084821D01*
X90391964Y-89156250D01*
X90320535Y-89299107D01*
X90320535Y-89441964D01*
X91034821Y-89584821D01*
X89820535Y-89084821D02*
X89463392Y-90084821D01*
X89106250Y-89084821D02*
X89463392Y-90084821D01*
X89606250Y-90441964D01*
X89677678Y-90513392D01*
X89820535Y-90584821D01*
X88606250Y-90013392D02*
X88463392Y-90084821D01*
X88177678Y-90084821D01*
X88034821Y-90013392D01*
X87963392Y-89870535D01*
X87963392Y-89799107D01*
X88034821Y-89656250D01*
X88177678Y-89584821D01*
X88391964Y-89584821D01*
X88534821Y-89513392D01*
X88606250Y-89370535D01*
X88606250Y-89299107D01*
X88534821Y-89156250D01*
X88391964Y-89084821D01*
X88177678Y-89084821D01*
X88034821Y-89156250D01*
X87320535Y-89941964D02*
X87249107Y-90013392D01*
X87320535Y-90084821D01*
X87391964Y-90013392D01*
X87320535Y-89941964D01*
X87320535Y-90084821D01*
X86749107Y-90084821D02*
X85963392Y-89084821D01*
X86749107Y-89084821D02*
X85963392Y-90084821D01*
X85534821Y-89084821D02*
X85177678Y-90084821D01*
X84820535Y-89084821D02*
X85177678Y-90084821D01*
X85320535Y-90441964D01*
X85391964Y-90513392D01*
X85534821Y-90584821D01*
X84391964Y-89084821D02*
X83606250Y-89084821D01*
X84391964Y-90084821D01*
X83606250Y-90084821D01*
D12*
X87796428Y-105952380D02*
X88129761Y-105476190D01*
X88367857Y-105952380D02*
X88367857Y-104952380D01*
X87986904Y-104952380D01*
X87891666Y-105000000D01*
X87844047Y-105047619D01*
X87796428Y-105142857D01*
X87796428Y-105285714D01*
X87844047Y-105380952D01*
X87891666Y-105428571D01*
X87986904Y-105476190D01*
X88367857Y-105476190D01*
X86986904Y-105904761D02*
X87082142Y-105952380D01*
X87272619Y-105952380D01*
X87367857Y-105904761D01*
X87415476Y-105809523D01*
X87415476Y-105428571D01*
X87367857Y-105333333D01*
X87272619Y-105285714D01*
X87082142Y-105285714D01*
X86986904Y-105333333D01*
X86939285Y-105428571D01*
X86939285Y-105523809D01*
X87415476Y-105619047D01*
X86605952Y-105285714D02*
X86367857Y-105952380D01*
X86129761Y-105285714D01*
X85034523Y-105047619D02*
X84986904Y-105000000D01*
X84891666Y-104952380D01*
X84653571Y-104952380D01*
X84558333Y-105000000D01*
X84510714Y-105047619D01*
X84463095Y-105142857D01*
X84463095Y-105238095D01*
X84510714Y-105380952D01*
X85082142Y-105952380D01*
X84463095Y-105952380D01*
X84034523Y-105857142D02*
X83986904Y-105904761D01*
X84034523Y-105952380D01*
X84082142Y-105904761D01*
X84034523Y-105857142D01*
X84034523Y-105952380D01*
X83653571Y-104952380D02*
X83034523Y-104952380D01*
X83367857Y-105333333D01*
X83225000Y-105333333D01*
X83129761Y-105380952D01*
X83082142Y-105428571D01*
X83034523Y-105523809D01*
X83034523Y-105761904D01*
X83082142Y-105857142D01*
X83129761Y-105904761D01*
X83225000Y-105952380D01*
X83510714Y-105952380D01*
X83605952Y-105904761D01*
X83653571Y-105857142D01*
D10*
X262228571Y-106085714D02*
X262266666Y-106123809D01*
X262380952Y-106161904D01*
X262457142Y-106161904D01*
X262571428Y-106123809D01*
X262647619Y-106047619D01*
X262685714Y-105971428D01*
X262723809Y-105819047D01*
X262723809Y-105704761D01*
X262685714Y-105552380D01*
X262647619Y-105476190D01*
X262571428Y-105400000D01*
X262457142Y-105361904D01*
X262380952Y-105361904D01*
X262266666Y-105400000D01*
X262228571Y-105438095D01*
X261771428Y-106161904D02*
X261847619Y-106123809D01*
X261885714Y-106085714D01*
X261923809Y-106009523D01*
X261923809Y-105780952D01*
X261885714Y-105704761D01*
X261847619Y-105666666D01*
X261771428Y-105628571D01*
X261657142Y-105628571D01*
X261580952Y-105666666D01*
X261542857Y-105704761D01*
X261504761Y-105780952D01*
X261504761Y-106009523D01*
X261542857Y-106085714D01*
X261580952Y-106123809D01*
X261657142Y-106161904D01*
X261771428Y-106161904D01*
X261161904Y-105628571D02*
X261161904Y-106161904D01*
X261161904Y-105704761D02*
X261123809Y-105666666D01*
X261047619Y-105628571D01*
X260933333Y-105628571D01*
X260857142Y-105666666D01*
X260819047Y-105742857D01*
X260819047Y-106161904D01*
X260095238Y-106123809D02*
X260171428Y-106161904D01*
X260323809Y-106161904D01*
X260400000Y-106123809D01*
X260438095Y-106085714D01*
X260476190Y-106009523D01*
X260476190Y-105780952D01*
X260438095Y-105704761D01*
X260400000Y-105666666D01*
X260323809Y-105628571D01*
X260171428Y-105628571D01*
X260095238Y-105666666D01*
X259447619Y-106123809D02*
X259523809Y-106161904D01*
X259676190Y-106161904D01*
X259752380Y-106123809D01*
X259790476Y-106047619D01*
X259790476Y-105742857D01*
X259752380Y-105666666D01*
X259676190Y-105628571D01*
X259523809Y-105628571D01*
X259447619Y-105666666D01*
X259409523Y-105742857D01*
X259409523Y-105819047D01*
X259790476Y-105895238D01*
X259066666Y-105628571D02*
X259066666Y-106428571D01*
X259066666Y-105666666D02*
X258990476Y-105628571D01*
X258838095Y-105628571D01*
X258761904Y-105666666D01*
X258723809Y-105704761D01*
X258685714Y-105780952D01*
X258685714Y-106009523D01*
X258723809Y-106085714D01*
X258761904Y-106123809D01*
X258838095Y-106161904D01*
X258990476Y-106161904D01*
X259066666Y-106123809D01*
X258457142Y-105628571D02*
X258152380Y-105628571D01*
X258342857Y-105361904D02*
X258342857Y-106047619D01*
X258304761Y-106123809D01*
X258228571Y-106161904D01*
X258152380Y-106161904D01*
X256933333Y-106161904D02*
X256933333Y-105742857D01*
X256971428Y-105666666D01*
X257047619Y-105628571D01*
X257200000Y-105628571D01*
X257276190Y-105666666D01*
X256933333Y-106123809D02*
X257009523Y-106161904D01*
X257200000Y-106161904D01*
X257276190Y-106123809D01*
X257314285Y-106047619D01*
X257314285Y-105971428D01*
X257276190Y-105895238D01*
X257200000Y-105857142D01*
X257009523Y-105857142D01*
X256933333Y-105819047D01*
X256552380Y-105628571D02*
X256552380Y-106161904D01*
X256552380Y-105704761D02*
X256514285Y-105666666D01*
X256438095Y-105628571D01*
X256323809Y-105628571D01*
X256247619Y-105666666D01*
X256209523Y-105742857D01*
X256209523Y-106161904D01*
X255485714Y-106161904D02*
X255485714Y-105361904D01*
X255485714Y-106123809D02*
X255561904Y-106161904D01*
X255714285Y-106161904D01*
X255790476Y-106123809D01*
X255828571Y-106085714D01*
X255866666Y-106009523D01*
X255866666Y-105780952D01*
X255828571Y-105704761D01*
X255790476Y-105666666D01*
X255714285Y-105628571D01*
X255561904Y-105628571D01*
X255485714Y-105666666D01*
X254495238Y-106161904D02*
X254495238Y-105361904D01*
X254304761Y-105361904D01*
X254190476Y-105400000D01*
X254114285Y-105476190D01*
X254076190Y-105552380D01*
X254038095Y-105704761D01*
X254038095Y-105819047D01*
X254076190Y-105971428D01*
X254114285Y-106047619D01*
X254190476Y-106123809D01*
X254304761Y-106161904D01*
X254495238Y-106161904D01*
X253390476Y-106123809D02*
X253466666Y-106161904D01*
X253619047Y-106161904D01*
X253695238Y-106123809D01*
X253733333Y-106047619D01*
X253733333Y-105742857D01*
X253695238Y-105666666D01*
X253619047Y-105628571D01*
X253466666Y-105628571D01*
X253390476Y-105666666D01*
X253352380Y-105742857D01*
X253352380Y-105819047D01*
X253733333Y-105895238D01*
X253047619Y-106123809D02*
X252971428Y-106161904D01*
X252819047Y-106161904D01*
X252742857Y-106123809D01*
X252704761Y-106047619D01*
X252704761Y-106009523D01*
X252742857Y-105933333D01*
X252819047Y-105895238D01*
X252933333Y-105895238D01*
X253009523Y-105857142D01*
X253047619Y-105780952D01*
X253047619Y-105742857D01*
X253009523Y-105666666D01*
X252933333Y-105628571D01*
X252819047Y-105628571D01*
X252742857Y-105666666D01*
X252361904Y-106161904D02*
X252361904Y-105628571D01*
X252361904Y-105361904D02*
X252400000Y-105400000D01*
X252361904Y-105438095D01*
X252323809Y-105400000D01*
X252361904Y-105361904D01*
X252361904Y-105438095D01*
X251638095Y-105628571D02*
X251638095Y-106276190D01*
X251676190Y-106352380D01*
X251714285Y-106390476D01*
X251790476Y-106428571D01*
X251904761Y-106428571D01*
X251980952Y-106390476D01*
X251638095Y-106123809D02*
X251714285Y-106161904D01*
X251866666Y-106161904D01*
X251942857Y-106123809D01*
X251980952Y-106085714D01*
X252019047Y-106009523D01*
X252019047Y-105780952D01*
X251980952Y-105704761D01*
X251942857Y-105666666D01*
X251866666Y-105628571D01*
X251714285Y-105628571D01*
X251638095Y-105666666D01*
X251257142Y-105628571D02*
X251257142Y-106161904D01*
X251257142Y-105704761D02*
X251219047Y-105666666D01*
X251142857Y-105628571D01*
X251028571Y-105628571D01*
X250952380Y-105666666D01*
X250914285Y-105742857D01*
X250914285Y-106161904D01*
X249923809Y-106161904D02*
X249923809Y-105361904D01*
X249923809Y-105666666D02*
X249847619Y-105628571D01*
X249695238Y-105628571D01*
X249619047Y-105666666D01*
X249580952Y-105704761D01*
X249542857Y-105780952D01*
X249542857Y-106009523D01*
X249580952Y-106085714D01*
X249619047Y-106123809D01*
X249695238Y-106161904D01*
X249847619Y-106161904D01*
X249923809Y-106123809D01*
X249276190Y-105628571D02*
X249085714Y-106161904D01*
X248895238Y-105628571D02*
X249085714Y-106161904D01*
X249161904Y-106352380D01*
X249200000Y-106390476D01*
X249276190Y-106428571D01*
X247561904Y-105400000D02*
X247638095Y-105361904D01*
X247752380Y-105361904D01*
X247866666Y-105400000D01*
X247942857Y-105476190D01*
X247980952Y-105552380D01*
X248019047Y-105704761D01*
X248019047Y-105819047D01*
X247980952Y-105971428D01*
X247942857Y-106047619D01*
X247866666Y-106123809D01*
X247752380Y-106161904D01*
X247676190Y-106161904D01*
X247561904Y-106123809D01*
X247523809Y-106085714D01*
X247523809Y-105819047D01*
X247676190Y-105819047D01*
X246838095Y-106161904D02*
X246838095Y-105742857D01*
X246876190Y-105666666D01*
X246952380Y-105628571D01*
X247104761Y-105628571D01*
X247180952Y-105666666D01*
X246838095Y-106123809D02*
X246914285Y-106161904D01*
X247104761Y-106161904D01*
X247180952Y-106123809D01*
X247219047Y-106047619D01*
X247219047Y-105971428D01*
X247180952Y-105895238D01*
X247104761Y-105857142D01*
X246914285Y-105857142D01*
X246838095Y-105819047D01*
X246457142Y-106161904D02*
X246457142Y-105628571D01*
X246457142Y-105780952D02*
X246419047Y-105704761D01*
X246380952Y-105666666D01*
X246304761Y-105628571D01*
X246228571Y-105628571D01*
X245961904Y-106161904D02*
X245961904Y-105628571D01*
X245961904Y-105780952D02*
X245923809Y-105704761D01*
X245885714Y-105666666D01*
X245809523Y-105628571D01*
X245733333Y-105628571D01*
X245161904Y-106123809D02*
X245238095Y-106161904D01*
X245390476Y-106161904D01*
X245466666Y-106123809D01*
X245504761Y-106047619D01*
X245504761Y-105742857D01*
X245466666Y-105666666D01*
X245390476Y-105628571D01*
X245238095Y-105628571D01*
X245161904Y-105666666D01*
X245123809Y-105742857D01*
X245123809Y-105819047D01*
X245504761Y-105895238D01*
X244895238Y-105628571D02*
X244590476Y-105628571D01*
X244780952Y-105361904D02*
X244780952Y-106047619D01*
X244742857Y-106123809D01*
X244666666Y-106161904D01*
X244590476Y-106161904D01*
X243295238Y-105400000D02*
X243371428Y-105361904D01*
X243485714Y-105361904D01*
X243600000Y-105400000D01*
X243676190Y-105476190D01*
X243714285Y-105552380D01*
X243752380Y-105704761D01*
X243752380Y-105819047D01*
X243714285Y-105971428D01*
X243676190Y-106047619D01*
X243600000Y-106123809D01*
X243485714Y-106161904D01*
X243409523Y-106161904D01*
X243295238Y-106123809D01*
X243257142Y-106085714D01*
X243257142Y-105819047D01*
X243409523Y-105819047D01*
X242914285Y-106085714D02*
X242876190Y-106123809D01*
X242914285Y-106161904D01*
X242952380Y-106123809D01*
X242914285Y-106085714D01*
X242914285Y-106161904D01*
X241923809Y-105857142D02*
X241314285Y-105857142D01*
D13*
X110175000Y-35196428D02*
X110139285Y-35160714D01*
X110032142Y-35089285D01*
X109960714Y-35053571D01*
X109853571Y-35017857D01*
X109675000Y-34982142D01*
X109532142Y-34982142D01*
X109353571Y-35017857D01*
X109246428Y-35053571D01*
X109175000Y-35089285D01*
X109067857Y-35160714D01*
X109032142Y-35196428D01*
X109889285Y-35482142D02*
X109139285Y-35482142D01*
X109139285Y-35660714D01*
X109175000Y-35767857D01*
X109246428Y-35839285D01*
X109317857Y-35875000D01*
X109460714Y-35910714D01*
X109567857Y-35910714D01*
X109710714Y-35875000D01*
X109782142Y-35839285D01*
X109853571Y-35767857D01*
X109889285Y-35660714D01*
X109889285Y-35482142D01*
X109889285Y-36232142D02*
X109139285Y-36232142D01*
X109889285Y-36589285D02*
X109139285Y-36589285D01*
X109889285Y-37017857D01*
X109139285Y-37017857D01*
X110175000Y-37303571D02*
X110139285Y-37339285D01*
X110032142Y-37410714D01*
X109960714Y-37446428D01*
X109853571Y-37482142D01*
X109675000Y-37517857D01*
X109532142Y-37517857D01*
X109353571Y-37482142D01*
X109246428Y-37446428D01*
X109175000Y-37410714D01*
X109067857Y-37339285D01*
X109032142Y-37303571D01*
X113471428Y-31325000D02*
X113542857Y-31289285D01*
X113650000Y-31289285D01*
X113757142Y-31325000D01*
X113828571Y-31396428D01*
X113864285Y-31467857D01*
X113900000Y-31610714D01*
X113900000Y-31717857D01*
X113864285Y-31860714D01*
X113828571Y-31932142D01*
X113757142Y-32003571D01*
X113650000Y-32039285D01*
X113578571Y-32039285D01*
X113471428Y-32003571D01*
X113435714Y-31967857D01*
X113435714Y-31717857D01*
X113578571Y-31717857D01*
X113114285Y-32039285D02*
X113114285Y-31289285D01*
X112685714Y-32039285D01*
X112685714Y-31289285D01*
X112328571Y-32039285D02*
X112328571Y-31289285D01*
X112150000Y-31289285D01*
X112042857Y-31325000D01*
X111971428Y-31396428D01*
X111935714Y-31467857D01*
X111900000Y-31610714D01*
X111900000Y-31717857D01*
X111935714Y-31860714D01*
X111971428Y-31932142D01*
X112042857Y-32003571D01*
X112150000Y-32039285D01*
X112328571Y-32039285D01*
X111239285Y-35782142D02*
X110882142Y-35532142D01*
X111239285Y-35353571D02*
X110489285Y-35353571D01*
X110489285Y-35639285D01*
X110525000Y-35710714D01*
X110560714Y-35746428D01*
X110632142Y-35782142D01*
X110739285Y-35782142D01*
X110810714Y-35746428D01*
X110846428Y-35710714D01*
X110882142Y-35639285D01*
X110882142Y-35353571D01*
X110525000Y-36496428D02*
X110489285Y-36425000D01*
X110489285Y-36317857D01*
X110525000Y-36210714D01*
X110596428Y-36139285D01*
X110667857Y-36103571D01*
X110810714Y-36067857D01*
X110917857Y-36067857D01*
X111060714Y-36103571D01*
X111132142Y-36139285D01*
X111203571Y-36210714D01*
X111239285Y-36317857D01*
X111239285Y-36389285D01*
X111203571Y-36496428D01*
X111167857Y-36532142D01*
X110917857Y-36532142D01*
X110917857Y-36389285D01*
X110846428Y-37103571D02*
X110882142Y-37210714D01*
X110917857Y-37246428D01*
X110989285Y-37282142D01*
X111096428Y-37282142D01*
X111167857Y-37246428D01*
X111203571Y-37210714D01*
X111239285Y-37139285D01*
X111239285Y-36853571D01*
X110489285Y-36853571D01*
X110489285Y-37103571D01*
X110525000Y-37175000D01*
X110560714Y-37210714D01*
X110632142Y-37246428D01*
X110703571Y-37246428D01*
X110775000Y-37210714D01*
X110810714Y-37175000D01*
X110846428Y-37103571D01*
X110846428Y-36853571D01*
X113900000Y-40289285D02*
X113650000Y-41039285D01*
X113400000Y-40289285D01*
X112721428Y-40967857D02*
X112757142Y-41003571D01*
X112864285Y-41039285D01*
X112935714Y-41039285D01*
X113042857Y-41003571D01*
X113114285Y-40932142D01*
X113150000Y-40860714D01*
X113185714Y-40717857D01*
X113185714Y-40610714D01*
X113150000Y-40467857D01*
X113114285Y-40396428D01*
X113042857Y-40325000D01*
X112935714Y-40289285D01*
X112864285Y-40289285D01*
X112757142Y-40325000D01*
X112721428Y-40360714D01*
X111971428Y-40967857D02*
X112007142Y-41003571D01*
X112114285Y-41039285D01*
X112185714Y-41039285D01*
X112292857Y-41003571D01*
X112364285Y-40932142D01*
X112400000Y-40860714D01*
X112435714Y-40717857D01*
X112435714Y-40610714D01*
X112400000Y-40467857D01*
X112364285Y-40396428D01*
X112292857Y-40325000D01*
X112185714Y-40289285D01*
X112114285Y-40289285D01*
X112007142Y-40325000D01*
X111971428Y-40360714D01*
D14*
G36*
X79223286Y-85339355D02*
G01*
X79016307Y-85350908D01*
X78922314Y-85358497D01*
X78711117Y-85381653D01*
X78509259Y-85412433D01*
X78317009Y-85450673D01*
X78134640Y-85496210D01*
X77962423Y-85548879D01*
X77800629Y-85608517D01*
X77649529Y-85674959D01*
X77509395Y-85748043D01*
X77380497Y-85827603D01*
X77263107Y-85913476D01*
X77157496Y-86005498D01*
X77063936Y-86103505D01*
X76982697Y-86207333D01*
X76914051Y-86316818D01*
X76858269Y-86431796D01*
X76815622Y-86552103D01*
X76792370Y-86645980D01*
X76772435Y-86778847D01*
X76766872Y-86910713D01*
X76775557Y-87041332D01*
X76798367Y-87170458D01*
X76835180Y-87297845D01*
X76885873Y-87423245D01*
X76950321Y-87546414D01*
X77028403Y-87667104D01*
X77119995Y-87785071D01*
X77224975Y-87900066D01*
X77343218Y-88011845D01*
X77474602Y-88120160D01*
X77561348Y-88184571D01*
X77688201Y-88269327D01*
X77826306Y-88350872D01*
X77972494Y-88427658D01*
X78123599Y-88498135D01*
X78276453Y-88560755D01*
X78427888Y-88613969D01*
X78460383Y-88624163D01*
X78495582Y-88634963D01*
X78527765Y-88644846D01*
X78553228Y-88652675D01*
X78567663Y-88657125D01*
X78590383Y-88664154D01*
X78527749Y-88727377D01*
X78495871Y-88761646D01*
X78466210Y-88798285D01*
X78438284Y-88838414D01*
X78411612Y-88883149D01*
X78385714Y-88933611D01*
X78360108Y-88990918D01*
X78334313Y-89056188D01*
X78307849Y-89130540D01*
X78280233Y-89215093D01*
X78250986Y-89310966D01*
X78219627Y-89419277D01*
X78199680Y-89490400D01*
X78167490Y-89604435D01*
X78137823Y-89705272D01*
X78110256Y-89793924D01*
X78084368Y-89871407D01*
X78059735Y-89938733D01*
X78035936Y-89996918D01*
X78012547Y-90046974D01*
X77989147Y-90089916D01*
X77965313Y-90126759D01*
X77940623Y-90158515D01*
X77914655Y-90186200D01*
X77906730Y-90193699D01*
X77871309Y-90221843D01*
X77833865Y-90241908D01*
X77792796Y-90253971D01*
X77746498Y-90258110D01*
X77693369Y-90254403D01*
X77631805Y-90242928D01*
X77560203Y-90223764D01*
X77523345Y-90212352D01*
X77472388Y-90196732D01*
X77432753Y-90186592D01*
X77402325Y-90181926D01*
X77378988Y-90182732D01*
X77360624Y-90189006D01*
X77345119Y-90200745D01*
X77334976Y-90212035D01*
X77324520Y-90236110D01*
X77324147Y-90268679D01*
X77333113Y-90308569D01*
X77350669Y-90354610D01*
X77376071Y-90405631D01*
X77408573Y-90460461D01*
X77447429Y-90517928D01*
X77491893Y-90576862D01*
X77541219Y-90636091D01*
X77594661Y-90694445D01*
X77651473Y-90750752D01*
X77710909Y-90803841D01*
X77713107Y-90805693D01*
X77824976Y-90891875D01*
X77939911Y-90965032D01*
X78057234Y-91024845D01*
X78176265Y-91070998D01*
X78296325Y-91103174D01*
X78379272Y-91117042D01*
X78431941Y-91121405D01*
X78494607Y-91122780D01*
X78555266Y-91121408D01*
X78668717Y-91111692D01*
X78771889Y-91092386D01*
X78865060Y-91063212D01*
X78948512Y-91023888D01*
X79022525Y-90974135D01*
X79087378Y-90913673D01*
X79143353Y-90842222D01*
X79190727Y-90759502D01*
X79229783Y-90665232D01*
X79260800Y-90559134D01*
X79284058Y-90440926D01*
X79291908Y-90384989D01*
X79296315Y-90342456D01*
X79300567Y-90287740D01*
X79304565Y-90223169D01*
X79308212Y-90151076D01*
X79311408Y-90073790D01*
X79314055Y-89993641D01*
X79316054Y-89912960D01*
X79317309Y-89834078D01*
X79317709Y-89773942D01*
X79320560Y-89631032D01*
X79328505Y-89500540D01*
X79341509Y-89382678D01*
X79359535Y-89277657D01*
X79382549Y-89185689D01*
X79410515Y-89106986D01*
X79440146Y-89047226D01*
X79471218Y-89001588D01*
X79510086Y-88955849D01*
X79552430Y-88914652D01*
X79592239Y-88883754D01*
X79645624Y-88854688D01*
X79709779Y-88830456D01*
X79781474Y-88812069D01*
X79857477Y-88800537D01*
X79858628Y-88800422D01*
X79895464Y-88797415D01*
X79929607Y-88795784D01*
X79957009Y-88795656D01*
X79972503Y-88796916D01*
X79988242Y-88800950D01*
X80002144Y-88807559D01*
X80015088Y-88818168D01*
X80027953Y-88834207D01*
X80041617Y-88857103D01*
X80056960Y-88888282D01*
X80074859Y-88929173D01*
X80096193Y-88981203D01*
X80114962Y-89028356D01*
X80235530Y-89345245D01*
X80344302Y-89655985D01*
X80441759Y-89962166D01*
X80528384Y-90265378D01*
X80604658Y-90567212D01*
X80667457Y-90851628D01*
X80683815Y-90928106D01*
X80698990Y-90991582D01*
X80713571Y-91043457D01*
X80728151Y-91085135D01*
X80743323Y-91118017D01*
X80759678Y-91143508D01*
X80777808Y-91163008D01*
X80798304Y-91177921D01*
X80807260Y-91182896D01*
X80824267Y-91190408D01*
X80842967Y-91195360D01*
X80867107Y-91198343D01*
X80900434Y-91199945D01*
X80918028Y-91200348D01*
X80955113Y-91200729D01*
X80990951Y-91200569D01*
X81020546Y-91199915D01*
X81034143Y-91199243D01*
X81180649Y-91186280D01*
X81315661Y-91169104D01*
X81438591Y-91147822D01*
X81548854Y-91122538D01*
X81645862Y-91093360D01*
X81672771Y-91083684D01*
X81725130Y-91061800D01*
X81777724Y-91035822D01*
X81826688Y-91007904D01*
X81868157Y-90980200D01*
X81890170Y-90962523D01*
X81931245Y-90917949D01*
X81958570Y-90869340D01*
X81972571Y-90815780D01*
X81974751Y-90780250D01*
X81971779Y-90736431D01*
X81963427Y-90679965D01*
X81949959Y-90611578D01*
X81931637Y-90531997D01*
X81908726Y-90441946D01*
X81881489Y-90342151D01*
X81850188Y-90233339D01*
X81815089Y-90116234D01*
X81776453Y-89991563D01*
X81734544Y-89860052D01*
X81689626Y-89722426D01*
X81641962Y-89579410D01*
X81591815Y-89431731D01*
X81539449Y-89280115D01*
X81485127Y-89125287D01*
X81429113Y-88967973D01*
X81371669Y-88808898D01*
X81313060Y-88648789D01*
X81253549Y-88488371D01*
X81193398Y-88328370D01*
X81135090Y-88175331D01*
X79788174Y-88175331D01*
X79785564Y-88198260D01*
X79782585Y-88209121D01*
X79766418Y-88235570D01*
X79738158Y-88255994D01*
X79699326Y-88269409D01*
X79685724Y-88271937D01*
X79653307Y-88274677D01*
X79609921Y-88275053D01*
X79558890Y-88273218D01*
X79503541Y-88269321D01*
X79447198Y-88263512D01*
X79419428Y-88259900D01*
X79281813Y-88233418D01*
X79146035Y-88193210D01*
X79013115Y-88140042D01*
X78884074Y-88074680D01*
X78759933Y-87997888D01*
X78641711Y-87910434D01*
X78530429Y-87813082D01*
X78427108Y-87706598D01*
X78332767Y-87591748D01*
X78248428Y-87469297D01*
X78175111Y-87340011D01*
X78164155Y-87318097D01*
X78110364Y-87196718D01*
X78068363Y-87076411D01*
X78038181Y-86958011D01*
X78019847Y-86842352D01*
X78013390Y-86730268D01*
X78018838Y-86622594D01*
X78036221Y-86520164D01*
X78065566Y-86423813D01*
X78106904Y-86334375D01*
X78128943Y-86297359D01*
X78183655Y-86223366D01*
X78248178Y-86155700D01*
X78320540Y-86095584D01*
X78398770Y-86044240D01*
X78480897Y-86002890D01*
X78564951Y-85972758D01*
X78648959Y-85955066D01*
X78686665Y-85951462D01*
X78720656Y-85949937D01*
X78744351Y-85950326D01*
X78761896Y-85953101D01*
X78777440Y-85958733D01*
X78785671Y-85962725D01*
X78808904Y-85977947D01*
X78832402Y-85998423D01*
X78840326Y-86006929D01*
X78862551Y-86036673D01*
X78889604Y-86079431D01*
X78921222Y-86134626D01*
X78957145Y-86201680D01*
X78997110Y-86280015D01*
X79040856Y-86369054D01*
X79088121Y-86468218D01*
X79138644Y-86576929D01*
X79192162Y-86694610D01*
X79248414Y-86820683D01*
X79307139Y-86954569D01*
X79368074Y-87095691D01*
X79430959Y-87243471D01*
X79495530Y-87397332D01*
X79561527Y-87556694D01*
X79628688Y-87720980D01*
X79696751Y-87889613D01*
X79726218Y-87963285D01*
X79749962Y-88024581D01*
X79767624Y-88074664D01*
X79779610Y-88115303D01*
X79786324Y-88148268D01*
X79788174Y-88175331D01*
X81135090Y-88175331D01*
X81132872Y-88169512D01*
X81072234Y-88012522D01*
X81011747Y-87858126D01*
X80951674Y-87707050D01*
X80892279Y-87560019D01*
X80833826Y-87417761D01*
X80776577Y-87280999D01*
X80720797Y-87150460D01*
X80666747Y-87026870D01*
X80614693Y-86910954D01*
X80564897Y-86803438D01*
X80517622Y-86705048D01*
X80473133Y-86616510D01*
X80442842Y-86559028D01*
X80376095Y-86444303D01*
X80302286Y-86333870D01*
X80223105Y-86229828D01*
X80140239Y-86134278D01*
X80055377Y-86049320D01*
X79983196Y-85987209D01*
X79958300Y-85966511D01*
X79942804Y-85951577D01*
X79937683Y-85943412D01*
X79939653Y-85942172D01*
X79955964Y-85943553D01*
X79983788Y-85947377D01*
X80020421Y-85953173D01*
X80063156Y-85960467D01*
X80109290Y-85968786D01*
X80156117Y-85977657D01*
X80200932Y-85986608D01*
X80234209Y-85993660D01*
X80410057Y-86037063D01*
X80579558Y-86088676D01*
X80741819Y-86148032D01*
X80895947Y-86214664D01*
X81041048Y-86288105D01*
X81176228Y-86367888D01*
X81300594Y-86453546D01*
X81413253Y-86544611D01*
X81513311Y-86640616D01*
X81551358Y-86682295D01*
X81634787Y-86787620D01*
X81704376Y-86897307D01*
X81760161Y-87011461D01*
X81802177Y-87130189D01*
X81830462Y-87253598D01*
X81845049Y-87381793D01*
X81845975Y-87514881D01*
X81843845Y-87552282D01*
X81834638Y-87652157D01*
X81821321Y-87741137D01*
X81802896Y-87822503D01*
X81778366Y-87899535D01*
X81746732Y-87975516D01*
X81706997Y-88053725D01*
X81673751Y-88111684D01*
X81650812Y-88152890D01*
X81637058Y-88185278D01*
X81632189Y-88211014D01*
X81635899Y-88232263D01*
X81647886Y-88251189D01*
X81653386Y-88257074D01*
X81683593Y-88277243D01*
X81725783Y-88289399D01*
X81779839Y-88293543D01*
X81845641Y-88289673D01*
X81923071Y-88277790D01*
X82012010Y-88257893D01*
X82013723Y-88257460D01*
X82144522Y-88217606D01*
X82273763Y-88165234D01*
X82399132Y-88101648D01*
X82518320Y-88028151D01*
X82629014Y-87946045D01*
X82728902Y-87856633D01*
X82734189Y-87851376D01*
X82803236Y-87777064D01*
X82861305Y-87702438D01*
X82911415Y-87623343D01*
X82942854Y-87564142D01*
X82978533Y-87486260D01*
X83005268Y-87413086D01*
X83023836Y-87340883D01*
X83035015Y-87265914D01*
X83039583Y-87184440D01*
X83038713Y-87103314D01*
X83029807Y-86984016D01*
X83011147Y-86872473D01*
X82981801Y-86764909D01*
X82940833Y-86657551D01*
X82913844Y-86598942D01*
X82868121Y-86511687D01*
X82818926Y-86432037D01*
X82763803Y-86356630D01*
X82700293Y-86282104D01*
X82626241Y-86205391D01*
X82511403Y-86101720D01*
X82383592Y-86004088D01*
X82243081Y-85912602D01*
X82090146Y-85827367D01*
X81925059Y-85748492D01*
X81748095Y-85676082D01*
X81559527Y-85610244D01*
X81359630Y-85551086D01*
X81148677Y-85498714D01*
X80926942Y-85453235D01*
X80694699Y-85414755D01*
X80547111Y-85394656D01*
X80331446Y-85370931D01*
X80109864Y-85352922D01*
X79885311Y-85340695D01*
X79660733Y-85334314D01*
X79439076Y-85333845D01*
X79223286Y-85339355D01*
X79223286Y-85339355D01*
G37*
X79223286Y-85339355D02*
X79016307Y-85350908D01*
X78922314Y-85358497D01*
X78711117Y-85381653D01*
X78509259Y-85412433D01*
X78317009Y-85450673D01*
X78134640Y-85496210D01*
X77962423Y-85548879D01*
X77800629Y-85608517D01*
X77649529Y-85674959D01*
X77509395Y-85748043D01*
X77380497Y-85827603D01*
X77263107Y-85913476D01*
X77157496Y-86005498D01*
X77063936Y-86103505D01*
X76982697Y-86207333D01*
X76914051Y-86316818D01*
X76858269Y-86431796D01*
X76815622Y-86552103D01*
X76792370Y-86645980D01*
X76772435Y-86778847D01*
X76766872Y-86910713D01*
X76775557Y-87041332D01*
X76798367Y-87170458D01*
X76835180Y-87297845D01*
X76885873Y-87423245D01*
X76950321Y-87546414D01*
X77028403Y-87667104D01*
X77119995Y-87785071D01*
X77224975Y-87900066D01*
X77343218Y-88011845D01*
X77474602Y-88120160D01*
X77561348Y-88184571D01*
X77688201Y-88269327D01*
X77826306Y-88350872D01*
X77972494Y-88427658D01*
X78123599Y-88498135D01*
X78276453Y-88560755D01*
X78427888Y-88613969D01*
X78460383Y-88624163D01*
X78495582Y-88634963D01*
X78527765Y-88644846D01*
X78553228Y-88652675D01*
X78567663Y-88657125D01*
X78590383Y-88664154D01*
X78527749Y-88727377D01*
X78495871Y-88761646D01*
X78466210Y-88798285D01*
X78438284Y-88838414D01*
X78411612Y-88883149D01*
X78385714Y-88933611D01*
X78360108Y-88990918D01*
X78334313Y-89056188D01*
X78307849Y-89130540D01*
X78280233Y-89215093D01*
X78250986Y-89310966D01*
X78219627Y-89419277D01*
X78199680Y-89490400D01*
X78167490Y-89604435D01*
X78137823Y-89705272D01*
X78110256Y-89793924D01*
X78084368Y-89871407D01*
X78059735Y-89938733D01*
X78035936Y-89996918D01*
X78012547Y-90046974D01*
X77989147Y-90089916D01*
X77965313Y-90126759D01*
X77940623Y-90158515D01*
X77914655Y-90186200D01*
X77906730Y-90193699D01*
X77871309Y-90221843D01*
X77833865Y-90241908D01*
X77792796Y-90253971D01*
X77746498Y-90258110D01*
X77693369Y-90254403D01*
X77631805Y-90242928D01*
X77560203Y-90223764D01*
X77523345Y-90212352D01*
X77472388Y-90196732D01*
X77432753Y-90186592D01*
X77402325Y-90181926D01*
X77378988Y-90182732D01*
X77360624Y-90189006D01*
X77345119Y-90200745D01*
X77334976Y-90212035D01*
X77324520Y-90236110D01*
X77324147Y-90268679D01*
X77333113Y-90308569D01*
X77350669Y-90354610D01*
X77376071Y-90405631D01*
X77408573Y-90460461D01*
X77447429Y-90517928D01*
X77491893Y-90576862D01*
X77541219Y-90636091D01*
X77594661Y-90694445D01*
X77651473Y-90750752D01*
X77710909Y-90803841D01*
X77713107Y-90805693D01*
X77824976Y-90891875D01*
X77939911Y-90965032D01*
X78057234Y-91024845D01*
X78176265Y-91070998D01*
X78296325Y-91103174D01*
X78379272Y-91117042D01*
X78431941Y-91121405D01*
X78494607Y-91122780D01*
X78555266Y-91121408D01*
X78668717Y-91111692D01*
X78771889Y-91092386D01*
X78865060Y-91063212D01*
X78948512Y-91023888D01*
X79022525Y-90974135D01*
X79087378Y-90913673D01*
X79143353Y-90842222D01*
X79190727Y-90759502D01*
X79229783Y-90665232D01*
X79260800Y-90559134D01*
X79284058Y-90440926D01*
X79291908Y-90384989D01*
X79296315Y-90342456D01*
X79300567Y-90287740D01*
X79304565Y-90223169D01*
X79308212Y-90151076D01*
X79311408Y-90073790D01*
X79314055Y-89993641D01*
X79316054Y-89912960D01*
X79317309Y-89834078D01*
X79317709Y-89773942D01*
X79320560Y-89631032D01*
X79328505Y-89500540D01*
X79341509Y-89382678D01*
X79359535Y-89277657D01*
X79382549Y-89185689D01*
X79410515Y-89106986D01*
X79440146Y-89047226D01*
X79471218Y-89001588D01*
X79510086Y-88955849D01*
X79552430Y-88914652D01*
X79592239Y-88883754D01*
X79645624Y-88854688D01*
X79709779Y-88830456D01*
X79781474Y-88812069D01*
X79857477Y-88800537D01*
X79858628Y-88800422D01*
X79895464Y-88797415D01*
X79929607Y-88795784D01*
X79957009Y-88795656D01*
X79972503Y-88796916D01*
X79988242Y-88800950D01*
X80002144Y-88807559D01*
X80015088Y-88818168D01*
X80027953Y-88834207D01*
X80041617Y-88857103D01*
X80056960Y-88888282D01*
X80074859Y-88929173D01*
X80096193Y-88981203D01*
X80114962Y-89028356D01*
X80235530Y-89345245D01*
X80344302Y-89655985D01*
X80441759Y-89962166D01*
X80528384Y-90265378D01*
X80604658Y-90567212D01*
X80667457Y-90851628D01*
X80683815Y-90928106D01*
X80698990Y-90991582D01*
X80713571Y-91043457D01*
X80728151Y-91085135D01*
X80743323Y-91118017D01*
X80759678Y-91143508D01*
X80777808Y-91163008D01*
X80798304Y-91177921D01*
X80807260Y-91182896D01*
X80824267Y-91190408D01*
X80842967Y-91195360D01*
X80867107Y-91198343D01*
X80900434Y-91199945D01*
X80918028Y-91200348D01*
X80955113Y-91200729D01*
X80990951Y-91200569D01*
X81020546Y-91199915D01*
X81034143Y-91199243D01*
X81180649Y-91186280D01*
X81315661Y-91169104D01*
X81438591Y-91147822D01*
X81548854Y-91122538D01*
X81645862Y-91093360D01*
X81672771Y-91083684D01*
X81725130Y-91061800D01*
X81777724Y-91035822D01*
X81826688Y-91007904D01*
X81868157Y-90980200D01*
X81890170Y-90962523D01*
X81931245Y-90917949D01*
X81958570Y-90869340D01*
X81972571Y-90815780D01*
X81974751Y-90780250D01*
X81971779Y-90736431D01*
X81963427Y-90679965D01*
X81949959Y-90611578D01*
X81931637Y-90531997D01*
X81908726Y-90441946D01*
X81881489Y-90342151D01*
X81850188Y-90233339D01*
X81815089Y-90116234D01*
X81776453Y-89991563D01*
X81734544Y-89860052D01*
X81689626Y-89722426D01*
X81641962Y-89579410D01*
X81591815Y-89431731D01*
X81539449Y-89280115D01*
X81485127Y-89125287D01*
X81429113Y-88967973D01*
X81371669Y-88808898D01*
X81313060Y-88648789D01*
X81253549Y-88488371D01*
X81193398Y-88328370D01*
X81135090Y-88175331D01*
X79788174Y-88175331D01*
X79785564Y-88198260D01*
X79782585Y-88209121D01*
X79766418Y-88235570D01*
X79738158Y-88255994D01*
X79699326Y-88269409D01*
X79685724Y-88271937D01*
X79653307Y-88274677D01*
X79609921Y-88275053D01*
X79558890Y-88273218D01*
X79503541Y-88269321D01*
X79447198Y-88263512D01*
X79419428Y-88259900D01*
X79281813Y-88233418D01*
X79146035Y-88193210D01*
X79013115Y-88140042D01*
X78884074Y-88074680D01*
X78759933Y-87997888D01*
X78641711Y-87910434D01*
X78530429Y-87813082D01*
X78427108Y-87706598D01*
X78332767Y-87591748D01*
X78248428Y-87469297D01*
X78175111Y-87340011D01*
X78164155Y-87318097D01*
X78110364Y-87196718D01*
X78068363Y-87076411D01*
X78038181Y-86958011D01*
X78019847Y-86842352D01*
X78013390Y-86730268D01*
X78018838Y-86622594D01*
X78036221Y-86520164D01*
X78065566Y-86423813D01*
X78106904Y-86334375D01*
X78128943Y-86297359D01*
X78183655Y-86223366D01*
X78248178Y-86155700D01*
X78320540Y-86095584D01*
X78398770Y-86044240D01*
X78480897Y-86002890D01*
X78564951Y-85972758D01*
X78648959Y-85955066D01*
X78686665Y-85951462D01*
X78720656Y-85949937D01*
X78744351Y-85950326D01*
X78761896Y-85953101D01*
X78777440Y-85958733D01*
X78785671Y-85962725D01*
X78808904Y-85977947D01*
X78832402Y-85998423D01*
X78840326Y-86006929D01*
X78862551Y-86036673D01*
X78889604Y-86079431D01*
X78921222Y-86134626D01*
X78957145Y-86201680D01*
X78997110Y-86280015D01*
X79040856Y-86369054D01*
X79088121Y-86468218D01*
X79138644Y-86576929D01*
X79192162Y-86694610D01*
X79248414Y-86820683D01*
X79307139Y-86954569D01*
X79368074Y-87095691D01*
X79430959Y-87243471D01*
X79495530Y-87397332D01*
X79561527Y-87556694D01*
X79628688Y-87720980D01*
X79696751Y-87889613D01*
X79726218Y-87963285D01*
X79749962Y-88024581D01*
X79767624Y-88074664D01*
X79779610Y-88115303D01*
X79786324Y-88148268D01*
X79788174Y-88175331D01*
X81135090Y-88175331D01*
X81132872Y-88169512D01*
X81072234Y-88012522D01*
X81011747Y-87858126D01*
X80951674Y-87707050D01*
X80892279Y-87560019D01*
X80833826Y-87417761D01*
X80776577Y-87280999D01*
X80720797Y-87150460D01*
X80666747Y-87026870D01*
X80614693Y-86910954D01*
X80564897Y-86803438D01*
X80517622Y-86705048D01*
X80473133Y-86616510D01*
X80442842Y-86559028D01*
X80376095Y-86444303D01*
X80302286Y-86333870D01*
X80223105Y-86229828D01*
X80140239Y-86134278D01*
X80055377Y-86049320D01*
X79983196Y-85987209D01*
X79958300Y-85966511D01*
X79942804Y-85951577D01*
X79937683Y-85943412D01*
X79939653Y-85942172D01*
X79955964Y-85943553D01*
X79983788Y-85947377D01*
X80020421Y-85953173D01*
X80063156Y-85960467D01*
X80109290Y-85968786D01*
X80156117Y-85977657D01*
X80200932Y-85986608D01*
X80234209Y-85993660D01*
X80410057Y-86037063D01*
X80579558Y-86088676D01*
X80741819Y-86148032D01*
X80895947Y-86214664D01*
X81041048Y-86288105D01*
X81176228Y-86367888D01*
X81300594Y-86453546D01*
X81413253Y-86544611D01*
X81513311Y-86640616D01*
X81551358Y-86682295D01*
X81634787Y-86787620D01*
X81704376Y-86897307D01*
X81760161Y-87011461D01*
X81802177Y-87130189D01*
X81830462Y-87253598D01*
X81845049Y-87381793D01*
X81845975Y-87514881D01*
X81843845Y-87552282D01*
X81834638Y-87652157D01*
X81821321Y-87741137D01*
X81802896Y-87822503D01*
X81778366Y-87899535D01*
X81746732Y-87975516D01*
X81706997Y-88053725D01*
X81673751Y-88111684D01*
X81650812Y-88152890D01*
X81637058Y-88185278D01*
X81632189Y-88211014D01*
X81635899Y-88232263D01*
X81647886Y-88251189D01*
X81653386Y-88257074D01*
X81683593Y-88277243D01*
X81725783Y-88289399D01*
X81779839Y-88293543D01*
X81845641Y-88289673D01*
X81923071Y-88277790D01*
X82012010Y-88257893D01*
X82013723Y-88257460D01*
X82144522Y-88217606D01*
X82273763Y-88165234D01*
X82399132Y-88101648D01*
X82518320Y-88028151D01*
X82629014Y-87946045D01*
X82728902Y-87856633D01*
X82734189Y-87851376D01*
X82803236Y-87777064D01*
X82861305Y-87702438D01*
X82911415Y-87623343D01*
X82942854Y-87564142D01*
X82978533Y-87486260D01*
X83005268Y-87413086D01*
X83023836Y-87340883D01*
X83035015Y-87265914D01*
X83039583Y-87184440D01*
X83038713Y-87103314D01*
X83029807Y-86984016D01*
X83011147Y-86872473D01*
X82981801Y-86764909D01*
X82940833Y-86657551D01*
X82913844Y-86598942D01*
X82868121Y-86511687D01*
X82818926Y-86432037D01*
X82763803Y-86356630D01*
X82700293Y-86282104D01*
X82626241Y-86205391D01*
X82511403Y-86101720D01*
X82383592Y-86004088D01*
X82243081Y-85912602D01*
X82090146Y-85827367D01*
X81925059Y-85748492D01*
X81748095Y-85676082D01*
X81559527Y-85610244D01*
X81359630Y-85551086D01*
X81148677Y-85498714D01*
X80926942Y-85453235D01*
X80694699Y-85414755D01*
X80547111Y-85394656D01*
X80331446Y-85370931D01*
X80109864Y-85352922D01*
X79885311Y-85340695D01*
X79660733Y-85334314D01*
X79439076Y-85333845D01*
X79223286Y-85339355D01*
G36*
X253428214Y-65547281D02*
G01*
X253290798Y-65595897D01*
X253163936Y-65673765D01*
X253046981Y-65781716D01*
X252939288Y-65920580D01*
X252840212Y-66091188D01*
X252749107Y-66294368D01*
X252665328Y-66530953D01*
X252588230Y-66801771D01*
X252518195Y-67102786D01*
X252484168Y-67294433D01*
X252464285Y-67485462D01*
X252458507Y-67683172D01*
X252466796Y-67894864D01*
X252489115Y-68127835D01*
X252512007Y-68300215D01*
X252529868Y-68436297D01*
X252546208Y-68584763D01*
X252559729Y-68732096D01*
X252569138Y-68864776D01*
X252572134Y-68927812D01*
X252573335Y-69153418D01*
X252558215Y-69354371D01*
X252524532Y-69539463D01*
X252470044Y-69717486D01*
X252392507Y-69897230D01*
X252289678Y-70087487D01*
X252266157Y-70127114D01*
X252107191Y-70409668D01*
X251979121Y-70677719D01*
X251880865Y-70933917D01*
X251811342Y-71180914D01*
X251786833Y-71302857D01*
X251770197Y-71439405D01*
X251763387Y-71591813D01*
X251766020Y-71748930D01*
X251777712Y-71899600D01*
X251798082Y-72032672D01*
X251814133Y-72098821D01*
X251895090Y-72316358D01*
X252005293Y-72512718D01*
X252144026Y-72687195D01*
X252310575Y-72839080D01*
X252504224Y-72967667D01*
X252724258Y-73072250D01*
X252841326Y-73114465D01*
X252988571Y-73155886D01*
X253149739Y-73189806D01*
X253315244Y-73215021D01*
X253475502Y-73230333D01*
X253620931Y-73234538D01*
X253738566Y-73226897D01*
X253851834Y-73205087D01*
X253963967Y-73169151D01*
X254076425Y-73117608D01*
X254190671Y-73048971D01*
X254308167Y-72961759D01*
X254430374Y-72854487D01*
X254558755Y-72725671D01*
X254694771Y-72573828D01*
X254839884Y-72397473D01*
X254995556Y-72195124D01*
X255163249Y-71965295D01*
X255344424Y-71706505D01*
X255540545Y-71417268D01*
X255580592Y-71357286D01*
X255725104Y-71137414D01*
X255851182Y-70938791D01*
X255963011Y-70754297D01*
X256064778Y-70576809D01*
X256160668Y-70399205D01*
X256254867Y-70214362D01*
X256268370Y-70187072D01*
X256438846Y-69822114D01*
X256580823Y-69475668D01*
X256695130Y-69144877D01*
X256782592Y-68826881D01*
X256844036Y-68518824D01*
X256880289Y-68217846D01*
X256890387Y-68036485D01*
X256891699Y-67809668D01*
X256879621Y-67609916D01*
X256852800Y-67430062D01*
X256809884Y-67262939D01*
X256749517Y-67101382D01*
X256690045Y-66975786D01*
X256643246Y-66893425D01*
X256588589Y-66816682D01*
X256518365Y-66735563D01*
X256451512Y-66666508D01*
X256350257Y-66572183D01*
X256247313Y-66492176D01*
X256136777Y-66423566D01*
X256012744Y-66363434D01*
X255869309Y-66308861D01*
X255700568Y-66256926D01*
X255534571Y-66213110D01*
X255432947Y-66185322D01*
X255326134Y-66150928D01*
X255209294Y-66108009D01*
X255077589Y-66054642D01*
X254926182Y-65988908D01*
X254750236Y-65908885D01*
X254645571Y-65860112D01*
X254469122Y-65778375D01*
X254319846Y-65711811D01*
X254192828Y-65658656D01*
X254083148Y-65617148D01*
X253985890Y-65585524D01*
X253896138Y-65562020D01*
X253808972Y-65544875D01*
X253737283Y-65534486D01*
X253576827Y-65527088D01*
X253428214Y-65547281D01*
X253428214Y-65547281D01*
G37*
X253428214Y-65547281D02*
X253290798Y-65595897D01*
X253163936Y-65673765D01*
X253046981Y-65781716D01*
X252939288Y-65920580D01*
X252840212Y-66091188D01*
X252749107Y-66294368D01*
X252665328Y-66530953D01*
X252588230Y-66801771D01*
X252518195Y-67102786D01*
X252484168Y-67294433D01*
X252464285Y-67485462D01*
X252458507Y-67683172D01*
X252466796Y-67894864D01*
X252489115Y-68127835D01*
X252512007Y-68300215D01*
X252529868Y-68436297D01*
X252546208Y-68584763D01*
X252559729Y-68732096D01*
X252569138Y-68864776D01*
X252572134Y-68927812D01*
X252573335Y-69153418D01*
X252558215Y-69354371D01*
X252524532Y-69539463D01*
X252470044Y-69717486D01*
X252392507Y-69897230D01*
X252289678Y-70087487D01*
X252266157Y-70127114D01*
X252107191Y-70409668D01*
X251979121Y-70677719D01*
X251880865Y-70933917D01*
X251811342Y-71180914D01*
X251786833Y-71302857D01*
X251770197Y-71439405D01*
X251763387Y-71591813D01*
X251766020Y-71748930D01*
X251777712Y-71899600D01*
X251798082Y-72032672D01*
X251814133Y-72098821D01*
X251895090Y-72316358D01*
X252005293Y-72512718D01*
X252144026Y-72687195D01*
X252310575Y-72839080D01*
X252504224Y-72967667D01*
X252724258Y-73072250D01*
X252841326Y-73114465D01*
X252988571Y-73155886D01*
X253149739Y-73189806D01*
X253315244Y-73215021D01*
X253475502Y-73230333D01*
X253620931Y-73234538D01*
X253738566Y-73226897D01*
X253851834Y-73205087D01*
X253963967Y-73169151D01*
X254076425Y-73117608D01*
X254190671Y-73048971D01*
X254308167Y-72961759D01*
X254430374Y-72854487D01*
X254558755Y-72725671D01*
X254694771Y-72573828D01*
X254839884Y-72397473D01*
X254995556Y-72195124D01*
X255163249Y-71965295D01*
X255344424Y-71706505D01*
X255540545Y-71417268D01*
X255580592Y-71357286D01*
X255725104Y-71137414D01*
X255851182Y-70938791D01*
X255963011Y-70754297D01*
X256064778Y-70576809D01*
X256160668Y-70399205D01*
X256254867Y-70214362D01*
X256268370Y-70187072D01*
X256438846Y-69822114D01*
X256580823Y-69475668D01*
X256695130Y-69144877D01*
X256782592Y-68826881D01*
X256844036Y-68518824D01*
X256880289Y-68217846D01*
X256890387Y-68036485D01*
X256891699Y-67809668D01*
X256879621Y-67609916D01*
X256852800Y-67430062D01*
X256809884Y-67262939D01*
X256749517Y-67101382D01*
X256690045Y-66975786D01*
X256643246Y-66893425D01*
X256588589Y-66816682D01*
X256518365Y-66735563D01*
X256451512Y-66666508D01*
X256350257Y-66572183D01*
X256247313Y-66492176D01*
X256136777Y-66423566D01*
X256012744Y-66363434D01*
X255869309Y-66308861D01*
X255700568Y-66256926D01*
X255534571Y-66213110D01*
X255432947Y-66185322D01*
X255326134Y-66150928D01*
X255209294Y-66108009D01*
X255077589Y-66054642D01*
X254926182Y-65988908D01*
X254750236Y-65908885D01*
X254645571Y-65860112D01*
X254469122Y-65778375D01*
X254319846Y-65711811D01*
X254192828Y-65658656D01*
X254083148Y-65617148D01*
X253985890Y-65585524D01*
X253896138Y-65562020D01*
X253808972Y-65544875D01*
X253737283Y-65534486D01*
X253576827Y-65527088D01*
X253428214Y-65547281D01*
G36*
X257207636Y-65531557D02*
G01*
X257124502Y-65575628D01*
X257046995Y-65652288D01*
X256977687Y-65762491D01*
X256972190Y-65773572D01*
X256910956Y-65929402D01*
X256874205Y-66090606D01*
X256861200Y-66252066D01*
X256871205Y-66408667D01*
X256903484Y-66555292D01*
X256957300Y-66686825D01*
X257031917Y-66798148D01*
X257126598Y-66884146D01*
X257132644Y-66888219D01*
X257230989Y-66932826D01*
X257338490Y-66946723D01*
X257444768Y-66929315D01*
X257493739Y-66908927D01*
X257586055Y-66841555D01*
X257660733Y-66746562D01*
X257716440Y-66628740D01*
X257751842Y-66492884D01*
X257765608Y-66343786D01*
X257756404Y-66186243D01*
X257731093Y-66055334D01*
X257680583Y-65898021D01*
X257617696Y-65766612D01*
X257545005Y-65662063D01*
X257465081Y-65585328D01*
X257380497Y-65537362D01*
X257293825Y-65519120D01*
X257207636Y-65531557D01*
X257207636Y-65531557D01*
G37*
X257207636Y-65531557D02*
X257124502Y-65575628D01*
X257046995Y-65652288D01*
X256977687Y-65762491D01*
X256972190Y-65773572D01*
X256910956Y-65929402D01*
X256874205Y-66090606D01*
X256861200Y-66252066D01*
X256871205Y-66408667D01*
X256903484Y-66555292D01*
X256957300Y-66686825D01*
X257031917Y-66798148D01*
X257126598Y-66884146D01*
X257132644Y-66888219D01*
X257230989Y-66932826D01*
X257338490Y-66946723D01*
X257444768Y-66929315D01*
X257493739Y-66908927D01*
X257586055Y-66841555D01*
X257660733Y-66746562D01*
X257716440Y-66628740D01*
X257751842Y-66492884D01*
X257765608Y-66343786D01*
X257756404Y-66186243D01*
X257731093Y-66055334D01*
X257680583Y-65898021D01*
X257617696Y-65766612D01*
X257545005Y-65662063D01*
X257465081Y-65585328D01*
X257380497Y-65537362D01*
X257293825Y-65519120D01*
X257207636Y-65531557D01*
G36*
X256155216Y-64851306D02*
G01*
X256051929Y-64907071D01*
X256048515Y-64909595D01*
X255983573Y-64978324D01*
X255931283Y-65074046D01*
X255893854Y-65189003D01*
X255873495Y-65315439D01*
X255872415Y-65445597D01*
X255879040Y-65504845D01*
X255913960Y-65652252D01*
X255968935Y-65782797D01*
X256040658Y-65893836D01*
X256125822Y-65982723D01*
X256221121Y-66046814D01*
X256323249Y-66083464D01*
X256428898Y-66090027D01*
X256534763Y-66063859D01*
X256562127Y-66051261D01*
X256654957Y-65984628D01*
X256727652Y-65892305D01*
X256779205Y-65779435D01*
X256808608Y-65651162D01*
X256814855Y-65512631D01*
X256796937Y-65368986D01*
X256753847Y-65225371D01*
X256733257Y-65177405D01*
X256660442Y-65051662D01*
X256573267Y-64952540D01*
X256475444Y-64881491D01*
X256370686Y-64839968D01*
X256262706Y-64829422D01*
X256155216Y-64851306D01*
X256155216Y-64851306D01*
G37*
X256155216Y-64851306D02*
X256051929Y-64907071D01*
X256048515Y-64909595D01*
X255983573Y-64978324D01*
X255931283Y-65074046D01*
X255893854Y-65189003D01*
X255873495Y-65315439D01*
X255872415Y-65445597D01*
X255879040Y-65504845D01*
X255913960Y-65652252D01*
X255968935Y-65782797D01*
X256040658Y-65893836D01*
X256125822Y-65982723D01*
X256221121Y-66046814D01*
X256323249Y-66083464D01*
X256428898Y-66090027D01*
X256534763Y-66063859D01*
X256562127Y-66051261D01*
X256654957Y-65984628D01*
X256727652Y-65892305D01*
X256779205Y-65779435D01*
X256808608Y-65651162D01*
X256814855Y-65512631D01*
X256796937Y-65368986D01*
X256753847Y-65225371D01*
X256733257Y-65177405D01*
X256660442Y-65051662D01*
X256573267Y-64952540D01*
X256475444Y-64881491D01*
X256370686Y-64839968D01*
X256262706Y-64829422D01*
X256155216Y-64851306D01*
G36*
X255128256Y-64392916D02*
G01*
X255069214Y-64406926D01*
X255051680Y-64414301D01*
X254963328Y-64480010D01*
X254892125Y-64572412D01*
X254839154Y-64685663D01*
X254805499Y-64813921D01*
X254792242Y-64951341D01*
X254800467Y-65092083D01*
X254831258Y-65230302D01*
X254878773Y-65346960D01*
X254951167Y-65457952D01*
X255040057Y-65544957D01*
X255140421Y-65605610D01*
X255247242Y-65637544D01*
X255355501Y-65638393D01*
X255443857Y-65613361D01*
X255540857Y-65552595D01*
X255616713Y-65466254D01*
X255670526Y-65358871D01*
X255701398Y-65234983D01*
X255708431Y-65099125D01*
X255690726Y-64955833D01*
X255647386Y-64809643D01*
X255616958Y-64739241D01*
X255538959Y-64603642D01*
X255450768Y-64499940D01*
X255353751Y-64429271D01*
X255249275Y-64392771D01*
X255193472Y-64387677D01*
X255128256Y-64392916D01*
X255128256Y-64392916D01*
G37*
X255128256Y-64392916D02*
X255069214Y-64406926D01*
X255051680Y-64414301D01*
X254963328Y-64480010D01*
X254892125Y-64572412D01*
X254839154Y-64685663D01*
X254805499Y-64813921D01*
X254792242Y-64951341D01*
X254800467Y-65092083D01*
X254831258Y-65230302D01*
X254878773Y-65346960D01*
X254951167Y-65457952D01*
X255040057Y-65544957D01*
X255140421Y-65605610D01*
X255247242Y-65637544D01*
X255355501Y-65638393D01*
X255443857Y-65613361D01*
X255540857Y-65552595D01*
X255616713Y-65466254D01*
X255670526Y-65358871D01*
X255701398Y-65234983D01*
X255708431Y-65099125D01*
X255690726Y-64955833D01*
X255647386Y-64809643D01*
X255616958Y-64739241D01*
X255538959Y-64603642D01*
X255450768Y-64499940D01*
X255353751Y-64429271D01*
X255249275Y-64392771D01*
X255193472Y-64387677D01*
X255128256Y-64392916D01*
G36*
X252495068Y-63463065D02*
G01*
X252358840Y-63510409D01*
X252241800Y-63587913D01*
X252145816Y-63694240D01*
X252072758Y-63828053D01*
X252056531Y-63870645D01*
X252037001Y-63953749D01*
X252025120Y-64062274D01*
X252020758Y-64186200D01*
X252023781Y-64315509D01*
X252034060Y-64440181D01*
X252051460Y-64550195D01*
X252066230Y-64608143D01*
X252136894Y-64789399D01*
X252227487Y-64945927D01*
X252335881Y-65075775D01*
X252459948Y-65176991D01*
X252597558Y-65247625D01*
X252746582Y-65285725D01*
X252811753Y-65291543D01*
X252902048Y-65291026D01*
X252981430Y-65282738D01*
X253021785Y-65273267D01*
X253162552Y-65208331D01*
X253282916Y-65114517D01*
X253381538Y-64993820D01*
X253457077Y-64848236D01*
X253508194Y-64679762D01*
X253531984Y-64513203D01*
X253530741Y-64327286D01*
X253499630Y-64150806D01*
X253441293Y-63986951D01*
X253358371Y-63838910D01*
X253253506Y-63709869D01*
X253129340Y-63603017D01*
X252988513Y-63521541D01*
X252833668Y-63468629D01*
X252667446Y-63447468D01*
X252648614Y-63447216D01*
X252495068Y-63463065D01*
X252495068Y-63463065D01*
G37*
X252495068Y-63463065D02*
X252358840Y-63510409D01*
X252241800Y-63587913D01*
X252145816Y-63694240D01*
X252072758Y-63828053D01*
X252056531Y-63870645D01*
X252037001Y-63953749D01*
X252025120Y-64062274D01*
X252020758Y-64186200D01*
X252023781Y-64315509D01*
X252034060Y-64440181D01*
X252051460Y-64550195D01*
X252066230Y-64608143D01*
X252136894Y-64789399D01*
X252227487Y-64945927D01*
X252335881Y-65075775D01*
X252459948Y-65176991D01*
X252597558Y-65247625D01*
X252746582Y-65285725D01*
X252811753Y-65291543D01*
X252902048Y-65291026D01*
X252981430Y-65282738D01*
X253021785Y-65273267D01*
X253162552Y-65208331D01*
X253282916Y-65114517D01*
X253381538Y-64993820D01*
X253457077Y-64848236D01*
X253508194Y-64679762D01*
X253531984Y-64513203D01*
X253530741Y-64327286D01*
X253499630Y-64150806D01*
X253441293Y-63986951D01*
X253358371Y-63838910D01*
X253253506Y-63709869D01*
X253129340Y-63603017D01*
X252988513Y-63521541D01*
X252833668Y-63468629D01*
X252667446Y-63447468D01*
X252648614Y-63447216D01*
X252495068Y-63463065D01*
G36*
X254066094Y-63990992D02*
G01*
X253982636Y-64026512D01*
X253912103Y-64086924D01*
X253849565Y-64176969D01*
X253825709Y-64222297D01*
X253796770Y-64285387D01*
X253778336Y-64340491D01*
X253767510Y-64400594D01*
X253761396Y-64478682D01*
X253759584Y-64518782D01*
X253761394Y-64661631D01*
X253780944Y-64781467D01*
X253820425Y-64888062D01*
X253857025Y-64953625D01*
X253914052Y-65026344D01*
X253987345Y-65095144D01*
X254063647Y-65148310D01*
X254094848Y-65163770D01*
X254165755Y-65181575D01*
X254252429Y-65187101D01*
X254337786Y-65180373D01*
X254400643Y-65163306D01*
X254485010Y-65107269D01*
X254559422Y-65019534D01*
X254606810Y-64934715D01*
X254646537Y-64808644D01*
X254657071Y-64669111D01*
X254639328Y-64522905D01*
X254594224Y-64376818D01*
X254522672Y-64237640D01*
X254510314Y-64218670D01*
X254424772Y-64113753D01*
X254329977Y-64037927D01*
X254229678Y-63993113D01*
X254127629Y-63981235D01*
X254066094Y-63990992D01*
X254066094Y-63990992D01*
G37*
X254066094Y-63990992D02*
X253982636Y-64026512D01*
X253912103Y-64086924D01*
X253849565Y-64176969D01*
X253825709Y-64222297D01*
X253796770Y-64285387D01*
X253778336Y-64340491D01*
X253767510Y-64400594D01*
X253761396Y-64478682D01*
X253759584Y-64518782D01*
X253761394Y-64661631D01*
X253780944Y-64781467D01*
X253820425Y-64888062D01*
X253857025Y-64953625D01*
X253914052Y-65026344D01*
X253987345Y-65095144D01*
X254063647Y-65148310D01*
X254094848Y-65163770D01*
X254165755Y-65181575D01*
X254252429Y-65187101D01*
X254337786Y-65180373D01*
X254400643Y-65163306D01*
X254485010Y-65107269D01*
X254559422Y-65019534D01*
X254606810Y-64934715D01*
X254646537Y-64808644D01*
X254657071Y-64669111D01*
X254639328Y-64522905D01*
X254594224Y-64376818D01*
X254522672Y-64237640D01*
X254510314Y-64218670D01*
X254424772Y-64113753D01*
X254329977Y-64037927D01*
X254229678Y-63993113D01*
X254127629Y-63981235D01*
X254066094Y-63990992D01*
G36*
X243104645Y-67385742D02*
G01*
X243103826Y-67391086D01*
X243102222Y-67405827D01*
X243099899Y-67429237D01*
X243096922Y-67460586D01*
X243093359Y-67499149D01*
X243089274Y-67544195D01*
X243084734Y-67594998D01*
X243079805Y-67650829D01*
X243074554Y-67710961D01*
X243069045Y-67774666D01*
X243063944Y-67834194D01*
X243058284Y-67900440D01*
X243052859Y-67963737D01*
X243047733Y-68023361D01*
X243042968Y-68078587D01*
X243038627Y-68128691D01*
X243034775Y-68172948D01*
X243031473Y-68210633D01*
X243028785Y-68241021D01*
X243026774Y-68263387D01*
X243025502Y-68277007D01*
X243025043Y-68281189D01*
X243019964Y-68281042D01*
X243005564Y-68280227D01*
X242982656Y-68278797D01*
X242952052Y-68276809D01*
X242914566Y-68274315D01*
X242871011Y-68271371D01*
X242822199Y-68268031D01*
X242768945Y-68264349D01*
X242712060Y-68260379D01*
X242669063Y-68257357D01*
X242610053Y-68253210D01*
X242554081Y-68249306D01*
X242501961Y-68245699D01*
X242454506Y-68242444D01*
X242412530Y-68239597D01*
X242376846Y-68237211D01*
X242348267Y-68235342D01*
X242327607Y-68234045D01*
X242315680Y-68233375D01*
X242312955Y-68233312D01*
X242312568Y-68238470D01*
X242311888Y-68252909D01*
X242310943Y-68275758D01*
X242309762Y-68306152D01*
X242308375Y-68343221D01*
X242306811Y-68386098D01*
X242305100Y-68433915D01*
X242303270Y-68485805D01*
X242301351Y-68540899D01*
X242299372Y-68598329D01*
X242297363Y-68657228D01*
X242295352Y-68716728D01*
X242293369Y-68775961D01*
X242291444Y-68834059D01*
X242289605Y-68890154D01*
X242287882Y-68943378D01*
X242286304Y-68992863D01*
X242284900Y-69037742D01*
X242283700Y-69077147D01*
X242282733Y-69110210D01*
X242282028Y-69136062D01*
X242281614Y-69153837D01*
X242281521Y-69162665D01*
X242281579Y-69163497D01*
X242286792Y-69163821D01*
X242301385Y-69164393D01*
X242324581Y-69165190D01*
X242355601Y-69166188D01*
X242393669Y-69167364D01*
X242438008Y-69168694D01*
X242487840Y-69170155D01*
X242542389Y-69171722D01*
X242600877Y-69173373D01*
X242662527Y-69175084D01*
X242676236Y-69175461D01*
X242738504Y-69177202D01*
X242797803Y-69178927D01*
X242853354Y-69180608D01*
X242904375Y-69182219D01*
X242950086Y-69183732D01*
X242989709Y-69185122D01*
X243022462Y-69186362D01*
X243047565Y-69187425D01*
X243064238Y-69188283D01*
X243071702Y-69188911D01*
X243072027Y-69189013D01*
X243072572Y-69194827D01*
X243072262Y-69209226D01*
X243071214Y-69230682D01*
X243069546Y-69257667D01*
X243067375Y-69288651D01*
X243064821Y-69322108D01*
X243061999Y-69356509D01*
X243059030Y-69390325D01*
X243056029Y-69422028D01*
X243053115Y-69450091D01*
X243050406Y-69472984D01*
X243049762Y-69477813D01*
X243039201Y-69538640D01*
X243025390Y-69590225D01*
X243008077Y-69633032D01*
X242987005Y-69667529D01*
X242961922Y-69694180D01*
X242932572Y-69713452D01*
X242917540Y-69719978D01*
X242893654Y-69727674D01*
X242867707Y-69733338D01*
X242837813Y-69737195D01*
X242802089Y-69739468D01*
X242758649Y-69740381D01*
X242745500Y-69740424D01*
X242684007Y-69739579D01*
X242627114Y-69736797D01*
X242572106Y-69731755D01*
X242516268Y-69724132D01*
X242456886Y-69713606D01*
X242391243Y-69699855D01*
X242377661Y-69696811D01*
X242350783Y-69691020D01*
X242327446Y-69686538D01*
X242309409Y-69683658D01*
X242298433Y-69682675D01*
X242295964Y-69683123D01*
X242295334Y-69688532D01*
X242294298Y-69703182D01*
X242292900Y-69726168D01*
X242291182Y-69756582D01*
X242289188Y-69793517D01*
X242286962Y-69836064D01*
X242284546Y-69883317D01*
X242281985Y-69934368D01*
X242279321Y-69988310D01*
X242276598Y-70044236D01*
X242273859Y-70101238D01*
X242271148Y-70158408D01*
X242268508Y-70214839D01*
X242265983Y-70269625D01*
X242263615Y-70321856D01*
X242261449Y-70370627D01*
X242259527Y-70415030D01*
X242257893Y-70454156D01*
X242256591Y-70487100D01*
X242255663Y-70512953D01*
X242255153Y-70530807D01*
X242255072Y-70538444D01*
X242255280Y-70556628D01*
X242358150Y-70590380D01*
X242462378Y-70623115D01*
X242563476Y-70651737D01*
X242663055Y-70676526D01*
X242762730Y-70697764D01*
X242864113Y-70715735D01*
X242968819Y-70730718D01*
X243078459Y-70742998D01*
X243194647Y-70752855D01*
X243318996Y-70760573D01*
X243336795Y-70761481D01*
X243362381Y-70762470D01*
X243395973Y-70763337D01*
X243436069Y-70764075D01*
X243481166Y-70764679D01*
X243529761Y-70765146D01*
X243580352Y-70765469D01*
X243631435Y-70765644D01*
X243681508Y-70765666D01*
X243729068Y-70765530D01*
X243772613Y-70765231D01*
X243810639Y-70764764D01*
X243841644Y-70764124D01*
X243864126Y-70763306D01*
X243865640Y-70763226D01*
X243966837Y-70756484D01*
X244058741Y-70747807D01*
X244142064Y-70737042D01*
X244217515Y-70724033D01*
X244285807Y-70708627D01*
X244347648Y-70690670D01*
X244403749Y-70670007D01*
X244454822Y-70646484D01*
X244488113Y-70628145D01*
X244526059Y-70602317D01*
X244564138Y-70570310D01*
X244599656Y-70534734D01*
X244629921Y-70498200D01*
X244644884Y-70476182D01*
X244671793Y-70426844D01*
X244694528Y-70372752D01*
X244713354Y-70312913D01*
X244728537Y-70246333D01*
X244740343Y-70172019D01*
X244749038Y-70088977D01*
X244749288Y-70085920D01*
X244750187Y-70070600D01*
X244751186Y-70046065D01*
X244752263Y-70013257D01*
X244753395Y-69973120D01*
X244754560Y-69926597D01*
X244755736Y-69874632D01*
X244756901Y-69818167D01*
X244758031Y-69758146D01*
X244759106Y-69695512D01*
X244760101Y-69631210D01*
X244760175Y-69626180D01*
X244761096Y-69563687D01*
X244762001Y-69504194D01*
X244762877Y-69448472D01*
X244763711Y-69397296D01*
X244764488Y-69351438D01*
X244765196Y-69311673D01*
X244765820Y-69278773D01*
X244766348Y-69253512D01*
X244766766Y-69236664D01*
X244767060Y-69229002D01*
X244767114Y-69228610D01*
X244772280Y-69227962D01*
X244786386Y-69226740D01*
X244808235Y-69225032D01*
X244836629Y-69222928D01*
X244870370Y-69220517D01*
X244908261Y-69217889D01*
X244934193Y-69216131D01*
X245100080Y-69204981D01*
X245100080Y-68427224D01*
X244908834Y-68398152D01*
X244866065Y-68391620D01*
X244826574Y-68385529D01*
X244791459Y-68380054D01*
X244761818Y-68375368D01*
X244738749Y-68371645D01*
X244723350Y-68369058D01*
X244716719Y-68367782D01*
X244716544Y-68367710D01*
X244716579Y-68362543D01*
X244716998Y-68347992D01*
X244717773Y-68324826D01*
X244718874Y-68293810D01*
X244720274Y-68255714D01*
X244721944Y-68211305D01*
X244723854Y-68161351D01*
X244725976Y-68106619D01*
X244728282Y-68047878D01*
X244730743Y-67985894D01*
X244731578Y-67965020D01*
X244734078Y-67902120D01*
X244736420Y-67842197D01*
X244738577Y-67786018D01*
X244740521Y-67734354D01*
X244742225Y-67687973D01*
X244743660Y-67647646D01*
X244744799Y-67614142D01*
X244745615Y-67588230D01*
X244746079Y-67570680D01*
X244746164Y-67562261D01*
X244746105Y-67561620D01*
X244740914Y-67560767D01*
X244726269Y-67558921D01*
X244702820Y-67556151D01*
X244671215Y-67552527D01*
X244632102Y-67548118D01*
X244586130Y-67542994D01*
X244533948Y-67537225D01*
X244476204Y-67530879D01*
X244413547Y-67524026D01*
X244346625Y-67516736D01*
X244276087Y-67509078D01*
X244202582Y-67501122D01*
X244126758Y-67492937D01*
X244049263Y-67484593D01*
X243970747Y-67476159D01*
X243891858Y-67467705D01*
X243813245Y-67459300D01*
X243735555Y-67451014D01*
X243659439Y-67442916D01*
X243585543Y-67435075D01*
X243514518Y-67427562D01*
X243447011Y-67420445D01*
X243383671Y-67413795D01*
X243325146Y-67407680D01*
X243272086Y-67402170D01*
X243225139Y-67397336D01*
X243184953Y-67393245D01*
X243152177Y-67389968D01*
X243127460Y-67387574D01*
X243111450Y-67386132D01*
X243104795Y-67385713D01*
X243104645Y-67385742D01*
X243104645Y-67385742D01*
G37*
X243104645Y-67385742D02*
X243103826Y-67391086D01*
X243102222Y-67405827D01*
X243099899Y-67429237D01*
X243096922Y-67460586D01*
X243093359Y-67499149D01*
X243089274Y-67544195D01*
X243084734Y-67594998D01*
X243079805Y-67650829D01*
X243074554Y-67710961D01*
X243069045Y-67774666D01*
X243063944Y-67834194D01*
X243058284Y-67900440D01*
X243052859Y-67963737D01*
X243047733Y-68023361D01*
X243042968Y-68078587D01*
X243038627Y-68128691D01*
X243034775Y-68172948D01*
X243031473Y-68210633D01*
X243028785Y-68241021D01*
X243026774Y-68263387D01*
X243025502Y-68277007D01*
X243025043Y-68281189D01*
X243019964Y-68281042D01*
X243005564Y-68280227D01*
X242982656Y-68278797D01*
X242952052Y-68276809D01*
X242914566Y-68274315D01*
X242871011Y-68271371D01*
X242822199Y-68268031D01*
X242768945Y-68264349D01*
X242712060Y-68260379D01*
X242669063Y-68257357D01*
X242610053Y-68253210D01*
X242554081Y-68249306D01*
X242501961Y-68245699D01*
X242454506Y-68242444D01*
X242412530Y-68239597D01*
X242376846Y-68237211D01*
X242348267Y-68235342D01*
X242327607Y-68234045D01*
X242315680Y-68233375D01*
X242312955Y-68233312D01*
X242312568Y-68238470D01*
X242311888Y-68252909D01*
X242310943Y-68275758D01*
X242309762Y-68306152D01*
X242308375Y-68343221D01*
X242306811Y-68386098D01*
X242305100Y-68433915D01*
X242303270Y-68485805D01*
X242301351Y-68540899D01*
X242299372Y-68598329D01*
X242297363Y-68657228D01*
X242295352Y-68716728D01*
X242293369Y-68775961D01*
X242291444Y-68834059D01*
X242289605Y-68890154D01*
X242287882Y-68943378D01*
X242286304Y-68992863D01*
X242284900Y-69037742D01*
X242283700Y-69077147D01*
X242282733Y-69110210D01*
X242282028Y-69136062D01*
X242281614Y-69153837D01*
X242281521Y-69162665D01*
X242281579Y-69163497D01*
X242286792Y-69163821D01*
X242301385Y-69164393D01*
X242324581Y-69165190D01*
X242355601Y-69166188D01*
X242393669Y-69167364D01*
X242438008Y-69168694D01*
X242487840Y-69170155D01*
X242542389Y-69171722D01*
X242600877Y-69173373D01*
X242662527Y-69175084D01*
X242676236Y-69175461D01*
X242738504Y-69177202D01*
X242797803Y-69178927D01*
X242853354Y-69180608D01*
X242904375Y-69182219D01*
X242950086Y-69183732D01*
X242989709Y-69185122D01*
X243022462Y-69186362D01*
X243047565Y-69187425D01*
X243064238Y-69188283D01*
X243071702Y-69188911D01*
X243072027Y-69189013D01*
X243072572Y-69194827D01*
X243072262Y-69209226D01*
X243071214Y-69230682D01*
X243069546Y-69257667D01*
X243067375Y-69288651D01*
X243064821Y-69322108D01*
X243061999Y-69356509D01*
X243059030Y-69390325D01*
X243056029Y-69422028D01*
X243053115Y-69450091D01*
X243050406Y-69472984D01*
X243049762Y-69477813D01*
X243039201Y-69538640D01*
X243025390Y-69590225D01*
X243008077Y-69633032D01*
X242987005Y-69667529D01*
X242961922Y-69694180D01*
X242932572Y-69713452D01*
X242917540Y-69719978D01*
X242893654Y-69727674D01*
X242867707Y-69733338D01*
X242837813Y-69737195D01*
X242802089Y-69739468D01*
X242758649Y-69740381D01*
X242745500Y-69740424D01*
X242684007Y-69739579D01*
X242627114Y-69736797D01*
X242572106Y-69731755D01*
X242516268Y-69724132D01*
X242456886Y-69713606D01*
X242391243Y-69699855D01*
X242377661Y-69696811D01*
X242350783Y-69691020D01*
X242327446Y-69686538D01*
X242309409Y-69683658D01*
X242298433Y-69682675D01*
X242295964Y-69683123D01*
X242295334Y-69688532D01*
X242294298Y-69703182D01*
X242292900Y-69726168D01*
X242291182Y-69756582D01*
X242289188Y-69793517D01*
X242286962Y-69836064D01*
X242284546Y-69883317D01*
X242281985Y-69934368D01*
X242279321Y-69988310D01*
X242276598Y-70044236D01*
X242273859Y-70101238D01*
X242271148Y-70158408D01*
X242268508Y-70214839D01*
X242265983Y-70269625D01*
X242263615Y-70321856D01*
X242261449Y-70370627D01*
X242259527Y-70415030D01*
X242257893Y-70454156D01*
X242256591Y-70487100D01*
X242255663Y-70512953D01*
X242255153Y-70530807D01*
X242255072Y-70538444D01*
X242255280Y-70556628D01*
X242358150Y-70590380D01*
X242462378Y-70623115D01*
X242563476Y-70651737D01*
X242663055Y-70676526D01*
X242762730Y-70697764D01*
X242864113Y-70715735D01*
X242968819Y-70730718D01*
X243078459Y-70742998D01*
X243194647Y-70752855D01*
X243318996Y-70760573D01*
X243336795Y-70761481D01*
X243362381Y-70762470D01*
X243395973Y-70763337D01*
X243436069Y-70764075D01*
X243481166Y-70764679D01*
X243529761Y-70765146D01*
X243580352Y-70765469D01*
X243631435Y-70765644D01*
X243681508Y-70765666D01*
X243729068Y-70765530D01*
X243772613Y-70765231D01*
X243810639Y-70764764D01*
X243841644Y-70764124D01*
X243864126Y-70763306D01*
X243865640Y-70763226D01*
X243966837Y-70756484D01*
X244058741Y-70747807D01*
X244142064Y-70737042D01*
X244217515Y-70724033D01*
X244285807Y-70708627D01*
X244347648Y-70690670D01*
X244403749Y-70670007D01*
X244454822Y-70646484D01*
X244488113Y-70628145D01*
X244526059Y-70602317D01*
X244564138Y-70570310D01*
X244599656Y-70534734D01*
X244629921Y-70498200D01*
X244644884Y-70476182D01*
X244671793Y-70426844D01*
X244694528Y-70372752D01*
X244713354Y-70312913D01*
X244728537Y-70246333D01*
X244740343Y-70172019D01*
X244749038Y-70088977D01*
X244749288Y-70085920D01*
X244750187Y-70070600D01*
X244751186Y-70046065D01*
X244752263Y-70013257D01*
X244753395Y-69973120D01*
X244754560Y-69926597D01*
X244755736Y-69874632D01*
X244756901Y-69818167D01*
X244758031Y-69758146D01*
X244759106Y-69695512D01*
X244760101Y-69631210D01*
X244760175Y-69626180D01*
X244761096Y-69563687D01*
X244762001Y-69504194D01*
X244762877Y-69448472D01*
X244763711Y-69397296D01*
X244764488Y-69351438D01*
X244765196Y-69311673D01*
X244765820Y-69278773D01*
X244766348Y-69253512D01*
X244766766Y-69236664D01*
X244767060Y-69229002D01*
X244767114Y-69228610D01*
X244772280Y-69227962D01*
X244786386Y-69226740D01*
X244808235Y-69225032D01*
X244836629Y-69222928D01*
X244870370Y-69220517D01*
X244908261Y-69217889D01*
X244934193Y-69216131D01*
X245100080Y-69204981D01*
X245100080Y-68427224D01*
X244908834Y-68398152D01*
X244866065Y-68391620D01*
X244826574Y-68385529D01*
X244791459Y-68380054D01*
X244761818Y-68375368D01*
X244738749Y-68371645D01*
X244723350Y-68369058D01*
X244716719Y-68367782D01*
X244716544Y-68367710D01*
X244716579Y-68362543D01*
X244716998Y-68347992D01*
X244717773Y-68324826D01*
X244718874Y-68293810D01*
X244720274Y-68255714D01*
X244721944Y-68211305D01*
X244723854Y-68161351D01*
X244725976Y-68106619D01*
X244728282Y-68047878D01*
X244730743Y-67985894D01*
X244731578Y-67965020D01*
X244734078Y-67902120D01*
X244736420Y-67842197D01*
X244738577Y-67786018D01*
X244740521Y-67734354D01*
X244742225Y-67687973D01*
X244743660Y-67647646D01*
X244744799Y-67614142D01*
X244745615Y-67588230D01*
X244746079Y-67570680D01*
X244746164Y-67562261D01*
X244746105Y-67561620D01*
X244740914Y-67560767D01*
X244726269Y-67558921D01*
X244702820Y-67556151D01*
X244671215Y-67552527D01*
X244632102Y-67548118D01*
X244586130Y-67542994D01*
X244533948Y-67537225D01*
X244476204Y-67530879D01*
X244413547Y-67524026D01*
X244346625Y-67516736D01*
X244276087Y-67509078D01*
X244202582Y-67501122D01*
X244126758Y-67492937D01*
X244049263Y-67484593D01*
X243970747Y-67476159D01*
X243891858Y-67467705D01*
X243813245Y-67459300D01*
X243735555Y-67451014D01*
X243659439Y-67442916D01*
X243585543Y-67435075D01*
X243514518Y-67427562D01*
X243447011Y-67420445D01*
X243383671Y-67413795D01*
X243325146Y-67407680D01*
X243272086Y-67402170D01*
X243225139Y-67397336D01*
X243184953Y-67393245D01*
X243152177Y-67389968D01*
X243127460Y-67387574D01*
X243111450Y-67386132D01*
X243104795Y-67385713D01*
X243104645Y-67385742D01*
G36*
X239955635Y-67385152D02*
G01*
X239954886Y-67390422D01*
X239953343Y-67405090D01*
X239951070Y-67428429D01*
X239948135Y-67459711D01*
X239944603Y-67498212D01*
X239940538Y-67543205D01*
X239936008Y-67593962D01*
X239931077Y-67649759D01*
X239925811Y-67709867D01*
X239920276Y-67773562D01*
X239915093Y-67833656D01*
X239909385Y-67899939D01*
X239903912Y-67963274D01*
X239898735Y-68022936D01*
X239893920Y-68078202D01*
X239889530Y-68128346D01*
X239885629Y-68172645D01*
X239882280Y-68210375D01*
X239879548Y-68240812D01*
X239877495Y-68263230D01*
X239876187Y-68276907D01*
X239875696Y-68281146D01*
X239870589Y-68280992D01*
X239856161Y-68280170D01*
X239833226Y-68278736D01*
X239802597Y-68276743D01*
X239765087Y-68274246D01*
X239721511Y-68271300D01*
X239672681Y-68267958D01*
X239619412Y-68264276D01*
X239562516Y-68260309D01*
X239519531Y-68257289D01*
X239460527Y-68253146D01*
X239404566Y-68249245D01*
X239352462Y-68245641D01*
X239305028Y-68242389D01*
X239263076Y-68239544D01*
X239227419Y-68237160D01*
X239198869Y-68235292D01*
X239178239Y-68233996D01*
X239166343Y-68233326D01*
X239163640Y-68233263D01*
X239163108Y-68238705D01*
X239162323Y-68253414D01*
X239161312Y-68276519D01*
X239160102Y-68307148D01*
X239158718Y-68344433D01*
X239157190Y-68387502D01*
X239155542Y-68435485D01*
X239153802Y-68487510D01*
X239151997Y-68542709D01*
X239150154Y-68600210D01*
X239148299Y-68659142D01*
X239146460Y-68718635D01*
X239144662Y-68777820D01*
X239142934Y-68835824D01*
X239141302Y-68891778D01*
X239139792Y-68944811D01*
X239138432Y-68994053D01*
X239137248Y-69038633D01*
X239136267Y-69077680D01*
X239135517Y-69110325D01*
X239135023Y-69135696D01*
X239134813Y-69152923D01*
X239134914Y-69161135D01*
X239135012Y-69161715D01*
X239140600Y-69162390D01*
X239155486Y-69163279D01*
X239178811Y-69164350D01*
X239209715Y-69165573D01*
X239247340Y-69166918D01*
X239290825Y-69168355D01*
X239339312Y-69169853D01*
X239391941Y-69171382D01*
X239447854Y-69172912D01*
X239466360Y-69173398D01*
X239525345Y-69174954D01*
X239583023Y-69176517D01*
X239638305Y-69178055D01*
X239690102Y-69179535D01*
X239737324Y-69180926D01*
X239778880Y-69182195D01*
X239813681Y-69183310D01*
X239840637Y-69184239D01*
X239858658Y-69184950D01*
X239860181Y-69185020D01*
X239926342Y-69188118D01*
X239917634Y-69303009D01*
X239913336Y-69357570D01*
X239909323Y-69403433D01*
X239905412Y-69442050D01*
X239901419Y-69474872D01*
X239897164Y-69503351D01*
X239892461Y-69528937D01*
X239887130Y-69553083D01*
X239885090Y-69561428D01*
X239869400Y-69610921D01*
X239849206Y-69651507D01*
X239824278Y-69683499D01*
X239794384Y-69707208D01*
X239767983Y-69719962D01*
X239746209Y-69727169D01*
X239723319Y-69732612D01*
X239697724Y-69736434D01*
X239667835Y-69738774D01*
X239632062Y-69739774D01*
X239588817Y-69739574D01*
X239555260Y-69738851D01*
X239490214Y-69736283D01*
X239431610Y-69731941D01*
X239375872Y-69725368D01*
X239319427Y-69716104D01*
X239258699Y-69703693D01*
X239229915Y-69697167D01*
X239202888Y-69691106D01*
X239179430Y-69686258D01*
X239161275Y-69682948D01*
X239150153Y-69681500D01*
X239147525Y-69681702D01*
X239146822Y-69687115D01*
X239145721Y-69701768D01*
X239144266Y-69724751D01*
X239142499Y-69755153D01*
X239140465Y-69792064D01*
X239138206Y-69834574D01*
X239135766Y-69881773D01*
X239133189Y-69932750D01*
X239130518Y-69986595D01*
X239127796Y-70042397D01*
X239125066Y-70099247D01*
X239122373Y-70156234D01*
X239119759Y-70212447D01*
X239117267Y-70266976D01*
X239114942Y-70318912D01*
X239112827Y-70367343D01*
X239110965Y-70411360D01*
X239109399Y-70450052D01*
X239108173Y-70482508D01*
X239107330Y-70507819D01*
X239106914Y-70525074D01*
X239106940Y-70532960D01*
X239108220Y-70555820D01*
X239202200Y-70587737D01*
X239313385Y-70623395D01*
X239424021Y-70654508D01*
X239535537Y-70681327D01*
X239649360Y-70704103D01*
X239766919Y-70723087D01*
X239889642Y-70738530D01*
X240018957Y-70750684D01*
X240156291Y-70759799D01*
X240190260Y-70761546D01*
X240216022Y-70762516D01*
X240250000Y-70763363D01*
X240290640Y-70764080D01*
X240336388Y-70764665D01*
X240385692Y-70765110D01*
X240436997Y-70765412D01*
X240488750Y-70765565D01*
X240539396Y-70765565D01*
X240587383Y-70765406D01*
X240631157Y-70765083D01*
X240669164Y-70764592D01*
X240699850Y-70763927D01*
X240718580Y-70763243D01*
X240827225Y-70756352D01*
X240926539Y-70746576D01*
X241016972Y-70733779D01*
X241098974Y-70717823D01*
X241172994Y-70698573D01*
X241239484Y-70675892D01*
X241298892Y-70649645D01*
X241351669Y-70619694D01*
X241398265Y-70585905D01*
X241439129Y-70548139D01*
X241443211Y-70543825D01*
X241478201Y-70501686D01*
X241507970Y-70455329D01*
X241533270Y-70403258D01*
X241554849Y-70343976D01*
X241569608Y-70291660D01*
X241575490Y-70267109D01*
X241580774Y-70241977D01*
X241585497Y-70215581D01*
X241589700Y-70187239D01*
X241593422Y-70156271D01*
X241596704Y-70121994D01*
X241599584Y-70083728D01*
X241602103Y-70040790D01*
X241604300Y-69992500D01*
X241606215Y-69938175D01*
X241607888Y-69877134D01*
X241609358Y-69808696D01*
X241610666Y-69732179D01*
X241611850Y-69646902D01*
X241612950Y-69552183D01*
X241613008Y-69546830D01*
X241616404Y-69228721D01*
X241645012Y-69225905D01*
X241657689Y-69224830D01*
X241678847Y-69223235D01*
X241706827Y-69221236D01*
X241739968Y-69218950D01*
X241776613Y-69216493D01*
X241814622Y-69214011D01*
X241955623Y-69204934D01*
X241954322Y-68816376D01*
X241953020Y-68427818D01*
X241763260Y-68398664D01*
X241720560Y-68392038D01*
X241681056Y-68385778D01*
X241645864Y-68380073D01*
X241616103Y-68375108D01*
X241592892Y-68371072D01*
X241577347Y-68368150D01*
X241570588Y-68366531D01*
X241570414Y-68366427D01*
X241570124Y-68360986D01*
X241570225Y-68346167D01*
X241570693Y-68322744D01*
X241571504Y-68291490D01*
X241572633Y-68253179D01*
X241574058Y-68208584D01*
X241575753Y-68158479D01*
X241577694Y-68103637D01*
X241579858Y-68044832D01*
X241582221Y-67982838D01*
X241582973Y-67963521D01*
X241585405Y-67900740D01*
X241587675Y-67840935D01*
X241589757Y-67784878D01*
X241591624Y-67733339D01*
X241593250Y-67687089D01*
X241594608Y-67646900D01*
X241595672Y-67613543D01*
X241596415Y-67587788D01*
X241596810Y-67570407D01*
X241596833Y-67562170D01*
X241596761Y-67561596D01*
X241591555Y-67560773D01*
X241576898Y-67558951D01*
X241553440Y-67556201D01*
X241521829Y-67552591D01*
X241482712Y-67548192D01*
X241436740Y-67543074D01*
X241384559Y-67537305D01*
X241326819Y-67530956D01*
X241264167Y-67524097D01*
X241197253Y-67516796D01*
X241126725Y-67509125D01*
X241053231Y-67501152D01*
X240977419Y-67492948D01*
X240899939Y-67484581D01*
X240821438Y-67476123D01*
X240742566Y-67467641D01*
X240663970Y-67459207D01*
X240586298Y-67450890D01*
X240510201Y-67442760D01*
X240436325Y-67434886D01*
X240365319Y-67427337D01*
X240297832Y-67420185D01*
X240234512Y-67413498D01*
X240176007Y-67407347D01*
X240122967Y-67401800D01*
X240076039Y-67396928D01*
X240035873Y-67392800D01*
X240003115Y-67389487D01*
X239978416Y-67387057D01*
X239962422Y-67385580D01*
X239955784Y-67385127D01*
X239955635Y-67385152D01*
X239955635Y-67385152D01*
G37*
X239955635Y-67385152D02*
X239954886Y-67390422D01*
X239953343Y-67405090D01*
X239951070Y-67428429D01*
X239948135Y-67459711D01*
X239944603Y-67498212D01*
X239940538Y-67543205D01*
X239936008Y-67593962D01*
X239931077Y-67649759D01*
X239925811Y-67709867D01*
X239920276Y-67773562D01*
X239915093Y-67833656D01*
X239909385Y-67899939D01*
X239903912Y-67963274D01*
X239898735Y-68022936D01*
X239893920Y-68078202D01*
X239889530Y-68128346D01*
X239885629Y-68172645D01*
X239882280Y-68210375D01*
X239879548Y-68240812D01*
X239877495Y-68263230D01*
X239876187Y-68276907D01*
X239875696Y-68281146D01*
X239870589Y-68280992D01*
X239856161Y-68280170D01*
X239833226Y-68278736D01*
X239802597Y-68276743D01*
X239765087Y-68274246D01*
X239721511Y-68271300D01*
X239672681Y-68267958D01*
X239619412Y-68264276D01*
X239562516Y-68260309D01*
X239519531Y-68257289D01*
X239460527Y-68253146D01*
X239404566Y-68249245D01*
X239352462Y-68245641D01*
X239305028Y-68242389D01*
X239263076Y-68239544D01*
X239227419Y-68237160D01*
X239198869Y-68235292D01*
X239178239Y-68233996D01*
X239166343Y-68233326D01*
X239163640Y-68233263D01*
X239163108Y-68238705D01*
X239162323Y-68253414D01*
X239161312Y-68276519D01*
X239160102Y-68307148D01*
X239158718Y-68344433D01*
X239157190Y-68387502D01*
X239155542Y-68435485D01*
X239153802Y-68487510D01*
X239151997Y-68542709D01*
X239150154Y-68600210D01*
X239148299Y-68659142D01*
X239146460Y-68718635D01*
X239144662Y-68777820D01*
X239142934Y-68835824D01*
X239141302Y-68891778D01*
X239139792Y-68944811D01*
X239138432Y-68994053D01*
X239137248Y-69038633D01*
X239136267Y-69077680D01*
X239135517Y-69110325D01*
X239135023Y-69135696D01*
X239134813Y-69152923D01*
X239134914Y-69161135D01*
X239135012Y-69161715D01*
X239140600Y-69162390D01*
X239155486Y-69163279D01*
X239178811Y-69164350D01*
X239209715Y-69165573D01*
X239247340Y-69166918D01*
X239290825Y-69168355D01*
X239339312Y-69169853D01*
X239391941Y-69171382D01*
X239447854Y-69172912D01*
X239466360Y-69173398D01*
X239525345Y-69174954D01*
X239583023Y-69176517D01*
X239638305Y-69178055D01*
X239690102Y-69179535D01*
X239737324Y-69180926D01*
X239778880Y-69182195D01*
X239813681Y-69183310D01*
X239840637Y-69184239D01*
X239858658Y-69184950D01*
X239860181Y-69185020D01*
X239926342Y-69188118D01*
X239917634Y-69303009D01*
X239913336Y-69357570D01*
X239909323Y-69403433D01*
X239905412Y-69442050D01*
X239901419Y-69474872D01*
X239897164Y-69503351D01*
X239892461Y-69528937D01*
X239887130Y-69553083D01*
X239885090Y-69561428D01*
X239869400Y-69610921D01*
X239849206Y-69651507D01*
X239824278Y-69683499D01*
X239794384Y-69707208D01*
X239767983Y-69719962D01*
X239746209Y-69727169D01*
X239723319Y-69732612D01*
X239697724Y-69736434D01*
X239667835Y-69738774D01*
X239632062Y-69739774D01*
X239588817Y-69739574D01*
X239555260Y-69738851D01*
X239490214Y-69736283D01*
X239431610Y-69731941D01*
X239375872Y-69725368D01*
X239319427Y-69716104D01*
X239258699Y-69703693D01*
X239229915Y-69697167D01*
X239202888Y-69691106D01*
X239179430Y-69686258D01*
X239161275Y-69682948D01*
X239150153Y-69681500D01*
X239147525Y-69681702D01*
X239146822Y-69687115D01*
X239145721Y-69701768D01*
X239144266Y-69724751D01*
X239142499Y-69755153D01*
X239140465Y-69792064D01*
X239138206Y-69834574D01*
X239135766Y-69881773D01*
X239133189Y-69932750D01*
X239130518Y-69986595D01*
X239127796Y-70042397D01*
X239125066Y-70099247D01*
X239122373Y-70156234D01*
X239119759Y-70212447D01*
X239117267Y-70266976D01*
X239114942Y-70318912D01*
X239112827Y-70367343D01*
X239110965Y-70411360D01*
X239109399Y-70450052D01*
X239108173Y-70482508D01*
X239107330Y-70507819D01*
X239106914Y-70525074D01*
X239106940Y-70532960D01*
X239108220Y-70555820D01*
X239202200Y-70587737D01*
X239313385Y-70623395D01*
X239424021Y-70654508D01*
X239535537Y-70681327D01*
X239649360Y-70704103D01*
X239766919Y-70723087D01*
X239889642Y-70738530D01*
X240018957Y-70750684D01*
X240156291Y-70759799D01*
X240190260Y-70761546D01*
X240216022Y-70762516D01*
X240250000Y-70763363D01*
X240290640Y-70764080D01*
X240336388Y-70764665D01*
X240385692Y-70765110D01*
X240436997Y-70765412D01*
X240488750Y-70765565D01*
X240539396Y-70765565D01*
X240587383Y-70765406D01*
X240631157Y-70765083D01*
X240669164Y-70764592D01*
X240699850Y-70763927D01*
X240718580Y-70763243D01*
X240827225Y-70756352D01*
X240926539Y-70746576D01*
X241016972Y-70733779D01*
X241098974Y-70717823D01*
X241172994Y-70698573D01*
X241239484Y-70675892D01*
X241298892Y-70649645D01*
X241351669Y-70619694D01*
X241398265Y-70585905D01*
X241439129Y-70548139D01*
X241443211Y-70543825D01*
X241478201Y-70501686D01*
X241507970Y-70455329D01*
X241533270Y-70403258D01*
X241554849Y-70343976D01*
X241569608Y-70291660D01*
X241575490Y-70267109D01*
X241580774Y-70241977D01*
X241585497Y-70215581D01*
X241589700Y-70187239D01*
X241593422Y-70156271D01*
X241596704Y-70121994D01*
X241599584Y-70083728D01*
X241602103Y-70040790D01*
X241604300Y-69992500D01*
X241606215Y-69938175D01*
X241607888Y-69877134D01*
X241609358Y-69808696D01*
X241610666Y-69732179D01*
X241611850Y-69646902D01*
X241612950Y-69552183D01*
X241613008Y-69546830D01*
X241616404Y-69228721D01*
X241645012Y-69225905D01*
X241657689Y-69224830D01*
X241678847Y-69223235D01*
X241706827Y-69221236D01*
X241739968Y-69218950D01*
X241776613Y-69216493D01*
X241814622Y-69214011D01*
X241955623Y-69204934D01*
X241954322Y-68816376D01*
X241953020Y-68427818D01*
X241763260Y-68398664D01*
X241720560Y-68392038D01*
X241681056Y-68385778D01*
X241645864Y-68380073D01*
X241616103Y-68375108D01*
X241592892Y-68371072D01*
X241577347Y-68368150D01*
X241570588Y-68366531D01*
X241570414Y-68366427D01*
X241570124Y-68360986D01*
X241570225Y-68346167D01*
X241570693Y-68322744D01*
X241571504Y-68291490D01*
X241572633Y-68253179D01*
X241574058Y-68208584D01*
X241575753Y-68158479D01*
X241577694Y-68103637D01*
X241579858Y-68044832D01*
X241582221Y-67982838D01*
X241582973Y-67963521D01*
X241585405Y-67900740D01*
X241587675Y-67840935D01*
X241589757Y-67784878D01*
X241591624Y-67733339D01*
X241593250Y-67687089D01*
X241594608Y-67646900D01*
X241595672Y-67613543D01*
X241596415Y-67587788D01*
X241596810Y-67570407D01*
X241596833Y-67562170D01*
X241596761Y-67561596D01*
X241591555Y-67560773D01*
X241576898Y-67558951D01*
X241553440Y-67556201D01*
X241521829Y-67552591D01*
X241482712Y-67548192D01*
X241436740Y-67543074D01*
X241384559Y-67537305D01*
X241326819Y-67530956D01*
X241264167Y-67524097D01*
X241197253Y-67516796D01*
X241126725Y-67509125D01*
X241053231Y-67501152D01*
X240977419Y-67492948D01*
X240899939Y-67484581D01*
X240821438Y-67476123D01*
X240742566Y-67467641D01*
X240663970Y-67459207D01*
X240586298Y-67450890D01*
X240510201Y-67442760D01*
X240436325Y-67434886D01*
X240365319Y-67427337D01*
X240297832Y-67420185D01*
X240234512Y-67413498D01*
X240176007Y-67407347D01*
X240122967Y-67401800D01*
X240076039Y-67396928D01*
X240035873Y-67392800D01*
X240003115Y-67389487D01*
X239978416Y-67387057D01*
X239962422Y-67385580D01*
X239955784Y-67385127D01*
X239955635Y-67385152D01*
G36*
X218767755Y-67384384D02*
G01*
X218767109Y-67389554D01*
X218765664Y-67404123D01*
X218763484Y-67427365D01*
X218760633Y-67458555D01*
X218757176Y-67496970D01*
X218753177Y-67541884D01*
X218748702Y-67592573D01*
X218743814Y-67648311D01*
X218738579Y-67708374D01*
X218733060Y-67772037D01*
X218727856Y-67832377D01*
X218722133Y-67898687D01*
X218716630Y-67962059D01*
X218711412Y-68021768D01*
X218706544Y-68077089D01*
X218702091Y-68127296D01*
X218698117Y-68171663D01*
X218694689Y-68209467D01*
X218691869Y-68239981D01*
X218689724Y-68262481D01*
X218688319Y-68276241D01*
X218687737Y-68280556D01*
X218682517Y-68280492D01*
X218667981Y-68279755D01*
X218644947Y-68278399D01*
X218614234Y-68276478D01*
X218576660Y-68274044D01*
X218533044Y-68271152D01*
X218484203Y-68267855D01*
X218430957Y-68264206D01*
X218374122Y-68260259D01*
X218333288Y-68257392D01*
X218274433Y-68253281D01*
X218218582Y-68249451D01*
X218166557Y-68245956D01*
X218119178Y-68242846D01*
X218077265Y-68240174D01*
X218041640Y-68237990D01*
X218013122Y-68236347D01*
X217992533Y-68235297D01*
X217980693Y-68234891D01*
X217978055Y-68235012D01*
X217977422Y-68240428D01*
X217976519Y-68255121D01*
X217975373Y-68278218D01*
X217974016Y-68308846D01*
X217972475Y-68346133D01*
X217970780Y-68389206D01*
X217968961Y-68437194D01*
X217967047Y-68489222D01*
X217965066Y-68544420D01*
X217963049Y-68601914D01*
X217961025Y-68660832D01*
X217959023Y-68720302D01*
X217957072Y-68779450D01*
X217955201Y-68837405D01*
X217953441Y-68893293D01*
X217951819Y-68946244D01*
X217950366Y-68995383D01*
X217949111Y-69039838D01*
X217948083Y-69078738D01*
X217947311Y-69111208D01*
X217946825Y-69136378D01*
X217946653Y-69153374D01*
X217946826Y-69161325D01*
X217946935Y-69161806D01*
X217952382Y-69162416D01*
X217967204Y-69163261D01*
X217990621Y-69164315D01*
X218021853Y-69165550D01*
X218060117Y-69166940D01*
X218104634Y-69168456D01*
X218154622Y-69170072D01*
X218209301Y-69171760D01*
X218267890Y-69173494D01*
X218329608Y-69175245D01*
X218343140Y-69175619D01*
X218405380Y-69177353D01*
X218464625Y-69179040D01*
X218520099Y-69180658D01*
X218571023Y-69182180D01*
X218616622Y-69183584D01*
X218656118Y-69184844D01*
X218688735Y-69185936D01*
X218713696Y-69186836D01*
X218730224Y-69187519D01*
X218737541Y-69187961D01*
X218737838Y-69188023D01*
X218737887Y-69193305D01*
X218737198Y-69207337D01*
X218735862Y-69228741D01*
X218733968Y-69256140D01*
X218731608Y-69288159D01*
X218729421Y-69316450D01*
X218723634Y-69384218D01*
X218717582Y-69442732D01*
X218711047Y-69492900D01*
X218703813Y-69535629D01*
X218695661Y-69571825D01*
X218686373Y-69602396D01*
X218675732Y-69628248D01*
X218663520Y-69650288D01*
X218649519Y-69669423D01*
X218642840Y-69677043D01*
X218624310Y-69695020D01*
X218604647Y-69709189D01*
X218582337Y-69720015D01*
X218555866Y-69727958D01*
X218523721Y-69733484D01*
X218484389Y-69737053D01*
X218440196Y-69739019D01*
X218369846Y-69739712D01*
X218302553Y-69737252D01*
X218235764Y-69731362D01*
X218166925Y-69721766D01*
X218093484Y-69708188D01*
X218032136Y-69694832D01*
X218006843Y-69689196D01*
X217985289Y-69684718D01*
X217969300Y-69681752D01*
X217960700Y-69680653D01*
X217959759Y-69680788D01*
X217959112Y-69686151D01*
X217958076Y-69700767D01*
X217956691Y-69723734D01*
X217955000Y-69754156D01*
X217953043Y-69791132D01*
X217950862Y-69833763D01*
X217948499Y-69881150D01*
X217945995Y-69932395D01*
X217943392Y-69986597D01*
X217940731Y-70042859D01*
X217938053Y-70100280D01*
X217935400Y-70157962D01*
X217932814Y-70215005D01*
X217930336Y-70270511D01*
X217928007Y-70323581D01*
X217925869Y-70373314D01*
X217923964Y-70418813D01*
X217922332Y-70459177D01*
X217921016Y-70493509D01*
X217920056Y-70520909D01*
X217919495Y-70540477D01*
X217919374Y-70551315D01*
X217919514Y-70553236D01*
X217925351Y-70556511D01*
X217939585Y-70562207D01*
X217960864Y-70569887D01*
X217987835Y-70579120D01*
X218019143Y-70589469D01*
X218053436Y-70600502D01*
X218089360Y-70611784D01*
X218125562Y-70622880D01*
X218160690Y-70633357D01*
X218193389Y-70642781D01*
X218222306Y-70650716D01*
X218228054Y-70652227D01*
X218321189Y-70675035D01*
X218414558Y-70694927D01*
X218509910Y-70712176D01*
X218608990Y-70727052D01*
X218713546Y-70739828D01*
X218825323Y-70750776D01*
X218899980Y-70756838D01*
X218917542Y-70757800D01*
X218943886Y-70758753D01*
X218977753Y-70759683D01*
X219017882Y-70760577D01*
X219063015Y-70761422D01*
X219111892Y-70762204D01*
X219163253Y-70762909D01*
X219215838Y-70763525D01*
X219268389Y-70764037D01*
X219319645Y-70764432D01*
X219368347Y-70764697D01*
X219413235Y-70764818D01*
X219453050Y-70764782D01*
X219486532Y-70764575D01*
X219512422Y-70764185D01*
X219529460Y-70763596D01*
X219529900Y-70763571D01*
X219619184Y-70757531D01*
X219699377Y-70750454D01*
X219771513Y-70742182D01*
X219836623Y-70732559D01*
X219895738Y-70721428D01*
X219949892Y-70708632D01*
X220000115Y-70694015D01*
X220010495Y-70690621D01*
X220080104Y-70664138D01*
X220141969Y-70633424D01*
X220196477Y-70597940D01*
X220244018Y-70557145D01*
X220284980Y-70510500D01*
X220319750Y-70457463D01*
X220348718Y-70397495D01*
X220372272Y-70330057D01*
X220390800Y-70254606D01*
X220404691Y-70170604D01*
X220408792Y-70136720D01*
X220410581Y-70115504D01*
X220412370Y-70084533D01*
X220414149Y-70044211D01*
X220415908Y-69994941D01*
X220417637Y-69937129D01*
X220419326Y-69871179D01*
X220420966Y-69797495D01*
X220422546Y-69716482D01*
X220424057Y-69628543D01*
X220425489Y-69534084D01*
X220426831Y-69433508D01*
X220427697Y-69361125D01*
X220428214Y-69326074D01*
X220428905Y-69294444D01*
X220429722Y-69267635D01*
X220430614Y-69247046D01*
X220431534Y-69234078D01*
X220432270Y-69230117D01*
X220437912Y-69229044D01*
X220452477Y-69227441D01*
X220474749Y-69225410D01*
X220503511Y-69223053D01*
X220537544Y-69220471D01*
X220575633Y-69217765D01*
X220601163Y-69216042D01*
X220766943Y-69205081D01*
X220765642Y-68816211D01*
X220764340Y-68427340D01*
X220574623Y-68398469D01*
X220531948Y-68391918D01*
X220492487Y-68385749D01*
X220457356Y-68380147D01*
X220427669Y-68375293D01*
X220404542Y-68371370D01*
X220389090Y-68368561D01*
X220382427Y-68367049D01*
X220382265Y-68366957D01*
X220382048Y-68361588D01*
X220382223Y-68346839D01*
X220382767Y-68323484D01*
X220383654Y-68292294D01*
X220384858Y-68254043D01*
X220386354Y-68209502D01*
X220388116Y-68159445D01*
X220390119Y-68104642D01*
X220392337Y-68045868D01*
X220394746Y-67983894D01*
X220395514Y-67964493D01*
X220397975Y-67901695D01*
X220400251Y-67841860D01*
X220402318Y-67785760D01*
X220404150Y-67734169D01*
X220405722Y-67687857D01*
X220407009Y-67647599D01*
X220407986Y-67614167D01*
X220408626Y-67588333D01*
X220408905Y-67570870D01*
X220408798Y-67562550D01*
X220408685Y-67561950D01*
X220403456Y-67561135D01*
X220388779Y-67559313D01*
X220365305Y-67556556D01*
X220333679Y-67552934D01*
X220294552Y-67548516D01*
X220248571Y-67543374D01*
X220196385Y-67537576D01*
X220138641Y-67531194D01*
X220075989Y-67524297D01*
X220009076Y-67516955D01*
X219938551Y-67509240D01*
X219865062Y-67501220D01*
X219789258Y-67492966D01*
X219711786Y-67484548D01*
X219633295Y-67476037D01*
X219554434Y-67467502D01*
X219475851Y-67459014D01*
X219398194Y-67450643D01*
X219322111Y-67442458D01*
X219248250Y-67434531D01*
X219177261Y-67426931D01*
X219109791Y-67419728D01*
X219046488Y-67412993D01*
X218988002Y-67406795D01*
X218934980Y-67401206D01*
X218888070Y-67396294D01*
X218847921Y-67392131D01*
X218815182Y-67388785D01*
X218790500Y-67386329D01*
X218774523Y-67384831D01*
X218767901Y-67384362D01*
X218767755Y-67384384D01*
X218767755Y-67384384D01*
G37*
X218767755Y-67384384D02*
X218767109Y-67389554D01*
X218765664Y-67404123D01*
X218763484Y-67427365D01*
X218760633Y-67458555D01*
X218757176Y-67496970D01*
X218753177Y-67541884D01*
X218748702Y-67592573D01*
X218743814Y-67648311D01*
X218738579Y-67708374D01*
X218733060Y-67772037D01*
X218727856Y-67832377D01*
X218722133Y-67898687D01*
X218716630Y-67962059D01*
X218711412Y-68021768D01*
X218706544Y-68077089D01*
X218702091Y-68127296D01*
X218698117Y-68171663D01*
X218694689Y-68209467D01*
X218691869Y-68239981D01*
X218689724Y-68262481D01*
X218688319Y-68276241D01*
X218687737Y-68280556D01*
X218682517Y-68280492D01*
X218667981Y-68279755D01*
X218644947Y-68278399D01*
X218614234Y-68276478D01*
X218576660Y-68274044D01*
X218533044Y-68271152D01*
X218484203Y-68267855D01*
X218430957Y-68264206D01*
X218374122Y-68260259D01*
X218333288Y-68257392D01*
X218274433Y-68253281D01*
X218218582Y-68249451D01*
X218166557Y-68245956D01*
X218119178Y-68242846D01*
X218077265Y-68240174D01*
X218041640Y-68237990D01*
X218013122Y-68236347D01*
X217992533Y-68235297D01*
X217980693Y-68234891D01*
X217978055Y-68235012D01*
X217977422Y-68240428D01*
X217976519Y-68255121D01*
X217975373Y-68278218D01*
X217974016Y-68308846D01*
X217972475Y-68346133D01*
X217970780Y-68389206D01*
X217968961Y-68437194D01*
X217967047Y-68489222D01*
X217965066Y-68544420D01*
X217963049Y-68601914D01*
X217961025Y-68660832D01*
X217959023Y-68720302D01*
X217957072Y-68779450D01*
X217955201Y-68837405D01*
X217953441Y-68893293D01*
X217951819Y-68946244D01*
X217950366Y-68995383D01*
X217949111Y-69039838D01*
X217948083Y-69078738D01*
X217947311Y-69111208D01*
X217946825Y-69136378D01*
X217946653Y-69153374D01*
X217946826Y-69161325D01*
X217946935Y-69161806D01*
X217952382Y-69162416D01*
X217967204Y-69163261D01*
X217990621Y-69164315D01*
X218021853Y-69165550D01*
X218060117Y-69166940D01*
X218104634Y-69168456D01*
X218154622Y-69170072D01*
X218209301Y-69171760D01*
X218267890Y-69173494D01*
X218329608Y-69175245D01*
X218343140Y-69175619D01*
X218405380Y-69177353D01*
X218464625Y-69179040D01*
X218520099Y-69180658D01*
X218571023Y-69182180D01*
X218616622Y-69183584D01*
X218656118Y-69184844D01*
X218688735Y-69185936D01*
X218713696Y-69186836D01*
X218730224Y-69187519D01*
X218737541Y-69187961D01*
X218737838Y-69188023D01*
X218737887Y-69193305D01*
X218737198Y-69207337D01*
X218735862Y-69228741D01*
X218733968Y-69256140D01*
X218731608Y-69288159D01*
X218729421Y-69316450D01*
X218723634Y-69384218D01*
X218717582Y-69442732D01*
X218711047Y-69492900D01*
X218703813Y-69535629D01*
X218695661Y-69571825D01*
X218686373Y-69602396D01*
X218675732Y-69628248D01*
X218663520Y-69650288D01*
X218649519Y-69669423D01*
X218642840Y-69677043D01*
X218624310Y-69695020D01*
X218604647Y-69709189D01*
X218582337Y-69720015D01*
X218555866Y-69727958D01*
X218523721Y-69733484D01*
X218484389Y-69737053D01*
X218440196Y-69739019D01*
X218369846Y-69739712D01*
X218302553Y-69737252D01*
X218235764Y-69731362D01*
X218166925Y-69721766D01*
X218093484Y-69708188D01*
X218032136Y-69694832D01*
X218006843Y-69689196D01*
X217985289Y-69684718D01*
X217969300Y-69681752D01*
X217960700Y-69680653D01*
X217959759Y-69680788D01*
X217959112Y-69686151D01*
X217958076Y-69700767D01*
X217956691Y-69723734D01*
X217955000Y-69754156D01*
X217953043Y-69791132D01*
X217950862Y-69833763D01*
X217948499Y-69881150D01*
X217945995Y-69932395D01*
X217943392Y-69986597D01*
X217940731Y-70042859D01*
X217938053Y-70100280D01*
X217935400Y-70157962D01*
X217932814Y-70215005D01*
X217930336Y-70270511D01*
X217928007Y-70323581D01*
X217925869Y-70373314D01*
X217923964Y-70418813D01*
X217922332Y-70459177D01*
X217921016Y-70493509D01*
X217920056Y-70520909D01*
X217919495Y-70540477D01*
X217919374Y-70551315D01*
X217919514Y-70553236D01*
X217925351Y-70556511D01*
X217939585Y-70562207D01*
X217960864Y-70569887D01*
X217987835Y-70579120D01*
X218019143Y-70589469D01*
X218053436Y-70600502D01*
X218089360Y-70611784D01*
X218125562Y-70622880D01*
X218160690Y-70633357D01*
X218193389Y-70642781D01*
X218222306Y-70650716D01*
X218228054Y-70652227D01*
X218321189Y-70675035D01*
X218414558Y-70694927D01*
X218509910Y-70712176D01*
X218608990Y-70727052D01*
X218713546Y-70739828D01*
X218825323Y-70750776D01*
X218899980Y-70756838D01*
X218917542Y-70757800D01*
X218943886Y-70758753D01*
X218977753Y-70759683D01*
X219017882Y-70760577D01*
X219063015Y-70761422D01*
X219111892Y-70762204D01*
X219163253Y-70762909D01*
X219215838Y-70763525D01*
X219268389Y-70764037D01*
X219319645Y-70764432D01*
X219368347Y-70764697D01*
X219413235Y-70764818D01*
X219453050Y-70764782D01*
X219486532Y-70764575D01*
X219512422Y-70764185D01*
X219529460Y-70763596D01*
X219529900Y-70763571D01*
X219619184Y-70757531D01*
X219699377Y-70750454D01*
X219771513Y-70742182D01*
X219836623Y-70732559D01*
X219895738Y-70721428D01*
X219949892Y-70708632D01*
X220000115Y-70694015D01*
X220010495Y-70690621D01*
X220080104Y-70664138D01*
X220141969Y-70633424D01*
X220196477Y-70597940D01*
X220244018Y-70557145D01*
X220284980Y-70510500D01*
X220319750Y-70457463D01*
X220348718Y-70397495D01*
X220372272Y-70330057D01*
X220390800Y-70254606D01*
X220404691Y-70170604D01*
X220408792Y-70136720D01*
X220410581Y-70115504D01*
X220412370Y-70084533D01*
X220414149Y-70044211D01*
X220415908Y-69994941D01*
X220417637Y-69937129D01*
X220419326Y-69871179D01*
X220420966Y-69797495D01*
X220422546Y-69716482D01*
X220424057Y-69628543D01*
X220425489Y-69534084D01*
X220426831Y-69433508D01*
X220427697Y-69361125D01*
X220428214Y-69326074D01*
X220428905Y-69294444D01*
X220429722Y-69267635D01*
X220430614Y-69247046D01*
X220431534Y-69234078D01*
X220432270Y-69230117D01*
X220437912Y-69229044D01*
X220452477Y-69227441D01*
X220474749Y-69225410D01*
X220503511Y-69223053D01*
X220537544Y-69220471D01*
X220575633Y-69217765D01*
X220601163Y-69216042D01*
X220766943Y-69205081D01*
X220765642Y-68816211D01*
X220764340Y-68427340D01*
X220574623Y-68398469D01*
X220531948Y-68391918D01*
X220492487Y-68385749D01*
X220457356Y-68380147D01*
X220427669Y-68375293D01*
X220404542Y-68371370D01*
X220389090Y-68368561D01*
X220382427Y-68367049D01*
X220382265Y-68366957D01*
X220382048Y-68361588D01*
X220382223Y-68346839D01*
X220382767Y-68323484D01*
X220383654Y-68292294D01*
X220384858Y-68254043D01*
X220386354Y-68209502D01*
X220388116Y-68159445D01*
X220390119Y-68104642D01*
X220392337Y-68045868D01*
X220394746Y-67983894D01*
X220395514Y-67964493D01*
X220397975Y-67901695D01*
X220400251Y-67841860D01*
X220402318Y-67785760D01*
X220404150Y-67734169D01*
X220405722Y-67687857D01*
X220407009Y-67647599D01*
X220407986Y-67614167D01*
X220408626Y-67588333D01*
X220408905Y-67570870D01*
X220408798Y-67562550D01*
X220408685Y-67561950D01*
X220403456Y-67561135D01*
X220388779Y-67559313D01*
X220365305Y-67556556D01*
X220333679Y-67552934D01*
X220294552Y-67548516D01*
X220248571Y-67543374D01*
X220196385Y-67537576D01*
X220138641Y-67531194D01*
X220075989Y-67524297D01*
X220009076Y-67516955D01*
X219938551Y-67509240D01*
X219865062Y-67501220D01*
X219789258Y-67492966D01*
X219711786Y-67484548D01*
X219633295Y-67476037D01*
X219554434Y-67467502D01*
X219475851Y-67459014D01*
X219398194Y-67450643D01*
X219322111Y-67442458D01*
X219248250Y-67434531D01*
X219177261Y-67426931D01*
X219109791Y-67419728D01*
X219046488Y-67412993D01*
X218988002Y-67406795D01*
X218934980Y-67401206D01*
X218888070Y-67396294D01*
X218847921Y-67392131D01*
X218815182Y-67388785D01*
X218790500Y-67386329D01*
X218774523Y-67384831D01*
X218767901Y-67384362D01*
X218767755Y-67384384D01*
G36*
X226100473Y-68207307D02*
G01*
X226011729Y-68208265D01*
X225930548Y-68210132D01*
X225856072Y-68212973D01*
X225787446Y-68216852D01*
X225723811Y-68221834D01*
X225664311Y-68227984D01*
X225608088Y-68235365D01*
X225554285Y-68244043D01*
X225502045Y-68254082D01*
X225450511Y-68265546D01*
X225412540Y-68274929D01*
X225313722Y-68304371D01*
X225222728Y-68339887D01*
X225139729Y-68381406D01*
X225084709Y-68415180D01*
X225050519Y-68440503D01*
X225013549Y-68472136D01*
X224976075Y-68507797D01*
X224940375Y-68545208D01*
X224908726Y-68582089D01*
X224883406Y-68616159D01*
X224882313Y-68617800D01*
X224842080Y-68684651D01*
X224806519Y-68756834D01*
X224775532Y-68834806D01*
X224749022Y-68919024D01*
X224726892Y-69009947D01*
X224709042Y-69108032D01*
X224695376Y-69213737D01*
X224685797Y-69327519D01*
X224680205Y-69449837D01*
X224678499Y-69572926D01*
X224680100Y-69691096D01*
X224685023Y-69800096D01*
X224693400Y-69900399D01*
X224705361Y-69992482D01*
X224721037Y-70076818D01*
X224740560Y-70153884D01*
X224764058Y-70224153D01*
X224791665Y-70288101D01*
X224823510Y-70346203D01*
X224859725Y-70398934D01*
X224900440Y-70446768D01*
X224926449Y-70472720D01*
X224970794Y-70510824D01*
X225019677Y-70545772D01*
X225073531Y-70577673D01*
X225132788Y-70606634D01*
X225197881Y-70632762D01*
X225269242Y-70656166D01*
X225347305Y-70676953D01*
X225432501Y-70695231D01*
X225525264Y-70711108D01*
X225626026Y-70724692D01*
X225735219Y-70736090D01*
X225853276Y-70745410D01*
X225980629Y-70752760D01*
X226065320Y-70756408D01*
X226100034Y-70757481D01*
X226142692Y-70758397D01*
X226192023Y-70759157D01*
X226246755Y-70759761D01*
X226305618Y-70760211D01*
X226367340Y-70760506D01*
X226430650Y-70760646D01*
X226494278Y-70760634D01*
X226556951Y-70760469D01*
X226617399Y-70760152D01*
X226674350Y-70759684D01*
X226726534Y-70759065D01*
X226772679Y-70758296D01*
X226811514Y-70757377D01*
X226841768Y-70756310D01*
X226847640Y-70756030D01*
X226971800Y-70747982D01*
X227086589Y-70736872D01*
X227192371Y-70722548D01*
X227289511Y-70704857D01*
X227378372Y-70683647D01*
X227459318Y-70658765D01*
X227532713Y-70630059D01*
X227598922Y-70597376D01*
X227658308Y-70560565D01*
X227711234Y-70519472D01*
X227758066Y-70473946D01*
X227799167Y-70423833D01*
X227834900Y-70368982D01*
X227853359Y-70334840D01*
X227879034Y-70278017D01*
X227901234Y-70215990D01*
X227920123Y-70147979D01*
X227935866Y-70073205D01*
X227948628Y-69990889D01*
X227958575Y-69900250D01*
X227965623Y-69804785D01*
X227966954Y-69775040D01*
X227967975Y-69737358D01*
X227968698Y-69693137D01*
X227969135Y-69643778D01*
X227969297Y-69590678D01*
X227969195Y-69535237D01*
X227968843Y-69478860D01*
X226428435Y-69478860D01*
X226428370Y-69542974D01*
X226428073Y-69597852D01*
X226427480Y-69644412D01*
X226426531Y-69683578D01*
X226425163Y-69716269D01*
X226423312Y-69743406D01*
X226420918Y-69765911D01*
X226417917Y-69784705D01*
X226414248Y-69800709D01*
X226409847Y-69814843D01*
X226404833Y-69827610D01*
X226388896Y-69854390D01*
X226367957Y-69872359D01*
X226342242Y-69881415D01*
X226311979Y-69881456D01*
X226292875Y-69877434D01*
X226277095Y-69870710D01*
X226263195Y-69859492D01*
X226251075Y-69843257D01*
X226240641Y-69821479D01*
X226231795Y-69793635D01*
X226224440Y-69759200D01*
X226218480Y-69717651D01*
X226213819Y-69668462D01*
X226210359Y-69611109D01*
X226208003Y-69545069D01*
X226206656Y-69469817D01*
X226206250Y-69407740D01*
X226206230Y-69351585D01*
X226206549Y-69304500D01*
X226207301Y-69265398D01*
X226208579Y-69233191D01*
X226210478Y-69206792D01*
X226213090Y-69185114D01*
X226216511Y-69167069D01*
X226220834Y-69151571D01*
X226226152Y-69137531D01*
X226230368Y-69128300D01*
X226242556Y-69107920D01*
X226257151Y-69094432D01*
X226276310Y-69086685D01*
X226302187Y-69083525D01*
X226314537Y-69083288D01*
X226343838Y-69085274D01*
X226366976Y-69091939D01*
X226384972Y-69104342D01*
X226398847Y-69123543D01*
X226409620Y-69150601D01*
X226418314Y-69186576D01*
X226419372Y-69192106D01*
X226421516Y-69204723D01*
X226423297Y-69218233D01*
X226424749Y-69233671D01*
X226425904Y-69252076D01*
X226426795Y-69274485D01*
X226427455Y-69301934D01*
X226427916Y-69335461D01*
X226428211Y-69376103D01*
X226428374Y-69424897D01*
X226428435Y-69478860D01*
X227968843Y-69478860D01*
X227968842Y-69478854D01*
X227968250Y-69422929D01*
X227967428Y-69368860D01*
X227966390Y-69318046D01*
X227965146Y-69271887D01*
X227963709Y-69231782D01*
X227962089Y-69199130D01*
X227960422Y-69176600D01*
X227950388Y-69084067D01*
X227938628Y-69000526D01*
X227924894Y-68924912D01*
X227908936Y-68856165D01*
X227890506Y-68793222D01*
X227869356Y-68735022D01*
X227845235Y-68680502D01*
X227843146Y-68676220D01*
X227809737Y-68615686D01*
X227771257Y-68560193D01*
X227727320Y-68509559D01*
X227677534Y-68463599D01*
X227621512Y-68422130D01*
X227558865Y-68384969D01*
X227489202Y-68351932D01*
X227412136Y-68322835D01*
X227327276Y-68297495D01*
X227234235Y-68275730D01*
X227132622Y-68257354D01*
X227022049Y-68242185D01*
X226902127Y-68230039D01*
X226895900Y-68229510D01*
X226849134Y-68225703D01*
X226804678Y-68222400D01*
X226761282Y-68219557D01*
X226717698Y-68217127D01*
X226672676Y-68215064D01*
X226624966Y-68213323D01*
X226573318Y-68211858D01*
X226516483Y-68210624D01*
X226453212Y-68209574D01*
X226382254Y-68208663D01*
X226304080Y-68207862D01*
X226197638Y-68207194D01*
X226100473Y-68207307D01*
X226100473Y-68207307D01*
G37*
X226100473Y-68207307D02*
X226011729Y-68208265D01*
X225930548Y-68210132D01*
X225856072Y-68212973D01*
X225787446Y-68216852D01*
X225723811Y-68221834D01*
X225664311Y-68227984D01*
X225608088Y-68235365D01*
X225554285Y-68244043D01*
X225502045Y-68254082D01*
X225450511Y-68265546D01*
X225412540Y-68274929D01*
X225313722Y-68304371D01*
X225222728Y-68339887D01*
X225139729Y-68381406D01*
X225084709Y-68415180D01*
X225050519Y-68440503D01*
X225013549Y-68472136D01*
X224976075Y-68507797D01*
X224940375Y-68545208D01*
X224908726Y-68582089D01*
X224883406Y-68616159D01*
X224882313Y-68617800D01*
X224842080Y-68684651D01*
X224806519Y-68756834D01*
X224775532Y-68834806D01*
X224749022Y-68919024D01*
X224726892Y-69009947D01*
X224709042Y-69108032D01*
X224695376Y-69213737D01*
X224685797Y-69327519D01*
X224680205Y-69449837D01*
X224678499Y-69572926D01*
X224680100Y-69691096D01*
X224685023Y-69800096D01*
X224693400Y-69900399D01*
X224705361Y-69992482D01*
X224721037Y-70076818D01*
X224740560Y-70153884D01*
X224764058Y-70224153D01*
X224791665Y-70288101D01*
X224823510Y-70346203D01*
X224859725Y-70398934D01*
X224900440Y-70446768D01*
X224926449Y-70472720D01*
X224970794Y-70510824D01*
X225019677Y-70545772D01*
X225073531Y-70577673D01*
X225132788Y-70606634D01*
X225197881Y-70632762D01*
X225269242Y-70656166D01*
X225347305Y-70676953D01*
X225432501Y-70695231D01*
X225525264Y-70711108D01*
X225626026Y-70724692D01*
X225735219Y-70736090D01*
X225853276Y-70745410D01*
X225980629Y-70752760D01*
X226065320Y-70756408D01*
X226100034Y-70757481D01*
X226142692Y-70758397D01*
X226192023Y-70759157D01*
X226246755Y-70759761D01*
X226305618Y-70760211D01*
X226367340Y-70760506D01*
X226430650Y-70760646D01*
X226494278Y-70760634D01*
X226556951Y-70760469D01*
X226617399Y-70760152D01*
X226674350Y-70759684D01*
X226726534Y-70759065D01*
X226772679Y-70758296D01*
X226811514Y-70757377D01*
X226841768Y-70756310D01*
X226847640Y-70756030D01*
X226971800Y-70747982D01*
X227086589Y-70736872D01*
X227192371Y-70722548D01*
X227289511Y-70704857D01*
X227378372Y-70683647D01*
X227459318Y-70658765D01*
X227532713Y-70630059D01*
X227598922Y-70597376D01*
X227658308Y-70560565D01*
X227711234Y-70519472D01*
X227758066Y-70473946D01*
X227799167Y-70423833D01*
X227834900Y-70368982D01*
X227853359Y-70334840D01*
X227879034Y-70278017D01*
X227901234Y-70215990D01*
X227920123Y-70147979D01*
X227935866Y-70073205D01*
X227948628Y-69990889D01*
X227958575Y-69900250D01*
X227965623Y-69804785D01*
X227966954Y-69775040D01*
X227967975Y-69737358D01*
X227968698Y-69693137D01*
X227969135Y-69643778D01*
X227969297Y-69590678D01*
X227969195Y-69535237D01*
X227968843Y-69478860D01*
X226428435Y-69478860D01*
X226428370Y-69542974D01*
X226428073Y-69597852D01*
X226427480Y-69644412D01*
X226426531Y-69683578D01*
X226425163Y-69716269D01*
X226423312Y-69743406D01*
X226420918Y-69765911D01*
X226417917Y-69784705D01*
X226414248Y-69800709D01*
X226409847Y-69814843D01*
X226404833Y-69827610D01*
X226388896Y-69854390D01*
X226367957Y-69872359D01*
X226342242Y-69881415D01*
X226311979Y-69881456D01*
X226292875Y-69877434D01*
X226277095Y-69870710D01*
X226263195Y-69859492D01*
X226251075Y-69843257D01*
X226240641Y-69821479D01*
X226231795Y-69793635D01*
X226224440Y-69759200D01*
X226218480Y-69717651D01*
X226213819Y-69668462D01*
X226210359Y-69611109D01*
X226208003Y-69545069D01*
X226206656Y-69469817D01*
X226206250Y-69407740D01*
X226206230Y-69351585D01*
X226206549Y-69304500D01*
X226207301Y-69265398D01*
X226208579Y-69233191D01*
X226210478Y-69206792D01*
X226213090Y-69185114D01*
X226216511Y-69167069D01*
X226220834Y-69151571D01*
X226226152Y-69137531D01*
X226230368Y-69128300D01*
X226242556Y-69107920D01*
X226257151Y-69094432D01*
X226276310Y-69086685D01*
X226302187Y-69083525D01*
X226314537Y-69083288D01*
X226343838Y-69085274D01*
X226366976Y-69091939D01*
X226384972Y-69104342D01*
X226398847Y-69123543D01*
X226409620Y-69150601D01*
X226418314Y-69186576D01*
X226419372Y-69192106D01*
X226421516Y-69204723D01*
X226423297Y-69218233D01*
X226424749Y-69233671D01*
X226425904Y-69252076D01*
X226426795Y-69274485D01*
X226427455Y-69301934D01*
X226427916Y-69335461D01*
X226428211Y-69376103D01*
X226428374Y-69424897D01*
X226428435Y-69478860D01*
X227968843Y-69478860D01*
X227968842Y-69478854D01*
X227968250Y-69422929D01*
X227967428Y-69368860D01*
X227966390Y-69318046D01*
X227965146Y-69271887D01*
X227963709Y-69231782D01*
X227962089Y-69199130D01*
X227960422Y-69176600D01*
X227950388Y-69084067D01*
X227938628Y-69000526D01*
X227924894Y-68924912D01*
X227908936Y-68856165D01*
X227890506Y-68793222D01*
X227869356Y-68735022D01*
X227845235Y-68680502D01*
X227843146Y-68676220D01*
X227809737Y-68615686D01*
X227771257Y-68560193D01*
X227727320Y-68509559D01*
X227677534Y-68463599D01*
X227621512Y-68422130D01*
X227558865Y-68384969D01*
X227489202Y-68351932D01*
X227412136Y-68322835D01*
X227327276Y-68297495D01*
X227234235Y-68275730D01*
X227132622Y-68257354D01*
X227022049Y-68242185D01*
X226902127Y-68230039D01*
X226895900Y-68229510D01*
X226849134Y-68225703D01*
X226804678Y-68222400D01*
X226761282Y-68219557D01*
X226717698Y-68217127D01*
X226672676Y-68215064D01*
X226624966Y-68213323D01*
X226573318Y-68211858D01*
X226516483Y-68210624D01*
X226453212Y-68209574D01*
X226382254Y-68208663D01*
X226304080Y-68207862D01*
X226197638Y-68207194D01*
X226100473Y-68207307D01*
G36*
X222481455Y-68207362D02*
G01*
X222425675Y-68207677D01*
X222375369Y-68208212D01*
X222331790Y-68208977D01*
X222296187Y-68209978D01*
X222275640Y-68210880D01*
X222157411Y-68219069D01*
X222048284Y-68230351D01*
X221947633Y-68244886D01*
X221854835Y-68262833D01*
X221769264Y-68284351D01*
X221690294Y-68309600D01*
X221617302Y-68338738D01*
X221549663Y-68371924D01*
X221486750Y-68409318D01*
X221480681Y-68413303D01*
X221442015Y-68441743D01*
X221401264Y-68476662D01*
X221360822Y-68515668D01*
X221323084Y-68556367D01*
X221290445Y-68596364D01*
X221273216Y-68620675D01*
X221233059Y-68687828D01*
X221197672Y-68760414D01*
X221166869Y-68839068D01*
X221140463Y-68924426D01*
X221118267Y-69017122D01*
X221100095Y-69117793D01*
X221085761Y-69227073D01*
X221080843Y-69275660D01*
X221079073Y-69300730D01*
X221077575Y-69334081D01*
X221076348Y-69374302D01*
X221075391Y-69419981D01*
X221074706Y-69469705D01*
X221074292Y-69522064D01*
X221074149Y-69575647D01*
X221074277Y-69629041D01*
X221074676Y-69680835D01*
X221075346Y-69729617D01*
X221076287Y-69773976D01*
X221077498Y-69812501D01*
X221078981Y-69843779D01*
X221080734Y-69866400D01*
X221080851Y-69867480D01*
X221093083Y-69962265D01*
X221107824Y-70047855D01*
X221125258Y-70124943D01*
X221145569Y-70194223D01*
X221168938Y-70256391D01*
X221195551Y-70312139D01*
X221200813Y-70321749D01*
X221238021Y-70379597D01*
X221282999Y-70434997D01*
X221333562Y-70485591D01*
X221387525Y-70529020D01*
X221401880Y-70538871D01*
X221453418Y-70570242D01*
X221509196Y-70598825D01*
X221569726Y-70624728D01*
X221635518Y-70648055D01*
X221707083Y-70668910D01*
X221784931Y-70687400D01*
X221869573Y-70703629D01*
X221961520Y-70717703D01*
X222061282Y-70729726D01*
X222169370Y-70739803D01*
X222286294Y-70748041D01*
X222412565Y-70754543D01*
X222458520Y-70756408D01*
X222493711Y-70757497D01*
X222536831Y-70758423D01*
X222586606Y-70759189D01*
X222641761Y-70759794D01*
X222701020Y-70760240D01*
X222763110Y-70760527D01*
X222826753Y-70760656D01*
X222890675Y-70760628D01*
X222953602Y-70760445D01*
X223014257Y-70760105D01*
X223071366Y-70759612D01*
X223123653Y-70758965D01*
X223169844Y-70758165D01*
X223208663Y-70757213D01*
X223238834Y-70756110D01*
X223243380Y-70755888D01*
X223367682Y-70747767D01*
X223482623Y-70736523D01*
X223588557Y-70722008D01*
X223685841Y-70704071D01*
X223774828Y-70682564D01*
X223855872Y-70657339D01*
X223929328Y-70628245D01*
X223995552Y-70595134D01*
X224054896Y-70557857D01*
X224107717Y-70516264D01*
X224154368Y-70470207D01*
X224195204Y-70419537D01*
X224230580Y-70364104D01*
X224246529Y-70334160D01*
X224271125Y-70279493D01*
X224292512Y-70219859D01*
X224310850Y-70154477D01*
X224326299Y-70082562D01*
X224339020Y-70003333D01*
X224349174Y-69916005D01*
X224356922Y-69819796D01*
X224358964Y-69786200D01*
X224360564Y-69749230D01*
X224361706Y-69704487D01*
X224362408Y-69653542D01*
X224362692Y-69597965D01*
X224362575Y-69539326D01*
X224362380Y-69515659D01*
X222822042Y-69515659D01*
X222821824Y-69564909D01*
X222821293Y-69611684D01*
X222820444Y-69654580D01*
X222819274Y-69692195D01*
X222817776Y-69723124D01*
X222815945Y-69745963D01*
X222815136Y-69752399D01*
X222807781Y-69791321D01*
X222798295Y-69823643D01*
X222787113Y-69848128D01*
X222776633Y-69861825D01*
X222755045Y-69875421D01*
X222728209Y-69881674D01*
X222698267Y-69880213D01*
X222686268Y-69877488D01*
X222669924Y-69870688D01*
X222655760Y-69859560D01*
X222643595Y-69843430D01*
X222633245Y-69821626D01*
X222624528Y-69793475D01*
X222617262Y-69758306D01*
X222611264Y-69715444D01*
X222606352Y-69664218D01*
X222602343Y-69603954D01*
X222600158Y-69560140D01*
X222598452Y-69512815D01*
X222597394Y-69463045D01*
X222596961Y-69412421D01*
X222597128Y-69362537D01*
X222597872Y-69314987D01*
X222599168Y-69271364D01*
X222600993Y-69233261D01*
X222603322Y-69202272D01*
X222605847Y-69181680D01*
X222613946Y-69146063D01*
X222625666Y-69119356D01*
X222641919Y-69100674D01*
X222663615Y-69089136D01*
X222691666Y-69083857D01*
X222707398Y-69083288D01*
X222736377Y-69085311D01*
X222759438Y-69092053D01*
X222777485Y-69104520D01*
X222791423Y-69123719D01*
X222802157Y-69150656D01*
X222810592Y-69186339D01*
X222813151Y-69200978D01*
X222815250Y-69219502D01*
X222817076Y-69246779D01*
X222818626Y-69281406D01*
X222819893Y-69321979D01*
X222820874Y-69367094D01*
X222821562Y-69415348D01*
X222821953Y-69465337D01*
X222822042Y-69515659D01*
X224362380Y-69515659D01*
X224362079Y-69479196D01*
X224361223Y-69419145D01*
X224360026Y-69360744D01*
X224358508Y-69305564D01*
X224356688Y-69255175D01*
X224354587Y-69211147D01*
X224352224Y-69175051D01*
X224351166Y-69162718D01*
X224339708Y-69060253D01*
X224325351Y-68966937D01*
X224307857Y-68882111D01*
X224286989Y-68805117D01*
X224262507Y-68735299D01*
X224234176Y-68671999D01*
X224201756Y-68614559D01*
X224165011Y-68562321D01*
X224123702Y-68514629D01*
X224112731Y-68503436D01*
X224070143Y-68464495D01*
X224023673Y-68428899D01*
X223972815Y-68396503D01*
X223917059Y-68367164D01*
X223855897Y-68340737D01*
X223788820Y-68317078D01*
X223715319Y-68296043D01*
X223634886Y-68277489D01*
X223547012Y-68261271D01*
X223451189Y-68247245D01*
X223346908Y-68235266D01*
X223233660Y-68225192D01*
X223110936Y-68216877D01*
X223098600Y-68216164D01*
X223065160Y-68214582D01*
X223023433Y-68213132D01*
X222974673Y-68211822D01*
X222920128Y-68210661D01*
X222861051Y-68209656D01*
X222798692Y-68208816D01*
X222734303Y-68208148D01*
X222669133Y-68207660D01*
X222604435Y-68207361D01*
X222541458Y-68207259D01*
X222481455Y-68207362D01*
X222481455Y-68207362D01*
G37*
X222481455Y-68207362D02*
X222425675Y-68207677D01*
X222375369Y-68208212D01*
X222331790Y-68208977D01*
X222296187Y-68209978D01*
X222275640Y-68210880D01*
X222157411Y-68219069D01*
X222048284Y-68230351D01*
X221947633Y-68244886D01*
X221854835Y-68262833D01*
X221769264Y-68284351D01*
X221690294Y-68309600D01*
X221617302Y-68338738D01*
X221549663Y-68371924D01*
X221486750Y-68409318D01*
X221480681Y-68413303D01*
X221442015Y-68441743D01*
X221401264Y-68476662D01*
X221360822Y-68515668D01*
X221323084Y-68556367D01*
X221290445Y-68596364D01*
X221273216Y-68620675D01*
X221233059Y-68687828D01*
X221197672Y-68760414D01*
X221166869Y-68839068D01*
X221140463Y-68924426D01*
X221118267Y-69017122D01*
X221100095Y-69117793D01*
X221085761Y-69227073D01*
X221080843Y-69275660D01*
X221079073Y-69300730D01*
X221077575Y-69334081D01*
X221076348Y-69374302D01*
X221075391Y-69419981D01*
X221074706Y-69469705D01*
X221074292Y-69522064D01*
X221074149Y-69575647D01*
X221074277Y-69629041D01*
X221074676Y-69680835D01*
X221075346Y-69729617D01*
X221076287Y-69773976D01*
X221077498Y-69812501D01*
X221078981Y-69843779D01*
X221080734Y-69866400D01*
X221080851Y-69867480D01*
X221093083Y-69962265D01*
X221107824Y-70047855D01*
X221125258Y-70124943D01*
X221145569Y-70194223D01*
X221168938Y-70256391D01*
X221195551Y-70312139D01*
X221200813Y-70321749D01*
X221238021Y-70379597D01*
X221282999Y-70434997D01*
X221333562Y-70485591D01*
X221387525Y-70529020D01*
X221401880Y-70538871D01*
X221453418Y-70570242D01*
X221509196Y-70598825D01*
X221569726Y-70624728D01*
X221635518Y-70648055D01*
X221707083Y-70668910D01*
X221784931Y-70687400D01*
X221869573Y-70703629D01*
X221961520Y-70717703D01*
X222061282Y-70729726D01*
X222169370Y-70739803D01*
X222286294Y-70748041D01*
X222412565Y-70754543D01*
X222458520Y-70756408D01*
X222493711Y-70757497D01*
X222536831Y-70758423D01*
X222586606Y-70759189D01*
X222641761Y-70759794D01*
X222701020Y-70760240D01*
X222763110Y-70760527D01*
X222826753Y-70760656D01*
X222890675Y-70760628D01*
X222953602Y-70760445D01*
X223014257Y-70760105D01*
X223071366Y-70759612D01*
X223123653Y-70758965D01*
X223169844Y-70758165D01*
X223208663Y-70757213D01*
X223238834Y-70756110D01*
X223243380Y-70755888D01*
X223367682Y-70747767D01*
X223482623Y-70736523D01*
X223588557Y-70722008D01*
X223685841Y-70704071D01*
X223774828Y-70682564D01*
X223855872Y-70657339D01*
X223929328Y-70628245D01*
X223995552Y-70595134D01*
X224054896Y-70557857D01*
X224107717Y-70516264D01*
X224154368Y-70470207D01*
X224195204Y-70419537D01*
X224230580Y-70364104D01*
X224246529Y-70334160D01*
X224271125Y-70279493D01*
X224292512Y-70219859D01*
X224310850Y-70154477D01*
X224326299Y-70082562D01*
X224339020Y-70003333D01*
X224349174Y-69916005D01*
X224356922Y-69819796D01*
X224358964Y-69786200D01*
X224360564Y-69749230D01*
X224361706Y-69704487D01*
X224362408Y-69653542D01*
X224362692Y-69597965D01*
X224362575Y-69539326D01*
X224362380Y-69515659D01*
X222822042Y-69515659D01*
X222821824Y-69564909D01*
X222821293Y-69611684D01*
X222820444Y-69654580D01*
X222819274Y-69692195D01*
X222817776Y-69723124D01*
X222815945Y-69745963D01*
X222815136Y-69752399D01*
X222807781Y-69791321D01*
X222798295Y-69823643D01*
X222787113Y-69848128D01*
X222776633Y-69861825D01*
X222755045Y-69875421D01*
X222728209Y-69881674D01*
X222698267Y-69880213D01*
X222686268Y-69877488D01*
X222669924Y-69870688D01*
X222655760Y-69859560D01*
X222643595Y-69843430D01*
X222633245Y-69821626D01*
X222624528Y-69793475D01*
X222617262Y-69758306D01*
X222611264Y-69715444D01*
X222606352Y-69664218D01*
X222602343Y-69603954D01*
X222600158Y-69560140D01*
X222598452Y-69512815D01*
X222597394Y-69463045D01*
X222596961Y-69412421D01*
X222597128Y-69362537D01*
X222597872Y-69314987D01*
X222599168Y-69271364D01*
X222600993Y-69233261D01*
X222603322Y-69202272D01*
X222605847Y-69181680D01*
X222613946Y-69146063D01*
X222625666Y-69119356D01*
X222641919Y-69100674D01*
X222663615Y-69089136D01*
X222691666Y-69083857D01*
X222707398Y-69083288D01*
X222736377Y-69085311D01*
X222759438Y-69092053D01*
X222777485Y-69104520D01*
X222791423Y-69123719D01*
X222802157Y-69150656D01*
X222810592Y-69186339D01*
X222813151Y-69200978D01*
X222815250Y-69219502D01*
X222817076Y-69246779D01*
X222818626Y-69281406D01*
X222819893Y-69321979D01*
X222820874Y-69367094D01*
X222821562Y-69415348D01*
X222821953Y-69465337D01*
X222822042Y-69515659D01*
X224362380Y-69515659D01*
X224362079Y-69479196D01*
X224361223Y-69419145D01*
X224360026Y-69360744D01*
X224358508Y-69305564D01*
X224356688Y-69255175D01*
X224354587Y-69211147D01*
X224352224Y-69175051D01*
X224351166Y-69162718D01*
X224339708Y-69060253D01*
X224325351Y-68966937D01*
X224307857Y-68882111D01*
X224286989Y-68805117D01*
X224262507Y-68735299D01*
X224234176Y-68671999D01*
X224201756Y-68614559D01*
X224165011Y-68562321D01*
X224123702Y-68514629D01*
X224112731Y-68503436D01*
X224070143Y-68464495D01*
X224023673Y-68428899D01*
X223972815Y-68396503D01*
X223917059Y-68367164D01*
X223855897Y-68340737D01*
X223788820Y-68317078D01*
X223715319Y-68296043D01*
X223634886Y-68277489D01*
X223547012Y-68261271D01*
X223451189Y-68247245D01*
X223346908Y-68235266D01*
X223233660Y-68225192D01*
X223110936Y-68216877D01*
X223098600Y-68216164D01*
X223065160Y-68214582D01*
X223023433Y-68213132D01*
X222974673Y-68211822D01*
X222920128Y-68210661D01*
X222861051Y-68209656D01*
X222798692Y-68208816D01*
X222734303Y-68208148D01*
X222669133Y-68207660D01*
X222604435Y-68207361D01*
X222541458Y-68207259D01*
X222481455Y-68207362D01*
G36*
X248816156Y-67389231D02*
G01*
X248815870Y-67394439D01*
X248815437Y-67409324D01*
X248814865Y-67433402D01*
X248814163Y-67466190D01*
X248813340Y-67507205D01*
X248812404Y-67555966D01*
X248811363Y-67611989D01*
X248810228Y-67674791D01*
X248809005Y-67743889D01*
X248807703Y-67818801D01*
X248806332Y-67899044D01*
X248804900Y-67984135D01*
X248803415Y-68073591D01*
X248801885Y-68166930D01*
X248800321Y-68263669D01*
X248798729Y-68363324D01*
X248798076Y-68404607D01*
X248796483Y-68505284D01*
X248794926Y-68603225D01*
X248793412Y-68697949D01*
X248791951Y-68788973D01*
X248790549Y-68875817D01*
X248789215Y-68957998D01*
X248787957Y-69035036D01*
X248786782Y-69106447D01*
X248785700Y-69171750D01*
X248784716Y-69230464D01*
X248783841Y-69282107D01*
X248783080Y-69326198D01*
X248782444Y-69362254D01*
X248781939Y-69389793D01*
X248781573Y-69408336D01*
X248781355Y-69417398D01*
X248781310Y-69418262D01*
X248776240Y-69418065D01*
X248761644Y-69417402D01*
X248738145Y-69416301D01*
X248706366Y-69414793D01*
X248666928Y-69412907D01*
X248620453Y-69410675D01*
X248567565Y-69408125D01*
X248508886Y-69405288D01*
X248445037Y-69402194D01*
X248376641Y-69398872D01*
X248304321Y-69395353D01*
X248228699Y-69391667D01*
X248173961Y-69388995D01*
X248096379Y-69385217D01*
X248021653Y-69381602D01*
X247950406Y-69378178D01*
X247883261Y-69374975D01*
X247820842Y-69372021D01*
X247763772Y-69369345D01*
X247712674Y-69366976D01*
X247668170Y-69364944D01*
X247630885Y-69363276D01*
X247601441Y-69362003D01*
X247580462Y-69361153D01*
X247568571Y-69360754D01*
X247565987Y-69360759D01*
X247566337Y-69365846D01*
X247567642Y-69380332D01*
X247569829Y-69403508D01*
X247572828Y-69434667D01*
X247576568Y-69473098D01*
X247580978Y-69518094D01*
X247585987Y-69568946D01*
X247591524Y-69624945D01*
X247597517Y-69685383D01*
X247603896Y-69749549D01*
X247610589Y-69816737D01*
X247617526Y-69886237D01*
X247624636Y-69957340D01*
X247631847Y-70029338D01*
X247639089Y-70101521D01*
X247646289Y-70173182D01*
X247653378Y-70243611D01*
X247660285Y-70312100D01*
X247666937Y-70377940D01*
X247673265Y-70440422D01*
X247679197Y-70498838D01*
X247684662Y-70552478D01*
X247689589Y-70600634D01*
X247693907Y-70642598D01*
X247697545Y-70677660D01*
X247700432Y-70705112D01*
X247702496Y-70724245D01*
X247703667Y-70734351D01*
X247703740Y-70734890D01*
X247706885Y-70748242D01*
X247711178Y-70755342D01*
X247712782Y-70755817D01*
X247718296Y-70755661D01*
X247733568Y-70755308D01*
X247758198Y-70754768D01*
X247791786Y-70754048D01*
X247833931Y-70753156D01*
X247884234Y-70752100D01*
X247942294Y-70750890D01*
X248007712Y-70749532D01*
X248080087Y-70748036D01*
X248159019Y-70746409D01*
X248244108Y-70744660D01*
X248334954Y-70742797D01*
X248431158Y-70740829D01*
X248532318Y-70738763D01*
X248638034Y-70736607D01*
X248747908Y-70734371D01*
X248861538Y-70732061D01*
X248978525Y-70729687D01*
X249098468Y-70727257D01*
X249201930Y-70725164D01*
X249323995Y-70722692D01*
X249443408Y-70720266D01*
X249559772Y-70717896D01*
X249672688Y-70715588D01*
X249781759Y-70713352D01*
X249886586Y-70711196D01*
X249986771Y-70709128D01*
X250081916Y-70707157D01*
X250171622Y-70705290D01*
X250255492Y-70703537D01*
X250333127Y-70701905D01*
X250404130Y-70700403D01*
X250468102Y-70699039D01*
X250524644Y-70697822D01*
X250573360Y-70696760D01*
X250613850Y-70695861D01*
X250645716Y-70695134D01*
X250668561Y-70694587D01*
X250681986Y-70694228D01*
X250685693Y-70694077D01*
X250685787Y-70688862D01*
X250685815Y-70673954D01*
X250685780Y-70649818D01*
X250685684Y-70616914D01*
X250685532Y-70575708D01*
X250685326Y-70526662D01*
X250685068Y-70470239D01*
X250684761Y-70406903D01*
X250684409Y-70337117D01*
X250684013Y-70261344D01*
X250683578Y-70180047D01*
X250683106Y-70093689D01*
X250682599Y-70002735D01*
X250682061Y-69907646D01*
X250681495Y-69808887D01*
X250680903Y-69706920D01*
X250680288Y-69602209D01*
X250679653Y-69495217D01*
X250679000Y-69386407D01*
X250678334Y-69276243D01*
X250677656Y-69165187D01*
X250676970Y-69053703D01*
X250676278Y-68942254D01*
X250675584Y-68831304D01*
X250674889Y-68721315D01*
X250674197Y-68612751D01*
X250673511Y-68506074D01*
X250672834Y-68401749D01*
X250672168Y-68300239D01*
X250671517Y-68202006D01*
X250670883Y-68107515D01*
X250670269Y-68017227D01*
X250669678Y-67931607D01*
X250669113Y-67851118D01*
X250668576Y-67776222D01*
X250668071Y-67707384D01*
X250667601Y-67645066D01*
X250667167Y-67589731D01*
X250666774Y-67541844D01*
X250666424Y-67501866D01*
X250666120Y-67470262D01*
X250665864Y-67447494D01*
X250665660Y-67434026D01*
X250665529Y-67430234D01*
X250660291Y-67429870D01*
X250645513Y-67429309D01*
X250621810Y-67428566D01*
X250589799Y-67427654D01*
X250550095Y-67426587D01*
X250503315Y-67425379D01*
X250450074Y-67424044D01*
X250390989Y-67422594D01*
X250326675Y-67421044D01*
X250257749Y-67419407D01*
X250184826Y-67417697D01*
X250108522Y-67415927D01*
X250029454Y-67414112D01*
X249948237Y-67412265D01*
X249865488Y-67410400D01*
X249781822Y-67408529D01*
X249697855Y-67406668D01*
X249614204Y-67404829D01*
X249531484Y-67403026D01*
X249450312Y-67401273D01*
X249371303Y-67399584D01*
X249295073Y-67397971D01*
X249222238Y-67396450D01*
X249153415Y-67395033D01*
X249089219Y-67393734D01*
X249030266Y-67392568D01*
X248977173Y-67391546D01*
X248930555Y-67390684D01*
X248891028Y-67389994D01*
X248859208Y-67389491D01*
X248835712Y-67389188D01*
X248821155Y-67389099D01*
X248816156Y-67389231D01*
X248816156Y-67389231D01*
G37*
X248816156Y-67389231D02*
X248815870Y-67394439D01*
X248815437Y-67409324D01*
X248814865Y-67433402D01*
X248814163Y-67466190D01*
X248813340Y-67507205D01*
X248812404Y-67555966D01*
X248811363Y-67611989D01*
X248810228Y-67674791D01*
X248809005Y-67743889D01*
X248807703Y-67818801D01*
X248806332Y-67899044D01*
X248804900Y-67984135D01*
X248803415Y-68073591D01*
X248801885Y-68166930D01*
X248800321Y-68263669D01*
X248798729Y-68363324D01*
X248798076Y-68404607D01*
X248796483Y-68505284D01*
X248794926Y-68603225D01*
X248793412Y-68697949D01*
X248791951Y-68788973D01*
X248790549Y-68875817D01*
X248789215Y-68957998D01*
X248787957Y-69035036D01*
X248786782Y-69106447D01*
X248785700Y-69171750D01*
X248784716Y-69230464D01*
X248783841Y-69282107D01*
X248783080Y-69326198D01*
X248782444Y-69362254D01*
X248781939Y-69389793D01*
X248781573Y-69408336D01*
X248781355Y-69417398D01*
X248781310Y-69418262D01*
X248776240Y-69418065D01*
X248761644Y-69417402D01*
X248738145Y-69416301D01*
X248706366Y-69414793D01*
X248666928Y-69412907D01*
X248620453Y-69410675D01*
X248567565Y-69408125D01*
X248508886Y-69405288D01*
X248445037Y-69402194D01*
X248376641Y-69398872D01*
X248304321Y-69395353D01*
X248228699Y-69391667D01*
X248173961Y-69388995D01*
X248096379Y-69385217D01*
X248021653Y-69381602D01*
X247950406Y-69378178D01*
X247883261Y-69374975D01*
X247820842Y-69372021D01*
X247763772Y-69369345D01*
X247712674Y-69366976D01*
X247668170Y-69364944D01*
X247630885Y-69363276D01*
X247601441Y-69362003D01*
X247580462Y-69361153D01*
X247568571Y-69360754D01*
X247565987Y-69360759D01*
X247566337Y-69365846D01*
X247567642Y-69380332D01*
X247569829Y-69403508D01*
X247572828Y-69434667D01*
X247576568Y-69473098D01*
X247580978Y-69518094D01*
X247585987Y-69568946D01*
X247591524Y-69624945D01*
X247597517Y-69685383D01*
X247603896Y-69749549D01*
X247610589Y-69816737D01*
X247617526Y-69886237D01*
X247624636Y-69957340D01*
X247631847Y-70029338D01*
X247639089Y-70101521D01*
X247646289Y-70173182D01*
X247653378Y-70243611D01*
X247660285Y-70312100D01*
X247666937Y-70377940D01*
X247673265Y-70440422D01*
X247679197Y-70498838D01*
X247684662Y-70552478D01*
X247689589Y-70600634D01*
X247693907Y-70642598D01*
X247697545Y-70677660D01*
X247700432Y-70705112D01*
X247702496Y-70724245D01*
X247703667Y-70734351D01*
X247703740Y-70734890D01*
X247706885Y-70748242D01*
X247711178Y-70755342D01*
X247712782Y-70755817D01*
X247718296Y-70755661D01*
X247733568Y-70755308D01*
X247758198Y-70754768D01*
X247791786Y-70754048D01*
X247833931Y-70753156D01*
X247884234Y-70752100D01*
X247942294Y-70750890D01*
X248007712Y-70749532D01*
X248080087Y-70748036D01*
X248159019Y-70746409D01*
X248244108Y-70744660D01*
X248334954Y-70742797D01*
X248431158Y-70740829D01*
X248532318Y-70738763D01*
X248638034Y-70736607D01*
X248747908Y-70734371D01*
X248861538Y-70732061D01*
X248978525Y-70729687D01*
X249098468Y-70727257D01*
X249201930Y-70725164D01*
X249323995Y-70722692D01*
X249443408Y-70720266D01*
X249559772Y-70717896D01*
X249672688Y-70715588D01*
X249781759Y-70713352D01*
X249886586Y-70711196D01*
X249986771Y-70709128D01*
X250081916Y-70707157D01*
X250171622Y-70705290D01*
X250255492Y-70703537D01*
X250333127Y-70701905D01*
X250404130Y-70700403D01*
X250468102Y-70699039D01*
X250524644Y-70697822D01*
X250573360Y-70696760D01*
X250613850Y-70695861D01*
X250645716Y-70695134D01*
X250668561Y-70694587D01*
X250681986Y-70694228D01*
X250685693Y-70694077D01*
X250685787Y-70688862D01*
X250685815Y-70673954D01*
X250685780Y-70649818D01*
X250685684Y-70616914D01*
X250685532Y-70575708D01*
X250685326Y-70526662D01*
X250685068Y-70470239D01*
X250684761Y-70406903D01*
X250684409Y-70337117D01*
X250684013Y-70261344D01*
X250683578Y-70180047D01*
X250683106Y-70093689D01*
X250682599Y-70002735D01*
X250682061Y-69907646D01*
X250681495Y-69808887D01*
X250680903Y-69706920D01*
X250680288Y-69602209D01*
X250679653Y-69495217D01*
X250679000Y-69386407D01*
X250678334Y-69276243D01*
X250677656Y-69165187D01*
X250676970Y-69053703D01*
X250676278Y-68942254D01*
X250675584Y-68831304D01*
X250674889Y-68721315D01*
X250674197Y-68612751D01*
X250673511Y-68506074D01*
X250672834Y-68401749D01*
X250672168Y-68300239D01*
X250671517Y-68202006D01*
X250670883Y-68107515D01*
X250670269Y-68017227D01*
X250669678Y-67931607D01*
X250669113Y-67851118D01*
X250668576Y-67776222D01*
X250668071Y-67707384D01*
X250667601Y-67645066D01*
X250667167Y-67589731D01*
X250666774Y-67541844D01*
X250666424Y-67501866D01*
X250666120Y-67470262D01*
X250665864Y-67447494D01*
X250665660Y-67434026D01*
X250665529Y-67430234D01*
X250660291Y-67429870D01*
X250645513Y-67429309D01*
X250621810Y-67428566D01*
X250589799Y-67427654D01*
X250550095Y-67426587D01*
X250503315Y-67425379D01*
X250450074Y-67424044D01*
X250390989Y-67422594D01*
X250326675Y-67421044D01*
X250257749Y-67419407D01*
X250184826Y-67417697D01*
X250108522Y-67415927D01*
X250029454Y-67414112D01*
X249948237Y-67412265D01*
X249865488Y-67410400D01*
X249781822Y-67408529D01*
X249697855Y-67406668D01*
X249614204Y-67404829D01*
X249531484Y-67403026D01*
X249450312Y-67401273D01*
X249371303Y-67399584D01*
X249295073Y-67397971D01*
X249222238Y-67396450D01*
X249153415Y-67395033D01*
X249089219Y-67393734D01*
X249030266Y-67392568D01*
X248977173Y-67391546D01*
X248930555Y-67390684D01*
X248891028Y-67389994D01*
X248859208Y-67389491D01*
X248835712Y-67389188D01*
X248821155Y-67389099D01*
X248816156Y-67389231D01*
G36*
X247221846Y-68365717D02*
G01*
X247207191Y-68366475D01*
X247183644Y-68367808D01*
X247151830Y-68369675D01*
X247112372Y-68372037D01*
X247065894Y-68374854D01*
X247013021Y-68378087D01*
X246954375Y-68381697D01*
X246890580Y-68385644D01*
X246822261Y-68389889D01*
X246750041Y-68394392D01*
X246674545Y-68399113D01*
X246596395Y-68404014D01*
X246516215Y-68409055D01*
X246434631Y-68414196D01*
X246352264Y-68419397D01*
X246269740Y-68424621D01*
X246187682Y-68429826D01*
X246106714Y-68434973D01*
X246027459Y-68440024D01*
X245950542Y-68444938D01*
X245876586Y-68449676D01*
X245806215Y-68454199D01*
X245740053Y-68458467D01*
X245678723Y-68462441D01*
X245622851Y-68466081D01*
X245573058Y-68469348D01*
X245529970Y-68472202D01*
X245494210Y-68474604D01*
X245466402Y-68476514D01*
X245447170Y-68477893D01*
X245437137Y-68478702D01*
X245435765Y-68478880D01*
X245435843Y-68484014D01*
X245436422Y-68498735D01*
X245437476Y-68522484D01*
X245438974Y-68554703D01*
X245440888Y-68594832D01*
X245443189Y-68642312D01*
X245445849Y-68696585D01*
X245448840Y-68757092D01*
X245452131Y-68823273D01*
X245455696Y-68894570D01*
X245459505Y-68970424D01*
X245463529Y-69050276D01*
X245467741Y-69133567D01*
X245472111Y-69219738D01*
X245476610Y-69308230D01*
X245481210Y-69398484D01*
X245485883Y-69489941D01*
X245490599Y-69582043D01*
X245495330Y-69674230D01*
X245500048Y-69765944D01*
X245504723Y-69856625D01*
X245509328Y-69945715D01*
X245513833Y-70032655D01*
X245518209Y-70116885D01*
X245522429Y-70197847D01*
X245526464Y-70274982D01*
X245530284Y-70347731D01*
X245533861Y-70415535D01*
X245537167Y-70477835D01*
X245540173Y-70534072D01*
X245542850Y-70583688D01*
X245545170Y-70626123D01*
X245547104Y-70660818D01*
X245548623Y-70687215D01*
X245549699Y-70704754D01*
X245550221Y-70712030D01*
X245553232Y-70746320D01*
X245569226Y-70745693D01*
X245576030Y-70745438D01*
X245592428Y-70744826D01*
X245617864Y-70743879D01*
X245651778Y-70742619D01*
X245693613Y-70741065D01*
X245742810Y-70739238D01*
X245798813Y-70737159D01*
X245861062Y-70734848D01*
X245928999Y-70732327D01*
X246002067Y-70729616D01*
X246079707Y-70726736D01*
X246161361Y-70723708D01*
X246246472Y-70720551D01*
X246334480Y-70717288D01*
X246379409Y-70715622D01*
X246468405Y-70712308D01*
X246554628Y-70709069D01*
X246637532Y-70705927D01*
X246716572Y-70702905D01*
X246791203Y-70700022D01*
X246860878Y-70697302D01*
X246925052Y-70694767D01*
X246983180Y-70692437D01*
X247034716Y-70690335D01*
X247079114Y-70688483D01*
X247115829Y-70686901D01*
X247144316Y-70685613D01*
X247164028Y-70684640D01*
X247174420Y-70684004D01*
X247175962Y-70683811D01*
X247176266Y-70678625D01*
X247176771Y-70663832D01*
X247177464Y-70639982D01*
X247178334Y-70607624D01*
X247179369Y-70567308D01*
X247180556Y-70519585D01*
X247181884Y-70465004D01*
X247183340Y-70404114D01*
X247184912Y-70337466D01*
X247186588Y-70265610D01*
X247188356Y-70189094D01*
X247190204Y-70108470D01*
X247192120Y-70024286D01*
X247194092Y-69937093D01*
X247196107Y-69847440D01*
X247198153Y-69755877D01*
X247200219Y-69662954D01*
X247202293Y-69569221D01*
X247204361Y-69475228D01*
X247206413Y-69381523D01*
X247208435Y-69288658D01*
X247210417Y-69197182D01*
X247212345Y-69107645D01*
X247214208Y-69020596D01*
X247215993Y-68936585D01*
X247217689Y-68856163D01*
X247219284Y-68779878D01*
X247220764Y-68708282D01*
X247222119Y-68641922D01*
X247223336Y-68581351D01*
X247224403Y-68527116D01*
X247225307Y-68479768D01*
X247226038Y-68439857D01*
X247226582Y-68407932D01*
X247226928Y-68384544D01*
X247227063Y-68370241D01*
X247226986Y-68365571D01*
X247221846Y-68365717D01*
X247221846Y-68365717D01*
G37*
X247221846Y-68365717D02*
X247207191Y-68366475D01*
X247183644Y-68367808D01*
X247151830Y-68369675D01*
X247112372Y-68372037D01*
X247065894Y-68374854D01*
X247013021Y-68378087D01*
X246954375Y-68381697D01*
X246890580Y-68385644D01*
X246822261Y-68389889D01*
X246750041Y-68394392D01*
X246674545Y-68399113D01*
X246596395Y-68404014D01*
X246516215Y-68409055D01*
X246434631Y-68414196D01*
X246352264Y-68419397D01*
X246269740Y-68424621D01*
X246187682Y-68429826D01*
X246106714Y-68434973D01*
X246027459Y-68440024D01*
X245950542Y-68444938D01*
X245876586Y-68449676D01*
X245806215Y-68454199D01*
X245740053Y-68458467D01*
X245678723Y-68462441D01*
X245622851Y-68466081D01*
X245573058Y-68469348D01*
X245529970Y-68472202D01*
X245494210Y-68474604D01*
X245466402Y-68476514D01*
X245447170Y-68477893D01*
X245437137Y-68478702D01*
X245435765Y-68478880D01*
X245435843Y-68484014D01*
X245436422Y-68498735D01*
X245437476Y-68522484D01*
X245438974Y-68554703D01*
X245440888Y-68594832D01*
X245443189Y-68642312D01*
X245445849Y-68696585D01*
X245448840Y-68757092D01*
X245452131Y-68823273D01*
X245455696Y-68894570D01*
X245459505Y-68970424D01*
X245463529Y-69050276D01*
X245467741Y-69133567D01*
X245472111Y-69219738D01*
X245476610Y-69308230D01*
X245481210Y-69398484D01*
X245485883Y-69489941D01*
X245490599Y-69582043D01*
X245495330Y-69674230D01*
X245500048Y-69765944D01*
X245504723Y-69856625D01*
X245509328Y-69945715D01*
X245513833Y-70032655D01*
X245518209Y-70116885D01*
X245522429Y-70197847D01*
X245526464Y-70274982D01*
X245530284Y-70347731D01*
X245533861Y-70415535D01*
X245537167Y-70477835D01*
X245540173Y-70534072D01*
X245542850Y-70583688D01*
X245545170Y-70626123D01*
X245547104Y-70660818D01*
X245548623Y-70687215D01*
X245549699Y-70704754D01*
X245550221Y-70712030D01*
X245553232Y-70746320D01*
X245569226Y-70745693D01*
X245576030Y-70745438D01*
X245592428Y-70744826D01*
X245617864Y-70743879D01*
X245651778Y-70742619D01*
X245693613Y-70741065D01*
X245742810Y-70739238D01*
X245798813Y-70737159D01*
X245861062Y-70734848D01*
X245928999Y-70732327D01*
X246002067Y-70729616D01*
X246079707Y-70726736D01*
X246161361Y-70723708D01*
X246246472Y-70720551D01*
X246334480Y-70717288D01*
X246379409Y-70715622D01*
X246468405Y-70712308D01*
X246554628Y-70709069D01*
X246637532Y-70705927D01*
X246716572Y-70702905D01*
X246791203Y-70700022D01*
X246860878Y-70697302D01*
X246925052Y-70694767D01*
X246983180Y-70692437D01*
X247034716Y-70690335D01*
X247079114Y-70688483D01*
X247115829Y-70686901D01*
X247144316Y-70685613D01*
X247164028Y-70684640D01*
X247174420Y-70684004D01*
X247175962Y-70683811D01*
X247176266Y-70678625D01*
X247176771Y-70663832D01*
X247177464Y-70639982D01*
X247178334Y-70607624D01*
X247179369Y-70567308D01*
X247180556Y-70519585D01*
X247181884Y-70465004D01*
X247183340Y-70404114D01*
X247184912Y-70337466D01*
X247186588Y-70265610D01*
X247188356Y-70189094D01*
X247190204Y-70108470D01*
X247192120Y-70024286D01*
X247194092Y-69937093D01*
X247196107Y-69847440D01*
X247198153Y-69755877D01*
X247200219Y-69662954D01*
X247202293Y-69569221D01*
X247204361Y-69475228D01*
X247206413Y-69381523D01*
X247208435Y-69288658D01*
X247210417Y-69197182D01*
X247212345Y-69107645D01*
X247214208Y-69020596D01*
X247215993Y-68936585D01*
X247217689Y-68856163D01*
X247219284Y-68779878D01*
X247220764Y-68708282D01*
X247222119Y-68641922D01*
X247223336Y-68581351D01*
X247224403Y-68527116D01*
X247225307Y-68479768D01*
X247226038Y-68439857D01*
X247226582Y-68407932D01*
X247226928Y-68384544D01*
X247227063Y-68370241D01*
X247226986Y-68365571D01*
X247221846Y-68365717D01*
G36*
X234869664Y-68219092D02*
G01*
X234810981Y-68219202D01*
X234760528Y-68219418D01*
X234717337Y-68219762D01*
X234680445Y-68220257D01*
X234648885Y-68220925D01*
X234621691Y-68221786D01*
X234597899Y-68222864D01*
X234576542Y-68224179D01*
X234556656Y-68225754D01*
X234537274Y-68227610D01*
X234531140Y-68228255D01*
X234430196Y-68240726D01*
X234337885Y-68255709D01*
X234252937Y-68273460D01*
X234174078Y-68294236D01*
X234119660Y-68311449D01*
X234029630Y-68346184D01*
X233947412Y-68386635D01*
X233872836Y-68433036D01*
X233805728Y-68485621D01*
X233745918Y-68544623D01*
X233693233Y-68610276D01*
X233647502Y-68682812D01*
X233608552Y-68762467D01*
X233576212Y-68849474D01*
X233550309Y-68944065D01*
X233530672Y-69046475D01*
X233520250Y-69125800D01*
X233518771Y-69141542D01*
X233516892Y-69164868D01*
X233514684Y-69194614D01*
X233512218Y-69229618D01*
X233509568Y-69268716D01*
X233506803Y-69310744D01*
X233503997Y-69354539D01*
X233501220Y-69398939D01*
X233498544Y-69442779D01*
X233496041Y-69484897D01*
X233493783Y-69524128D01*
X233491841Y-69559311D01*
X233490287Y-69589282D01*
X233489193Y-69612876D01*
X233488630Y-69628932D01*
X233488670Y-69636286D01*
X233488774Y-69636625D01*
X233493824Y-69637379D01*
X233508404Y-69639476D01*
X233531985Y-69642838D01*
X233564037Y-69647393D01*
X233604029Y-69653065D01*
X233651431Y-69659778D01*
X233705714Y-69667458D01*
X233766346Y-69676030D01*
X233832799Y-69685420D01*
X233904542Y-69695551D01*
X233981044Y-69706349D01*
X234061776Y-69717740D01*
X234146207Y-69729647D01*
X234233809Y-69741997D01*
X234304270Y-69751928D01*
X234394023Y-69764591D01*
X234481043Y-69776898D01*
X234564799Y-69788774D01*
X234644758Y-69800142D01*
X234720388Y-69810925D01*
X234791158Y-69821046D01*
X234856536Y-69830429D01*
X234915989Y-69838997D01*
X234968986Y-69846674D01*
X235014996Y-69853382D01*
X235053485Y-69859046D01*
X235083922Y-69863589D01*
X235105776Y-69866934D01*
X235118514Y-69869004D01*
X235121779Y-69869685D01*
X235120731Y-69874713D01*
X235111799Y-69882328D01*
X235096662Y-69891686D01*
X235076999Y-69901945D01*
X235054489Y-69912262D01*
X235030813Y-69921795D01*
X235007649Y-69929700D01*
X234995277Y-69933166D01*
X234969229Y-69939237D01*
X234942890Y-69944203D01*
X234914937Y-69948161D01*
X234884049Y-69951203D01*
X234848903Y-69953427D01*
X234808178Y-69954926D01*
X234760551Y-69955796D01*
X234704702Y-69956132D01*
X234675920Y-69956133D01*
X234610372Y-69955796D01*
X234551877Y-69954891D01*
X234497830Y-69953282D01*
X234445623Y-69950834D01*
X234392649Y-69947413D01*
X234336302Y-69942881D01*
X234273975Y-69937105D01*
X234235262Y-69933253D01*
X234132142Y-69921770D01*
X234025148Y-69907938D01*
X233917396Y-69892225D01*
X233812004Y-69875098D01*
X233712089Y-69857024D01*
X233665000Y-69847746D01*
X233639008Y-69842627D01*
X233616749Y-69838550D01*
X233600018Y-69835818D01*
X233590611Y-69834738D01*
X233589238Y-69834878D01*
X233588150Y-69840120D01*
X233585678Y-69854606D01*
X233581949Y-69877531D01*
X233577088Y-69908090D01*
X233571221Y-69945480D01*
X233564473Y-69988896D01*
X233556970Y-70037534D01*
X233548838Y-70090589D01*
X233540203Y-70147258D01*
X233533137Y-70193856D01*
X233522263Y-70266013D01*
X233512920Y-70328677D01*
X233505036Y-70382390D01*
X233498539Y-70427691D01*
X233493359Y-70465121D01*
X233489423Y-70495220D01*
X233486660Y-70518529D01*
X233484999Y-70535589D01*
X233484368Y-70546938D01*
X233484695Y-70553119D01*
X233485401Y-70554629D01*
X233492134Y-70557005D01*
X233507088Y-70561271D01*
X233528600Y-70566985D01*
X233555001Y-70573704D01*
X233584626Y-70580986D01*
X233584682Y-70581000D01*
X233710889Y-70609912D01*
X233836795Y-70635474D01*
X233963820Y-70657873D01*
X234093379Y-70677302D01*
X234226892Y-70693949D01*
X234365775Y-70708005D01*
X234511447Y-70719660D01*
X234665325Y-70729104D01*
X234703860Y-70731074D01*
X234736998Y-70732429D01*
X234778486Y-70733679D01*
X234826999Y-70734814D01*
X234881210Y-70735826D01*
X234939795Y-70736706D01*
X235001428Y-70737444D01*
X235064781Y-70738032D01*
X235128531Y-70738461D01*
X235191350Y-70738722D01*
X235251913Y-70738805D01*
X235308894Y-70738703D01*
X235360968Y-70738405D01*
X235406807Y-70737903D01*
X235445088Y-70737187D01*
X235473480Y-70736292D01*
X235596181Y-70729731D01*
X235709460Y-70720632D01*
X235813768Y-70708870D01*
X235909554Y-70694320D01*
X235997265Y-70676857D01*
X236077351Y-70656356D01*
X236150261Y-70632692D01*
X236216443Y-70605739D01*
X236276347Y-70575373D01*
X236330421Y-70541469D01*
X236379114Y-70503900D01*
X236410438Y-70475159D01*
X236453827Y-70427997D01*
X236492237Y-70376590D01*
X236525922Y-70320252D01*
X236555133Y-70258293D01*
X236580126Y-70190026D01*
X236601152Y-70114764D01*
X236618465Y-70031817D01*
X236632319Y-69940499D01*
X236642573Y-69844620D01*
X236644468Y-69816328D01*
X236646002Y-69779568D01*
X236647173Y-69736025D01*
X236647984Y-69687384D01*
X236648435Y-69635330D01*
X236648527Y-69581549D01*
X236648259Y-69527725D01*
X236647634Y-69475543D01*
X236646651Y-69426689D01*
X236645312Y-69382848D01*
X236643840Y-69350590D01*
X235214400Y-69350590D01*
X235200430Y-69347879D01*
X235191865Y-69346328D01*
X235174730Y-69343315D01*
X235150467Y-69339091D01*
X235120522Y-69333906D01*
X235086338Y-69328012D01*
X235049360Y-69321658D01*
X235046760Y-69321212D01*
X235010330Y-69314872D01*
X234977229Y-69308936D01*
X234948765Y-69303651D01*
X234926245Y-69299267D01*
X234910974Y-69296031D01*
X234904260Y-69294193D01*
X234904091Y-69294077D01*
X234903455Y-69288090D01*
X234903865Y-69274042D01*
X234905214Y-69253969D01*
X234907392Y-69229904D01*
X234907647Y-69227400D01*
X234914451Y-69168901D01*
X234922140Y-69119828D01*
X234931194Y-69079455D01*
X234942092Y-69047056D01*
X234955315Y-69021906D01*
X234971342Y-69003278D01*
X234990653Y-68990446D01*
X235013729Y-68982685D01*
X235041048Y-68979268D01*
X235071582Y-68979395D01*
X235102348Y-68982639D01*
X235128091Y-68989713D01*
X235149317Y-69001424D01*
X235166531Y-69018583D01*
X235180238Y-69041997D01*
X235190943Y-69072477D01*
X235199152Y-69110829D01*
X235205369Y-69157864D01*
X235209039Y-69199460D01*
X235211071Y-69229657D01*
X235212749Y-69260339D01*
X235213906Y-69288057D01*
X235214377Y-69309358D01*
X235214380Y-69310585D01*
X235214400Y-69350590D01*
X236643840Y-69350590D01*
X236643617Y-69345705D01*
X236642363Y-69326460D01*
X236631783Y-69213527D01*
X236617829Y-69109696D01*
X236600360Y-69014436D01*
X236579232Y-68927216D01*
X236554304Y-68847504D01*
X236525433Y-68774771D01*
X236492476Y-68708485D01*
X236463884Y-68660980D01*
X236420217Y-68600558D01*
X236371298Y-68545316D01*
X236316725Y-68495071D01*
X236256091Y-68449643D01*
X236188992Y-68408849D01*
X236115023Y-68372508D01*
X236033780Y-68340439D01*
X235944858Y-68312460D01*
X235847852Y-68288390D01*
X235742358Y-68268048D01*
X235627971Y-68251251D01*
X235524280Y-68239707D01*
X235479658Y-68235514D01*
X235437872Y-68231914D01*
X235397701Y-68228863D01*
X235357924Y-68226320D01*
X235317319Y-68224241D01*
X235274665Y-68222583D01*
X235228740Y-68221303D01*
X235178323Y-68220358D01*
X235122192Y-68219706D01*
X235059126Y-68219303D01*
X234987903Y-68219106D01*
X234937540Y-68219068D01*
X234869664Y-68219092D01*
X234869664Y-68219092D01*
G37*
X234869664Y-68219092D02*
X234810981Y-68219202D01*
X234760528Y-68219418D01*
X234717337Y-68219762D01*
X234680445Y-68220257D01*
X234648885Y-68220925D01*
X234621691Y-68221786D01*
X234597899Y-68222864D01*
X234576542Y-68224179D01*
X234556656Y-68225754D01*
X234537274Y-68227610D01*
X234531140Y-68228255D01*
X234430196Y-68240726D01*
X234337885Y-68255709D01*
X234252937Y-68273460D01*
X234174078Y-68294236D01*
X234119660Y-68311449D01*
X234029630Y-68346184D01*
X233947412Y-68386635D01*
X233872836Y-68433036D01*
X233805728Y-68485621D01*
X233745918Y-68544623D01*
X233693233Y-68610276D01*
X233647502Y-68682812D01*
X233608552Y-68762467D01*
X233576212Y-68849474D01*
X233550309Y-68944065D01*
X233530672Y-69046475D01*
X233520250Y-69125800D01*
X233518771Y-69141542D01*
X233516892Y-69164868D01*
X233514684Y-69194614D01*
X233512218Y-69229618D01*
X233509568Y-69268716D01*
X233506803Y-69310744D01*
X233503997Y-69354539D01*
X233501220Y-69398939D01*
X233498544Y-69442779D01*
X233496041Y-69484897D01*
X233493783Y-69524128D01*
X233491841Y-69559311D01*
X233490287Y-69589282D01*
X233489193Y-69612876D01*
X233488630Y-69628932D01*
X233488670Y-69636286D01*
X233488774Y-69636625D01*
X233493824Y-69637379D01*
X233508404Y-69639476D01*
X233531985Y-69642838D01*
X233564037Y-69647393D01*
X233604029Y-69653065D01*
X233651431Y-69659778D01*
X233705714Y-69667458D01*
X233766346Y-69676030D01*
X233832799Y-69685420D01*
X233904542Y-69695551D01*
X233981044Y-69706349D01*
X234061776Y-69717740D01*
X234146207Y-69729647D01*
X234233809Y-69741997D01*
X234304270Y-69751928D01*
X234394023Y-69764591D01*
X234481043Y-69776898D01*
X234564799Y-69788774D01*
X234644758Y-69800142D01*
X234720388Y-69810925D01*
X234791158Y-69821046D01*
X234856536Y-69830429D01*
X234915989Y-69838997D01*
X234968986Y-69846674D01*
X235014996Y-69853382D01*
X235053485Y-69859046D01*
X235083922Y-69863589D01*
X235105776Y-69866934D01*
X235118514Y-69869004D01*
X235121779Y-69869685D01*
X235120731Y-69874713D01*
X235111799Y-69882328D01*
X235096662Y-69891686D01*
X235076999Y-69901945D01*
X235054489Y-69912262D01*
X235030813Y-69921795D01*
X235007649Y-69929700D01*
X234995277Y-69933166D01*
X234969229Y-69939237D01*
X234942890Y-69944203D01*
X234914937Y-69948161D01*
X234884049Y-69951203D01*
X234848903Y-69953427D01*
X234808178Y-69954926D01*
X234760551Y-69955796D01*
X234704702Y-69956132D01*
X234675920Y-69956133D01*
X234610372Y-69955796D01*
X234551877Y-69954891D01*
X234497830Y-69953282D01*
X234445623Y-69950834D01*
X234392649Y-69947413D01*
X234336302Y-69942881D01*
X234273975Y-69937105D01*
X234235262Y-69933253D01*
X234132142Y-69921770D01*
X234025148Y-69907938D01*
X233917396Y-69892225D01*
X233812004Y-69875098D01*
X233712089Y-69857024D01*
X233665000Y-69847746D01*
X233639008Y-69842627D01*
X233616749Y-69838550D01*
X233600018Y-69835818D01*
X233590611Y-69834738D01*
X233589238Y-69834878D01*
X233588150Y-69840120D01*
X233585678Y-69854606D01*
X233581949Y-69877531D01*
X233577088Y-69908090D01*
X233571221Y-69945480D01*
X233564473Y-69988896D01*
X233556970Y-70037534D01*
X233548838Y-70090589D01*
X233540203Y-70147258D01*
X233533137Y-70193856D01*
X233522263Y-70266013D01*
X233512920Y-70328677D01*
X233505036Y-70382390D01*
X233498539Y-70427691D01*
X233493359Y-70465121D01*
X233489423Y-70495220D01*
X233486660Y-70518529D01*
X233484999Y-70535589D01*
X233484368Y-70546938D01*
X233484695Y-70553119D01*
X233485401Y-70554629D01*
X233492134Y-70557005D01*
X233507088Y-70561271D01*
X233528600Y-70566985D01*
X233555001Y-70573704D01*
X233584626Y-70580986D01*
X233584682Y-70581000D01*
X233710889Y-70609912D01*
X233836795Y-70635474D01*
X233963820Y-70657873D01*
X234093379Y-70677302D01*
X234226892Y-70693949D01*
X234365775Y-70708005D01*
X234511447Y-70719660D01*
X234665325Y-70729104D01*
X234703860Y-70731074D01*
X234736998Y-70732429D01*
X234778486Y-70733679D01*
X234826999Y-70734814D01*
X234881210Y-70735826D01*
X234939795Y-70736706D01*
X235001428Y-70737444D01*
X235064781Y-70738032D01*
X235128531Y-70738461D01*
X235191350Y-70738722D01*
X235251913Y-70738805D01*
X235308894Y-70738703D01*
X235360968Y-70738405D01*
X235406807Y-70737903D01*
X235445088Y-70737187D01*
X235473480Y-70736292D01*
X235596181Y-70729731D01*
X235709460Y-70720632D01*
X235813768Y-70708870D01*
X235909554Y-70694320D01*
X235997265Y-70676857D01*
X236077351Y-70656356D01*
X236150261Y-70632692D01*
X236216443Y-70605739D01*
X236276347Y-70575373D01*
X236330421Y-70541469D01*
X236379114Y-70503900D01*
X236410438Y-70475159D01*
X236453827Y-70427997D01*
X236492237Y-70376590D01*
X236525922Y-70320252D01*
X236555133Y-70258293D01*
X236580126Y-70190026D01*
X236601152Y-70114764D01*
X236618465Y-70031817D01*
X236632319Y-69940499D01*
X236642573Y-69844620D01*
X236644468Y-69816328D01*
X236646002Y-69779568D01*
X236647173Y-69736025D01*
X236647984Y-69687384D01*
X236648435Y-69635330D01*
X236648527Y-69581549D01*
X236648259Y-69527725D01*
X236647634Y-69475543D01*
X236646651Y-69426689D01*
X236645312Y-69382848D01*
X236643840Y-69350590D01*
X235214400Y-69350590D01*
X235200430Y-69347879D01*
X235191865Y-69346328D01*
X235174730Y-69343315D01*
X235150467Y-69339091D01*
X235120522Y-69333906D01*
X235086338Y-69328012D01*
X235049360Y-69321658D01*
X235046760Y-69321212D01*
X235010330Y-69314872D01*
X234977229Y-69308936D01*
X234948765Y-69303651D01*
X234926245Y-69299267D01*
X234910974Y-69296031D01*
X234904260Y-69294193D01*
X234904091Y-69294077D01*
X234903455Y-69288090D01*
X234903865Y-69274042D01*
X234905214Y-69253969D01*
X234907392Y-69229904D01*
X234907647Y-69227400D01*
X234914451Y-69168901D01*
X234922140Y-69119828D01*
X234931194Y-69079455D01*
X234942092Y-69047056D01*
X234955315Y-69021906D01*
X234971342Y-69003278D01*
X234990653Y-68990446D01*
X235013729Y-68982685D01*
X235041048Y-68979268D01*
X235071582Y-68979395D01*
X235102348Y-68982639D01*
X235128091Y-68989713D01*
X235149317Y-69001424D01*
X235166531Y-69018583D01*
X235180238Y-69041997D01*
X235190943Y-69072477D01*
X235199152Y-69110829D01*
X235205369Y-69157864D01*
X235209039Y-69199460D01*
X235211071Y-69229657D01*
X235212749Y-69260339D01*
X235213906Y-69288057D01*
X235214377Y-69309358D01*
X235214380Y-69310585D01*
X235214400Y-69350590D01*
X236643840Y-69350590D01*
X236643617Y-69345705D01*
X236642363Y-69326460D01*
X236631783Y-69213527D01*
X236617829Y-69109696D01*
X236600360Y-69014436D01*
X236579232Y-68927216D01*
X236554304Y-68847504D01*
X236525433Y-68774771D01*
X236492476Y-68708485D01*
X236463884Y-68660980D01*
X236420217Y-68600558D01*
X236371298Y-68545316D01*
X236316725Y-68495071D01*
X236256091Y-68449643D01*
X236188992Y-68408849D01*
X236115023Y-68372508D01*
X236033780Y-68340439D01*
X235944858Y-68312460D01*
X235847852Y-68288390D01*
X235742358Y-68268048D01*
X235627971Y-68251251D01*
X235524280Y-68239707D01*
X235479658Y-68235514D01*
X235437872Y-68231914D01*
X235397701Y-68228863D01*
X235357924Y-68226320D01*
X235317319Y-68224241D01*
X235274665Y-68222583D01*
X235228740Y-68221303D01*
X235178323Y-68220358D01*
X235122192Y-68219706D01*
X235059126Y-68219303D01*
X234987903Y-68219106D01*
X234937540Y-68219068D01*
X234869664Y-68219092D01*
G36*
X237060192Y-67405671D02*
G01*
X237060039Y-67410728D01*
X237059742Y-67425482D01*
X237059307Y-67449473D01*
X237058742Y-67482237D01*
X237058053Y-67523315D01*
X237057248Y-67572243D01*
X237056335Y-67628561D01*
X237055319Y-67691807D01*
X237054207Y-67761520D01*
X237053008Y-67837238D01*
X237051728Y-67918499D01*
X237050374Y-68004842D01*
X237048953Y-68095805D01*
X237047472Y-68190927D01*
X237045938Y-68289747D01*
X237044358Y-68391802D01*
X237042739Y-68496631D01*
X237041089Y-68603773D01*
X237039414Y-68712766D01*
X237037721Y-68823148D01*
X237036018Y-68934459D01*
X237034311Y-69046236D01*
X237032608Y-69158018D01*
X237030915Y-69269343D01*
X237029240Y-69379750D01*
X237027589Y-69488778D01*
X237025970Y-69595964D01*
X237024389Y-69700847D01*
X237022854Y-69802966D01*
X237021372Y-69901859D01*
X237019950Y-69997065D01*
X237018595Y-70088121D01*
X237017313Y-70174567D01*
X237016112Y-70255941D01*
X237014999Y-70331782D01*
X237013982Y-70401627D01*
X237013066Y-70465016D01*
X237012259Y-70521486D01*
X237011569Y-70570577D01*
X237011001Y-70611826D01*
X237010564Y-70644772D01*
X237010264Y-70668954D01*
X237010108Y-70683910D01*
X237010104Y-70689178D01*
X237010105Y-70689182D01*
X237015201Y-70689459D01*
X237029897Y-70689983D01*
X237053640Y-70690738D01*
X237085874Y-70691710D01*
X237126044Y-70692882D01*
X237173595Y-70694239D01*
X237227971Y-70695766D01*
X237288617Y-70697447D01*
X237354979Y-70699266D01*
X237426500Y-70701209D01*
X237502627Y-70703260D01*
X237582803Y-70705403D01*
X237666473Y-70707624D01*
X237753082Y-70709905D01*
X237775156Y-70710484D01*
X237864195Y-70712823D01*
X237951532Y-70715128D01*
X238036518Y-70717382D01*
X238118506Y-70719568D01*
X238196848Y-70721667D01*
X238270899Y-70723663D01*
X238340009Y-70725537D01*
X238403533Y-70727272D01*
X238460822Y-70728850D01*
X238511229Y-70730253D01*
X238554108Y-70731465D01*
X238588810Y-70732467D01*
X238614688Y-70733242D01*
X238631096Y-70733773D01*
X238631757Y-70733796D01*
X238724254Y-70737088D01*
X238726546Y-70725194D01*
X238726844Y-70719022D01*
X238727273Y-70703201D01*
X238727828Y-70678193D01*
X238728500Y-70644463D01*
X238729283Y-70602474D01*
X238730171Y-70552690D01*
X238731157Y-70495575D01*
X238732234Y-70431593D01*
X238733394Y-70361208D01*
X238734632Y-70284883D01*
X238735941Y-70203082D01*
X238737313Y-70116269D01*
X238738742Y-70024907D01*
X238740221Y-69929461D01*
X238741743Y-69830395D01*
X238743302Y-69728171D01*
X238744891Y-69623254D01*
X238746503Y-69516108D01*
X238748130Y-69407196D01*
X238749767Y-69296983D01*
X238751407Y-69185931D01*
X238753043Y-69074506D01*
X238754667Y-68963170D01*
X238756274Y-68852387D01*
X238757856Y-68742622D01*
X238759406Y-68634337D01*
X238760919Y-68527997D01*
X238762386Y-68424066D01*
X238763802Y-68323007D01*
X238765159Y-68225285D01*
X238766451Y-68131362D01*
X238767670Y-68041703D01*
X238768811Y-67956771D01*
X238769866Y-67877031D01*
X238770828Y-67802946D01*
X238771691Y-67734979D01*
X238772448Y-67673596D01*
X238773092Y-67619258D01*
X238773616Y-67572431D01*
X238774014Y-67533579D01*
X238774278Y-67503163D01*
X238774402Y-67481650D01*
X238774380Y-67469502D01*
X238774271Y-67466816D01*
X238769104Y-67466449D01*
X238754423Y-67465754D01*
X238730867Y-67464754D01*
X238699074Y-67463473D01*
X238659684Y-67461932D01*
X238613337Y-67460156D01*
X238560671Y-67458165D01*
X238502327Y-67455984D01*
X238438942Y-67453635D01*
X238371157Y-67451141D01*
X238299611Y-67448525D01*
X238224942Y-67445809D01*
X238147791Y-67443017D01*
X238068797Y-67440170D01*
X237988598Y-67437293D01*
X237907834Y-67434407D01*
X237827144Y-67431536D01*
X237747169Y-67428703D01*
X237668546Y-67425929D01*
X237591915Y-67423239D01*
X237517915Y-67420654D01*
X237447186Y-67418198D01*
X237380367Y-67415893D01*
X237318097Y-67413762D01*
X237261016Y-67411829D01*
X237209762Y-67410115D01*
X237164976Y-67408643D01*
X237127295Y-67407438D01*
X237097360Y-67406520D01*
X237075810Y-67405913D01*
X237063284Y-67405640D01*
X237060192Y-67405671D01*
X237060192Y-67405671D01*
G37*
X237060192Y-67405671D02*
X237060039Y-67410728D01*
X237059742Y-67425482D01*
X237059307Y-67449473D01*
X237058742Y-67482237D01*
X237058053Y-67523315D01*
X237057248Y-67572243D01*
X237056335Y-67628561D01*
X237055319Y-67691807D01*
X237054207Y-67761520D01*
X237053008Y-67837238D01*
X237051728Y-67918499D01*
X237050374Y-68004842D01*
X237048953Y-68095805D01*
X237047472Y-68190927D01*
X237045938Y-68289747D01*
X237044358Y-68391802D01*
X237042739Y-68496631D01*
X237041089Y-68603773D01*
X237039414Y-68712766D01*
X237037721Y-68823148D01*
X237036018Y-68934459D01*
X237034311Y-69046236D01*
X237032608Y-69158018D01*
X237030915Y-69269343D01*
X237029240Y-69379750D01*
X237027589Y-69488778D01*
X237025970Y-69595964D01*
X237024389Y-69700847D01*
X237022854Y-69802966D01*
X237021372Y-69901859D01*
X237019950Y-69997065D01*
X237018595Y-70088121D01*
X237017313Y-70174567D01*
X237016112Y-70255941D01*
X237014999Y-70331782D01*
X237013982Y-70401627D01*
X237013066Y-70465016D01*
X237012259Y-70521486D01*
X237011569Y-70570577D01*
X237011001Y-70611826D01*
X237010564Y-70644772D01*
X237010264Y-70668954D01*
X237010108Y-70683910D01*
X237010104Y-70689178D01*
X237010105Y-70689182D01*
X237015201Y-70689459D01*
X237029897Y-70689983D01*
X237053640Y-70690738D01*
X237085874Y-70691710D01*
X237126044Y-70692882D01*
X237173595Y-70694239D01*
X237227971Y-70695766D01*
X237288617Y-70697447D01*
X237354979Y-70699266D01*
X237426500Y-70701209D01*
X237502627Y-70703260D01*
X237582803Y-70705403D01*
X237666473Y-70707624D01*
X237753082Y-70709905D01*
X237775156Y-70710484D01*
X237864195Y-70712823D01*
X237951532Y-70715128D01*
X238036518Y-70717382D01*
X238118506Y-70719568D01*
X238196848Y-70721667D01*
X238270899Y-70723663D01*
X238340009Y-70725537D01*
X238403533Y-70727272D01*
X238460822Y-70728850D01*
X238511229Y-70730253D01*
X238554108Y-70731465D01*
X238588810Y-70732467D01*
X238614688Y-70733242D01*
X238631096Y-70733773D01*
X238631757Y-70733796D01*
X238724254Y-70737088D01*
X238726546Y-70725194D01*
X238726844Y-70719022D01*
X238727273Y-70703201D01*
X238727828Y-70678193D01*
X238728500Y-70644463D01*
X238729283Y-70602474D01*
X238730171Y-70552690D01*
X238731157Y-70495575D01*
X238732234Y-70431593D01*
X238733394Y-70361208D01*
X238734632Y-70284883D01*
X238735941Y-70203082D01*
X238737313Y-70116269D01*
X238738742Y-70024907D01*
X238740221Y-69929461D01*
X238741743Y-69830395D01*
X238743302Y-69728171D01*
X238744891Y-69623254D01*
X238746503Y-69516108D01*
X238748130Y-69407196D01*
X238749767Y-69296983D01*
X238751407Y-69185931D01*
X238753043Y-69074506D01*
X238754667Y-68963170D01*
X238756274Y-68852387D01*
X238757856Y-68742622D01*
X238759406Y-68634337D01*
X238760919Y-68527997D01*
X238762386Y-68424066D01*
X238763802Y-68323007D01*
X238765159Y-68225285D01*
X238766451Y-68131362D01*
X238767670Y-68041703D01*
X238768811Y-67956771D01*
X238769866Y-67877031D01*
X238770828Y-67802946D01*
X238771691Y-67734979D01*
X238772448Y-67673596D01*
X238773092Y-67619258D01*
X238773616Y-67572431D01*
X238774014Y-67533579D01*
X238774278Y-67503163D01*
X238774402Y-67481650D01*
X238774380Y-67469502D01*
X238774271Y-67466816D01*
X238769104Y-67466449D01*
X238754423Y-67465754D01*
X238730867Y-67464754D01*
X238699074Y-67463473D01*
X238659684Y-67461932D01*
X238613337Y-67460156D01*
X238560671Y-67458165D01*
X238502327Y-67455984D01*
X238438942Y-67453635D01*
X238371157Y-67451141D01*
X238299611Y-67448525D01*
X238224942Y-67445809D01*
X238147791Y-67443017D01*
X238068797Y-67440170D01*
X237988598Y-67437293D01*
X237907834Y-67434407D01*
X237827144Y-67431536D01*
X237747169Y-67428703D01*
X237668546Y-67425929D01*
X237591915Y-67423239D01*
X237517915Y-67420654D01*
X237447186Y-67418198D01*
X237380367Y-67415893D01*
X237318097Y-67413762D01*
X237261016Y-67411829D01*
X237209762Y-67410115D01*
X237164976Y-67408643D01*
X237127295Y-67407438D01*
X237097360Y-67406520D01*
X237075810Y-67405913D01*
X237063284Y-67405640D01*
X237060192Y-67405671D01*
G36*
X231277163Y-67412100D02*
G01*
X231262338Y-67412347D01*
X231238289Y-67412830D01*
X231205482Y-67413535D01*
X231164384Y-67414452D01*
X231115460Y-67415570D01*
X231059177Y-67416876D01*
X230996001Y-67418359D01*
X230926398Y-67420007D01*
X230850835Y-67421809D01*
X230769778Y-67423753D01*
X230683694Y-67425828D01*
X230593048Y-67428022D01*
X230498306Y-67430324D01*
X230399936Y-67432722D01*
X230298403Y-67435204D01*
X230194174Y-67437759D01*
X230087714Y-67440375D01*
X229979491Y-67443041D01*
X229869970Y-67445745D01*
X229759617Y-67448476D01*
X229648900Y-67451222D01*
X229538284Y-67453971D01*
X229428235Y-67456712D01*
X229319220Y-67459433D01*
X229211705Y-67462123D01*
X229106156Y-67464770D01*
X229003040Y-67467363D01*
X228902822Y-67469890D01*
X228805970Y-67472339D01*
X228712949Y-67474699D01*
X228624226Y-67476958D01*
X228540266Y-67479105D01*
X228461537Y-67481128D01*
X228388504Y-67483016D01*
X228321634Y-67484757D01*
X228261393Y-67486339D01*
X228208247Y-67487751D01*
X228162662Y-67488982D01*
X228125105Y-67490019D01*
X228096043Y-67490851D01*
X228075940Y-67491467D01*
X228065264Y-67491855D01*
X228063577Y-67491969D01*
X228063694Y-67497055D01*
X228064380Y-67511452D01*
X228065583Y-67534328D01*
X228067256Y-67564854D01*
X228069349Y-67602199D01*
X228071813Y-67645531D01*
X228074597Y-67694021D01*
X228077654Y-67746838D01*
X228080934Y-67803150D01*
X228084388Y-67862128D01*
X228087966Y-67922940D01*
X228091619Y-67984757D01*
X228095299Y-68046747D01*
X228098955Y-68108079D01*
X228102538Y-68167924D01*
X228106000Y-68225450D01*
X228109291Y-68279827D01*
X228112361Y-68330224D01*
X228115162Y-68375810D01*
X228117645Y-68415755D01*
X228119759Y-68449228D01*
X228121456Y-68475399D01*
X228122687Y-68493436D01*
X228123402Y-68502510D01*
X228123535Y-68503446D01*
X228128713Y-68504006D01*
X228143453Y-68505250D01*
X228167184Y-68507135D01*
X228199335Y-68509620D01*
X228239335Y-68512662D01*
X228286612Y-68516218D01*
X228340594Y-68520245D01*
X228400711Y-68524702D01*
X228466391Y-68529546D01*
X228537062Y-68534734D01*
X228612154Y-68540223D01*
X228691094Y-68545972D01*
X228773312Y-68551937D01*
X228844080Y-68557055D01*
X228928604Y-68563170D01*
X229010331Y-68569104D01*
X229088689Y-68574816D01*
X229163108Y-68580263D01*
X229233015Y-68585402D01*
X229297839Y-68590190D01*
X229357008Y-68594586D01*
X229409950Y-68598545D01*
X229456093Y-68602027D01*
X229494867Y-68604988D01*
X229525699Y-68607386D01*
X229548017Y-68609178D01*
X229561250Y-68610321D01*
X229564926Y-68610748D01*
X229565754Y-68616106D01*
X229566992Y-68630192D01*
X229568541Y-68651585D01*
X229570303Y-68678865D01*
X229572180Y-68710612D01*
X229573430Y-68733278D01*
X229575449Y-68770506D01*
X229577482Y-68807279D01*
X229579405Y-68841406D01*
X229581093Y-68870697D01*
X229582423Y-68892963D01*
X229582850Y-68899757D01*
X229585789Y-68945494D01*
X228976161Y-68923054D01*
X228898349Y-68920207D01*
X228823383Y-68917500D01*
X228751888Y-68914952D01*
X228684487Y-68912584D01*
X228621801Y-68910417D01*
X228564455Y-68908472D01*
X228513070Y-68906769D01*
X228468271Y-68905330D01*
X228430679Y-68904174D01*
X228400918Y-68903323D01*
X228379610Y-68902798D01*
X228367379Y-68902618D01*
X228364539Y-68902716D01*
X228364097Y-68907915D01*
X228363292Y-68922432D01*
X228362158Y-68945434D01*
X228360729Y-68976092D01*
X228359039Y-69013572D01*
X228357122Y-69057043D01*
X228355013Y-69105673D01*
X228352746Y-69158632D01*
X228350355Y-69215086D01*
X228347874Y-69274205D01*
X228345337Y-69335157D01*
X228342778Y-69397110D01*
X228340232Y-69459232D01*
X228337733Y-69520692D01*
X228335315Y-69580658D01*
X228333011Y-69638299D01*
X228330857Y-69692782D01*
X228328887Y-69743277D01*
X228327133Y-69788951D01*
X228325632Y-69828972D01*
X228324416Y-69862510D01*
X228323520Y-69888732D01*
X228322979Y-69906807D01*
X228322826Y-69915903D01*
X228322883Y-69916843D01*
X228327982Y-69916699D01*
X228342591Y-69915999D01*
X228366076Y-69914779D01*
X228397802Y-69913074D01*
X228437137Y-69910918D01*
X228483446Y-69908349D01*
X228536097Y-69905400D01*
X228594455Y-69902108D01*
X228657888Y-69898508D01*
X228725761Y-69894635D01*
X228797440Y-69890525D01*
X228872294Y-69886213D01*
X228908955Y-69884094D01*
X228985132Y-69879709D01*
X229058462Y-69875532D01*
X229128308Y-69871598D01*
X229194035Y-69867940D01*
X229255007Y-69864592D01*
X229310588Y-69861587D01*
X229360143Y-69858961D01*
X229403035Y-69856747D01*
X229438629Y-69854978D01*
X229466289Y-69853689D01*
X229485379Y-69852913D01*
X229495264Y-69852684D01*
X229496551Y-69852776D01*
X229497216Y-69858121D01*
X229498386Y-69872854D01*
X229500013Y-69896222D01*
X229502052Y-69927467D01*
X229504457Y-69965834D01*
X229507180Y-70010567D01*
X229510177Y-70060912D01*
X229513399Y-70116111D01*
X229516802Y-70175409D01*
X229520339Y-70238050D01*
X229522210Y-70271606D01*
X229525819Y-70336234D01*
X229529321Y-70398311D01*
X229532669Y-70457035D01*
X229535816Y-70511604D01*
X229538715Y-70561215D01*
X229541317Y-70605066D01*
X229543576Y-70642354D01*
X229545444Y-70672278D01*
X229546874Y-70694035D01*
X229547818Y-70706823D01*
X229548079Y-70709490D01*
X229550823Y-70731080D01*
X229610202Y-70730444D01*
X229621873Y-70730252D01*
X229643113Y-70729828D01*
X229673334Y-70729187D01*
X229711948Y-70728341D01*
X229758367Y-70727304D01*
X229812003Y-70726089D01*
X229872269Y-70724711D01*
X229938575Y-70723182D01*
X230010335Y-70721517D01*
X230086959Y-70719728D01*
X230167861Y-70717829D01*
X230252452Y-70715835D01*
X230340144Y-70713757D01*
X230430349Y-70711611D01*
X230489503Y-70710198D01*
X230579945Y-70708027D01*
X230667609Y-70705907D01*
X230751957Y-70703851D01*
X230832454Y-70701874D01*
X230908564Y-70699989D01*
X230979750Y-70698210D01*
X231045476Y-70696551D01*
X231105207Y-70695024D01*
X231158405Y-70693644D01*
X231204534Y-70692425D01*
X231243060Y-70691380D01*
X231273444Y-70690522D01*
X231295152Y-70689867D01*
X231307646Y-70689426D01*
X231310650Y-70689244D01*
X231310762Y-70684068D01*
X231310781Y-70669196D01*
X231310714Y-70645090D01*
X231310564Y-70612212D01*
X231310335Y-70571025D01*
X231310030Y-70521991D01*
X231309654Y-70465573D01*
X231309211Y-70402232D01*
X231308705Y-70332431D01*
X231308140Y-70256633D01*
X231307519Y-70175300D01*
X231306848Y-70088893D01*
X231306129Y-69997876D01*
X231305367Y-69902711D01*
X231304566Y-69803861D01*
X231303730Y-69701786D01*
X231302863Y-69596951D01*
X231301969Y-69489817D01*
X231301051Y-69380846D01*
X231300114Y-69270501D01*
X231299163Y-69159245D01*
X231298199Y-69047539D01*
X231297229Y-68935846D01*
X231296256Y-68824628D01*
X231295284Y-68714349D01*
X231294316Y-68605469D01*
X231293357Y-68498451D01*
X231292411Y-68393758D01*
X231291482Y-68291852D01*
X231290574Y-68193196D01*
X231289691Y-68098251D01*
X231288836Y-68007480D01*
X231288015Y-67921346D01*
X231287230Y-67840311D01*
X231286486Y-67764836D01*
X231285787Y-67695386D01*
X231285137Y-67632421D01*
X231284539Y-67576404D01*
X231283999Y-67527797D01*
X231283519Y-67487064D01*
X231283104Y-67454666D01*
X231282758Y-67431065D01*
X231282485Y-67416724D01*
X231282297Y-67412099D01*
X231277163Y-67412100D01*
X231277163Y-67412100D01*
G37*
X231277163Y-67412100D02*
X231262338Y-67412347D01*
X231238289Y-67412830D01*
X231205482Y-67413535D01*
X231164384Y-67414452D01*
X231115460Y-67415570D01*
X231059177Y-67416876D01*
X230996001Y-67418359D01*
X230926398Y-67420007D01*
X230850835Y-67421809D01*
X230769778Y-67423753D01*
X230683694Y-67425828D01*
X230593048Y-67428022D01*
X230498306Y-67430324D01*
X230399936Y-67432722D01*
X230298403Y-67435204D01*
X230194174Y-67437759D01*
X230087714Y-67440375D01*
X229979491Y-67443041D01*
X229869970Y-67445745D01*
X229759617Y-67448476D01*
X229648900Y-67451222D01*
X229538284Y-67453971D01*
X229428235Y-67456712D01*
X229319220Y-67459433D01*
X229211705Y-67462123D01*
X229106156Y-67464770D01*
X229003040Y-67467363D01*
X228902822Y-67469890D01*
X228805970Y-67472339D01*
X228712949Y-67474699D01*
X228624226Y-67476958D01*
X228540266Y-67479105D01*
X228461537Y-67481128D01*
X228388504Y-67483016D01*
X228321634Y-67484757D01*
X228261393Y-67486339D01*
X228208247Y-67487751D01*
X228162662Y-67488982D01*
X228125105Y-67490019D01*
X228096043Y-67490851D01*
X228075940Y-67491467D01*
X228065264Y-67491855D01*
X228063577Y-67491969D01*
X228063694Y-67497055D01*
X228064380Y-67511452D01*
X228065583Y-67534328D01*
X228067256Y-67564854D01*
X228069349Y-67602199D01*
X228071813Y-67645531D01*
X228074597Y-67694021D01*
X228077654Y-67746838D01*
X228080934Y-67803150D01*
X228084388Y-67862128D01*
X228087966Y-67922940D01*
X228091619Y-67984757D01*
X228095299Y-68046747D01*
X228098955Y-68108079D01*
X228102538Y-68167924D01*
X228106000Y-68225450D01*
X228109291Y-68279827D01*
X228112361Y-68330224D01*
X228115162Y-68375810D01*
X228117645Y-68415755D01*
X228119759Y-68449228D01*
X228121456Y-68475399D01*
X228122687Y-68493436D01*
X228123402Y-68502510D01*
X228123535Y-68503446D01*
X228128713Y-68504006D01*
X228143453Y-68505250D01*
X228167184Y-68507135D01*
X228199335Y-68509620D01*
X228239335Y-68512662D01*
X228286612Y-68516218D01*
X228340594Y-68520245D01*
X228400711Y-68524702D01*
X228466391Y-68529546D01*
X228537062Y-68534734D01*
X228612154Y-68540223D01*
X228691094Y-68545972D01*
X228773312Y-68551937D01*
X228844080Y-68557055D01*
X228928604Y-68563170D01*
X229010331Y-68569104D01*
X229088689Y-68574816D01*
X229163108Y-68580263D01*
X229233015Y-68585402D01*
X229297839Y-68590190D01*
X229357008Y-68594586D01*
X229409950Y-68598545D01*
X229456093Y-68602027D01*
X229494867Y-68604988D01*
X229525699Y-68607386D01*
X229548017Y-68609178D01*
X229561250Y-68610321D01*
X229564926Y-68610748D01*
X229565754Y-68616106D01*
X229566992Y-68630192D01*
X229568541Y-68651585D01*
X229570303Y-68678865D01*
X229572180Y-68710612D01*
X229573430Y-68733278D01*
X229575449Y-68770506D01*
X229577482Y-68807279D01*
X229579405Y-68841406D01*
X229581093Y-68870697D01*
X229582423Y-68892963D01*
X229582850Y-68899757D01*
X229585789Y-68945494D01*
X228976161Y-68923054D01*
X228898349Y-68920207D01*
X228823383Y-68917500D01*
X228751888Y-68914952D01*
X228684487Y-68912584D01*
X228621801Y-68910417D01*
X228564455Y-68908472D01*
X228513070Y-68906769D01*
X228468271Y-68905330D01*
X228430679Y-68904174D01*
X228400918Y-68903323D01*
X228379610Y-68902798D01*
X228367379Y-68902618D01*
X228364539Y-68902716D01*
X228364097Y-68907915D01*
X228363292Y-68922432D01*
X228362158Y-68945434D01*
X228360729Y-68976092D01*
X228359039Y-69013572D01*
X228357122Y-69057043D01*
X228355013Y-69105673D01*
X228352746Y-69158632D01*
X228350355Y-69215086D01*
X228347874Y-69274205D01*
X228345337Y-69335157D01*
X228342778Y-69397110D01*
X228340232Y-69459232D01*
X228337733Y-69520692D01*
X228335315Y-69580658D01*
X228333011Y-69638299D01*
X228330857Y-69692782D01*
X228328887Y-69743277D01*
X228327133Y-69788951D01*
X228325632Y-69828972D01*
X228324416Y-69862510D01*
X228323520Y-69888732D01*
X228322979Y-69906807D01*
X228322826Y-69915903D01*
X228322883Y-69916843D01*
X228327982Y-69916699D01*
X228342591Y-69915999D01*
X228366076Y-69914779D01*
X228397802Y-69913074D01*
X228437137Y-69910918D01*
X228483446Y-69908349D01*
X228536097Y-69905400D01*
X228594455Y-69902108D01*
X228657888Y-69898508D01*
X228725761Y-69894635D01*
X228797440Y-69890525D01*
X228872294Y-69886213D01*
X228908955Y-69884094D01*
X228985132Y-69879709D01*
X229058462Y-69875532D01*
X229128308Y-69871598D01*
X229194035Y-69867940D01*
X229255007Y-69864592D01*
X229310588Y-69861587D01*
X229360143Y-69858961D01*
X229403035Y-69856747D01*
X229438629Y-69854978D01*
X229466289Y-69853689D01*
X229485379Y-69852913D01*
X229495264Y-69852684D01*
X229496551Y-69852776D01*
X229497216Y-69858121D01*
X229498386Y-69872854D01*
X229500013Y-69896222D01*
X229502052Y-69927467D01*
X229504457Y-69965834D01*
X229507180Y-70010567D01*
X229510177Y-70060912D01*
X229513399Y-70116111D01*
X229516802Y-70175409D01*
X229520339Y-70238050D01*
X229522210Y-70271606D01*
X229525819Y-70336234D01*
X229529321Y-70398311D01*
X229532669Y-70457035D01*
X229535816Y-70511604D01*
X229538715Y-70561215D01*
X229541317Y-70605066D01*
X229543576Y-70642354D01*
X229545444Y-70672278D01*
X229546874Y-70694035D01*
X229547818Y-70706823D01*
X229548079Y-70709490D01*
X229550823Y-70731080D01*
X229610202Y-70730444D01*
X229621873Y-70730252D01*
X229643113Y-70729828D01*
X229673334Y-70729187D01*
X229711948Y-70728341D01*
X229758367Y-70727304D01*
X229812003Y-70726089D01*
X229872269Y-70724711D01*
X229938575Y-70723182D01*
X230010335Y-70721517D01*
X230086959Y-70719728D01*
X230167861Y-70717829D01*
X230252452Y-70715835D01*
X230340144Y-70713757D01*
X230430349Y-70711611D01*
X230489503Y-70710198D01*
X230579945Y-70708027D01*
X230667609Y-70705907D01*
X230751957Y-70703851D01*
X230832454Y-70701874D01*
X230908564Y-70699989D01*
X230979750Y-70698210D01*
X231045476Y-70696551D01*
X231105207Y-70695024D01*
X231158405Y-70693644D01*
X231204534Y-70692425D01*
X231243060Y-70691380D01*
X231273444Y-70690522D01*
X231295152Y-70689867D01*
X231307646Y-70689426D01*
X231310650Y-70689244D01*
X231310762Y-70684068D01*
X231310781Y-70669196D01*
X231310714Y-70645090D01*
X231310564Y-70612212D01*
X231310335Y-70571025D01*
X231310030Y-70521991D01*
X231309654Y-70465573D01*
X231309211Y-70402232D01*
X231308705Y-70332431D01*
X231308140Y-70256633D01*
X231307519Y-70175300D01*
X231306848Y-70088893D01*
X231306129Y-69997876D01*
X231305367Y-69902711D01*
X231304566Y-69803861D01*
X231303730Y-69701786D01*
X231302863Y-69596951D01*
X231301969Y-69489817D01*
X231301051Y-69380846D01*
X231300114Y-69270501D01*
X231299163Y-69159245D01*
X231298199Y-69047539D01*
X231297229Y-68935846D01*
X231296256Y-68824628D01*
X231295284Y-68714349D01*
X231294316Y-68605469D01*
X231293357Y-68498451D01*
X231292411Y-68393758D01*
X231291482Y-68291852D01*
X231290574Y-68193196D01*
X231289691Y-68098251D01*
X231288836Y-68007480D01*
X231288015Y-67921346D01*
X231287230Y-67840311D01*
X231286486Y-67764836D01*
X231285787Y-67695386D01*
X231285137Y-67632421D01*
X231284539Y-67576404D01*
X231283999Y-67527797D01*
X231283519Y-67487064D01*
X231283104Y-67454666D01*
X231282758Y-67431065D01*
X231282485Y-67416724D01*
X231282297Y-67412099D01*
X231277163Y-67412100D01*
G36*
X245466825Y-67411301D02*
G01*
X245466419Y-67416450D01*
X245465704Y-67430863D01*
X245464713Y-67453648D01*
X245463477Y-67483917D01*
X245462028Y-67520777D01*
X245460398Y-67563340D01*
X245458617Y-67610714D01*
X245456718Y-67662008D01*
X245454733Y-67716333D01*
X245452692Y-67772797D01*
X245450629Y-67830510D01*
X245448574Y-67888583D01*
X245446559Y-67946123D01*
X245444615Y-68002241D01*
X245442775Y-68056046D01*
X245441070Y-68106647D01*
X245439532Y-68153155D01*
X245438192Y-68194678D01*
X245437082Y-68230326D01*
X245436234Y-68259209D01*
X245435679Y-68280435D01*
X245435449Y-68293116D01*
X245435445Y-68293950D01*
X245435360Y-68328240D01*
X245472190Y-68327589D01*
X245481249Y-68327385D01*
X245499905Y-68326927D01*
X245527603Y-68326230D01*
X245563783Y-68325308D01*
X245607888Y-68324176D01*
X245659360Y-68322848D01*
X245717641Y-68321338D01*
X245782173Y-68319662D01*
X245852399Y-68317833D01*
X245927760Y-68315866D01*
X246007699Y-68313775D01*
X246091657Y-68311576D01*
X246179078Y-68309282D01*
X246269402Y-68306908D01*
X246354650Y-68304665D01*
X246446552Y-68302223D01*
X246535704Y-68299811D01*
X246621577Y-68297446D01*
X246703640Y-68295145D01*
X246781364Y-68292923D01*
X246854221Y-68290797D01*
X246921680Y-68288782D01*
X246983211Y-68286896D01*
X247038285Y-68285153D01*
X247086374Y-68283572D01*
X247126946Y-68282167D01*
X247159472Y-68280955D01*
X247183424Y-68279953D01*
X247198271Y-68279176D01*
X247203481Y-68278646D01*
X247204295Y-68273170D01*
X247205710Y-68258527D01*
X247207660Y-68235668D01*
X247210076Y-68205543D01*
X247212894Y-68169104D01*
X247216045Y-68127300D01*
X247219464Y-68081083D01*
X247223083Y-68031403D01*
X247226837Y-67979212D01*
X247230657Y-67925459D01*
X247234478Y-67871095D01*
X247238232Y-67817071D01*
X247241854Y-67764339D01*
X247245276Y-67713847D01*
X247248432Y-67666548D01*
X247251254Y-67623391D01*
X247253677Y-67585329D01*
X247255633Y-67553310D01*
X247257056Y-67528286D01*
X247257879Y-67511208D01*
X247258036Y-67503026D01*
X247257943Y-67502449D01*
X247252768Y-67501996D01*
X247238072Y-67501071D01*
X247214479Y-67499705D01*
X247182614Y-67497930D01*
X247143101Y-67495778D01*
X247096566Y-67493280D01*
X247043633Y-67490469D01*
X246984926Y-67487377D01*
X246921070Y-67484034D01*
X246852691Y-67480473D01*
X246780412Y-67476726D01*
X246704859Y-67472824D01*
X246626655Y-67468799D01*
X246546427Y-67464684D01*
X246464797Y-67460509D01*
X246382392Y-67456306D01*
X246299835Y-67452108D01*
X246217751Y-67447946D01*
X246136766Y-67443852D01*
X246057503Y-67439858D01*
X245980588Y-67435995D01*
X245906645Y-67432295D01*
X245836298Y-67428791D01*
X245770173Y-67425513D01*
X245708894Y-67422494D01*
X245653086Y-67419766D01*
X245603373Y-67417359D01*
X245560380Y-67415307D01*
X245524732Y-67413640D01*
X245497054Y-67412391D01*
X245477969Y-67411592D01*
X245468104Y-67411273D01*
X245466825Y-67411301D01*
X245466825Y-67411301D01*
G37*
X245466825Y-67411301D02*
X245466419Y-67416450D01*
X245465704Y-67430863D01*
X245464713Y-67453648D01*
X245463477Y-67483917D01*
X245462028Y-67520777D01*
X245460398Y-67563340D01*
X245458617Y-67610714D01*
X245456718Y-67662008D01*
X245454733Y-67716333D01*
X245452692Y-67772797D01*
X245450629Y-67830510D01*
X245448574Y-67888583D01*
X245446559Y-67946123D01*
X245444615Y-68002241D01*
X245442775Y-68056046D01*
X245441070Y-68106647D01*
X245439532Y-68153155D01*
X245438192Y-68194678D01*
X245437082Y-68230326D01*
X245436234Y-68259209D01*
X245435679Y-68280435D01*
X245435449Y-68293116D01*
X245435445Y-68293950D01*
X245435360Y-68328240D01*
X245472190Y-68327589D01*
X245481249Y-68327385D01*
X245499905Y-68326927D01*
X245527603Y-68326230D01*
X245563783Y-68325308D01*
X245607888Y-68324176D01*
X245659360Y-68322848D01*
X245717641Y-68321338D01*
X245782173Y-68319662D01*
X245852399Y-68317833D01*
X245927760Y-68315866D01*
X246007699Y-68313775D01*
X246091657Y-68311576D01*
X246179078Y-68309282D01*
X246269402Y-68306908D01*
X246354650Y-68304665D01*
X246446552Y-68302223D01*
X246535704Y-68299811D01*
X246621577Y-68297446D01*
X246703640Y-68295145D01*
X246781364Y-68292923D01*
X246854221Y-68290797D01*
X246921680Y-68288782D01*
X246983211Y-68286896D01*
X247038285Y-68285153D01*
X247086374Y-68283572D01*
X247126946Y-68282167D01*
X247159472Y-68280955D01*
X247183424Y-68279953D01*
X247198271Y-68279176D01*
X247203481Y-68278646D01*
X247204295Y-68273170D01*
X247205710Y-68258527D01*
X247207660Y-68235668D01*
X247210076Y-68205543D01*
X247212894Y-68169104D01*
X247216045Y-68127300D01*
X247219464Y-68081083D01*
X247223083Y-68031403D01*
X247226837Y-67979212D01*
X247230657Y-67925459D01*
X247234478Y-67871095D01*
X247238232Y-67817071D01*
X247241854Y-67764339D01*
X247245276Y-67713847D01*
X247248432Y-67666548D01*
X247251254Y-67623391D01*
X247253677Y-67585329D01*
X247255633Y-67553310D01*
X247257056Y-67528286D01*
X247257879Y-67511208D01*
X247258036Y-67503026D01*
X247257943Y-67502449D01*
X247252768Y-67501996D01*
X247238072Y-67501071D01*
X247214479Y-67499705D01*
X247182614Y-67497930D01*
X247143101Y-67495778D01*
X247096566Y-67493280D01*
X247043633Y-67490469D01*
X246984926Y-67487377D01*
X246921070Y-67484034D01*
X246852691Y-67480473D01*
X246780412Y-67476726D01*
X246704859Y-67472824D01*
X246626655Y-67468799D01*
X246546427Y-67464684D01*
X246464797Y-67460509D01*
X246382392Y-67456306D01*
X246299835Y-67452108D01*
X246217751Y-67447946D01*
X246136766Y-67443852D01*
X246057503Y-67439858D01*
X245980588Y-67435995D01*
X245906645Y-67432295D01*
X245836298Y-67428791D01*
X245770173Y-67425513D01*
X245708894Y-67422494D01*
X245653086Y-67419766D01*
X245603373Y-67417359D01*
X245560380Y-67415307D01*
X245524732Y-67413640D01*
X245497054Y-67412391D01*
X245477969Y-67411592D01*
X245468104Y-67411273D01*
X245466825Y-67411301D01*
D15*
X130175000Y-34925000D02*
X132715000Y-34925000D01*
X130175000Y-32385000D02*
X130175000Y-34925000D01*
X114935000Y-62865000D02*
X114935000Y-32385000D01*
X132715000Y-32385000D02*
X132715000Y-62865000D01*
D16*
X151050000Y-52720000D02*
X150560000Y-52230000D01*
X153950000Y-52720000D02*
X151050000Y-52720000D01*
X153950000Y-52720000D02*
X154440000Y-52230000D01*
X153950000Y-47280000D02*
X151050000Y-47280000D01*
X153950000Y-47280000D02*
X154440000Y-47770000D01*
X149780000Y-51040000D02*
X149780000Y-48960000D01*
X151050000Y-47280000D02*
X150560000Y-47770000D01*
X155220000Y-51040000D02*
X155220000Y-48960000D01*
X112900000Y-32330000D02*
X111570000Y-32330000D01*
X111570000Y-32330000D02*
X111570000Y-33660000D01*
X111570000Y-34930000D02*
X111570000Y-40070000D01*
X114230000Y-40070000D02*
X111570000Y-40070000D01*
X114230000Y-34930000D02*
X114230000Y-40070000D01*
X114230000Y-34930000D02*
X111570000Y-34930000D01*
D17*
X119815476Y-34177380D02*
X120148809Y-33701190D01*
X120386904Y-34177380D02*
X120386904Y-33177380D01*
X120005952Y-33177380D01*
X119910714Y-33225000D01*
X119863095Y-33272619D01*
X119815476Y-33367857D01*
X119815476Y-33510714D01*
X119863095Y-33605952D01*
X119910714Y-33653571D01*
X120005952Y-33701190D01*
X120386904Y-33701190D01*
X119434523Y-33891666D02*
X118958333Y-33891666D01*
X119529761Y-34177380D02*
X119196428Y-33177380D01*
X118863095Y-34177380D01*
X118625000Y-33177380D02*
X118386904Y-34177380D01*
X118196428Y-33463095D01*
X118005952Y-34177380D01*
X117767857Y-33177380D01*
X129663095Y-33177380D02*
X129091666Y-33177380D01*
X129377380Y-34177380D02*
X129377380Y-33177380D01*
X128853571Y-33177380D02*
X128186904Y-34177380D01*
X128186904Y-33177380D02*
X128853571Y-34177380D01*
X127615476Y-33177380D02*
X127520238Y-33177380D01*
X127425000Y-33225000D01*
X127377380Y-33272619D01*
X127329761Y-33367857D01*
X127282142Y-33558333D01*
X127282142Y-33796428D01*
X127329761Y-33986904D01*
X127377380Y-34082142D01*
X127425000Y-34129761D01*
X127520238Y-34177380D01*
X127615476Y-34177380D01*
X127710714Y-34129761D01*
X127758333Y-34082142D01*
X127805952Y-33986904D01*
X127853571Y-33796428D01*
X127853571Y-33558333D01*
X127805952Y-33367857D01*
X127758333Y-33272619D01*
X127710714Y-33225000D01*
X127615476Y-33177380D01*
%LPC*%
D14*
G36*
X81239553Y-84403211D02*
G01*
X81225127Y-84407716D01*
X81219200Y-84412914D01*
X81216850Y-84420001D01*
X81210094Y-84439512D01*
X81199375Y-84470189D01*
X81185134Y-84510776D01*
X81167814Y-84560013D01*
X81147856Y-84616646D01*
X81125703Y-84679415D01*
X81101797Y-84747065D01*
X81088581Y-84784427D01*
X81063973Y-84854135D01*
X81040962Y-84919631D01*
X81019983Y-84979657D01*
X81001468Y-85032957D01*
X80985852Y-85078276D01*
X80973568Y-85114357D01*
X80965051Y-85139943D01*
X80960735Y-85153778D01*
X80960299Y-85155917D01*
X80967290Y-85158568D01*
X80987199Y-85165783D01*
X81019258Y-85177291D01*
X81062702Y-85192820D01*
X81116763Y-85212096D01*
X81180675Y-85234848D01*
X81253671Y-85260802D01*
X81334984Y-85289686D01*
X81423847Y-85321229D01*
X81519494Y-85355156D01*
X81621157Y-85391196D01*
X81728071Y-85429077D01*
X81839469Y-85468525D01*
X81945446Y-85506035D01*
X82060620Y-85546796D01*
X82172222Y-85586300D01*
X82279467Y-85624271D01*
X82381571Y-85660429D01*
X82477750Y-85694498D01*
X82567221Y-85726199D01*
X82649198Y-85755254D01*
X82722899Y-85781386D01*
X82787539Y-85804316D01*
X82842334Y-85823767D01*
X82886500Y-85839460D01*
X82919253Y-85851118D01*
X82939808Y-85858463D01*
X82947223Y-85861152D01*
X82966189Y-85868486D01*
X83097950Y-85495086D01*
X83127174Y-85412227D01*
X83151852Y-85341961D01*
X83172259Y-85283194D01*
X83188673Y-85234828D01*
X83201369Y-85195769D01*
X83210623Y-85164919D01*
X83216711Y-85141184D01*
X83219910Y-85123468D01*
X83220495Y-85110674D01*
X83218744Y-85101706D01*
X83214931Y-85095470D01*
X83209333Y-85090868D01*
X83202226Y-85086805D01*
X83200991Y-85086144D01*
X83193617Y-85085047D01*
X83178890Y-85086212D01*
X83155796Y-85089842D01*
X83123319Y-85096144D01*
X83080443Y-85105320D01*
X83026153Y-85117576D01*
X82959434Y-85133115D01*
X82912685Y-85144178D01*
X82851415Y-85158765D01*
X82794331Y-85172395D01*
X82743033Y-85184683D01*
X82699120Y-85195245D01*
X82664190Y-85203696D01*
X82639843Y-85209651D01*
X82627677Y-85212725D01*
X82626809Y-85212972D01*
X82622246Y-85210585D01*
X82614356Y-85200993D01*
X82602682Y-85183411D01*
X82586767Y-85157056D01*
X82566152Y-85121143D01*
X82540381Y-85074887D01*
X82508996Y-85017503D01*
X82471540Y-84948208D01*
X82460666Y-84927986D01*
X82428369Y-84868038D01*
X82397870Y-84811746D01*
X82369913Y-84760463D01*
X82345244Y-84715543D01*
X82324609Y-84678337D01*
X82308753Y-84650199D01*
X82298421Y-84632482D01*
X82294718Y-84626814D01*
X82279542Y-84616493D01*
X82268547Y-84614010D01*
X82258892Y-84616719D01*
X82237278Y-84624518D01*
X82205114Y-84636846D01*
X82163810Y-84653141D01*
X82114777Y-84672842D01*
X82059423Y-84695390D01*
X81999160Y-84720222D01*
X81946600Y-84742091D01*
X81883878Y-84768220D01*
X81825366Y-84792437D01*
X81772400Y-84814199D01*
X81726318Y-84832966D01*
X81688454Y-84848195D01*
X81660146Y-84859345D01*
X81642729Y-84865875D01*
X81637480Y-84867381D01*
X81632676Y-84861184D01*
X81619978Y-84844726D01*
X81600340Y-84819251D01*
X81574721Y-84785999D01*
X81544076Y-84746212D01*
X81509363Y-84701134D01*
X81471539Y-84652005D01*
X81459131Y-84635885D01*
X81420113Y-84585513D01*
X81383405Y-84538723D01*
X81350036Y-84496783D01*
X81321034Y-84460961D01*
X81297430Y-84432524D01*
X81280251Y-84412739D01*
X81270529Y-84402874D01*
X81269251Y-84402049D01*
X81256316Y-84400876D01*
X81239553Y-84403211D01*
X81239553Y-84403211D01*
G37*
X81239553Y-84403211D02*
X81225127Y-84407716D01*
X81219200Y-84412914D01*
X81216850Y-84420001D01*
X81210094Y-84439512D01*
X81199375Y-84470189D01*
X81185134Y-84510776D01*
X81167814Y-84560013D01*
X81147856Y-84616646D01*
X81125703Y-84679415D01*
X81101797Y-84747065D01*
X81088581Y-84784427D01*
X81063973Y-84854135D01*
X81040962Y-84919631D01*
X81019983Y-84979657D01*
X81001468Y-85032957D01*
X80985852Y-85078276D01*
X80973568Y-85114357D01*
X80965051Y-85139943D01*
X80960735Y-85153778D01*
X80960299Y-85155917D01*
X80967290Y-85158568D01*
X80987199Y-85165783D01*
X81019258Y-85177291D01*
X81062702Y-85192820D01*
X81116763Y-85212096D01*
X81180675Y-85234848D01*
X81253671Y-85260802D01*
X81334984Y-85289686D01*
X81423847Y-85321229D01*
X81519494Y-85355156D01*
X81621157Y-85391196D01*
X81728071Y-85429077D01*
X81839469Y-85468525D01*
X81945446Y-85506035D01*
X82060620Y-85546796D01*
X82172222Y-85586300D01*
X82279467Y-85624271D01*
X82381571Y-85660429D01*
X82477750Y-85694498D01*
X82567221Y-85726199D01*
X82649198Y-85755254D01*
X82722899Y-85781386D01*
X82787539Y-85804316D01*
X82842334Y-85823767D01*
X82886500Y-85839460D01*
X82919253Y-85851118D01*
X82939808Y-85858463D01*
X82947223Y-85861152D01*
X82966189Y-85868486D01*
X83097950Y-85495086D01*
X83127174Y-85412227D01*
X83151852Y-85341961D01*
X83172259Y-85283194D01*
X83188673Y-85234828D01*
X83201369Y-85195769D01*
X83210623Y-85164919D01*
X83216711Y-85141184D01*
X83219910Y-85123468D01*
X83220495Y-85110674D01*
X83218744Y-85101706D01*
X83214931Y-85095470D01*
X83209333Y-85090868D01*
X83202226Y-85086805D01*
X83200991Y-85086144D01*
X83193617Y-85085047D01*
X83178890Y-85086212D01*
X83155796Y-85089842D01*
X83123319Y-85096144D01*
X83080443Y-85105320D01*
X83026153Y-85117576D01*
X82959434Y-85133115D01*
X82912685Y-85144178D01*
X82851415Y-85158765D01*
X82794331Y-85172395D01*
X82743033Y-85184683D01*
X82699120Y-85195245D01*
X82664190Y-85203696D01*
X82639843Y-85209651D01*
X82627677Y-85212725D01*
X82626809Y-85212972D01*
X82622246Y-85210585D01*
X82614356Y-85200993D01*
X82602682Y-85183411D01*
X82586767Y-85157056D01*
X82566152Y-85121143D01*
X82540381Y-85074887D01*
X82508996Y-85017503D01*
X82471540Y-84948208D01*
X82460666Y-84927986D01*
X82428369Y-84868038D01*
X82397870Y-84811746D01*
X82369913Y-84760463D01*
X82345244Y-84715543D01*
X82324609Y-84678337D01*
X82308753Y-84650199D01*
X82298421Y-84632482D01*
X82294718Y-84626814D01*
X82279542Y-84616493D01*
X82268547Y-84614010D01*
X82258892Y-84616719D01*
X82237278Y-84624518D01*
X82205114Y-84636846D01*
X82163810Y-84653141D01*
X82114777Y-84672842D01*
X82059423Y-84695390D01*
X81999160Y-84720222D01*
X81946600Y-84742091D01*
X81883878Y-84768220D01*
X81825366Y-84792437D01*
X81772400Y-84814199D01*
X81726318Y-84832966D01*
X81688454Y-84848195D01*
X81660146Y-84859345D01*
X81642729Y-84865875D01*
X81637480Y-84867381D01*
X81632676Y-84861184D01*
X81619978Y-84844726D01*
X81600340Y-84819251D01*
X81574721Y-84785999D01*
X81544076Y-84746212D01*
X81509363Y-84701134D01*
X81471539Y-84652005D01*
X81459131Y-84635885D01*
X81420113Y-84585513D01*
X81383405Y-84538723D01*
X81350036Y-84496783D01*
X81321034Y-84460961D01*
X81297430Y-84432524D01*
X81280251Y-84412739D01*
X81270529Y-84402874D01*
X81269251Y-84402049D01*
X81256316Y-84400876D01*
X81239553Y-84403211D01*
D18*
X154940000Y-111601250D03*
X148590000Y-114141250D03*
X173990000Y-111601250D03*
X167640000Y-114141250D03*
X250190000Y-35401250D03*
X243840000Y-37941250D03*
D19*
X247650000Y-77181250D03*
X247650000Y-79981250D03*
D20*
X247650000Y-74681250D03*
D21*
X247650000Y-82481250D03*
D19*
X247650000Y-58131250D03*
X247650000Y-60931250D03*
D20*
X247650000Y-55631250D03*
D21*
X247650000Y-63431250D03*
D19*
X228600000Y-58131250D03*
X228600000Y-60931250D03*
D20*
X228600000Y-55631250D03*
D21*
X228600000Y-63431250D03*
D19*
X228600000Y-39081250D03*
X228600000Y-41881250D03*
D20*
X228600000Y-36581250D03*
D21*
X228600000Y-44381250D03*
D19*
X209550000Y-96231250D03*
X209550000Y-99031250D03*
D20*
X209550000Y-93731250D03*
D21*
X209550000Y-101531250D03*
D19*
X209550000Y-77181250D03*
X209550000Y-79981250D03*
D20*
X209550000Y-74681250D03*
D21*
X209550000Y-82481250D03*
D19*
X209550000Y-58131250D03*
X209550000Y-60931250D03*
D20*
X209550000Y-55631250D03*
D21*
X209550000Y-63431250D03*
D19*
X209550000Y-39081250D03*
X209550000Y-41881250D03*
D20*
X209550000Y-36581250D03*
D21*
X209550000Y-44381250D03*
D19*
X214312500Y-115281250D03*
X214312500Y-118081250D03*
D20*
X214312500Y-112781250D03*
D21*
X214312500Y-120581250D03*
D19*
X190500000Y-39081250D03*
X190500000Y-41881250D03*
D20*
X190500000Y-36581250D03*
D21*
X190500000Y-44381250D03*
D19*
X171450000Y-96231250D03*
X171450000Y-99031250D03*
D20*
X171450000Y-93731250D03*
D21*
X171450000Y-101531250D03*
D19*
X171450000Y-77181250D03*
X171450000Y-79981250D03*
D20*
X171450000Y-74681250D03*
D21*
X171450000Y-82481250D03*
D19*
X171450000Y-39081250D03*
X171450000Y-41881250D03*
D20*
X171450000Y-36581250D03*
D21*
X171450000Y-44381250D03*
D19*
X152400000Y-96231250D03*
X152400000Y-99031250D03*
D20*
X152400000Y-93731250D03*
D21*
X152400000Y-101531250D03*
D19*
X152500000Y-58100000D03*
X152500000Y-60900000D03*
D20*
X152500000Y-55600000D03*
D21*
X152500000Y-63400000D03*
D19*
X133350000Y-96231250D03*
X133350000Y-99031250D03*
D20*
X133350000Y-93731250D03*
D21*
X133350000Y-101531250D03*
D19*
X114300000Y-77181250D03*
X114300000Y-79981250D03*
D20*
X114300000Y-74681250D03*
D21*
X114300000Y-82481250D03*
D19*
X95250000Y-96231250D03*
X95250000Y-99031250D03*
D20*
X95250000Y-93731250D03*
D21*
X95250000Y-101531250D03*
D19*
X95250000Y-77181250D03*
X95250000Y-79981250D03*
D20*
X95250000Y-74681250D03*
D21*
X95250000Y-82481250D03*
D19*
X95250000Y-39081250D03*
X95250000Y-41881250D03*
D20*
X95250000Y-36581250D03*
D21*
X95250000Y-44381250D03*
D19*
X78581250Y-96231250D03*
X78581250Y-99031250D03*
D20*
X78581250Y-93731250D03*
D21*
X78581250Y-101531250D03*
D19*
X78581250Y-77181250D03*
X78581250Y-79981250D03*
D20*
X78581250Y-74681250D03*
D21*
X78581250Y-82481250D03*
D19*
X78581250Y-58131250D03*
X78581250Y-60931250D03*
D20*
X78581250Y-55631250D03*
D21*
X78581250Y-63431250D03*
D19*
X78581250Y-39081250D03*
X78581250Y-41881250D03*
D20*
X78581250Y-36581250D03*
D21*
X78581250Y-44381250D03*
X247650000Y-101531250D03*
D20*
X247650000Y-93731250D03*
D19*
X247650000Y-99031250D03*
X247650000Y-96231250D03*
D21*
X264318750Y-44381250D03*
D20*
X264318750Y-36581250D03*
D19*
X264318750Y-41881250D03*
X264318750Y-39081250D03*
D21*
X228600000Y-101531250D03*
D20*
X228600000Y-93731250D03*
D19*
X228600000Y-99031250D03*
X228600000Y-96231250D03*
D21*
X228600000Y-82481250D03*
D20*
X228600000Y-74681250D03*
D19*
X228600000Y-79981250D03*
X228600000Y-77181250D03*
D21*
X190500000Y-101531250D03*
D20*
X190500000Y-93731250D03*
D19*
X190500000Y-99031250D03*
X190500000Y-96231250D03*
D21*
X190500000Y-82481250D03*
D20*
X190500000Y-74681250D03*
D19*
X190500000Y-79981250D03*
X190500000Y-77181250D03*
D21*
X190500000Y-63431250D03*
D20*
X190500000Y-55631250D03*
D19*
X190500000Y-60931250D03*
X190500000Y-58131250D03*
D21*
X180975000Y-120581250D03*
D20*
X180975000Y-112781250D03*
D19*
X180975000Y-118081250D03*
X180975000Y-115281250D03*
D21*
X171450000Y-63431250D03*
D20*
X171450000Y-55631250D03*
D19*
X171450000Y-60931250D03*
X171450000Y-58131250D03*
D21*
X142875000Y-120581250D03*
D20*
X142875000Y-112781250D03*
D19*
X142875000Y-118081250D03*
X142875000Y-115281250D03*
D21*
X152400000Y-82481250D03*
D20*
X152400000Y-74681250D03*
D19*
X152400000Y-79981250D03*
X152400000Y-77181250D03*
D21*
X152400000Y-44381250D03*
D20*
X152400000Y-36581250D03*
D19*
X152400000Y-41881250D03*
X152400000Y-39081250D03*
D21*
X109537500Y-120581250D03*
D20*
X109537500Y-112781250D03*
D19*
X109537500Y-118081250D03*
X109537500Y-115281250D03*
D21*
X133350000Y-82481250D03*
D20*
X133350000Y-74681250D03*
D19*
X133350000Y-79981250D03*
X133350000Y-77181250D03*
D21*
X139100000Y-63500000D03*
D20*
X146900000Y-63500000D03*
D22*
X141600000Y-63500000D03*
X144400000Y-63500000D03*
D21*
X135731250Y-44381250D03*
D20*
X135731250Y-36581250D03*
D19*
X135731250Y-41881250D03*
X135731250Y-39081250D03*
D21*
X114300000Y-101531250D03*
D20*
X114300000Y-93731250D03*
D19*
X114300000Y-99031250D03*
X114300000Y-96231250D03*
D21*
X120000000Y-64500000D03*
D20*
X127800000Y-64500000D03*
D22*
X122500000Y-64500000D03*
X125300000Y-64500000D03*
D21*
X127650000Y-48500000D03*
D20*
X119850000Y-48500000D03*
D22*
X125150000Y-48500000D03*
X122350000Y-48500000D03*
D21*
X95250000Y-63431250D03*
D20*
X95250000Y-55631250D03*
D19*
X95250000Y-60931250D03*
X95250000Y-58131250D03*
D23*
X116205000Y-33655000D03*
X131445000Y-61595000D03*
X116205000Y-36195000D03*
X116205000Y-38735000D03*
X116205000Y-41275000D03*
X116205000Y-43815000D03*
X116205000Y-46355000D03*
X116205000Y-48895000D03*
X116205000Y-51435000D03*
X116205000Y-53975000D03*
X116205000Y-56515000D03*
X116205000Y-59055000D03*
X116205000Y-61595000D03*
X131445000Y-59055000D03*
X131445000Y-56515000D03*
X131445000Y-53975000D03*
X131445000Y-51435000D03*
X131445000Y-48895000D03*
X131445000Y-46355000D03*
X131445000Y-43815000D03*
X131445000Y-41275000D03*
X131445000Y-38735000D03*
X131445000Y-36195000D03*
D24*
X131445000Y-33655000D03*
D18*
X126365000Y-54451250D03*
X120015000Y-56991250D03*
X107315000Y-73501250D03*
X100965000Y-76041250D03*
X107315000Y-35401250D03*
X100965000Y-37941250D03*
D25*
X149400000Y-51850000D03*
X155600000Y-51850000D03*
X149400000Y-48150000D03*
X155600000Y-48150000D03*
D18*
X226377500Y-111601250D03*
X220027500Y-114141250D03*
X193040000Y-111601250D03*
X186690000Y-114141250D03*
D26*
X171450000Y-50006250D03*
X95250000Y-88106250D03*
X247650000Y-50006250D03*
X247650000Y-88106250D03*
X209550000Y-107156250D03*
X133350000Y-107156250D03*
X95250000Y-50006250D03*
D18*
X115252500Y-114141250D03*
X121602500Y-111601250D03*
X259715000Y-73501250D03*
X253365000Y-76041250D03*
X221615000Y-73501250D03*
X215265000Y-76041250D03*
X107315000Y-54451250D03*
X100965000Y-56991250D03*
D27*
X112900000Y-38740000D03*
X112900000Y-36200000D03*
D28*
X112900000Y-33660000D03*
D18*
X126365000Y-73501250D03*
X120015000Y-76041250D03*
X88265000Y-92551250D03*
X81915000Y-95091250D03*
X183515000Y-54451250D03*
X177165000Y-56991250D03*
X107315000Y-92551250D03*
X100965000Y-95091250D03*
X145415000Y-92551250D03*
X139065000Y-95091250D03*
X202565000Y-54451250D03*
X196215000Y-56991250D03*
X164465000Y-54451250D03*
X158115000Y-56991250D03*
X259715000Y-92551250D03*
X253365000Y-95091250D03*
X145415000Y-54451250D03*
X139065000Y-56991250D03*
X88265000Y-54451250D03*
X81915000Y-56991250D03*
X240665000Y-92551250D03*
X234315000Y-95091250D03*
X259715000Y-54451250D03*
X253365000Y-56991250D03*
X240665000Y-54451250D03*
X234315000Y-56991250D03*
X183515000Y-92551250D03*
X177165000Y-95091250D03*
X202565000Y-92551250D03*
X196215000Y-95091250D03*
X240665000Y-73501250D03*
X234315000Y-76041250D03*
X202565000Y-73501250D03*
X196215000Y-76041250D03*
X221615000Y-54451250D03*
X215265000Y-56991250D03*
X183515000Y-73501250D03*
X177165000Y-76041250D03*
X164465000Y-73501250D03*
X158115000Y-76041250D03*
X145415000Y-73501250D03*
X139065000Y-76041250D03*
X221615000Y-92551250D03*
X215265000Y-95091250D03*
X126365000Y-92551250D03*
X120015000Y-95091250D03*
X164465000Y-92551250D03*
X158115000Y-95091250D03*
X88265000Y-73501250D03*
X81915000Y-76041250D03*
X240665000Y-35401250D03*
X234315000Y-37941250D03*
X221615000Y-35401250D03*
X215265000Y-37941250D03*
X202565000Y-35401250D03*
X196215000Y-37941250D03*
X183515000Y-35401250D03*
X177165000Y-37941250D03*
X164465000Y-35401250D03*
X158115000Y-37941250D03*
X145415000Y-35401250D03*
X139065000Y-37941250D03*
X126365000Y-35401250D03*
X120015000Y-37941250D03*
X88265000Y-35401250D03*
X81915000Y-37941250D03*
X259715000Y-35401250D03*
X253365000Y-37941250D03*
M02*
