G04 #@! TF.GenerationSoftware,KiCad,Pcbnew,(5.1.2)-2*
G04 #@! TF.CreationDate,2019-10-09T00:02:49-05:00*
G04 #@! TF.ProjectId,ai03-pcb-guide,61693033-2d70-4636-922d-67756964652e,rev?*
G04 #@! TF.SameCoordinates,Original*
G04 #@! TF.FileFunction,Copper,L1,Top*
G04 #@! TF.FilePolarity,Positive*
%FSLAX46Y46*%
G04 Gerber Fmt 4.6, Leading zero omitted, Abs format (unit mm)*
G04 Created by KiCad (PCBNEW (5.1.2)-2) date 2019-10-09 00:02:49*
%MOMM*%
%LPD*%
G04 APERTURE LIST*
%ADD10C,2.286000*%
%ADD11C,1.600000*%
%ADD12R,1.600000X1.600000*%
%ADD13C,1.752600*%
%ADD14R,1.752600X1.752600*%
%ADD15C,3.800000*%
%ADD16O,1.700000X1.700000*%
%ADD17R,1.700000X1.700000*%
%ADD18C,0.450000*%
%ADD19C,0.600000*%
%ADD20C,0.381000*%
%ADD21C,0.254000*%
G04 APERTURE END LIST*
D10*
X154940000Y-111601250D03*
X148590000Y-114141250D03*
X173990000Y-111601250D03*
X167640000Y-114141250D03*
X250190000Y-35401250D03*
X243840000Y-37941250D03*
D11*
X247650000Y-74681250D03*
D12*
X247650000Y-82481250D03*
D11*
X247650000Y-55631250D03*
D12*
X247650000Y-63431250D03*
D11*
X228600000Y-55631250D03*
D12*
X228600000Y-63431250D03*
D11*
X228600000Y-36581250D03*
D12*
X228600000Y-44381250D03*
D11*
X209550000Y-93731250D03*
D12*
X209550000Y-101531250D03*
D11*
X209550000Y-74681250D03*
D12*
X209550000Y-82481250D03*
D11*
X209550000Y-55631250D03*
D12*
X209550000Y-63431250D03*
D11*
X209550000Y-36581250D03*
D12*
X209550000Y-44381250D03*
D11*
X214312500Y-112781250D03*
D12*
X214312500Y-120581250D03*
D11*
X190500000Y-36581250D03*
D12*
X190500000Y-44381250D03*
D11*
X171450000Y-93731250D03*
D12*
X171450000Y-101531250D03*
D11*
X171450000Y-74681250D03*
D12*
X171450000Y-82481250D03*
D11*
X171450000Y-36581250D03*
D12*
X171450000Y-44381250D03*
D11*
X152400000Y-93731250D03*
D12*
X152400000Y-101531250D03*
D11*
X152500000Y-55600000D03*
D12*
X152500000Y-63400000D03*
D11*
X133350000Y-93731250D03*
D12*
X133350000Y-101531250D03*
D11*
X114300000Y-74681250D03*
D12*
X114300000Y-82481250D03*
D11*
X95250000Y-93731250D03*
D12*
X95250000Y-101531250D03*
D11*
X95250000Y-74681250D03*
D12*
X95250000Y-82481250D03*
D11*
X95250000Y-36581250D03*
D12*
X95250000Y-44381250D03*
D11*
X78581250Y-93731250D03*
D12*
X78581250Y-101531250D03*
D11*
X78581250Y-74681250D03*
D12*
X78581250Y-82481250D03*
D11*
X78581250Y-55631250D03*
D12*
X78581250Y-63431250D03*
D11*
X78581250Y-36581250D03*
D12*
X78581250Y-44381250D03*
X247650000Y-101531250D03*
D11*
X247650000Y-93731250D03*
D12*
X264318750Y-44381250D03*
D11*
X264318750Y-36581250D03*
D12*
X228600000Y-101531250D03*
D11*
X228600000Y-93731250D03*
D12*
X228600000Y-82481250D03*
D11*
X228600000Y-74681250D03*
D12*
X190500000Y-101531250D03*
D11*
X190500000Y-93731250D03*
D12*
X190500000Y-82481250D03*
D11*
X190500000Y-74681250D03*
D12*
X190500000Y-63431250D03*
D11*
X190500000Y-55631250D03*
D12*
X180975000Y-120581250D03*
D11*
X180975000Y-112781250D03*
D12*
X171450000Y-63431250D03*
D11*
X171450000Y-55631250D03*
D12*
X142875000Y-120581250D03*
D11*
X142875000Y-112781250D03*
D12*
X152400000Y-82481250D03*
D11*
X152400000Y-74681250D03*
D12*
X152400000Y-44381250D03*
D11*
X152400000Y-36581250D03*
D12*
X109537500Y-120581250D03*
D11*
X109537500Y-112781250D03*
D12*
X133350000Y-82481250D03*
D11*
X133350000Y-74681250D03*
D12*
X139100000Y-63500000D03*
D11*
X146900000Y-63500000D03*
D12*
X135731250Y-44381250D03*
D11*
X135731250Y-36581250D03*
D12*
X114300000Y-101531250D03*
D11*
X114300000Y-93731250D03*
D12*
X120000000Y-64500000D03*
D11*
X127800000Y-64500000D03*
D12*
X127650000Y-48500000D03*
D11*
X119850000Y-48500000D03*
D12*
X95250000Y-63431250D03*
D11*
X95250000Y-55631250D03*
D13*
X116205000Y-33655000D03*
X131445000Y-61595000D03*
X116205000Y-36195000D03*
X116205000Y-38735000D03*
X116205000Y-41275000D03*
X116205000Y-43815000D03*
X116205000Y-46355000D03*
X116205000Y-48895000D03*
X116205000Y-51435000D03*
X116205000Y-53975000D03*
X116205000Y-56515000D03*
X116205000Y-59055000D03*
X116205000Y-61595000D03*
X131445000Y-59055000D03*
X131445000Y-56515000D03*
X131445000Y-53975000D03*
X131445000Y-51435000D03*
X131445000Y-48895000D03*
X131445000Y-46355000D03*
X131445000Y-43815000D03*
X131445000Y-41275000D03*
X131445000Y-38735000D03*
X131445000Y-36195000D03*
D14*
X131445000Y-33655000D03*
D10*
X126365000Y-54451250D03*
X120015000Y-56991250D03*
X107315000Y-73501250D03*
X100965000Y-76041250D03*
X107315000Y-35401250D03*
X100965000Y-37941250D03*
X226377500Y-111601250D03*
X220027500Y-114141250D03*
X193040000Y-111601250D03*
X186690000Y-114141250D03*
D15*
X171450000Y-50006250D03*
X95250000Y-88106250D03*
X247650000Y-50006250D03*
X247650000Y-88106250D03*
X209550000Y-107156250D03*
X133350000Y-107156250D03*
X95250000Y-50006250D03*
D10*
X115252500Y-114141250D03*
X121602500Y-111601250D03*
X259715000Y-73501250D03*
X253365000Y-76041250D03*
X221615000Y-73501250D03*
X215265000Y-76041250D03*
X107315000Y-54451250D03*
X100965000Y-56991250D03*
D16*
X112900000Y-38740000D03*
X112900000Y-36200000D03*
D17*
X112900000Y-33660000D03*
D10*
X126365000Y-73501250D03*
X120015000Y-76041250D03*
X88265000Y-92551250D03*
X81915000Y-95091250D03*
X183515000Y-54451250D03*
X177165000Y-56991250D03*
X107315000Y-92551250D03*
X100965000Y-95091250D03*
X145415000Y-92551250D03*
X139065000Y-95091250D03*
X202565000Y-54451250D03*
X196215000Y-56991250D03*
X164465000Y-54451250D03*
X158115000Y-56991250D03*
X259715000Y-92551250D03*
X253365000Y-95091250D03*
X145415000Y-54451250D03*
X139065000Y-56991250D03*
X88265000Y-54451250D03*
X81915000Y-56991250D03*
X240665000Y-92551250D03*
X234315000Y-95091250D03*
X259715000Y-54451250D03*
X253365000Y-56991250D03*
X240665000Y-54451250D03*
X234315000Y-56991250D03*
X183515000Y-92551250D03*
X177165000Y-95091250D03*
X202565000Y-92551250D03*
X196215000Y-95091250D03*
X240665000Y-73501250D03*
X234315000Y-76041250D03*
X202565000Y-73501250D03*
X196215000Y-76041250D03*
X221615000Y-54451250D03*
X215265000Y-56991250D03*
X183515000Y-73501250D03*
X177165000Y-76041250D03*
X164465000Y-73501250D03*
X158115000Y-76041250D03*
X145415000Y-73501250D03*
X139065000Y-76041250D03*
X221615000Y-92551250D03*
X215265000Y-95091250D03*
X126365000Y-92551250D03*
X120015000Y-95091250D03*
X164465000Y-92551250D03*
X158115000Y-95091250D03*
X88265000Y-73501250D03*
X81915000Y-76041250D03*
X240665000Y-35401250D03*
X234315000Y-37941250D03*
X221615000Y-35401250D03*
X215265000Y-37941250D03*
X202565000Y-35401250D03*
X196215000Y-37941250D03*
X183515000Y-35401250D03*
X177165000Y-37941250D03*
X164465000Y-35401250D03*
X158115000Y-37941250D03*
X145415000Y-35401250D03*
X139065000Y-37941250D03*
X126365000Y-35401250D03*
X120015000Y-37941250D03*
X88265000Y-35401250D03*
X81915000Y-37941250D03*
X259715000Y-35401250D03*
X253365000Y-37941250D03*
D18*
X131445000Y-38735000D02*
X131445000Y-41275000D01*
D19*
X113670000Y-33660000D02*
X114020000Y-34010000D01*
X112900000Y-33660000D02*
X113670000Y-33660000D01*
X114020000Y-34010000D02*
X116205000Y-36195000D01*
D20*
X116205000Y-36195000D02*
X123695000Y-36195000D01*
X126235000Y-38735000D02*
X131445000Y-38735000D01*
X123695000Y-36195000D02*
X126235000Y-38735000D01*
D19*
X113670000Y-38740000D02*
X116205000Y-41275000D01*
X112900000Y-38740000D02*
X113670000Y-38740000D01*
D21*
X119850000Y-48350000D02*
X119850000Y-48500000D01*
X120400000Y-47800000D02*
X119850000Y-48350000D01*
X120400000Y-39942696D02*
X120400000Y-47800000D01*
X120015000Y-39557696D02*
X120400000Y-39942696D01*
X120015000Y-37941250D02*
X120015000Y-39557696D01*
X79635250Y-44381250D02*
X95250000Y-44381250D01*
X78581250Y-44381250D02*
X79635250Y-44381250D01*
X111691250Y-44381250D02*
X116205000Y-48895000D01*
X95250000Y-44381250D02*
X111691250Y-44381250D01*
X134618750Y-44381250D02*
X135731250Y-44381250D01*
X133890000Y-45110000D02*
X134618750Y-44381250D01*
X129986000Y-45110000D02*
X133890000Y-45110000D01*
X127650000Y-48500000D02*
X127650000Y-47446000D01*
X127650000Y-47446000D02*
X129986000Y-45110000D01*
X117310000Y-50000000D02*
X116205000Y-48895000D01*
X127204000Y-50000000D02*
X117310000Y-50000000D01*
X127650000Y-49554000D02*
X127204000Y-50000000D01*
X127650000Y-48500000D02*
X127650000Y-49554000D01*
X96304000Y-63431250D02*
X95250000Y-63431250D01*
X94196000Y-63431250D02*
X78581250Y-63431250D01*
X95250000Y-63431250D02*
X94196000Y-63431250D01*
X96681250Y-63431250D02*
X96304000Y-63431250D01*
X99500000Y-66250000D02*
X97625000Y-64375000D01*
X97625000Y-64375000D02*
X96681250Y-63431250D01*
X120696000Y-66250000D02*
X118250000Y-66250000D01*
X118250000Y-66250000D02*
X99500000Y-66250000D01*
X138046000Y-63500000D02*
X139100000Y-63500000D01*
X135296000Y-66250000D02*
X138046000Y-63500000D01*
X120696000Y-66250000D02*
X135296000Y-66250000D01*
X120000000Y-65554000D02*
X120696000Y-66250000D01*
X120000000Y-64500000D02*
X120000000Y-65554000D01*
X118946000Y-64500000D02*
X120000000Y-64500000D01*
X117870725Y-64500000D02*
X118946000Y-64500000D01*
X116205000Y-62834275D02*
X117870725Y-64500000D01*
X116205000Y-61595000D02*
X116205000Y-62834275D01*
X79635250Y-82481250D02*
X114300000Y-82481250D01*
X78581250Y-82481250D02*
X79635250Y-82481250D01*
X79635250Y-101531250D02*
X114300000Y-101531250D01*
X78581250Y-101531250D02*
X79635250Y-101531250D01*
X114300000Y-101531250D02*
X190500000Y-101531250D01*
X190500000Y-101531250D02*
X247650000Y-101531250D01*
X110591500Y-120581250D02*
X214312500Y-120581250D01*
X109537500Y-120581250D02*
X110591500Y-120581250D01*
D18*
X259715000Y-54451250D02*
X259715000Y-92551250D01*
X259715000Y-52834804D02*
X262500000Y-50049804D01*
X259715000Y-54451250D02*
X259715000Y-52834804D01*
X262500000Y-50049804D02*
X262500000Y-47000000D01*
X262500000Y-47000000D02*
X259750000Y-44250000D01*
X259750000Y-35445251D02*
X259715000Y-35445251D01*
X259750000Y-44250000D02*
X259750000Y-35445251D01*
D21*
X112900000Y-43050000D02*
X116205000Y-46355000D01*
X97530196Y-43050000D02*
X112900000Y-43050000D01*
X89881446Y-35401250D02*
X97530196Y-43050000D01*
X88265000Y-35401250D02*
X89881446Y-35401250D01*
X126365000Y-54451250D02*
X126365000Y-55175000D01*
X126365000Y-90934804D02*
X126365000Y-73501250D01*
X126365000Y-92551250D02*
X126365000Y-90934804D01*
X145415000Y-35401250D02*
X145415000Y-92551250D01*
X145415000Y-64203602D02*
X145415000Y-73501250D01*
X145415000Y-54451250D02*
X145415000Y-64203602D01*
X164465000Y-39586316D02*
X164465000Y-35401250D01*
X164465000Y-92551250D02*
X164465000Y-39586316D01*
X183515000Y-92551250D02*
X183515000Y-35401250D01*
X202565000Y-35401250D02*
X202565000Y-92551250D01*
X221615000Y-92551250D02*
X221615000Y-35401250D01*
D18*
X240665000Y-35401250D02*
X240665000Y-92551250D01*
X116205000Y-43815000D02*
X115815000Y-43815000D01*
M02*
