M48
; DRILL file {KiCad (5.1.2)-2} date 10/9/2019 12:02:51 AM
; FORMAT={-:-/ absolute / inch / decimal}
; #@! TF.CreationDate,2019-10-09T00:02:51-05:00
; #@! TF.GenerationSoftware,Kicad,Pcbnew,(5.1.2)-2
; #@! TF.FileFunction,Plated,1,2,PTH
FMAT,2
INCH
T1C0.0394
T2C0.0430
T3C0.0590
T4C0.0866
%
G90
G05
T1
X10.4062Y-1.4402
X10.4062Y-1.7473
X6.0039Y-2.189
X6.0039Y-2.4961
X9.0Y-2.9402
X9.0Y-3.2473
X3.75Y-3.6902
X3.75Y-3.9973
X3.75Y-1.4402
X3.75Y-1.7473
X8.25Y-1.4402
X8.25Y-1.7473
X4.4449Y-1.3252
X4.4449Y-1.4252
X4.4449Y-1.5252
X9.0Y-1.4402
X9.0Y-1.7473
X9.0Y-2.1902
X9.0Y-2.4973
X9.0Y-3.6902
X9.0Y-3.9973
X9.75Y-3.6902
X9.75Y-3.9973
X6.75Y-3.6902
X6.75Y-3.9973
X7.5Y-2.1902
X7.5Y-2.4973
X6.0Y-2.9402
X6.0Y-3.2473
X3.75Y-2.1902
X3.75Y-2.4973
X4.7185Y-1.9094
X5.0256Y-1.9094
X4.5Y-2.9402
X4.5Y-3.2473
X3.0938Y-2.1902
X3.0938Y-2.4973
X7.5Y-1.4402
X7.5Y-1.7473
X4.3125Y-4.4402
X4.3125Y-4.7473
X6.75Y-1.4402
X6.75Y-1.7473
X6.0Y-1.4402
X6.0Y-1.7473
X8.25Y-3.6902
X8.25Y-3.9973
X3.0938Y-3.6902
X3.0938Y-3.9973
X8.25Y-2.9402
X8.25Y-3.2473
X3.0938Y-1.4402
X3.0938Y-1.7473
X7.5Y-3.6902
X7.5Y-3.9973
X6.0Y-3.6902
X6.0Y-3.9973
X4.5Y-3.6902
X4.5Y-3.9973
X3.0938Y-2.9402
X3.0938Y-3.2473
X9.75Y-2.9402
X9.75Y-3.2473
X8.25Y-2.1902
X8.25Y-2.4973
X5.625Y-4.4402
X5.625Y-4.7473
X9.75Y-2.1902
X9.75Y-2.4973
X5.25Y-2.9402
X5.25Y-3.2473
X5.25Y-3.6902
X5.25Y-3.9973
X4.7244Y-2.5394
X5.0315Y-2.5394
X5.3438Y-1.4402
X5.3438Y-1.7473
X3.75Y-2.9402
X3.75Y-3.2473
X7.125Y-4.4402
X7.125Y-4.7473
X6.75Y-2.9402
X6.75Y-3.2473
X7.5Y-2.9402
X7.5Y-3.2473
X8.4375Y-4.4402
X8.4375Y-4.7473
X5.4764Y-2.5
X5.7835Y-2.5
X6.75Y-2.1902
X6.75Y-2.4973
T2
X4.575Y-1.325
X4.575Y-1.425
X4.575Y-1.525
X4.575Y-1.625
X4.575Y-1.725
X4.575Y-1.825
X4.575Y-1.925
X4.575Y-2.025
X4.575Y-2.125
X4.575Y-2.225
X4.575Y-2.325
X4.575Y-2.425
X5.175Y-1.325
X5.175Y-1.425
X5.175Y-1.525
X5.175Y-1.625
X5.175Y-1.725
X5.175Y-1.825
X5.175Y-1.925
X5.175Y-2.025
X5.175Y-2.125
X5.175Y-2.225
X5.175Y-2.325
X5.175Y-2.425
T3
X5.475Y-2.9937
X5.725Y-2.8937
X3.225Y-3.7437
X3.475Y-3.6437
X3.225Y-1.4937
X3.475Y-1.3938
X9.225Y-2.9937
X9.475Y-2.8937
X5.475Y-3.7437
X5.725Y-3.6437
X9.975Y-3.7437
X10.225Y-3.6437
X4.725Y-1.4937
X4.975Y-1.3938
X7.725Y-2.9937
X7.975Y-2.8937
X3.975Y-1.4937
X4.225Y-1.3938
X6.6Y-4.4937
X6.85Y-4.3937
X6.975Y-2.9937
X7.225Y-2.8937
X9.225Y-1.4937
X9.475Y-1.3938
X4.5375Y-4.4937
X4.7875Y-4.3937
X8.475Y-2.9937
X8.725Y-2.8937
X6.225Y-3.7437
X6.475Y-3.6437
X6.975Y-2.2437
X7.225Y-2.1437
X6.225Y-1.4937
X6.475Y-1.3938
X7.725Y-2.2437
X7.975Y-2.1437
X8.475Y-1.4937
X8.725Y-1.3938
X5.475Y-2.2437
X5.725Y-2.1437
X5.85Y-4.4937
X6.1Y-4.3937
X4.725Y-3.7437
X4.975Y-3.6437
X9.6Y-1.4937
X9.85Y-1.3938
X8.475Y-2.2437
X8.725Y-2.1437
X3.225Y-2.9937
X3.475Y-2.8937
X5.475Y-1.4937
X5.725Y-1.3938
X6.225Y-2.9937
X6.475Y-2.8937
X7.35Y-4.4937
X7.6Y-4.3937
X7.725Y-3.7437
X7.975Y-3.6437
X4.725Y-2.9937
X4.975Y-2.8937
X9.225Y-2.2437
X9.475Y-2.1437
X3.975Y-2.9937
X4.225Y-2.8937
X3.975Y-3.7437
X4.225Y-3.6437
X6.975Y-1.4937
X7.225Y-1.3938
X6.225Y-2.2437
X6.475Y-2.1437
X6.975Y-3.7437
X7.225Y-3.6437
X3.225Y-2.2437
X3.475Y-2.1437
X9.975Y-2.2437
X10.225Y-2.1437
X4.725Y-2.2437
X4.975Y-2.1437
X7.725Y-1.4937
X7.975Y-1.3938
X8.475Y-3.7437
X8.725Y-3.6437
X3.975Y-2.2437
X4.225Y-2.1437
X9.975Y-1.4937
X10.225Y-1.3938
X8.6625Y-4.4937
X8.9125Y-4.3937
X9.225Y-3.7437
X9.475Y-3.6437
X9.975Y-2.9937
X10.225Y-2.8937
T4
X6.75Y-1.9688
X3.75Y-3.4688
X3.75Y-1.9688
X5.25Y-4.2188
X9.75Y-1.9688
X9.75Y-3.4688
X8.25Y-4.2188
T0
M30
