G04 #@! TF.GenerationSoftware,KiCad,Pcbnew,(5.1.2)-2*
G04 #@! TF.CreationDate,2020-03-31T18:24:28-05:00*
G04 #@! TF.ProjectId,Schwann_Rev3.1_RGB,53636877-616e-46e5-9f52-6576332e315f,rev?*
G04 #@! TF.SameCoordinates,Original*
G04 #@! TF.FileFunction,Profile,NP*
%FSLAX46Y46*%
G04 Gerber Fmt 4.6, Leading zero omitted, Abs format (unit mm)*
G04 Created by KiCad (PCBNEW (5.1.2)-2) date 2020-03-31 18:24:28*
%MOMM*%
%LPD*%
G04 APERTURE LIST*
%ADD10C,0.050000*%
G04 APERTURE END LIST*
D10*
X36449916Y-71120750D02*
G75*
G03X36449916Y-71120750I-1666666J0D01*
G01*
X32283250Y-71120750D02*
X37283250Y-71120750D01*
X34783250Y-68620750D02*
X34783250Y-73620750D01*
X37164500Y-128270750D02*
X47931250Y-128270750D01*
X58208249Y-70501708D02*
G75*
G02X58808249Y-71120749I1J-600292D01*
G01*
X48608250Y-71102000D02*
G75*
G02X49208250Y-70502000I600000J0D01*
G01*
X58208249Y-70501708D02*
X49208250Y-70502000D01*
X261002000Y-71120750D02*
G75*
G02X263383250Y-73502000I0J-2381250D01*
G01*
X263383250Y-125889500D02*
G75*
G02X261002000Y-128270750I-2381250J0D01*
G01*
X244333250Y-130652000D02*
G75*
G02X246714500Y-128270750I2381250J0D01*
G01*
X244333250Y-144939500D02*
G75*
G02X241952000Y-147320750I-2381250J0D01*
G01*
X56214500Y-147320750D02*
G75*
G02X53833250Y-144939500I0J2381250D01*
G01*
X51452000Y-128270750D02*
G75*
G02X53833250Y-130652000I0J-2381250D01*
G01*
X37164500Y-128270750D02*
G75*
G02X34783250Y-125889500I0J2381250D01*
G01*
X34783250Y-73502000D02*
G75*
G02X37164500Y-71120750I2381250J0D01*
G01*
X48608250Y-71102000D02*
X37164500Y-71120750D01*
X261002000Y-71120750D02*
X58808249Y-71120749D01*
X263383250Y-125889500D02*
X263383250Y-73502000D01*
X246714500Y-128270750D02*
X261002000Y-128270750D01*
X244333250Y-144939500D02*
X244333250Y-130652000D01*
X56214500Y-147320750D02*
X241952000Y-147320750D01*
X53833250Y-130652000D02*
X53833250Y-144939500D01*
X47931250Y-128270750D02*
X51452000Y-128270750D01*
X34783250Y-73502000D02*
X34783250Y-125889500D01*
M02*
