M48
; DRILL file {KiCad (5.1.2)-2} date 03/31/20 18:24:30
; FORMAT={-:-/ absolute / inch / decimal}
; #@! TF.CreationDate,2020-03-31T18:24:30-05:00
; #@! TF.GenerationSoftware,Kicad,Pcbnew,(5.1.2)-2
; #@! TF.FileFunction,NonPlated,1,2,NPTH
FMAT,2
INCH
T1C0.0256
T2C0.0709
T3C0.1200
T4C0.1570
%
G90
G05
T1
X2.0006Y-2.9638
X2.2282Y-2.9638
T2
X6.0394Y-4.67
X6.4394Y-4.67
X6.7894Y-4.67
X7.1894Y-4.67
X5.2894Y-5.42
X5.6894Y-5.42
X4.5394Y-3.92
X4.9394Y-3.92
X7.5394Y-3.92
X7.9394Y-3.92
X9.7894Y-4.67
X10.1894Y-4.67
X7.5394Y-3.17
X7.9394Y-3.17
X1.5394Y-4.67
X1.9394Y-4.67
X9.0394Y-3.17
X9.4394Y-3.17
X2.2894Y-5.42
X2.6894Y-5.42
X6.0394Y-3.17
X6.4394Y-3.17
X2.4769Y-5.42
X2.8769Y-5.42
X7.5394Y-4.67
X7.9394Y-4.67
X9.7894Y-3.17
X10.1894Y-3.17
X6.7894Y-3.17
X7.1894Y-3.17
X6.7894Y-3.92
X7.1894Y-3.92
X6.7894Y-5.42
X7.1894Y-5.42
X2.2894Y-4.67
X2.6894Y-4.67
X5.2894Y-3.92
X5.6894Y-3.92
X6.0394Y-5.42
X6.4394Y-5.42
X5.2894Y-3.17
X5.6894Y-3.17
X3.7894Y-4.67
X4.1894Y-4.67
X8.2894Y-5.42
X8.6894Y-5.42
X2.2894Y-3.17
X2.6894Y-3.17
X8.2894Y-3.92
X8.6894Y-3.92
X4.5394Y-5.42
X4.9394Y-5.42
X2.2894Y-3.92
X2.6894Y-3.92
X4.5394Y-4.67
X4.9394Y-4.67
X9.0394Y-4.67
X9.4394Y-4.67
X8.2894Y-3.17
X8.6894Y-3.17
X3.0394Y-4.67
X3.4394Y-4.67
X8.2894Y-4.67
X8.6894Y-4.67
X3.0394Y-3.17
X3.4394Y-3.17
X8.8519Y-5.42
X9.2519Y-5.42
X9.0394Y-3.92
X9.4394Y-3.92
X7.5394Y-5.42
X7.9394Y-5.42
X3.0394Y-3.92
X3.4394Y-3.92
X3.7894Y-3.92
X4.1894Y-3.92
X9.0394Y-5.42
X9.4394Y-5.42
X6.0394Y-3.92
X6.4394Y-3.92
X3.7894Y-5.42
X4.1894Y-5.42
X5.2894Y-4.67
X5.6894Y-4.67
X3.0394Y-5.42
X3.4394Y-5.42
X3.7894Y-3.17
X4.1894Y-3.17
X1.5394Y-3.92
X1.9394Y-3.92
X4.5394Y-3.17
X4.9394Y-3.17
X9.7894Y-3.92
X10.1894Y-3.92
X5.6644Y-5.42
X6.0644Y-5.42
X1.5394Y-3.17
X1.9394Y-3.17
T3
X8.1144Y-5.695
T4
X9.2394Y-3.92
X7.7394Y-5.42
X3.2394Y-3.92
X3.9894Y-3.92
X9.2394Y-5.42
X6.2394Y-3.92
X3.9894Y-5.42
X5.4894Y-4.67
X3.2394Y-5.42
X3.9894Y-3.17
X1.7394Y-3.92
X4.7394Y-3.17
X9.9894Y-3.92
X5.8644Y-5.42
X1.7394Y-3.17
X6.2394Y-4.67
X6.9894Y-4.67
X5.4894Y-5.42
X4.7394Y-3.92
X7.7394Y-3.92
X9.9894Y-4.67
X7.7394Y-3.17
X1.7394Y-4.67
X9.2394Y-3.17
X2.4894Y-5.42
X6.2394Y-3.17
X2.6769Y-5.42
X7.7394Y-4.67
X9.9894Y-3.17
X6.9894Y-3.17
X6.9894Y-3.92
X6.9894Y-5.42
X2.4894Y-4.67
X5.4894Y-3.92
X6.2394Y-5.42
X5.4894Y-3.17
X3.9894Y-4.67
X8.4894Y-5.42
X2.4894Y-3.17
X8.4894Y-3.92
X4.7394Y-5.42
X2.4894Y-3.92
X4.7394Y-4.67
X9.2394Y-4.67
X8.4894Y-3.17
X3.2394Y-4.67
X8.4894Y-4.67
X3.2394Y-3.17
X9.0519Y-5.42
T0
M30
