M48
; DRILL file {KiCad (5.1.2)-2} date 03/31/20 18:24:30
; FORMAT={-:-/ absolute / inch / decimal}
; #@! TF.CreationDate,2020-03-31T18:24:30-05:00
; #@! TF.GenerationSoftware,Kicad,Pcbnew,(5.1.2)-2
; #@! TF.FileFunction,Plated,1,2,PTH
FMAT,2
INCH
T1C0.0138
T2C0.0157
T3C0.0236
T4C0.0590
T5C0.1200
T6C0.1570
%
G90
G05
T1
X1.9048Y-4.0972
X1.954Y-4.2251
X1.954Y-4.2704
X1.9662Y-3.2808
X2.015Y-3.4819
X2.391Y-3.3826
X2.4693Y-4.2256
X2.5997Y-4.1641
X2.6272Y-3.8812
X2.6894Y-4.8181
X2.7716Y-4.1177
X2.7906Y-3.4126
X2.9274Y-4.1021
X2.9906Y-4.013
X2.9914Y-4.5519
X3.0402Y-4.8181
X3.1115Y-4.4456
X3.1571Y-4.4456
X3.5588Y-4.1626
X3.5839Y-3.5421
X4.7335Y-3.4751
X4.7375Y-5.6218
X4.7414Y-5.5736
X4.8516Y-5.6267
X6.6154Y-2.8846
X6.6154Y-3.4751
X6.9579Y-5.7055
X6.9973Y-5.5775
X7.0012Y-3.3492
X9.5162Y-5.0327
X9.9678Y-4.0763
X9.9678Y-4.2035
X10.2158Y-4.0322
T2
X2.5024Y-4.3629
T4
X3.0894Y-4.57
X3.3394Y-4.47
X8.3394Y-4.57
X8.5894Y-4.47
X3.0894Y-3.07
X3.3394Y-2.97
X8.9019Y-5.32
X9.1519Y-5.22
X9.0894Y-3.82
X9.3394Y-3.72
X7.5894Y-5.32
X7.8394Y-5.22
X3.0894Y-3.82
X3.3394Y-3.72
X3.8394Y-3.82
X4.0894Y-3.72
X9.0894Y-5.32
X9.3394Y-5.22
X6.0894Y-3.82
X6.3394Y-3.72
X3.8394Y-5.32
X4.0894Y-5.22
X5.3394Y-4.57
X5.5894Y-4.47
X3.0894Y-5.32
X3.3394Y-5.22
X3.8394Y-3.07
X4.0894Y-2.97
X1.5894Y-3.82
X1.8394Y-3.72
X4.5894Y-3.07
X4.8394Y-2.97
X9.8394Y-3.82
X10.0894Y-3.72
X5.7144Y-5.32
X5.9644Y-5.22
X1.5894Y-3.07
X1.8394Y-2.97
X6.0894Y-4.57
X6.3394Y-4.47
X6.8394Y-4.57
X7.0894Y-4.47
X5.3394Y-5.32
X5.5894Y-5.22
X4.5894Y-3.82
X4.8394Y-3.72
X7.5894Y-3.82
X7.8394Y-3.72
X9.8394Y-4.57
X10.0894Y-4.47
X7.5894Y-3.07
X7.8394Y-2.97
X1.5894Y-4.57
X1.8394Y-4.47
X9.0894Y-3.07
X9.3394Y-2.97
X2.3394Y-5.32
X2.5894Y-5.22
X6.0894Y-3.07
X6.3394Y-2.97
X2.5269Y-5.32
X2.7769Y-5.22
X7.5894Y-4.57
X7.8394Y-4.47
X9.8394Y-3.07
X10.0894Y-2.97
X6.8394Y-3.07
X7.0894Y-2.97
X6.8394Y-3.82
X7.0894Y-3.72
X6.8394Y-5.32
X7.0894Y-5.22
X2.3394Y-4.57
X2.5894Y-4.47
X5.3394Y-3.82
X5.5894Y-3.72
X6.0894Y-5.32
X6.3394Y-5.22
X5.3394Y-3.07
X5.5894Y-2.97
X3.8394Y-4.57
X4.0894Y-4.47
X8.3394Y-5.32
X8.5894Y-5.22
X2.3394Y-3.07
X2.5894Y-2.97
X8.3394Y-3.82
X8.5894Y-3.72
X4.5894Y-5.32
X4.8394Y-5.22
X2.3394Y-3.82
X2.5894Y-3.72
X4.5894Y-4.57
X4.8394Y-4.47
X9.0894Y-4.57
X9.3394Y-4.47
X8.3394Y-3.07
X8.5894Y-2.97
T5
X5.3944Y-5.695
X6.3344Y-5.695
X3.6144Y-5.695
X8.1144Y-5.695
T6
X5.3944Y-5.095
X6.3344Y-5.095
X3.6144Y-5.095
X8.1144Y-5.095
T3
G00X1.9443Y-2.8083
M15
G01X1.9443Y-2.8319
M16
G05
G00X1.9443Y-2.963
M15
G01X1.9443Y-3.0063
M16
G05
G00X2.2845Y-2.8083
M15
G01X2.2845Y-2.8319
M16
G05
G00X2.2845Y-2.963
M15
G01X2.2845Y-3.0063
M16
G05
T0
M30
