G04 #@! TF.GenerationSoftware,KiCad,Pcbnew,(5.1.2)-2*
G04 #@! TF.CreationDate,2020-03-31T18:24:28-05:00*
G04 #@! TF.ProjectId,Schwann_Rev3.1_RGB,53636877-616e-46e5-9f52-6576332e315f,rev?*
G04 #@! TF.SameCoordinates,Original*
G04 #@! TF.FileFunction,Copper,L2,Bot*
G04 #@! TF.FilePolarity,Positive*
%FSLAX46Y46*%
G04 Gerber Fmt 4.6, Leading zero omitted, Abs format (unit mm)*
G04 Created by KiCad (PCBNEW (5.1.2)-2) date 2020-03-31 18:24:28*
%MOMM*%
%LPD*%
G04 APERTURE LIST*
%ADD10C,0.010000*%
%ADD11C,6.000000*%
%ADD12C,4.000000*%
%ADD13C,0.100000*%
%ADD14C,0.950000*%
%ADD15R,1.501140X0.899160*%
%ADD16R,0.600000X1.450000*%
%ADD17R,0.300000X1.450000*%
%ADD18O,1.000000X2.100000*%
%ADD19O,1.000000X1.600000*%
%ADD20C,2.286000*%
%ADD21R,1.200000X1.200000*%
%ADD22R,1.600000X0.700000*%
%ADD23R,1.600000X0.500000*%
%ADD24C,0.250000*%
%ADD25C,0.975000*%
%ADD26C,1.250000*%
%ADD27C,0.600000*%
%ADD28C,0.800000*%
%ADD29C,0.300000*%
%ADD30C,0.250000*%
%ADD31C,0.325000*%
%ADD32C,0.254000*%
G04 APERTURE END LIST*
D10*
G36*
X188270803Y-126984461D02*
G01*
X188256377Y-126988966D01*
X188250450Y-126994164D01*
X188248100Y-127001251D01*
X188241344Y-127020762D01*
X188230625Y-127051439D01*
X188216384Y-127092026D01*
X188199064Y-127141263D01*
X188179106Y-127197896D01*
X188156953Y-127260665D01*
X188133047Y-127328315D01*
X188119831Y-127365677D01*
X188095223Y-127435385D01*
X188072212Y-127500881D01*
X188051233Y-127560907D01*
X188032718Y-127614207D01*
X188017102Y-127659526D01*
X188004818Y-127695607D01*
X187996301Y-127721193D01*
X187991985Y-127735028D01*
X187991549Y-127737167D01*
X187998540Y-127739818D01*
X188018449Y-127747033D01*
X188050508Y-127758541D01*
X188093952Y-127774070D01*
X188148013Y-127793346D01*
X188211925Y-127816098D01*
X188284921Y-127842052D01*
X188366234Y-127870936D01*
X188455097Y-127902479D01*
X188550744Y-127936406D01*
X188652407Y-127972446D01*
X188759321Y-128010327D01*
X188870719Y-128049775D01*
X188976696Y-128087285D01*
X189091870Y-128128046D01*
X189203472Y-128167550D01*
X189310717Y-128205521D01*
X189412821Y-128241679D01*
X189509000Y-128275748D01*
X189598471Y-128307449D01*
X189680448Y-128336504D01*
X189754149Y-128362636D01*
X189818789Y-128385566D01*
X189873584Y-128405017D01*
X189917750Y-128420710D01*
X189950503Y-128432368D01*
X189971058Y-128439713D01*
X189978473Y-128442402D01*
X189997439Y-128449736D01*
X190129200Y-128076336D01*
X190158424Y-127993477D01*
X190183102Y-127923211D01*
X190203509Y-127864444D01*
X190219923Y-127816078D01*
X190232619Y-127777019D01*
X190241873Y-127746169D01*
X190247961Y-127722434D01*
X190251160Y-127704718D01*
X190251745Y-127691924D01*
X190249994Y-127682956D01*
X190246181Y-127676720D01*
X190240583Y-127672118D01*
X190233476Y-127668055D01*
X190232241Y-127667394D01*
X190224867Y-127666297D01*
X190210140Y-127667462D01*
X190187046Y-127671092D01*
X190154569Y-127677394D01*
X190111693Y-127686570D01*
X190057403Y-127698826D01*
X189990684Y-127714365D01*
X189943935Y-127725428D01*
X189882665Y-127740015D01*
X189825581Y-127753645D01*
X189774283Y-127765933D01*
X189730370Y-127776495D01*
X189695440Y-127784946D01*
X189671093Y-127790901D01*
X189658927Y-127793975D01*
X189658059Y-127794222D01*
X189653496Y-127791835D01*
X189645606Y-127782243D01*
X189633932Y-127764661D01*
X189618017Y-127738306D01*
X189597402Y-127702393D01*
X189571631Y-127656137D01*
X189540246Y-127598753D01*
X189502790Y-127529458D01*
X189491916Y-127509236D01*
X189459619Y-127449288D01*
X189429120Y-127392996D01*
X189401163Y-127341713D01*
X189376494Y-127296793D01*
X189355859Y-127259587D01*
X189340003Y-127231449D01*
X189329671Y-127213732D01*
X189325968Y-127208064D01*
X189310792Y-127197743D01*
X189299797Y-127195260D01*
X189290142Y-127197969D01*
X189268528Y-127205768D01*
X189236364Y-127218096D01*
X189195060Y-127234391D01*
X189146027Y-127254092D01*
X189090673Y-127276640D01*
X189030410Y-127301472D01*
X188977850Y-127323341D01*
X188915128Y-127349470D01*
X188856616Y-127373687D01*
X188803650Y-127395449D01*
X188757568Y-127414216D01*
X188719704Y-127429445D01*
X188691396Y-127440595D01*
X188673979Y-127447125D01*
X188668730Y-127448631D01*
X188663926Y-127442434D01*
X188651228Y-127425976D01*
X188631590Y-127400501D01*
X188605971Y-127367249D01*
X188575326Y-127327462D01*
X188540613Y-127282384D01*
X188502789Y-127233255D01*
X188490381Y-127217135D01*
X188451363Y-127166763D01*
X188414655Y-127119973D01*
X188381286Y-127078033D01*
X188352284Y-127042211D01*
X188328680Y-127013774D01*
X188311501Y-126993989D01*
X188301779Y-126984124D01*
X188300501Y-126983299D01*
X188287566Y-126982126D01*
X188270803Y-126984461D01*
X188270803Y-126984461D01*
G37*
X188270803Y-126984461D02*
X188256377Y-126988966D01*
X188250450Y-126994164D01*
X188248100Y-127001251D01*
X188241344Y-127020762D01*
X188230625Y-127051439D01*
X188216384Y-127092026D01*
X188199064Y-127141263D01*
X188179106Y-127197896D01*
X188156953Y-127260665D01*
X188133047Y-127328315D01*
X188119831Y-127365677D01*
X188095223Y-127435385D01*
X188072212Y-127500881D01*
X188051233Y-127560907D01*
X188032718Y-127614207D01*
X188017102Y-127659526D01*
X188004818Y-127695607D01*
X187996301Y-127721193D01*
X187991985Y-127735028D01*
X187991549Y-127737167D01*
X187998540Y-127739818D01*
X188018449Y-127747033D01*
X188050508Y-127758541D01*
X188093952Y-127774070D01*
X188148013Y-127793346D01*
X188211925Y-127816098D01*
X188284921Y-127842052D01*
X188366234Y-127870936D01*
X188455097Y-127902479D01*
X188550744Y-127936406D01*
X188652407Y-127972446D01*
X188759321Y-128010327D01*
X188870719Y-128049775D01*
X188976696Y-128087285D01*
X189091870Y-128128046D01*
X189203472Y-128167550D01*
X189310717Y-128205521D01*
X189412821Y-128241679D01*
X189509000Y-128275748D01*
X189598471Y-128307449D01*
X189680448Y-128336504D01*
X189754149Y-128362636D01*
X189818789Y-128385566D01*
X189873584Y-128405017D01*
X189917750Y-128420710D01*
X189950503Y-128432368D01*
X189971058Y-128439713D01*
X189978473Y-128442402D01*
X189997439Y-128449736D01*
X190129200Y-128076336D01*
X190158424Y-127993477D01*
X190183102Y-127923211D01*
X190203509Y-127864444D01*
X190219923Y-127816078D01*
X190232619Y-127777019D01*
X190241873Y-127746169D01*
X190247961Y-127722434D01*
X190251160Y-127704718D01*
X190251745Y-127691924D01*
X190249994Y-127682956D01*
X190246181Y-127676720D01*
X190240583Y-127672118D01*
X190233476Y-127668055D01*
X190232241Y-127667394D01*
X190224867Y-127666297D01*
X190210140Y-127667462D01*
X190187046Y-127671092D01*
X190154569Y-127677394D01*
X190111693Y-127686570D01*
X190057403Y-127698826D01*
X189990684Y-127714365D01*
X189943935Y-127725428D01*
X189882665Y-127740015D01*
X189825581Y-127753645D01*
X189774283Y-127765933D01*
X189730370Y-127776495D01*
X189695440Y-127784946D01*
X189671093Y-127790901D01*
X189658927Y-127793975D01*
X189658059Y-127794222D01*
X189653496Y-127791835D01*
X189645606Y-127782243D01*
X189633932Y-127764661D01*
X189618017Y-127738306D01*
X189597402Y-127702393D01*
X189571631Y-127656137D01*
X189540246Y-127598753D01*
X189502790Y-127529458D01*
X189491916Y-127509236D01*
X189459619Y-127449288D01*
X189429120Y-127392996D01*
X189401163Y-127341713D01*
X189376494Y-127296793D01*
X189355859Y-127259587D01*
X189340003Y-127231449D01*
X189329671Y-127213732D01*
X189325968Y-127208064D01*
X189310792Y-127197743D01*
X189299797Y-127195260D01*
X189290142Y-127197969D01*
X189268528Y-127205768D01*
X189236364Y-127218096D01*
X189195060Y-127234391D01*
X189146027Y-127254092D01*
X189090673Y-127276640D01*
X189030410Y-127301472D01*
X188977850Y-127323341D01*
X188915128Y-127349470D01*
X188856616Y-127373687D01*
X188803650Y-127395449D01*
X188757568Y-127414216D01*
X188719704Y-127429445D01*
X188691396Y-127440595D01*
X188673979Y-127447125D01*
X188668730Y-127448631D01*
X188663926Y-127442434D01*
X188651228Y-127425976D01*
X188631590Y-127400501D01*
X188605971Y-127367249D01*
X188575326Y-127327462D01*
X188540613Y-127282384D01*
X188502789Y-127233255D01*
X188490381Y-127217135D01*
X188451363Y-127166763D01*
X188414655Y-127119973D01*
X188381286Y-127078033D01*
X188352284Y-127042211D01*
X188328680Y-127013774D01*
X188311501Y-126993989D01*
X188301779Y-126984124D01*
X188300501Y-126983299D01*
X188287566Y-126982126D01*
X188270803Y-126984461D01*
D11*
X206106250Y-129413750D03*
D12*
X206106250Y-144653750D03*
X91806250Y-144653750D03*
D11*
X91806250Y-129413750D03*
D13*
G36*
X64942029Y-108519894D02*
G01*
X64965084Y-108523313D01*
X64987693Y-108528977D01*
X65009637Y-108536829D01*
X65030707Y-108546794D01*
X65050698Y-108558776D01*
X65069418Y-108572660D01*
X65086688Y-108588312D01*
X65102340Y-108605582D01*
X65116224Y-108624302D01*
X65128206Y-108644293D01*
X65138171Y-108665363D01*
X65146023Y-108687307D01*
X65151687Y-108709916D01*
X65155106Y-108732971D01*
X65156250Y-108756250D01*
X65156250Y-109331250D01*
X65155106Y-109354529D01*
X65151687Y-109377584D01*
X65146023Y-109400193D01*
X65138171Y-109422137D01*
X65128206Y-109443207D01*
X65116224Y-109463198D01*
X65102340Y-109481918D01*
X65086688Y-109499188D01*
X65069418Y-109514840D01*
X65050698Y-109528724D01*
X65030707Y-109540706D01*
X65009637Y-109550671D01*
X64987693Y-109558523D01*
X64965084Y-109564187D01*
X64942029Y-109567606D01*
X64918750Y-109568750D01*
X64443750Y-109568750D01*
X64420471Y-109567606D01*
X64397416Y-109564187D01*
X64374807Y-109558523D01*
X64352863Y-109550671D01*
X64331793Y-109540706D01*
X64311802Y-109528724D01*
X64293082Y-109514840D01*
X64275812Y-109499188D01*
X64260160Y-109481918D01*
X64246276Y-109463198D01*
X64234294Y-109443207D01*
X64224329Y-109422137D01*
X64216477Y-109400193D01*
X64210813Y-109377584D01*
X64207394Y-109354529D01*
X64206250Y-109331250D01*
X64206250Y-108756250D01*
X64207394Y-108732971D01*
X64210813Y-108709916D01*
X64216477Y-108687307D01*
X64224329Y-108665363D01*
X64234294Y-108644293D01*
X64246276Y-108624302D01*
X64260160Y-108605582D01*
X64275812Y-108588312D01*
X64293082Y-108572660D01*
X64311802Y-108558776D01*
X64331793Y-108546794D01*
X64352863Y-108536829D01*
X64374807Y-108528977D01*
X64397416Y-108523313D01*
X64420471Y-108519894D01*
X64443750Y-108518750D01*
X64918750Y-108518750D01*
X64942029Y-108519894D01*
X64942029Y-108519894D01*
G37*
D14*
X64681250Y-109043750D03*
D13*
G36*
X64942029Y-110269894D02*
G01*
X64965084Y-110273313D01*
X64987693Y-110278977D01*
X65009637Y-110286829D01*
X65030707Y-110296794D01*
X65050698Y-110308776D01*
X65069418Y-110322660D01*
X65086688Y-110338312D01*
X65102340Y-110355582D01*
X65116224Y-110374302D01*
X65128206Y-110394293D01*
X65138171Y-110415363D01*
X65146023Y-110437307D01*
X65151687Y-110459916D01*
X65155106Y-110482971D01*
X65156250Y-110506250D01*
X65156250Y-111081250D01*
X65155106Y-111104529D01*
X65151687Y-111127584D01*
X65146023Y-111150193D01*
X65138171Y-111172137D01*
X65128206Y-111193207D01*
X65116224Y-111213198D01*
X65102340Y-111231918D01*
X65086688Y-111249188D01*
X65069418Y-111264840D01*
X65050698Y-111278724D01*
X65030707Y-111290706D01*
X65009637Y-111300671D01*
X64987693Y-111308523D01*
X64965084Y-111314187D01*
X64942029Y-111317606D01*
X64918750Y-111318750D01*
X64443750Y-111318750D01*
X64420471Y-111317606D01*
X64397416Y-111314187D01*
X64374807Y-111308523D01*
X64352863Y-111300671D01*
X64331793Y-111290706D01*
X64311802Y-111278724D01*
X64293082Y-111264840D01*
X64275812Y-111249188D01*
X64260160Y-111231918D01*
X64246276Y-111213198D01*
X64234294Y-111193207D01*
X64224329Y-111172137D01*
X64216477Y-111150193D01*
X64210813Y-111127584D01*
X64207394Y-111104529D01*
X64206250Y-111081250D01*
X64206250Y-110506250D01*
X64207394Y-110482971D01*
X64210813Y-110459916D01*
X64216477Y-110437307D01*
X64224329Y-110415363D01*
X64234294Y-110394293D01*
X64246276Y-110374302D01*
X64260160Y-110355582D01*
X64275812Y-110338312D01*
X64293082Y-110322660D01*
X64311802Y-110308776D01*
X64331793Y-110296794D01*
X64352863Y-110286829D01*
X64374807Y-110278977D01*
X64397416Y-110273313D01*
X64420471Y-110269894D01*
X64443750Y-110268750D01*
X64918750Y-110268750D01*
X64942029Y-110269894D01*
X64942029Y-110269894D01*
G37*
D14*
X64681250Y-110793750D03*
D13*
G36*
X75042029Y-115969894D02*
G01*
X75065084Y-115973313D01*
X75087693Y-115978977D01*
X75109637Y-115986829D01*
X75130707Y-115996794D01*
X75150698Y-116008776D01*
X75169418Y-116022660D01*
X75186688Y-116038312D01*
X75202340Y-116055582D01*
X75216224Y-116074302D01*
X75228206Y-116094293D01*
X75238171Y-116115363D01*
X75246023Y-116137307D01*
X75251687Y-116159916D01*
X75255106Y-116182971D01*
X75256250Y-116206250D01*
X75256250Y-116781250D01*
X75255106Y-116804529D01*
X75251687Y-116827584D01*
X75246023Y-116850193D01*
X75238171Y-116872137D01*
X75228206Y-116893207D01*
X75216224Y-116913198D01*
X75202340Y-116931918D01*
X75186688Y-116949188D01*
X75169418Y-116964840D01*
X75150698Y-116978724D01*
X75130707Y-116990706D01*
X75109637Y-117000671D01*
X75087693Y-117008523D01*
X75065084Y-117014187D01*
X75042029Y-117017606D01*
X75018750Y-117018750D01*
X74543750Y-117018750D01*
X74520471Y-117017606D01*
X74497416Y-117014187D01*
X74474807Y-117008523D01*
X74452863Y-117000671D01*
X74431793Y-116990706D01*
X74411802Y-116978724D01*
X74393082Y-116964840D01*
X74375812Y-116949188D01*
X74360160Y-116931918D01*
X74346276Y-116913198D01*
X74334294Y-116893207D01*
X74324329Y-116872137D01*
X74316477Y-116850193D01*
X74310813Y-116827584D01*
X74307394Y-116804529D01*
X74306250Y-116781250D01*
X74306250Y-116206250D01*
X74307394Y-116182971D01*
X74310813Y-116159916D01*
X74316477Y-116137307D01*
X74324329Y-116115363D01*
X74334294Y-116094293D01*
X74346276Y-116074302D01*
X74360160Y-116055582D01*
X74375812Y-116038312D01*
X74393082Y-116022660D01*
X74411802Y-116008776D01*
X74431793Y-115996794D01*
X74452863Y-115986829D01*
X74474807Y-115978977D01*
X74497416Y-115973313D01*
X74520471Y-115969894D01*
X74543750Y-115968750D01*
X75018750Y-115968750D01*
X75042029Y-115969894D01*
X75042029Y-115969894D01*
G37*
D14*
X74781250Y-116493750D03*
D13*
G36*
X75042029Y-114219894D02*
G01*
X75065084Y-114223313D01*
X75087693Y-114228977D01*
X75109637Y-114236829D01*
X75130707Y-114246794D01*
X75150698Y-114258776D01*
X75169418Y-114272660D01*
X75186688Y-114288312D01*
X75202340Y-114305582D01*
X75216224Y-114324302D01*
X75228206Y-114344293D01*
X75238171Y-114365363D01*
X75246023Y-114387307D01*
X75251687Y-114409916D01*
X75255106Y-114432971D01*
X75256250Y-114456250D01*
X75256250Y-115031250D01*
X75255106Y-115054529D01*
X75251687Y-115077584D01*
X75246023Y-115100193D01*
X75238171Y-115122137D01*
X75228206Y-115143207D01*
X75216224Y-115163198D01*
X75202340Y-115181918D01*
X75186688Y-115199188D01*
X75169418Y-115214840D01*
X75150698Y-115228724D01*
X75130707Y-115240706D01*
X75109637Y-115250671D01*
X75087693Y-115258523D01*
X75065084Y-115264187D01*
X75042029Y-115267606D01*
X75018750Y-115268750D01*
X74543750Y-115268750D01*
X74520471Y-115267606D01*
X74497416Y-115264187D01*
X74474807Y-115258523D01*
X74452863Y-115250671D01*
X74431793Y-115240706D01*
X74411802Y-115228724D01*
X74393082Y-115214840D01*
X74375812Y-115199188D01*
X74360160Y-115181918D01*
X74346276Y-115163198D01*
X74334294Y-115143207D01*
X74324329Y-115122137D01*
X74316477Y-115100193D01*
X74310813Y-115077584D01*
X74307394Y-115054529D01*
X74306250Y-115031250D01*
X74306250Y-114456250D01*
X74307394Y-114432971D01*
X74310813Y-114409916D01*
X74316477Y-114387307D01*
X74324329Y-114365363D01*
X74334294Y-114344293D01*
X74346276Y-114324302D01*
X74360160Y-114305582D01*
X74375812Y-114288312D01*
X74393082Y-114272660D01*
X74411802Y-114258776D01*
X74431793Y-114246794D01*
X74452863Y-114236829D01*
X74474807Y-114228977D01*
X74497416Y-114223313D01*
X74520471Y-114219894D01*
X74543750Y-114218750D01*
X75018750Y-114218750D01*
X75042029Y-114219894D01*
X75042029Y-114219894D01*
G37*
D14*
X74781250Y-114743750D03*
D13*
G36*
X80017029Y-101444894D02*
G01*
X80040084Y-101448313D01*
X80062693Y-101453977D01*
X80084637Y-101461829D01*
X80105707Y-101471794D01*
X80125698Y-101483776D01*
X80144418Y-101497660D01*
X80161688Y-101513312D01*
X80177340Y-101530582D01*
X80191224Y-101549302D01*
X80203206Y-101569293D01*
X80213171Y-101590363D01*
X80221023Y-101612307D01*
X80226687Y-101634916D01*
X80230106Y-101657971D01*
X80231250Y-101681250D01*
X80231250Y-102156250D01*
X80230106Y-102179529D01*
X80226687Y-102202584D01*
X80221023Y-102225193D01*
X80213171Y-102247137D01*
X80203206Y-102268207D01*
X80191224Y-102288198D01*
X80177340Y-102306918D01*
X80161688Y-102324188D01*
X80144418Y-102339840D01*
X80125698Y-102353724D01*
X80105707Y-102365706D01*
X80084637Y-102375671D01*
X80062693Y-102383523D01*
X80040084Y-102389187D01*
X80017029Y-102392606D01*
X79993750Y-102393750D01*
X79418750Y-102393750D01*
X79395471Y-102392606D01*
X79372416Y-102389187D01*
X79349807Y-102383523D01*
X79327863Y-102375671D01*
X79306793Y-102365706D01*
X79286802Y-102353724D01*
X79268082Y-102339840D01*
X79250812Y-102324188D01*
X79235160Y-102306918D01*
X79221276Y-102288198D01*
X79209294Y-102268207D01*
X79199329Y-102247137D01*
X79191477Y-102225193D01*
X79185813Y-102202584D01*
X79182394Y-102179529D01*
X79181250Y-102156250D01*
X79181250Y-101681250D01*
X79182394Y-101657971D01*
X79185813Y-101634916D01*
X79191477Y-101612307D01*
X79199329Y-101590363D01*
X79209294Y-101569293D01*
X79221276Y-101549302D01*
X79235160Y-101530582D01*
X79250812Y-101513312D01*
X79268082Y-101497660D01*
X79286802Y-101483776D01*
X79306793Y-101471794D01*
X79327863Y-101461829D01*
X79349807Y-101453977D01*
X79372416Y-101448313D01*
X79395471Y-101444894D01*
X79418750Y-101443750D01*
X79993750Y-101443750D01*
X80017029Y-101444894D01*
X80017029Y-101444894D01*
G37*
D14*
X79706250Y-101918750D03*
D13*
G36*
X78267029Y-101444894D02*
G01*
X78290084Y-101448313D01*
X78312693Y-101453977D01*
X78334637Y-101461829D01*
X78355707Y-101471794D01*
X78375698Y-101483776D01*
X78394418Y-101497660D01*
X78411688Y-101513312D01*
X78427340Y-101530582D01*
X78441224Y-101549302D01*
X78453206Y-101569293D01*
X78463171Y-101590363D01*
X78471023Y-101612307D01*
X78476687Y-101634916D01*
X78480106Y-101657971D01*
X78481250Y-101681250D01*
X78481250Y-102156250D01*
X78480106Y-102179529D01*
X78476687Y-102202584D01*
X78471023Y-102225193D01*
X78463171Y-102247137D01*
X78453206Y-102268207D01*
X78441224Y-102288198D01*
X78427340Y-102306918D01*
X78411688Y-102324188D01*
X78394418Y-102339840D01*
X78375698Y-102353724D01*
X78355707Y-102365706D01*
X78334637Y-102375671D01*
X78312693Y-102383523D01*
X78290084Y-102389187D01*
X78267029Y-102392606D01*
X78243750Y-102393750D01*
X77668750Y-102393750D01*
X77645471Y-102392606D01*
X77622416Y-102389187D01*
X77599807Y-102383523D01*
X77577863Y-102375671D01*
X77556793Y-102365706D01*
X77536802Y-102353724D01*
X77518082Y-102339840D01*
X77500812Y-102324188D01*
X77485160Y-102306918D01*
X77471276Y-102288198D01*
X77459294Y-102268207D01*
X77449329Y-102247137D01*
X77441477Y-102225193D01*
X77435813Y-102202584D01*
X77432394Y-102179529D01*
X77431250Y-102156250D01*
X77431250Y-101681250D01*
X77432394Y-101657971D01*
X77435813Y-101634916D01*
X77441477Y-101612307D01*
X77449329Y-101590363D01*
X77459294Y-101569293D01*
X77471276Y-101549302D01*
X77485160Y-101530582D01*
X77500812Y-101513312D01*
X77518082Y-101497660D01*
X77536802Y-101483776D01*
X77556793Y-101471794D01*
X77577863Y-101461829D01*
X77599807Y-101453977D01*
X77622416Y-101448313D01*
X77645471Y-101444894D01*
X77668750Y-101443750D01*
X78243750Y-101443750D01*
X78267029Y-101444894D01*
X78267029Y-101444894D01*
G37*
D14*
X77956250Y-101918750D03*
D15*
X123230610Y-144768950D03*
X123230610Y-141568550D03*
X118231890Y-141568550D03*
X118231890Y-144768950D03*
X180230610Y-88268950D03*
X180230610Y-85068550D03*
X175231890Y-85068550D03*
X175231890Y-88268950D03*
X41731890Y-107268950D03*
X41731890Y-104068550D03*
X46730610Y-104068550D03*
X46730610Y-107268950D03*
X174731890Y-141568550D03*
X174731890Y-144768950D03*
X179730610Y-144768950D03*
X179730610Y-141568550D03*
X255730610Y-106768950D03*
X255730610Y-103568550D03*
X250731890Y-103568550D03*
X250731890Y-106768950D03*
X232181890Y-85068550D03*
X232181890Y-88268950D03*
X237180610Y-88268950D03*
X237180610Y-85068550D03*
X117731890Y-85068550D03*
X117731890Y-88268950D03*
X122730610Y-88268950D03*
X122730610Y-85068550D03*
X65730610Y-87268950D03*
X65730610Y-84068550D03*
X60731890Y-84068550D03*
X60731890Y-87268950D03*
D16*
X56931250Y-76726250D03*
X50481250Y-76726250D03*
X56156250Y-76726250D03*
X51256250Y-76726250D03*
D17*
X55456250Y-76726250D03*
X52456250Y-76726250D03*
X52956250Y-76726250D03*
X54456250Y-76726250D03*
X53956250Y-76726250D03*
X53456250Y-76726250D03*
D18*
X49386250Y-75811250D03*
X58026250Y-75811250D03*
D19*
X49386250Y-71631250D03*
X58026250Y-71631250D03*
D20*
X151496250Y-132588750D03*
X145146250Y-135128750D03*
X211821250Y-135128750D03*
X218171250Y-132588750D03*
X199121250Y-132588750D03*
X192771250Y-135128750D03*
X173721250Y-135128750D03*
X180071250Y-132588750D03*
X161021250Y-132588750D03*
X154671250Y-135128750D03*
X135621250Y-135128750D03*
X141971250Y-132588750D03*
X122921250Y-132588750D03*
X116571250Y-135128750D03*
X97521250Y-135128750D03*
X103871250Y-132588750D03*
X84821250Y-132588750D03*
X78471250Y-135128750D03*
X59421250Y-135128750D03*
X65771250Y-132588750D03*
X256271250Y-113538750D03*
X249921250Y-116078750D03*
X230871250Y-116078750D03*
X237221250Y-113538750D03*
X211821250Y-116078750D03*
X218171250Y-113538750D03*
X192771250Y-116078750D03*
X199121250Y-113538750D03*
X180071250Y-113538750D03*
X173721250Y-116078750D03*
X154671250Y-116078750D03*
X161021250Y-113538750D03*
X141971250Y-113538750D03*
X135621250Y-116078750D03*
X122921250Y-113538750D03*
X116571250Y-116078750D03*
X103871250Y-113538750D03*
X97521250Y-116078750D03*
X78471250Y-116078750D03*
X84821250Y-113538750D03*
X46721250Y-113538750D03*
X40371250Y-116078750D03*
X249921250Y-97028750D03*
X256271250Y-94488750D03*
X237221250Y-94488750D03*
X230871250Y-97028750D03*
X211821250Y-97028750D03*
X218171250Y-94488750D03*
X199121250Y-94488750D03*
X192771250Y-97028750D03*
X180071250Y-94488750D03*
X173721250Y-97028750D03*
X154671250Y-97028750D03*
X161021250Y-94488750D03*
X141971250Y-94488750D03*
X135621250Y-97028750D03*
X103871250Y-94488750D03*
X97521250Y-97028750D03*
X40371250Y-97028750D03*
X46721250Y-94488750D03*
X230871250Y-77978750D03*
X237221250Y-75438750D03*
X211821250Y-77978750D03*
X218171250Y-75438750D03*
X199121250Y-75438750D03*
X192771250Y-77978750D03*
X173721250Y-77978750D03*
X180071250Y-75438750D03*
X154671250Y-77978750D03*
X161021250Y-75438750D03*
X97521250Y-77978750D03*
X103871250Y-75438750D03*
X78471250Y-77978750D03*
X84821250Y-75438750D03*
X40371250Y-77978750D03*
X46721250Y-75438750D03*
X59421250Y-77978750D03*
X65771250Y-75438750D03*
X65771250Y-94488750D03*
X59421250Y-97028750D03*
X59421250Y-116078750D03*
X65771250Y-113538750D03*
X237221250Y-132588750D03*
X230871250Y-135128750D03*
X122921250Y-75438750D03*
X116571250Y-77978750D03*
X256271250Y-75438750D03*
X249921250Y-77978750D03*
X78471250Y-97028750D03*
X84821250Y-94488750D03*
X122921250Y-94488750D03*
X116571250Y-97028750D03*
X141971250Y-75438750D03*
X135621250Y-77978750D03*
X226108750Y-135128750D03*
X232458750Y-132588750D03*
X64183750Y-135128750D03*
X70533750Y-132588750D03*
D21*
X37037500Y-86681250D03*
X37037500Y-83881250D03*
X37037500Y-105731250D03*
X37037500Y-102931250D03*
X37037500Y-124781250D03*
X37037500Y-121981250D03*
X72756250Y-86681250D03*
X72756250Y-83881250D03*
X56087500Y-105731250D03*
X56087500Y-102931250D03*
X56087500Y-124781250D03*
X56087500Y-121981250D03*
X56087500Y-143831250D03*
X56087500Y-141031250D03*
X75137500Y-86681250D03*
X75137500Y-83881250D03*
X91806250Y-105731250D03*
X91806250Y-102931250D03*
X91806250Y-122400000D03*
X91806250Y-119600000D03*
X75137500Y-143831250D03*
X75137500Y-141031250D03*
X94187500Y-86681250D03*
X94187500Y-83881250D03*
X94187500Y-105731250D03*
X94187500Y-102931250D03*
X94187500Y-122400000D03*
X94187500Y-119600000D03*
X91806250Y-139195750D03*
X91806250Y-136395750D03*
X113237500Y-86681250D03*
X113237500Y-83881250D03*
X113237500Y-105731250D03*
X113237500Y-102931250D03*
X113237500Y-122400000D03*
X113237500Y-119600000D03*
X113237500Y-143831250D03*
X113237500Y-141031250D03*
X132287500Y-86681250D03*
X132287500Y-83881250D03*
X132287500Y-105731250D03*
X132287500Y-102931250D03*
X132287500Y-122400000D03*
X132287500Y-119600000D03*
X132287500Y-143831250D03*
X132287500Y-141031250D03*
X151337500Y-86681250D03*
X151337500Y-83881250D03*
X151337500Y-105731250D03*
X151337500Y-102931250D03*
X151337500Y-122400000D03*
X151337500Y-119600000D03*
X148956250Y-143831250D03*
X148956250Y-141031250D03*
X170387500Y-86681250D03*
X170387500Y-83881250D03*
X170387500Y-105731250D03*
X170387500Y-102931250D03*
X170387500Y-122400000D03*
X170387500Y-119600000D03*
X170387500Y-143831250D03*
X170387500Y-141031250D03*
X189437500Y-86681250D03*
X189437500Y-83881250D03*
X189437500Y-105731250D03*
X189437500Y-102931250D03*
X189437500Y-122400000D03*
X189437500Y-119600000D03*
X189437500Y-143831250D03*
X189437500Y-141031250D03*
X208487500Y-86681250D03*
X208487500Y-83881250D03*
X208487500Y-105731250D03*
X208487500Y-102931250D03*
X208487500Y-122400000D03*
X208487500Y-119600000D03*
X206106250Y-139195750D03*
X206106250Y-136395750D03*
X227537500Y-86681250D03*
X227537500Y-83881250D03*
X227537500Y-105731250D03*
X227537500Y-102931250D03*
X227537500Y-122400000D03*
X227537500Y-119600000D03*
X223308250Y-143802000D03*
X223308250Y-141002000D03*
X246587500Y-86681250D03*
X246587500Y-83881250D03*
X246587500Y-105731250D03*
X246587500Y-102931250D03*
X246587500Y-122400000D03*
X246587500Y-119600000D03*
D22*
X81456250Y-107189500D03*
D23*
X81456250Y-108139500D03*
D22*
X81456250Y-109089500D03*
D12*
X160894250Y-144653750D03*
X137018250Y-144653750D03*
D11*
X160894250Y-129413750D03*
X137018250Y-129413750D03*
D13*
G36*
X69899876Y-106469051D02*
G01*
X69905943Y-106469951D01*
X69911893Y-106471441D01*
X69917668Y-106473508D01*
X69923212Y-106476130D01*
X69928473Y-106479283D01*
X69933400Y-106482937D01*
X69937944Y-106487056D01*
X69942063Y-106491600D01*
X69945717Y-106496527D01*
X69948870Y-106501788D01*
X69951492Y-106507332D01*
X69953559Y-106513107D01*
X69955049Y-106519057D01*
X69955949Y-106525124D01*
X69956250Y-106531250D01*
X69956250Y-106656250D01*
X69955949Y-106662376D01*
X69955049Y-106668443D01*
X69953559Y-106674393D01*
X69951492Y-106680168D01*
X69948870Y-106685712D01*
X69945717Y-106690973D01*
X69942063Y-106695900D01*
X69937944Y-106700444D01*
X69933400Y-106704563D01*
X69928473Y-106708217D01*
X69923212Y-106711370D01*
X69917668Y-106713992D01*
X69911893Y-106716059D01*
X69905943Y-106717549D01*
X69899876Y-106718449D01*
X69893750Y-106718750D01*
X68943750Y-106718750D01*
X68937624Y-106718449D01*
X68931557Y-106717549D01*
X68925607Y-106716059D01*
X68919832Y-106713992D01*
X68914288Y-106711370D01*
X68909027Y-106708217D01*
X68904100Y-106704563D01*
X68899556Y-106700444D01*
X68895437Y-106695900D01*
X68891783Y-106690973D01*
X68888630Y-106685712D01*
X68886008Y-106680168D01*
X68883941Y-106674393D01*
X68882451Y-106668443D01*
X68881551Y-106662376D01*
X68881250Y-106656250D01*
X68881250Y-106531250D01*
X68881551Y-106525124D01*
X68882451Y-106519057D01*
X68883941Y-106513107D01*
X68886008Y-106507332D01*
X68888630Y-106501788D01*
X68891783Y-106496527D01*
X68895437Y-106491600D01*
X68899556Y-106487056D01*
X68904100Y-106482937D01*
X68909027Y-106479283D01*
X68914288Y-106476130D01*
X68919832Y-106473508D01*
X68925607Y-106471441D01*
X68931557Y-106469951D01*
X68937624Y-106469051D01*
X68943750Y-106468750D01*
X69893750Y-106468750D01*
X69899876Y-106469051D01*
X69899876Y-106469051D01*
G37*
D24*
X69418750Y-106593750D03*
D13*
G36*
X69899876Y-106969051D02*
G01*
X69905943Y-106969951D01*
X69911893Y-106971441D01*
X69917668Y-106973508D01*
X69923212Y-106976130D01*
X69928473Y-106979283D01*
X69933400Y-106982937D01*
X69937944Y-106987056D01*
X69942063Y-106991600D01*
X69945717Y-106996527D01*
X69948870Y-107001788D01*
X69951492Y-107007332D01*
X69953559Y-107013107D01*
X69955049Y-107019057D01*
X69955949Y-107025124D01*
X69956250Y-107031250D01*
X69956250Y-107156250D01*
X69955949Y-107162376D01*
X69955049Y-107168443D01*
X69953559Y-107174393D01*
X69951492Y-107180168D01*
X69948870Y-107185712D01*
X69945717Y-107190973D01*
X69942063Y-107195900D01*
X69937944Y-107200444D01*
X69933400Y-107204563D01*
X69928473Y-107208217D01*
X69923212Y-107211370D01*
X69917668Y-107213992D01*
X69911893Y-107216059D01*
X69905943Y-107217549D01*
X69899876Y-107218449D01*
X69893750Y-107218750D01*
X68943750Y-107218750D01*
X68937624Y-107218449D01*
X68931557Y-107217549D01*
X68925607Y-107216059D01*
X68919832Y-107213992D01*
X68914288Y-107211370D01*
X68909027Y-107208217D01*
X68904100Y-107204563D01*
X68899556Y-107200444D01*
X68895437Y-107195900D01*
X68891783Y-107190973D01*
X68888630Y-107185712D01*
X68886008Y-107180168D01*
X68883941Y-107174393D01*
X68882451Y-107168443D01*
X68881551Y-107162376D01*
X68881250Y-107156250D01*
X68881250Y-107031250D01*
X68881551Y-107025124D01*
X68882451Y-107019057D01*
X68883941Y-107013107D01*
X68886008Y-107007332D01*
X68888630Y-107001788D01*
X68891783Y-106996527D01*
X68895437Y-106991600D01*
X68899556Y-106987056D01*
X68904100Y-106982937D01*
X68909027Y-106979283D01*
X68914288Y-106976130D01*
X68919832Y-106973508D01*
X68925607Y-106971441D01*
X68931557Y-106969951D01*
X68937624Y-106969051D01*
X68943750Y-106968750D01*
X69893750Y-106968750D01*
X69899876Y-106969051D01*
X69899876Y-106969051D01*
G37*
D24*
X69418750Y-107093750D03*
D13*
G36*
X69899876Y-107469051D02*
G01*
X69905943Y-107469951D01*
X69911893Y-107471441D01*
X69917668Y-107473508D01*
X69923212Y-107476130D01*
X69928473Y-107479283D01*
X69933400Y-107482937D01*
X69937944Y-107487056D01*
X69942063Y-107491600D01*
X69945717Y-107496527D01*
X69948870Y-107501788D01*
X69951492Y-107507332D01*
X69953559Y-107513107D01*
X69955049Y-107519057D01*
X69955949Y-107525124D01*
X69956250Y-107531250D01*
X69956250Y-107656250D01*
X69955949Y-107662376D01*
X69955049Y-107668443D01*
X69953559Y-107674393D01*
X69951492Y-107680168D01*
X69948870Y-107685712D01*
X69945717Y-107690973D01*
X69942063Y-107695900D01*
X69937944Y-107700444D01*
X69933400Y-107704563D01*
X69928473Y-107708217D01*
X69923212Y-107711370D01*
X69917668Y-107713992D01*
X69911893Y-107716059D01*
X69905943Y-107717549D01*
X69899876Y-107718449D01*
X69893750Y-107718750D01*
X68943750Y-107718750D01*
X68937624Y-107718449D01*
X68931557Y-107717549D01*
X68925607Y-107716059D01*
X68919832Y-107713992D01*
X68914288Y-107711370D01*
X68909027Y-107708217D01*
X68904100Y-107704563D01*
X68899556Y-107700444D01*
X68895437Y-107695900D01*
X68891783Y-107690973D01*
X68888630Y-107685712D01*
X68886008Y-107680168D01*
X68883941Y-107674393D01*
X68882451Y-107668443D01*
X68881551Y-107662376D01*
X68881250Y-107656250D01*
X68881250Y-107531250D01*
X68881551Y-107525124D01*
X68882451Y-107519057D01*
X68883941Y-107513107D01*
X68886008Y-107507332D01*
X68888630Y-107501788D01*
X68891783Y-107496527D01*
X68895437Y-107491600D01*
X68899556Y-107487056D01*
X68904100Y-107482937D01*
X68909027Y-107479283D01*
X68914288Y-107476130D01*
X68919832Y-107473508D01*
X68925607Y-107471441D01*
X68931557Y-107469951D01*
X68937624Y-107469051D01*
X68943750Y-107468750D01*
X69893750Y-107468750D01*
X69899876Y-107469051D01*
X69899876Y-107469051D01*
G37*
D24*
X69418750Y-107593750D03*
D13*
G36*
X69899876Y-107969051D02*
G01*
X69905943Y-107969951D01*
X69911893Y-107971441D01*
X69917668Y-107973508D01*
X69923212Y-107976130D01*
X69928473Y-107979283D01*
X69933400Y-107982937D01*
X69937944Y-107987056D01*
X69942063Y-107991600D01*
X69945717Y-107996527D01*
X69948870Y-108001788D01*
X69951492Y-108007332D01*
X69953559Y-108013107D01*
X69955049Y-108019057D01*
X69955949Y-108025124D01*
X69956250Y-108031250D01*
X69956250Y-108156250D01*
X69955949Y-108162376D01*
X69955049Y-108168443D01*
X69953559Y-108174393D01*
X69951492Y-108180168D01*
X69948870Y-108185712D01*
X69945717Y-108190973D01*
X69942063Y-108195900D01*
X69937944Y-108200444D01*
X69933400Y-108204563D01*
X69928473Y-108208217D01*
X69923212Y-108211370D01*
X69917668Y-108213992D01*
X69911893Y-108216059D01*
X69905943Y-108217549D01*
X69899876Y-108218449D01*
X69893750Y-108218750D01*
X68943750Y-108218750D01*
X68937624Y-108218449D01*
X68931557Y-108217549D01*
X68925607Y-108216059D01*
X68919832Y-108213992D01*
X68914288Y-108211370D01*
X68909027Y-108208217D01*
X68904100Y-108204563D01*
X68899556Y-108200444D01*
X68895437Y-108195900D01*
X68891783Y-108190973D01*
X68888630Y-108185712D01*
X68886008Y-108180168D01*
X68883941Y-108174393D01*
X68882451Y-108168443D01*
X68881551Y-108162376D01*
X68881250Y-108156250D01*
X68881250Y-108031250D01*
X68881551Y-108025124D01*
X68882451Y-108019057D01*
X68883941Y-108013107D01*
X68886008Y-108007332D01*
X68888630Y-108001788D01*
X68891783Y-107996527D01*
X68895437Y-107991600D01*
X68899556Y-107987056D01*
X68904100Y-107982937D01*
X68909027Y-107979283D01*
X68914288Y-107976130D01*
X68919832Y-107973508D01*
X68925607Y-107971441D01*
X68931557Y-107969951D01*
X68937624Y-107969051D01*
X68943750Y-107968750D01*
X69893750Y-107968750D01*
X69899876Y-107969051D01*
X69899876Y-107969051D01*
G37*
D24*
X69418750Y-108093750D03*
D13*
G36*
X69899876Y-108469051D02*
G01*
X69905943Y-108469951D01*
X69911893Y-108471441D01*
X69917668Y-108473508D01*
X69923212Y-108476130D01*
X69928473Y-108479283D01*
X69933400Y-108482937D01*
X69937944Y-108487056D01*
X69942063Y-108491600D01*
X69945717Y-108496527D01*
X69948870Y-108501788D01*
X69951492Y-108507332D01*
X69953559Y-108513107D01*
X69955049Y-108519057D01*
X69955949Y-108525124D01*
X69956250Y-108531250D01*
X69956250Y-108656250D01*
X69955949Y-108662376D01*
X69955049Y-108668443D01*
X69953559Y-108674393D01*
X69951492Y-108680168D01*
X69948870Y-108685712D01*
X69945717Y-108690973D01*
X69942063Y-108695900D01*
X69937944Y-108700444D01*
X69933400Y-108704563D01*
X69928473Y-108708217D01*
X69923212Y-108711370D01*
X69917668Y-108713992D01*
X69911893Y-108716059D01*
X69905943Y-108717549D01*
X69899876Y-108718449D01*
X69893750Y-108718750D01*
X68943750Y-108718750D01*
X68937624Y-108718449D01*
X68931557Y-108717549D01*
X68925607Y-108716059D01*
X68919832Y-108713992D01*
X68914288Y-108711370D01*
X68909027Y-108708217D01*
X68904100Y-108704563D01*
X68899556Y-108700444D01*
X68895437Y-108695900D01*
X68891783Y-108690973D01*
X68888630Y-108685712D01*
X68886008Y-108680168D01*
X68883941Y-108674393D01*
X68882451Y-108668443D01*
X68881551Y-108662376D01*
X68881250Y-108656250D01*
X68881250Y-108531250D01*
X68881551Y-108525124D01*
X68882451Y-108519057D01*
X68883941Y-108513107D01*
X68886008Y-108507332D01*
X68888630Y-108501788D01*
X68891783Y-108496527D01*
X68895437Y-108491600D01*
X68899556Y-108487056D01*
X68904100Y-108482937D01*
X68909027Y-108479283D01*
X68914288Y-108476130D01*
X68919832Y-108473508D01*
X68925607Y-108471441D01*
X68931557Y-108469951D01*
X68937624Y-108469051D01*
X68943750Y-108468750D01*
X69893750Y-108468750D01*
X69899876Y-108469051D01*
X69899876Y-108469051D01*
G37*
D24*
X69418750Y-108593750D03*
D13*
G36*
X69899876Y-108969051D02*
G01*
X69905943Y-108969951D01*
X69911893Y-108971441D01*
X69917668Y-108973508D01*
X69923212Y-108976130D01*
X69928473Y-108979283D01*
X69933400Y-108982937D01*
X69937944Y-108987056D01*
X69942063Y-108991600D01*
X69945717Y-108996527D01*
X69948870Y-109001788D01*
X69951492Y-109007332D01*
X69953559Y-109013107D01*
X69955049Y-109019057D01*
X69955949Y-109025124D01*
X69956250Y-109031250D01*
X69956250Y-109156250D01*
X69955949Y-109162376D01*
X69955049Y-109168443D01*
X69953559Y-109174393D01*
X69951492Y-109180168D01*
X69948870Y-109185712D01*
X69945717Y-109190973D01*
X69942063Y-109195900D01*
X69937944Y-109200444D01*
X69933400Y-109204563D01*
X69928473Y-109208217D01*
X69923212Y-109211370D01*
X69917668Y-109213992D01*
X69911893Y-109216059D01*
X69905943Y-109217549D01*
X69899876Y-109218449D01*
X69893750Y-109218750D01*
X68943750Y-109218750D01*
X68937624Y-109218449D01*
X68931557Y-109217549D01*
X68925607Y-109216059D01*
X68919832Y-109213992D01*
X68914288Y-109211370D01*
X68909027Y-109208217D01*
X68904100Y-109204563D01*
X68899556Y-109200444D01*
X68895437Y-109195900D01*
X68891783Y-109190973D01*
X68888630Y-109185712D01*
X68886008Y-109180168D01*
X68883941Y-109174393D01*
X68882451Y-109168443D01*
X68881551Y-109162376D01*
X68881250Y-109156250D01*
X68881250Y-109031250D01*
X68881551Y-109025124D01*
X68882451Y-109019057D01*
X68883941Y-109013107D01*
X68886008Y-109007332D01*
X68888630Y-109001788D01*
X68891783Y-108996527D01*
X68895437Y-108991600D01*
X68899556Y-108987056D01*
X68904100Y-108982937D01*
X68909027Y-108979283D01*
X68914288Y-108976130D01*
X68919832Y-108973508D01*
X68925607Y-108971441D01*
X68931557Y-108969951D01*
X68937624Y-108969051D01*
X68943750Y-108968750D01*
X69893750Y-108968750D01*
X69899876Y-108969051D01*
X69899876Y-108969051D01*
G37*
D24*
X69418750Y-109093750D03*
D13*
G36*
X69899876Y-109469051D02*
G01*
X69905943Y-109469951D01*
X69911893Y-109471441D01*
X69917668Y-109473508D01*
X69923212Y-109476130D01*
X69928473Y-109479283D01*
X69933400Y-109482937D01*
X69937944Y-109487056D01*
X69942063Y-109491600D01*
X69945717Y-109496527D01*
X69948870Y-109501788D01*
X69951492Y-109507332D01*
X69953559Y-109513107D01*
X69955049Y-109519057D01*
X69955949Y-109525124D01*
X69956250Y-109531250D01*
X69956250Y-109656250D01*
X69955949Y-109662376D01*
X69955049Y-109668443D01*
X69953559Y-109674393D01*
X69951492Y-109680168D01*
X69948870Y-109685712D01*
X69945717Y-109690973D01*
X69942063Y-109695900D01*
X69937944Y-109700444D01*
X69933400Y-109704563D01*
X69928473Y-109708217D01*
X69923212Y-109711370D01*
X69917668Y-109713992D01*
X69911893Y-109716059D01*
X69905943Y-109717549D01*
X69899876Y-109718449D01*
X69893750Y-109718750D01*
X68943750Y-109718750D01*
X68937624Y-109718449D01*
X68931557Y-109717549D01*
X68925607Y-109716059D01*
X68919832Y-109713992D01*
X68914288Y-109711370D01*
X68909027Y-109708217D01*
X68904100Y-109704563D01*
X68899556Y-109700444D01*
X68895437Y-109695900D01*
X68891783Y-109690973D01*
X68888630Y-109685712D01*
X68886008Y-109680168D01*
X68883941Y-109674393D01*
X68882451Y-109668443D01*
X68881551Y-109662376D01*
X68881250Y-109656250D01*
X68881250Y-109531250D01*
X68881551Y-109525124D01*
X68882451Y-109519057D01*
X68883941Y-109513107D01*
X68886008Y-109507332D01*
X68888630Y-109501788D01*
X68891783Y-109496527D01*
X68895437Y-109491600D01*
X68899556Y-109487056D01*
X68904100Y-109482937D01*
X68909027Y-109479283D01*
X68914288Y-109476130D01*
X68919832Y-109473508D01*
X68925607Y-109471441D01*
X68931557Y-109469951D01*
X68937624Y-109469051D01*
X68943750Y-109468750D01*
X69893750Y-109468750D01*
X69899876Y-109469051D01*
X69899876Y-109469051D01*
G37*
D24*
X69418750Y-109593750D03*
D13*
G36*
X69899876Y-109969051D02*
G01*
X69905943Y-109969951D01*
X69911893Y-109971441D01*
X69917668Y-109973508D01*
X69923212Y-109976130D01*
X69928473Y-109979283D01*
X69933400Y-109982937D01*
X69937944Y-109987056D01*
X69942063Y-109991600D01*
X69945717Y-109996527D01*
X69948870Y-110001788D01*
X69951492Y-110007332D01*
X69953559Y-110013107D01*
X69955049Y-110019057D01*
X69955949Y-110025124D01*
X69956250Y-110031250D01*
X69956250Y-110156250D01*
X69955949Y-110162376D01*
X69955049Y-110168443D01*
X69953559Y-110174393D01*
X69951492Y-110180168D01*
X69948870Y-110185712D01*
X69945717Y-110190973D01*
X69942063Y-110195900D01*
X69937944Y-110200444D01*
X69933400Y-110204563D01*
X69928473Y-110208217D01*
X69923212Y-110211370D01*
X69917668Y-110213992D01*
X69911893Y-110216059D01*
X69905943Y-110217549D01*
X69899876Y-110218449D01*
X69893750Y-110218750D01*
X68943750Y-110218750D01*
X68937624Y-110218449D01*
X68931557Y-110217549D01*
X68925607Y-110216059D01*
X68919832Y-110213992D01*
X68914288Y-110211370D01*
X68909027Y-110208217D01*
X68904100Y-110204563D01*
X68899556Y-110200444D01*
X68895437Y-110195900D01*
X68891783Y-110190973D01*
X68888630Y-110185712D01*
X68886008Y-110180168D01*
X68883941Y-110174393D01*
X68882451Y-110168443D01*
X68881551Y-110162376D01*
X68881250Y-110156250D01*
X68881250Y-110031250D01*
X68881551Y-110025124D01*
X68882451Y-110019057D01*
X68883941Y-110013107D01*
X68886008Y-110007332D01*
X68888630Y-110001788D01*
X68891783Y-109996527D01*
X68895437Y-109991600D01*
X68899556Y-109987056D01*
X68904100Y-109982937D01*
X68909027Y-109979283D01*
X68914288Y-109976130D01*
X68919832Y-109973508D01*
X68925607Y-109971441D01*
X68931557Y-109969951D01*
X68937624Y-109969051D01*
X68943750Y-109968750D01*
X69893750Y-109968750D01*
X69899876Y-109969051D01*
X69899876Y-109969051D01*
G37*
D24*
X69418750Y-110093750D03*
D13*
G36*
X69899876Y-110469051D02*
G01*
X69905943Y-110469951D01*
X69911893Y-110471441D01*
X69917668Y-110473508D01*
X69923212Y-110476130D01*
X69928473Y-110479283D01*
X69933400Y-110482937D01*
X69937944Y-110487056D01*
X69942063Y-110491600D01*
X69945717Y-110496527D01*
X69948870Y-110501788D01*
X69951492Y-110507332D01*
X69953559Y-110513107D01*
X69955049Y-110519057D01*
X69955949Y-110525124D01*
X69956250Y-110531250D01*
X69956250Y-110656250D01*
X69955949Y-110662376D01*
X69955049Y-110668443D01*
X69953559Y-110674393D01*
X69951492Y-110680168D01*
X69948870Y-110685712D01*
X69945717Y-110690973D01*
X69942063Y-110695900D01*
X69937944Y-110700444D01*
X69933400Y-110704563D01*
X69928473Y-110708217D01*
X69923212Y-110711370D01*
X69917668Y-110713992D01*
X69911893Y-110716059D01*
X69905943Y-110717549D01*
X69899876Y-110718449D01*
X69893750Y-110718750D01*
X68943750Y-110718750D01*
X68937624Y-110718449D01*
X68931557Y-110717549D01*
X68925607Y-110716059D01*
X68919832Y-110713992D01*
X68914288Y-110711370D01*
X68909027Y-110708217D01*
X68904100Y-110704563D01*
X68899556Y-110700444D01*
X68895437Y-110695900D01*
X68891783Y-110690973D01*
X68888630Y-110685712D01*
X68886008Y-110680168D01*
X68883941Y-110674393D01*
X68882451Y-110668443D01*
X68881551Y-110662376D01*
X68881250Y-110656250D01*
X68881250Y-110531250D01*
X68881551Y-110525124D01*
X68882451Y-110519057D01*
X68883941Y-110513107D01*
X68886008Y-110507332D01*
X68888630Y-110501788D01*
X68891783Y-110496527D01*
X68895437Y-110491600D01*
X68899556Y-110487056D01*
X68904100Y-110482937D01*
X68909027Y-110479283D01*
X68914288Y-110476130D01*
X68919832Y-110473508D01*
X68925607Y-110471441D01*
X68931557Y-110469951D01*
X68937624Y-110469051D01*
X68943750Y-110468750D01*
X69893750Y-110468750D01*
X69899876Y-110469051D01*
X69899876Y-110469051D01*
G37*
D24*
X69418750Y-110593750D03*
D13*
G36*
X69899876Y-110969051D02*
G01*
X69905943Y-110969951D01*
X69911893Y-110971441D01*
X69917668Y-110973508D01*
X69923212Y-110976130D01*
X69928473Y-110979283D01*
X69933400Y-110982937D01*
X69937944Y-110987056D01*
X69942063Y-110991600D01*
X69945717Y-110996527D01*
X69948870Y-111001788D01*
X69951492Y-111007332D01*
X69953559Y-111013107D01*
X69955049Y-111019057D01*
X69955949Y-111025124D01*
X69956250Y-111031250D01*
X69956250Y-111156250D01*
X69955949Y-111162376D01*
X69955049Y-111168443D01*
X69953559Y-111174393D01*
X69951492Y-111180168D01*
X69948870Y-111185712D01*
X69945717Y-111190973D01*
X69942063Y-111195900D01*
X69937944Y-111200444D01*
X69933400Y-111204563D01*
X69928473Y-111208217D01*
X69923212Y-111211370D01*
X69917668Y-111213992D01*
X69911893Y-111216059D01*
X69905943Y-111217549D01*
X69899876Y-111218449D01*
X69893750Y-111218750D01*
X68943750Y-111218750D01*
X68937624Y-111218449D01*
X68931557Y-111217549D01*
X68925607Y-111216059D01*
X68919832Y-111213992D01*
X68914288Y-111211370D01*
X68909027Y-111208217D01*
X68904100Y-111204563D01*
X68899556Y-111200444D01*
X68895437Y-111195900D01*
X68891783Y-111190973D01*
X68888630Y-111185712D01*
X68886008Y-111180168D01*
X68883941Y-111174393D01*
X68882451Y-111168443D01*
X68881551Y-111162376D01*
X68881250Y-111156250D01*
X68881250Y-111031250D01*
X68881551Y-111025124D01*
X68882451Y-111019057D01*
X68883941Y-111013107D01*
X68886008Y-111007332D01*
X68888630Y-111001788D01*
X68891783Y-110996527D01*
X68895437Y-110991600D01*
X68899556Y-110987056D01*
X68904100Y-110982937D01*
X68909027Y-110979283D01*
X68914288Y-110976130D01*
X68919832Y-110973508D01*
X68925607Y-110971441D01*
X68931557Y-110969951D01*
X68937624Y-110969051D01*
X68943750Y-110968750D01*
X69893750Y-110968750D01*
X69899876Y-110969051D01*
X69899876Y-110969051D01*
G37*
D24*
X69418750Y-111093750D03*
D13*
G36*
X69899876Y-111469051D02*
G01*
X69905943Y-111469951D01*
X69911893Y-111471441D01*
X69917668Y-111473508D01*
X69923212Y-111476130D01*
X69928473Y-111479283D01*
X69933400Y-111482937D01*
X69937944Y-111487056D01*
X69942063Y-111491600D01*
X69945717Y-111496527D01*
X69948870Y-111501788D01*
X69951492Y-111507332D01*
X69953559Y-111513107D01*
X69955049Y-111519057D01*
X69955949Y-111525124D01*
X69956250Y-111531250D01*
X69956250Y-111656250D01*
X69955949Y-111662376D01*
X69955049Y-111668443D01*
X69953559Y-111674393D01*
X69951492Y-111680168D01*
X69948870Y-111685712D01*
X69945717Y-111690973D01*
X69942063Y-111695900D01*
X69937944Y-111700444D01*
X69933400Y-111704563D01*
X69928473Y-111708217D01*
X69923212Y-111711370D01*
X69917668Y-111713992D01*
X69911893Y-111716059D01*
X69905943Y-111717549D01*
X69899876Y-111718449D01*
X69893750Y-111718750D01*
X68943750Y-111718750D01*
X68937624Y-111718449D01*
X68931557Y-111717549D01*
X68925607Y-111716059D01*
X68919832Y-111713992D01*
X68914288Y-111711370D01*
X68909027Y-111708217D01*
X68904100Y-111704563D01*
X68899556Y-111700444D01*
X68895437Y-111695900D01*
X68891783Y-111690973D01*
X68888630Y-111685712D01*
X68886008Y-111680168D01*
X68883941Y-111674393D01*
X68882451Y-111668443D01*
X68881551Y-111662376D01*
X68881250Y-111656250D01*
X68881250Y-111531250D01*
X68881551Y-111525124D01*
X68882451Y-111519057D01*
X68883941Y-111513107D01*
X68886008Y-111507332D01*
X68888630Y-111501788D01*
X68891783Y-111496527D01*
X68895437Y-111491600D01*
X68899556Y-111487056D01*
X68904100Y-111482937D01*
X68909027Y-111479283D01*
X68914288Y-111476130D01*
X68919832Y-111473508D01*
X68925607Y-111471441D01*
X68931557Y-111469951D01*
X68937624Y-111469051D01*
X68943750Y-111468750D01*
X69893750Y-111468750D01*
X69899876Y-111469051D01*
X69899876Y-111469051D01*
G37*
D24*
X69418750Y-111593750D03*
D13*
G36*
X70324876Y-111894051D02*
G01*
X70330943Y-111894951D01*
X70336893Y-111896441D01*
X70342668Y-111898508D01*
X70348212Y-111901130D01*
X70353473Y-111904283D01*
X70358400Y-111907937D01*
X70362944Y-111912056D01*
X70367063Y-111916600D01*
X70370717Y-111921527D01*
X70373870Y-111926788D01*
X70376492Y-111932332D01*
X70378559Y-111938107D01*
X70380049Y-111944057D01*
X70380949Y-111950124D01*
X70381250Y-111956250D01*
X70381250Y-112906250D01*
X70380949Y-112912376D01*
X70380049Y-112918443D01*
X70378559Y-112924393D01*
X70376492Y-112930168D01*
X70373870Y-112935712D01*
X70370717Y-112940973D01*
X70367063Y-112945900D01*
X70362944Y-112950444D01*
X70358400Y-112954563D01*
X70353473Y-112958217D01*
X70348212Y-112961370D01*
X70342668Y-112963992D01*
X70336893Y-112966059D01*
X70330943Y-112967549D01*
X70324876Y-112968449D01*
X70318750Y-112968750D01*
X70193750Y-112968750D01*
X70187624Y-112968449D01*
X70181557Y-112967549D01*
X70175607Y-112966059D01*
X70169832Y-112963992D01*
X70164288Y-112961370D01*
X70159027Y-112958217D01*
X70154100Y-112954563D01*
X70149556Y-112950444D01*
X70145437Y-112945900D01*
X70141783Y-112940973D01*
X70138630Y-112935712D01*
X70136008Y-112930168D01*
X70133941Y-112924393D01*
X70132451Y-112918443D01*
X70131551Y-112912376D01*
X70131250Y-112906250D01*
X70131250Y-111956250D01*
X70131551Y-111950124D01*
X70132451Y-111944057D01*
X70133941Y-111938107D01*
X70136008Y-111932332D01*
X70138630Y-111926788D01*
X70141783Y-111921527D01*
X70145437Y-111916600D01*
X70149556Y-111912056D01*
X70154100Y-111907937D01*
X70159027Y-111904283D01*
X70164288Y-111901130D01*
X70169832Y-111898508D01*
X70175607Y-111896441D01*
X70181557Y-111894951D01*
X70187624Y-111894051D01*
X70193750Y-111893750D01*
X70318750Y-111893750D01*
X70324876Y-111894051D01*
X70324876Y-111894051D01*
G37*
D24*
X70256250Y-112431250D03*
D13*
G36*
X70824876Y-111894051D02*
G01*
X70830943Y-111894951D01*
X70836893Y-111896441D01*
X70842668Y-111898508D01*
X70848212Y-111901130D01*
X70853473Y-111904283D01*
X70858400Y-111907937D01*
X70862944Y-111912056D01*
X70867063Y-111916600D01*
X70870717Y-111921527D01*
X70873870Y-111926788D01*
X70876492Y-111932332D01*
X70878559Y-111938107D01*
X70880049Y-111944057D01*
X70880949Y-111950124D01*
X70881250Y-111956250D01*
X70881250Y-112906250D01*
X70880949Y-112912376D01*
X70880049Y-112918443D01*
X70878559Y-112924393D01*
X70876492Y-112930168D01*
X70873870Y-112935712D01*
X70870717Y-112940973D01*
X70867063Y-112945900D01*
X70862944Y-112950444D01*
X70858400Y-112954563D01*
X70853473Y-112958217D01*
X70848212Y-112961370D01*
X70842668Y-112963992D01*
X70836893Y-112966059D01*
X70830943Y-112967549D01*
X70824876Y-112968449D01*
X70818750Y-112968750D01*
X70693750Y-112968750D01*
X70687624Y-112968449D01*
X70681557Y-112967549D01*
X70675607Y-112966059D01*
X70669832Y-112963992D01*
X70664288Y-112961370D01*
X70659027Y-112958217D01*
X70654100Y-112954563D01*
X70649556Y-112950444D01*
X70645437Y-112945900D01*
X70641783Y-112940973D01*
X70638630Y-112935712D01*
X70636008Y-112930168D01*
X70633941Y-112924393D01*
X70632451Y-112918443D01*
X70631551Y-112912376D01*
X70631250Y-112906250D01*
X70631250Y-111956250D01*
X70631551Y-111950124D01*
X70632451Y-111944057D01*
X70633941Y-111938107D01*
X70636008Y-111932332D01*
X70638630Y-111926788D01*
X70641783Y-111921527D01*
X70645437Y-111916600D01*
X70649556Y-111912056D01*
X70654100Y-111907937D01*
X70659027Y-111904283D01*
X70664288Y-111901130D01*
X70669832Y-111898508D01*
X70675607Y-111896441D01*
X70681557Y-111894951D01*
X70687624Y-111894051D01*
X70693750Y-111893750D01*
X70818750Y-111893750D01*
X70824876Y-111894051D01*
X70824876Y-111894051D01*
G37*
D24*
X70756250Y-112431250D03*
D13*
G36*
X71324876Y-111894051D02*
G01*
X71330943Y-111894951D01*
X71336893Y-111896441D01*
X71342668Y-111898508D01*
X71348212Y-111901130D01*
X71353473Y-111904283D01*
X71358400Y-111907937D01*
X71362944Y-111912056D01*
X71367063Y-111916600D01*
X71370717Y-111921527D01*
X71373870Y-111926788D01*
X71376492Y-111932332D01*
X71378559Y-111938107D01*
X71380049Y-111944057D01*
X71380949Y-111950124D01*
X71381250Y-111956250D01*
X71381250Y-112906250D01*
X71380949Y-112912376D01*
X71380049Y-112918443D01*
X71378559Y-112924393D01*
X71376492Y-112930168D01*
X71373870Y-112935712D01*
X71370717Y-112940973D01*
X71367063Y-112945900D01*
X71362944Y-112950444D01*
X71358400Y-112954563D01*
X71353473Y-112958217D01*
X71348212Y-112961370D01*
X71342668Y-112963992D01*
X71336893Y-112966059D01*
X71330943Y-112967549D01*
X71324876Y-112968449D01*
X71318750Y-112968750D01*
X71193750Y-112968750D01*
X71187624Y-112968449D01*
X71181557Y-112967549D01*
X71175607Y-112966059D01*
X71169832Y-112963992D01*
X71164288Y-112961370D01*
X71159027Y-112958217D01*
X71154100Y-112954563D01*
X71149556Y-112950444D01*
X71145437Y-112945900D01*
X71141783Y-112940973D01*
X71138630Y-112935712D01*
X71136008Y-112930168D01*
X71133941Y-112924393D01*
X71132451Y-112918443D01*
X71131551Y-112912376D01*
X71131250Y-112906250D01*
X71131250Y-111956250D01*
X71131551Y-111950124D01*
X71132451Y-111944057D01*
X71133941Y-111938107D01*
X71136008Y-111932332D01*
X71138630Y-111926788D01*
X71141783Y-111921527D01*
X71145437Y-111916600D01*
X71149556Y-111912056D01*
X71154100Y-111907937D01*
X71159027Y-111904283D01*
X71164288Y-111901130D01*
X71169832Y-111898508D01*
X71175607Y-111896441D01*
X71181557Y-111894951D01*
X71187624Y-111894051D01*
X71193750Y-111893750D01*
X71318750Y-111893750D01*
X71324876Y-111894051D01*
X71324876Y-111894051D01*
G37*
D24*
X71256250Y-112431250D03*
D13*
G36*
X71824876Y-111894051D02*
G01*
X71830943Y-111894951D01*
X71836893Y-111896441D01*
X71842668Y-111898508D01*
X71848212Y-111901130D01*
X71853473Y-111904283D01*
X71858400Y-111907937D01*
X71862944Y-111912056D01*
X71867063Y-111916600D01*
X71870717Y-111921527D01*
X71873870Y-111926788D01*
X71876492Y-111932332D01*
X71878559Y-111938107D01*
X71880049Y-111944057D01*
X71880949Y-111950124D01*
X71881250Y-111956250D01*
X71881250Y-112906250D01*
X71880949Y-112912376D01*
X71880049Y-112918443D01*
X71878559Y-112924393D01*
X71876492Y-112930168D01*
X71873870Y-112935712D01*
X71870717Y-112940973D01*
X71867063Y-112945900D01*
X71862944Y-112950444D01*
X71858400Y-112954563D01*
X71853473Y-112958217D01*
X71848212Y-112961370D01*
X71842668Y-112963992D01*
X71836893Y-112966059D01*
X71830943Y-112967549D01*
X71824876Y-112968449D01*
X71818750Y-112968750D01*
X71693750Y-112968750D01*
X71687624Y-112968449D01*
X71681557Y-112967549D01*
X71675607Y-112966059D01*
X71669832Y-112963992D01*
X71664288Y-112961370D01*
X71659027Y-112958217D01*
X71654100Y-112954563D01*
X71649556Y-112950444D01*
X71645437Y-112945900D01*
X71641783Y-112940973D01*
X71638630Y-112935712D01*
X71636008Y-112930168D01*
X71633941Y-112924393D01*
X71632451Y-112918443D01*
X71631551Y-112912376D01*
X71631250Y-112906250D01*
X71631250Y-111956250D01*
X71631551Y-111950124D01*
X71632451Y-111944057D01*
X71633941Y-111938107D01*
X71636008Y-111932332D01*
X71638630Y-111926788D01*
X71641783Y-111921527D01*
X71645437Y-111916600D01*
X71649556Y-111912056D01*
X71654100Y-111907937D01*
X71659027Y-111904283D01*
X71664288Y-111901130D01*
X71669832Y-111898508D01*
X71675607Y-111896441D01*
X71681557Y-111894951D01*
X71687624Y-111894051D01*
X71693750Y-111893750D01*
X71818750Y-111893750D01*
X71824876Y-111894051D01*
X71824876Y-111894051D01*
G37*
D24*
X71756250Y-112431250D03*
D13*
G36*
X72324876Y-111894051D02*
G01*
X72330943Y-111894951D01*
X72336893Y-111896441D01*
X72342668Y-111898508D01*
X72348212Y-111901130D01*
X72353473Y-111904283D01*
X72358400Y-111907937D01*
X72362944Y-111912056D01*
X72367063Y-111916600D01*
X72370717Y-111921527D01*
X72373870Y-111926788D01*
X72376492Y-111932332D01*
X72378559Y-111938107D01*
X72380049Y-111944057D01*
X72380949Y-111950124D01*
X72381250Y-111956250D01*
X72381250Y-112906250D01*
X72380949Y-112912376D01*
X72380049Y-112918443D01*
X72378559Y-112924393D01*
X72376492Y-112930168D01*
X72373870Y-112935712D01*
X72370717Y-112940973D01*
X72367063Y-112945900D01*
X72362944Y-112950444D01*
X72358400Y-112954563D01*
X72353473Y-112958217D01*
X72348212Y-112961370D01*
X72342668Y-112963992D01*
X72336893Y-112966059D01*
X72330943Y-112967549D01*
X72324876Y-112968449D01*
X72318750Y-112968750D01*
X72193750Y-112968750D01*
X72187624Y-112968449D01*
X72181557Y-112967549D01*
X72175607Y-112966059D01*
X72169832Y-112963992D01*
X72164288Y-112961370D01*
X72159027Y-112958217D01*
X72154100Y-112954563D01*
X72149556Y-112950444D01*
X72145437Y-112945900D01*
X72141783Y-112940973D01*
X72138630Y-112935712D01*
X72136008Y-112930168D01*
X72133941Y-112924393D01*
X72132451Y-112918443D01*
X72131551Y-112912376D01*
X72131250Y-112906250D01*
X72131250Y-111956250D01*
X72131551Y-111950124D01*
X72132451Y-111944057D01*
X72133941Y-111938107D01*
X72136008Y-111932332D01*
X72138630Y-111926788D01*
X72141783Y-111921527D01*
X72145437Y-111916600D01*
X72149556Y-111912056D01*
X72154100Y-111907937D01*
X72159027Y-111904283D01*
X72164288Y-111901130D01*
X72169832Y-111898508D01*
X72175607Y-111896441D01*
X72181557Y-111894951D01*
X72187624Y-111894051D01*
X72193750Y-111893750D01*
X72318750Y-111893750D01*
X72324876Y-111894051D01*
X72324876Y-111894051D01*
G37*
D24*
X72256250Y-112431250D03*
D13*
G36*
X72824876Y-111894051D02*
G01*
X72830943Y-111894951D01*
X72836893Y-111896441D01*
X72842668Y-111898508D01*
X72848212Y-111901130D01*
X72853473Y-111904283D01*
X72858400Y-111907937D01*
X72862944Y-111912056D01*
X72867063Y-111916600D01*
X72870717Y-111921527D01*
X72873870Y-111926788D01*
X72876492Y-111932332D01*
X72878559Y-111938107D01*
X72880049Y-111944057D01*
X72880949Y-111950124D01*
X72881250Y-111956250D01*
X72881250Y-112906250D01*
X72880949Y-112912376D01*
X72880049Y-112918443D01*
X72878559Y-112924393D01*
X72876492Y-112930168D01*
X72873870Y-112935712D01*
X72870717Y-112940973D01*
X72867063Y-112945900D01*
X72862944Y-112950444D01*
X72858400Y-112954563D01*
X72853473Y-112958217D01*
X72848212Y-112961370D01*
X72842668Y-112963992D01*
X72836893Y-112966059D01*
X72830943Y-112967549D01*
X72824876Y-112968449D01*
X72818750Y-112968750D01*
X72693750Y-112968750D01*
X72687624Y-112968449D01*
X72681557Y-112967549D01*
X72675607Y-112966059D01*
X72669832Y-112963992D01*
X72664288Y-112961370D01*
X72659027Y-112958217D01*
X72654100Y-112954563D01*
X72649556Y-112950444D01*
X72645437Y-112945900D01*
X72641783Y-112940973D01*
X72638630Y-112935712D01*
X72636008Y-112930168D01*
X72633941Y-112924393D01*
X72632451Y-112918443D01*
X72631551Y-112912376D01*
X72631250Y-112906250D01*
X72631250Y-111956250D01*
X72631551Y-111950124D01*
X72632451Y-111944057D01*
X72633941Y-111938107D01*
X72636008Y-111932332D01*
X72638630Y-111926788D01*
X72641783Y-111921527D01*
X72645437Y-111916600D01*
X72649556Y-111912056D01*
X72654100Y-111907937D01*
X72659027Y-111904283D01*
X72664288Y-111901130D01*
X72669832Y-111898508D01*
X72675607Y-111896441D01*
X72681557Y-111894951D01*
X72687624Y-111894051D01*
X72693750Y-111893750D01*
X72818750Y-111893750D01*
X72824876Y-111894051D01*
X72824876Y-111894051D01*
G37*
D24*
X72756250Y-112431250D03*
D13*
G36*
X73324876Y-111894051D02*
G01*
X73330943Y-111894951D01*
X73336893Y-111896441D01*
X73342668Y-111898508D01*
X73348212Y-111901130D01*
X73353473Y-111904283D01*
X73358400Y-111907937D01*
X73362944Y-111912056D01*
X73367063Y-111916600D01*
X73370717Y-111921527D01*
X73373870Y-111926788D01*
X73376492Y-111932332D01*
X73378559Y-111938107D01*
X73380049Y-111944057D01*
X73380949Y-111950124D01*
X73381250Y-111956250D01*
X73381250Y-112906250D01*
X73380949Y-112912376D01*
X73380049Y-112918443D01*
X73378559Y-112924393D01*
X73376492Y-112930168D01*
X73373870Y-112935712D01*
X73370717Y-112940973D01*
X73367063Y-112945900D01*
X73362944Y-112950444D01*
X73358400Y-112954563D01*
X73353473Y-112958217D01*
X73348212Y-112961370D01*
X73342668Y-112963992D01*
X73336893Y-112966059D01*
X73330943Y-112967549D01*
X73324876Y-112968449D01*
X73318750Y-112968750D01*
X73193750Y-112968750D01*
X73187624Y-112968449D01*
X73181557Y-112967549D01*
X73175607Y-112966059D01*
X73169832Y-112963992D01*
X73164288Y-112961370D01*
X73159027Y-112958217D01*
X73154100Y-112954563D01*
X73149556Y-112950444D01*
X73145437Y-112945900D01*
X73141783Y-112940973D01*
X73138630Y-112935712D01*
X73136008Y-112930168D01*
X73133941Y-112924393D01*
X73132451Y-112918443D01*
X73131551Y-112912376D01*
X73131250Y-112906250D01*
X73131250Y-111956250D01*
X73131551Y-111950124D01*
X73132451Y-111944057D01*
X73133941Y-111938107D01*
X73136008Y-111932332D01*
X73138630Y-111926788D01*
X73141783Y-111921527D01*
X73145437Y-111916600D01*
X73149556Y-111912056D01*
X73154100Y-111907937D01*
X73159027Y-111904283D01*
X73164288Y-111901130D01*
X73169832Y-111898508D01*
X73175607Y-111896441D01*
X73181557Y-111894951D01*
X73187624Y-111894051D01*
X73193750Y-111893750D01*
X73318750Y-111893750D01*
X73324876Y-111894051D01*
X73324876Y-111894051D01*
G37*
D24*
X73256250Y-112431250D03*
D13*
G36*
X73824876Y-111894051D02*
G01*
X73830943Y-111894951D01*
X73836893Y-111896441D01*
X73842668Y-111898508D01*
X73848212Y-111901130D01*
X73853473Y-111904283D01*
X73858400Y-111907937D01*
X73862944Y-111912056D01*
X73867063Y-111916600D01*
X73870717Y-111921527D01*
X73873870Y-111926788D01*
X73876492Y-111932332D01*
X73878559Y-111938107D01*
X73880049Y-111944057D01*
X73880949Y-111950124D01*
X73881250Y-111956250D01*
X73881250Y-112906250D01*
X73880949Y-112912376D01*
X73880049Y-112918443D01*
X73878559Y-112924393D01*
X73876492Y-112930168D01*
X73873870Y-112935712D01*
X73870717Y-112940973D01*
X73867063Y-112945900D01*
X73862944Y-112950444D01*
X73858400Y-112954563D01*
X73853473Y-112958217D01*
X73848212Y-112961370D01*
X73842668Y-112963992D01*
X73836893Y-112966059D01*
X73830943Y-112967549D01*
X73824876Y-112968449D01*
X73818750Y-112968750D01*
X73693750Y-112968750D01*
X73687624Y-112968449D01*
X73681557Y-112967549D01*
X73675607Y-112966059D01*
X73669832Y-112963992D01*
X73664288Y-112961370D01*
X73659027Y-112958217D01*
X73654100Y-112954563D01*
X73649556Y-112950444D01*
X73645437Y-112945900D01*
X73641783Y-112940973D01*
X73638630Y-112935712D01*
X73636008Y-112930168D01*
X73633941Y-112924393D01*
X73632451Y-112918443D01*
X73631551Y-112912376D01*
X73631250Y-112906250D01*
X73631250Y-111956250D01*
X73631551Y-111950124D01*
X73632451Y-111944057D01*
X73633941Y-111938107D01*
X73636008Y-111932332D01*
X73638630Y-111926788D01*
X73641783Y-111921527D01*
X73645437Y-111916600D01*
X73649556Y-111912056D01*
X73654100Y-111907937D01*
X73659027Y-111904283D01*
X73664288Y-111901130D01*
X73669832Y-111898508D01*
X73675607Y-111896441D01*
X73681557Y-111894951D01*
X73687624Y-111894051D01*
X73693750Y-111893750D01*
X73818750Y-111893750D01*
X73824876Y-111894051D01*
X73824876Y-111894051D01*
G37*
D24*
X73756250Y-112431250D03*
D13*
G36*
X74324876Y-111894051D02*
G01*
X74330943Y-111894951D01*
X74336893Y-111896441D01*
X74342668Y-111898508D01*
X74348212Y-111901130D01*
X74353473Y-111904283D01*
X74358400Y-111907937D01*
X74362944Y-111912056D01*
X74367063Y-111916600D01*
X74370717Y-111921527D01*
X74373870Y-111926788D01*
X74376492Y-111932332D01*
X74378559Y-111938107D01*
X74380049Y-111944057D01*
X74380949Y-111950124D01*
X74381250Y-111956250D01*
X74381250Y-112906250D01*
X74380949Y-112912376D01*
X74380049Y-112918443D01*
X74378559Y-112924393D01*
X74376492Y-112930168D01*
X74373870Y-112935712D01*
X74370717Y-112940973D01*
X74367063Y-112945900D01*
X74362944Y-112950444D01*
X74358400Y-112954563D01*
X74353473Y-112958217D01*
X74348212Y-112961370D01*
X74342668Y-112963992D01*
X74336893Y-112966059D01*
X74330943Y-112967549D01*
X74324876Y-112968449D01*
X74318750Y-112968750D01*
X74193750Y-112968750D01*
X74187624Y-112968449D01*
X74181557Y-112967549D01*
X74175607Y-112966059D01*
X74169832Y-112963992D01*
X74164288Y-112961370D01*
X74159027Y-112958217D01*
X74154100Y-112954563D01*
X74149556Y-112950444D01*
X74145437Y-112945900D01*
X74141783Y-112940973D01*
X74138630Y-112935712D01*
X74136008Y-112930168D01*
X74133941Y-112924393D01*
X74132451Y-112918443D01*
X74131551Y-112912376D01*
X74131250Y-112906250D01*
X74131250Y-111956250D01*
X74131551Y-111950124D01*
X74132451Y-111944057D01*
X74133941Y-111938107D01*
X74136008Y-111932332D01*
X74138630Y-111926788D01*
X74141783Y-111921527D01*
X74145437Y-111916600D01*
X74149556Y-111912056D01*
X74154100Y-111907937D01*
X74159027Y-111904283D01*
X74164288Y-111901130D01*
X74169832Y-111898508D01*
X74175607Y-111896441D01*
X74181557Y-111894951D01*
X74187624Y-111894051D01*
X74193750Y-111893750D01*
X74318750Y-111893750D01*
X74324876Y-111894051D01*
X74324876Y-111894051D01*
G37*
D24*
X74256250Y-112431250D03*
D13*
G36*
X74824876Y-111894051D02*
G01*
X74830943Y-111894951D01*
X74836893Y-111896441D01*
X74842668Y-111898508D01*
X74848212Y-111901130D01*
X74853473Y-111904283D01*
X74858400Y-111907937D01*
X74862944Y-111912056D01*
X74867063Y-111916600D01*
X74870717Y-111921527D01*
X74873870Y-111926788D01*
X74876492Y-111932332D01*
X74878559Y-111938107D01*
X74880049Y-111944057D01*
X74880949Y-111950124D01*
X74881250Y-111956250D01*
X74881250Y-112906250D01*
X74880949Y-112912376D01*
X74880049Y-112918443D01*
X74878559Y-112924393D01*
X74876492Y-112930168D01*
X74873870Y-112935712D01*
X74870717Y-112940973D01*
X74867063Y-112945900D01*
X74862944Y-112950444D01*
X74858400Y-112954563D01*
X74853473Y-112958217D01*
X74848212Y-112961370D01*
X74842668Y-112963992D01*
X74836893Y-112966059D01*
X74830943Y-112967549D01*
X74824876Y-112968449D01*
X74818750Y-112968750D01*
X74693750Y-112968750D01*
X74687624Y-112968449D01*
X74681557Y-112967549D01*
X74675607Y-112966059D01*
X74669832Y-112963992D01*
X74664288Y-112961370D01*
X74659027Y-112958217D01*
X74654100Y-112954563D01*
X74649556Y-112950444D01*
X74645437Y-112945900D01*
X74641783Y-112940973D01*
X74638630Y-112935712D01*
X74636008Y-112930168D01*
X74633941Y-112924393D01*
X74632451Y-112918443D01*
X74631551Y-112912376D01*
X74631250Y-112906250D01*
X74631250Y-111956250D01*
X74631551Y-111950124D01*
X74632451Y-111944057D01*
X74633941Y-111938107D01*
X74636008Y-111932332D01*
X74638630Y-111926788D01*
X74641783Y-111921527D01*
X74645437Y-111916600D01*
X74649556Y-111912056D01*
X74654100Y-111907937D01*
X74659027Y-111904283D01*
X74664288Y-111901130D01*
X74669832Y-111898508D01*
X74675607Y-111896441D01*
X74681557Y-111894951D01*
X74687624Y-111894051D01*
X74693750Y-111893750D01*
X74818750Y-111893750D01*
X74824876Y-111894051D01*
X74824876Y-111894051D01*
G37*
D24*
X74756250Y-112431250D03*
D13*
G36*
X75324876Y-111894051D02*
G01*
X75330943Y-111894951D01*
X75336893Y-111896441D01*
X75342668Y-111898508D01*
X75348212Y-111901130D01*
X75353473Y-111904283D01*
X75358400Y-111907937D01*
X75362944Y-111912056D01*
X75367063Y-111916600D01*
X75370717Y-111921527D01*
X75373870Y-111926788D01*
X75376492Y-111932332D01*
X75378559Y-111938107D01*
X75380049Y-111944057D01*
X75380949Y-111950124D01*
X75381250Y-111956250D01*
X75381250Y-112906250D01*
X75380949Y-112912376D01*
X75380049Y-112918443D01*
X75378559Y-112924393D01*
X75376492Y-112930168D01*
X75373870Y-112935712D01*
X75370717Y-112940973D01*
X75367063Y-112945900D01*
X75362944Y-112950444D01*
X75358400Y-112954563D01*
X75353473Y-112958217D01*
X75348212Y-112961370D01*
X75342668Y-112963992D01*
X75336893Y-112966059D01*
X75330943Y-112967549D01*
X75324876Y-112968449D01*
X75318750Y-112968750D01*
X75193750Y-112968750D01*
X75187624Y-112968449D01*
X75181557Y-112967549D01*
X75175607Y-112966059D01*
X75169832Y-112963992D01*
X75164288Y-112961370D01*
X75159027Y-112958217D01*
X75154100Y-112954563D01*
X75149556Y-112950444D01*
X75145437Y-112945900D01*
X75141783Y-112940973D01*
X75138630Y-112935712D01*
X75136008Y-112930168D01*
X75133941Y-112924393D01*
X75132451Y-112918443D01*
X75131551Y-112912376D01*
X75131250Y-112906250D01*
X75131250Y-111956250D01*
X75131551Y-111950124D01*
X75132451Y-111944057D01*
X75133941Y-111938107D01*
X75136008Y-111932332D01*
X75138630Y-111926788D01*
X75141783Y-111921527D01*
X75145437Y-111916600D01*
X75149556Y-111912056D01*
X75154100Y-111907937D01*
X75159027Y-111904283D01*
X75164288Y-111901130D01*
X75169832Y-111898508D01*
X75175607Y-111896441D01*
X75181557Y-111894951D01*
X75187624Y-111894051D01*
X75193750Y-111893750D01*
X75318750Y-111893750D01*
X75324876Y-111894051D01*
X75324876Y-111894051D01*
G37*
D24*
X75256250Y-112431250D03*
D13*
G36*
X76574876Y-111469051D02*
G01*
X76580943Y-111469951D01*
X76586893Y-111471441D01*
X76592668Y-111473508D01*
X76598212Y-111476130D01*
X76603473Y-111479283D01*
X76608400Y-111482937D01*
X76612944Y-111487056D01*
X76617063Y-111491600D01*
X76620717Y-111496527D01*
X76623870Y-111501788D01*
X76626492Y-111507332D01*
X76628559Y-111513107D01*
X76630049Y-111519057D01*
X76630949Y-111525124D01*
X76631250Y-111531250D01*
X76631250Y-111656250D01*
X76630949Y-111662376D01*
X76630049Y-111668443D01*
X76628559Y-111674393D01*
X76626492Y-111680168D01*
X76623870Y-111685712D01*
X76620717Y-111690973D01*
X76617063Y-111695900D01*
X76612944Y-111700444D01*
X76608400Y-111704563D01*
X76603473Y-111708217D01*
X76598212Y-111711370D01*
X76592668Y-111713992D01*
X76586893Y-111716059D01*
X76580943Y-111717549D01*
X76574876Y-111718449D01*
X76568750Y-111718750D01*
X75618750Y-111718750D01*
X75612624Y-111718449D01*
X75606557Y-111717549D01*
X75600607Y-111716059D01*
X75594832Y-111713992D01*
X75589288Y-111711370D01*
X75584027Y-111708217D01*
X75579100Y-111704563D01*
X75574556Y-111700444D01*
X75570437Y-111695900D01*
X75566783Y-111690973D01*
X75563630Y-111685712D01*
X75561008Y-111680168D01*
X75558941Y-111674393D01*
X75557451Y-111668443D01*
X75556551Y-111662376D01*
X75556250Y-111656250D01*
X75556250Y-111531250D01*
X75556551Y-111525124D01*
X75557451Y-111519057D01*
X75558941Y-111513107D01*
X75561008Y-111507332D01*
X75563630Y-111501788D01*
X75566783Y-111496527D01*
X75570437Y-111491600D01*
X75574556Y-111487056D01*
X75579100Y-111482937D01*
X75584027Y-111479283D01*
X75589288Y-111476130D01*
X75594832Y-111473508D01*
X75600607Y-111471441D01*
X75606557Y-111469951D01*
X75612624Y-111469051D01*
X75618750Y-111468750D01*
X76568750Y-111468750D01*
X76574876Y-111469051D01*
X76574876Y-111469051D01*
G37*
D24*
X76093750Y-111593750D03*
D13*
G36*
X76574876Y-110969051D02*
G01*
X76580943Y-110969951D01*
X76586893Y-110971441D01*
X76592668Y-110973508D01*
X76598212Y-110976130D01*
X76603473Y-110979283D01*
X76608400Y-110982937D01*
X76612944Y-110987056D01*
X76617063Y-110991600D01*
X76620717Y-110996527D01*
X76623870Y-111001788D01*
X76626492Y-111007332D01*
X76628559Y-111013107D01*
X76630049Y-111019057D01*
X76630949Y-111025124D01*
X76631250Y-111031250D01*
X76631250Y-111156250D01*
X76630949Y-111162376D01*
X76630049Y-111168443D01*
X76628559Y-111174393D01*
X76626492Y-111180168D01*
X76623870Y-111185712D01*
X76620717Y-111190973D01*
X76617063Y-111195900D01*
X76612944Y-111200444D01*
X76608400Y-111204563D01*
X76603473Y-111208217D01*
X76598212Y-111211370D01*
X76592668Y-111213992D01*
X76586893Y-111216059D01*
X76580943Y-111217549D01*
X76574876Y-111218449D01*
X76568750Y-111218750D01*
X75618750Y-111218750D01*
X75612624Y-111218449D01*
X75606557Y-111217549D01*
X75600607Y-111216059D01*
X75594832Y-111213992D01*
X75589288Y-111211370D01*
X75584027Y-111208217D01*
X75579100Y-111204563D01*
X75574556Y-111200444D01*
X75570437Y-111195900D01*
X75566783Y-111190973D01*
X75563630Y-111185712D01*
X75561008Y-111180168D01*
X75558941Y-111174393D01*
X75557451Y-111168443D01*
X75556551Y-111162376D01*
X75556250Y-111156250D01*
X75556250Y-111031250D01*
X75556551Y-111025124D01*
X75557451Y-111019057D01*
X75558941Y-111013107D01*
X75561008Y-111007332D01*
X75563630Y-111001788D01*
X75566783Y-110996527D01*
X75570437Y-110991600D01*
X75574556Y-110987056D01*
X75579100Y-110982937D01*
X75584027Y-110979283D01*
X75589288Y-110976130D01*
X75594832Y-110973508D01*
X75600607Y-110971441D01*
X75606557Y-110969951D01*
X75612624Y-110969051D01*
X75618750Y-110968750D01*
X76568750Y-110968750D01*
X76574876Y-110969051D01*
X76574876Y-110969051D01*
G37*
D24*
X76093750Y-111093750D03*
D13*
G36*
X76574876Y-110469051D02*
G01*
X76580943Y-110469951D01*
X76586893Y-110471441D01*
X76592668Y-110473508D01*
X76598212Y-110476130D01*
X76603473Y-110479283D01*
X76608400Y-110482937D01*
X76612944Y-110487056D01*
X76617063Y-110491600D01*
X76620717Y-110496527D01*
X76623870Y-110501788D01*
X76626492Y-110507332D01*
X76628559Y-110513107D01*
X76630049Y-110519057D01*
X76630949Y-110525124D01*
X76631250Y-110531250D01*
X76631250Y-110656250D01*
X76630949Y-110662376D01*
X76630049Y-110668443D01*
X76628559Y-110674393D01*
X76626492Y-110680168D01*
X76623870Y-110685712D01*
X76620717Y-110690973D01*
X76617063Y-110695900D01*
X76612944Y-110700444D01*
X76608400Y-110704563D01*
X76603473Y-110708217D01*
X76598212Y-110711370D01*
X76592668Y-110713992D01*
X76586893Y-110716059D01*
X76580943Y-110717549D01*
X76574876Y-110718449D01*
X76568750Y-110718750D01*
X75618750Y-110718750D01*
X75612624Y-110718449D01*
X75606557Y-110717549D01*
X75600607Y-110716059D01*
X75594832Y-110713992D01*
X75589288Y-110711370D01*
X75584027Y-110708217D01*
X75579100Y-110704563D01*
X75574556Y-110700444D01*
X75570437Y-110695900D01*
X75566783Y-110690973D01*
X75563630Y-110685712D01*
X75561008Y-110680168D01*
X75558941Y-110674393D01*
X75557451Y-110668443D01*
X75556551Y-110662376D01*
X75556250Y-110656250D01*
X75556250Y-110531250D01*
X75556551Y-110525124D01*
X75557451Y-110519057D01*
X75558941Y-110513107D01*
X75561008Y-110507332D01*
X75563630Y-110501788D01*
X75566783Y-110496527D01*
X75570437Y-110491600D01*
X75574556Y-110487056D01*
X75579100Y-110482937D01*
X75584027Y-110479283D01*
X75589288Y-110476130D01*
X75594832Y-110473508D01*
X75600607Y-110471441D01*
X75606557Y-110469951D01*
X75612624Y-110469051D01*
X75618750Y-110468750D01*
X76568750Y-110468750D01*
X76574876Y-110469051D01*
X76574876Y-110469051D01*
G37*
D24*
X76093750Y-110593750D03*
D13*
G36*
X76574876Y-109969051D02*
G01*
X76580943Y-109969951D01*
X76586893Y-109971441D01*
X76592668Y-109973508D01*
X76598212Y-109976130D01*
X76603473Y-109979283D01*
X76608400Y-109982937D01*
X76612944Y-109987056D01*
X76617063Y-109991600D01*
X76620717Y-109996527D01*
X76623870Y-110001788D01*
X76626492Y-110007332D01*
X76628559Y-110013107D01*
X76630049Y-110019057D01*
X76630949Y-110025124D01*
X76631250Y-110031250D01*
X76631250Y-110156250D01*
X76630949Y-110162376D01*
X76630049Y-110168443D01*
X76628559Y-110174393D01*
X76626492Y-110180168D01*
X76623870Y-110185712D01*
X76620717Y-110190973D01*
X76617063Y-110195900D01*
X76612944Y-110200444D01*
X76608400Y-110204563D01*
X76603473Y-110208217D01*
X76598212Y-110211370D01*
X76592668Y-110213992D01*
X76586893Y-110216059D01*
X76580943Y-110217549D01*
X76574876Y-110218449D01*
X76568750Y-110218750D01*
X75618750Y-110218750D01*
X75612624Y-110218449D01*
X75606557Y-110217549D01*
X75600607Y-110216059D01*
X75594832Y-110213992D01*
X75589288Y-110211370D01*
X75584027Y-110208217D01*
X75579100Y-110204563D01*
X75574556Y-110200444D01*
X75570437Y-110195900D01*
X75566783Y-110190973D01*
X75563630Y-110185712D01*
X75561008Y-110180168D01*
X75558941Y-110174393D01*
X75557451Y-110168443D01*
X75556551Y-110162376D01*
X75556250Y-110156250D01*
X75556250Y-110031250D01*
X75556551Y-110025124D01*
X75557451Y-110019057D01*
X75558941Y-110013107D01*
X75561008Y-110007332D01*
X75563630Y-110001788D01*
X75566783Y-109996527D01*
X75570437Y-109991600D01*
X75574556Y-109987056D01*
X75579100Y-109982937D01*
X75584027Y-109979283D01*
X75589288Y-109976130D01*
X75594832Y-109973508D01*
X75600607Y-109971441D01*
X75606557Y-109969951D01*
X75612624Y-109969051D01*
X75618750Y-109968750D01*
X76568750Y-109968750D01*
X76574876Y-109969051D01*
X76574876Y-109969051D01*
G37*
D24*
X76093750Y-110093750D03*
D13*
G36*
X76574876Y-109469051D02*
G01*
X76580943Y-109469951D01*
X76586893Y-109471441D01*
X76592668Y-109473508D01*
X76598212Y-109476130D01*
X76603473Y-109479283D01*
X76608400Y-109482937D01*
X76612944Y-109487056D01*
X76617063Y-109491600D01*
X76620717Y-109496527D01*
X76623870Y-109501788D01*
X76626492Y-109507332D01*
X76628559Y-109513107D01*
X76630049Y-109519057D01*
X76630949Y-109525124D01*
X76631250Y-109531250D01*
X76631250Y-109656250D01*
X76630949Y-109662376D01*
X76630049Y-109668443D01*
X76628559Y-109674393D01*
X76626492Y-109680168D01*
X76623870Y-109685712D01*
X76620717Y-109690973D01*
X76617063Y-109695900D01*
X76612944Y-109700444D01*
X76608400Y-109704563D01*
X76603473Y-109708217D01*
X76598212Y-109711370D01*
X76592668Y-109713992D01*
X76586893Y-109716059D01*
X76580943Y-109717549D01*
X76574876Y-109718449D01*
X76568750Y-109718750D01*
X75618750Y-109718750D01*
X75612624Y-109718449D01*
X75606557Y-109717549D01*
X75600607Y-109716059D01*
X75594832Y-109713992D01*
X75589288Y-109711370D01*
X75584027Y-109708217D01*
X75579100Y-109704563D01*
X75574556Y-109700444D01*
X75570437Y-109695900D01*
X75566783Y-109690973D01*
X75563630Y-109685712D01*
X75561008Y-109680168D01*
X75558941Y-109674393D01*
X75557451Y-109668443D01*
X75556551Y-109662376D01*
X75556250Y-109656250D01*
X75556250Y-109531250D01*
X75556551Y-109525124D01*
X75557451Y-109519057D01*
X75558941Y-109513107D01*
X75561008Y-109507332D01*
X75563630Y-109501788D01*
X75566783Y-109496527D01*
X75570437Y-109491600D01*
X75574556Y-109487056D01*
X75579100Y-109482937D01*
X75584027Y-109479283D01*
X75589288Y-109476130D01*
X75594832Y-109473508D01*
X75600607Y-109471441D01*
X75606557Y-109469951D01*
X75612624Y-109469051D01*
X75618750Y-109468750D01*
X76568750Y-109468750D01*
X76574876Y-109469051D01*
X76574876Y-109469051D01*
G37*
D24*
X76093750Y-109593750D03*
D13*
G36*
X76574876Y-108969051D02*
G01*
X76580943Y-108969951D01*
X76586893Y-108971441D01*
X76592668Y-108973508D01*
X76598212Y-108976130D01*
X76603473Y-108979283D01*
X76608400Y-108982937D01*
X76612944Y-108987056D01*
X76617063Y-108991600D01*
X76620717Y-108996527D01*
X76623870Y-109001788D01*
X76626492Y-109007332D01*
X76628559Y-109013107D01*
X76630049Y-109019057D01*
X76630949Y-109025124D01*
X76631250Y-109031250D01*
X76631250Y-109156250D01*
X76630949Y-109162376D01*
X76630049Y-109168443D01*
X76628559Y-109174393D01*
X76626492Y-109180168D01*
X76623870Y-109185712D01*
X76620717Y-109190973D01*
X76617063Y-109195900D01*
X76612944Y-109200444D01*
X76608400Y-109204563D01*
X76603473Y-109208217D01*
X76598212Y-109211370D01*
X76592668Y-109213992D01*
X76586893Y-109216059D01*
X76580943Y-109217549D01*
X76574876Y-109218449D01*
X76568750Y-109218750D01*
X75618750Y-109218750D01*
X75612624Y-109218449D01*
X75606557Y-109217549D01*
X75600607Y-109216059D01*
X75594832Y-109213992D01*
X75589288Y-109211370D01*
X75584027Y-109208217D01*
X75579100Y-109204563D01*
X75574556Y-109200444D01*
X75570437Y-109195900D01*
X75566783Y-109190973D01*
X75563630Y-109185712D01*
X75561008Y-109180168D01*
X75558941Y-109174393D01*
X75557451Y-109168443D01*
X75556551Y-109162376D01*
X75556250Y-109156250D01*
X75556250Y-109031250D01*
X75556551Y-109025124D01*
X75557451Y-109019057D01*
X75558941Y-109013107D01*
X75561008Y-109007332D01*
X75563630Y-109001788D01*
X75566783Y-108996527D01*
X75570437Y-108991600D01*
X75574556Y-108987056D01*
X75579100Y-108982937D01*
X75584027Y-108979283D01*
X75589288Y-108976130D01*
X75594832Y-108973508D01*
X75600607Y-108971441D01*
X75606557Y-108969951D01*
X75612624Y-108969051D01*
X75618750Y-108968750D01*
X76568750Y-108968750D01*
X76574876Y-108969051D01*
X76574876Y-108969051D01*
G37*
D24*
X76093750Y-109093750D03*
D13*
G36*
X76574876Y-108469051D02*
G01*
X76580943Y-108469951D01*
X76586893Y-108471441D01*
X76592668Y-108473508D01*
X76598212Y-108476130D01*
X76603473Y-108479283D01*
X76608400Y-108482937D01*
X76612944Y-108487056D01*
X76617063Y-108491600D01*
X76620717Y-108496527D01*
X76623870Y-108501788D01*
X76626492Y-108507332D01*
X76628559Y-108513107D01*
X76630049Y-108519057D01*
X76630949Y-108525124D01*
X76631250Y-108531250D01*
X76631250Y-108656250D01*
X76630949Y-108662376D01*
X76630049Y-108668443D01*
X76628559Y-108674393D01*
X76626492Y-108680168D01*
X76623870Y-108685712D01*
X76620717Y-108690973D01*
X76617063Y-108695900D01*
X76612944Y-108700444D01*
X76608400Y-108704563D01*
X76603473Y-108708217D01*
X76598212Y-108711370D01*
X76592668Y-108713992D01*
X76586893Y-108716059D01*
X76580943Y-108717549D01*
X76574876Y-108718449D01*
X76568750Y-108718750D01*
X75618750Y-108718750D01*
X75612624Y-108718449D01*
X75606557Y-108717549D01*
X75600607Y-108716059D01*
X75594832Y-108713992D01*
X75589288Y-108711370D01*
X75584027Y-108708217D01*
X75579100Y-108704563D01*
X75574556Y-108700444D01*
X75570437Y-108695900D01*
X75566783Y-108690973D01*
X75563630Y-108685712D01*
X75561008Y-108680168D01*
X75558941Y-108674393D01*
X75557451Y-108668443D01*
X75556551Y-108662376D01*
X75556250Y-108656250D01*
X75556250Y-108531250D01*
X75556551Y-108525124D01*
X75557451Y-108519057D01*
X75558941Y-108513107D01*
X75561008Y-108507332D01*
X75563630Y-108501788D01*
X75566783Y-108496527D01*
X75570437Y-108491600D01*
X75574556Y-108487056D01*
X75579100Y-108482937D01*
X75584027Y-108479283D01*
X75589288Y-108476130D01*
X75594832Y-108473508D01*
X75600607Y-108471441D01*
X75606557Y-108469951D01*
X75612624Y-108469051D01*
X75618750Y-108468750D01*
X76568750Y-108468750D01*
X76574876Y-108469051D01*
X76574876Y-108469051D01*
G37*
D24*
X76093750Y-108593750D03*
D13*
G36*
X76574876Y-107969051D02*
G01*
X76580943Y-107969951D01*
X76586893Y-107971441D01*
X76592668Y-107973508D01*
X76598212Y-107976130D01*
X76603473Y-107979283D01*
X76608400Y-107982937D01*
X76612944Y-107987056D01*
X76617063Y-107991600D01*
X76620717Y-107996527D01*
X76623870Y-108001788D01*
X76626492Y-108007332D01*
X76628559Y-108013107D01*
X76630049Y-108019057D01*
X76630949Y-108025124D01*
X76631250Y-108031250D01*
X76631250Y-108156250D01*
X76630949Y-108162376D01*
X76630049Y-108168443D01*
X76628559Y-108174393D01*
X76626492Y-108180168D01*
X76623870Y-108185712D01*
X76620717Y-108190973D01*
X76617063Y-108195900D01*
X76612944Y-108200444D01*
X76608400Y-108204563D01*
X76603473Y-108208217D01*
X76598212Y-108211370D01*
X76592668Y-108213992D01*
X76586893Y-108216059D01*
X76580943Y-108217549D01*
X76574876Y-108218449D01*
X76568750Y-108218750D01*
X75618750Y-108218750D01*
X75612624Y-108218449D01*
X75606557Y-108217549D01*
X75600607Y-108216059D01*
X75594832Y-108213992D01*
X75589288Y-108211370D01*
X75584027Y-108208217D01*
X75579100Y-108204563D01*
X75574556Y-108200444D01*
X75570437Y-108195900D01*
X75566783Y-108190973D01*
X75563630Y-108185712D01*
X75561008Y-108180168D01*
X75558941Y-108174393D01*
X75557451Y-108168443D01*
X75556551Y-108162376D01*
X75556250Y-108156250D01*
X75556250Y-108031250D01*
X75556551Y-108025124D01*
X75557451Y-108019057D01*
X75558941Y-108013107D01*
X75561008Y-108007332D01*
X75563630Y-108001788D01*
X75566783Y-107996527D01*
X75570437Y-107991600D01*
X75574556Y-107987056D01*
X75579100Y-107982937D01*
X75584027Y-107979283D01*
X75589288Y-107976130D01*
X75594832Y-107973508D01*
X75600607Y-107971441D01*
X75606557Y-107969951D01*
X75612624Y-107969051D01*
X75618750Y-107968750D01*
X76568750Y-107968750D01*
X76574876Y-107969051D01*
X76574876Y-107969051D01*
G37*
D24*
X76093750Y-108093750D03*
D13*
G36*
X76574876Y-107469051D02*
G01*
X76580943Y-107469951D01*
X76586893Y-107471441D01*
X76592668Y-107473508D01*
X76598212Y-107476130D01*
X76603473Y-107479283D01*
X76608400Y-107482937D01*
X76612944Y-107487056D01*
X76617063Y-107491600D01*
X76620717Y-107496527D01*
X76623870Y-107501788D01*
X76626492Y-107507332D01*
X76628559Y-107513107D01*
X76630049Y-107519057D01*
X76630949Y-107525124D01*
X76631250Y-107531250D01*
X76631250Y-107656250D01*
X76630949Y-107662376D01*
X76630049Y-107668443D01*
X76628559Y-107674393D01*
X76626492Y-107680168D01*
X76623870Y-107685712D01*
X76620717Y-107690973D01*
X76617063Y-107695900D01*
X76612944Y-107700444D01*
X76608400Y-107704563D01*
X76603473Y-107708217D01*
X76598212Y-107711370D01*
X76592668Y-107713992D01*
X76586893Y-107716059D01*
X76580943Y-107717549D01*
X76574876Y-107718449D01*
X76568750Y-107718750D01*
X75618750Y-107718750D01*
X75612624Y-107718449D01*
X75606557Y-107717549D01*
X75600607Y-107716059D01*
X75594832Y-107713992D01*
X75589288Y-107711370D01*
X75584027Y-107708217D01*
X75579100Y-107704563D01*
X75574556Y-107700444D01*
X75570437Y-107695900D01*
X75566783Y-107690973D01*
X75563630Y-107685712D01*
X75561008Y-107680168D01*
X75558941Y-107674393D01*
X75557451Y-107668443D01*
X75556551Y-107662376D01*
X75556250Y-107656250D01*
X75556250Y-107531250D01*
X75556551Y-107525124D01*
X75557451Y-107519057D01*
X75558941Y-107513107D01*
X75561008Y-107507332D01*
X75563630Y-107501788D01*
X75566783Y-107496527D01*
X75570437Y-107491600D01*
X75574556Y-107487056D01*
X75579100Y-107482937D01*
X75584027Y-107479283D01*
X75589288Y-107476130D01*
X75594832Y-107473508D01*
X75600607Y-107471441D01*
X75606557Y-107469951D01*
X75612624Y-107469051D01*
X75618750Y-107468750D01*
X76568750Y-107468750D01*
X76574876Y-107469051D01*
X76574876Y-107469051D01*
G37*
D24*
X76093750Y-107593750D03*
D13*
G36*
X76574876Y-106969051D02*
G01*
X76580943Y-106969951D01*
X76586893Y-106971441D01*
X76592668Y-106973508D01*
X76598212Y-106976130D01*
X76603473Y-106979283D01*
X76608400Y-106982937D01*
X76612944Y-106987056D01*
X76617063Y-106991600D01*
X76620717Y-106996527D01*
X76623870Y-107001788D01*
X76626492Y-107007332D01*
X76628559Y-107013107D01*
X76630049Y-107019057D01*
X76630949Y-107025124D01*
X76631250Y-107031250D01*
X76631250Y-107156250D01*
X76630949Y-107162376D01*
X76630049Y-107168443D01*
X76628559Y-107174393D01*
X76626492Y-107180168D01*
X76623870Y-107185712D01*
X76620717Y-107190973D01*
X76617063Y-107195900D01*
X76612944Y-107200444D01*
X76608400Y-107204563D01*
X76603473Y-107208217D01*
X76598212Y-107211370D01*
X76592668Y-107213992D01*
X76586893Y-107216059D01*
X76580943Y-107217549D01*
X76574876Y-107218449D01*
X76568750Y-107218750D01*
X75618750Y-107218750D01*
X75612624Y-107218449D01*
X75606557Y-107217549D01*
X75600607Y-107216059D01*
X75594832Y-107213992D01*
X75589288Y-107211370D01*
X75584027Y-107208217D01*
X75579100Y-107204563D01*
X75574556Y-107200444D01*
X75570437Y-107195900D01*
X75566783Y-107190973D01*
X75563630Y-107185712D01*
X75561008Y-107180168D01*
X75558941Y-107174393D01*
X75557451Y-107168443D01*
X75556551Y-107162376D01*
X75556250Y-107156250D01*
X75556250Y-107031250D01*
X75556551Y-107025124D01*
X75557451Y-107019057D01*
X75558941Y-107013107D01*
X75561008Y-107007332D01*
X75563630Y-107001788D01*
X75566783Y-106996527D01*
X75570437Y-106991600D01*
X75574556Y-106987056D01*
X75579100Y-106982937D01*
X75584027Y-106979283D01*
X75589288Y-106976130D01*
X75594832Y-106973508D01*
X75600607Y-106971441D01*
X75606557Y-106969951D01*
X75612624Y-106969051D01*
X75618750Y-106968750D01*
X76568750Y-106968750D01*
X76574876Y-106969051D01*
X76574876Y-106969051D01*
G37*
D24*
X76093750Y-107093750D03*
D13*
G36*
X76574876Y-106469051D02*
G01*
X76580943Y-106469951D01*
X76586893Y-106471441D01*
X76592668Y-106473508D01*
X76598212Y-106476130D01*
X76603473Y-106479283D01*
X76608400Y-106482937D01*
X76612944Y-106487056D01*
X76617063Y-106491600D01*
X76620717Y-106496527D01*
X76623870Y-106501788D01*
X76626492Y-106507332D01*
X76628559Y-106513107D01*
X76630049Y-106519057D01*
X76630949Y-106525124D01*
X76631250Y-106531250D01*
X76631250Y-106656250D01*
X76630949Y-106662376D01*
X76630049Y-106668443D01*
X76628559Y-106674393D01*
X76626492Y-106680168D01*
X76623870Y-106685712D01*
X76620717Y-106690973D01*
X76617063Y-106695900D01*
X76612944Y-106700444D01*
X76608400Y-106704563D01*
X76603473Y-106708217D01*
X76598212Y-106711370D01*
X76592668Y-106713992D01*
X76586893Y-106716059D01*
X76580943Y-106717549D01*
X76574876Y-106718449D01*
X76568750Y-106718750D01*
X75618750Y-106718750D01*
X75612624Y-106718449D01*
X75606557Y-106717549D01*
X75600607Y-106716059D01*
X75594832Y-106713992D01*
X75589288Y-106711370D01*
X75584027Y-106708217D01*
X75579100Y-106704563D01*
X75574556Y-106700444D01*
X75570437Y-106695900D01*
X75566783Y-106690973D01*
X75563630Y-106685712D01*
X75561008Y-106680168D01*
X75558941Y-106674393D01*
X75557451Y-106668443D01*
X75556551Y-106662376D01*
X75556250Y-106656250D01*
X75556250Y-106531250D01*
X75556551Y-106525124D01*
X75557451Y-106519057D01*
X75558941Y-106513107D01*
X75561008Y-106507332D01*
X75563630Y-106501788D01*
X75566783Y-106496527D01*
X75570437Y-106491600D01*
X75574556Y-106487056D01*
X75579100Y-106482937D01*
X75584027Y-106479283D01*
X75589288Y-106476130D01*
X75594832Y-106473508D01*
X75600607Y-106471441D01*
X75606557Y-106469951D01*
X75612624Y-106469051D01*
X75618750Y-106468750D01*
X76568750Y-106468750D01*
X76574876Y-106469051D01*
X76574876Y-106469051D01*
G37*
D24*
X76093750Y-106593750D03*
D13*
G36*
X75324876Y-105219051D02*
G01*
X75330943Y-105219951D01*
X75336893Y-105221441D01*
X75342668Y-105223508D01*
X75348212Y-105226130D01*
X75353473Y-105229283D01*
X75358400Y-105232937D01*
X75362944Y-105237056D01*
X75367063Y-105241600D01*
X75370717Y-105246527D01*
X75373870Y-105251788D01*
X75376492Y-105257332D01*
X75378559Y-105263107D01*
X75380049Y-105269057D01*
X75380949Y-105275124D01*
X75381250Y-105281250D01*
X75381250Y-106231250D01*
X75380949Y-106237376D01*
X75380049Y-106243443D01*
X75378559Y-106249393D01*
X75376492Y-106255168D01*
X75373870Y-106260712D01*
X75370717Y-106265973D01*
X75367063Y-106270900D01*
X75362944Y-106275444D01*
X75358400Y-106279563D01*
X75353473Y-106283217D01*
X75348212Y-106286370D01*
X75342668Y-106288992D01*
X75336893Y-106291059D01*
X75330943Y-106292549D01*
X75324876Y-106293449D01*
X75318750Y-106293750D01*
X75193750Y-106293750D01*
X75187624Y-106293449D01*
X75181557Y-106292549D01*
X75175607Y-106291059D01*
X75169832Y-106288992D01*
X75164288Y-106286370D01*
X75159027Y-106283217D01*
X75154100Y-106279563D01*
X75149556Y-106275444D01*
X75145437Y-106270900D01*
X75141783Y-106265973D01*
X75138630Y-106260712D01*
X75136008Y-106255168D01*
X75133941Y-106249393D01*
X75132451Y-106243443D01*
X75131551Y-106237376D01*
X75131250Y-106231250D01*
X75131250Y-105281250D01*
X75131551Y-105275124D01*
X75132451Y-105269057D01*
X75133941Y-105263107D01*
X75136008Y-105257332D01*
X75138630Y-105251788D01*
X75141783Y-105246527D01*
X75145437Y-105241600D01*
X75149556Y-105237056D01*
X75154100Y-105232937D01*
X75159027Y-105229283D01*
X75164288Y-105226130D01*
X75169832Y-105223508D01*
X75175607Y-105221441D01*
X75181557Y-105219951D01*
X75187624Y-105219051D01*
X75193750Y-105218750D01*
X75318750Y-105218750D01*
X75324876Y-105219051D01*
X75324876Y-105219051D01*
G37*
D24*
X75256250Y-105756250D03*
D13*
G36*
X74824876Y-105219051D02*
G01*
X74830943Y-105219951D01*
X74836893Y-105221441D01*
X74842668Y-105223508D01*
X74848212Y-105226130D01*
X74853473Y-105229283D01*
X74858400Y-105232937D01*
X74862944Y-105237056D01*
X74867063Y-105241600D01*
X74870717Y-105246527D01*
X74873870Y-105251788D01*
X74876492Y-105257332D01*
X74878559Y-105263107D01*
X74880049Y-105269057D01*
X74880949Y-105275124D01*
X74881250Y-105281250D01*
X74881250Y-106231250D01*
X74880949Y-106237376D01*
X74880049Y-106243443D01*
X74878559Y-106249393D01*
X74876492Y-106255168D01*
X74873870Y-106260712D01*
X74870717Y-106265973D01*
X74867063Y-106270900D01*
X74862944Y-106275444D01*
X74858400Y-106279563D01*
X74853473Y-106283217D01*
X74848212Y-106286370D01*
X74842668Y-106288992D01*
X74836893Y-106291059D01*
X74830943Y-106292549D01*
X74824876Y-106293449D01*
X74818750Y-106293750D01*
X74693750Y-106293750D01*
X74687624Y-106293449D01*
X74681557Y-106292549D01*
X74675607Y-106291059D01*
X74669832Y-106288992D01*
X74664288Y-106286370D01*
X74659027Y-106283217D01*
X74654100Y-106279563D01*
X74649556Y-106275444D01*
X74645437Y-106270900D01*
X74641783Y-106265973D01*
X74638630Y-106260712D01*
X74636008Y-106255168D01*
X74633941Y-106249393D01*
X74632451Y-106243443D01*
X74631551Y-106237376D01*
X74631250Y-106231250D01*
X74631250Y-105281250D01*
X74631551Y-105275124D01*
X74632451Y-105269057D01*
X74633941Y-105263107D01*
X74636008Y-105257332D01*
X74638630Y-105251788D01*
X74641783Y-105246527D01*
X74645437Y-105241600D01*
X74649556Y-105237056D01*
X74654100Y-105232937D01*
X74659027Y-105229283D01*
X74664288Y-105226130D01*
X74669832Y-105223508D01*
X74675607Y-105221441D01*
X74681557Y-105219951D01*
X74687624Y-105219051D01*
X74693750Y-105218750D01*
X74818750Y-105218750D01*
X74824876Y-105219051D01*
X74824876Y-105219051D01*
G37*
D24*
X74756250Y-105756250D03*
D13*
G36*
X74324876Y-105219051D02*
G01*
X74330943Y-105219951D01*
X74336893Y-105221441D01*
X74342668Y-105223508D01*
X74348212Y-105226130D01*
X74353473Y-105229283D01*
X74358400Y-105232937D01*
X74362944Y-105237056D01*
X74367063Y-105241600D01*
X74370717Y-105246527D01*
X74373870Y-105251788D01*
X74376492Y-105257332D01*
X74378559Y-105263107D01*
X74380049Y-105269057D01*
X74380949Y-105275124D01*
X74381250Y-105281250D01*
X74381250Y-106231250D01*
X74380949Y-106237376D01*
X74380049Y-106243443D01*
X74378559Y-106249393D01*
X74376492Y-106255168D01*
X74373870Y-106260712D01*
X74370717Y-106265973D01*
X74367063Y-106270900D01*
X74362944Y-106275444D01*
X74358400Y-106279563D01*
X74353473Y-106283217D01*
X74348212Y-106286370D01*
X74342668Y-106288992D01*
X74336893Y-106291059D01*
X74330943Y-106292549D01*
X74324876Y-106293449D01*
X74318750Y-106293750D01*
X74193750Y-106293750D01*
X74187624Y-106293449D01*
X74181557Y-106292549D01*
X74175607Y-106291059D01*
X74169832Y-106288992D01*
X74164288Y-106286370D01*
X74159027Y-106283217D01*
X74154100Y-106279563D01*
X74149556Y-106275444D01*
X74145437Y-106270900D01*
X74141783Y-106265973D01*
X74138630Y-106260712D01*
X74136008Y-106255168D01*
X74133941Y-106249393D01*
X74132451Y-106243443D01*
X74131551Y-106237376D01*
X74131250Y-106231250D01*
X74131250Y-105281250D01*
X74131551Y-105275124D01*
X74132451Y-105269057D01*
X74133941Y-105263107D01*
X74136008Y-105257332D01*
X74138630Y-105251788D01*
X74141783Y-105246527D01*
X74145437Y-105241600D01*
X74149556Y-105237056D01*
X74154100Y-105232937D01*
X74159027Y-105229283D01*
X74164288Y-105226130D01*
X74169832Y-105223508D01*
X74175607Y-105221441D01*
X74181557Y-105219951D01*
X74187624Y-105219051D01*
X74193750Y-105218750D01*
X74318750Y-105218750D01*
X74324876Y-105219051D01*
X74324876Y-105219051D01*
G37*
D24*
X74256250Y-105756250D03*
D13*
G36*
X73824876Y-105219051D02*
G01*
X73830943Y-105219951D01*
X73836893Y-105221441D01*
X73842668Y-105223508D01*
X73848212Y-105226130D01*
X73853473Y-105229283D01*
X73858400Y-105232937D01*
X73862944Y-105237056D01*
X73867063Y-105241600D01*
X73870717Y-105246527D01*
X73873870Y-105251788D01*
X73876492Y-105257332D01*
X73878559Y-105263107D01*
X73880049Y-105269057D01*
X73880949Y-105275124D01*
X73881250Y-105281250D01*
X73881250Y-106231250D01*
X73880949Y-106237376D01*
X73880049Y-106243443D01*
X73878559Y-106249393D01*
X73876492Y-106255168D01*
X73873870Y-106260712D01*
X73870717Y-106265973D01*
X73867063Y-106270900D01*
X73862944Y-106275444D01*
X73858400Y-106279563D01*
X73853473Y-106283217D01*
X73848212Y-106286370D01*
X73842668Y-106288992D01*
X73836893Y-106291059D01*
X73830943Y-106292549D01*
X73824876Y-106293449D01*
X73818750Y-106293750D01*
X73693750Y-106293750D01*
X73687624Y-106293449D01*
X73681557Y-106292549D01*
X73675607Y-106291059D01*
X73669832Y-106288992D01*
X73664288Y-106286370D01*
X73659027Y-106283217D01*
X73654100Y-106279563D01*
X73649556Y-106275444D01*
X73645437Y-106270900D01*
X73641783Y-106265973D01*
X73638630Y-106260712D01*
X73636008Y-106255168D01*
X73633941Y-106249393D01*
X73632451Y-106243443D01*
X73631551Y-106237376D01*
X73631250Y-106231250D01*
X73631250Y-105281250D01*
X73631551Y-105275124D01*
X73632451Y-105269057D01*
X73633941Y-105263107D01*
X73636008Y-105257332D01*
X73638630Y-105251788D01*
X73641783Y-105246527D01*
X73645437Y-105241600D01*
X73649556Y-105237056D01*
X73654100Y-105232937D01*
X73659027Y-105229283D01*
X73664288Y-105226130D01*
X73669832Y-105223508D01*
X73675607Y-105221441D01*
X73681557Y-105219951D01*
X73687624Y-105219051D01*
X73693750Y-105218750D01*
X73818750Y-105218750D01*
X73824876Y-105219051D01*
X73824876Y-105219051D01*
G37*
D24*
X73756250Y-105756250D03*
D13*
G36*
X73324876Y-105219051D02*
G01*
X73330943Y-105219951D01*
X73336893Y-105221441D01*
X73342668Y-105223508D01*
X73348212Y-105226130D01*
X73353473Y-105229283D01*
X73358400Y-105232937D01*
X73362944Y-105237056D01*
X73367063Y-105241600D01*
X73370717Y-105246527D01*
X73373870Y-105251788D01*
X73376492Y-105257332D01*
X73378559Y-105263107D01*
X73380049Y-105269057D01*
X73380949Y-105275124D01*
X73381250Y-105281250D01*
X73381250Y-106231250D01*
X73380949Y-106237376D01*
X73380049Y-106243443D01*
X73378559Y-106249393D01*
X73376492Y-106255168D01*
X73373870Y-106260712D01*
X73370717Y-106265973D01*
X73367063Y-106270900D01*
X73362944Y-106275444D01*
X73358400Y-106279563D01*
X73353473Y-106283217D01*
X73348212Y-106286370D01*
X73342668Y-106288992D01*
X73336893Y-106291059D01*
X73330943Y-106292549D01*
X73324876Y-106293449D01*
X73318750Y-106293750D01*
X73193750Y-106293750D01*
X73187624Y-106293449D01*
X73181557Y-106292549D01*
X73175607Y-106291059D01*
X73169832Y-106288992D01*
X73164288Y-106286370D01*
X73159027Y-106283217D01*
X73154100Y-106279563D01*
X73149556Y-106275444D01*
X73145437Y-106270900D01*
X73141783Y-106265973D01*
X73138630Y-106260712D01*
X73136008Y-106255168D01*
X73133941Y-106249393D01*
X73132451Y-106243443D01*
X73131551Y-106237376D01*
X73131250Y-106231250D01*
X73131250Y-105281250D01*
X73131551Y-105275124D01*
X73132451Y-105269057D01*
X73133941Y-105263107D01*
X73136008Y-105257332D01*
X73138630Y-105251788D01*
X73141783Y-105246527D01*
X73145437Y-105241600D01*
X73149556Y-105237056D01*
X73154100Y-105232937D01*
X73159027Y-105229283D01*
X73164288Y-105226130D01*
X73169832Y-105223508D01*
X73175607Y-105221441D01*
X73181557Y-105219951D01*
X73187624Y-105219051D01*
X73193750Y-105218750D01*
X73318750Y-105218750D01*
X73324876Y-105219051D01*
X73324876Y-105219051D01*
G37*
D24*
X73256250Y-105756250D03*
D13*
G36*
X72824876Y-105219051D02*
G01*
X72830943Y-105219951D01*
X72836893Y-105221441D01*
X72842668Y-105223508D01*
X72848212Y-105226130D01*
X72853473Y-105229283D01*
X72858400Y-105232937D01*
X72862944Y-105237056D01*
X72867063Y-105241600D01*
X72870717Y-105246527D01*
X72873870Y-105251788D01*
X72876492Y-105257332D01*
X72878559Y-105263107D01*
X72880049Y-105269057D01*
X72880949Y-105275124D01*
X72881250Y-105281250D01*
X72881250Y-106231250D01*
X72880949Y-106237376D01*
X72880049Y-106243443D01*
X72878559Y-106249393D01*
X72876492Y-106255168D01*
X72873870Y-106260712D01*
X72870717Y-106265973D01*
X72867063Y-106270900D01*
X72862944Y-106275444D01*
X72858400Y-106279563D01*
X72853473Y-106283217D01*
X72848212Y-106286370D01*
X72842668Y-106288992D01*
X72836893Y-106291059D01*
X72830943Y-106292549D01*
X72824876Y-106293449D01*
X72818750Y-106293750D01*
X72693750Y-106293750D01*
X72687624Y-106293449D01*
X72681557Y-106292549D01*
X72675607Y-106291059D01*
X72669832Y-106288992D01*
X72664288Y-106286370D01*
X72659027Y-106283217D01*
X72654100Y-106279563D01*
X72649556Y-106275444D01*
X72645437Y-106270900D01*
X72641783Y-106265973D01*
X72638630Y-106260712D01*
X72636008Y-106255168D01*
X72633941Y-106249393D01*
X72632451Y-106243443D01*
X72631551Y-106237376D01*
X72631250Y-106231250D01*
X72631250Y-105281250D01*
X72631551Y-105275124D01*
X72632451Y-105269057D01*
X72633941Y-105263107D01*
X72636008Y-105257332D01*
X72638630Y-105251788D01*
X72641783Y-105246527D01*
X72645437Y-105241600D01*
X72649556Y-105237056D01*
X72654100Y-105232937D01*
X72659027Y-105229283D01*
X72664288Y-105226130D01*
X72669832Y-105223508D01*
X72675607Y-105221441D01*
X72681557Y-105219951D01*
X72687624Y-105219051D01*
X72693750Y-105218750D01*
X72818750Y-105218750D01*
X72824876Y-105219051D01*
X72824876Y-105219051D01*
G37*
D24*
X72756250Y-105756250D03*
D13*
G36*
X72324876Y-105219051D02*
G01*
X72330943Y-105219951D01*
X72336893Y-105221441D01*
X72342668Y-105223508D01*
X72348212Y-105226130D01*
X72353473Y-105229283D01*
X72358400Y-105232937D01*
X72362944Y-105237056D01*
X72367063Y-105241600D01*
X72370717Y-105246527D01*
X72373870Y-105251788D01*
X72376492Y-105257332D01*
X72378559Y-105263107D01*
X72380049Y-105269057D01*
X72380949Y-105275124D01*
X72381250Y-105281250D01*
X72381250Y-106231250D01*
X72380949Y-106237376D01*
X72380049Y-106243443D01*
X72378559Y-106249393D01*
X72376492Y-106255168D01*
X72373870Y-106260712D01*
X72370717Y-106265973D01*
X72367063Y-106270900D01*
X72362944Y-106275444D01*
X72358400Y-106279563D01*
X72353473Y-106283217D01*
X72348212Y-106286370D01*
X72342668Y-106288992D01*
X72336893Y-106291059D01*
X72330943Y-106292549D01*
X72324876Y-106293449D01*
X72318750Y-106293750D01*
X72193750Y-106293750D01*
X72187624Y-106293449D01*
X72181557Y-106292549D01*
X72175607Y-106291059D01*
X72169832Y-106288992D01*
X72164288Y-106286370D01*
X72159027Y-106283217D01*
X72154100Y-106279563D01*
X72149556Y-106275444D01*
X72145437Y-106270900D01*
X72141783Y-106265973D01*
X72138630Y-106260712D01*
X72136008Y-106255168D01*
X72133941Y-106249393D01*
X72132451Y-106243443D01*
X72131551Y-106237376D01*
X72131250Y-106231250D01*
X72131250Y-105281250D01*
X72131551Y-105275124D01*
X72132451Y-105269057D01*
X72133941Y-105263107D01*
X72136008Y-105257332D01*
X72138630Y-105251788D01*
X72141783Y-105246527D01*
X72145437Y-105241600D01*
X72149556Y-105237056D01*
X72154100Y-105232937D01*
X72159027Y-105229283D01*
X72164288Y-105226130D01*
X72169832Y-105223508D01*
X72175607Y-105221441D01*
X72181557Y-105219951D01*
X72187624Y-105219051D01*
X72193750Y-105218750D01*
X72318750Y-105218750D01*
X72324876Y-105219051D01*
X72324876Y-105219051D01*
G37*
D24*
X72256250Y-105756250D03*
D13*
G36*
X71824876Y-105219051D02*
G01*
X71830943Y-105219951D01*
X71836893Y-105221441D01*
X71842668Y-105223508D01*
X71848212Y-105226130D01*
X71853473Y-105229283D01*
X71858400Y-105232937D01*
X71862944Y-105237056D01*
X71867063Y-105241600D01*
X71870717Y-105246527D01*
X71873870Y-105251788D01*
X71876492Y-105257332D01*
X71878559Y-105263107D01*
X71880049Y-105269057D01*
X71880949Y-105275124D01*
X71881250Y-105281250D01*
X71881250Y-106231250D01*
X71880949Y-106237376D01*
X71880049Y-106243443D01*
X71878559Y-106249393D01*
X71876492Y-106255168D01*
X71873870Y-106260712D01*
X71870717Y-106265973D01*
X71867063Y-106270900D01*
X71862944Y-106275444D01*
X71858400Y-106279563D01*
X71853473Y-106283217D01*
X71848212Y-106286370D01*
X71842668Y-106288992D01*
X71836893Y-106291059D01*
X71830943Y-106292549D01*
X71824876Y-106293449D01*
X71818750Y-106293750D01*
X71693750Y-106293750D01*
X71687624Y-106293449D01*
X71681557Y-106292549D01*
X71675607Y-106291059D01*
X71669832Y-106288992D01*
X71664288Y-106286370D01*
X71659027Y-106283217D01*
X71654100Y-106279563D01*
X71649556Y-106275444D01*
X71645437Y-106270900D01*
X71641783Y-106265973D01*
X71638630Y-106260712D01*
X71636008Y-106255168D01*
X71633941Y-106249393D01*
X71632451Y-106243443D01*
X71631551Y-106237376D01*
X71631250Y-106231250D01*
X71631250Y-105281250D01*
X71631551Y-105275124D01*
X71632451Y-105269057D01*
X71633941Y-105263107D01*
X71636008Y-105257332D01*
X71638630Y-105251788D01*
X71641783Y-105246527D01*
X71645437Y-105241600D01*
X71649556Y-105237056D01*
X71654100Y-105232937D01*
X71659027Y-105229283D01*
X71664288Y-105226130D01*
X71669832Y-105223508D01*
X71675607Y-105221441D01*
X71681557Y-105219951D01*
X71687624Y-105219051D01*
X71693750Y-105218750D01*
X71818750Y-105218750D01*
X71824876Y-105219051D01*
X71824876Y-105219051D01*
G37*
D24*
X71756250Y-105756250D03*
D13*
G36*
X71324876Y-105219051D02*
G01*
X71330943Y-105219951D01*
X71336893Y-105221441D01*
X71342668Y-105223508D01*
X71348212Y-105226130D01*
X71353473Y-105229283D01*
X71358400Y-105232937D01*
X71362944Y-105237056D01*
X71367063Y-105241600D01*
X71370717Y-105246527D01*
X71373870Y-105251788D01*
X71376492Y-105257332D01*
X71378559Y-105263107D01*
X71380049Y-105269057D01*
X71380949Y-105275124D01*
X71381250Y-105281250D01*
X71381250Y-106231250D01*
X71380949Y-106237376D01*
X71380049Y-106243443D01*
X71378559Y-106249393D01*
X71376492Y-106255168D01*
X71373870Y-106260712D01*
X71370717Y-106265973D01*
X71367063Y-106270900D01*
X71362944Y-106275444D01*
X71358400Y-106279563D01*
X71353473Y-106283217D01*
X71348212Y-106286370D01*
X71342668Y-106288992D01*
X71336893Y-106291059D01*
X71330943Y-106292549D01*
X71324876Y-106293449D01*
X71318750Y-106293750D01*
X71193750Y-106293750D01*
X71187624Y-106293449D01*
X71181557Y-106292549D01*
X71175607Y-106291059D01*
X71169832Y-106288992D01*
X71164288Y-106286370D01*
X71159027Y-106283217D01*
X71154100Y-106279563D01*
X71149556Y-106275444D01*
X71145437Y-106270900D01*
X71141783Y-106265973D01*
X71138630Y-106260712D01*
X71136008Y-106255168D01*
X71133941Y-106249393D01*
X71132451Y-106243443D01*
X71131551Y-106237376D01*
X71131250Y-106231250D01*
X71131250Y-105281250D01*
X71131551Y-105275124D01*
X71132451Y-105269057D01*
X71133941Y-105263107D01*
X71136008Y-105257332D01*
X71138630Y-105251788D01*
X71141783Y-105246527D01*
X71145437Y-105241600D01*
X71149556Y-105237056D01*
X71154100Y-105232937D01*
X71159027Y-105229283D01*
X71164288Y-105226130D01*
X71169832Y-105223508D01*
X71175607Y-105221441D01*
X71181557Y-105219951D01*
X71187624Y-105219051D01*
X71193750Y-105218750D01*
X71318750Y-105218750D01*
X71324876Y-105219051D01*
X71324876Y-105219051D01*
G37*
D24*
X71256250Y-105756250D03*
D13*
G36*
X70824876Y-105219051D02*
G01*
X70830943Y-105219951D01*
X70836893Y-105221441D01*
X70842668Y-105223508D01*
X70848212Y-105226130D01*
X70853473Y-105229283D01*
X70858400Y-105232937D01*
X70862944Y-105237056D01*
X70867063Y-105241600D01*
X70870717Y-105246527D01*
X70873870Y-105251788D01*
X70876492Y-105257332D01*
X70878559Y-105263107D01*
X70880049Y-105269057D01*
X70880949Y-105275124D01*
X70881250Y-105281250D01*
X70881250Y-106231250D01*
X70880949Y-106237376D01*
X70880049Y-106243443D01*
X70878559Y-106249393D01*
X70876492Y-106255168D01*
X70873870Y-106260712D01*
X70870717Y-106265973D01*
X70867063Y-106270900D01*
X70862944Y-106275444D01*
X70858400Y-106279563D01*
X70853473Y-106283217D01*
X70848212Y-106286370D01*
X70842668Y-106288992D01*
X70836893Y-106291059D01*
X70830943Y-106292549D01*
X70824876Y-106293449D01*
X70818750Y-106293750D01*
X70693750Y-106293750D01*
X70687624Y-106293449D01*
X70681557Y-106292549D01*
X70675607Y-106291059D01*
X70669832Y-106288992D01*
X70664288Y-106286370D01*
X70659027Y-106283217D01*
X70654100Y-106279563D01*
X70649556Y-106275444D01*
X70645437Y-106270900D01*
X70641783Y-106265973D01*
X70638630Y-106260712D01*
X70636008Y-106255168D01*
X70633941Y-106249393D01*
X70632451Y-106243443D01*
X70631551Y-106237376D01*
X70631250Y-106231250D01*
X70631250Y-105281250D01*
X70631551Y-105275124D01*
X70632451Y-105269057D01*
X70633941Y-105263107D01*
X70636008Y-105257332D01*
X70638630Y-105251788D01*
X70641783Y-105246527D01*
X70645437Y-105241600D01*
X70649556Y-105237056D01*
X70654100Y-105232937D01*
X70659027Y-105229283D01*
X70664288Y-105226130D01*
X70669832Y-105223508D01*
X70675607Y-105221441D01*
X70681557Y-105219951D01*
X70687624Y-105219051D01*
X70693750Y-105218750D01*
X70818750Y-105218750D01*
X70824876Y-105219051D01*
X70824876Y-105219051D01*
G37*
D24*
X70756250Y-105756250D03*
D13*
G36*
X70324876Y-105219051D02*
G01*
X70330943Y-105219951D01*
X70336893Y-105221441D01*
X70342668Y-105223508D01*
X70348212Y-105226130D01*
X70353473Y-105229283D01*
X70358400Y-105232937D01*
X70362944Y-105237056D01*
X70367063Y-105241600D01*
X70370717Y-105246527D01*
X70373870Y-105251788D01*
X70376492Y-105257332D01*
X70378559Y-105263107D01*
X70380049Y-105269057D01*
X70380949Y-105275124D01*
X70381250Y-105281250D01*
X70381250Y-106231250D01*
X70380949Y-106237376D01*
X70380049Y-106243443D01*
X70378559Y-106249393D01*
X70376492Y-106255168D01*
X70373870Y-106260712D01*
X70370717Y-106265973D01*
X70367063Y-106270900D01*
X70362944Y-106275444D01*
X70358400Y-106279563D01*
X70353473Y-106283217D01*
X70348212Y-106286370D01*
X70342668Y-106288992D01*
X70336893Y-106291059D01*
X70330943Y-106292549D01*
X70324876Y-106293449D01*
X70318750Y-106293750D01*
X70193750Y-106293750D01*
X70187624Y-106293449D01*
X70181557Y-106292549D01*
X70175607Y-106291059D01*
X70169832Y-106288992D01*
X70164288Y-106286370D01*
X70159027Y-106283217D01*
X70154100Y-106279563D01*
X70149556Y-106275444D01*
X70145437Y-106270900D01*
X70141783Y-106265973D01*
X70138630Y-106260712D01*
X70136008Y-106255168D01*
X70133941Y-106249393D01*
X70132451Y-106243443D01*
X70131551Y-106237376D01*
X70131250Y-106231250D01*
X70131250Y-105281250D01*
X70131551Y-105275124D01*
X70132451Y-105269057D01*
X70133941Y-105263107D01*
X70136008Y-105257332D01*
X70138630Y-105251788D01*
X70141783Y-105246527D01*
X70145437Y-105241600D01*
X70149556Y-105237056D01*
X70154100Y-105232937D01*
X70159027Y-105229283D01*
X70164288Y-105226130D01*
X70169832Y-105223508D01*
X70175607Y-105221441D01*
X70181557Y-105219951D01*
X70187624Y-105219051D01*
X70193750Y-105218750D01*
X70318750Y-105218750D01*
X70324876Y-105219051D01*
X70324876Y-105219051D01*
G37*
D24*
X70256250Y-105756250D03*
D13*
G36*
X73936392Y-102232424D02*
G01*
X73960053Y-102235934D01*
X73983257Y-102241746D01*
X74005779Y-102249804D01*
X74027403Y-102260032D01*
X74047920Y-102272329D01*
X74067133Y-102286579D01*
X74084857Y-102302643D01*
X74100921Y-102320367D01*
X74115171Y-102339580D01*
X74127468Y-102360097D01*
X74137696Y-102381721D01*
X74145754Y-102404243D01*
X74151566Y-102427447D01*
X74155076Y-102451108D01*
X74156250Y-102475000D01*
X74156250Y-102962500D01*
X74155076Y-102986392D01*
X74151566Y-103010053D01*
X74145754Y-103033257D01*
X74137696Y-103055779D01*
X74127468Y-103077403D01*
X74115171Y-103097920D01*
X74100921Y-103117133D01*
X74084857Y-103134857D01*
X74067133Y-103150921D01*
X74047920Y-103165171D01*
X74027403Y-103177468D01*
X74005779Y-103187696D01*
X73983257Y-103195754D01*
X73960053Y-103201566D01*
X73936392Y-103205076D01*
X73912500Y-103206250D01*
X73000000Y-103206250D01*
X72976108Y-103205076D01*
X72952447Y-103201566D01*
X72929243Y-103195754D01*
X72906721Y-103187696D01*
X72885097Y-103177468D01*
X72864580Y-103165171D01*
X72845367Y-103150921D01*
X72827643Y-103134857D01*
X72811579Y-103117133D01*
X72797329Y-103097920D01*
X72785032Y-103077403D01*
X72774804Y-103055779D01*
X72766746Y-103033257D01*
X72760934Y-103010053D01*
X72757424Y-102986392D01*
X72756250Y-102962500D01*
X72756250Y-102475000D01*
X72757424Y-102451108D01*
X72760934Y-102427447D01*
X72766746Y-102404243D01*
X72774804Y-102381721D01*
X72785032Y-102360097D01*
X72797329Y-102339580D01*
X72811579Y-102320367D01*
X72827643Y-102302643D01*
X72845367Y-102286579D01*
X72864580Y-102272329D01*
X72885097Y-102260032D01*
X72906721Y-102249804D01*
X72929243Y-102241746D01*
X72952447Y-102235934D01*
X72976108Y-102232424D01*
X73000000Y-102231250D01*
X73912500Y-102231250D01*
X73936392Y-102232424D01*
X73936392Y-102232424D01*
G37*
D25*
X73456250Y-102718750D03*
D13*
G36*
X73936392Y-100357424D02*
G01*
X73960053Y-100360934D01*
X73983257Y-100366746D01*
X74005779Y-100374804D01*
X74027403Y-100385032D01*
X74047920Y-100397329D01*
X74067133Y-100411579D01*
X74084857Y-100427643D01*
X74100921Y-100445367D01*
X74115171Y-100464580D01*
X74127468Y-100485097D01*
X74137696Y-100506721D01*
X74145754Y-100529243D01*
X74151566Y-100552447D01*
X74155076Y-100576108D01*
X74156250Y-100600000D01*
X74156250Y-101087500D01*
X74155076Y-101111392D01*
X74151566Y-101135053D01*
X74145754Y-101158257D01*
X74137696Y-101180779D01*
X74127468Y-101202403D01*
X74115171Y-101222920D01*
X74100921Y-101242133D01*
X74084857Y-101259857D01*
X74067133Y-101275921D01*
X74047920Y-101290171D01*
X74027403Y-101302468D01*
X74005779Y-101312696D01*
X73983257Y-101320754D01*
X73960053Y-101326566D01*
X73936392Y-101330076D01*
X73912500Y-101331250D01*
X73000000Y-101331250D01*
X72976108Y-101330076D01*
X72952447Y-101326566D01*
X72929243Y-101320754D01*
X72906721Y-101312696D01*
X72885097Y-101302468D01*
X72864580Y-101290171D01*
X72845367Y-101275921D01*
X72827643Y-101259857D01*
X72811579Y-101242133D01*
X72797329Y-101222920D01*
X72785032Y-101202403D01*
X72774804Y-101180779D01*
X72766746Y-101158257D01*
X72760934Y-101135053D01*
X72757424Y-101111392D01*
X72756250Y-101087500D01*
X72756250Y-100600000D01*
X72757424Y-100576108D01*
X72760934Y-100552447D01*
X72766746Y-100529243D01*
X72774804Y-100506721D01*
X72785032Y-100485097D01*
X72797329Y-100464580D01*
X72811579Y-100445367D01*
X72827643Y-100427643D01*
X72845367Y-100411579D01*
X72864580Y-100397329D01*
X72885097Y-100385032D01*
X72906721Y-100374804D01*
X72929243Y-100366746D01*
X72952447Y-100360934D01*
X72976108Y-100357424D01*
X73000000Y-100356250D01*
X73912500Y-100356250D01*
X73936392Y-100357424D01*
X73936392Y-100357424D01*
G37*
D25*
X73456250Y-100843750D03*
D13*
G36*
X70666392Y-102352424D02*
G01*
X70690053Y-102355934D01*
X70713257Y-102361746D01*
X70735779Y-102369804D01*
X70757403Y-102380032D01*
X70777920Y-102392329D01*
X70797133Y-102406579D01*
X70814857Y-102422643D01*
X70830921Y-102440367D01*
X70845171Y-102459580D01*
X70857468Y-102480097D01*
X70867696Y-102501721D01*
X70875754Y-102524243D01*
X70881566Y-102547447D01*
X70885076Y-102571108D01*
X70886250Y-102595000D01*
X70886250Y-103507500D01*
X70885076Y-103531392D01*
X70881566Y-103555053D01*
X70875754Y-103578257D01*
X70867696Y-103600779D01*
X70857468Y-103622403D01*
X70845171Y-103642920D01*
X70830921Y-103662133D01*
X70814857Y-103679857D01*
X70797133Y-103695921D01*
X70777920Y-103710171D01*
X70757403Y-103722468D01*
X70735779Y-103732696D01*
X70713257Y-103740754D01*
X70690053Y-103746566D01*
X70666392Y-103750076D01*
X70642500Y-103751250D01*
X70155000Y-103751250D01*
X70131108Y-103750076D01*
X70107447Y-103746566D01*
X70084243Y-103740754D01*
X70061721Y-103732696D01*
X70040097Y-103722468D01*
X70019580Y-103710171D01*
X70000367Y-103695921D01*
X69982643Y-103679857D01*
X69966579Y-103662133D01*
X69952329Y-103642920D01*
X69940032Y-103622403D01*
X69929804Y-103600779D01*
X69921746Y-103578257D01*
X69915934Y-103555053D01*
X69912424Y-103531392D01*
X69911250Y-103507500D01*
X69911250Y-102595000D01*
X69912424Y-102571108D01*
X69915934Y-102547447D01*
X69921746Y-102524243D01*
X69929804Y-102501721D01*
X69940032Y-102480097D01*
X69952329Y-102459580D01*
X69966579Y-102440367D01*
X69982643Y-102422643D01*
X70000367Y-102406579D01*
X70019580Y-102392329D01*
X70040097Y-102380032D01*
X70061721Y-102369804D01*
X70084243Y-102361746D01*
X70107447Y-102355934D01*
X70131108Y-102352424D01*
X70155000Y-102351250D01*
X70642500Y-102351250D01*
X70666392Y-102352424D01*
X70666392Y-102352424D01*
G37*
D25*
X70398750Y-103051250D03*
D13*
G36*
X68791392Y-102352424D02*
G01*
X68815053Y-102355934D01*
X68838257Y-102361746D01*
X68860779Y-102369804D01*
X68882403Y-102380032D01*
X68902920Y-102392329D01*
X68922133Y-102406579D01*
X68939857Y-102422643D01*
X68955921Y-102440367D01*
X68970171Y-102459580D01*
X68982468Y-102480097D01*
X68992696Y-102501721D01*
X69000754Y-102524243D01*
X69006566Y-102547447D01*
X69010076Y-102571108D01*
X69011250Y-102595000D01*
X69011250Y-103507500D01*
X69010076Y-103531392D01*
X69006566Y-103555053D01*
X69000754Y-103578257D01*
X68992696Y-103600779D01*
X68982468Y-103622403D01*
X68970171Y-103642920D01*
X68955921Y-103662133D01*
X68939857Y-103679857D01*
X68922133Y-103695921D01*
X68902920Y-103710171D01*
X68882403Y-103722468D01*
X68860779Y-103732696D01*
X68838257Y-103740754D01*
X68815053Y-103746566D01*
X68791392Y-103750076D01*
X68767500Y-103751250D01*
X68280000Y-103751250D01*
X68256108Y-103750076D01*
X68232447Y-103746566D01*
X68209243Y-103740754D01*
X68186721Y-103732696D01*
X68165097Y-103722468D01*
X68144580Y-103710171D01*
X68125367Y-103695921D01*
X68107643Y-103679857D01*
X68091579Y-103662133D01*
X68077329Y-103642920D01*
X68065032Y-103622403D01*
X68054804Y-103600779D01*
X68046746Y-103578257D01*
X68040934Y-103555053D01*
X68037424Y-103531392D01*
X68036250Y-103507500D01*
X68036250Y-102595000D01*
X68037424Y-102571108D01*
X68040934Y-102547447D01*
X68046746Y-102524243D01*
X68054804Y-102501721D01*
X68065032Y-102480097D01*
X68077329Y-102459580D01*
X68091579Y-102440367D01*
X68107643Y-102422643D01*
X68125367Y-102406579D01*
X68144580Y-102392329D01*
X68165097Y-102380032D01*
X68186721Y-102369804D01*
X68209243Y-102361746D01*
X68232447Y-102355934D01*
X68256108Y-102352424D01*
X68280000Y-102351250D01*
X68767500Y-102351250D01*
X68791392Y-102352424D01*
X68791392Y-102352424D01*
G37*
D25*
X68523750Y-103051250D03*
D13*
G36*
X48750754Y-85507454D02*
G01*
X48775023Y-85511054D01*
X48798821Y-85517015D01*
X48821921Y-85525280D01*
X48844099Y-85535770D01*
X48865143Y-85548383D01*
X48884848Y-85562997D01*
X48903027Y-85579473D01*
X48919503Y-85597652D01*
X48934117Y-85617357D01*
X48946730Y-85638401D01*
X48957220Y-85660579D01*
X48965485Y-85683679D01*
X48971446Y-85707477D01*
X48975046Y-85731746D01*
X48976250Y-85756250D01*
X48976250Y-86506250D01*
X48975046Y-86530754D01*
X48971446Y-86555023D01*
X48965485Y-86578821D01*
X48957220Y-86601921D01*
X48946730Y-86624099D01*
X48934117Y-86645143D01*
X48919503Y-86664848D01*
X48903027Y-86683027D01*
X48884848Y-86699503D01*
X48865143Y-86714117D01*
X48844099Y-86726730D01*
X48821921Y-86737220D01*
X48798821Y-86745485D01*
X48775023Y-86751446D01*
X48750754Y-86755046D01*
X48726250Y-86756250D01*
X47476250Y-86756250D01*
X47451746Y-86755046D01*
X47427477Y-86751446D01*
X47403679Y-86745485D01*
X47380579Y-86737220D01*
X47358401Y-86726730D01*
X47337357Y-86714117D01*
X47317652Y-86699503D01*
X47299473Y-86683027D01*
X47282997Y-86664848D01*
X47268383Y-86645143D01*
X47255770Y-86624099D01*
X47245280Y-86601921D01*
X47237015Y-86578821D01*
X47231054Y-86555023D01*
X47227454Y-86530754D01*
X47226250Y-86506250D01*
X47226250Y-85756250D01*
X47227454Y-85731746D01*
X47231054Y-85707477D01*
X47237015Y-85683679D01*
X47245280Y-85660579D01*
X47255770Y-85638401D01*
X47268383Y-85617357D01*
X47282997Y-85597652D01*
X47299473Y-85579473D01*
X47317652Y-85562997D01*
X47337357Y-85548383D01*
X47358401Y-85535770D01*
X47380579Y-85525280D01*
X47403679Y-85517015D01*
X47427477Y-85511054D01*
X47451746Y-85507454D01*
X47476250Y-85506250D01*
X48726250Y-85506250D01*
X48750754Y-85507454D01*
X48750754Y-85507454D01*
G37*
D26*
X48101250Y-86131250D03*
D13*
G36*
X48750754Y-82707454D02*
G01*
X48775023Y-82711054D01*
X48798821Y-82717015D01*
X48821921Y-82725280D01*
X48844099Y-82735770D01*
X48865143Y-82748383D01*
X48884848Y-82762997D01*
X48903027Y-82779473D01*
X48919503Y-82797652D01*
X48934117Y-82817357D01*
X48946730Y-82838401D01*
X48957220Y-82860579D01*
X48965485Y-82883679D01*
X48971446Y-82907477D01*
X48975046Y-82931746D01*
X48976250Y-82956250D01*
X48976250Y-83706250D01*
X48975046Y-83730754D01*
X48971446Y-83755023D01*
X48965485Y-83778821D01*
X48957220Y-83801921D01*
X48946730Y-83824099D01*
X48934117Y-83845143D01*
X48919503Y-83864848D01*
X48903027Y-83883027D01*
X48884848Y-83899503D01*
X48865143Y-83914117D01*
X48844099Y-83926730D01*
X48821921Y-83937220D01*
X48798821Y-83945485D01*
X48775023Y-83951446D01*
X48750754Y-83955046D01*
X48726250Y-83956250D01*
X47476250Y-83956250D01*
X47451746Y-83955046D01*
X47427477Y-83951446D01*
X47403679Y-83945485D01*
X47380579Y-83937220D01*
X47358401Y-83926730D01*
X47337357Y-83914117D01*
X47317652Y-83899503D01*
X47299473Y-83883027D01*
X47282997Y-83864848D01*
X47268383Y-83845143D01*
X47255770Y-83824099D01*
X47245280Y-83801921D01*
X47237015Y-83778821D01*
X47231054Y-83755023D01*
X47227454Y-83730754D01*
X47226250Y-83706250D01*
X47226250Y-82956250D01*
X47227454Y-82931746D01*
X47231054Y-82907477D01*
X47237015Y-82883679D01*
X47245280Y-82860579D01*
X47255770Y-82838401D01*
X47268383Y-82817357D01*
X47282997Y-82797652D01*
X47299473Y-82779473D01*
X47317652Y-82762997D01*
X47337357Y-82748383D01*
X47358401Y-82735770D01*
X47380579Y-82725280D01*
X47403679Y-82717015D01*
X47427477Y-82711054D01*
X47451746Y-82707454D01*
X47476250Y-82706250D01*
X48726250Y-82706250D01*
X48750754Y-82707454D01*
X48750754Y-82707454D01*
G37*
D26*
X48101250Y-83331250D03*
D13*
G36*
X76371392Y-103242424D02*
G01*
X76395053Y-103245934D01*
X76418257Y-103251746D01*
X76440779Y-103259804D01*
X76462403Y-103270032D01*
X76482920Y-103282329D01*
X76502133Y-103296579D01*
X76519857Y-103312643D01*
X76535921Y-103330367D01*
X76550171Y-103349580D01*
X76562468Y-103370097D01*
X76572696Y-103391721D01*
X76580754Y-103414243D01*
X76586566Y-103437447D01*
X76590076Y-103461108D01*
X76591250Y-103485000D01*
X76591250Y-104397500D01*
X76590076Y-104421392D01*
X76586566Y-104445053D01*
X76580754Y-104468257D01*
X76572696Y-104490779D01*
X76562468Y-104512403D01*
X76550171Y-104532920D01*
X76535921Y-104552133D01*
X76519857Y-104569857D01*
X76502133Y-104585921D01*
X76482920Y-104600171D01*
X76462403Y-104612468D01*
X76440779Y-104622696D01*
X76418257Y-104630754D01*
X76395053Y-104636566D01*
X76371392Y-104640076D01*
X76347500Y-104641250D01*
X75860000Y-104641250D01*
X75836108Y-104640076D01*
X75812447Y-104636566D01*
X75789243Y-104630754D01*
X75766721Y-104622696D01*
X75745097Y-104612468D01*
X75724580Y-104600171D01*
X75705367Y-104585921D01*
X75687643Y-104569857D01*
X75671579Y-104552133D01*
X75657329Y-104532920D01*
X75645032Y-104512403D01*
X75634804Y-104490779D01*
X75626746Y-104468257D01*
X75620934Y-104445053D01*
X75617424Y-104421392D01*
X75616250Y-104397500D01*
X75616250Y-103485000D01*
X75617424Y-103461108D01*
X75620934Y-103437447D01*
X75626746Y-103414243D01*
X75634804Y-103391721D01*
X75645032Y-103370097D01*
X75657329Y-103349580D01*
X75671579Y-103330367D01*
X75687643Y-103312643D01*
X75705367Y-103296579D01*
X75724580Y-103282329D01*
X75745097Y-103270032D01*
X75766721Y-103259804D01*
X75789243Y-103251746D01*
X75812447Y-103245934D01*
X75836108Y-103242424D01*
X75860000Y-103241250D01*
X76347500Y-103241250D01*
X76371392Y-103242424D01*
X76371392Y-103242424D01*
G37*
D25*
X76103750Y-103941250D03*
D13*
G36*
X78246392Y-103242424D02*
G01*
X78270053Y-103245934D01*
X78293257Y-103251746D01*
X78315779Y-103259804D01*
X78337403Y-103270032D01*
X78357920Y-103282329D01*
X78377133Y-103296579D01*
X78394857Y-103312643D01*
X78410921Y-103330367D01*
X78425171Y-103349580D01*
X78437468Y-103370097D01*
X78447696Y-103391721D01*
X78455754Y-103414243D01*
X78461566Y-103437447D01*
X78465076Y-103461108D01*
X78466250Y-103485000D01*
X78466250Y-104397500D01*
X78465076Y-104421392D01*
X78461566Y-104445053D01*
X78455754Y-104468257D01*
X78447696Y-104490779D01*
X78437468Y-104512403D01*
X78425171Y-104532920D01*
X78410921Y-104552133D01*
X78394857Y-104569857D01*
X78377133Y-104585921D01*
X78357920Y-104600171D01*
X78337403Y-104612468D01*
X78315779Y-104622696D01*
X78293257Y-104630754D01*
X78270053Y-104636566D01*
X78246392Y-104640076D01*
X78222500Y-104641250D01*
X77735000Y-104641250D01*
X77711108Y-104640076D01*
X77687447Y-104636566D01*
X77664243Y-104630754D01*
X77641721Y-104622696D01*
X77620097Y-104612468D01*
X77599580Y-104600171D01*
X77580367Y-104585921D01*
X77562643Y-104569857D01*
X77546579Y-104552133D01*
X77532329Y-104532920D01*
X77520032Y-104512403D01*
X77509804Y-104490779D01*
X77501746Y-104468257D01*
X77495934Y-104445053D01*
X77492424Y-104421392D01*
X77491250Y-104397500D01*
X77491250Y-103485000D01*
X77492424Y-103461108D01*
X77495934Y-103437447D01*
X77501746Y-103414243D01*
X77509804Y-103391721D01*
X77520032Y-103370097D01*
X77532329Y-103349580D01*
X77546579Y-103330367D01*
X77562643Y-103312643D01*
X77580367Y-103296579D01*
X77599580Y-103282329D01*
X77620097Y-103270032D01*
X77641721Y-103259804D01*
X77664243Y-103251746D01*
X77687447Y-103245934D01*
X77711108Y-103242424D01*
X77735000Y-103241250D01*
X78222500Y-103241250D01*
X78246392Y-103242424D01*
X78246392Y-103242424D01*
G37*
D25*
X77978750Y-103941250D03*
D13*
G36*
X70061392Y-114194924D02*
G01*
X70085053Y-114198434D01*
X70108257Y-114204246D01*
X70130779Y-114212304D01*
X70152403Y-114222532D01*
X70172920Y-114234829D01*
X70192133Y-114249079D01*
X70209857Y-114265143D01*
X70225921Y-114282867D01*
X70240171Y-114302080D01*
X70252468Y-114322597D01*
X70262696Y-114344221D01*
X70270754Y-114366743D01*
X70276566Y-114389947D01*
X70280076Y-114413608D01*
X70281250Y-114437500D01*
X70281250Y-114925000D01*
X70280076Y-114948892D01*
X70276566Y-114972553D01*
X70270754Y-114995757D01*
X70262696Y-115018279D01*
X70252468Y-115039903D01*
X70240171Y-115060420D01*
X70225921Y-115079633D01*
X70209857Y-115097357D01*
X70192133Y-115113421D01*
X70172920Y-115127671D01*
X70152403Y-115139968D01*
X70130779Y-115150196D01*
X70108257Y-115158254D01*
X70085053Y-115164066D01*
X70061392Y-115167576D01*
X70037500Y-115168750D01*
X69125000Y-115168750D01*
X69101108Y-115167576D01*
X69077447Y-115164066D01*
X69054243Y-115158254D01*
X69031721Y-115150196D01*
X69010097Y-115139968D01*
X68989580Y-115127671D01*
X68970367Y-115113421D01*
X68952643Y-115097357D01*
X68936579Y-115079633D01*
X68922329Y-115060420D01*
X68910032Y-115039903D01*
X68899804Y-115018279D01*
X68891746Y-114995757D01*
X68885934Y-114972553D01*
X68882424Y-114948892D01*
X68881250Y-114925000D01*
X68881250Y-114437500D01*
X68882424Y-114413608D01*
X68885934Y-114389947D01*
X68891746Y-114366743D01*
X68899804Y-114344221D01*
X68910032Y-114322597D01*
X68922329Y-114302080D01*
X68936579Y-114282867D01*
X68952643Y-114265143D01*
X68970367Y-114249079D01*
X68989580Y-114234829D01*
X69010097Y-114222532D01*
X69031721Y-114212304D01*
X69054243Y-114204246D01*
X69077447Y-114198434D01*
X69101108Y-114194924D01*
X69125000Y-114193750D01*
X70037500Y-114193750D01*
X70061392Y-114194924D01*
X70061392Y-114194924D01*
G37*
D25*
X69581250Y-114681250D03*
D13*
G36*
X70061392Y-116069924D02*
G01*
X70085053Y-116073434D01*
X70108257Y-116079246D01*
X70130779Y-116087304D01*
X70152403Y-116097532D01*
X70172920Y-116109829D01*
X70192133Y-116124079D01*
X70209857Y-116140143D01*
X70225921Y-116157867D01*
X70240171Y-116177080D01*
X70252468Y-116197597D01*
X70262696Y-116219221D01*
X70270754Y-116241743D01*
X70276566Y-116264947D01*
X70280076Y-116288608D01*
X70281250Y-116312500D01*
X70281250Y-116800000D01*
X70280076Y-116823892D01*
X70276566Y-116847553D01*
X70270754Y-116870757D01*
X70262696Y-116893279D01*
X70252468Y-116914903D01*
X70240171Y-116935420D01*
X70225921Y-116954633D01*
X70209857Y-116972357D01*
X70192133Y-116988421D01*
X70172920Y-117002671D01*
X70152403Y-117014968D01*
X70130779Y-117025196D01*
X70108257Y-117033254D01*
X70085053Y-117039066D01*
X70061392Y-117042576D01*
X70037500Y-117043750D01*
X69125000Y-117043750D01*
X69101108Y-117042576D01*
X69077447Y-117039066D01*
X69054243Y-117033254D01*
X69031721Y-117025196D01*
X69010097Y-117014968D01*
X68989580Y-117002671D01*
X68970367Y-116988421D01*
X68952643Y-116972357D01*
X68936579Y-116954633D01*
X68922329Y-116935420D01*
X68910032Y-116914903D01*
X68899804Y-116893279D01*
X68891746Y-116870757D01*
X68885934Y-116847553D01*
X68882424Y-116823892D01*
X68881250Y-116800000D01*
X68881250Y-116312500D01*
X68882424Y-116288608D01*
X68885934Y-116264947D01*
X68891746Y-116241743D01*
X68899804Y-116219221D01*
X68910032Y-116197597D01*
X68922329Y-116177080D01*
X68936579Y-116157867D01*
X68952643Y-116140143D01*
X68970367Y-116124079D01*
X68989580Y-116109829D01*
X69010097Y-116097532D01*
X69031721Y-116087304D01*
X69054243Y-116079246D01*
X69077447Y-116073434D01*
X69101108Y-116069924D01*
X69125000Y-116068750D01*
X70037500Y-116068750D01*
X70061392Y-116069924D01*
X70061392Y-116069924D01*
G37*
D25*
X69581250Y-116556250D03*
D13*
G36*
X55371392Y-80757424D02*
G01*
X55395053Y-80760934D01*
X55418257Y-80766746D01*
X55440779Y-80774804D01*
X55462403Y-80785032D01*
X55482920Y-80797329D01*
X55502133Y-80811579D01*
X55519857Y-80827643D01*
X55535921Y-80845367D01*
X55550171Y-80864580D01*
X55562468Y-80885097D01*
X55572696Y-80906721D01*
X55580754Y-80929243D01*
X55586566Y-80952447D01*
X55590076Y-80976108D01*
X55591250Y-81000000D01*
X55591250Y-81487500D01*
X55590076Y-81511392D01*
X55586566Y-81535053D01*
X55580754Y-81558257D01*
X55572696Y-81580779D01*
X55562468Y-81602403D01*
X55550171Y-81622920D01*
X55535921Y-81642133D01*
X55519857Y-81659857D01*
X55502133Y-81675921D01*
X55482920Y-81690171D01*
X55462403Y-81702468D01*
X55440779Y-81712696D01*
X55418257Y-81720754D01*
X55395053Y-81726566D01*
X55371392Y-81730076D01*
X55347500Y-81731250D01*
X54435000Y-81731250D01*
X54411108Y-81730076D01*
X54387447Y-81726566D01*
X54364243Y-81720754D01*
X54341721Y-81712696D01*
X54320097Y-81702468D01*
X54299580Y-81690171D01*
X54280367Y-81675921D01*
X54262643Y-81659857D01*
X54246579Y-81642133D01*
X54232329Y-81622920D01*
X54220032Y-81602403D01*
X54209804Y-81580779D01*
X54201746Y-81558257D01*
X54195934Y-81535053D01*
X54192424Y-81511392D01*
X54191250Y-81487500D01*
X54191250Y-81000000D01*
X54192424Y-80976108D01*
X54195934Y-80952447D01*
X54201746Y-80929243D01*
X54209804Y-80906721D01*
X54220032Y-80885097D01*
X54232329Y-80864580D01*
X54246579Y-80845367D01*
X54262643Y-80827643D01*
X54280367Y-80811579D01*
X54299580Y-80797329D01*
X54320097Y-80785032D01*
X54341721Y-80774804D01*
X54364243Y-80766746D01*
X54387447Y-80760934D01*
X54411108Y-80757424D01*
X54435000Y-80756250D01*
X55347500Y-80756250D01*
X55371392Y-80757424D01*
X55371392Y-80757424D01*
G37*
D25*
X54891250Y-81243750D03*
D13*
G36*
X55371392Y-82632424D02*
G01*
X55395053Y-82635934D01*
X55418257Y-82641746D01*
X55440779Y-82649804D01*
X55462403Y-82660032D01*
X55482920Y-82672329D01*
X55502133Y-82686579D01*
X55519857Y-82702643D01*
X55535921Y-82720367D01*
X55550171Y-82739580D01*
X55562468Y-82760097D01*
X55572696Y-82781721D01*
X55580754Y-82804243D01*
X55586566Y-82827447D01*
X55590076Y-82851108D01*
X55591250Y-82875000D01*
X55591250Y-83362500D01*
X55590076Y-83386392D01*
X55586566Y-83410053D01*
X55580754Y-83433257D01*
X55572696Y-83455779D01*
X55562468Y-83477403D01*
X55550171Y-83497920D01*
X55535921Y-83517133D01*
X55519857Y-83534857D01*
X55502133Y-83550921D01*
X55482920Y-83565171D01*
X55462403Y-83577468D01*
X55440779Y-83587696D01*
X55418257Y-83595754D01*
X55395053Y-83601566D01*
X55371392Y-83605076D01*
X55347500Y-83606250D01*
X54435000Y-83606250D01*
X54411108Y-83605076D01*
X54387447Y-83601566D01*
X54364243Y-83595754D01*
X54341721Y-83587696D01*
X54320097Y-83577468D01*
X54299580Y-83565171D01*
X54280367Y-83550921D01*
X54262643Y-83534857D01*
X54246579Y-83517133D01*
X54232329Y-83497920D01*
X54220032Y-83477403D01*
X54209804Y-83455779D01*
X54201746Y-83433257D01*
X54195934Y-83410053D01*
X54192424Y-83386392D01*
X54191250Y-83362500D01*
X54191250Y-82875000D01*
X54192424Y-82851108D01*
X54195934Y-82827447D01*
X54201746Y-82804243D01*
X54209804Y-82781721D01*
X54220032Y-82760097D01*
X54232329Y-82739580D01*
X54246579Y-82720367D01*
X54262643Y-82702643D01*
X54280367Y-82686579D01*
X54299580Y-82672329D01*
X54320097Y-82660032D01*
X54341721Y-82649804D01*
X54364243Y-82641746D01*
X54387447Y-82635934D01*
X54411108Y-82632424D01*
X54435000Y-82631250D01*
X55347500Y-82631250D01*
X55371392Y-82632424D01*
X55371392Y-82632424D01*
G37*
D25*
X54891250Y-83118750D03*
D13*
G36*
X53011392Y-82632424D02*
G01*
X53035053Y-82635934D01*
X53058257Y-82641746D01*
X53080779Y-82649804D01*
X53102403Y-82660032D01*
X53122920Y-82672329D01*
X53142133Y-82686579D01*
X53159857Y-82702643D01*
X53175921Y-82720367D01*
X53190171Y-82739580D01*
X53202468Y-82760097D01*
X53212696Y-82781721D01*
X53220754Y-82804243D01*
X53226566Y-82827447D01*
X53230076Y-82851108D01*
X53231250Y-82875000D01*
X53231250Y-83362500D01*
X53230076Y-83386392D01*
X53226566Y-83410053D01*
X53220754Y-83433257D01*
X53212696Y-83455779D01*
X53202468Y-83477403D01*
X53190171Y-83497920D01*
X53175921Y-83517133D01*
X53159857Y-83534857D01*
X53142133Y-83550921D01*
X53122920Y-83565171D01*
X53102403Y-83577468D01*
X53080779Y-83587696D01*
X53058257Y-83595754D01*
X53035053Y-83601566D01*
X53011392Y-83605076D01*
X52987500Y-83606250D01*
X52075000Y-83606250D01*
X52051108Y-83605076D01*
X52027447Y-83601566D01*
X52004243Y-83595754D01*
X51981721Y-83587696D01*
X51960097Y-83577468D01*
X51939580Y-83565171D01*
X51920367Y-83550921D01*
X51902643Y-83534857D01*
X51886579Y-83517133D01*
X51872329Y-83497920D01*
X51860032Y-83477403D01*
X51849804Y-83455779D01*
X51841746Y-83433257D01*
X51835934Y-83410053D01*
X51832424Y-83386392D01*
X51831250Y-83362500D01*
X51831250Y-82875000D01*
X51832424Y-82851108D01*
X51835934Y-82827447D01*
X51841746Y-82804243D01*
X51849804Y-82781721D01*
X51860032Y-82760097D01*
X51872329Y-82739580D01*
X51886579Y-82720367D01*
X51902643Y-82702643D01*
X51920367Y-82686579D01*
X51939580Y-82672329D01*
X51960097Y-82660032D01*
X51981721Y-82649804D01*
X52004243Y-82641746D01*
X52027447Y-82635934D01*
X52051108Y-82632424D01*
X52075000Y-82631250D01*
X52987500Y-82631250D01*
X53011392Y-82632424D01*
X53011392Y-82632424D01*
G37*
D25*
X52531250Y-83118750D03*
D13*
G36*
X53011392Y-80757424D02*
G01*
X53035053Y-80760934D01*
X53058257Y-80766746D01*
X53080779Y-80774804D01*
X53102403Y-80785032D01*
X53122920Y-80797329D01*
X53142133Y-80811579D01*
X53159857Y-80827643D01*
X53175921Y-80845367D01*
X53190171Y-80864580D01*
X53202468Y-80885097D01*
X53212696Y-80906721D01*
X53220754Y-80929243D01*
X53226566Y-80952447D01*
X53230076Y-80976108D01*
X53231250Y-81000000D01*
X53231250Y-81487500D01*
X53230076Y-81511392D01*
X53226566Y-81535053D01*
X53220754Y-81558257D01*
X53212696Y-81580779D01*
X53202468Y-81602403D01*
X53190171Y-81622920D01*
X53175921Y-81642133D01*
X53159857Y-81659857D01*
X53142133Y-81675921D01*
X53122920Y-81690171D01*
X53102403Y-81702468D01*
X53080779Y-81712696D01*
X53058257Y-81720754D01*
X53035053Y-81726566D01*
X53011392Y-81730076D01*
X52987500Y-81731250D01*
X52075000Y-81731250D01*
X52051108Y-81730076D01*
X52027447Y-81726566D01*
X52004243Y-81720754D01*
X51981721Y-81712696D01*
X51960097Y-81702468D01*
X51939580Y-81690171D01*
X51920367Y-81675921D01*
X51902643Y-81659857D01*
X51886579Y-81642133D01*
X51872329Y-81622920D01*
X51860032Y-81602403D01*
X51849804Y-81580779D01*
X51841746Y-81558257D01*
X51835934Y-81535053D01*
X51832424Y-81511392D01*
X51831250Y-81487500D01*
X51831250Y-81000000D01*
X51832424Y-80976108D01*
X51835934Y-80952447D01*
X51841746Y-80929243D01*
X51849804Y-80906721D01*
X51860032Y-80885097D01*
X51872329Y-80864580D01*
X51886579Y-80845367D01*
X51902643Y-80827643D01*
X51920367Y-80811579D01*
X51939580Y-80797329D01*
X51960097Y-80785032D01*
X51981721Y-80774804D01*
X52004243Y-80766746D01*
X52027447Y-80760934D01*
X52051108Y-80757424D01*
X52075000Y-80756250D01*
X52987500Y-80756250D01*
X53011392Y-80757424D01*
X53011392Y-80757424D01*
G37*
D25*
X52531250Y-81243750D03*
D13*
G36*
X56721392Y-84827424D02*
G01*
X56745053Y-84830934D01*
X56768257Y-84836746D01*
X56790779Y-84844804D01*
X56812403Y-84855032D01*
X56832920Y-84867329D01*
X56852133Y-84881579D01*
X56869857Y-84897643D01*
X56885921Y-84915367D01*
X56900171Y-84934580D01*
X56912468Y-84955097D01*
X56922696Y-84976721D01*
X56930754Y-84999243D01*
X56936566Y-85022447D01*
X56940076Y-85046108D01*
X56941250Y-85070000D01*
X56941250Y-85557500D01*
X56940076Y-85581392D01*
X56936566Y-85605053D01*
X56930754Y-85628257D01*
X56922696Y-85650779D01*
X56912468Y-85672403D01*
X56900171Y-85692920D01*
X56885921Y-85712133D01*
X56869857Y-85729857D01*
X56852133Y-85745921D01*
X56832920Y-85760171D01*
X56812403Y-85772468D01*
X56790779Y-85782696D01*
X56768257Y-85790754D01*
X56745053Y-85796566D01*
X56721392Y-85800076D01*
X56697500Y-85801250D01*
X55785000Y-85801250D01*
X55761108Y-85800076D01*
X55737447Y-85796566D01*
X55714243Y-85790754D01*
X55691721Y-85782696D01*
X55670097Y-85772468D01*
X55649580Y-85760171D01*
X55630367Y-85745921D01*
X55612643Y-85729857D01*
X55596579Y-85712133D01*
X55582329Y-85692920D01*
X55570032Y-85672403D01*
X55559804Y-85650779D01*
X55551746Y-85628257D01*
X55545934Y-85605053D01*
X55542424Y-85581392D01*
X55541250Y-85557500D01*
X55541250Y-85070000D01*
X55542424Y-85046108D01*
X55545934Y-85022447D01*
X55551746Y-84999243D01*
X55559804Y-84976721D01*
X55570032Y-84955097D01*
X55582329Y-84934580D01*
X55596579Y-84915367D01*
X55612643Y-84897643D01*
X55630367Y-84881579D01*
X55649580Y-84867329D01*
X55670097Y-84855032D01*
X55691721Y-84844804D01*
X55714243Y-84836746D01*
X55737447Y-84830934D01*
X55761108Y-84827424D01*
X55785000Y-84826250D01*
X56697500Y-84826250D01*
X56721392Y-84827424D01*
X56721392Y-84827424D01*
G37*
D25*
X56241250Y-85313750D03*
D13*
G36*
X56721392Y-86702424D02*
G01*
X56745053Y-86705934D01*
X56768257Y-86711746D01*
X56790779Y-86719804D01*
X56812403Y-86730032D01*
X56832920Y-86742329D01*
X56852133Y-86756579D01*
X56869857Y-86772643D01*
X56885921Y-86790367D01*
X56900171Y-86809580D01*
X56912468Y-86830097D01*
X56922696Y-86851721D01*
X56930754Y-86874243D01*
X56936566Y-86897447D01*
X56940076Y-86921108D01*
X56941250Y-86945000D01*
X56941250Y-87432500D01*
X56940076Y-87456392D01*
X56936566Y-87480053D01*
X56930754Y-87503257D01*
X56922696Y-87525779D01*
X56912468Y-87547403D01*
X56900171Y-87567920D01*
X56885921Y-87587133D01*
X56869857Y-87604857D01*
X56852133Y-87620921D01*
X56832920Y-87635171D01*
X56812403Y-87647468D01*
X56790779Y-87657696D01*
X56768257Y-87665754D01*
X56745053Y-87671566D01*
X56721392Y-87675076D01*
X56697500Y-87676250D01*
X55785000Y-87676250D01*
X55761108Y-87675076D01*
X55737447Y-87671566D01*
X55714243Y-87665754D01*
X55691721Y-87657696D01*
X55670097Y-87647468D01*
X55649580Y-87635171D01*
X55630367Y-87620921D01*
X55612643Y-87604857D01*
X55596579Y-87587133D01*
X55582329Y-87567920D01*
X55570032Y-87547403D01*
X55559804Y-87525779D01*
X55551746Y-87503257D01*
X55545934Y-87480053D01*
X55542424Y-87456392D01*
X55541250Y-87432500D01*
X55541250Y-86945000D01*
X55542424Y-86921108D01*
X55545934Y-86897447D01*
X55551746Y-86874243D01*
X55559804Y-86851721D01*
X55570032Y-86830097D01*
X55582329Y-86809580D01*
X55596579Y-86790367D01*
X55612643Y-86772643D01*
X55630367Y-86756579D01*
X55649580Y-86742329D01*
X55670097Y-86730032D01*
X55691721Y-86719804D01*
X55714243Y-86711746D01*
X55737447Y-86705934D01*
X55761108Y-86702424D01*
X55785000Y-86701250D01*
X56697500Y-86701250D01*
X56721392Y-86702424D01*
X56721392Y-86702424D01*
G37*
D25*
X56241250Y-87188750D03*
D13*
G36*
X51661392Y-86702424D02*
G01*
X51685053Y-86705934D01*
X51708257Y-86711746D01*
X51730779Y-86719804D01*
X51752403Y-86730032D01*
X51772920Y-86742329D01*
X51792133Y-86756579D01*
X51809857Y-86772643D01*
X51825921Y-86790367D01*
X51840171Y-86809580D01*
X51852468Y-86830097D01*
X51862696Y-86851721D01*
X51870754Y-86874243D01*
X51876566Y-86897447D01*
X51880076Y-86921108D01*
X51881250Y-86945000D01*
X51881250Y-87432500D01*
X51880076Y-87456392D01*
X51876566Y-87480053D01*
X51870754Y-87503257D01*
X51862696Y-87525779D01*
X51852468Y-87547403D01*
X51840171Y-87567920D01*
X51825921Y-87587133D01*
X51809857Y-87604857D01*
X51792133Y-87620921D01*
X51772920Y-87635171D01*
X51752403Y-87647468D01*
X51730779Y-87657696D01*
X51708257Y-87665754D01*
X51685053Y-87671566D01*
X51661392Y-87675076D01*
X51637500Y-87676250D01*
X50725000Y-87676250D01*
X50701108Y-87675076D01*
X50677447Y-87671566D01*
X50654243Y-87665754D01*
X50631721Y-87657696D01*
X50610097Y-87647468D01*
X50589580Y-87635171D01*
X50570367Y-87620921D01*
X50552643Y-87604857D01*
X50536579Y-87587133D01*
X50522329Y-87567920D01*
X50510032Y-87547403D01*
X50499804Y-87525779D01*
X50491746Y-87503257D01*
X50485934Y-87480053D01*
X50482424Y-87456392D01*
X50481250Y-87432500D01*
X50481250Y-86945000D01*
X50482424Y-86921108D01*
X50485934Y-86897447D01*
X50491746Y-86874243D01*
X50499804Y-86851721D01*
X50510032Y-86830097D01*
X50522329Y-86809580D01*
X50536579Y-86790367D01*
X50552643Y-86772643D01*
X50570367Y-86756579D01*
X50589580Y-86742329D01*
X50610097Y-86730032D01*
X50631721Y-86719804D01*
X50654243Y-86711746D01*
X50677447Y-86705934D01*
X50701108Y-86702424D01*
X50725000Y-86701250D01*
X51637500Y-86701250D01*
X51661392Y-86702424D01*
X51661392Y-86702424D01*
G37*
D25*
X51181250Y-87188750D03*
D13*
G36*
X51661392Y-84827424D02*
G01*
X51685053Y-84830934D01*
X51708257Y-84836746D01*
X51730779Y-84844804D01*
X51752403Y-84855032D01*
X51772920Y-84867329D01*
X51792133Y-84881579D01*
X51809857Y-84897643D01*
X51825921Y-84915367D01*
X51840171Y-84934580D01*
X51852468Y-84955097D01*
X51862696Y-84976721D01*
X51870754Y-84999243D01*
X51876566Y-85022447D01*
X51880076Y-85046108D01*
X51881250Y-85070000D01*
X51881250Y-85557500D01*
X51880076Y-85581392D01*
X51876566Y-85605053D01*
X51870754Y-85628257D01*
X51862696Y-85650779D01*
X51852468Y-85672403D01*
X51840171Y-85692920D01*
X51825921Y-85712133D01*
X51809857Y-85729857D01*
X51792133Y-85745921D01*
X51772920Y-85760171D01*
X51752403Y-85772468D01*
X51730779Y-85782696D01*
X51708257Y-85790754D01*
X51685053Y-85796566D01*
X51661392Y-85800076D01*
X51637500Y-85801250D01*
X50725000Y-85801250D01*
X50701108Y-85800076D01*
X50677447Y-85796566D01*
X50654243Y-85790754D01*
X50631721Y-85782696D01*
X50610097Y-85772468D01*
X50589580Y-85760171D01*
X50570367Y-85745921D01*
X50552643Y-85729857D01*
X50536579Y-85712133D01*
X50522329Y-85692920D01*
X50510032Y-85672403D01*
X50499804Y-85650779D01*
X50491746Y-85628257D01*
X50485934Y-85605053D01*
X50482424Y-85581392D01*
X50481250Y-85557500D01*
X50481250Y-85070000D01*
X50482424Y-85046108D01*
X50485934Y-85022447D01*
X50491746Y-84999243D01*
X50499804Y-84976721D01*
X50510032Y-84955097D01*
X50522329Y-84934580D01*
X50536579Y-84915367D01*
X50552643Y-84897643D01*
X50570367Y-84881579D01*
X50589580Y-84867329D01*
X50610097Y-84855032D01*
X50631721Y-84844804D01*
X50654243Y-84836746D01*
X50677447Y-84830934D01*
X50701108Y-84827424D01*
X50725000Y-84826250D01*
X51637500Y-84826250D01*
X51661392Y-84827424D01*
X51661392Y-84827424D01*
G37*
D25*
X51181250Y-85313750D03*
D27*
X51181250Y-88441250D03*
X176731250Y-144918750D03*
X259481250Y-102418750D03*
X123231250Y-142918750D03*
X120231250Y-88268750D03*
X177831250Y-85068750D03*
X48381250Y-104068750D03*
X70398750Y-104588750D03*
X75961250Y-101931250D03*
X74356250Y-104193750D03*
D28*
X63561249Y-110818750D03*
D27*
X75981250Y-115618750D03*
X70881250Y-86681250D03*
X66731250Y-98581250D03*
X79031250Y-112918750D03*
X90393750Y-105731250D03*
X80189249Y-112918750D03*
X66031250Y-105768750D03*
X77221250Y-122378750D03*
X68311250Y-122378750D03*
X177731250Y-141668750D03*
X60731250Y-85918750D03*
X49941250Y-83331250D03*
X168031250Y-88268750D03*
X120331250Y-142793750D03*
X168031250Y-73268750D03*
X49631250Y-108468750D03*
X253181250Y-106768750D03*
X91031250Y-89968750D03*
X62721250Y-107331250D03*
X253181250Y-103538750D03*
X241711909Y-127829409D03*
X120431250Y-141568750D03*
X49631250Y-107318750D03*
D29*
X72256250Y-105246250D02*
X72251250Y-105241250D01*
X72256250Y-105756250D02*
X72256250Y-105246250D01*
X58796240Y-89056240D02*
X59256240Y-89056240D01*
X68568005Y-89056240D02*
X59256240Y-89056240D01*
X57111250Y-76726250D02*
X58026250Y-75811250D01*
X56931250Y-76726250D02*
X57111250Y-76726250D01*
X50301250Y-76726250D02*
X49386250Y-75811250D01*
X50481250Y-76726250D02*
X50301250Y-76726250D01*
X51181250Y-87188750D02*
X51181250Y-88441250D01*
X72251250Y-92739485D02*
X69167132Y-89655368D01*
X69167132Y-89655368D02*
X68568005Y-89056240D01*
X56241250Y-87188750D02*
X56241250Y-88431250D01*
X56866240Y-89056240D02*
X59256240Y-89056240D01*
X56241250Y-88431250D02*
X56866240Y-89056240D01*
D30*
X69418750Y-111093750D02*
X74556250Y-111093750D01*
X75256250Y-111793750D02*
X75256250Y-112431250D01*
X74556250Y-111093750D02*
X75256250Y-111793750D01*
X72256250Y-108793750D02*
X74556250Y-111093750D01*
X72256250Y-105756250D02*
X72256250Y-108793750D01*
X74556250Y-108993750D02*
X74556250Y-111093750D01*
X75456250Y-108093750D02*
X74556250Y-108993750D01*
X76093750Y-108093750D02*
X75456250Y-108093750D01*
X70556250Y-107093750D02*
X72256250Y-108793750D01*
X69418750Y-107093750D02*
X70556250Y-107093750D01*
D29*
X72251250Y-100001250D02*
X72251250Y-99301250D01*
X72251250Y-105241250D02*
X72251250Y-99301250D01*
X73456250Y-100843750D02*
X73093750Y-100843750D01*
X73093750Y-100843750D02*
X72251250Y-100001250D01*
X72251250Y-92739485D02*
X68774632Y-89262868D01*
X68774632Y-89262868D02*
X68568005Y-89056240D01*
X56931250Y-77751250D02*
X56931250Y-76726250D01*
X56716260Y-82236260D02*
X56716260Y-77966240D01*
X56716260Y-77966240D02*
X56931250Y-77751250D01*
D30*
X72251250Y-93351250D02*
X72251250Y-92951250D01*
D29*
X72251250Y-92951250D02*
X72251250Y-92739485D01*
X72251250Y-92739485D02*
X72251250Y-93351250D01*
X72251250Y-99301250D02*
X72251250Y-92951250D01*
D31*
X65730610Y-84068550D02*
X63581450Y-84068550D01*
X174881690Y-144918750D02*
X174731890Y-144768950D01*
X176731250Y-144918750D02*
X174881690Y-144918750D01*
X255730610Y-103568550D02*
X258331450Y-103568550D01*
X258331450Y-103568550D02*
X259481250Y-102418750D01*
X123231250Y-141569190D02*
X123230610Y-141568550D01*
X123231250Y-142918750D02*
X123231250Y-141569190D01*
X260243740Y-101656260D02*
X259481250Y-102418750D01*
X260243740Y-91570682D02*
X260243740Y-101656260D01*
X257941808Y-89268750D02*
X260243740Y-91570682D01*
X234231450Y-88268950D02*
X235231250Y-89268750D01*
X232181890Y-88268950D02*
X234231450Y-88268950D01*
X235231250Y-89268750D02*
X257941808Y-89268750D01*
D29*
X63581450Y-84068550D02*
X63331050Y-84068550D01*
X63331050Y-84068550D02*
X62331250Y-83068750D01*
X62331250Y-83068750D02*
X57548750Y-83068750D01*
X57548750Y-83068750D02*
X56716260Y-82236260D01*
X68568005Y-89056240D02*
X59862490Y-89056240D01*
X59862490Y-89056240D02*
X57924375Y-87118125D01*
X57924375Y-83444375D02*
X57548750Y-83068750D01*
X57924375Y-87118125D02*
X57924375Y-83444375D01*
X82556250Y-108139500D02*
X81456250Y-108139500D01*
X82856250Y-107839500D02*
X82556250Y-108139500D01*
X82856250Y-106718750D02*
X82856250Y-107839500D01*
X82358014Y-106220514D02*
X82856250Y-106718750D01*
X79208750Y-107141250D02*
X78260520Y-108089480D01*
X80129486Y-106220514D02*
X82358014Y-106220514D01*
X79208750Y-107141250D02*
X80129486Y-106220514D01*
D30*
X180230810Y-85068750D02*
X180230610Y-85068550D01*
D31*
X120231050Y-88268950D02*
X120231250Y-88268750D01*
X117731890Y-88268950D02*
X120231050Y-88268950D01*
X177831450Y-85068550D02*
X177831250Y-85068750D01*
X180230610Y-85068550D02*
X177831450Y-85068550D01*
X47531250Y-104068750D02*
X48381250Y-104068750D01*
X47531050Y-104068550D02*
X47531250Y-104068750D01*
X46730610Y-104068550D02*
X47531050Y-104068550D01*
X69581250Y-116556250D02*
X65518750Y-116556250D01*
X62798749Y-109701251D02*
X63366250Y-109133750D01*
X62798749Y-113836249D02*
X62798749Y-109701251D01*
X65518750Y-116556250D02*
X62798749Y-113836249D01*
D29*
X68781250Y-111093750D02*
X69418750Y-111093750D01*
X68186346Y-111093750D02*
X68781250Y-111093750D01*
X66136346Y-109043750D02*
X68186346Y-111093750D01*
X64681250Y-109043750D02*
X66136346Y-109043750D01*
X63456250Y-109043750D02*
X64681250Y-109043750D01*
X63366250Y-109133750D02*
X63456250Y-109043750D01*
X75356250Y-116493750D02*
X74781250Y-116493750D01*
X76068252Y-116493750D02*
X75356250Y-116493750D01*
X75256250Y-113593750D02*
X75581250Y-113918750D01*
X75256250Y-112431250D02*
X75256250Y-113593750D01*
X75581250Y-113918750D02*
X76281250Y-113918750D01*
X76281250Y-113918750D02*
X76631251Y-114268751D01*
X76631251Y-114268751D02*
X76631251Y-115930751D01*
X76631251Y-115930751D02*
X76068252Y-116493750D01*
X79146250Y-107203750D02*
X78260520Y-108089480D01*
X79706250Y-103593750D02*
X80129486Y-104016986D01*
X79706250Y-101918750D02*
X79706250Y-103593750D01*
X80129486Y-104016986D02*
X80129486Y-106220514D01*
X78256250Y-108093750D02*
X76093750Y-108093750D01*
X78260520Y-108089480D02*
X78256250Y-108093750D01*
X68483750Y-107093750D02*
X69418750Y-107093750D01*
X68075514Y-107093750D02*
X68483750Y-107093750D01*
X67206260Y-106224496D02*
X68075514Y-107093750D01*
X67206260Y-103316490D02*
X67206260Y-106224496D01*
X68523750Y-103051250D02*
X67471500Y-103051250D01*
X67471500Y-103051250D02*
X67206260Y-103316490D01*
D30*
X72756250Y-104006250D02*
X72756250Y-105756250D01*
X73456250Y-103306250D02*
X72756250Y-104006250D01*
X73456250Y-102718750D02*
X73456250Y-103306250D01*
D29*
X70756250Y-105756250D02*
X70756250Y-104946250D01*
X70398750Y-104588750D02*
X70398750Y-103051250D01*
X70756250Y-104946250D02*
X70398750Y-104588750D01*
X69833065Y-104588750D02*
X70398750Y-104588750D01*
X69418750Y-105003065D02*
X69833065Y-104588750D01*
X69418750Y-106593750D02*
X69418750Y-105003065D01*
X74356250Y-104193750D02*
X73631250Y-104193750D01*
X73256250Y-104568750D02*
X73256250Y-105756250D01*
X73631250Y-104193750D02*
X73256250Y-104568750D01*
X50593770Y-90456270D02*
X48101250Y-87963750D01*
D31*
X70398750Y-103051250D02*
X70398750Y-93436250D01*
X51006250Y-90868750D02*
X50593770Y-90456270D01*
X67831250Y-90868750D02*
X51006250Y-90868750D01*
X70398750Y-93436250D02*
X67831250Y-90868750D01*
X51006250Y-90868750D02*
X48101250Y-87963750D01*
X48101250Y-87963750D02*
X48101250Y-86131250D01*
D29*
X64656250Y-110818750D02*
X64681250Y-110793750D01*
X63561249Y-110818750D02*
X64656250Y-110818750D01*
X66806250Y-110793750D02*
X64681250Y-110793750D01*
X67179226Y-110793750D02*
X66806250Y-110793750D01*
X67979236Y-111593760D02*
X67179226Y-110793750D01*
X69418740Y-111593760D02*
X67979236Y-111593760D01*
X69418750Y-111593750D02*
X69418740Y-111593760D01*
X75981250Y-114918750D02*
X75806250Y-114743750D01*
X74781250Y-114743750D02*
X75806250Y-114743750D01*
X74756250Y-114718750D02*
X74756250Y-112431250D01*
X74781250Y-114743750D02*
X74756250Y-114718750D01*
X75981250Y-114918750D02*
X75981250Y-115618750D01*
X77943750Y-101931250D02*
X77956250Y-101918750D01*
X75961250Y-101931250D02*
X77943750Y-101931250D01*
X77956250Y-103918750D02*
X77978750Y-103941250D01*
X77956250Y-101918750D02*
X77956250Y-103918750D01*
X76731250Y-107593750D02*
X76093750Y-107593750D01*
X77199105Y-107593750D02*
X76731250Y-107593750D01*
X77978750Y-106814105D02*
X77199105Y-107593750D01*
X77978750Y-103941250D02*
X77978750Y-106814105D01*
D30*
X246587500Y-86681250D02*
X75137500Y-86681250D01*
X75137500Y-86681250D02*
X72756250Y-86681250D01*
X72756250Y-86681250D02*
X70881250Y-86681250D01*
X68403750Y-108093750D02*
X69418750Y-108093750D01*
X66731250Y-98581250D02*
X66731250Y-106421250D01*
X66731250Y-106421250D02*
X68403750Y-108093750D01*
X45293750Y-86681250D02*
X37037500Y-86681250D01*
X53137500Y-94525000D02*
X45293750Y-86681250D01*
X62675000Y-94525000D02*
X53137500Y-94525000D01*
X66731250Y-98581250D02*
X62675000Y-94525000D01*
X37037500Y-79696054D02*
X37037500Y-83881250D01*
X38754804Y-77978750D02*
X37037500Y-79696054D01*
X40371250Y-77978750D02*
X38754804Y-77978750D01*
X38754804Y-97028750D02*
X40371250Y-97028750D01*
X37037500Y-98746054D02*
X38754804Y-97028750D01*
X37037500Y-102931250D02*
X37037500Y-98746054D01*
X246587500Y-105731250D02*
X97468750Y-105731250D01*
X37037500Y-105731250D02*
X56087500Y-105731250D01*
X94187500Y-105731250D02*
X97468750Y-105731250D01*
X97468750Y-105731250D02*
X91806250Y-105731250D01*
X94187500Y-105731250D02*
X91806250Y-105731250D01*
X56125000Y-105768750D02*
X56087500Y-105731250D01*
X66031250Y-106357660D02*
X66031250Y-105768750D01*
X69418750Y-108593750D02*
X68267340Y-108593750D01*
X68267340Y-108593750D02*
X66031250Y-106357660D01*
X56125000Y-105768750D02*
X66031250Y-105768750D01*
X91806250Y-105731250D02*
X90393750Y-105731250D01*
X79031250Y-112918750D02*
X80189249Y-112918750D01*
X37037500Y-117796054D02*
X37037500Y-121981250D01*
X38754804Y-116078750D02*
X37037500Y-117796054D01*
X40371250Y-116078750D02*
X38754804Y-116078750D01*
X37037500Y-124781250D02*
X56087500Y-124781250D01*
X91806250Y-122400000D02*
X94187500Y-122400000D01*
X94187500Y-122400000D02*
X246587500Y-122400000D01*
X67858110Y-110093750D02*
X69418750Y-110093750D01*
X55237500Y-124781250D02*
X56087500Y-124781250D01*
X53631250Y-123175000D02*
X55237500Y-124781250D01*
X53631250Y-112481250D02*
X53631250Y-123175000D01*
X58056249Y-108056251D02*
X53631250Y-112481250D01*
X65820611Y-108056251D02*
X58056249Y-108056251D01*
X67858110Y-110093750D02*
X65820611Y-108056251D01*
X91785000Y-122378750D02*
X91806250Y-122400000D01*
X91785000Y-122378750D02*
X77221250Y-122378750D01*
X59340000Y-122378750D02*
X68311250Y-122378750D01*
X56937500Y-124781250D02*
X59340000Y-122378750D01*
X56087500Y-124781250D02*
X56937500Y-124781250D01*
X59421250Y-77978750D02*
X69398750Y-77978750D01*
X72756250Y-81336250D02*
X72756250Y-83881250D01*
X69398750Y-77978750D02*
X72756250Y-81336250D01*
X57804804Y-97028750D02*
X59421250Y-97028750D01*
X56087500Y-98746054D02*
X57804804Y-97028750D01*
X56087500Y-102931250D02*
X56087500Y-98746054D01*
X56087500Y-117796054D02*
X56087500Y-121981250D01*
X57804804Y-116078750D02*
X56087500Y-117796054D01*
X59421250Y-116078750D02*
X57804804Y-116078750D01*
X59421250Y-135128750D02*
X64183750Y-135128750D01*
X56087500Y-136846054D02*
X56087500Y-141031250D01*
X57804804Y-135128750D02*
X56087500Y-136846054D01*
X59421250Y-135128750D02*
X57804804Y-135128750D01*
X149818750Y-143831250D02*
X148956250Y-143831250D01*
X151981250Y-141668750D02*
X149818750Y-143831250D01*
X167375000Y-141668750D02*
X151981250Y-141668750D01*
X169537500Y-143831250D02*
X167375000Y-141668750D01*
X170387500Y-143831250D02*
X169537500Y-143831250D01*
X133137500Y-143831250D02*
X132287500Y-143831250D01*
X132287500Y-143831250D02*
X133137500Y-143831250D01*
X148106250Y-143831250D02*
X148956250Y-143831250D01*
X145943750Y-141668750D02*
X148106250Y-143831250D01*
X135300000Y-141668750D02*
X145943750Y-141668750D01*
X133137500Y-143831250D02*
X135300000Y-141668750D01*
X121368750Y-143831250D02*
X132287500Y-143831250D01*
X119531250Y-145668750D02*
X121368750Y-143831250D01*
X115925000Y-145668750D02*
X119531250Y-145668750D01*
X114087500Y-143831250D02*
X115925000Y-145668750D01*
X113237500Y-143831250D02*
X114087500Y-143831250D01*
X209864500Y-143802000D02*
X223308250Y-143802000D01*
X207892625Y-141830125D02*
X209864500Y-143802000D01*
X207890625Y-141830125D02*
X207892625Y-141830125D01*
X206106250Y-140045750D02*
X207890625Y-141830125D01*
X202320750Y-143831250D02*
X201012500Y-143831250D01*
X206106250Y-140045750D02*
X202320750Y-143831250D01*
X206106250Y-139195750D02*
X206106250Y-140045750D01*
X201012500Y-143831250D02*
X170387500Y-143831250D01*
X100185250Y-143831250D02*
X113237500Y-143831250D01*
X56087500Y-143831250D02*
X83516500Y-143831250D01*
X91806250Y-139195750D02*
X91806250Y-140304000D01*
X88279000Y-143831250D02*
X83516500Y-143831250D01*
X91806250Y-140304000D02*
X88279000Y-143831250D01*
X91806250Y-139195750D02*
X91806250Y-140050000D01*
X95587500Y-143831250D02*
X100185250Y-143831250D01*
X91806250Y-140050000D02*
X95587500Y-143831250D01*
X70756250Y-121556250D02*
X70756250Y-112431250D01*
X90127000Y-139195750D02*
X89452000Y-138520750D01*
X91806250Y-139195750D02*
X90127000Y-139195750D01*
X89452000Y-138520750D02*
X89452000Y-134438498D01*
X89452000Y-134438498D02*
X81304332Y-126290830D01*
X81304332Y-126290830D02*
X75490830Y-126290830D01*
X75490830Y-126290830D02*
X70756250Y-121556250D01*
X76854804Y-77978750D02*
X78471250Y-77978750D01*
X75137500Y-79696054D02*
X76854804Y-77978750D01*
X75137500Y-83881250D02*
X75137500Y-79696054D01*
X91806250Y-99857304D02*
X91806250Y-102931250D01*
X86437696Y-94488750D02*
X91806250Y-99857304D01*
X84821250Y-94488750D02*
X86437696Y-94488750D01*
X84821250Y-113538750D02*
X88388750Y-113538750D01*
X91806250Y-116956250D02*
X91806250Y-119600000D01*
X88388750Y-113538750D02*
X91806250Y-116956250D01*
X76854804Y-135128750D02*
X78471250Y-135128750D01*
X75137500Y-136846054D02*
X76854804Y-135128750D01*
X75137500Y-141031250D02*
X75137500Y-136846054D01*
X95904804Y-77978750D02*
X97521250Y-77978750D01*
X94187500Y-79696054D02*
X95904804Y-77978750D01*
X94187500Y-83881250D02*
X94187500Y-79696054D01*
X95904804Y-97028750D02*
X97521250Y-97028750D01*
X94187500Y-98746054D02*
X95904804Y-97028750D01*
X94187500Y-102931250D02*
X94187500Y-98746054D01*
X95904804Y-116078750D02*
X97521250Y-116078750D01*
X94187500Y-117796054D02*
X95904804Y-116078750D01*
X94187500Y-119600000D02*
X94187500Y-117796054D01*
X95904804Y-135128750D02*
X97521250Y-135128750D01*
X94594000Y-135128750D02*
X95904804Y-135128750D01*
X93327000Y-136395750D02*
X94594000Y-135128750D01*
X91806250Y-136395750D02*
X93327000Y-136395750D01*
X114954804Y-77978750D02*
X116571250Y-77978750D01*
X113237500Y-79696054D02*
X114954804Y-77978750D01*
X113237500Y-83881250D02*
X113237500Y-79696054D01*
X114954804Y-97028750D02*
X116571250Y-97028750D01*
X113237500Y-98746054D02*
X114954804Y-97028750D01*
X113237500Y-102931250D02*
X113237500Y-98746054D01*
X114954804Y-116078750D02*
X116571250Y-116078750D01*
X113237500Y-117796054D02*
X114954804Y-116078750D01*
X113237500Y-119600000D02*
X113237500Y-117796054D01*
D29*
X113237500Y-136846054D02*
X113237500Y-141031250D01*
X114954804Y-135128750D02*
X113237500Y-136846054D01*
X116571250Y-135128750D02*
X114954804Y-135128750D01*
D30*
X134004804Y-77978750D02*
X135621250Y-77978750D01*
X132287500Y-79696054D02*
X134004804Y-77978750D01*
X132287500Y-83881250D02*
X132287500Y-79696054D01*
X134004804Y-97028750D02*
X135621250Y-97028750D01*
X132287500Y-98746054D02*
X134004804Y-97028750D01*
X132287500Y-102931250D02*
X132287500Y-98746054D01*
X134004804Y-116078750D02*
X135621250Y-116078750D01*
X132287500Y-117796054D02*
X134004804Y-116078750D01*
X132287500Y-119600000D02*
X132287500Y-117796054D01*
D29*
X132287500Y-136846054D02*
X132287500Y-141031250D01*
X134004804Y-135128750D02*
X132287500Y-136846054D01*
X135621250Y-135128750D02*
X134004804Y-135128750D01*
D30*
X153054804Y-77978750D02*
X154671250Y-77978750D01*
X151337500Y-79696054D02*
X153054804Y-77978750D01*
X151337500Y-83881250D02*
X151337500Y-79696054D01*
X153054804Y-97028750D02*
X154671250Y-97028750D01*
X151337500Y-98746054D02*
X153054804Y-97028750D01*
X151337500Y-102931250D02*
X151337500Y-98746054D01*
X153054804Y-116078750D02*
X154671250Y-116078750D01*
X151337500Y-117796054D02*
X153054804Y-116078750D01*
X151337500Y-119600000D02*
X151337500Y-117796054D01*
D29*
X145146250Y-135128750D02*
X146289249Y-136271749D01*
X146289249Y-139764249D02*
X147556250Y-141031250D01*
X146289249Y-136271749D02*
X146289249Y-139764249D01*
X148956250Y-141031250D02*
X147556250Y-141031250D01*
X145146250Y-135128750D02*
X154671250Y-135128750D01*
D30*
X172104804Y-77978750D02*
X173721250Y-77978750D01*
X170387500Y-79696054D02*
X172104804Y-77978750D01*
X170387500Y-83881250D02*
X170387500Y-79696054D01*
X172104804Y-97028750D02*
X173721250Y-97028750D01*
X170387500Y-98746054D02*
X172104804Y-97028750D01*
X170387500Y-102931250D02*
X170387500Y-98746054D01*
X172104804Y-116078750D02*
X173721250Y-116078750D01*
X170387500Y-117796054D02*
X172104804Y-116078750D01*
X170387500Y-119600000D02*
X170387500Y-117796054D01*
D29*
X170387500Y-136846054D02*
X170387500Y-141031250D01*
X172104804Y-135128750D02*
X170387500Y-136846054D01*
X173721250Y-135128750D02*
X172104804Y-135128750D01*
D30*
X191154804Y-77978750D02*
X192771250Y-77978750D01*
X189437500Y-79696054D02*
X191154804Y-77978750D01*
X189437500Y-83881250D02*
X189437500Y-79696054D01*
X191154804Y-97028750D02*
X192771250Y-97028750D01*
X189437500Y-98746054D02*
X191154804Y-97028750D01*
X189437500Y-102931250D02*
X189437500Y-98746054D01*
X191154804Y-116078750D02*
X192771250Y-116078750D01*
X189437500Y-117796054D02*
X191154804Y-116078750D01*
X189437500Y-119600000D02*
X189437500Y-117796054D01*
D29*
X189437500Y-136846054D02*
X189437500Y-141031250D01*
X191154804Y-135128750D02*
X189437500Y-136846054D01*
X192771250Y-135128750D02*
X191154804Y-135128750D01*
D30*
X210204804Y-77978750D02*
X211821250Y-77978750D01*
X208487500Y-79696054D02*
X210204804Y-77978750D01*
X208487500Y-83881250D02*
X208487500Y-79696054D01*
X210204804Y-97028750D02*
X211821250Y-97028750D01*
X208487500Y-98746054D02*
X210204804Y-97028750D01*
X208487500Y-102931250D02*
X208487500Y-98746054D01*
X210204804Y-116078750D02*
X211821250Y-116078750D01*
X208487500Y-117796054D02*
X210204804Y-116078750D01*
X208487500Y-119600000D02*
X208487500Y-117796054D01*
X208900250Y-135128750D02*
X211821250Y-135128750D01*
X206106250Y-136395750D02*
X207633250Y-136395750D01*
X207633250Y-136395750D02*
X208900250Y-135128750D01*
X229254804Y-77978750D02*
X230871250Y-77978750D01*
X227537500Y-79696054D02*
X229254804Y-77978750D01*
X227537500Y-83881250D02*
X227537500Y-79696054D01*
X229254804Y-97028750D02*
X230871250Y-97028750D01*
X227537500Y-98746054D02*
X229254804Y-97028750D01*
X227537500Y-102931250D02*
X227537500Y-98746054D01*
X229254804Y-116078750D02*
X230871250Y-116078750D01*
X227537500Y-117796054D02*
X229254804Y-116078750D01*
X227537500Y-119600000D02*
X227537500Y-117796054D01*
X226235750Y-135128750D02*
X230871250Y-135128750D01*
X224619304Y-135128750D02*
X226235750Y-135128750D01*
X223308250Y-136439804D02*
X224619304Y-135128750D01*
X223308250Y-141002000D02*
X223308250Y-136439804D01*
X230871250Y-135128750D02*
X226108750Y-135128750D01*
X224492304Y-135128750D02*
X226108750Y-135128750D01*
X223308250Y-136312804D02*
X224492304Y-135128750D01*
X223308250Y-141002000D02*
X223308250Y-136312804D01*
X248304804Y-77978750D02*
X249921250Y-77978750D01*
X246587500Y-79696054D02*
X248304804Y-77978750D01*
X246587500Y-83881250D02*
X246587500Y-79696054D01*
X248304804Y-97028750D02*
X249921250Y-97028750D01*
X246587500Y-98746054D02*
X248304804Y-97028750D01*
X246587500Y-102931250D02*
X246587500Y-98746054D01*
X248304804Y-116078750D02*
X249921250Y-116078750D01*
X246587500Y-117796054D02*
X248304804Y-116078750D01*
X246587500Y-119600000D02*
X246587500Y-117796054D01*
D29*
X51256250Y-76726250D02*
X51256250Y-78136250D01*
D31*
X51256250Y-79696808D02*
X51256250Y-78136250D01*
D29*
X56156250Y-75858752D02*
X56156250Y-76726250D01*
X55323738Y-75026240D02*
X56156250Y-75858752D01*
X51256250Y-75840252D02*
X51256250Y-76726250D01*
X52070262Y-75026240D02*
X51256250Y-75840252D01*
X55323738Y-75026240D02*
X52070262Y-75026240D01*
D31*
X260481250Y-76901441D02*
X260481250Y-76918750D01*
X260481250Y-76918750D02*
X261231250Y-77668750D01*
X179730610Y-141568550D02*
X177831450Y-141568550D01*
X177831450Y-141568550D02*
X177731250Y-141668750D01*
X261231250Y-77668750D02*
X261231250Y-101568750D01*
X257639904Y-74060096D02*
X256848558Y-73268750D01*
X257639904Y-74060096D02*
X260481250Y-76901441D01*
X51256250Y-75858752D02*
X51256250Y-76726250D01*
X53846252Y-73268750D02*
X51256250Y-75858752D01*
X122730610Y-85068550D02*
X128431450Y-85068550D01*
X128431450Y-85068550D02*
X129931250Y-83568750D01*
X129931250Y-75268750D02*
X131931250Y-73268750D01*
X129931250Y-83568750D02*
X129931250Y-75268750D01*
X131931250Y-73268750D02*
X53846252Y-73268750D01*
X250731890Y-106768950D02*
X251807460Y-106768950D01*
X251807460Y-106768950D02*
X252907260Y-107868750D01*
X256731250Y-107868750D02*
X261218760Y-103381240D01*
X261218760Y-103381240D02*
X261218760Y-101581240D01*
X252907260Y-107868750D02*
X256731250Y-107868750D01*
X261218760Y-101581240D02*
X261231250Y-101568750D01*
X256848558Y-73268750D02*
X245431250Y-73268750D01*
X237180610Y-85068550D02*
X243131450Y-85068550D01*
X243131450Y-85068550D02*
X244231250Y-83968750D01*
X244231250Y-74468750D02*
X245431250Y-73268750D01*
X244231250Y-83968750D02*
X244231250Y-74468750D01*
D29*
X175231890Y-88268950D02*
X168031450Y-88268950D01*
X168031450Y-88268950D02*
X168031250Y-88268750D01*
D31*
X118231890Y-144768950D02*
X119631050Y-144768950D01*
X120331250Y-144068750D02*
X119631050Y-144768950D01*
X120331250Y-142793750D02*
X120331250Y-144068750D01*
X131931250Y-73268750D02*
X168031250Y-73268750D01*
X245431250Y-73268750D02*
X168031250Y-73268750D01*
X44081450Y-107268950D02*
X41731890Y-107268950D01*
X45281250Y-108468750D02*
X44081450Y-107268950D01*
X45281250Y-108468750D02*
X49631250Y-108468750D01*
X50693741Y-80259317D02*
X51256250Y-79696808D01*
X49941250Y-83331250D02*
X50693740Y-82578760D01*
X50693740Y-82578760D02*
X50693741Y-80259317D01*
X51256250Y-79696808D02*
X51256250Y-76726250D01*
X49941250Y-83331250D02*
X48101250Y-83331250D01*
X60731250Y-87268310D02*
X60731890Y-87268950D01*
X60731250Y-85918750D02*
X60731250Y-87268310D01*
X253181050Y-106768950D02*
X253181250Y-106768750D01*
X250731890Y-106768950D02*
X253181050Y-106768950D01*
D30*
X53451241Y-84038741D02*
X52531250Y-83118750D01*
X71256250Y-93052660D02*
X68184850Y-89981260D01*
X71256250Y-105756250D02*
X71256250Y-93052660D01*
X68184850Y-89981260D02*
X55854850Y-89981260D01*
X55854850Y-89981260D02*
X53451242Y-87577652D01*
X53451242Y-87577652D02*
X53451241Y-85431241D01*
X53451241Y-85431241D02*
X53451241Y-84038741D01*
X53901251Y-84108749D02*
X54891250Y-83118750D01*
X53901251Y-87391251D02*
X53901251Y-84108749D01*
X56041250Y-89531250D02*
X53901251Y-87391251D01*
X68371250Y-89531250D02*
X56041250Y-89531250D01*
X71756250Y-105756250D02*
X71756250Y-92916250D01*
X71756250Y-92916250D02*
X68371250Y-89531250D01*
X75236249Y-103073749D02*
X76103750Y-103941250D01*
X75236249Y-92063751D02*
X75236249Y-103073749D01*
X77331250Y-89968750D02*
X75236249Y-92063751D01*
X77331250Y-89968750D02*
X91031250Y-89968750D01*
D29*
X76093750Y-107093750D02*
X76991985Y-107093750D01*
X76991985Y-107093750D02*
X77452000Y-106633735D01*
X77452000Y-106633735D02*
X77452000Y-105670750D01*
X76103750Y-103941250D02*
X76103750Y-105122500D01*
X76352000Y-105370750D02*
X77152000Y-105370750D01*
X76103750Y-105122500D02*
X76352000Y-105370750D01*
X77452000Y-105670750D02*
X77152000Y-105370750D01*
D30*
X69581250Y-114018750D02*
X69581250Y-114681250D01*
X70256250Y-113343750D02*
X69581250Y-114018750D01*
X70256250Y-112431250D02*
X70256250Y-113343750D01*
X50886570Y-113538750D02*
X46721250Y-113538750D01*
X57743910Y-106681410D02*
X50886570Y-113538750D01*
X65718590Y-106681410D02*
X57743910Y-106681410D01*
X68130930Y-109093750D02*
X65718590Y-106681410D01*
X69418750Y-109093750D02*
X68130930Y-109093750D01*
X65732020Y-107331250D02*
X62721250Y-107331250D01*
X67994520Y-109593750D02*
X65732020Y-107331250D01*
X69418750Y-109593750D02*
X67994520Y-109593750D01*
X65771250Y-132588750D02*
X70533750Y-132588750D01*
X78471250Y-112908750D02*
X78471250Y-116078750D01*
X76093750Y-111593750D02*
X77156250Y-111593750D01*
X77156250Y-111593750D02*
X78471250Y-112908750D01*
X77855160Y-111093750D02*
X76093750Y-111093750D01*
X78692660Y-111931250D02*
X77855160Y-111093750D01*
X103871250Y-113538750D02*
X102263750Y-111931250D01*
X102263750Y-111931250D02*
X78692660Y-111931250D01*
X120863740Y-111481240D02*
X122921250Y-113538750D01*
X78879060Y-111481240D02*
X120863740Y-111481240D01*
X77991570Y-110593750D02*
X78879060Y-111481240D01*
X76093750Y-110593750D02*
X77991570Y-110593750D01*
X71256250Y-121419840D02*
X71256250Y-112431250D01*
X141971250Y-132588750D02*
X141311250Y-132588750D01*
X141311250Y-132588750D02*
X140731250Y-133168750D01*
X140731250Y-133168750D02*
X126731250Y-133168750D01*
X126731250Y-133168750D02*
X119403320Y-125840820D01*
X119403320Y-125840820D02*
X75677230Y-125840820D01*
X75677230Y-125840820D02*
X71256250Y-121419840D01*
D29*
X151496250Y-132588750D02*
X161021250Y-132588750D01*
D30*
X144298310Y-125390810D02*
X151496250Y-132588750D01*
X75863630Y-125390810D02*
X144298310Y-125390810D01*
X71756250Y-112431250D02*
X71756250Y-121283430D01*
X71756250Y-121283430D02*
X75863630Y-125390810D01*
X172423300Y-124940800D02*
X180071250Y-132588750D01*
X76050030Y-124940800D02*
X172423300Y-124940800D01*
X72256250Y-112431250D02*
X72256250Y-121147020D01*
X72256250Y-121147020D02*
X76050030Y-124940800D01*
X72756250Y-121010610D02*
X72756250Y-112431250D01*
X72756250Y-121010610D02*
X76236430Y-124490790D01*
X191023290Y-124490790D02*
X199121250Y-132588750D01*
X76236430Y-124490790D02*
X191023290Y-124490790D01*
X209623280Y-124040780D02*
X218171250Y-132588750D01*
X76422830Y-124040780D02*
X209623280Y-124040780D01*
X73256250Y-112431250D02*
X73256250Y-120874201D01*
X73256250Y-120874201D02*
X76422830Y-124040780D01*
X73756250Y-120737791D02*
X73756250Y-112431250D01*
X232458750Y-132588750D02*
X237221250Y-132588750D01*
X127953270Y-123590770D02*
X127975290Y-123568750D01*
X76609230Y-123590770D02*
X73756250Y-120737791D01*
X228223270Y-123590770D02*
X237221250Y-132588750D01*
X127309230Y-123590770D02*
X228223270Y-123590770D01*
X127309230Y-123590770D02*
X127953270Y-123590770D01*
X76609230Y-123590770D02*
X127309230Y-123590770D01*
X253763730Y-111031230D02*
X256271250Y-113538750D01*
X79065460Y-111031230D02*
X253763730Y-111031230D01*
X76093750Y-110093750D02*
X78127980Y-110093750D01*
X78127980Y-110093750D02*
X79065460Y-111031230D01*
X53456250Y-77686252D02*
X53456250Y-76726250D01*
X53731248Y-77961250D02*
X53456250Y-77686252D01*
X54196250Y-77961250D02*
X53731248Y-77961250D01*
X54456250Y-77701250D02*
X54196250Y-77961250D01*
X54456250Y-77701250D02*
X54456250Y-76726250D01*
X54456250Y-80221250D02*
X54456250Y-77701250D01*
X54891250Y-80656250D02*
X54456250Y-80221250D01*
X54891250Y-81243750D02*
X54891250Y-80656250D01*
X52956250Y-75751250D02*
X52956250Y-76726250D01*
X53193750Y-75513750D02*
X52956250Y-75751250D01*
X53718750Y-75513750D02*
X53193750Y-75513750D01*
X53956250Y-75751250D02*
X53718750Y-75513750D01*
X53956250Y-76726250D02*
X53956250Y-75751250D01*
X52956250Y-80231250D02*
X52956250Y-76726250D01*
X52531250Y-80656250D02*
X52956250Y-80231250D01*
X52531250Y-81243750D02*
X52531250Y-80656250D01*
X55456250Y-79436250D02*
X56241250Y-80221250D01*
X55456250Y-76726250D02*
X55456250Y-79436250D01*
X56241250Y-85313750D02*
X56241250Y-80221250D01*
X51181250Y-85313750D02*
X51181250Y-80461250D01*
X52456250Y-79186250D02*
X52456250Y-76726250D01*
X51181250Y-80461250D02*
X52456250Y-79186250D01*
X70031450Y-87268950D02*
X65730610Y-87268950D01*
X74756250Y-91993750D02*
X70031450Y-87268950D01*
X74756250Y-103230160D02*
X74756250Y-91993750D01*
X75256250Y-105756250D02*
X75256250Y-103730160D01*
X75256250Y-103730160D02*
X74756250Y-103230160D01*
D29*
X80356250Y-107189500D02*
X81456250Y-107189500D01*
X76093750Y-108593750D02*
X78952000Y-108593750D01*
X78952000Y-108593750D02*
X80356250Y-107189500D01*
X81452000Y-109093750D02*
X81456250Y-109089500D01*
X76093750Y-109093750D02*
X81452000Y-109093750D01*
D30*
X62732460Y-85068550D02*
X117731890Y-85068550D01*
X61732460Y-84068550D02*
X62732460Y-85068550D01*
X60731890Y-84068550D02*
X61732460Y-84068550D01*
X179230040Y-88268950D02*
X180230610Y-88268950D01*
X178380105Y-89118885D02*
X179230040Y-88268950D01*
X124581115Y-89118885D02*
X178380105Y-89118885D01*
X123731180Y-88268950D02*
X124581115Y-89118885D01*
X122730610Y-88268950D02*
X123731180Y-88268950D01*
X187031050Y-85068550D02*
X232181890Y-85068550D01*
X186131250Y-84168750D02*
X187031050Y-85068550D01*
X177132260Y-84168750D02*
X186131250Y-84168750D01*
X176232460Y-85068550D02*
X177132260Y-84168750D01*
X175231890Y-85068550D02*
X176232460Y-85068550D01*
X256731180Y-106768950D02*
X255730610Y-106768950D01*
X238181180Y-88268950D02*
X238693470Y-88781240D01*
X238693470Y-88781240D02*
X258143740Y-88781240D01*
X237180610Y-88268950D02*
X238181180Y-88268950D01*
X258143740Y-88781240D02*
X260731250Y-91368750D01*
X260731250Y-91368750D02*
X260731250Y-102768880D01*
X260731250Y-102768880D02*
X256731180Y-106768950D01*
X253151450Y-103568550D02*
X253181250Y-103538750D01*
X250731890Y-103568550D02*
X253151450Y-103568550D01*
X175732460Y-141568550D02*
X174731890Y-141568550D01*
X176832260Y-140468750D02*
X175732460Y-141568550D01*
X188631250Y-142668750D02*
X186431250Y-140468750D01*
X199200000Y-142668750D02*
X188631250Y-142668750D01*
X204073000Y-137795750D02*
X199200000Y-142668750D01*
X186431250Y-140468750D02*
X176832260Y-140468750D01*
X241711909Y-127829409D02*
X241711909Y-140649409D01*
X241711909Y-140649409D02*
X241731250Y-140668750D01*
X241731250Y-140668750D02*
X239731250Y-142668750D01*
X239731250Y-142668750D02*
X213266500Y-142668750D01*
X213266500Y-142668750D02*
X208393500Y-137795750D01*
X208393500Y-137795750D02*
X204073000Y-137795750D01*
X124531250Y-144768750D02*
X124231380Y-144768750D01*
X124931250Y-145168750D02*
X124531250Y-144768750D01*
X124231380Y-144768750D02*
X124231180Y-144768950D01*
X135731250Y-142168750D02*
X132731250Y-145168750D01*
X132731250Y-145168750D02*
X124931250Y-145168750D01*
X145231250Y-142168750D02*
X135731250Y-142168750D01*
X147981250Y-144918750D02*
X145231250Y-142168750D01*
X179730610Y-144768950D02*
X178730040Y-144768950D01*
X124231180Y-144768950D02*
X123230610Y-144768950D01*
X178730040Y-144768950D02*
X177580240Y-145918750D01*
X177580240Y-145918750D02*
X170481250Y-145918750D01*
X170481250Y-145918750D02*
X166731250Y-142168750D01*
X166731250Y-142168750D02*
X152731250Y-142168750D01*
X149981250Y-144918750D02*
X147981250Y-144918750D01*
X152731250Y-142168750D02*
X149981250Y-144918750D01*
X118331690Y-141468750D02*
X118231890Y-141568550D01*
X120431050Y-141568550D02*
X120431250Y-141568750D01*
X118231890Y-141568550D02*
X120431050Y-141568550D01*
X46780410Y-107318750D02*
X46730610Y-107268950D01*
X49631250Y-107318750D02*
X46780410Y-107318750D01*
D32*
G36*
X58604250Y-74281396D02*
G01*
X58551226Y-74246974D01*
X58328124Y-74167131D01*
X58153250Y-74293296D01*
X58153250Y-75684250D01*
X58173250Y-75684250D01*
X58173250Y-75938250D01*
X58153250Y-75938250D01*
X58153250Y-75958250D01*
X57899250Y-75958250D01*
X57899250Y-75938250D01*
X57879250Y-75938250D01*
X57879250Y-75684250D01*
X57899250Y-75684250D01*
X57899250Y-74293296D01*
X57724376Y-74167131D01*
X57501274Y-74246974D01*
X57313486Y-74368881D01*
X57169134Y-74509456D01*
X57050981Y-74430509D01*
X56876272Y-74358142D01*
X56690802Y-74321250D01*
X56501698Y-74321250D01*
X56316228Y-74358142D01*
X56141519Y-74430509D01*
X55984286Y-74535569D01*
X55963755Y-74556100D01*
X55906085Y-74498430D01*
X55881502Y-74468476D01*
X55761971Y-74370378D01*
X55625598Y-74297486D01*
X55477625Y-74252599D01*
X55362299Y-74241240D01*
X55362291Y-74241240D01*
X55323738Y-74237443D01*
X55285185Y-74241240D01*
X54001597Y-74241240D01*
X54176587Y-74066250D01*
X58604250Y-74066250D01*
X58604250Y-74281396D01*
X58604250Y-74281396D01*
G37*
X58604250Y-74281396D02*
X58551226Y-74246974D01*
X58328124Y-74167131D01*
X58153250Y-74293296D01*
X58153250Y-75684250D01*
X58173250Y-75684250D01*
X58173250Y-75938250D01*
X58153250Y-75938250D01*
X58153250Y-75958250D01*
X57899250Y-75958250D01*
X57899250Y-75938250D01*
X57879250Y-75938250D01*
X57879250Y-75684250D01*
X57899250Y-75684250D01*
X57899250Y-74293296D01*
X57724376Y-74167131D01*
X57501274Y-74246974D01*
X57313486Y-74368881D01*
X57169134Y-74509456D01*
X57050981Y-74430509D01*
X56876272Y-74358142D01*
X56690802Y-74321250D01*
X56501698Y-74321250D01*
X56316228Y-74358142D01*
X56141519Y-74430509D01*
X55984286Y-74535569D01*
X55963755Y-74556100D01*
X55906085Y-74498430D01*
X55881502Y-74468476D01*
X55761971Y-74370378D01*
X55625598Y-74297486D01*
X55477625Y-74252599D01*
X55362299Y-74241240D01*
X55362291Y-74241240D01*
X55323738Y-74237443D01*
X55285185Y-74241240D01*
X54001597Y-74241240D01*
X54176587Y-74066250D01*
X58604250Y-74066250D01*
X58604250Y-74281396D01*
G36*
X56891250Y-71204250D02*
G01*
X56891250Y-71504250D01*
X57899250Y-71504250D01*
X57899250Y-71484250D01*
X58153250Y-71484250D01*
X58153250Y-71504250D01*
X58173250Y-71504250D01*
X58173250Y-71758250D01*
X58153250Y-71758250D01*
X58153250Y-71778250D01*
X57899250Y-71778250D01*
X57899250Y-71758250D01*
X56891250Y-71758250D01*
X56891250Y-72058250D01*
X56937835Y-72277237D01*
X57021227Y-72471250D01*
X53885423Y-72471250D01*
X53846252Y-72467392D01*
X53689914Y-72482790D01*
X53644312Y-72496624D01*
X53539586Y-72528392D01*
X53401041Y-72602445D01*
X53279606Y-72702104D01*
X53254632Y-72732535D01*
X51547040Y-74440128D01*
X51512498Y-74468476D01*
X51487915Y-74498430D01*
X51439495Y-74546850D01*
X51428214Y-74535569D01*
X51270981Y-74430509D01*
X51096272Y-74358142D01*
X50910802Y-74321250D01*
X50721698Y-74321250D01*
X50536228Y-74358142D01*
X50361519Y-74430509D01*
X50243366Y-74509456D01*
X50099014Y-74368881D01*
X49911226Y-74246974D01*
X49688124Y-74167131D01*
X49513250Y-74293296D01*
X49513250Y-75684250D01*
X49533250Y-75684250D01*
X49533250Y-75938250D01*
X49513250Y-75938250D01*
X49513250Y-75958250D01*
X49259250Y-75958250D01*
X49259250Y-75938250D01*
X49239250Y-75938250D01*
X49239250Y-75684250D01*
X49259250Y-75684250D01*
X49259250Y-74293296D01*
X49084376Y-74167131D01*
X48861274Y-74246974D01*
X48858250Y-74248937D01*
X48858250Y-72943563D01*
X48861274Y-72945526D01*
X49084376Y-73025369D01*
X49259250Y-72899204D01*
X49259250Y-71758250D01*
X49513250Y-71758250D01*
X49513250Y-72899204D01*
X49688124Y-73025369D01*
X49911226Y-72945526D01*
X50099014Y-72823619D01*
X50259411Y-72667419D01*
X50386253Y-72482928D01*
X50474665Y-72277237D01*
X50521250Y-72058250D01*
X50521250Y-71758250D01*
X49513250Y-71758250D01*
X49259250Y-71758250D01*
X49239250Y-71758250D01*
X49239250Y-71504250D01*
X49259250Y-71504250D01*
X49259250Y-71484250D01*
X49513250Y-71484250D01*
X49513250Y-71504250D01*
X50521250Y-71504250D01*
X50521250Y-71204250D01*
X50512253Y-71161958D01*
X56900291Y-71161750D01*
X56891250Y-71204250D01*
X56891250Y-71204250D01*
G37*
X56891250Y-71204250D02*
X56891250Y-71504250D01*
X57899250Y-71504250D01*
X57899250Y-71484250D01*
X58153250Y-71484250D01*
X58153250Y-71504250D01*
X58173250Y-71504250D01*
X58173250Y-71758250D01*
X58153250Y-71758250D01*
X58153250Y-71778250D01*
X57899250Y-71778250D01*
X57899250Y-71758250D01*
X56891250Y-71758250D01*
X56891250Y-72058250D01*
X56937835Y-72277237D01*
X57021227Y-72471250D01*
X53885423Y-72471250D01*
X53846252Y-72467392D01*
X53689914Y-72482790D01*
X53644312Y-72496624D01*
X53539586Y-72528392D01*
X53401041Y-72602445D01*
X53279606Y-72702104D01*
X53254632Y-72732535D01*
X51547040Y-74440128D01*
X51512498Y-74468476D01*
X51487915Y-74498430D01*
X51439495Y-74546850D01*
X51428214Y-74535569D01*
X51270981Y-74430509D01*
X51096272Y-74358142D01*
X50910802Y-74321250D01*
X50721698Y-74321250D01*
X50536228Y-74358142D01*
X50361519Y-74430509D01*
X50243366Y-74509456D01*
X50099014Y-74368881D01*
X49911226Y-74246974D01*
X49688124Y-74167131D01*
X49513250Y-74293296D01*
X49513250Y-75684250D01*
X49533250Y-75684250D01*
X49533250Y-75938250D01*
X49513250Y-75938250D01*
X49513250Y-75958250D01*
X49259250Y-75958250D01*
X49259250Y-75938250D01*
X49239250Y-75938250D01*
X49239250Y-75684250D01*
X49259250Y-75684250D01*
X49259250Y-74293296D01*
X49084376Y-74167131D01*
X48861274Y-74246974D01*
X48858250Y-74248937D01*
X48858250Y-72943563D01*
X48861274Y-72945526D01*
X49084376Y-73025369D01*
X49259250Y-72899204D01*
X49259250Y-71758250D01*
X49513250Y-71758250D01*
X49513250Y-72899204D01*
X49688124Y-73025369D01*
X49911226Y-72945526D01*
X50099014Y-72823619D01*
X50259411Y-72667419D01*
X50386253Y-72482928D01*
X50474665Y-72277237D01*
X50521250Y-72058250D01*
X50521250Y-71758250D01*
X49513250Y-71758250D01*
X49259250Y-71758250D01*
X49239250Y-71758250D01*
X49239250Y-71504250D01*
X49259250Y-71504250D01*
X49259250Y-71484250D01*
X49513250Y-71484250D01*
X49513250Y-71504250D01*
X50521250Y-71504250D01*
X50521250Y-71204250D01*
X50512253Y-71161958D01*
X56900291Y-71161750D01*
X56891250Y-71204250D01*
G36*
X82483299Y-105258162D02*
G01*
X82750660Y-105282192D01*
X83007607Y-105342543D01*
X83253533Y-105438427D01*
X83483524Y-105567928D01*
X83693025Y-105728480D01*
X83877877Y-105916897D01*
X84034395Y-106129422D01*
X84159483Y-106361850D01*
X84250646Y-106609550D01*
X84306083Y-106867621D01*
X84325000Y-107135384D01*
X84325000Y-109284892D01*
X84305141Y-109559219D01*
X84246968Y-109823318D01*
X84151362Y-110076290D01*
X84020320Y-110312845D01*
X83893724Y-110479230D01*
X79294105Y-110479230D01*
X78691699Y-109876824D01*
X78653354Y-109772638D01*
X78631467Y-109670750D01*
X80295686Y-109670750D01*
X80299495Y-109677876D01*
X80352855Y-109742895D01*
X80417874Y-109796255D01*
X80492054Y-109835905D01*
X80572543Y-109860322D01*
X80656250Y-109868566D01*
X82256250Y-109868566D01*
X82339957Y-109860322D01*
X82420446Y-109835905D01*
X82494626Y-109796255D01*
X82559645Y-109742895D01*
X82613005Y-109677876D01*
X82652655Y-109603696D01*
X82677072Y-109523207D01*
X82685316Y-109439500D01*
X82685316Y-108739500D01*
X82677072Y-108655793D01*
X82652655Y-108575304D01*
X82613005Y-108501124D01*
X82559645Y-108436105D01*
X82494626Y-108382745D01*
X82420446Y-108343095D01*
X82339957Y-108318678D01*
X82256250Y-108310434D01*
X80656250Y-108310434D01*
X80572543Y-108318678D01*
X80492054Y-108343095D01*
X80417874Y-108382745D01*
X80352855Y-108436105D01*
X80299495Y-108501124D01*
X80291143Y-108516750D01*
X79845001Y-108516750D01*
X80448908Y-107912843D01*
X80492054Y-107935905D01*
X80572543Y-107960322D01*
X80656250Y-107968566D01*
X82256250Y-107968566D01*
X82339957Y-107960322D01*
X82420446Y-107935905D01*
X82494626Y-107896255D01*
X82559645Y-107842895D01*
X82613005Y-107777876D01*
X82652655Y-107703696D01*
X82677072Y-107623207D01*
X82685316Y-107539500D01*
X82685316Y-106839500D01*
X82677072Y-106755793D01*
X82652655Y-106675304D01*
X82613005Y-106601124D01*
X82559645Y-106536105D01*
X82494626Y-106482745D01*
X82420446Y-106443095D01*
X82339957Y-106418678D01*
X82256250Y-106410434D01*
X80656250Y-106410434D01*
X80572543Y-106418678D01*
X80492054Y-106443095D01*
X80417874Y-106482745D01*
X80352855Y-106536105D01*
X80299495Y-106601124D01*
X80291497Y-106616087D01*
X80243138Y-106620850D01*
X80134374Y-106653843D01*
X80034135Y-106707421D01*
X79946276Y-106779526D01*
X79928211Y-106801538D01*
X78712999Y-108016750D01*
X78579000Y-108016750D01*
X78579000Y-107097296D01*
X78598859Y-106822969D01*
X78657032Y-106558870D01*
X78752638Y-106305898D01*
X78883680Y-106069343D01*
X79047436Y-105854118D01*
X79240477Y-105664729D01*
X79458785Y-105505119D01*
X79697801Y-105378619D01*
X79952557Y-105287861D01*
X80217715Y-105234744D01*
X80492369Y-105220128D01*
X82483299Y-105258162D01*
X82483299Y-105258162D01*
G37*
X82483299Y-105258162D02*
X82750660Y-105282192D01*
X83007607Y-105342543D01*
X83253533Y-105438427D01*
X83483524Y-105567928D01*
X83693025Y-105728480D01*
X83877877Y-105916897D01*
X84034395Y-106129422D01*
X84159483Y-106361850D01*
X84250646Y-106609550D01*
X84306083Y-106867621D01*
X84325000Y-107135384D01*
X84325000Y-109284892D01*
X84305141Y-109559219D01*
X84246968Y-109823318D01*
X84151362Y-110076290D01*
X84020320Y-110312845D01*
X83893724Y-110479230D01*
X79294105Y-110479230D01*
X78691699Y-109876824D01*
X78653354Y-109772638D01*
X78631467Y-109670750D01*
X80295686Y-109670750D01*
X80299495Y-109677876D01*
X80352855Y-109742895D01*
X80417874Y-109796255D01*
X80492054Y-109835905D01*
X80572543Y-109860322D01*
X80656250Y-109868566D01*
X82256250Y-109868566D01*
X82339957Y-109860322D01*
X82420446Y-109835905D01*
X82494626Y-109796255D01*
X82559645Y-109742895D01*
X82613005Y-109677876D01*
X82652655Y-109603696D01*
X82677072Y-109523207D01*
X82685316Y-109439500D01*
X82685316Y-108739500D01*
X82677072Y-108655793D01*
X82652655Y-108575304D01*
X82613005Y-108501124D01*
X82559645Y-108436105D01*
X82494626Y-108382745D01*
X82420446Y-108343095D01*
X82339957Y-108318678D01*
X82256250Y-108310434D01*
X80656250Y-108310434D01*
X80572543Y-108318678D01*
X80492054Y-108343095D01*
X80417874Y-108382745D01*
X80352855Y-108436105D01*
X80299495Y-108501124D01*
X80291143Y-108516750D01*
X79845001Y-108516750D01*
X80448908Y-107912843D01*
X80492054Y-107935905D01*
X80572543Y-107960322D01*
X80656250Y-107968566D01*
X82256250Y-107968566D01*
X82339957Y-107960322D01*
X82420446Y-107935905D01*
X82494626Y-107896255D01*
X82559645Y-107842895D01*
X82613005Y-107777876D01*
X82652655Y-107703696D01*
X82677072Y-107623207D01*
X82685316Y-107539500D01*
X82685316Y-106839500D01*
X82677072Y-106755793D01*
X82652655Y-106675304D01*
X82613005Y-106601124D01*
X82559645Y-106536105D01*
X82494626Y-106482745D01*
X82420446Y-106443095D01*
X82339957Y-106418678D01*
X82256250Y-106410434D01*
X80656250Y-106410434D01*
X80572543Y-106418678D01*
X80492054Y-106443095D01*
X80417874Y-106482745D01*
X80352855Y-106536105D01*
X80299495Y-106601124D01*
X80291497Y-106616087D01*
X80243138Y-106620850D01*
X80134374Y-106653843D01*
X80034135Y-106707421D01*
X79946276Y-106779526D01*
X79928211Y-106801538D01*
X78712999Y-108016750D01*
X78579000Y-108016750D01*
X78579000Y-107097296D01*
X78598859Y-106822969D01*
X78657032Y-106558870D01*
X78752638Y-106305898D01*
X78883680Y-106069343D01*
X79047436Y-105854118D01*
X79240477Y-105664729D01*
X79458785Y-105505119D01*
X79697801Y-105378619D01*
X79952557Y-105287861D01*
X80217715Y-105234744D01*
X80492369Y-105220128D01*
X82483299Y-105258162D01*
G36*
X72279277Y-106793027D02*
G01*
X72415000Y-106928750D01*
X72518057Y-106916983D01*
X72534700Y-106911574D01*
X72557075Y-106918361D01*
X72693750Y-106931822D01*
X72818750Y-106931822D01*
X72955425Y-106918361D01*
X73006250Y-106902943D01*
X73057075Y-106918361D01*
X73193750Y-106931822D01*
X73318750Y-106931822D01*
X73455425Y-106918361D01*
X73506250Y-106902943D01*
X73557075Y-106918361D01*
X73693750Y-106931822D01*
X73818750Y-106931822D01*
X73955425Y-106918361D01*
X74006250Y-106902943D01*
X74057075Y-106918361D01*
X74193750Y-106931822D01*
X74318750Y-106931822D01*
X74455425Y-106918361D01*
X74506250Y-106902943D01*
X74557075Y-106918361D01*
X74693750Y-106931822D01*
X74818750Y-106931822D01*
X74929040Y-106920960D01*
X74918178Y-107031250D01*
X74918178Y-107156250D01*
X74931639Y-107292925D01*
X74947057Y-107343750D01*
X74931639Y-107394575D01*
X74918178Y-107531250D01*
X74918178Y-107656250D01*
X74931639Y-107792925D01*
X74938426Y-107815300D01*
X74933017Y-107831943D01*
X74921250Y-107935000D01*
X75056973Y-108070723D01*
X75075871Y-108093750D01*
X75056973Y-108116777D01*
X74921250Y-108252500D01*
X74933017Y-108355557D01*
X74938426Y-108372200D01*
X74931639Y-108394575D01*
X74918178Y-108531250D01*
X74918178Y-108656250D01*
X74931639Y-108792925D01*
X74947057Y-108843750D01*
X74931639Y-108894575D01*
X74918178Y-109031250D01*
X74918178Y-109156250D01*
X74931639Y-109292925D01*
X74947057Y-109343750D01*
X74931639Y-109394575D01*
X74918178Y-109531250D01*
X74918178Y-109656250D01*
X74931639Y-109792925D01*
X74947057Y-109843750D01*
X74931639Y-109894575D01*
X74918178Y-110031250D01*
X74918178Y-110156250D01*
X74931639Y-110292925D01*
X74947057Y-110343750D01*
X74931639Y-110394575D01*
X74918178Y-110531250D01*
X74918178Y-110656250D01*
X74931639Y-110792925D01*
X74947057Y-110843750D01*
X74931639Y-110894575D01*
X74918178Y-111031250D01*
X74918178Y-111156250D01*
X74929040Y-111266540D01*
X74818750Y-111255678D01*
X74693750Y-111255678D01*
X74557075Y-111269139D01*
X74506250Y-111284557D01*
X74455425Y-111269139D01*
X74318750Y-111255678D01*
X74193750Y-111255678D01*
X74057075Y-111269139D01*
X74006250Y-111284557D01*
X73955425Y-111269139D01*
X73818750Y-111255678D01*
X73693750Y-111255678D01*
X73557075Y-111269139D01*
X73506250Y-111284557D01*
X73455425Y-111269139D01*
X73318750Y-111255678D01*
X73193750Y-111255678D01*
X73057075Y-111269139D01*
X73006250Y-111284557D01*
X72955425Y-111269139D01*
X72818750Y-111255678D01*
X72693750Y-111255678D01*
X72557075Y-111269139D01*
X72506250Y-111284557D01*
X72455425Y-111269139D01*
X72318750Y-111255678D01*
X72193750Y-111255678D01*
X72057075Y-111269139D01*
X72006250Y-111284557D01*
X71955425Y-111269139D01*
X71818750Y-111255678D01*
X71693750Y-111255678D01*
X71557075Y-111269139D01*
X71506250Y-111284557D01*
X71455425Y-111269139D01*
X71318750Y-111255678D01*
X71193750Y-111255678D01*
X71057075Y-111269139D01*
X71006250Y-111284557D01*
X70955425Y-111269139D01*
X70818750Y-111255678D01*
X70693750Y-111255678D01*
X70589717Y-111265924D01*
X70591250Y-111252500D01*
X70455527Y-111116777D01*
X70436629Y-111093750D01*
X70455527Y-111070723D01*
X70591250Y-110935000D01*
X70579483Y-110831943D01*
X70574074Y-110815300D01*
X70580861Y-110792925D01*
X70594322Y-110656250D01*
X70594322Y-110531250D01*
X70580861Y-110394575D01*
X70565443Y-110343750D01*
X70580861Y-110292925D01*
X70594322Y-110156250D01*
X70594322Y-110031250D01*
X70580861Y-109894575D01*
X70565443Y-109843750D01*
X70580861Y-109792925D01*
X70594322Y-109656250D01*
X70594322Y-109531250D01*
X70580861Y-109394575D01*
X70565443Y-109343750D01*
X70580861Y-109292925D01*
X70594322Y-109156250D01*
X70594322Y-109031250D01*
X70580861Y-108894575D01*
X70565443Y-108843750D01*
X70580861Y-108792925D01*
X70594322Y-108656250D01*
X70594322Y-108531250D01*
X70580861Y-108394575D01*
X70565443Y-108343750D01*
X70580861Y-108292925D01*
X70594322Y-108156250D01*
X70594322Y-108031250D01*
X70580861Y-107894575D01*
X70565443Y-107843750D01*
X70580861Y-107792925D01*
X70594322Y-107656250D01*
X70594322Y-107531250D01*
X70580861Y-107394575D01*
X70574074Y-107372200D01*
X70579483Y-107355557D01*
X70591250Y-107252500D01*
X70455527Y-107116777D01*
X70436629Y-107093750D01*
X70455527Y-107070723D01*
X70591250Y-106935000D01*
X70589717Y-106921576D01*
X70693750Y-106931822D01*
X70818750Y-106931822D01*
X70955425Y-106918361D01*
X71006250Y-106902943D01*
X71057075Y-106918361D01*
X71193750Y-106931822D01*
X71318750Y-106931822D01*
X71455425Y-106918361D01*
X71506250Y-106902943D01*
X71557075Y-106918361D01*
X71693750Y-106931822D01*
X71818750Y-106931822D01*
X71955425Y-106918361D01*
X71977800Y-106911574D01*
X71994443Y-106916983D01*
X72097500Y-106928750D01*
X72233223Y-106793027D01*
X72256250Y-106774129D01*
X72279277Y-106793027D01*
X72279277Y-106793027D01*
G37*
X72279277Y-106793027D02*
X72415000Y-106928750D01*
X72518057Y-106916983D01*
X72534700Y-106911574D01*
X72557075Y-106918361D01*
X72693750Y-106931822D01*
X72818750Y-106931822D01*
X72955425Y-106918361D01*
X73006250Y-106902943D01*
X73057075Y-106918361D01*
X73193750Y-106931822D01*
X73318750Y-106931822D01*
X73455425Y-106918361D01*
X73506250Y-106902943D01*
X73557075Y-106918361D01*
X73693750Y-106931822D01*
X73818750Y-106931822D01*
X73955425Y-106918361D01*
X74006250Y-106902943D01*
X74057075Y-106918361D01*
X74193750Y-106931822D01*
X74318750Y-106931822D01*
X74455425Y-106918361D01*
X74506250Y-106902943D01*
X74557075Y-106918361D01*
X74693750Y-106931822D01*
X74818750Y-106931822D01*
X74929040Y-106920960D01*
X74918178Y-107031250D01*
X74918178Y-107156250D01*
X74931639Y-107292925D01*
X74947057Y-107343750D01*
X74931639Y-107394575D01*
X74918178Y-107531250D01*
X74918178Y-107656250D01*
X74931639Y-107792925D01*
X74938426Y-107815300D01*
X74933017Y-107831943D01*
X74921250Y-107935000D01*
X75056973Y-108070723D01*
X75075871Y-108093750D01*
X75056973Y-108116777D01*
X74921250Y-108252500D01*
X74933017Y-108355557D01*
X74938426Y-108372200D01*
X74931639Y-108394575D01*
X74918178Y-108531250D01*
X74918178Y-108656250D01*
X74931639Y-108792925D01*
X74947057Y-108843750D01*
X74931639Y-108894575D01*
X74918178Y-109031250D01*
X74918178Y-109156250D01*
X74931639Y-109292925D01*
X74947057Y-109343750D01*
X74931639Y-109394575D01*
X74918178Y-109531250D01*
X74918178Y-109656250D01*
X74931639Y-109792925D01*
X74947057Y-109843750D01*
X74931639Y-109894575D01*
X74918178Y-110031250D01*
X74918178Y-110156250D01*
X74931639Y-110292925D01*
X74947057Y-110343750D01*
X74931639Y-110394575D01*
X74918178Y-110531250D01*
X74918178Y-110656250D01*
X74931639Y-110792925D01*
X74947057Y-110843750D01*
X74931639Y-110894575D01*
X74918178Y-111031250D01*
X74918178Y-111156250D01*
X74929040Y-111266540D01*
X74818750Y-111255678D01*
X74693750Y-111255678D01*
X74557075Y-111269139D01*
X74506250Y-111284557D01*
X74455425Y-111269139D01*
X74318750Y-111255678D01*
X74193750Y-111255678D01*
X74057075Y-111269139D01*
X74006250Y-111284557D01*
X73955425Y-111269139D01*
X73818750Y-111255678D01*
X73693750Y-111255678D01*
X73557075Y-111269139D01*
X73506250Y-111284557D01*
X73455425Y-111269139D01*
X73318750Y-111255678D01*
X73193750Y-111255678D01*
X73057075Y-111269139D01*
X73006250Y-111284557D01*
X72955425Y-111269139D01*
X72818750Y-111255678D01*
X72693750Y-111255678D01*
X72557075Y-111269139D01*
X72506250Y-111284557D01*
X72455425Y-111269139D01*
X72318750Y-111255678D01*
X72193750Y-111255678D01*
X72057075Y-111269139D01*
X72006250Y-111284557D01*
X71955425Y-111269139D01*
X71818750Y-111255678D01*
X71693750Y-111255678D01*
X71557075Y-111269139D01*
X71506250Y-111284557D01*
X71455425Y-111269139D01*
X71318750Y-111255678D01*
X71193750Y-111255678D01*
X71057075Y-111269139D01*
X71006250Y-111284557D01*
X70955425Y-111269139D01*
X70818750Y-111255678D01*
X70693750Y-111255678D01*
X70589717Y-111265924D01*
X70591250Y-111252500D01*
X70455527Y-111116777D01*
X70436629Y-111093750D01*
X70455527Y-111070723D01*
X70591250Y-110935000D01*
X70579483Y-110831943D01*
X70574074Y-110815300D01*
X70580861Y-110792925D01*
X70594322Y-110656250D01*
X70594322Y-110531250D01*
X70580861Y-110394575D01*
X70565443Y-110343750D01*
X70580861Y-110292925D01*
X70594322Y-110156250D01*
X70594322Y-110031250D01*
X70580861Y-109894575D01*
X70565443Y-109843750D01*
X70580861Y-109792925D01*
X70594322Y-109656250D01*
X70594322Y-109531250D01*
X70580861Y-109394575D01*
X70565443Y-109343750D01*
X70580861Y-109292925D01*
X70594322Y-109156250D01*
X70594322Y-109031250D01*
X70580861Y-108894575D01*
X70565443Y-108843750D01*
X70580861Y-108792925D01*
X70594322Y-108656250D01*
X70594322Y-108531250D01*
X70580861Y-108394575D01*
X70565443Y-108343750D01*
X70580861Y-108292925D01*
X70594322Y-108156250D01*
X70594322Y-108031250D01*
X70580861Y-107894575D01*
X70565443Y-107843750D01*
X70580861Y-107792925D01*
X70594322Y-107656250D01*
X70594322Y-107531250D01*
X70580861Y-107394575D01*
X70574074Y-107372200D01*
X70579483Y-107355557D01*
X70591250Y-107252500D01*
X70455527Y-107116777D01*
X70436629Y-107093750D01*
X70455527Y-107070723D01*
X70591250Y-106935000D01*
X70589717Y-106921576D01*
X70693750Y-106931822D01*
X70818750Y-106931822D01*
X70955425Y-106918361D01*
X71006250Y-106902943D01*
X71057075Y-106918361D01*
X71193750Y-106931822D01*
X71318750Y-106931822D01*
X71455425Y-106918361D01*
X71506250Y-106902943D01*
X71557075Y-106918361D01*
X71693750Y-106931822D01*
X71818750Y-106931822D01*
X71955425Y-106918361D01*
X71977800Y-106911574D01*
X71994443Y-106916983D01*
X72097500Y-106928750D01*
X72233223Y-106793027D01*
X72256250Y-106774129D01*
X72279277Y-106793027D01*
M02*
